<svg width="17" height="26" viewBox="0 0 17 26" fill="none" xmlns="http://www.w3.org/2000/svg">
<g clip-path="url(#clip0_49_23)">
<path d="M4.36872 1.15674C5.0564 1.15674 5.74408 1.15674 6.4526 1.15674C6.45586 1.57946 6.45586 1.57946 6.45918 2.01073C6.46651 2.94023 6.47503 3.86972 6.48413 4.79921C6.48962 5.36294 6.4947 5.92667 6.49887 6.49042C6.5029 7.03412 6.50798 7.5778 6.5138 8.12149C6.51584 8.32927 6.5175 8.53705 6.51877 8.74483C6.52061 9.03511 6.52379 9.32534 6.5273 9.61561C6.52754 9.70215 6.52778 9.7887 6.52802 9.87787C6.51995 10.3525 6.51995 10.3525 6.78163 10.7238C7.05582 10.7614 7.05582 10.7614 7.33001 10.7238C7.65174 10.3937 7.59995 10.0274 7.61792 9.58423C7.63149 9.29173 7.64506 8.99923 7.65905 8.69786C8.38292 8.69786 9.10679 8.69786 9.8526 8.69786C9.89373 9.6405 9.89373 9.6405 9.90502 9.937C9.91269 10.4397 9.91269 10.4397 10.1816 10.8364C10.4558 10.8739 10.4558 10.8739 10.73 10.8364C11.0517 10.5062 10.9999 10.14 11.0179 9.69678C11.0315 9.40428 11.0451 9.11178 11.059 8.81042C11.6381 8.81042 12.2172 8.81042 12.8139 8.81042C12.855 9.69678 12.855 9.69678 12.8663 9.97547C12.878 10.4579 12.878 10.4579 13.1429 10.8364C13.4171 10.8739 13.4171 10.8739 13.6913 10.8364C14.013 10.5062 13.9612 10.14 13.9792 9.69678C13.9928 9.40428 14.0064 9.11178 14.0203 8.81042C14.5994 8.81042 15.1785 8.81042 15.7752 8.81042C15.8125 10.0638 15.8426 11.3168 15.8604 12.5707C15.869 13.153 15.8806 13.7349 15.8993 14.3171C15.9173 14.8798 15.927 15.4421 15.9313 16.0051C15.9343 16.2189 15.9402 16.4327 15.9491 16.6463C16.0138 18.2587 16.0138 18.2587 15.6184 18.8285C14.9806 19.5221 14.2835 19.9957 13.3494 20.1058C13.1023 20.1063 12.855 20.1 12.6082 20.0869C12.3572 20.0837 12.1061 20.0806 11.8551 20.0777C11.7466 20.0732 11.6382 20.0688 11.5265 20.0642C11.2818 20.036 11.2818 20.036 11.1687 20.1784C11.1504 20.516 11.1504 20.516 11.1687 20.8537C11.3886 21.0794 11.8268 20.9951 12.1288 21.0019C12.2564 21.0054 12.2564 21.0054 12.3866 21.009C12.6592 21.0163 12.9319 21.023 13.2046 21.0296C13.3891 21.0344 13.5735 21.0393 13.7579 21.0443C14.211 21.0565 14.664 21.0676 15.1171 21.0788C15.1171 22.3045 15.1171 23.5302 15.1171 24.7931C10.991 24.7931 6.86498 24.7931 2.61389 24.7931C2.61389 23.5674 2.61389 22.3417 2.61389 21.0788C3.55492 21.0417 4.49595 21.0045 5.4655 20.9663C5.51979 20.632 5.51979 20.632 5.57518 20.2909C5.4666 20.1795 5.4666 20.1795 5.35582 20.0658C5.10901 20.0665 4.8622 20.072 4.6155 20.0799C3.67222 20.0644 3.17906 19.6023 2.5282 18.9491C2.47836 18.8962 2.42853 18.8432 2.37718 18.7887C2.18988 18.5989 2.18988 18.5989 1.98646 18.5088C1.74129 18.3745 1.5857 18.2604 1.40743 18.0399C1.28279 17.5396 1.28679 17.0449 1.28619 16.5305C1.28314 16.3079 1.28314 16.3079 1.28002 16.0808C1.27642 15.7666 1.27587 15.4525 1.27722 15.1382C1.27826 14.818 1.27449 14.4985 1.26597 14.1784C1.18871 11.247 1.18871 11.247 1.8769 10.4536C2.54563 9.8234 2.54563 9.8234 2.94292 9.8234C2.94292 9.74912 2.94292 9.67483 2.94292 9.5983C3.01531 9.5983 3.08769 9.5983 3.16227 9.5983C3.1634 9.6683 3.16453 9.73831 3.1657 9.81043C3.17754 10.5371 3.19011 11.2637 3.20311 11.9903C3.20787 12.2618 3.21244 12.5332 3.21682 12.8046C3.22313 13.1941 3.23012 13.5835 3.23725 13.973C3.23908 14.0949 3.24091 14.2168 3.2428 14.3425C3.24499 14.4551 3.24718 14.5678 3.24943 14.6838C3.25199 14.8331 3.25199 14.8331 3.2546 14.9853C3.25743 15.2319 3.25743 15.2319 3.38163 15.4511C3.7015 15.4699 3.7015 15.4699 4.03969 15.4511C4.31883 15.1646 4.28726 15.0622 4.28959 14.6648C4.29081 14.5461 4.29204 14.4274 4.2933 14.3051C4.29354 14.1744 4.29377 14.0436 4.29402 13.9089C4.29512 13.7717 4.29622 13.6344 4.29736 13.493C4.30017 13.1161 4.30201 12.7391 4.30344 12.3622C4.30515 11.9685 4.30809 11.5747 4.3109 11.181C4.31603 10.4352 4.32006 9.6894 4.32369 8.94358C4.32788 8.0946 4.3333 7.24563 4.33883 6.39666C4.35017 4.65002 4.35991 2.90339 4.36872 1.15674Z" fill="#F0FBFD"/>
<path d="M4.0001 0C4.1264 0.000683506 4.1264 0.000683506 4.25526 0.00138082C4.38508 0.00105777 4.38508 0.00105777 4.51752 0.000728195C4.70072 0.000574897 4.88391 0.000991058 5.0671 0.0019304C5.34754 0.00313309 5.6279 0.0019431 5.90834 0.000501493C6.08621 0.000650275 6.26408 0.000938746 6.44195 0.00138082C6.56792 0.000697314 6.56792 0.000697314 6.69643 0C7.11253 0.00377001 7.30441 0.0137143 7.65911 0.256386C7.69868 0.561201 7.69868 0.561201 7.69647 0.953529C7.69644 1.09998 7.69642 1.24644 7.69639 1.39733C7.69471 1.5578 7.69299 1.71828 7.69124 1.87875C7.69063 2.04245 7.69016 2.20616 7.68983 2.36986C7.68858 2.80102 7.68534 3.23213 7.68171 3.66327C7.67834 4.1031 7.67684 4.54294 7.67518 4.98278C7.67165 5.846 7.66603 6.7092 7.65911 7.5724C7.76968 7.5719 7.88025 7.5714 7.99416 7.57089C9.03511 7.56633 10.0761 7.56295 11.117 7.56074C11.6522 7.55956 12.1874 7.55797 12.7226 7.55542C13.2388 7.55298 13.7551 7.55163 14.2714 7.55105C14.4686 7.55063 14.6658 7.54982 14.8629 7.5486C15.1387 7.54697 15.4144 7.54674 15.6901 7.54685C15.772 7.54604 15.8539 7.54523 15.9383 7.5444C16.3472 7.54608 16.5225 7.55836 16.872 7.79751C16.915 7.99879 16.915 7.99879 16.9175 8.24658C16.9192 8.34045 16.9209 8.43433 16.9227 8.53105C16.9229 8.63425 16.9231 8.73745 16.9233 8.84378C16.9247 8.95232 16.9262 9.06087 16.9277 9.17271C16.932 9.53312 16.9337 9.89348 16.935 10.2539C16.9366 10.5041 16.9382 10.7542 16.9399 11.0043C16.9429 11.5296 16.9443 12.0548 16.945 12.58C16.9462 13.2525 16.953 13.9249 16.9611 14.5973C16.9664 15.1144 16.9678 15.6314 16.9681 16.1485C16.9689 16.3964 16.9711 16.6442 16.9748 16.892C16.9797 17.2395 16.9789 17.5864 16.9768 17.9338C16.9795 18.0359 16.9821 18.138 16.9848 18.2431C16.977 18.6889 16.9573 18.95 16.6697 19.2971C16.4522 19.4938 16.2332 19.6722 15.9946 19.8408C16.048 19.9099 16.1015 19.9789 16.1565 20.0501C16.3541 20.3349 16.3652 20.4768 16.3662 20.8224C16.3672 20.9272 16.3683 21.032 16.3693 21.1399C16.3683 21.3084 16.3683 21.3084 16.3673 21.4803C16.3678 21.6543 16.3678 21.6543 16.3683 21.8318C16.3685 22.0767 16.3679 22.3216 16.3665 22.5666C16.3648 22.9421 16.3665 23.3174 16.3686 23.6929C16.3684 23.9309 16.368 24.1688 16.3673 24.4067C16.368 24.5193 16.3687 24.6318 16.3693 24.7478C16.3678 24.9045 16.3678 24.9045 16.3662 25.0643C16.3659 25.1561 16.3657 25.248 16.3654 25.3427C16.3119 25.648 16.2329 25.7304 15.9946 25.9187C15.732 25.9609 15.732 25.9609 15.4152 25.9608C15.2951 25.9616 15.175 25.9624 15.0513 25.9632C14.9195 25.9624 14.7877 25.9615 14.6519 25.9606C14.5131 25.961 14.3744 25.9615 14.2314 25.9619C13.8507 25.9629 13.47 25.9619 13.0893 25.9604C12.6913 25.9591 12.2933 25.9596 11.8952 25.9598C11.2268 25.9599 10.5585 25.9586 9.89012 25.9566C9.11677 25.9542 8.34344 25.9538 7.57009 25.9545C6.82678 25.9551 6.08347 25.9545 5.34016 25.9532C5.02351 25.9527 4.70686 25.9526 4.3902 25.9528C3.94848 25.9531 3.50678 25.9515 3.06506 25.9496C2.93304 25.9499 2.80102 25.9502 2.665 25.9505C2.54521 25.9497 2.42541 25.9489 2.30199 25.9481C2.19747 25.9478 2.09296 25.9476 1.98528 25.9474C1.73653 25.9187 1.73653 25.9187 1.51718 25.6936C1.48932 25.4594 1.48932 25.4594 1.48879 25.1671C1.4881 25.0578 1.48741 24.9485 1.4867 24.8359C1.48714 24.7175 1.48759 24.5991 1.48804 24.4771C1.48783 24.3558 1.48762 24.2345 1.48741 24.1095C1.48726 23.8526 1.48767 23.5957 1.48858 23.3389C1.48975 22.9451 1.48859 22.5514 1.48719 22.1576C1.48733 21.9084 1.48761 21.6592 1.48804 21.41C1.4876 21.2918 1.48716 21.1736 1.4867 21.0518C1.48774 20.8873 1.48774 20.8873 1.48879 20.7195C1.48906 20.5747 1.48906 20.5747 1.48932 20.4269C1.51718 20.1785 1.51718 20.1785 1.73653 19.8408C1.63616 19.7721 1.53579 19.7035 1.43238 19.6328C0.880987 19.2271 0.404292 18.867 0.167464 18.1981C0.108026 17.7325 0.0887373 17.2854 0.0905141 16.8168C0.0873129 16.645 0.083827 16.4733 0.0800746 16.3016C0.0740428 15.9425 0.0735416 15.584 0.0766438 15.2249C0.0792042 14.8611 0.0732092 14.4994 0.0586499 14.1359C-0.0711455 10.8682 -0.0711455 10.8682 0.984242 9.65579C1.47624 9.13039 2.01481 8.64036 2.61395 8.24773C2.68634 8.24773 2.75873 8.24773 2.83331 8.24773C2.8876 8.08059 2.8876 8.08059 2.94298 7.91007C3.01537 7.91007 3.08776 7.91007 3.16234 7.91007C3.16185 7.81468 3.16136 7.71929 3.16086 7.62102C3.15647 6.72334 3.15313 5.82567 3.15097 4.92798C3.14983 4.46644 3.14827 4.00491 3.14579 3.54337C3.14341 3.0982 3.1421 2.65304 3.14153 2.20786C3.14112 2.03778 3.14033 1.8677 3.13915 1.69762C3.13756 1.45991 3.13733 1.22224 3.13744 0.984526C3.13695 0.849059 3.13646 0.713592 3.13596 0.57402C3.18563 -0.0240972 3.48583 0.00468008 4.0001 0ZM4.36879 1.15682C4.3679 1.33258 4.36702 1.50834 4.3661 1.68943C4.35762 3.34242 4.34801 4.99539 4.33725 6.64837C4.33175 7.49826 4.32666 8.34816 4.32252 9.19806C4.31891 9.93865 4.31455 10.6792 4.30926 11.4198C4.30648 11.8121 4.3041 12.2044 4.30262 12.5967C4.30095 13.0342 4.29759 13.4716 4.29408 13.909C4.29385 14.0398 4.29361 14.1705 4.29337 14.3052C4.29214 14.4239 4.29092 14.5426 4.28965 14.6649C4.28905 14.7684 4.28844 14.872 4.28782 14.9787C4.25911 15.2261 4.25911 15.2261 4.03976 15.4512C3.69702 15.4653 3.69702 15.4653 3.38169 15.4512C3.2478 15.1764 3.25476 14.9912 3.2495 14.6839C3.24731 14.5713 3.24512 14.4586 3.24287 14.3425C3.24103 14.2206 3.2392 14.0987 3.23731 13.973C3.23503 13.8484 3.23275 13.7239 3.23041 13.5955C3.22322 13.1964 3.21676 12.7973 3.21032 12.3982C3.20559 12.1281 3.2008 11.858 3.19597 11.5879C3.18421 10.9247 3.17305 10.2615 3.16234 9.59838C3.08995 9.59838 3.01756 9.59838 2.94298 9.59838C2.94298 9.67266 2.94298 9.74695 2.94298 9.82349C2.85191 9.86439 2.85191 9.86439 2.75899 9.90611C2.11587 10.2659 1.51888 10.8013 1.30063 11.5319C1.2557 11.939 1.24395 12.3327 1.24641 12.7424C1.24432 12.8903 1.24223 13.0381 1.24008 13.1905C1.2365 13.5019 1.23705 13.813 1.24041 14.1244C1.24345 14.4417 1.2404 14.7578 1.23142 15.075C1.09149 16.9104 1.09149 16.9104 1.7477 18.5163C2.11333 18.8429 2.51185 19.0551 2.94298 19.278C3.16997 19.4993 3.16997 19.4993 3.32 19.686C3.77293 20.1075 4.42459 20.036 5.00158 20.043C5.35589 20.0659 5.35589 20.0659 5.57524 20.291C5.52095 20.6253 5.52095 20.6253 5.46556 20.9663C4.52453 21.0035 3.5835 21.0406 2.61395 21.0789C2.61395 22.3046 2.61395 23.5303 2.61395 24.7932C6.74002 24.7932 10.8661 24.7932 15.1172 24.7932C15.1172 23.5675 15.1172 22.3418 15.1172 21.0789C14.8413 21.0721 14.5655 21.0653 14.2813 21.0582C14.0152 21.0513 13.7492 21.0441 13.4831 21.037C13.2977 21.0321 13.1123 21.0274 12.9268 21.0229C12.6608 21.0164 12.3949 21.0093 12.1289 21.002C12.0455 21.0001 11.9621 20.9982 11.8762 20.9963C11.291 20.9792 11.291 20.9792 11.1688 20.8538C11.1551 20.5161 11.1551 20.5161 11.1688 20.1785C11.2785 20.0659 11.2785 20.0659 11.5335 20.0589C11.6448 20.0612 11.756 20.0635 11.8706 20.0659C13.4846 20.1396 13.4846 20.1396 14.8841 19.4609C15.0388 19.2911 15.1902 19.1179 15.3365 18.9404C15.4121 18.8988 15.4878 18.8573 15.5657 18.8145C15.817 18.6039 15.817 18.6039 15.828 18.1904C15.8293 18.0154 15.8281 17.8404 15.825 17.6655C15.8251 17.5699 15.8252 17.4744 15.8252 17.3759C15.8249 17.0598 15.8215 16.7438 15.8181 16.4277C15.8173 16.2086 15.8166 15.9896 15.8162 15.7705C15.8145 15.1937 15.8102 14.617 15.8054 14.0402C15.8009 13.4518 15.7989 12.8633 15.7967 12.2748C15.792 11.12 15.7842 9.96528 15.7752 8.8105C15.1961 8.8105 14.617 8.8105 14.0204 8.8105C13.9931 9.39297 13.9931 9.39297 13.968 9.97555C13.9351 10.5864 13.9351 10.5864 13.6914 10.8365C13.4172 10.8646 13.4172 10.8646 13.143 10.8365C12.8213 10.5063 12.8731 10.1401 12.8551 9.69686C12.8415 9.40436 12.8279 9.11186 12.814 8.8105C12.2349 8.8105 11.6558 8.8105 11.0591 8.8105C11.0318 9.39297 11.0318 9.39297 11.0067 9.97555C10.9738 10.5864 10.9738 10.5864 10.7301 10.8365C10.4559 10.8646 10.4559 10.8646 10.1817 10.8365C9.85061 10.4967 9.91119 10.0971 9.89379 9.64059C9.88022 9.32951 9.86664 9.01844 9.85266 8.69794C9.12879 8.69794 8.40492 8.69794 7.65911 8.69794C7.63176 9.28042 7.63176 9.28042 7.60668 9.863C7.57381 10.4738 7.57381 10.4738 7.33008 10.7239C7.05589 10.7521 7.05589 10.7521 6.78169 10.7239C6.46227 10.3961 6.52857 10.0551 6.52737 9.61569C6.52627 9.52454 6.52516 9.43339 6.52403 9.33948C6.52063 9.03741 6.51878 8.73535 6.51692 8.43327C6.51487 8.22414 6.51273 8.01501 6.51049 7.80588C6.50485 7.25485 6.50051 6.70381 6.49643 6.15276C6.49205 5.5907 6.48644 5.02866 6.48094 4.46661C6.47031 3.36336 6.46117 2.2601 6.45266 1.15682C5.76498 1.15682 5.07731 1.15682 4.36879 1.15682Z" fill="#313131"/>
<path d="M14.0204 8.81055C14.5995 8.81055 15.1786 8.81055 15.7753 8.81055C15.8126 10.0639 15.8427 11.317 15.8605 12.5708C15.8691 13.1532 15.8807 13.7351 15.8994 14.3172C15.9174 14.8799 15.9271 15.4422 15.9314 16.0052C15.9344 16.219 15.9403 16.4328 15.9492 16.6465C16.0139 18.259 16.0139 18.259 15.6182 18.829C14.9886 19.5135 14.2979 20.0021 13.3697 20.0853C13.1315 20.0765 12.8936 20.0608 12.6563 20.0378C12.533 20.0317 12.4096 20.0256 12.2825 20.0194C11.9835 20.0037 11.6863 19.9817 11.3882 19.9534C11.4556 19.9206 11.523 19.8877 11.5925 19.8538C11.8829 19.6983 12.0879 19.5005 12.3273 19.271C13.8366 17.8529 13.8366 17.8529 14.5688 17.4772C14.5688 15.1001 14.5688 12.7229 14.5688 10.2738C14.3879 10.2738 14.2069 10.2738 14.0204 10.2738C14.0204 9.79089 14.0204 9.30804 14.0204 8.81055Z" fill="#CDE2E3"/>
<path d="M2.61389 21.0789C3.48254 21.0789 4.35118 21.0789 5.24615 21.0789C5.24615 21.116 5.24615 21.1531 5.24615 21.1914C5.02899 21.1914 4.81183 21.1914 4.58809 21.1914C4.58809 22.3428 4.58809 23.4943 4.58809 24.6806C7.41118 24.6806 10.2343 24.6806 13.1429 24.6806C13.1429 23.5292 13.1429 22.3777 13.1429 21.1914C12.5638 21.1914 11.9847 21.1914 11.3881 21.1914C11.3881 21.1543 11.3881 21.1171 11.3881 21.0789C12.6187 21.0789 13.8492 21.0789 15.1171 21.0789C15.1171 22.3046 15.1171 23.5303 15.1171 24.7931C10.9911 24.7931 6.86499 24.7931 2.61389 24.7931C2.61389 23.5674 2.61389 22.3417 2.61389 21.0789Z" fill="#BFD1D2"/>
<path d="M2.72363 21.1914C3.33892 21.1914 3.95421 21.1914 4.58815 21.1914C4.58815 22.3428 4.58815 23.4943 4.58815 24.6806C3.97286 24.6806 3.35757 24.6806 2.72363 24.6806C2.72363 23.5292 2.72363 22.3777 2.72363 21.1914Z" fill="#CEE4E5"/>
<path d="M7.65906 8.698C8.38293 8.698 9.1068 8.698 9.85261 8.698C9.85261 9.25514 9.85261 9.81228 9.85261 10.3863C9.12874 10.3492 8.40486 10.312 7.65906 10.2738C7.65906 9.75376 7.65906 9.23376 7.65906 8.698Z" fill="#C7DBDC"/>
<path d="M11.0591 8.81055C11.6382 8.81055 12.2173 8.81055 12.8139 8.81055C12.8139 9.2934 12.8139 9.77626 12.8139 10.2738C12.2348 10.2738 11.6557 10.2738 11.0591 10.2738C11.0591 9.79089 11.0591 9.30804 11.0591 8.81055Z" fill="#CDE2E3"/>
<path d="M7.51834 19.917C7.6389 19.9176 7.6389 19.9176 7.7619 19.9181C7.84185 19.9163 7.9218 19.9145 8.00418 19.9127C8.58662 19.9121 8.58662 19.9121 8.86724 20.1063C8.97521 20.291 8.97521 20.291 8.95464 20.5794C8.86553 20.8538 8.86553 20.8538 8.64618 21.0789C8.33071 21.1042 8.02929 21.1154 7.71392 21.114C7.62782 21.1158 7.54172 21.1177 7.45301 21.1195C7.20323 21.1198 7.20323 21.1198 6.78166 21.0789C6.5623 20.7412 6.5623 20.7412 6.58972 20.4528C6.75188 19.912 7.00901 19.9223 7.51834 19.917Z" fill="#313131"/>
</g>
<defs>
<clipPath id="clip0_49_23">
<rect width="17" height="26" fill="white"/>
</clipPath>
</defs>
</svg>
