<svg width="425" height="1064" viewBox="0 0 425 1064" fill="none" xmlns="http://www.w3.org/2000/svg">
<path d="M380.359 477.056C380.546 477.425 380.733 477.793 380.876 479.629C380.851 482.227 380.871 483.358 380.858 485.494C381.244 494.383 385.1 505.07 381.404 509.596C372.101 520.989 377.798 524.398 386.31 527.221C387.934 535.656 390.574 542.847 390.458 549.994C390.122 570.742 386.032 591.33 393.876 612.01C396.438 618.763 393.084 628 391.645 635.959C390.092 644.547 387.614 652.968 385.533 662.39C388.347 667.344 391.167 671.372 394.361 675.933C394.517 679.244 395.148 684.011 394.89 688.73C394.028 704.462 405.435 715.6 409.756 730.293C411.717 736.203 413.676 741.185 415.634 746.168C415.886 748.049 416.138 749.929 415.335 752.89C409.405 762.034 404.409 770.027 399.697 778.184C396.355 783.969 399.185 787.401 403.063 792.568C408.593 799.938 411.12 809.711 414.198 818.707C415.766 823.291 415.737 828.42 416.43 833.303C416.373 835.268 416.316 837.233 415.105 840.437C412.559 853.499 411.168 865.323 409.079 877.685C404.932 886.083 398.534 893.974 398.618 901.796C398.824 921.011 391.579 936.339 381.754 952.117C368.546 973.329 347.046 977.761 325.117 970.908C318.612 968.875 312.309 966.714 309.593 976.829C304.466 978.582 300.13 979.984 294.988 981.381C293.108 981.378 292.034 981.379 290.518 980.571C288.017 978.696 286.048 976.953 283.884 976.665C252.425 972.467 220.96 968.284 189.437 964.604C184.627 964.043 179.519 966.019 173.581 966.821C170.03 966.838 167.447 966.856 164.457 966.097C153.868 955.259 141.837 964.131 129.839 962.066C124.666 962.055 120.528 962.061 115.269 962.034C104.367 961.15 94.5853 960.297 85.5084 958.763C95.4727 956.959 104.733 955.836 114.697 954.629C105.617 951.362 97.8823 946.453 89.9994 946.202C75.0952 945.728 69.3926 933.256 60.8789 925.559C51.4597 917.043 45.2458 904.647 46.7577 890.408C46.785 890.15 44.6708 889.666 43.6645 888.318C44.2528 885.819 44.8953 884.321 45.1873 882.757C48.3592 865.774 48.143 847.83 61.858 834.067C63.5582 832.361 59.2212 824.417 57.3796 819.476C55.3635 814.066 51.9991 808.959 51.0405 803.406C49.8963 796.779 50.6814 789.819 50.7235 782.015C54.9903 770.893 59.165 760.759 63.5398 750.138C61.8045 748.954 58.9941 747.035 58.9081 746.976C58.1958 735.304 57.6392 726.183 57.0285 716.175C60.7849 711.826 71.7722 707.015 61.8317 699.244C51.4622 691.139 54.3366 683.037 57.6907 673.52C51.9802 668.596 45.8978 660.69 54.0954 656.058C67.0867 648.717 61.9548 643.505 55.4311 636.411C53.6812 634.508 52.7361 631.867 51.0136 628.849C55.4412 627.836 58.8022 627.067 63.4022 626.014C54.2468 578.25 45.2058 531.083 36.159 483.885C40.1892 483.277 42.7803 482.886 43.2189 482.82C36.78 471.193 30.673 459.955 24.2855 448.879C23.435 447.405 21.1623 446.749 19.5145 444.611C18.793 435.533 17.7285 427.57 17.4953 419.582C17.0008 402.66 9.16595 386.043 16.3675 368.671C18.3582 363.869 17.0107 357.483 16.4999 351.887C15.1552 337.149 13.4285 322.446 12.5839 307.102C15.8389 299.185 18.7206 291.995 20.7742 284.575C22.3693 278.812 27.0662 271.551 16.5868 269.855C17.5273 264.888 18.3333 260.63 19.7065 255.746C22.6708 250.776 25.0682 246.431 27.9322 241.453C26.5256 237.167 25.5797 232.149 22.5985 230.125C14.727 224.781 13.2181 217.718 14.5599 209.361C16.958 194.426 19.4484 179.501 22.18 164.624C25.8989 144.367 29.9281 124.168 33.684 103.918C34.113 101.604 33.6411 99.1236 33.7907 95.7875C43.1677 75.8732 37.9943 56.5325 33.4836 38.1841C39.0996 36.2389 42.6831 34.9977 46.7966 33.767C47.3265 33.7775 48.3864 33.7937 48.3921 34.5904C48.4032 36.4493 48.4088 37.5116 48.4049 39.5454C48.3747 43.1018 48.3539 45.6866 47.7017 48.8579C48.8915 53.779 50.7703 58.0907 52.5184 62.4547C54.2789 66.8498 57.5034 71.3688 57.3073 75.708C56.6407 90.4517 54.291 105.115 53.4812 119.858C52.9479 129.564 53.2102 137.557 47.7119 147.82C34.143 173.149 32.3902 201.778 41.173 229.86C39.1472 234.411 38.4992 238.984 38.0851 243.579C37.7659 247.122 37.4244 250.71 37.6473 254.244C38.1606 262.382 39.2865 270.489 39.5869 278.63C39.704 281.798 38.5626 285.127 37.483 288.203C34.8727 295.642 27.8242 304.64 29.992 310.02C35.2709 323.122 31.0759 335.361 31.5724 347.903C31.7437 352.225 33.6732 356.503 33.6735 360.801C33.6738 365.949 34.2843 372.736 31.4152 375.91C25.0985 382.899 27.0742 388.85 30.0095 395.807C31.2166 398.668 31.5708 401.952 31.9469 405.087C32.7454 411.74 31.2971 419.582 34.3548 424.864C42.015 438.095 48.0663 450.956 44.4921 466.784C43.9867 469.023 46.1606 473.292 48.2792 474.443C56.3892 478.848 55.481 485.85 55.6923 493.277C56.0998 507.599 57.4301 521.895 58.4205 536.199C58.4735 536.964 58.7307 537.865 59.2137 538.427C70.4351 551.482 71.8261 566.086 66.6862 582.025C66.1054 583.826 67.9964 586.612 69.1214 588.74C72.9607 596.003 81.9712 603.276 74.5568 611.569C68.2954 618.573 67.0683 625.612 67.9937 633.661C69.0266 642.643 72.1814 651.474 72.4599 660.431C73.2022 684.3 74.0566 707.978 76.5649 731.882C79.6612 761.39 76.4824 791.522 71.2714 821.475C67.5846 842.667 51.9325 863.515 64.558 886.584C64.8383 887.096 64.4425 888.222 64.0268 888.834C58.7807 896.556 58.77 903.683 65.909 910.41C71.942 916.094 76.7779 925.154 83.7957 927.285C102.995 933.113 123.325 935.13 142.717 940.444C161.021 945.459 181.614 934.69 198.415 949.101C199.547 950.071 202.908 948.097 205.236 948.079C216.26 947.991 227.412 947.067 238.281 948.388C255.572 950.489 272.609 954.627 289.885 956.906C297.629 957.928 305.746 955.797 313.598 956.383C334.748 957.964 353.856 954.041 367.851 936.857C371.009 932.98 373.984 926.137 372.688 922.033C369.911 913.241 373.876 909.841 379.938 905.516C383.176 903.206 387.502 897.405 386.573 895.089C380.627 880.272 387.445 868.784 394.613 857.155C400.804 847.112 410.699 837.315 394.917 827.173C401.902 817.229 401.825 809 394.588 799.999C391.785 796.512 392.34 789.933 392.262 784.749C392.159 777.848 393.301 770.929 393.202 764.027C393.135 759.337 389.949 753.921 391.438 750.11C399.202 730.23 394.839 713.193 382.1 697.567C383.46 692.651 383.994 687.85 383.36 683.209C381.467 669.349 379.08 655.557 376.999 641.722C376.779 640.26 377.19 638.658 377.522 637.168C379.347 628.967 381.963 620.869 382.975 612.574C386.505 583.651 369.055 559.837 362.636 533.288C359.467 520.178 361.231 505.357 367.883 502.556C370.199 495.618 372.008 490.484 373.596 485.282C374.127 483.54 374.846 481.283 374.193 479.845C370.187 471.019 365.583 462.461 361.648 453.606C359.438 448.632 357.542 443.367 356.552 438.039C355.016 429.773 357.385 418.205 352.674 413.688C344.911 406.245 347.826 402.914 353.296 398.297C347.168 387.398 347.117 385.38 350.918 371.193C351.496 369.036 351.626 365.522 350.36 364.318C344.147 358.411 342.741 351.73 343.819 343.376C345.297 331.92 345.482 320.296 346.221 308.744C346.72 300.923 347.759 293.088 347.567 285.284C347.366 277.082 344.215 268.625 345.475 260.781C348.43 242.387 349.038 224.632 342.346 206.835C341.261 203.949 344.065 199.421 345.482 195.813C348.582 187.92 354.294 181.063 347.607 171.386C345.05 167.685 346.839 159.273 349.23 154.23C353.929 144.317 360.436 135.259 367.061 125.947C369.461 128.035 372.501 130.231 372.261 131.976C371.345 138.634 370.149 145.461 367.65 151.657C359.83 171.049 356.674 190.841 359.792 211.76C364.4 212.759 368.516 213.652 373.202 214.668C371.689 221.193 369.692 226.88 369.158 232.702C367.915 246.251 367.294 259.861 366.616 273.455C366.46 276.575 365.93 280.665 367.569 282.706C373.389 289.955 368.576 296.657 364.465 299.651C353.079 307.942 354.63 313.726 366.343 319.515C364.93 323.798 363.711 327.488 362.937 329.835C379.797 350.857 374.947 374.63 375.824 397.286C375.824 397.286 375.833 397.328 375.198 397.866C374.254 399.991 373.945 401.578 373.635 403.166C373.8 405.904 373.966 408.643 373.864 413.067C374.799 416.967 376.001 419.181 377.204 421.395C377.172 422.797 377.14 424.198 375.951 426.311C374.358 427.716 373.923 428.411 373.488 429.106C373.488 429.106 373.64 428.891 372.771 428.914C360.778 432.7 357.815 439.854 364.511 449.171C368.569 454.817 374.174 459.353 379.083 464.388C379.349 465.745 379.614 467.101 379.371 470.011C379.361 473.395 379.86 475.226 380.359 477.056ZM354.673 387.323C355.138 388.642 355.602 389.96 356.066 391.278C356.741 390.968 357.415 390.658 358.09 390.348C357.301 388.992 356.513 387.635 354.673 387.323Z" fill="#CFA14B"/>
<path d="M290.96 981.38C292.034 981.379 293.108 981.378 295.132 982.21C300.013 983.425 303.966 983.656 307.872 984.215C342.163 989.117 376.445 994.077 411.867 999.184C411.179 996.029 410.466 992.758 409.753 989.487C420.002 989.25 422.683 997.094 423.825 1004.51C424.894 1011.45 423.459 1018.78 421.372 1026.67C414.78 1027.26 409.912 1027.43 405.111 1026.94C375.718 1023.95 346.32 1020.98 316.963 1017.66C285.09 1014.05 253.222 1010.33 221.43 1006.09C208.552 1004.37 195.981 1000.2 183.091 998.758C160.149 996.197 137.022 995.323 114.062 992.899C87.5983 990.104 61.2317 986.395 34.7196 982.362C34.4076 980.694 34.1994 979.747 33.9867 978.008C34.7149 975.383 35.4473 973.548 37.0759 972.094C74.3691 977.886 110.71 983.716 147.18 988.58C177.35 992.604 207.667 995.524 237.926 998.869C266.179 1001.99 294.442 1005.03 322.701 1008.1C343.796 1010.4 364.871 1012.92 385.998 1014.88C393.729 1015.59 401.581 1014.99 409.378 1014.99C409.513 1013.33 409.647 1011.66 409.781 1009.99C406.296 1008.62 402.92 1006.54 399.308 1005.98C381.509 1003.22 363.689 1000.5 345.8 998.44C308.007 994.077 270.16 990.184 232.346 985.994C189.559 981.254 146.777 976.465 104.024 971.432C101.481 971.133 99.2155 968.48 97.8798 966.891C104.756 965.261 110.573 963.664 116.389 962.067C120.528 962.061 124.666 962.055 129.968 962.953C139.704 972.625 157.628 974.229 164.864 966.874C167.447 966.856 170.03 966.838 174.245 967.516C203.063 971.824 230.225 975.635 257.446 978.955C268.551 980.31 279.785 980.603 290.96 981.38Z" fill="#DBB369"/>
<path d="M33.991 978.799C34.1992 979.746 34.4075 980.693 34.4427 983.371C36.1224 987.926 37.4512 992.52 39.9244 993.252C47.9484 995.627 56.3383 997.049 64.6825 998.017C115.2 1003.88 165.717 1009.77 216.288 1015.15C250.817 1018.82 285.423 1021.81 320.016 1024.85C350.79 1027.55 381.598 1029.87 412.377 1032.52C414.139 1032.68 415.775 1034.3 417.469 1035.23C414.708 1040.53 411.947 1045.84 408.145 1050.29C404.169 1048.59 401.285 1047.3 398.289 1046.94C379.179 1044.66 360.048 1042.56 340.918 1040.45C301.44 1036.11 261.976 1031.62 222.472 1027.53C194.529 1024.64 166.529 1022.3 138.553 1019.73C104.594 1016.6 70.6441 1013.37 36.6617 1010.53C32.58 1010.19 28.3204 1011.97 23.3677 1013.14C19.7362 1011.59 14.3758 1009.63 14.4135 1007.77C14.772 990.15 16.0466 972.543 17.0575 954.931C19.476 951.294 21.8948 947.657 25.6517 943.584C29.1433 944.733 31.2968 946.317 33.6269 948.669C34.1396 950.431 34.4756 951.425 34.6765 953.215C34.6783 955.072 34.8149 956.134 34.2811 957.759C30.6632 958.321 27.716 958.321 23.7968 958.321C26.4538 966.017 20.3724 976.916 33.991 978.799Z" fill="#693812"/>
<path d="M16.2036 954.917C16.0468 972.543 14.7721 990.15 14.4137 1007.78C14.3759 1009.63 19.7364 1011.59 23.9377 1013.89C38.6183 1016.25 51.9028 1018.71 65.2987 1020.08C93.1645 1022.93 121.121 1024.89 148.982 1027.77C192.334 1032.27 235.595 1037.68 278.974 1041.87C321.207 1045.95 363.54 1048.99 405.829 1052.48C400.043 1062.81 390.955 1064.58 380.007 1063.39C336.304 1058.64 292.582 1054.04 248.829 1049.77C202.678 1045.27 156.478 1041.27 110.31 1036.93C80.5881 1034.14 50.8594 1031.38 21.1851 1028.14C4.57481 1026.32 -0.216728 1021.31 0.00750129 1004.71C0.158468 993.522 1.5404 982.101 4.35488 971.3C5.92167 965.288 11.5512 960.334 16.2036 954.917Z" fill="#98856A"/>
<path d="M376.517 396.702C374.947 374.63 379.797 350.857 362.937 329.835C363.711 327.488 364.93 323.798 366.343 319.515C354.63 313.726 353.079 307.942 364.465 299.651C368.576 296.657 373.389 289.955 367.569 282.706C365.93 280.665 366.46 276.575 366.616 273.455C367.294 259.861 367.914 246.251 369.158 232.702C369.692 226.88 371.689 221.193 373.202 214.668C368.516 213.652 364.4 212.759 359.792 211.76C356.674 190.841 359.83 171.049 367.65 151.657C370.149 145.461 371.345 138.634 372.261 131.976C372.501 130.231 369.461 128.035 367.061 125.156C366.216 123.21 366.237 122.155 367.178 120.944C369.989 114.429 371.537 107.942 373.838 101.735C381.648 80.6633 389.725 59.6907 398.189 38.0102C402.327 36.1701 405.976 35.0002 410.078 33.8224C410.531 33.8145 411.357 33.444 411.357 33.444C407.186 51.7511 402.848 70.0233 398.968 88.392C398.088 92.559 398.907 97.065 398.737 101.407C398.542 106.43 399.749 112.419 397.451 116.257C392.808 124.013 392.372 132.153 390.999 140.567C388.232 157.52 382.143 174.127 381.038 191.111C379.223 219.018 380.72 247.126 379.826 275.118C379.604 282.083 374.999 288.8 373.449 295.86C371.553 304.498 366.503 316.672 370.276 321.533C381.469 335.952 375.815 351.67 377.992 366.534C379.4 376.151 377.582 386.241 376.517 396.702Z" fill="#C5913D"/>
<path d="M11.8541 307.728C13.4287 322.445 15.1554 337.148 16.5002 351.886C17.0109 357.482 18.3584 363.868 16.3677 368.67C9.16618 386.043 17.001 402.66 17.4955 419.581C17.7288 427.569 18.7932 435.533 19.427 445.684C21.7171 460.786 24.1032 473.705 26.3896 486.642C27.6835 493.964 32.3368 503.494 29.3844 508.261C18.813 525.328 28.2552 541.651 30.5999 557.014C33.8216 578.12 40.0766 598.701 37.4733 620.555C37.3688 628.772 38.0593 636.868 38.7965 645.341C38.8434 645.719 38.8307 646.48 38.1178 647.228C38.8687 660.568 40.3327 673.161 42.499 686.187C53.0533 698.029 54.3937 710.356 47.7034 723.87C45.7988 727.718 43.896 732.136 43.9428 736.27C44.0779 748.22 44.8936 760.19 46.1277 772.081C46.5175 775.837 49.0691 779.368 50.6312 783.002C50.6817 789.818 49.8965 796.778 51.0407 803.405C51.9994 808.958 55.3637 814.065 57.3798 819.475C59.2214 824.416 63.5584 832.36 61.8583 834.066C48.1432 847.829 48.3595 865.774 45.1875 882.756C44.8955 884.32 44.253 885.818 43.2777 889.13C36.1242 902.499 38.5809 912.315 48.4301 921.571C45.4603 924.078 42.6294 925.68 39.7986 927.283C39.9006 926.892 40.2234 926.314 40.0735 926.138C26.709 910.461 33.948 894.087 38.1325 877.665C39.9162 870.665 39.9475 863.21 41.8436 856.252C43.8746 848.8 46.4916 841.332 50.1191 834.548C52.932 829.286 57.2821 825.398 49.0139 821.146C46.4885 819.847 43.6727 816.423 43.4511 813.768C41.7998 793.994 40.7528 774.169 39.5521 754.358C39.2614 749.561 38.495 744.686 39.0395 739.973C39.6971 734.281 42.1432 728.782 42.687 723.092C43.5015 714.571 47.0273 702.641 42.8733 698.018C31.4755 685.332 32.9269 670.718 33.1813 656.968C33.9107 617.546 30.9343 578.778 21.4379 540.422C19.1774 531.292 20.5452 521.319 19.5871 511.8C18.1435 497.456 15.9484 483.19 14.3853 468.858C11.8202 445.335 9.58681 421.776 7.01269 398.255C6.53729 393.911 4.9338 389.702 4.18518 385.373C3.66465 382.363 2.32845 377.692 3.73658 376.442C12.9368 368.28 8.92374 358.826 7.7061 349.365C4.84529 327.133 1.47934 304.904 0.1504 282.566C-0.448284 272.502 3.33075 262.179 6.1032 252.553C7.07915 255.985 7.07515 258.838 6.39862 262.413C4.28021 278.478 2.45441 293.873 11.8541 307.728Z" fill="#8E785C"/>
<path d="M418.287 1035.04C415.775 1034.3 414.139 1032.68 412.377 1032.52C381.598 1029.87 350.791 1027.55 320.017 1024.85C285.423 1021.8 250.818 1018.82 216.288 1015.15C165.717 1009.77 115.2 1003.88 64.6829 998.017C56.3386 997.048 47.9487 995.627 39.9247 993.252C37.4515 992.52 36.1227 987.926 34.5466 984.092C61.2319 986.395 87.5985 990.104 114.062 992.898C137.022 995.323 160.149 996.196 183.091 998.758C195.982 1000.2 208.552 1004.37 221.43 1006.09C253.222 1010.33 285.09 1014.05 316.963 1017.66C346.32 1020.98 375.719 1023.95 405.112 1026.94C409.912 1027.43 414.78 1027.26 420.696 1027.4C420.884 1029.88 419.994 1032.37 418.287 1035.04Z" fill="#AA6E2E"/>
<path d="M48.4145 38.5738C48.409 37.5115 48.4034 36.4493 49.0102 33.9144C60.8035 30.7799 72.0001 29.2162 83.1621 27.4355C105.108 23.9342 127.012 20.1608 148.979 16.799C161.496 14.8833 174.104 13.558 186.67 11.9669C195.765 11.2331 204.859 10.4992 215.724 10.5072C222.585 10.681 227.675 10.113 232.765 9.54494C249.995 8.0954 267.203 6.21545 284.461 5.2839C323.103 3.19812 361.765 1.43373 400.437 0.00520594C404.42 -0.141926 408.519 2.86268 412.224 6.19552C408.254 13.0031 404.617 16.4105 397.947 11.6348C395.355 9.77851 391.085 9.59302 387.625 9.74056C377.056 10.1913 366.519 11.3586 355.952 11.915C323.49 13.6242 291.017 15.1193 258.556 16.8395C251.375 17.22 244.238 18.5774 237.06 18.7965C222.763 19.2328 208.313 18.0274 194.19 19.71C182.593 21.0916 171.378 25.6708 158.904 28.8526C151.27 28.8776 144.725 28.8827 137.642 28.2525C134.212 28.8195 131.318 30.0219 127.624 31.2395C125.754 31.2472 124.686 31.2396 123.026 30.5935C117.166 31.2593 111.896 32.5635 105.621 33.8645C98.8283 34.619 93.0409 35.3766 87.1006 35.2839C74.1033 35.8137 61.2589 37.1937 48.4145 38.5738Z" fill="#DCB15F"/>
<path d="M406.39 1052.38C363.54 1048.99 321.206 1045.95 278.974 1041.87C235.595 1037.68 192.334 1032.27 148.982 1027.77C121.121 1024.89 93.1644 1022.92 65.2986 1020.08C51.9028 1018.71 38.6182 1016.25 24.7133 1013.52C28.3205 1011.97 32.5801 1010.19 36.6618 1010.53C70.6442 1013.37 104.594 1016.6 138.553 1019.73C166.529 1022.3 194.529 1024.64 222.472 1027.53C261.977 1031.62 301.44 1036.11 340.919 1040.45C360.048 1042.56 379.179 1044.66 398.289 1046.94C401.285 1047.3 404.169 1048.59 407.319 1050.37C407.533 1051.29 406.951 1052.27 406.39 1052.38Z" fill="#A4723E"/>
<path d="M33.5869 96.7204C33.641 99.1235 34.1128 101.604 33.6839 103.918C29.9279 124.168 25.8988 144.367 22.1798 164.624C19.4482 179.501 16.9579 194.426 14.5597 209.361C13.2179 217.718 14.7268 224.781 22.5984 230.125C25.5795 232.149 26.5254 237.167 26.9447 241.686C22.2793 242.816 19.068 243.081 15.8569 243.345C23.3565 238.664 18.4465 235.257 14.1638 233.276C5.86483 229.436 5.41267 223.725 6.60397 215.509C10.6793 187.396 13.6906 159.13 17.418 130.964C18.2435 124.727 20.3397 118.658 21.8175 112.646C2.44427 101.781 1.74509 100.831 5.4365 75.9855C7.67199 60.94 12.9508 47.1929 27.9473 39.4409C25.4638 54.3558 21.738 68.5814 18.8356 82.9727C16.4558 94.7713 21.884 99.4062 33.5869 96.7204Z" fill="#A59477"/>
<path d="M310.384 976.478C312.309 966.714 318.612 968.875 325.117 970.908C347.046 977.761 368.546 973.329 381.754 952.117C391.579 936.339 398.824 921.011 398.618 901.796C398.535 893.974 404.932 886.083 409.168 878.494C410.957 879.941 411.959 881.119 412.96 882.296C412.821 883.332 412.681 884.368 411.62 886.868C407.938 900.326 408.638 912.386 404.048 924.869C399.38 937.568 405.461 954.214 406.835 969.132C406.711 970.288 406.587 971.445 405.336 973.678C402.821 979.323 401.433 983.891 399.067 988.382C385.32 986.74 372.534 985.309 359.788 983.576C343.303 981.336 326.85 978.855 310.384 976.478Z" fill="#C5903B"/>
<path d="M159.993 28.8327C171.378 25.6708 182.593 21.0916 194.19 19.71C208.313 18.0274 222.763 19.2329 237.059 18.7965C244.238 18.5774 251.375 17.2201 258.556 16.8395C291.017 15.1193 323.49 13.6242 355.952 11.915C366.519 11.3586 377.056 10.1913 387.625 9.74057C391.084 9.59304 395.355 9.77853 397.947 11.6349C404.617 16.4105 408.254 13.0032 412.344 7.17397C412.599 14.9173 412.391 23.4729 411.77 32.7363C411.357 33.444 410.531 33.8145 410.134 32.8536C410.162 24.7733 409.647 18.8093 399.837 23.0917C390.072 21.9945 380.519 21.8422 370.077 21.6687C365.761 20.8637 362.335 20.0798 358.018 19.2719C354.469 20.0374 351.812 20.827 348.019 21.6224C323.847 22.4213 300.808 23.1464 277.776 24.0285C259.118 24.7432 240.449 25.368 221.817 26.5432C202.521 27.7603 183.267 29.6418 163.981 31.0423C162.712 31.1344 161.325 29.6069 159.993 28.8327Z" fill="#E1BB73"/>
<path d="M385.539 661.462C387.614 652.968 390.092 644.547 391.645 635.958C393.084 628 396.438 618.762 393.877 612.01C386.033 591.33 390.122 570.742 390.458 549.994C390.574 542.847 387.934 535.655 386.31 527.221C377.798 524.397 372.101 520.988 381.404 509.596C385.1 505.069 381.244 494.382 381.349 485.521C381.872 484.542 382.857 484.607 382.857 484.607C387.539 499.433 393.299 514.029 396.518 529.165C398.627 539.08 395.981 549.923 397.362 560.092C400.203 581.005 404.221 601.762 407.948 622.548C409.765 632.683 410.083 641.565 398.109 646.354C395.145 647.539 393.703 652.527 392.091 656.854C392.551 658.339 392.481 658.739 391.752 659.451C389.241 660.33 387.39 660.896 385.539 661.462Z" fill="#C49342"/>
<path d="M33.7908 95.7874C21.8842 99.4062 16.4561 94.7713 18.8358 82.9727C21.7382 68.5814 25.464 54.3558 28.7185 39.1407C34.74 22.0889 36.3026 20.1823 45.0292 20.3151C45.807 25.7729 46.0368 29.7647 46.2667 33.7564C42.6832 34.9976 39.0996 36.2388 33.4837 38.1841C37.9943 56.5325 43.1677 75.8731 33.7908 95.7874Z" fill="#653C1C"/>
<path d="M46.7964 33.7669C46.0366 29.7646 45.8067 25.7729 45.6857 20.7886C47.9422 18.9666 50.0583 17.5147 52.2426 17.4038C75.0609 16.2456 97.8893 15.282 120.717 14.3058C141.952 13.3978 163.189 12.54 185.548 11.8135C174.103 13.558 161.496 14.8833 148.979 16.7989C127.012 20.1608 105.108 23.9341 83.1617 27.4354C71.9998 29.2162 60.8031 30.7799 49.0041 33.1177C48.3862 33.7936 47.3263 33.7774 46.7964 33.7669Z" fill="#CEA454"/>
<path d="M309.593 976.829C326.851 978.855 343.303 981.336 359.788 983.576C372.534 985.309 385.32 986.74 400.072 988.432C403.399 988.518 404.743 988.477 406.087 988.437C406.936 988.56 407.785 988.683 409.194 989.146C410.466 992.758 411.179 996.029 411.867 999.184C376.445 994.077 342.163 989.117 307.872 984.214C303.966 983.656 300.013 983.425 295.938 982.214C300.13 979.984 304.467 978.582 309.593 976.829Z" fill="#DCB05D"/>
<path d="M416.875 832.441C415.737 828.421 415.766 823.291 414.198 818.708C411.12 809.711 408.594 799.939 403.063 792.568C399.185 787.401 396.355 783.97 399.697 778.184C404.409 770.027 409.405 762.034 415.039 753.81C415.631 758.368 416.542 763.453 415.091 767.739C410.964 779.929 409.525 791.063 421.148 800.205C422.411 801.198 423.41 803.746 423.111 805.301C421.42 814.106 419.297 822.828 416.875 832.441Z" fill="#C59146"/>
<path d="M38.9904 927.405C42.6292 925.681 45.4601 924.079 49.3142 921.8C54.839 930.489 52.2302 940.946 44.3841 944.238C40.8495 945.721 37.1015 946.696 33.4504 947.902C31.297 946.317 29.1435 944.733 26.2875 943.04C25.1468 934.009 30.48 929.8 38.9904 927.405Z" fill="#AD7B3F"/>
<path d="M407.325 968.268C405.461 954.214 399.38 937.568 404.049 924.869C408.638 912.386 407.938 900.326 411.378 887.614C410.423 899.563 408.238 912.192 407.351 924.911C406.797 932.851 408.466 940.922 408.638 948.945C408.769 955.09 408.118 961.251 407.325 968.268Z" fill="#C59146"/>
<path d="M415.892 745.103C413.676 741.185 411.717 736.203 410.557 729.845C412.427 726.439 414.472 724.377 414.407 722.383C413.979 709.205 413.097 696.041 412.869 682.918C413.376 682.964 414.38 683.122 414.38 683.122C419.917 696.719 423.456 710.159 417.467 724.96C415.194 730.578 416.484 737.637 415.892 745.103Z" fill="#C59146"/>
<path d="M414.651 682.344C414.379 683.122 413.375 682.964 412.838 682.053C409.327 677.972 406.3 674.847 403.39 671.617C399.682 667.502 396.067 663.302 392.412 659.139C392.481 658.739 392.551 658.34 392.749 657.346C409.839 658.049 415.9 664.871 414.651 682.344Z" fill="#9D5A22"/>
<path d="M379.432 463.588C374.174 459.353 368.569 454.817 364.511 449.171C357.815 439.854 360.778 432.7 372.868 429.003C371.221 431.883 368.61 434.697 367.068 436.357C371.498 445.568 375.639 454.178 379.432 463.588Z" fill="#B1844B"/>
<path d="M15.1614 243.618C19.0682 243.081 22.2795 242.816 26.4781 242.319C25.0682 246.431 22.6708 250.776 18.8696 255.831C14.0008 258.258 10.5359 259.975 7.07097 261.692C7.07497 258.839 7.07897 255.986 6.92252 252.069C9.33014 248.633 11.8979 246.263 15.1614 243.618Z" fill="#925721"/>
<path d="M413.718 881.699C411.959 881.119 410.957 879.941 409.866 877.956C411.168 865.323 412.559 853.499 414.678 841.331C415.096 854.358 414.785 867.73 413.718 881.699Z" fill="#C59146"/>
<path d="M405.883 987.536C404.743 988.478 403.399 988.518 401.05 988.508C401.433 983.89 402.821 979.323 404.876 974.429C405.589 978.279 405.634 982.457 405.883 987.536Z" fill="#C59146"/>
<path d="M231.721 9.41555C227.675 10.113 222.585 10.681 216.81 10.722C220.976 9.89195 225.826 9.58905 231.721 9.41555Z" fill="#CEA454"/>
<path d="M377.341 420.618C376.002 419.181 374.799 416.966 373.592 413.85C374.884 415.246 376.181 417.544 377.341 420.618Z" fill="#B1844B"/>
<path d="M380.464 476.225C379.86 475.226 379.361 473.395 379.2 471.04C379.882 472.141 380.226 473.767 380.464 476.225Z" fill="#B1844B"/>
<path d="M374.194 402.578C373.945 401.579 374.254 399.992 375.18 397.879C375.449 398.9 375.1 400.445 374.194 402.578Z" fill="#B1844B"/>
<path d="M382.937 483.865C382.857 484.608 381.871 484.542 381.381 484.516C380.871 483.358 380.851 482.228 380.825 480.247C381.551 480.639 382.283 481.881 382.937 483.865Z" fill="#B1844B"/>
<path d="M374.151 428.961C373.923 428.411 374.358 427.716 375.331 426.708C375.517 427.202 375.166 428.009 374.151 428.961Z" fill="#B1844B"/>
<path d="M400.049 24.0364C409.648 18.8092 410.162 24.7732 409.682 32.8614C405.976 35.0001 402.327 36.17 397.306 38.0819C392.225 41.095 388.775 44.1214 384.759 45.4975C371.995 49.8715 363.905 65.0019 370.251 76.7626C373.754 83.2538 372.296 87.0267 368.702 91.7014C361.577 100.968 358.662 110.602 366.259 121.099C366.238 122.155 366.216 123.21 366.195 125.057C360.436 135.259 353.929 144.317 349.23 154.23C346.839 159.273 345.05 167.685 347.607 171.386C354.294 181.062 348.583 187.92 345.482 195.813C344.065 199.421 341.261 203.949 342.346 206.835C349.038 224.632 348.43 242.387 345.475 260.781C344.215 268.625 347.366 277.082 347.568 285.284C347.759 293.088 346.72 300.923 346.221 308.744C345.482 320.296 345.297 331.92 343.819 343.376C342.742 351.73 344.147 358.411 350.36 364.318C351.626 365.521 351.496 369.036 350.918 371.193C347.117 385.38 347.168 387.398 353.296 398.297C347.826 402.914 344.911 406.245 352.674 413.688C357.385 418.204 355.017 429.773 356.552 438.039C357.542 443.367 359.438 448.632 361.648 453.606C365.583 462.461 370.187 471.019 374.193 479.845C374.846 481.283 374.127 483.54 373.596 485.282C372.008 490.484 370.199 495.618 367.883 502.556C361.231 505.356 359.467 520.178 362.636 533.288C369.055 559.837 386.505 583.651 382.975 612.574C381.963 620.869 379.347 628.967 377.522 637.168C377.191 638.658 376.78 640.26 376.999 641.722C379.08 655.557 381.467 669.349 383.36 683.209C383.994 687.85 383.46 692.65 382.1 697.567C394.839 713.193 399.203 730.23 391.438 750.109C389.949 753.921 393.135 759.337 393.202 764.027C393.301 770.928 392.159 777.848 392.262 784.749C392.34 789.933 391.785 796.512 394.588 799.999C401.825 809 401.902 817.229 394.917 827.173C410.699 837.315 400.804 847.112 394.613 857.155C387.445 868.784 380.628 880.272 386.573 895.089C387.502 897.405 383.176 903.206 379.938 905.516C373.876 909.841 369.911 913.241 372.688 922.033C373.984 926.137 371.009 932.98 367.851 936.857C353.856 954.04 334.748 957.963 313.598 956.383C305.746 955.797 297.629 957.927 289.885 956.906C272.609 954.626 255.572 950.489 238.282 948.388C227.412 947.067 216.26 947.991 205.236 948.079C202.908 948.097 199.547 950.071 198.415 949.1C181.614 934.69 161.021 945.459 142.717 940.443C123.325 935.13 102.995 933.113 83.7958 927.284C76.778 925.154 71.9421 916.094 65.9091 910.409C58.7701 903.683 58.7808 896.556 64.0269 888.834C64.4426 888.222 64.8384 887.096 64.558 886.584C51.9326 863.515 67.5847 842.666 71.2714 821.475C76.4824 791.522 79.6613 761.39 76.565 731.882C74.0567 707.978 73.2023 684.299 72.4599 660.431C72.1815 651.474 69.0267 642.643 67.9938 633.661C67.0684 625.612 68.2955 618.573 74.5569 611.569C81.9713 603.276 72.9608 596.003 69.1215 588.74C67.9965 586.612 66.1055 583.826 66.6862 582.025C71.8262 566.086 70.4352 551.482 59.2138 538.426C58.7308 537.865 58.4735 536.964 58.4206 536.199C57.4302 521.895 56.0999 507.599 55.6924 493.277C55.4811 485.85 56.3892 478.847 48.2793 474.443C46.1607 473.292 43.9868 469.023 44.4922 466.784C48.0664 450.956 42.0151 438.095 34.3549 424.864C31.2972 419.582 32.7455 411.74 31.947 405.087C31.5709 401.952 31.2167 398.668 30.0096 395.807C27.0743 388.85 25.0986 382.899 31.4153 375.91C34.2844 372.736 33.6739 365.949 33.6736 360.801C33.6733 356.503 31.7437 352.225 31.5725 347.903C31.0759 335.361 35.271 323.122 29.9921 310.02C27.8243 304.639 34.8727 295.641 37.4831 288.203C38.5627 285.127 39.7041 281.798 39.587 278.63C39.2866 270.489 38.1607 262.382 37.6474 254.244C37.4245 250.71 37.766 247.122 38.0852 243.579C38.4993 238.984 39.1473 234.411 41.1731 229.86C32.3902 201.778 34.1431 173.149 47.712 147.82C53.2102 137.557 52.948 129.564 53.4812 119.858C54.2911 105.115 56.6408 90.4516 57.3074 75.7079C57.5035 71.3687 54.279 66.8497 52.5185 62.4546C50.7704 58.0906 48.8916 53.7789 48.4598 49.2191C64.4262 59.4437 69.8114 68.3747 64.6729 79.6491C58.7063 92.7406 60.7324 105.233 62.3102 118.404C63.2663 126.384 65.1424 137.627 60.9377 142.205C49.4809 154.678 49.22 169.06 48.5896 183.741C47.976 198.03 48.4564 212.366 48.4538 226.682C48.4518 237.369 48.5728 248.058 48.4069 258.743C48.2263 270.388 51.9873 284.718 46.6046 293.134C33.8263 313.113 41.6847 330.33 47.4302 348.636C48.2503 351.249 49.7213 353.652 50.8103 356.187C56.9861 370.564 41.2314 386.107 53.0912 400.277C53.5668 400.845 52.6875 402.555 52.4251 403.73C49.6106 416.333 53.4894 427.261 60.6967 437.438C69.3372 449.639 75.9436 462.179 66.4935 477.089C65.0732 479.33 64.1098 481.861 64.3472 481.376C71.9257 493.652 78.3365 503.78 84.3746 514.125C85.1745 515.496 84.5056 518.145 83.7941 519.91C75.5183 540.441 81.0575 561.066 83.3832 581.641C83.4841 582.534 85.9096 583.165 87.8427 584.291C89.6621 586.026 90.891 587.388 92.118 589.753C92.511 594.724 91.3989 600.128 93.5699 602.404C101.624 610.848 95.9315 620.944 97.5419 630.017C100.027 644.017 88.0419 657.62 94.0661 673.151C95.7045 677.375 93.3025 685.223 89.9801 688.91C81.2852 698.559 83.6178 708.76 86.8478 718.684C92.3426 735.567 99.0471 752.057 105.071 768.248C80.1576 784.902 77.1883 800.133 94.3724 819.972C74.1257 829.159 72.3005 847.103 75.113 865.382C76.746 875.995 78.7645 885.996 75.4029 896.435C75.1002 897.375 75.5803 899.141 76.3285 899.757C84.1722 906.216 91.356 914.227 100.315 918.357C108.396 922.082 118.628 920.816 127.613 922.983C144.134 926.968 159.652 936.509 177.78 930.64C180.626 929.719 184.166 930.751 187.359 931.114C199.259 932.464 211.131 934.087 223.048 935.264C231.427 936.092 239.866 936.284 248.269 936.897C274.065 938.781 299.882 942.511 325.644 942.154C351.28 941.799 370.157 917.425 369.312 891.794C369.104 885.486 370.273 877.099 374.257 873.083C384.528 862.726 387.481 852.596 381.724 838.946C379.734 834.229 379.548 826.792 381.971 822.563C387.881 812.251 383.607 805.346 377.701 797.511C375.437 794.509 374.074 789.452 374.808 785.839C376.698 776.527 381.802 767.602 382.329 758.335C383.321 740.886 393.887 720.796 372.428 708.873C372.428 696.626 373.728 685.259 372.168 674.3C368.467 648.292 369.1 622.571 371.591 596.474C373.285 578.731 372.182 560.329 354.362 548.426C350.8 546.046 347.863 541.123 346.859 536.851C344.574 527.135 342.118 517.008 342.666 507.212C343.152 498.511 347.053 489.81 350.455 481.522C353.262 474.686 349.009 446.78 343.652 441.448C337.91 435.733 332.527 429.658 327.004 423.758C340.118 417.037 342.744 403.942 333.242 392.349C327.864 385.788 319.012 379.971 317.689 372.73C316.092 363.99 318.435 352.587 323.261 344.996C335.992 324.968 338.699 297.954 324.615 280.637C317.591 272.001 320.279 267.512 324.617 263.506C321.316 243.3 318.256 224.572 315.2 205.842C315.205 205.838 315.211 205.83 316.134 205.633C318.043 199.905 319.029 194.374 320.428 188.085C323.806 180.785 328.103 174.5 329.426 167.643C331.404 157.385 331.534 146.734 331.976 136.231C332.239 129.991 333.506 122.775 330.982 117.636C324.584 104.609 329.583 95.1244 339.671 88.9982C349.123 83.2587 351.774 76.1632 351.655 66.2288C351.54 56.6105 353.393 48.2626 365.294 45.9651C369.133 45.2237 372.331 41.1568 376.411 38.5747C377 38.5383 378.179 38.4768 379.006 38.1789C386.572 33.2661 393.31 28.6513 400.049 24.0364Z" fill="#DCB15F"/>
<path d="M87.2524 583.918C85.9096 583.165 83.4841 582.534 83.3832 581.641C81.0576 561.066 75.5183 540.441 83.7941 519.91C84.5057 518.145 85.1746 515.496 84.3746 514.125C78.3365 503.78 71.9258 493.652 64.3472 481.376C64.1099 481.861 65.0732 479.33 66.4935 477.089C75.9437 462.179 69.3373 449.639 60.6967 437.438C53.4894 427.261 49.6106 416.333 52.4251 403.73C52.6875 402.555 53.5668 400.845 53.0913 400.277C41.2314 386.107 56.9861 370.564 50.8103 356.187C49.7213 353.652 48.2503 351.249 47.4302 348.636C41.6847 330.33 33.8264 313.113 46.6046 293.134C51.9873 284.718 48.2263 270.388 48.4069 258.743C48.5728 248.058 48.4519 237.369 48.4538 226.682C48.4565 212.366 47.976 198.03 48.5897 183.741C49.22 169.06 49.481 154.678 60.9377 142.205C65.1424 137.627 63.2663 126.384 62.3103 118.404C60.7325 105.233 58.7063 92.7407 64.673 79.6491C69.8114 68.3747 64.4262 59.4437 49.0914 48.6326C48.3541 45.6865 48.3748 43.1017 48.405 39.5453C61.2588 37.1937 74.1033 35.8136 87.1164 35.3158C87.2852 36.1981 87.301 36.2631 86.3724 36.2507C63.8168 43.9038 62.9832 47.6597 76.3412 65.8562C78.9794 69.45 79.6939 77.1796 77.6242 81.031C68.4292 98.1409 76.1652 116.92 71.0798 134.246C69.706 138.927 69.3698 143.921 67.897 148.561C66.8529 151.851 64.4706 154.69 63.0769 157.899C53.2125 180.617 58.3345 204.918 55.8532 228.423C54.5092 241.155 54.2204 254.008 53.7647 266.817C53.6716 269.434 55.5548 272.11 55.5115 274.742C55.2643 289.66 57.0387 305.14 53.5772 319.321C50.3619 332.493 48.4661 333.432 61.2522 338.283C60.2402 346.688 57.0603 355.436 58.762 363.102C61.3176 374.614 55.8738 388.057 66.5831 397.887C68.0046 399.192 67.2725 403.204 67.0091 405.911C66.1557 414.684 66.4858 422.042 71.5377 430.87C78.9975 443.905 85.3221 459.238 76.6467 475.328C75.3797 477.678 75.4701 481.968 76.7983 484.298C82.6773 494.612 84.2791 508.45 98.775 512.15C99.9884 512.46 100.558 515.289 101.427 516.947C100.41 516.669 99.3931 516.391 98.3763 516.113C94.725 523.036 90.3342 529.701 87.7846 537.009C86.7584 539.949 90.9307 544.362 90.7292 547.993C90.0637 559.995 88.4822 571.947 87.2524 583.918Z" fill="#E1BA71"/>
<path d="M38.268 620.433C40.0763 598.701 33.8213 578.12 30.5996 557.015C28.2549 541.651 18.8127 525.329 29.3841 508.261C32.3365 503.495 27.6832 493.964 26.3893 486.642C24.1029 473.706 21.7168 460.787 19.4601 446.788C21.1622 446.749 23.435 447.405 24.2854 448.879C30.6729 459.955 36.7799 471.193 43.2188 482.82C42.7802 482.886 40.1891 483.277 36.1589 483.885C45.2057 531.083 54.2467 578.25 63.4021 626.014C58.8022 627.067 55.4411 627.836 51.0135 628.849C52.736 631.867 53.6812 634.508 55.431 636.411C61.9547 643.505 67.0866 648.717 54.0953 656.058C45.8977 660.69 51.9801 668.596 57.6906 673.52C54.3365 683.037 51.4621 691.139 61.8316 699.244C71.7721 707.014 60.7848 711.826 57.0284 716.175C57.6391 726.183 58.1957 735.304 58.908 746.976C58.994 747.035 61.8044 748.954 63.5397 750.138C59.1649 760.759 54.9903 770.893 50.7234 782.015C49.0688 779.369 46.5172 775.837 46.1274 772.082C44.8933 760.191 44.0776 748.22 43.9425 736.271C43.8957 732.136 45.7985 727.718 47.703 723.871C54.3934 710.356 53.053 698.03 42.2708 685.091C40.5034 671.201 39.6669 658.841 38.8304 646.481C38.8304 646.481 38.8431 645.719 39.4266 644.63C39.4294 635.837 38.8487 628.135 38.268 620.433Z" fill="#C48E3A"/>
<path d="M33.6268 948.669C37.1013 946.697 40.8492 945.722 44.3839 944.238C52.23 940.946 54.8387 930.489 49.4531 920.895C38.5804 912.316 36.1238 902.5 43.1688 890.101C44.6706 889.666 46.7848 890.151 46.7575 890.408C45.2456 904.647 51.4595 917.043 60.8787 925.559C69.3925 933.256 75.095 945.728 89.9992 946.202C97.8821 946.453 105.617 951.363 114.697 954.629C104.733 955.837 95.4725 956.959 84.6011 958.78C81.1732 959.521 79.3568 959.563 76.6439 959.574C73.9523 959.512 72.1573 959.481 70.2404 958.591C65.3995 951.806 60.8571 944.919 52.4668 954.652C50.5981 954.658 49.5301 954.654 47.854 953.995C43.1011 953.033 38.9564 952.726 34.8115 952.419C34.4755 951.425 34.1395 950.431 33.6268 948.669Z" fill="#C48E3A"/>
<path d="M391.752 659.452C396.067 663.302 399.682 667.502 403.391 671.617C406.301 674.847 409.327 677.972 412.332 682.008C413.097 696.041 413.979 709.205 414.407 722.383C414.472 724.377 412.427 726.439 410.556 728.917C405.435 715.6 394.029 704.462 394.89 688.73C395.148 684.011 394.517 679.244 394.361 675.933C391.167 671.372 388.347 667.345 385.533 662.39C387.39 660.897 389.241 660.331 391.752 659.452Z" fill="#C5903B"/>
<path d="M290.518 980.571C279.785 980.603 268.551 980.31 257.447 978.955C230.225 975.635 203.063 971.824 175.214 967.517C179.52 966.02 184.627 964.043 189.437 964.604C220.96 968.284 252.425 972.467 283.885 976.665C286.048 976.953 288.017 978.696 290.518 980.571Z" fill="#DCB05D"/>
<path d="M6.39863 262.413C10.536 259.975 14.0008 258.258 18.3026 256.456C18.3334 260.63 17.5273 264.888 16.5869 269.856C27.0663 271.551 22.3694 278.812 20.7743 284.575C18.7207 291.995 15.839 299.185 12.5839 307.102C2.45427 293.874 4.28007 278.478 6.39863 262.413Z" fill="#C38F3D"/>
<path d="M164.457 966.097C157.628 974.229 139.704 972.625 131.002 962.969C141.837 964.131 153.868 955.259 164.457 966.097Z" fill="#DCB05D"/>
<path d="M77.5407 959.605C79.357 959.563 81.1734 959.521 83.8969 959.462C94.5853 960.297 104.367 961.15 115.269 962.034C110.573 963.664 104.756 965.261 96.9303 966.892C92.3779 966.924 89.8338 966.921 86.7598 966.259C83.3334 963.601 80.4371 961.603 77.5407 959.605Z" fill="#DCB05D"/>
<path d="M355.199 386.801C356.513 387.635 357.301 388.991 358.089 390.348C357.415 390.658 356.741 390.968 356.066 391.278C355.602 389.96 355.138 388.641 355.199 386.801Z" fill="#DCB15F"/>
<path d="M87.2899 966.92C89.8339 966.922 92.3779 966.925 95.8713 966.925C99.2155 968.481 101.481 971.133 104.024 971.432C146.777 976.465 189.559 981.254 232.346 985.994C270.16 990.184 308.007 994.077 345.801 998.44C363.689 1000.51 381.509 1003.22 399.308 1005.98C402.92 1006.54 406.296 1008.62 409.781 1010C409.647 1011.66 409.513 1013.33 409.379 1014.99C401.581 1014.99 393.729 1015.59 385.998 1014.88C364.871 1012.92 343.796 1010.4 322.701 1008.1C294.442 1005.03 266.18 1001.99 237.926 998.869C207.667 995.525 177.35 992.605 147.18 988.581C110.71 983.716 74.3691 977.887 37.0996 971.168C36.2388 968.009 36.2505 966.158 37.3216 964.313C41.9058 964.79 45.4194 965.537 48.9575 965.682C61.7305 966.204 74.5117 966.524 87.2899 966.92Z" fill="#E9CB8D"/>
<path d="M36.2623 964.306C36.2504 966.158 36.2387 968.009 36.2034 970.787C35.4473 973.548 34.7148 975.382 33.9866 978.008C20.3724 976.916 26.4538 966.017 23.7968 958.321C27.716 958.321 30.6633 958.321 34.6959 957.788C35.7813 957.254 36.6159 957.342 36.5313 958.209C36.3852 960.82 36.3238 962.563 36.2623 964.306Z" fill="#CFA04E"/>
<path d="M36.6158 957.342C36.6158 957.342 35.7812 957.254 35.3665 957.225C34.8149 956.134 34.6783 955.072 34.6765 953.215C38.9564 952.726 43.1011 953.032 47.853 954.614C48.4584 956.3 48.4566 956.712 47.4627 957.129C43.1857 957.202 39.9007 957.272 36.6158 957.342Z" fill="#CFA14B"/>
<path d="M367.178 120.944C358.662 110.602 361.577 100.968 368.702 91.7015C372.296 87.0268 373.753 83.2539 370.251 76.7627C363.905 65.002 371.994 49.8716 384.759 45.4976C388.775 44.1215 392.224 41.0951 396.816 38.7522C389.725 59.6907 381.648 80.6633 373.838 101.735C371.537 107.942 369.989 114.429 367.178 120.944Z" fill="#CFA14B"/>
<path d="M38.1173 647.229C39.6668 658.841 40.5033 671.202 41.5679 684.658C40.3322 673.162 38.8683 660.569 38.1173 647.229Z" fill="#795031"/>
<path d="M37.4733 620.555C38.8491 628.135 39.4297 635.837 39.38 644.252C38.0593 636.869 37.3689 628.773 37.4733 620.555Z" fill="#795031"/>
<path d="M378.179 38.4769C378.179 38.4769 377 38.5384 375.425 38.5943C344.027 37.2915 336.964 60.5584 328.498 80.1874C316.897 83.3366 306.418 86.1812 295.359 89.1831C301.318 100.549 304.853 110.484 311.049 118.317C319.127 128.53 320.16 131.99 310.552 142.354C321.714 146.397 316.708 153.122 314.063 160.186C311.428 167.226 310.153 174.769 308.047 182.023C307.854 182.687 305.957 182.853 304.854 183.256C297.763 185.849 290.813 188.963 283.552 190.926C269.858 194.628 281.082 204.645 278.006 210.926C277.693 211.563 276.847 211.938 275.427 213.116C272.712 211.602 269.863 209.317 266.62 208.35C259.906 206.346 253.04 204.516 246.111 203.756C243.887 203.512 239.859 206.454 239.235 208.665C238.633 210.796 240.694 214.663 242.747 216.377C249.314 221.86 256.641 226.432 263.207 231.914C265.82 234.096 268.187 237.507 268.968 240.765C271.19 250.041 272.568 259.52 274.217 268.93C274.948 273.102 275.585 277.293 276.173 281.488C278.133 295.459 280.051 309.437 282.068 324.014C273.292 323.778 264.584 323.592 267.757 341.102C270.037 353.686 268.379 370.936 247.918 374.005C244.902 374.457 242.46 381.321 240.614 385.59C239.963 387.097 241.294 390.926 242.734 391.634C252.511 396.44 262.56 400.695 272.639 405.18C275.957 420.81 264.607 430.608 251.062 442.566C268.78 443.427 282.167 443.589 295.434 444.94C301.499 445.558 307.653 447.929 312.992 450.896C314.09 451.506 311.692 458.297 311.01 462.257C310.67 464.228 310.679 466.259 310.339 468.231C308.238 480.427 306.621 492.741 303.747 504.755C302 512.054 298.285 518.884 295.166 526.642C299.972 527.735 303.271 527.939 306.035 529.26C309.136 530.742 311.534 534.556 314.617 535.068C331.636 537.893 334.862 543.875 329.052 559.997C326.873 566.044 327.684 573.168 327.131 579.801C328.223 579.169 329.316 578.536 330.408 577.903C335.725 582.144 343.149 585.421 345.676 590.938C347.615 595.173 344.558 602.932 341.618 607.873C336.991 615.649 334.664 622.065 341.995 629.492C343.637 631.157 344.192 636.531 342.834 638.072C335.841 646.009 341.799 650.137 346.575 655.233C348.335 657.11 349.878 660.491 349.408 662.746C349.022 664.597 345.556 665.873 343.37 667.27C337.316 671.139 326.884 671.081 330.479 683.393C331.09 685.486 326.563 690.426 323.391 692.008C315.315 696.035 306.663 698.905 295.803 703.203C319.437 718.078 334.284 716.347 337.371 700.792C341.063 703.369 344.931 705.55 348.118 708.474C350.271 710.449 353.475 714.546 352.774 715.853C346.639 727.294 348.99 743.995 331.455 748.492C330.322 750.293 329.189 752.094 328.055 753.896C333.071 758.234 338.086 762.571 342.642 766.511C337.93 771.489 330.659 779.169 322.924 787.339C323.523 788.424 324.035 789.978 325.055 791.048C326.418 792.478 328.175 793.533 330.535 795.089C334.008 796.032 336.709 796.635 339.584 798.095C342.804 803.896 357.543 802.738 349.168 813.158C338.863 825.98 345.858 840.409 342.428 853.62C341.661 856.572 340.513 861.686 339.195 861.799C335.656 862.104 331.038 861.238 328.509 858.98C325.552 856.34 324.35 851.735 322.321 847.856C311.363 854.457 301.387 860.466 288.885 867.997C301.419 868.855 310.437 869.473 319.455 870.09C320.589 871.927 321.722 873.763 322.856 875.599C297.657 883.102 284.019 901.266 276.295 918.974C267.119 918.974 261.122 917.892 255.708 919.207C245.604 921.662 237.667 921.132 232.344 910.692C230.45 906.979 226.712 904.205 222.945 900.039C217.097 922.103 213.055 924.084 198.766 915.162C197.56 910.361 196.91 906.301 195.271 902.689C194.996 902.083 189.081 902.506 188.075 904.001C180.099 915.86 167.413 913.955 156.856 912.938C142.056 911.513 126.281 911.287 118.079 892.899C111.078 877.203 117.063 862.864 117.308 847.966C117.326 846.875 123.98 844.253 126.652 845.116C141.521 849.917 156.002 859.998 171.184 845.901C171.651 845.468 172.866 845.945 173.533 845.606C180.364 842.136 187.154 838.586 197.569 833.184C187.485 828.267 180.812 825.013 174.282 821.829C171.5 825.325 169.37 828.003 166.482 831.632C162.8 824.81 159.753 819.166 157.095 814.242C161.979 809.087 166.862 804.02 171.646 798.86C176.603 793.513 182.673 788.442 174.446 780.726C173.344 779.693 174.161 775.645 175.178 773.511C178.147 767.282 177.71 763.994 169.736 762.979C164.373 762.296 159.086 761.211 162.957 751.99C166.017 744.699 162.532 736.988 155.273 739.082C139.597 720.601 138.824 698.653 134.856 676.489C139.747 669.937 144.235 662.875 139.459 651.674C137.562 647.223 133.868 635.748 146.367 631.1C154.624 628.029 161.074 620.103 169.216 613.651C161.286 605.958 152.667 606.141 143.387 611.279C132.101 617.528 130.148 616.431 125.69 603.854C122.185 593.965 116.768 585.549 103.611 586.356C103.02 586.34 101.839 586.3 101.85 585.349C101.854 578.6 103.68 571.929 101.425 567.202C97.7884 559.578 97.2444 554.001 103.815 548.19C106.483 545.831 109.698 542.951 110.458 539.78C113.271 528.047 118.604 515.386 116.349 504.44C114.428 495.114 116.898 492.679 122.669 488.279C126.047 485.704 130.907 479.519 129.983 477.931C127.488 473.641 122.724 469.274 118.011 467.945C106.678 464.747 104.003 455.975 99.1241 446.381C109.829 447.899 118.359 449.108 129.844 450.736C124.802 445.312 121.958 442.252 119.082 439.158C115.919 440.521 113.132 441.721 110.13 443.015C107.032 438.697 104.319 434.917 101.165 430.522C96.8597 434.429 93.2308 437.723 88.084 442.394C85.8647 436.653 83.1662 432.768 83.0869 428.831C82.9142 420.259 84.6049 411.648 84.3906 403.081C84.3207 400.285 81.2934 396.521 78.6035 395.035C71.532 391.128 67.4728 385.056 71.3005 378.463C73.2283 375.143 81.2443 375.376 86.4924 373.948C88.8928 373.295 91.2574 372.511 93.6383 371.786C92.2318 369.365 91.2608 366.504 89.3385 364.604C83.1063 358.446 76.5253 352.64 67.8951 344.686C80.0176 340.549 89.394 337.348 100.229 333.65C93.9456 325.797 96.1006 312.081 81.32 311.087C80.1833 315.855 79.2603 319.726 77.9883 325.061C61.8769 296.521 61.8769 296.521 85.7205 282.473C84.5917 275.918 83.4962 269.556 82.3129 262.683C65.6591 257.154 64.4488 254.283 71.2877 237.202C72.3714 234.496 71.5766 231.024 71.5829 227.905C71.5892 224.797 70.2098 220.691 71.6965 218.754C77.8654 210.717 73.653 203.653 71.2562 195.992C69.2331 189.524 68.4753 182.662 67.1671 176.023C84.6107 172.866 89.9839 165.799 83.672 151.685C76.9578 136.671 76.1225 124.229 90.2079 113.285C70.2206 94.0687 83.254 80.3881 96.6878 68.1789C87.8733 62.0195 80.4979 56.8658 73.4761 51.9591C78.685 46.0451 82.9929 41.1542 87.3007 36.2632C87.3007 36.2632 87.2849 36.1982 87.269 36.1662C93.0406 35.3766 98.828 34.619 105.628 34.5019C106.647 35.568 106.653 35.9935 106.512 37.2461C101.335 41.5938 96.3053 45.1144 89.3186 50.005C101.845 54.8081 110.983 61.1153 120.191 61.2177C135.919 61.3925 151.643 57.1571 167.455 55.7167C191.411 53.5345 215.495 52.7077 239.425 50.3113C273.69 46.8799 307.876 42.6443 342.059 38.4468C345.044 38.0802 347.751 35.4498 350.588 33.871C347.81 32.2256 345.201 30.0348 342.202 29.1007C339.623 28.2979 336.595 28.8414 333.77 28.9412C288.728 30.533 243.676 31.9096 198.649 33.8591C175.397 34.8658 152.199 37.083 128.954 38.3238C124.004 38.588 118.955 36.9882 114.447 35.5968C117.834 33.7082 120.725 32.4702 123.617 31.2321C124.685 31.2396 125.754 31.2472 128.517 31.2829C132.867 30.5034 135.523 29.6956 138.179 28.8879C144.724 28.8828 151.269 28.8777 158.904 28.8526C161.325 29.6069 162.712 31.1345 163.981 31.0423C183.267 29.6418 202.521 27.7603 221.817 26.5432C240.449 25.3681 259.118 24.7432 277.776 24.0286C300.808 23.1464 323.847 22.4213 348.551 22.2687C353.116 21.7047 356.013 20.5003 358.909 19.2959C362.335 20.0799 365.761 20.8638 370.236 22.5371C373.583 28.4432 375.881 33.4601 378.179 38.4769Z" fill="#E9CC90"/>
<path d="M123.026 30.5935C120.726 32.4701 117.834 33.7082 113.535 35.5947C110.305 36.3018 108.482 36.3604 106.659 36.419C106.654 35.9935 106.648 35.5679 106.634 34.505C111.896 32.5635 117.166 31.2593 123.026 30.5935Z" fill="#E1BA71"/>
<path d="M137.642 28.2525C135.523 29.6956 132.867 30.5033 129.318 31.2676C131.318 30.0219 134.211 28.8195 137.642 28.2525Z" fill="#E1BA71"/>
<path d="M379.006 38.1789C375.881 33.4599 373.583 28.4431 371.126 22.558C380.52 21.8421 390.072 21.9945 399.837 23.0916C393.31 28.6512 386.572 33.2661 379.006 38.1789Z" fill="#E6C47F"/>
<path d="M358.018 19.2719C356.013 20.5003 353.116 21.7047 349.687 22.2628C351.812 20.827 354.469 20.0374 358.018 19.2719Z" fill="#E6C47F"/>
<path d="M339.41 797.239C336.709 796.635 334.008 796.032 330.688 794.23C331.618 791.992 333.036 790.598 334.737 789.967C359.328 780.842 361.367 778.284 361.828 758.426C365.69 754.695 371.077 747.622 369.877 746.234C359.484 734.207 364.249 719.428 361.61 706.189C359.944 697.833 362.169 688.779 361.47 680.134C360.742 671.128 358.069 662.288 357.202 653.283C356.049 641.32 355.821 629.268 355.078 614.98C355.93 611.066 359.89 603.716 358.383 597.746C353.948 580.176 348.102 562.847 341.301 546.032C337.357 536.282 327.788 528.292 325.66 518.449C322.962 505.976 323.459 492.088 325.846 479.426C328.76 463.964 325.306 451.37 316.96 439.341C303.21 441.311 301.694 439.924 299.11 423.783C306.604 419.234 314.89 415.561 321.163 409.728C323.657 407.408 322.689 399.969 321.212 395.558C320.707 394.05 313.833 394.673 310.471 394.376C308.264 379.52 297.649 372.538 284.969 364.481C287.978 360.811 290.824 357.15 293.876 353.669C296.884 350.238 301.29 347.506 303.005 343.565C308.632 330.64 308.904 317.397 303.333 304.078C301.929 300.722 301.19 296.242 302.185 292.883C305.499 281.693 309.741 270.778 313.337 260.583C308.217 256.841 304.573 254.152 300.9 251.502C297.683 249.181 294.598 245.271 291.166 244.925C282.168 244.018 283.076 239.592 284.994 233.605C301.793 236.217 307.142 230.476 304.466 213.557C302.242 199.498 307.181 191.647 320.015 188.844C319.029 194.375 318.043 199.905 316.002 205.298C315.029 205.389 315.113 205.617 315.196 205.845C318.256 224.572 321.316 243.3 324.617 263.506C320.279 267.512 317.591 272.001 324.615 280.638C338.699 297.954 335.992 324.968 323.261 344.996C318.435 352.587 316.092 363.99 317.689 372.731C319.012 379.971 327.864 385.788 333.242 392.349C342.745 403.943 340.118 417.038 327.004 423.758C332.527 429.658 337.911 435.733 343.652 441.448C349.009 446.78 353.262 474.686 350.456 481.522C347.053 489.81 343.152 498.511 342.666 507.212C342.118 517.008 344.574 527.135 346.859 536.851C347.864 541.123 350.8 546.046 354.362 548.426C372.182 560.33 373.285 578.731 371.591 596.474C369.1 622.571 368.467 648.292 372.168 674.3C373.728 685.26 372.428 696.626 372.428 708.873C393.888 720.796 383.322 740.886 382.329 758.335C381.802 767.602 376.698 776.527 374.808 785.839C374.075 789.452 375.437 794.509 377.701 797.511C383.607 805.346 387.881 812.251 381.972 822.563C379.548 826.793 379.734 834.229 381.724 838.947C387.482 852.596 384.528 862.726 374.257 873.083C370.273 877.099 369.105 885.486 369.312 891.794C370.157 917.425 351.28 941.799 325.644 942.154C299.882 942.511 274.065 938.781 248.269 936.898C239.866 936.284 231.427 936.092 223.048 935.264C211.132 934.087 199.26 932.465 187.359 931.114C184.166 930.752 180.627 929.719 177.78 930.64C159.652 936.509 144.134 926.968 127.614 922.983C118.628 920.816 108.397 922.082 100.316 918.357C91.3561 914.227 84.1723 906.216 76.3286 899.757C75.5805 899.141 75.1003 897.375 75.403 896.435C78.7647 885.996 76.7462 875.995 75.1131 865.382C72.3007 847.103 74.1258 829.16 94.3726 819.972C77.1884 800.133 80.1578 784.902 105.071 768.248C99.0473 752.057 92.3427 735.567 86.848 718.684C83.6179 708.76 81.2854 698.56 89.9802 688.91C93.3026 685.223 95.7046 677.375 94.0662 673.151C88.0421 657.62 100.027 644.017 97.5421 630.017C95.9317 620.944 101.624 610.848 93.57 602.404C91.399 600.128 92.5111 594.724 92.9561 589.674C96.477 587.828 99.1581 587.064 101.839 586.3C101.839 586.3 103.02 586.34 103.621 587.358C105.077 600.071 105.425 611.836 106.991 623.437C107.843 629.744 109.826 636.623 119.526 633.697C121.052 633.237 124.441 635.74 125.396 637.656C126.103 639.072 124.103 643.646 123.566 643.604C113.817 642.824 113.31 650.911 109.198 656.552C99.2028 670.264 98.716 671.195 111.019 677.748C113.965 702.414 101.908 726.528 117 748.144C121.891 752.922 126.782 757.7 131.866 762.667C123.125 770.869 116.079 777.482 106.732 786.253C116.09 787.87 122.809 789.031 129.529 790.192C121.653 792.367 113.802 792.073 105.998 792.555C103.808 792.69 100.546 794.728 99.9707 796.576C99.3385 798.609 100.548 802.097 102.173 803.77C105.991 807.702 110.763 810.695 114.713 814.518C117.816 817.522 123.1 823.532 122.549 824.201C118.81 828.736 114.235 833.066 109.054 835.81C102.213 839.433 95.6368 840.547 93.7583 851.111C91.5234 863.68 101.642 878.401 87.8351 888.996C87.4574 889.286 87.6963 890.543 87.8343 891.315C90.0502 903.72 100.888 912.538 114.197 913.623C120.004 914.096 125.761 915.685 131.435 917.167C141.612 919.827 151.569 924.405 161.869 925.303C186.915 927.485 212.1 928.101 237.237 929.163C245.483 929.511 254.216 927.597 261.907 929.704C274.986 933.288 287.99 941.735 292.396 925.131C307.536 926.155 320.321 927.976 333.029 927.545C341.562 927.255 347.553 907.583 342.501 900.585C340.12 897.286 336.714 891.952 337.865 889.347C343.763 875.993 351.734 863.541 357.41 850.111C359.843 844.355 361.179 835.179 358.221 830.765C353.197 823.27 352.655 819.044 358.493 812.045C360.837 809.234 359.297 802.42 358.029 797.843C357.659 796.511 352.127 796.24 348.943 796.158C345.777 796.076 342.589 796.843 339.41 797.239Z" fill="#E1BA71"/>
<path d="M320.428 188.085C307.181 191.648 302.241 199.498 304.466 213.557C307.142 230.476 301.793 236.217 284.994 233.605C283.076 239.592 282.168 244.018 291.166 244.925C294.598 245.271 297.683 249.181 300.9 251.503C304.572 254.152 308.216 256.841 313.337 260.583C309.741 270.778 305.499 281.693 302.185 292.883C301.189 296.242 301.929 300.722 303.333 304.078C308.903 317.397 308.631 330.64 303.005 343.565C301.289 347.506 296.884 350.238 293.876 353.669C290.824 357.151 287.977 360.811 284.968 364.481C297.649 372.538 308.263 379.52 310.47 394.376C313.833 394.673 320.707 394.05 321.212 395.558C322.689 399.969 323.657 407.408 321.162 409.728C314.889 415.561 306.604 419.234 299.11 423.783C301.693 439.924 303.21 441.311 316.96 439.341C325.306 451.37 328.76 463.964 325.845 479.426C323.459 492.088 322.961 505.976 325.659 518.449C327.788 528.292 337.357 536.282 341.301 546.032C348.102 562.847 353.948 580.176 358.383 597.746C359.89 603.716 355.929 611.066 355.078 614.98C355.821 629.268 356.049 641.32 357.201 653.283C358.069 662.288 360.741 671.128 361.469 680.134C362.168 688.779 359.944 697.833 361.61 706.189C364.249 719.428 359.484 734.207 369.877 746.234C371.076 747.622 365.69 754.695 361.827 758.426C361.367 778.284 359.328 780.843 334.737 789.967C333.036 790.598 331.618 791.992 329.915 793.89C328.175 793.533 326.418 792.478 325.055 791.048C324.035 789.978 323.523 788.424 322.924 787.339C330.659 779.169 337.93 771.489 342.642 766.511C338.086 762.572 333.071 758.234 328.055 753.896C329.189 752.094 330.322 750.293 331.455 748.492C348.99 743.995 346.639 727.294 352.774 715.853C353.475 714.546 350.271 710.449 348.118 708.474C344.931 705.55 341.063 703.369 337.371 700.792C334.284 716.347 319.437 718.078 295.803 703.203C306.663 698.905 315.316 696.035 323.391 692.008C326.563 690.426 331.09 685.486 330.479 683.393C326.884 671.081 337.316 671.139 343.37 667.27C345.556 665.873 349.022 664.597 349.408 662.746C349.878 660.491 348.335 657.11 346.576 655.233C341.8 650.136 335.841 646.009 342.834 638.072C344.192 636.531 343.637 631.157 341.995 629.492C334.664 622.065 336.991 615.649 341.618 607.873C344.558 602.932 347.615 595.173 345.676 590.938C343.149 585.421 335.725 582.144 330.408 577.903C329.316 578.536 328.223 579.169 327.131 579.801C327.684 573.168 326.873 566.044 329.052 559.997C334.862 543.875 331.636 537.893 314.618 535.068C311.534 534.556 309.136 530.742 306.035 529.26C303.271 527.939 299.972 527.735 295.166 526.642C298.285 518.884 302 512.054 303.747 504.755C306.621 492.741 308.239 480.427 310.339 468.231C310.679 466.259 310.67 464.228 311.01 462.257C311.692 458.297 314.09 451.506 312.992 450.896C307.653 447.929 301.499 445.558 295.434 444.94C282.167 443.589 268.78 443.427 251.062 442.566C264.607 430.608 275.957 420.81 272.639 405.18C262.561 400.695 252.511 396.44 242.734 391.634C241.294 390.926 239.963 387.097 240.614 385.59C242.46 381.321 244.902 374.457 247.918 374.005C268.379 370.935 270.037 353.686 267.757 341.102C264.584 323.592 273.292 323.778 282.068 324.014C280.051 309.437 278.133 295.459 276.173 281.488C275.585 277.293 274.948 273.102 274.217 268.93C272.568 259.52 271.19 250.041 268.968 240.765C268.187 237.507 265.82 234.096 263.207 231.914C256.641 226.432 249.314 221.86 242.747 216.377C240.694 214.663 238.633 210.796 239.235 208.665C239.86 206.454 243.887 203.512 246.111 203.756C253.04 204.516 259.906 206.346 266.62 208.35C269.863 209.317 272.712 211.602 275.427 213.116C276.847 211.938 277.694 211.563 278.006 210.926C281.082 204.645 269.858 194.628 283.552 190.926C290.813 188.963 297.763 185.849 304.854 183.256C305.957 182.853 307.854 182.687 308.047 182.023C310.153 174.769 311.428 167.226 314.063 160.186C316.708 153.122 321.714 146.397 310.552 142.354C320.16 131.99 319.127 128.53 311.049 118.317C304.853 110.484 301.318 100.549 295.359 89.1832C306.418 86.1812 316.897 83.3366 328.498 80.1875C336.964 60.5584 344.027 37.2915 374.836 38.6307C372.33 41.1569 369.133 45.2238 365.293 45.9652C353.393 48.2627 351.54 56.6106 351.655 66.2289C351.773 76.1633 349.122 83.2589 339.671 88.9984C329.582 95.1245 324.584 104.609 330.982 117.636C333.506 122.775 332.239 129.991 331.976 136.231C331.533 146.735 331.404 157.385 329.426 167.643C328.103 174.501 323.806 180.785 320.428 188.085Z" fill="#E6C47F"/>
<path d="M101.85 585.349C99.158 587.064 96.477 587.828 92.958 588.671C90.8911 587.388 89.6622 586.026 87.8428 584.291C88.4823 571.947 90.0637 559.995 90.7293 547.993C90.9307 544.362 86.7584 539.95 87.7846 537.009C90.3343 529.701 94.725 523.036 98.3764 516.113C99.3932 516.391 100.41 516.669 101.427 516.947C100.558 515.289 99.9885 512.46 98.775 512.15C84.2792 508.45 82.6773 494.612 76.7983 484.299C75.4701 481.969 75.3797 477.678 76.6468 475.329C85.3221 459.238 78.9975 443.905 71.5377 430.87C66.4859 422.042 66.1557 414.684 67.0092 405.911C67.2725 403.204 68.0046 399.192 66.5832 397.887C55.8738 388.057 61.3176 374.614 58.7621 363.102C57.0603 355.436 60.2402 346.688 61.2522 338.283C48.4661 333.432 50.3619 332.493 53.5772 319.321C57.0388 305.14 55.2643 289.66 55.5115 274.742C55.5549 272.11 53.6717 269.434 53.7648 266.817C54.2205 254.008 54.5092 241.155 55.8533 228.423C58.3345 204.918 53.2125 180.617 63.0769 157.899C64.4706 154.69 66.8529 151.851 67.897 148.561C69.3698 143.921 69.706 138.927 71.0799 134.246C76.1652 116.92 68.4293 98.1409 77.6243 81.0311C79.694 77.1796 78.9795 69.4501 76.3412 65.8563C62.9832 47.6598 63.8168 43.9039 86.3725 36.2507C82.9932 41.1541 78.6853 46.0451 73.4764 51.959C80.4983 56.8657 87.8736 62.0194 96.6881 68.1788C83.2543 80.388 70.2209 94.0686 90.2083 113.285C76.1228 124.229 76.9581 136.671 83.6723 151.685C89.9842 165.799 84.611 172.866 67.1674 176.023C68.4756 182.662 69.2334 189.524 71.2565 195.992C73.6533 203.653 77.8657 210.717 71.6968 218.754C70.2101 220.691 71.5896 224.797 71.5833 227.905C71.5769 231.024 72.3717 234.496 71.2881 237.202C64.4491 254.283 65.6594 257.154 82.3132 262.683C83.4965 269.556 84.592 275.918 85.7208 282.473C61.8772 296.521 61.8772 296.521 77.9887 325.061C79.2606 319.726 80.1836 315.855 81.3203 311.087C96.101 312.081 93.9459 325.797 100.23 333.65C89.3943 337.348 80.018 340.548 67.8954 344.686C76.5256 352.64 83.1066 358.446 89.3389 364.604C91.2612 366.504 92.2321 369.365 93.6387 371.786C91.2578 372.511 88.8931 373.295 86.4927 373.948C81.2446 375.376 73.2286 375.143 71.3009 378.463C67.4731 385.056 71.5323 391.128 78.6038 395.035C81.2937 396.521 84.321 400.285 84.3909 403.081C84.6052 411.648 82.9145 420.259 83.0872 428.831C83.1666 432.768 85.865 436.653 88.0843 442.394C93.2311 437.723 96.86 434.429 101.165 430.522C104.319 434.917 107.032 438.697 110.131 443.015C113.132 441.721 115.919 440.521 119.082 439.158C121.958 442.252 124.803 445.312 129.844 450.736C118.359 449.108 109.83 447.899 99.1244 446.381C104.003 455.975 106.678 464.747 118.012 467.945C122.725 469.274 127.488 473.641 129.984 477.931C130.907 479.519 126.047 485.704 122.669 488.279C116.898 492.679 114.428 495.114 116.349 504.44C118.604 515.386 113.271 528.047 110.458 539.78C109.698 542.951 106.483 545.831 103.816 548.19C97.2447 554.001 97.7887 559.578 101.425 567.202C103.68 571.929 101.855 578.6 101.85 585.349Z" fill="#E6C480"/>
<path d="M36.5314 958.209C39.9009 957.272 43.1859 957.202 48.138 957.613C54.2102 958.579 58.6153 959.065 63.9375 959.557C66.6907 959.526 68.5266 959.488 70.3626 959.45C72.1575 959.481 73.9525 959.511 76.6441 959.574C80.4371 961.603 83.3334 963.601 86.7598 966.259C74.5117 966.523 61.7305 966.204 48.9575 965.681C45.4194 965.537 41.9058 964.79 37.3217 964.313C36.3239 962.563 36.3853 960.82 36.5314 958.209Z" fill="#DBB369"/>
<path d="M70.2408 958.591C68.5268 959.488 66.6909 959.526 63.46 958.932C59.1326 957.082 56.2002 955.862 53.2678 954.643C60.8575 944.919 65.3999 951.806 70.2408 958.591Z" fill="#CFA14B"/>
<path d="M52.4671 954.652C56.2001 955.862 59.1324 957.082 62.5426 958.926C58.6153 959.065 54.2103 958.579 49.1303 957.609C48.4568 956.712 48.4586 956.3 48.4613 955.269C49.5303 954.654 50.5983 954.658 52.4671 954.652Z" fill="#DCB05D"/>
<path d="M339.584 798.095C342.589 796.844 345.777 796.076 348.943 796.158C352.127 796.24 357.659 796.511 358.029 797.843C359.297 802.421 360.837 809.234 358.493 812.045C352.655 819.044 353.197 823.27 358.221 830.766C361.179 835.179 359.843 844.355 357.41 850.111C351.734 863.541 343.763 875.994 337.865 889.347C336.714 891.953 340.12 897.286 342.501 900.585C347.553 907.584 341.562 927.255 333.029 927.545C320.321 927.977 307.536 926.155 292.396 925.131C287.99 941.736 274.986 933.288 261.907 929.704C254.216 927.597 245.483 929.511 237.237 929.163C212.1 928.101 186.915 927.485 161.869 925.303C151.569 924.406 141.612 919.827 131.435 917.168C125.761 915.685 120.004 914.097 114.197 913.623C100.888 912.538 90.0502 903.72 87.8343 891.316C87.6963 890.543 87.4574 889.286 87.8351 888.996C101.642 878.401 91.5234 863.68 93.7583 851.112C95.6368 840.547 102.213 839.434 109.054 835.81C114.235 833.066 118.81 828.736 122.549 824.201C123.1 823.532 117.816 817.522 114.713 814.519C110.763 810.695 105.991 807.702 102.173 803.77C100.548 802.097 99.3385 798.609 99.9707 796.576C100.546 794.729 103.808 792.69 105.998 792.555C113.802 792.073 121.653 792.367 129.529 790.192C122.809 789.031 116.09 787.87 106.732 786.253C116.079 777.482 123.125 770.87 131.866 762.667C126.782 757.701 121.891 752.922 117 748.144C101.908 726.529 113.965 702.415 111.019 677.748C98.716 671.195 99.2028 670.264 109.198 656.552C113.31 650.911 113.817 642.825 123.566 643.604C124.103 643.647 126.103 639.073 125.396 637.656C124.441 635.74 121.052 633.237 119.526 633.698C109.826 636.623 107.843 629.744 106.991 623.437C105.425 611.836 105.077 600.072 104.211 587.374C116.768 585.549 122.186 593.965 125.691 603.855C130.148 616.431 132.101 617.528 143.388 611.279C152.667 606.141 161.286 605.958 169.216 613.651C161.074 620.103 154.625 628.029 146.368 631.1C133.869 635.748 137.562 647.223 139.46 651.674C144.235 662.876 139.747 669.937 134.857 676.489C138.824 698.653 139.598 720.601 155.274 739.082C162.533 736.988 166.018 744.699 162.957 751.99C159.086 761.211 164.373 762.296 169.736 762.979C177.71 763.994 178.147 767.282 175.178 773.511C174.161 775.645 173.344 779.693 174.446 780.726C182.673 788.443 176.604 793.513 171.646 798.86C166.863 804.02 161.979 809.088 157.096 814.242C159.753 819.166 162.801 824.811 166.483 831.632C169.37 828.003 171.501 825.325 174.283 821.829C180.812 825.013 187.485 828.267 197.569 833.184C187.155 838.586 180.364 842.136 173.533 845.606C172.866 845.945 171.651 845.468 171.184 845.902C156.002 859.999 141.521 849.918 126.653 845.116C123.98 844.253 117.326 846.875 117.308 847.966C117.064 862.864 111.078 877.203 118.079 892.899C126.282 911.287 142.056 911.514 156.856 912.938C167.414 913.955 180.099 915.86 188.075 904.001C189.081 902.506 194.996 902.083 195.271 902.689C196.91 906.301 197.561 910.362 198.767 915.162C213.056 924.084 217.097 922.103 222.946 900.039C226.712 904.205 230.451 906.979 232.344 910.692C237.667 921.132 245.605 921.662 255.709 919.208C261.123 917.892 267.12 918.974 276.295 918.974C284.019 901.266 297.657 883.102 322.857 875.599C321.723 873.763 320.589 871.927 319.455 870.09C310.437 869.473 301.419 868.855 288.886 867.997C301.387 860.466 311.364 854.457 322.321 847.856C324.351 851.735 325.552 856.34 328.509 858.98C331.039 861.239 335.656 862.105 339.196 861.799C340.513 861.686 341.661 856.572 342.428 853.62C345.858 840.409 338.863 825.98 349.168 813.158C357.544 802.738 342.804 803.896 339.584 798.095Z" fill="#E6C47F"/>
<path d="M106.512 37.246C108.482 36.3604 110.304 36.3018 113.039 36.2451C118.955 36.9881 124.004 38.5879 128.954 38.3237C152.199 37.0829 175.397 34.8657 198.649 33.859C243.676 31.9095 288.728 30.5329 333.77 28.9411C336.595 28.8412 339.623 28.2978 342.202 29.1006C345.201 30.0347 347.809 32.2254 350.587 33.8708C347.751 35.4497 345.044 38.0801 342.059 38.4467C307.876 42.6442 273.69 46.8798 239.425 50.3111C215.495 52.7076 191.411 53.5344 167.455 55.7166C151.643 57.157 135.919 61.3924 120.191 61.2176C110.983 61.1152 101.845 54.808 89.3185 50.0049C96.3052 45.1143 101.335 41.5937 106.512 37.246Z" fill="#EFD8A8"/>
<path d="M315.2 205.842C315.112 205.617 315.029 205.389 315.078 205.495C315.21 205.83 315.204 205.839 315.2 205.842Z" fill="#DCB15F"/>
</svg>
