<svg width="453" height="633" viewBox="0 0 453 633" fill="none" xmlns="http://www.w3.org/2000/svg">
<path d="M8.24293 491.671C-1.30197 487.95 3.52258 480.604 3.6395 474.243C4.12319 447.937 9.10951 420.492 3.19283 395.668C-1.73296 375.002 0.643275 357.039 2.2706 337.324C4.43756 311.07 2.12497 284.475 2.50298 258.037C2.86411 232.78 3.94174 207.521 5.39057 182.302C5.62028 178.304 9.46651 174.515 12.8638 170.411C14.9666 174.384 15.9578 178.556 16.6963 182.773C17.4921 187.317 16.8775 192.565 18.9941 196.313C22.0426 201.71 27.1689 205.436 34.5347 201.251C33.4741 203.968 31.856 206.207 29.8654 208.962C32.4073 217.506 42.3509 226.926 29.2164 235.149C32.5485 241.669 35.4891 247.423 38.893 254.083C40.0543 251.798 40.4656 250.737 41.0847 249.816C43.3516 246.442 45.6877 243.115 47.9976 239.77C50.6474 242.789 53.3099 245.797 55.9396 248.833C56.7146 249.728 57.3969 250.702 58.1298 252.678C58.1286 257.871 58.1192 262.026 57.4481 266.789C55.124 275.124 54.4809 282.297 65.4119 283.164C65.4345 283.146 65.3981 283.19 65.3903 284.049C61.0495 293.207 55.8696 301.17 61.8175 311.209C62.7742 312.823 59.3894 317.007 56.76 322.725C50.977 307.202 46.6913 295.698 42.4055 284.195C38.924 304.132 47.4836 319.574 58.311 334.963C58.3101 336.804 58.3256 337.856 57.4869 338.835C52.0554 335.988 47.4784 333.213 42.9015 330.439C42.1591 331.121 41.4168 331.803 40.6744 332.485C52.7923 341.828 54.7246 354.353 52.3822 368.111C46.5284 374.451 46.6938 388.885 33.3931 379.598C36.7394 391.388 40.0012 402.879 43.6047 415.574C37.1735 415.574 33.718 415.574 26.5747 415.574C33.3003 419.375 37.1344 420.814 39.9569 423.369C42.1558 425.361 43.5736 428.592 44.492 431.536C46.1817 436.954 47.3551 442.544 48.5355 448.106C49.2387 451.419 50.3015 454.911 49.8955 458.16C48.3308 470.682 42.7254 483.937 45.3317 495.395C47.942 506.869 46.398 516.288 43.9072 526.627C43.2622 529.304 43.7325 532.25 42.9524 535.451C38.9614 539.603 35.7085 543.378 31.7433 547.98C26.9439 541.963 23.085 537.125 19.2262 532.287C19.3275 531.527 19.6888 530.923 21.4739 530.545C23.9894 529.744 25.3407 528.87 27.5812 527.943C32.6226 523.864 36.7748 519.838 40.6521 516.078C28.9855 507.292 18.6142 499.481 8.24293 491.671Z" fill="#D0A34F"/>
<path d="M450.871 348.584C450.932 349.671 450.993 350.759 449.984 352.601C447.166 354.08 445.417 354.803 443.669 355.526C443.669 355.526 443.587 355.817 443.083 355.962C442.579 356.106 442.128 357.138 442.128 357.138L442.696 358.144C444.209 361.857 445.722 365.569 445.695 369.731C425.957 364.838 422.13 367.915 424.481 386.016C424.833 388.723 424.375 392.091 425.818 393.998C430.394 400.042 435.693 405.54 440.712 411.249C442.51 405.74 445.249 400.321 445.787 394.691C446.173 390.65 443.03 386.385 442.615 382.108C442.405 379.937 444.746 377.52 445.933 375.215C458.064 413.108 450.769 451.919 451.228 490.355C451.251 492.279 449.236 494.228 447.137 495.249C442.411 483.902 448.011 469.781 433.355 462.575C428.589 468.984 422.249 474.513 419.966 481.387C417.477 488.882 417.863 497.71 418.642 505.798C419.35 513.143 422.271 520.275 424.159 527.288C422.033 532.614 419.569 538.787 417.08 545.917C417.033 549.436 417.012 551.996 416.214 554.911C411.866 560.169 408.296 565.073 404.723 569.98C401.836 568.129 398.554 566.024 396.146 564.48C392.666 570.181 390.681 574.853 387.303 578.057C386.351 578.959 381.313 575.559 379.013 573.984C396.318 563.216 390.608 546.23 392.343 529.018C396.283 532.259 399.244 534.694 401.304 536.389C411.623 522.431 400.568 513.12 392.097 505.789C398.058 503.167 405.077 502.211 407.78 498.287C410.454 494.404 410.461 486.905 408.688 482.073C402.953 466.445 403.957 460.645 417.098 452.304C415.698 447.771 414.243 443.063 411.825 435.237C407.902 441.12 405.671 444.466 403.439 447.812C402.383 447.272 401.327 446.732 400.271 446.192C404.826 436.981 409.381 427.77 414.467 417.485C411.075 418.415 408.529 419.113 404.646 420.177C405.913 409.015 407.031 399.178 408.229 388.622C411.34 388.819 414.295 389.007 417.372 389.202C416.891 376.119 416.965 363.767 432.434 358.103C438.284 353.224 441.945 345.986 450.871 348.584Z" fill="#CFA350"/>
<path d="M417.106 544.959C419.57 538.787 422.033 532.615 424.16 527.288C422.272 520.276 419.351 513.144 418.643 505.799C417.863 497.711 417.477 488.883 419.967 481.388C422.25 474.513 428.589 468.984 433.355 462.576C448.011 469.782 442.411 483.902 446.111 495.346C446.118 496.358 446.128 496.417 445.246 496.386C442.855 497.27 441.346 498.183 439.836 499.097C445.924 507.843 439.906 516.413 439.835 525.054C439.783 531.31 438.484 540.015 448.079 542.523C448.255 564.632 448.062 586.754 448.793 608.845C449.081 617.542 446.284 622.331 437.908 624.803C431.878 626.583 426.244 629.698 419.553 632.599C420.164 632.904 419.252 632.735 418.814 632.187C406.605 616.921 406.232 616.186 387.35 626.059C378.811 630.524 372.948 629.652 365.369 625.006C360.651 622.113 354.345 621.808 347.753 619.412C346.739 617.343 346.723 616.204 346.809 614.154C346.841 605.8 346.774 598.357 347.649 590.819C351.649 589.992 355.112 589.921 357.657 588.357C360.701 586.485 362.96 583.338 365.559 580.743C361.8 579.376 357.921 576.723 354.322 577.061C351.574 577.319 349.181 581.364 346.017 583.445C344.22 582.525 343.037 581.885 341.94 580.397C346.009 575.284 349.993 571.02 354.812 566.882C358.335 567.754 361.024 568.501 364.239 569.872C368.451 571.655 372.137 572.814 376.405 574.014C376.986 574.056 378.15 574.133 378.15 574.133C381.314 575.56 386.351 578.96 387.303 578.057C390.681 574.853 392.666 570.181 396.146 564.481C398.554 566.025 401.836 568.129 404.723 569.981C408.296 565.073 411.866 560.169 416.925 555.579C420.707 567.176 419.67 577.713 413.102 586.399C409.348 582.906 405.608 577.375 403.54 577.942C399.558 579.033 394.611 583.028 393.531 586.808C391.803 592.857 390.372 603.659 393.263 605.509C403.255 611.904 412.949 623.719 427.694 615.089C429.43 614.074 432.678 615.64 435.476 616.046C437.179 611.279 441.599 605.183 440.043 602.149C434.161 590.683 439.501 580.336 440.686 569.523C441.339 563.567 441.961 557.347 440.939 551.538C439.815 545.148 436.508 540.416 428.207 544.389C425.123 545.865 420.842 544.842 417.106 544.959Z" fill="#C5903B"/>
<path d="M2.90338 132.904C1.96651 117.546 1.02978 102.189 1.04339 86.1786C6.8322 87.0798 11.6705 88.6338 16.5088 90.1878C17.6196 82.9785 20.481 75.4975 19.4137 68.6262C17.9621 59.2825 10.2797 64.2871 4.80526 63.9439C4.78632 56.7775 4.13228 50.6465 4.96763 44.7252C5.73903 39.2569 8.10713 34.0136 10.4511 29.3163C13.8304 35.2975 8.83976 43.9654 19.7624 46.0797C25.0893 47.1107 29.2554 53.3416 34.4583 56.3293C35.8494 57.1281 39.2135 54.8311 41.5115 53.6447C45.9303 51.3632 50.3899 46.5989 54.5557 46.8855C65.6553 47.6491 67.5037 41.8138 67.4058 32.2973C67.5295 29.7214 67.5994 28.0033 68.2495 25.9359C68.4158 24.1922 68.0019 22.7982 67.5452 20.6573C67.5369 18.9162 67.5716 17.9219 67.6063 16.9276C76.0273 18.3127 81.4009 13.8373 87.297 7.06083C89.263 6.60087 89.7283 6.56071 90.1937 6.52062C90.1937 6.52062 89.9 6.47676 89.8828 7.38869C88.3936 17.6154 92.6768 21.6648 102.011 21.9027C102.885 23.6076 103.526 24.7157 104.145 26.7502C104.059 29.5165 103.995 31.3566 103.122 33.2091C98.7673 31.0978 95.2227 28.9741 92.4043 27.2856C93.1203 36.8156 93.8147 46.0582 93.7833 55.0059C84.1116 55.2345 75.1657 55.758 70.222 56.0473C64.1277 64.2683 59.1633 70.5561 54.687 77.174C52.4094 80.5412 48.4694 85.9726 49.6204 87.9594C58.0141 102.447 49.7387 104.647 41.3658 104.442C37.5209 112.086 34.582 117.928 31.6432 123.771C30.2043 123.339 28.7653 122.907 27.3264 122.475C25.7164 117.49 24.1064 112.506 22.4964 107.521C21.8709 107.542 21.2455 107.564 20.62 107.585C19.7318 113.376 18.8438 119.167 17.8526 125.631C13.8219 123.236 11.064 121.597 11.4081 121.801C7.91398 126.363 5.40868 129.633 2.90338 132.904Z" fill="#B07634"/>
<path d="M432.51 11.1505C436.154 10.1256 439.798 9.10057 446.473 7.22316C448.079 38.186 449.66 68.6872 450.511 100.474C449.217 102.101 448.82 102.58 448.59 103.196C445.942 103.325 443.293 103.453 438.818 104.027C429.55 105.043 422.109 105.615 414.355 105.479C413.409 102.84 412.778 100.907 412.779 98.4788C408.941 91.0402 404.47 84.0972 400.006 76.3455C400.014 74.4584 400.016 73.3801 400.773 71.9279C402.118 68.8484 403.415 66.0154 402.961 63.4975C402.767 62.4244 398.657 60.9829 396.767 61.4586C381.78 65.2305 370.369 59.9181 362.042 48.1369C367.566 48.6891 372.201 49.8252 376.876 50.0236C379.477 50.134 382.144 48.682 384.782 47.9342C381.842 42.5685 379.077 37.0945 375.866 31.8959C374.744 30.0792 371.994 29.2572 370.9 27.4341C367.434 21.6603 364.4 15.6282 361.198 9.69595C366.194 9.72731 371.189 9.75874 377.571 10.6557C378.957 16.0487 378.957 20.5761 378.957 26.4559C388.174 23.6162 395.913 21.2317 404.157 18.6915C404.388 20.6692 404.704 23.3702 404.163 26.2585C392.776 38.2303 392.843 40.6074 403.617 51.6179C406.136 54.1923 408.2 57.2099 410.7 59.8054C416.418 65.742 421.293 73.7759 431.723 66.5815C433.456 65.3862 437.8 67.972 442.735 69.2909C441.989 57.1275 441.306 45.9972 440.869 38.8694C432.702 33.291 427.224 29.5492 421.946 25.0139C425.601 19.8638 429.055 15.5072 432.51 11.1505Z" fill="#CFA04E"/>
<path d="M160.616 625.596C157.035 625.8 152.472 627.518 150.041 625.945C139.418 619.069 129.301 617.805 118.814 625.68C117.851 626.404 116.907 627.815 115.966 627.805C101.711 627.656 86.717 631.933 73.4334 619.606C72.7611 613.592 72.3275 609.102 72.9255 604.754C74.3833 594.156 87.6191 583.659 92.5098 589.253C100.482 598.371 109.519 590.813 117.028 595.465C118.636 591.875 119.931 588.984 122.132 585.966C133.341 581.391 143.733 574.468 151.555 585.295C156.347 584.606 159.52 584.149 162.628 584.809C161.914 599.149 161.265 612.373 160.616 625.596Z" fill="#B07634"/>
<path d="M414.668 106.186C422.109 105.615 429.55 105.043 437.824 104.12C442.338 104.934 446.019 106.099 452.489 108.148C450.697 133.76 448.839 160.31 445.716 187.625C442.487 186.337 440.522 184.284 437.877 181.521C433.844 190.166 430.187 198.005 425.723 205.793C422.345 206.405 419.774 207.068 416.38 207.711C414.461 207.666 413.365 207.642 411.83 207.082C410.072 206.199 408.752 205.851 407.391 205.548C407.35 205.593 407.44 205.51 407.425 204.459C407.403 198.488 407.396 193.568 408.214 188.512C413.381 187.22 417.721 186.062 422.062 184.905C422.812 186.07 423.562 187.234 424.312 188.399C426.72 184.516 430.17 180.913 431.307 176.689C433.379 168.988 415.655 142.89 407.314 139.194C406.464 133.272 405.636 128.302 404.841 122.359C401.834 112.261 411.866 111.55 414.668 106.186Z" fill="#DAB165"/>
<path d="M2.7458 133.897C5.40887 129.633 7.91416 126.363 11.4083 121.801C11.0642 121.597 13.8221 123.236 17.8528 125.631C18.844 119.168 19.732 113.376 20.6202 107.585C21.2457 107.564 21.8711 107.542 22.4966 107.521C24.1066 112.506 25.7166 117.49 27.3266 122.475C28.7655 122.907 30.2045 123.339 31.6434 123.771C34.5822 117.928 37.5211 112.086 41.366 104.442C49.7389 104.647 58.0143 102.447 49.6206 87.9595C48.4696 85.9726 52.4096 80.5413 54.6872 77.174C59.1634 70.5562 64.1279 64.2683 70.2222 56.0473C75.1658 55.758 84.1118 55.2346 93.8324 55.0752C94.6072 55.4393 94.7109 55.5722 94.6471 56.6334C94.5834 64.5985 94.5834 71.5023 94.5834 78.4061C88.4947 75.6607 85.8314 71.7066 82.161 69.2637C80.2085 67.9642 76.5122 69.2819 73.6031 69.4183C74.979 72.006 76.355 74.5937 77.6979 77.9826C77.6351 79.8525 77.6053 80.9212 76.9336 82.4032C73.7142 82.5094 71.1368 82.2022 68.5593 81.8951C68.6782 80.9176 68.7972 79.9401 68.9161 78.9626C64.8119 81.6122 60.7076 84.2618 58.0419 85.9828C60.6467 93.2587 62.9707 99.7499 65.3146 107.044C65.3314 108.919 65.3281 109.99 64.4274 111.163C57.2958 113.44 51.0614 115.615 46.9176 117.061C47.599 122.391 50.2603 128.348 48.3525 130.92C41.0397 140.78 43.3142 150.175 46.1678 160.55C47.5965 165.744 46.066 171.751 45.8738 177.391C41.0768 176.29 36.2799 175.188 30.7577 173.747C27.7091 171.411 23.2269 169.201 23.3999 167.452C24.9254 152.033 14.1553 148.431 2.96011 144.966C2.83608 141.608 2.71205 138.249 2.7458 133.897Z" fill="#CFA14B"/>
<path d="M346.708 615.064C346.723 616.204 346.739 617.343 346.75 619.338C341.029 620.094 335.312 619.995 329.596 619.895C327.987 619.867 326.284 619.472 324.785 619.862C307.07 624.473 293.326 622.852 294.388 602.162C289.454 605.803 284.543 609.124 279.983 612.872C274.373 617.482 269.057 622.448 265.777 625.348C253.048 625.348 241.745 625.348 229.296 624.332C230.302 619.762 232.099 615.918 234.689 612.717C238.838 607.591 243.513 602.891 248.822 598.097C258.332 600.919 253.452 605.413 251.72 610.153C250.75 612.809 252.101 616.311 252.406 619.432C255.644 618.155 260.934 617.66 261.77 615.469C265.712 605.136 268.432 594.338 271.571 583.685C271.554 583.664 271.596 583.696 272.369 583.595C274.246 581.953 275.351 580.413 277.246 578.852C279.089 578.802 280.143 578.772 282.133 578.783C288.242 578.447 293.414 577.815 298.588 577.796C301.447 577.786 304.88 577.98 307.075 579.497C319.412 588.024 329.863 588.745 341.854 581.246C343.037 581.885 344.22 582.525 346.016 584.01C346.628 584.855 346.58 585.985 345.825 586.125C343.987 587.802 342.905 589.339 341.064 591.319C330.23 605.976 332.066 612.659 346.708 615.064Z" fill="#CFA350"/>
<path d="M450.986 347.544C441.945 345.986 438.284 353.224 432.44 357.13C432.334 346.275 424.872 349.058 419.508 347.749C419.463 345.899 419.439 344.842 419.422 342.871C419.747 335.473 420.064 328.988 420.463 320.854C426.653 323.699 429.412 324.966 431.391 325.876C445.049 313.011 431.807 302.898 430.304 291.973C426.083 293.256 422.796 294.255 419.509 294.341C419.514 291.601 419.521 289.775 419.819 287.236C418.818 282.874 417.524 279.225 416.084 275.165C417.038 271.882 418.225 267.793 419.419 262.911C419.427 261.062 419.428 260.005 419.446 258.035C417.876 254.47 416.29 251.816 414.701 248.375C414.704 246.535 414.71 245.483 415.541 244.334C419.014 243.478 421.661 242.721 424.317 242.865C424.342 245.569 424.357 247.372 424.354 249.791C424.333 250.818 424.33 251.229 424.337 252.533C425.407 258.57 426.137 263.818 427.707 268.802C428.257 270.549 430.874 271.646 432.547 273.04C433.8 271.387 436.076 269.739 436.084 268.08C436.099 265.026 434.781 261.965 434.613 258.508C435.632 256.778 436.055 255.445 437.319 253.962C446.185 248.471 443.508 242.563 439.249 236.373C435.005 230.206 431.01 223.866 427.778 217.531C432.047 216.736 435.443 216.013 438.838 215.29C447.007 220.215 450.692 227.053 449.203 236.856C448.5 241.485 449.235 246.364 449.572 251.111C449.854 255.08 451.879 259.464 450.774 262.908C441.801 290.886 449.172 318.664 450.986 347.544Z" fill="#DAB165"/>
<path d="M159.986 17.076C158.697 8.1516 164.408 5.33601 173.592 4.00783C177.874 4.23955 180.149 4.26196 182.424 4.28429C183.647 4.81422 184.871 5.34407 186.068 7.25513C183.616 12.2673 181.191 15.8984 178.374 20.116C180.499 21.9948 182.696 23.9375 184.789 25.7886C189.107 22.4588 192.774 19.6315 197.116 16.2834C198.739 19.7552 200.213 22.1145 200.978 24.6846C203.919 34.5681 207.208 41.1939 220.788 39.5448C228.926 38.5566 237.904 45.9684 247.73 43.242C248.746 42.9603 250.723 46.1406 251.836 48.5494C244.404 51.3474 237.391 53.3106 230.272 54.4326C223.895 39.8719 211.771 50.4529 202.573 46.5297C202.352 46.0624 202.138 44.5525 201.294 43.9983C197.117 41.2522 192.772 38.7586 188.487 36.1761C187.074 39.8814 184.371 43.6448 184.534 47.2793C184.816 53.5578 186.879 59.7562 187.91 64.6413C176.946 59.9366 166.01 55.2445 154.504 50.5198C153.934 50.4871 152.797 50.3756 152.691 49.545C149.899 47.4525 146.444 44.4486 144.661 45.2344C137.45 48.4136 130.753 52.7595 121.79 57.856C120.845 55.6868 118.631 50.6062 117.283 45.5223C128.044 40.5543 137.94 35.5897 149.874 29.6024C150.04 29.4163 152.588 24.8033 154.127 25.1181C163.045 26.942 158.989 20.3319 159.986 17.076Z" fill="#CFA04E"/>
<path d="M121.226 586.093C119.931 588.984 118.636 591.875 117.028 595.465C109.519 590.813 100.482 598.371 92.5097 589.253C87.6191 583.659 74.3832 594.156 72.9254 604.754C72.3274 609.102 72.7611 613.592 72.7168 619.09C68.1877 619.894 63.6671 619.624 58.6212 617.857C58.4039 614.807 58.1909 612.361 59.0976 611.832C75.2767 602.391 64.1222 589.697 62.6047 578.686C61.2084 568.555 49.1742 573.522 44.273 568.673C34.6267 559.129 25.7625 560.354 16.3809 569.211C14.8147 564.41 13.6285 560.774 12.4424 557.138C14.0505 548.968 15.6587 540.797 18.2466 532.457C23.0852 537.125 26.9442 541.963 31.7436 547.98C35.7088 543.378 38.9617 539.603 43.849 535.518C46.9182 535.765 49.3375 536.006 49.6353 536.929C52.6069 546.149 57.4833 552.587 67.78 555.141C70.601 555.841 73.6646 562.976 73.4594 566.996C72.9361 577.248 76.7047 581.18 87.1368 580.349C91.1046 580.032 95.293 582.481 99.4641 584.493C102.462 586.228 105.374 587.872 108.292 587.881C112.601 587.895 116.914 586.746 121.226 586.093Z" fill="#C5903B"/>
<path d="M12.1285 558.052C13.6284 560.774 14.8145 564.41 16.3807 569.211C25.7624 560.354 34.6266 559.129 44.2729 568.673C49.1741 573.522 61.2082 568.555 62.6045 578.686C64.122 589.697 75.2766 602.391 59.0974 611.832C58.1907 612.361 58.4037 614.807 58.0262 617.327C50.6934 618.252 43.4301 618.211 35.0786 617.012C34.4587 613.563 35.0423 611.287 35.3737 608.976C36.3458 602.193 37.2173 595.397 38.1281 588.606C32.9078 588.285 27.6848 588.001 22.4679 587.632C19.4675 587.42 16.4768 587.073 9.47578 586.404C12.3219 599.384 14.7445 610.433 17.1672 621.482C14.3375 621.39 9.60987 622.238 9.01593 621.04C6.77142 616.511 4.25813 611.148 4.75854 606.404C6.43352 590.52 9.36463 574.769 12.1285 558.052Z" fill="#B07634"/>
<path d="M252.254 47.7148C250.723 46.1408 248.746 42.9604 247.73 43.2422C237.904 45.9686 228.926 38.5567 220.788 39.545C207.208 41.1941 203.919 34.5682 200.978 24.6848C200.213 22.1146 198.739 19.7553 197.116 16.2835C192.774 19.6316 189.107 22.459 184.789 25.7888C182.696 23.9377 180.499 21.995 178.374 20.1162C181.191 15.8986 183.616 12.2675 186.313 7.9062C190.458 6.51449 194.613 6.53224 198.146 5.05859C207.16 1.29874 215.68 -1.93347 225.342 3.87707C228.351 5.6871 233.566 5.90758 236.953 4.65144C249.861 -0.136083 261.366 1.75405 272.82 10.4575C271.984 20.1362 261.917 31.0543 278.773 36.8683C272.964 40.2345 267.299 42.8111 260.915 45.8003C257.549 46.7134 254.902 47.2141 252.254 47.7148ZM213.113 17.229C212.881 20.5848 212.649 23.9406 212.417 27.2964C216.189 27.119 220.752 28.2365 223.579 26.5121C230.911 22.041 235.65 24.6285 241.979 28.9708C246.583 32.1289 253.64 31.7136 259.603 32.8915C259.585 28.4147 259.596 23.9375 259.534 19.4612C259.512 17.8547 259.495 16.212 259.163 14.6523C257.666 7.6171 253.106 5.70833 246.547 7.36977C235.782 10.097 225.021 12.8419 213.113 17.229Z" fill="#B47C3B"/>
<path d="M161.623 625.572C161.265 612.373 161.914 599.149 163.331 584.737C165.195 582.736 166.291 581.923 168.246 581.157C172.55 580.42 175.996 579.637 180.422 578.817C191.616 576.185 201.83 573.59 213.363 570.661C215.589 574.299 219.616 580.879 223.952 587.964C230.745 583.045 236.981 578.529 246.112 571.917C246.633 581.837 246.999 588.8 246.401 595.762C234.432 592.874 223.409 590.053 212.429 587.075C205.774 585.27 190.498 593.487 190.036 599.526C189.529 606.172 189.494 612.854 189.253 619.521C180.379 621.53 171.504 623.539 161.623 625.572Z" fill="#CFA04E"/>
<path d="M189.818 620.224C189.494 612.854 189.529 606.172 190.036 599.525C190.498 593.487 205.774 585.269 212.428 587.074C223.409 590.053 234.432 592.873 246.494 596.339C247.551 596.917 247.965 598.011 247.965 598.011C243.513 602.891 238.838 607.591 234.689 612.717C232.098 615.918 230.302 619.761 228.199 624.29C215.627 623.818 203.006 622.373 189.818 620.224Z" fill="#AF7834"/>
<path d="M360.149 9.57106C364.4 15.6283 367.435 21.6603 370.9 27.4342C371.995 29.2572 374.744 30.0792 375.866 31.896C379.077 37.0946 381.842 42.5685 384.782 47.9342C382.145 48.6821 379.477 50.134 376.876 50.0236C372.201 49.8252 367.566 48.6891 361.288 48.0638C358.659 48.0607 357.657 47.9388 356.481 46.9893C351.091 41.4962 345.928 36.7685 340.637 32.1882C337.404 29.3895 332.954 23.887 330.805 24.6348C319.646 28.5171 320.646 18.9433 317.446 14.0121C331.331 12.4901 345.215 10.9682 360.149 9.57106Z" fill="#AF7834"/>
<path d="M316.581 13.8829C320.646 18.9433 319.646 28.5171 330.805 24.6347C332.954 23.887 337.404 29.3895 340.637 32.1882C345.928 36.7684 351.091 41.4962 355.787 47.344C350.104 54.5846 347.512 48.9549 343.653 46.4464C338.597 43.1593 332.799 41.0126 326.506 38.2405C322.299 35.0566 318.905 32.0072 315.921 29.3258C304.367 35.1605 318.458 51.4988 301.75 55.5099C299.798 50.6508 297.826 45.7417 296.197 40.6908C296.65 40.3188 296.76 40.0889 296.87 39.8589C296.5 40.1523 296.13 40.4457 294.801 40.7272C288.456 42.7869 283.07 44.8587 276.829 47.2593C272.804 46.7636 267.219 46.0755 261.633 45.3876C267.299 42.811 272.964 40.2344 279.271 36.5355C280.544 34.8776 280.964 34.2098 281.924 33.1805C289.144 30.4683 295.614 27.9854 302.084 25.5024C299.973 20.0471 297.862 14.5917 295.752 9.13644C304.63 1.07278 308.468 14.7784 316.581 13.8829Z" fill="#CFA04E"/>
<path d="M159.144 16.9059C158.989 20.332 163.045 26.9422 154.127 25.1182C152.588 24.8034 150.04 29.4164 149.874 29.6026C137.94 35.5898 128.044 40.5544 116.917 44.7542C111.847 37.9341 108.007 31.8792 104.168 25.8241C103.527 24.7159 102.886 23.6077 102.015 21.3222C101.785 20.1448 101.812 18.9813 102.21 18.7738C102.367 17.9137 102.126 17.2611 102.131 16.0642C102.854 14.8444 103.487 14.3779 105.124 14.2701C107.63 15.4797 109.473 16.3318 110.908 17.6341C118.452 24.4821 128.368 27.7569 135.79 21.4563C144.402 14.1459 135.065 6.88125 130.908 0.231708C140.039 5.73302 149.17 11.2343 159.144 16.9059Z" fill="#AA6E2E"/>
<path d="M9.77189 28.6713C8.10697 34.0137 5.73887 39.2569 4.96747 44.7252C4.13212 50.6465 4.78616 56.7775 4.16512 63.9574C3.11354 65.0899 2.68699 65.082 2.26058 65.0742C-3.40197 45.2224 2.88532 26.4774 6.82716 6.11373C19.2403 12.5188 29.4043 8.64213 40.4035 4.10305C44.7309 2.3172 52.0223 7.70558 57.5803 11.0393C56.6224 13.64 56.0483 15.0285 55.1703 17.0289C53.5109 18.8208 52.1555 20.0007 49.9522 21.2446C45.4936 23.5233 41.8824 25.738 40.3089 26.7029C34.348 21.8649 29.0427 14.3738 24.9561 14.9877C18.8091 15.9109 8.05961 16.8614 9.77189 28.6713Z" fill="#B1844B"/>
<path d="M2.73432 146C14.1553 148.431 24.9254 152.033 23.3999 167.452C23.2269 169.201 27.7091 171.411 30.773 174.753C32.3349 184.324 33.1563 192.549 33.9778 200.773C27.1694 205.436 22.043 201.71 18.9945 196.313C16.8779 192.565 17.4926 187.317 16.6968 182.773C15.9582 178.556 14.967 174.384 13.4865 169.696C2.23021 165.176 0.00257453 157.212 2.73432 146Z" fill="#AF7834"/>
<path d="M18.15 621.416C14.7446 610.434 12.322 599.385 9.47585 586.404C16.4768 587.074 19.4676 587.421 22.468 587.633C27.6849 588.001 32.9079 588.286 38.1282 588.606C37.2173 595.397 36.3459 602.194 35.3738 608.976C35.0424 611.288 34.4588 613.564 33.9944 616.856C29.043 619.021 24.088 620.185 18.15 621.416Z" fill="#9E5112"/>
<path d="M446.126 374.422C444.746 377.521 442.405 379.938 442.616 382.108C443.03 386.385 446.173 390.651 445.787 394.692C445.249 400.321 442.51 405.741 440.713 411.25C435.693 405.541 430.394 400.043 425.819 393.998C424.375 392.091 424.833 388.724 424.482 386.017C422.13 367.915 425.957 364.839 445.138 370.284C446.186 371.468 446.252 372.548 446.126 374.422Z" fill="#C58E37"/>
<path d="M405.019 26.0715C404.704 23.3704 404.388 20.6693 404.157 18.6916C395.913 21.2318 388.174 23.6163 378.957 26.456C378.957 20.5762 378.957 16.0488 378.632 10.8446C395.857 10.0718 413.406 9.97571 431.733 10.5152C429.055 15.5073 425.601 19.8639 421.056 25.1136C414.984 26.0283 410.001 26.0499 405.019 26.0715Z" fill="#DAB165"/>
<path d="M8.48493 492.687C18.6142 499.482 28.9855 507.292 40.6521 516.078C36.7748 519.838 32.6226 523.864 26.6426 527.932C23.5642 528.037 22.3139 528.1 21.0634 528.163C18.3537 524.719 14.3664 521.656 13.2042 517.752C10.8903 509.98 10.1294 501.745 8.48493 492.687Z" fill="#AD7B3F"/>
<path d="M130.003 1.93945e-05C135.065 6.88121 144.402 14.1458 135.79 21.4563C128.368 27.7569 118.452 24.482 110.908 17.6341C109.473 16.3318 107.629 15.4796 104.885 13.6586C103.927 10.8513 104.058 8.80543 104.189 6.75954C112.492 4.4292 120.795 2.09886 130.003 1.93945e-05Z" fill="#693812"/>
<path d="M294.816 9.14666C297.862 14.5918 299.973 20.0471 302.084 25.5024C295.614 27.9854 289.144 30.4683 281.929 32.1285C279.534 23.102 277.885 14.8982 276.236 6.69435C282.118 7.51517 287.999 8.33597 294.816 9.14666Z" fill="#B07634"/>
<path d="M438.94 214.403C435.442 216.013 432.047 216.736 427.704 216.936C426.757 216.413 426.568 215.227 426.612 214.286C426.614 210.844 426.572 208.344 426.53 205.844C430.187 198.005 433.844 190.166 437.877 181.521C440.522 184.284 442.487 186.337 445.266 188.512C447.3 197.936 446.878 206.774 438.94 214.403Z" fill="#CFA350"/>
<path d="M50.7999 21.1808C52.1555 20.0009 53.5109 18.821 56.0045 17.0254C58.3593 15.4482 59.5759 14.4865 60.7925 13.5247C62.6731 14.3239 64.5537 15.123 67.0203 16.425C67.5715 17.9221 67.5368 18.9165 67.0587 21.0374C66.9665 23.5379 67.3178 24.9117 67.6692 26.2856C67.5993 28.0036 67.5294 29.7216 66.5896 32.5238C53.6992 40.7889 51.1662 39.4963 50.8695 26.0246C50.834 24.4103 50.8226 22.7954 50.7999 21.1808Z" fill="#693812"/>
<path d="M275.676 6.95632C277.885 14.8982 279.534 23.1021 281.179 32.3579C280.965 34.2099 280.545 34.8776 279.416 35.7461C261.918 31.0543 271.984 20.1362 273.725 10.2137C274.359 8.63322 274.737 7.92572 275.676 6.95632Z" fill="#9B571D"/>
<path d="M103.19 6.54908C104.058 8.80546 103.927 10.8513 104.034 13.5089C103.486 14.3778 102.854 14.8444 102.097 16.6566C101.817 17.7933 101.812 18.9813 101.812 18.9813C101.812 18.9813 101.785 20.1447 101.781 20.7255C92.6767 21.6649 88.3935 17.6155 89.9568 7.26028C94.0959 6.25938 98.1435 6.29902 103.19 6.54908Z" fill="#9B571D"/>
<path d="M60.6575 12.9745C59.5763 14.4863 58.3597 15.448 56.3088 16.4132C56.0487 15.0285 56.6228 13.64 57.8559 11.8384C59.2816 11.5619 59.9507 11.8951 60.6575 12.9745Z" fill="#9A5215"/>
<path d="M21.2071 528.658C22.3141 528.1 23.5645 528.037 25.7537 527.985C25.341 528.87 23.9897 529.744 21.9953 530.401C21.3521 530.185 21.3506 529.153 21.2071 528.658Z" fill="#C5903B"/>
<path d="M65.3249 111.061C65.3282 109.99 65.3314 108.919 66.1087 106.722C73.3474 106.49 79.8121 107.384 85.7734 108.208C90.2026 95.7712 84.0773 88.8113 77.5756 81.99C77.6053 80.9213 77.6352 79.8525 78.5376 78.0861C86.8846 86.7682 94.6573 89.6529 103.535 78.9076C104.578 77.6452 107.162 77.655 109.719 77.5965C111.684 84.4016 112.564 90.807 114.429 96.9119C115.225 99.5173 118.285 103.581 119.961 103.414C129.723 102.442 132.269 108.182 132.7 116.616C121.926 117.859 120.405 122.107 122.613 132.162C126.612 150.379 134.015 168.714 126.463 188.048C125.457 190.621 128.157 194.64 129.14 197.99C130.189 198.014 131.237 198.039 132.285 198.064C141.35 182.357 150.415 166.651 159.48 150.945C157.601 151.356 155.722 151.767 153.844 152.178C151.952 148.713 149.518 145.43 148.279 141.746C145.417 133.239 143.135 124.537 141.519 115.937C148.002 117.666 153.583 119.371 159.3 121.117C158.529 137.277 163.69 142.975 176.967 141.129C176.432 149.537 178.389 154.72 184.542 154.172C189.138 149.306 192.189 146.077 195.239 142.847C198.075 147.031 201.271 151.022 203.653 155.45C206.467 160.679 208.577 166.288 210.99 172.622C210.991 175.296 210.995 177.079 210.973 179.78C212.555 183.343 214.163 185.989 215.78 189.643C215.768 194.012 215.748 197.373 215.084 201.188C211.938 201.855 209.244 202.759 206.979 202.127C203.313 201.105 199.93 199.074 195.582 197.081C195.06 213.358 185.074 217.005 169.646 209.113C165.891 215.551 162.469 222.207 158.235 228.299C156.483 230.82 152.994 232.135 150.295 233.998C148.701 230.928 146.539 228.005 145.693 224.741C145.03 222.181 146.916 218.843 146.007 216.494C144.777 213.316 142.517 209.498 139.682 208.231C135.686 206.446 129.294 202.314 128.105 211.859C127.971 212.93 127.118 213.912 126.744 214.646C123.257 212.115 120.856 210.372 116.621 207.298C117.534 213.684 119.239 218.085 118.413 221.945C117.578 225.845 113.01 229 112.346 232.87C111.712 236.56 114.003 240.751 115.008 244.722C118.549 243.569 122.392 242.934 125.539 241.104C128.206 239.552 130.069 236.618 132.288 234.296C133.512 234.844 134.735 235.392 135.959 235.94C135.087 240.603 135.471 246.061 133.112 249.784C125.177 262.307 126.144 267.325 141.32 275.488C142.801 270.331 143.863 265.423 145.685 260.815C146.565 258.593 148.878 256.938 150.542 255.026C152.057 257.1 155.216 259.595 154.81 261.175C152.785 269.046 151.904 279.017 146.6 283.731C141.355 288.393 141.053 292.293 140.531 297.762C139.018 313.619 138.909 329.91 134.852 345.125C131.819 356.501 138.026 360.729 142.526 368.311C145.976 361.37 148.496 356.3 152.337 348.571C156.773 356.798 159.887 362.229 162.669 367.824C166.181 374.885 169.451 382.068 172.77 389.224C174.822 393.65 179.496 399.509 178.106 402.24C176.173 406.035 169.66 407.501 166.55 409.184C163.694 401.745 162.705 395.486 159.266 391.183C155.323 386.25 149.207 383.054 142.95 378.275C132.501 381.896 141.533 391.465 139.806 397.954C126.301 397.13 124.193 399.424 125.844 412.487C127.703 427.187 122.161 441.019 112.616 445.505C113.226 453.673 129.14 455.803 120.272 467.332C97.0074 470.179 96.281 469.51 94.4648 447.153C93.8343 439.392 93.1746 431.142 82.5563 434.563C79.0606 428.498 75.5408 423.228 72.9428 417.538C71.601 414.599 70.5636 410.166 71.8876 407.812C72.8879 406.033 77.8806 405.914 81.0454 406.072C85.7407 406.307 90.391 407.44 95.471 408.257C95.471 404.423 95.5893 401.008 95.44 397.605C95.2681 393.688 94.0196 389.617 94.7487 385.909C95.8682 380.216 97.5842 374.403 100.32 369.326C103.465 363.49 101.771 350.092 96.5559 346.033C95.0982 344.898 94.524 342.663 93.4561 340.989C90.92 337.013 89.2055 331.611 85.5709 329.435C79.0968 325.558 79.1191 322.514 83.4471 317.209C89.1845 310.176 94.3593 302.684 99.7758 295.39C97.9869 294.143 96.1979 292.896 94.409 291.649C88.892 299.693 82.9059 307.46 77.9654 315.844C70.0473 329.279 78.8994 339.351 87.9413 349.137C86.9882 349.876 86.0352 350.615 85.0822 351.354C76.1687 347.205 67.2551 343.057 58.3416 338.908C58.3261 337.856 58.3105 336.804 58.8863 334.933C59.4774 334.115 60.6319 334.073 61.4848 334.05C63.365 331.607 64.3922 329.186 65.4321 325.962C65.4557 324.09 65.4663 323.02 66.3052 321.809C68.1898 319.338 69.2461 317.006 70.9312 314.167C71.9461 311.566 72.3324 309.474 73.4063 306.781C74.296 296.016 74.9557 285.835 74.5646 275.693C74.2116 266.539 72.7092 257.43 71.7136 248.3C73.1604 247.935 74.6073 247.569 76.0542 247.204C77.8364 250.498 79.6186 253.793 81.4008 257.088C82.7246 256.527 84.0483 255.966 85.3721 255.405C81.1814 238.854 79.2942 223.101 96.5132 215.023C99.4261 218.383 102.146 221.521 104.865 224.658C106.188 220.171 107.767 215.74 108.763 211.182C109.789 206.486 109.666 201.485 111.082 196.941C113.504 189.166 116.734 181.643 119.731 173.734C107.129 165.751 106.813 164.652 112.077 159.592C113.055 147.285 113.666 138.496 114.488 129.727C114.86 125.771 116.501 121.732 115.951 117.966C115.595 115.53 112.578 112.222 110.253 111.746C108.491 111.386 104.203 114.749 104.057 116.683C103.566 123.158 104.431 129.736 104.777 136.275C103.501 134.816 102.225 133.357 100.949 131.899C98.2411 136.269 95.5332 140.639 92.5434 145.464C88.7551 143.517 83.1339 140.628 77.5182 136.743C80.6065 123.989 68.2263 119.864 65.3249 111.061ZM111.444 317.964C104.494 322.651 96.5359 326.793 100.066 336.335C109.644 336.335 118.336 336.335 128.402 336.335C128.402 329.801 129.509 324.354 128.046 319.717C126.91 316.119 122.849 313.096 119.41 310.859C118.709 310.403 114.983 314.59 111.444 317.964ZM193.539 193.749C194.355 190.112 195.171 186.475 195.987 182.838C194.173 182.791 192.358 182.744 190.544 182.697C191.082 186.724 191.62 190.751 193.539 193.749Z" fill="#E6C37E"/>
<path d="M57.4867 338.835C67.2547 343.057 76.1683 347.206 85.0818 351.355C86.0348 350.616 86.9878 349.877 87.9408 349.138C78.8989 339.352 70.0468 329.279 77.965 315.844C82.9055 307.461 88.8916 299.694 94.4085 291.65C96.1975 292.897 97.9864 294.144 99.7754 295.391C94.3588 302.685 89.184 310.177 83.4467 317.21C79.1187 322.515 79.0963 325.559 85.5705 329.436C89.2051 331.612 90.9195 337.013 93.4556 340.989C94.5235 342.664 95.0977 344.899 96.5554 346.034C101.771 350.093 103.465 363.491 100.32 369.327C97.5837 374.403 95.8677 380.216 94.7483 385.91C94.0192 389.617 95.2677 393.689 95.4395 397.606C95.5888 401.009 95.4705 404.424 95.4705 408.258C90.3906 407.441 85.7402 406.308 81.045 406.073C77.8801 405.915 72.8874 406.034 71.8872 407.812C70.5631 410.166 71.6006 414.6 72.9423 417.539C75.5403 423.229 79.0601 428.499 82.5558 434.564C93.1741 431.143 93.8338 439.392 94.4643 447.153C96.2806 469.51 97.007 470.18 120.271 468.301C120.148 480.311 126.951 486.113 136.487 490.639C134.243 496.413 132.159 501.775 129.823 507.788C132.779 508.052 135.481 508.293 138.182 508.535C138.182 508.535 138.184 508.535 138.181 509.444C138.181 512.17 138.183 513.988 138.069 516.564C134.627 515.632 131.301 513.94 127.657 512.087C126.642 524.384 131.011 533.246 143.648 537.999C144.648 539.759 145.066 541.1 145.594 543.362C152.657 555.081 161.087 547.285 169.182 546.453C178.14 545.532 187.433 544.634 196.195 546.073C202.88 547.171 205.414 545.741 205.947 539.742C206.326 535.479 206.021 531.156 206.021 525.904C218.927 528.406 230.022 530.556 241.649 532.81C242.471 534.558 242.983 538.054 244.97 539.446C253.036 545.096 259.66 551.299 261.373 561.752C261.599 563.126 268.295 565.371 269.705 564.273C274.773 560.329 285.71 563.821 285.006 552.414C284.154 538.614 289.466 532.542 300.514 538.451C311.136 544.131 316.74 549.197 321.49 533.873C322.725 529.889 327.741 527.075 332.594 522.115C335.459 529.253 338.81 537.603 342.578 546.993C356.738 548.985 355.207 531.705 366.716 525.349C367.66 534.852 368.491 543.215 369.366 552.028C374.405 548.291 378.373 545.348 382.763 542.093C374.623 533.484 380.206 525.562 383.483 517.49C384.617 514.699 386.823 511.659 386.426 509.055C384.999 499.707 383.267 490.314 380.513 481.285C377.611 471.77 380.858 465.316 387.513 458.844C390.044 456.383 392.135 450.692 391.025 447.76C386.529 435.889 380.708 424.52 375.377 412.966C376.742 413.068 378.107 413.17 379.472 413.272C381.502 405.803 383.075 398.168 385.714 390.92C387.67 385.55 390.04 377.306 393.909 376.193C408.656 371.954 414.812 361.257 419.527 348.543C424.871 349.059 432.334 346.276 431.578 357.252C416.965 363.769 416.891 376.12 417.372 389.203C414.295 389.008 411.34 388.82 408.229 388.623C407.03 399.18 405.913 409.017 404.646 420.179C408.529 419.114 411.075 418.416 414.467 417.486C409.381 427.771 404.826 436.982 400.271 446.194C401.327 446.734 402.383 447.273 403.439 447.813C405.671 444.467 407.902 441.121 411.825 435.238C414.243 443.065 415.697 447.773 417.098 452.305C403.956 460.646 402.953 466.446 408.688 482.074C410.461 486.906 410.453 494.405 407.78 498.289C405.077 502.213 398.058 503.168 392.096 505.79C400.568 513.122 411.623 522.432 401.303 536.39C399.244 534.695 396.283 532.26 392.343 529.019C390.608 546.232 396.318 563.217 379.013 573.985C378.15 574.134 376.986 574.057 376.318 573.145C372.978 566.013 369.121 564.529 363.712 569.249C361.023 568.502 358.334 567.755 354.75 566.052C348.947 556.481 333.411 553.523 321.507 558.716C316.462 560.917 310.964 562.159 306.096 564.662C297.622 569.019 289.478 574.015 281.196 578.744C280.142 578.773 279.089 578.802 276.459 578.933C273.787 580.588 272.691 582.142 271.595 583.697C271.595 583.697 271.553 583.664 270.716 583.752C265.457 586.839 261.036 589.838 256.034 593.23C254.632 587.33 253.52 582.71 252.44 578.083C251.131 572.475 251.291 565.866 248.248 561.462C242.464 553.093 220.037 554.234 207.495 561.513C202.632 564.336 196.617 565.484 190.967 566.541C186.835 567.314 182.443 566.693 177.076 566.693C178.107 571.995 178.774 575.425 179.441 578.854C175.996 579.637 172.55 580.42 168.211 580.275C159.717 572.767 152.128 566.173 144.509 559.615C141.601 557.112 138.624 554.691 136.043 551.438C135.652 547.339 134.897 544.035 134.141 540.731C131.381 542.29 128.213 543.428 126.001 545.557C124.501 547 124.342 549.835 122.985 552.069C122.386 552.09 121.19 552.141 120.188 552.141C112.743 552.903 107.598 551.151 106.972 543.91C105.625 528.323 105.247 512.637 103.435 497.112C102.603 489.983 101.01 481.851 88.9645 478.732C94.2609 498.814 93.8823 515.906 76.5403 528.968C81.1731 534.618 85.3522 539.714 90.0935 545.496C86.5194 548.882 83.4632 551.777 79.3883 555.638C71.9517 548.431 63.2523 543.049 59.0846 535.248C52.7946 523.475 68.576 521.06 70.8602 512.993C69.1867 507.843 69.3596 502.96 69.1442 498.094C68.8571 491.612 68.9398 485.008 67.6638 478.699C65.2823 466.923 60.8584 455.46 59.4737 443.612C58.0244 431.212 59.1497 418.512 59.1497 410.046C52.8447 403.976 48.1014 400.272 44.7073 395.59C43.7561 394.278 46.0493 388.375 48.0962 387.509C58.7955 382.979 56.9551 375.866 53.2335 367.949C54.7246 354.354 52.7923 341.828 40.6744 332.486C41.4168 331.804 42.1591 331.122 42.9015 330.44C47.4784 333.214 52.0554 335.988 57.4867 338.835ZM184.123 557.631C182.879 554.388 181.635 551.145 180.39 547.903C178.988 548.745 177.586 549.587 176.183 550.43C178.722 553.373 181.26 556.317 184.123 557.631Z" fill="#E1BA70"/>
<path d="M52.3824 368.111C56.9554 375.865 58.7958 382.978 48.0965 387.508C46.0495 388.375 43.7563 394.278 44.7076 395.59C48.1016 400.271 52.8449 403.976 59.15 410.045C59.15 418.511 58.0247 431.212 59.474 443.611C60.8587 455.46 65.2826 466.923 67.664 478.698C68.9401 485.007 68.8574 491.612 69.1445 498.094C69.3599 502.959 69.187 507.843 70.8605 512.992C68.5763 521.06 52.7949 523.474 59.0849 535.248C63.2526 543.048 71.952 548.43 79.3886 555.638C83.4635 551.777 86.5197 548.881 90.0938 545.495C85.3525 539.713 81.1734 534.617 76.5405 528.967C93.8825 515.906 94.2611 498.813 88.9647 478.731C101.01 481.85 102.604 489.982 103.436 497.111C105.247 512.636 105.625 528.323 106.973 543.91C107.599 551.15 112.743 552.902 119.795 552.915C109.789 556.759 112.65 565.821 112.885 577.49C106.617 570.544 102.971 566.504 99.3249 562.464C98.3123 566.694 99.3306 569.739 101.248 572.035C105.293 576.878 105.023 580.592 99.3808 583.67C95.293 582.481 91.1046 580.032 87.1368 580.349C76.7047 581.18 72.9361 577.248 73.4593 566.996C73.6646 562.976 70.601 555.841 67.78 555.141C57.4833 552.587 52.6069 546.149 49.6353 536.929C49.3375 536.006 46.9182 535.765 44.5871 535.14C43.7328 532.25 43.2624 529.304 43.9074 526.627C46.3982 516.288 47.9422 506.869 45.332 495.395C42.7256 483.937 48.331 470.682 49.8958 458.16C50.3017 454.911 49.2389 451.419 48.5357 448.106C47.3554 442.544 46.182 436.954 44.4922 431.536C43.5738 428.592 42.1561 425.361 39.9572 423.369C37.1347 420.814 33.3006 419.375 26.5749 415.574C33.7183 415.574 37.1738 415.574 43.6049 415.574C40.0014 402.879 36.7397 391.388 33.3934 379.598C46.6941 388.885 46.5286 374.451 52.3824 368.111Z" fill="#DCB05E"/>
<path d="M77.5122 137.74C83.1334 140.628 88.7546 143.517 92.5429 145.464C95.5328 140.639 98.2406 136.269 100.948 131.899C102.224 133.357 103.5 134.816 104.776 136.275C104.43 129.736 103.566 123.158 104.056 116.683C104.203 114.749 108.49 111.386 110.253 111.746C112.577 112.222 115.595 115.53 115.951 117.966C116.501 121.732 114.859 125.772 114.488 129.727C113.665 138.496 113.054 147.285 112.077 159.592C106.812 164.652 107.129 165.751 119.731 173.734C116.734 181.643 113.504 189.166 111.082 196.941C109.666 201.485 109.788 206.486 108.763 211.182C107.767 215.74 106.188 220.171 104.865 224.658C102.145 221.521 99.4257 218.383 96.5127 215.023C79.2938 223.101 81.1809 238.854 85.3716 255.405C84.0479 255.966 82.7241 256.527 81.4004 257.088C79.6181 253.793 77.8359 250.498 76.0537 247.204C74.6069 247.569 73.16 247.935 71.7131 248.3C72.7087 257.43 74.2112 266.539 74.5642 275.693C74.9552 285.835 74.2955 296.016 72.7198 306.152C71.5042 301.447 72.5087 296.586 71.5401 292.154C70.8234 288.876 67.5388 286.158 65.3981 283.19C65.3981 283.19 65.4345 283.146 65.4293 282.21C62.9859 276.243 60.5478 271.212 58.1097 266.181C58.1192 262.026 58.1286 257.871 58.8155 252.062C62.4995 242.824 65.8279 235.346 68.3525 227.605C69.3488 224.551 69.8377 220.142 68.3531 217.674C61.7355 206.673 62.3579 191.559 49.4755 184.152C49.876 183.525 50.2765 182.897 50.3496 182.783C57.2406 184.795 63.9443 186.753 72.0541 189.121C72.0541 182.031 74.0296 175.458 71.6904 171.324C64.1263 157.955 68.2607 147.652 77.5122 137.74Z" fill="#E1BA71"/>
<path d="M77.5179 136.743C68.2608 147.652 64.1264 157.955 71.6905 171.324C74.0297 175.458 72.0542 182.031 72.0542 189.122C63.9444 186.753 57.2407 184.795 50.3497 182.783C50.2766 182.897 49.8761 183.525 49.4756 184.152C62.358 191.559 61.7357 206.673 68.3532 217.674C69.8378 220.142 69.3489 224.551 68.3526 227.606C65.828 235.346 62.4996 242.824 58.8075 251.024C57.397 250.702 56.7147 249.728 55.9398 248.833C53.31 245.797 50.6475 242.789 47.9978 239.77C45.6878 243.115 43.3517 246.442 41.0848 249.816C40.4657 250.738 40.0544 251.799 38.8932 254.083C35.4892 247.423 32.5486 241.669 29.2165 235.149C42.351 226.926 32.4074 217.506 29.8655 208.962C31.8561 206.207 33.4742 203.968 34.5348 201.251C33.156 192.549 32.3346 184.324 31.4978 175.093C36.2797 175.189 41.0766 176.29 45.8736 177.391C46.0657 171.751 47.5962 165.744 46.1675 160.55C43.314 150.175 41.0394 140.78 48.3522 130.92C50.26 128.348 47.5987 122.391 46.9173 117.061C51.0612 115.615 57.2955 113.44 64.4272 111.163C68.226 119.864 80.6061 123.989 77.5179 136.743Z" fill="#DCB05D"/>
<path d="M65.3905 284.049C67.539 286.158 70.8237 288.876 71.5404 292.154C72.5089 296.586 71.5045 301.447 72.0325 306.753C72.3322 309.474 71.9459 311.566 70.0917 314.288C67.5748 317.261 66.5258 319.606 65.4768 321.95C65.4661 323.02 65.4555 324.09 64.5968 326.093C62.7097 329.375 61.6707 331.724 60.6317 334.073C60.6317 334.073 59.4772 334.115 58.9024 334.144C47.4839 319.574 38.9242 304.132 42.4058 284.195C46.6916 295.698 50.9772 307.202 56.7603 322.725C59.3896 317.007 62.7744 312.823 61.8178 311.209C55.8699 301.17 61.0498 293.207 65.3905 284.049Z" fill="#DCB05D"/>
<path d="M57.4486 266.79C60.5482 271.213 62.9863 276.244 65.407 282.228C54.4813 282.298 55.1244 275.125 57.4486 266.79Z" fill="#DCB05D"/>
<path d="M417.08 545.918C420.841 544.842 425.123 545.865 428.207 544.389C436.508 540.416 439.815 545.148 440.939 551.538C441.961 557.347 441.339 563.567 440.686 569.523C439.501 580.336 434.161 590.683 440.043 602.149C441.599 605.183 437.179 611.279 435.476 616.046C432.678 615.64 429.43 614.074 427.694 615.089C412.949 623.719 403.255 611.904 393.263 605.509C390.372 603.659 391.803 592.857 393.531 586.808C394.61 583.028 399.558 579.033 403.54 577.942C405.608 577.375 409.348 582.906 413.102 586.399C419.67 577.713 420.707 567.176 417.702 555.225C417.013 551.997 417.033 549.437 417.08 545.918Z" fill="#B07330"/>
<path d="M282.132 578.783C289.478 574.015 297.622 569.018 306.096 564.661C310.964 562.159 316.462 560.916 321.507 558.715C333.411 553.522 348.947 556.48 353.916 565.926C349.993 571.02 346.009 575.284 341.939 580.397C329.863 588.745 319.412 588.024 307.075 579.497C304.88 577.98 301.446 577.786 298.588 577.796C293.414 577.814 288.242 578.447 282.132 578.783Z" fill="#DCB05D"/>
<path d="M346.809 614.154C332.066 612.659 330.23 605.976 341.885 591.347C344.56 590.942 345.654 590.949 346.739 590.946C346.729 590.936 346.706 590.914 346.706 590.914C346.774 598.357 346.841 605.8 346.809 614.154Z" fill="#B07330"/>
<path d="M346.58 585.985C346.58 585.985 346.628 584.855 346.629 584.29C349.181 581.364 351.573 577.319 354.322 577.061C357.92 576.723 361.8 579.377 365.558 580.743C362.959 583.338 360.701 586.485 357.657 588.357C355.112 589.921 351.649 589.992 347.649 590.819C346.705 590.914 346.729 590.936 346.725 590.117C346.674 588.194 346.627 587.09 346.58 585.985Z" fill="#B07330"/>
<path d="M364.238 569.872C369.121 564.528 372.978 566.013 375.736 573.102C372.137 572.814 368.45 571.655 364.238 569.872Z" fill="#CFA350"/>
<path d="M104.145 26.7503C108.007 31.8791 111.846 37.9341 116.051 44.7574C118.631 50.6063 120.844 55.6869 121.789 57.8561C130.753 52.7596 137.449 48.4137 144.661 45.2345C146.443 44.4487 149.898 47.4526 151.926 49.945C148.785 56.7064 143.014 65.9713 144.362 67.157C152.586 74.3941 149.736 83.2664 150.34 92.6006C149.932 96.6301 149.547 99.7118 149.369 101.138C141.236 94.8904 133.782 89.1638 125.806 83.0369C126.109 82.1375 127.109 79.1696 128.86 73.9709C122.48 75.4603 118.545 76.379 115.1 77.1831C113.775 74.5205 112.579 72.1147 111.533 68.9141C112.105 64.0199 113.734 59.5818 112.698 55.891C110.516 48.1188 106.937 40.7383 103.932 33.1969C103.995 31.3567 104.059 29.5166 104.145 26.7503Z" fill="#DCB15F"/>
<path d="M49.9522 21.2448C50.8224 22.7954 50.8338 24.4103 50.8693 26.0246C51.1661 39.4962 53.6991 40.7889 66.5358 33.3818C67.5034 41.814 65.6551 47.6493 54.5554 46.8857C50.3897 46.5991 45.9301 51.3634 41.5112 53.6449C39.2133 54.8313 35.8491 57.1284 34.458 56.3295C29.2552 53.3418 25.0891 47.111 19.7622 46.08C8.83951 43.9657 13.8301 35.2977 10.4509 29.3165C8.05952 16.8616 18.809 15.9111 24.956 14.9879C29.0426 14.374 34.3479 21.8651 40.3088 26.7031C41.8823 25.7382 45.4935 23.5235 49.9522 21.2448Z" fill="#9A5215"/>
<path d="M103.122 33.2092C106.937 40.7383 110.516 48.1188 112.698 55.8911C113.734 59.5818 112.105 64.0199 111.014 69.2005C109.696 70.7684 109.218 71.3868 107.998 72.1428C104.53 68.8123 101.95 65.4939 99.4282 62.1326C97.812 59.9786 96.2803 57.7612 94.7106 55.5721C94.7106 55.5721 94.6069 55.4394 94.5579 55.3701C93.8146 46.0583 93.1202 36.8157 92.4042 27.2857C95.2226 28.9742 98.7672 31.0979 103.122 33.2092Z" fill="#CD9D4A"/>
<path d="M68.2494 25.9359C67.3178 24.9115 66.9665 23.5377 67.1016 21.784C68.0018 22.7982 68.4157 24.1922 68.2494 25.9359Z" fill="#9A5215"/>
<path d="M295.854 40.8328C297.826 45.7419 299.798 50.6509 301.75 55.51C318.458 51.4989 304.367 35.1606 315.921 29.3259C318.905 32.0073 322.299 35.0567 326.523 39.1364C333.247 46.8952 339.14 53.6235 345.885 61.3241C353.55 52.7171 358.935 62.8419 365.909 66.369C371.513 69.2035 377.345 71.5882 383.076 74.1726C383.92 73.0608 384.764 71.9491 385.609 70.8373C386.945 74.9834 388.282 79.1295 389.496 82.8948C396.958 82.2417 386.679 66.7843 400.017 72.302C400.016 73.3802 400.015 74.4586 399.363 76.9175C397.624 88.803 401.135 96.3226 412.147 98.9743C412.778 100.907 413.41 102.84 414.355 105.479C411.867 111.55 401.834 112.261 403.917 122.095C401.428 116.091 399.898 109.378 398.257 102.177C391.805 101.021 385.18 99.3636 378.466 98.8348C375.246 98.5812 371.857 100.461 367.64 101.26C364.893 97.9943 363.511 94.4228 361.102 91.7909C357.339 87.6801 353.377 82.9428 348.495 81.0243C346.243 80.1395 340.441 84.5302 338.28 87.8496C331.057 98.9404 324.684 98.9621 317.583 87.2957C316.327 85.2318 314.193 82.5946 312.166 82.3043C304.771 81.2456 297.25 81.0688 289.777 80.5597C290.224 79.9162 290.672 79.2728 291.12 78.6293C287.566 75.7373 284.011 72.8452 280.457 69.9531C278.107 73.3089 275.737 76.6516 273.41 80.0239C270.355 84.4508 267.333 88.901 264.298 93.3411C263.531 93.1803 262.765 93.0195 261.999 92.8587C261.999 82.2296 261.999 71.6005 261.999 60.9715C260.861 60.7063 259.723 60.4412 258.584 60.176C254.106 65.6735 249.627 71.171 245.148 76.6685C244.406 76.3766 243.664 76.0848 242.923 75.793C243.312 71.1009 243.702 66.4089 243.931 63.6632C238.468 63.6632 233.465 62.5063 229.425 63.9824C225.226 65.5168 221.457 69.1777 218.482 72.7302C216.865 74.6608 217.289 78.2993 217.258 78.4819C209.076 77.8467 202.479 77.6922 196.024 76.6524C193.54 76.2521 191.38 73.8377 189.983 72.3102C194.691 69.4683 198.488 66.6574 202.692 63.5445C205.51 64.8912 208.935 66.5282 212.361 68.1652C211.937 66.8921 211.513 65.619 211.088 64.3458C214.871 62.1394 218.554 59.7327 222.471 57.7998C224.924 56.5892 227.73 56.0916 230.378 55.2741C237.391 53.3108 244.404 51.3475 251.835 48.5495C254.901 47.2141 257.549 46.7135 260.915 45.8003C267.219 46.0756 272.804 46.7637 276.829 47.2594C283.07 44.8589 288.456 42.7871 294.822 40.7532C295.802 40.7911 295.854 40.8328 295.854 40.8328Z" fill="#E1BA70"/>
<path d="M404.163 26.2587C410.002 26.05 414.984 26.0284 420.856 25.9072C427.224 29.5494 432.702 33.2912 440.869 38.8696C441.306 45.9974 441.989 57.1276 442.736 69.2911C437.801 67.9722 433.456 65.3863 431.723 66.5817C421.294 73.7761 416.419 65.7422 410.7 59.8056C408.2 57.2101 406.136 54.1925 403.617 51.618C392.843 40.6076 392.776 38.2305 404.163 26.2587Z" fill="#AF7432"/>
<path d="M400.774 71.9279C386.679 66.7842 396.958 82.2416 389.496 82.8948C388.282 79.1294 386.945 74.9833 385.609 70.8373C384.765 71.949 383.92 73.0607 383.076 74.1725C377.345 71.5882 371.513 69.2034 365.909 66.3689C358.935 62.8419 353.55 52.717 345.885 61.324C339.14 53.6234 333.247 46.8951 327.337 39.271C332.799 41.0126 338.597 43.1594 343.653 46.4464C347.512 48.955 350.104 54.5847 355.96 48.1715C357.657 47.9388 358.659 48.0607 360.416 48.2559C370.369 59.9181 381.78 65.2305 396.767 61.4586C398.657 60.983 402.768 62.4244 402.961 63.4976C403.415 66.0154 402.118 68.8485 400.774 71.9279Z" fill="#DCB15F"/>
<path d="M412.78 98.4788C401.135 96.3225 397.624 88.8029 399.357 77.7261C404.471 84.0973 408.941 91.0403 412.78 98.4788Z" fill="#DCB15F"/>
<path d="M99.4642 584.493C105.023 580.593 105.293 576.879 101.248 572.035C99.3307 569.74 98.3125 566.694 99.325 562.464C102.971 566.504 106.617 570.544 112.885 577.491C112.65 565.821 109.789 556.759 120.796 552.915C121.19 552.141 122.387 552.09 123.713 552.416C128.586 552.572 132.132 552.402 135.679 552.232C138.625 554.691 141.602 557.112 144.509 559.615C152.128 566.173 159.717 572.767 167.353 580.229C166.291 581.924 165.195 582.736 163.396 583.621C159.52 584.15 156.347 584.606 151.555 585.296C143.733 574.469 133.342 581.391 122.132 585.967C116.914 586.747 112.601 587.895 108.292 587.882C105.374 587.872 102.462 586.229 99.4642 584.493Z" fill="#CD9C47"/>
<path d="M412.268 207.618C413.365 207.642 414.461 207.666 416.326 208.647C417.046 211.462 416.997 213.32 415.961 215.203C388.757 216.107 375.34 233.877 363.71 255.016C359.99 270.309 368.494 286.437 357.221 299.675C356.979 299.959 358.279 301.556 358.88 303.476C361.868 317.761 360.751 319.14 347.626 318.714C345.833 318.655 343.986 319.019 342.226 319.446C337.819 320.515 333.448 321.731 328.982 322.91C330.068 311.257 330.857 302.8 331.68 293.978C334.403 293.978 337.645 293.978 340.107 293.978C339.431 283.732 338.818 274.425 338.162 264.464C334.45 264.194 330.926 263.937 327.386 262.746C325.594 257.989 323.949 254.097 321.986 250.373C320.941 248.389 318.291 246.759 318.176 244.86C317.628 235.824 317.702 226.751 318.231 217.227C322.116 214.124 326.123 208.675 328.4 209.321C339.957 212.598 346.265 206.088 352.711 197.65C356.78 201.304 360.386 204.542 363.309 207.167C369.025 202.601 373.977 198.645 378.427 195.09C377.519 189.976 376.471 184.076 375.139 176.572C381.684 178.238 385.772 179.279 389.084 180.122C389.702 186.457 388.377 193.238 391.169 196.511C394.933 200.925 401.866 202.638 407.44 205.51C407.44 205.51 407.35 205.593 407.434 206.286C409.101 207.192 410.684 207.405 412.268 207.618Z" fill="#EFD8A7"/>
<path d="M407.425 204.459C401.866 202.638 394.933 200.925 391.169 196.511C388.377 193.237 389.702 186.457 389.084 180.122C385.773 179.279 381.684 178.238 375.139 176.572C376.471 184.075 377.519 189.976 378.427 195.09C373.977 198.644 369.025 202.601 363.309 207.167C360.386 204.542 356.78 201.304 352.711 197.65C346.265 206.088 339.957 212.598 328.4 209.32C326.123 208.675 322.116 214.124 317.536 216.669C315.446 211.281 313.217 205.662 314.275 200.749C318.343 181.86 325.394 163.295 315.347 142.737C325.936 144.527 336.246 130.1 344.424 145.581C341.651 149.047 339.346 151.928 337.046 155.742C341.481 166.43 345.913 176.186 351.148 187.712C353.799 183.5 355.072 182.254 355.419 180.789C356.784 175.023 356.427 168.231 359.477 163.669C362.09 159.763 368.489 158.392 373.185 155.847C373.404 155.728 373.341 155.089 374.327 154.668C387.604 148.901 378.377 142.207 374.647 138.396C366.87 130.45 367.1 124.358 375.24 117.509C376.558 116.4 377.029 114.285 377.206 113.947C373.829 109.045 371.187 105.21 368.545 101.375C371.857 100.461 375.246 98.581 378.466 98.8346C385.18 99.3634 391.805 101.02 398.257 102.176C399.898 109.377 401.428 116.091 403.883 123.068C405.636 128.303 406.464 133.272 406.496 139.071C402.21 136.751 398.721 133.603 395.104 130.114C395.056 130.005 395.136 130.237 395.205 131.366C392.958 142.373 390.722 152.484 388.613 162.024C399.949 168.169 408.693 174.902 407.388 188.647C407.396 193.568 407.403 198.488 407.425 204.459Z" fill="#E9CC90"/>
<path d="M408.214 188.513C408.693 174.902 399.948 168.169 388.613 162.024C390.722 152.485 392.958 142.373 395.21 131.363C395.225 130.464 395.232 130.455 395.232 130.455C398.721 133.603 402.21 136.751 406.517 140.023C415.655 142.89 433.379 168.988 431.307 176.689C430.17 180.913 426.719 184.516 424.312 188.399C423.562 187.234 422.812 186.07 422.062 184.905C417.721 186.063 413.381 187.22 408.214 188.513Z" fill="#E0BA72"/>
<path d="M416.949 215.178C416.997 213.32 417.046 211.462 417.149 208.668C419.774 207.068 422.345 206.405 425.723 205.793C426.572 208.345 426.614 210.845 425.656 214.307C422.087 215.239 419.518 215.209 416.949 215.178Z" fill="#E9CC90"/>
<path d="M411.83 207.082C410.685 207.405 409.101 207.192 407.475 206.242C408.752 205.852 410.072 206.199 411.83 207.082Z" fill="#E9CC90"/>
<path d="M76.9333 82.4033C84.0769 88.8113 90.2022 95.7712 85.773 108.208C79.8117 107.384 73.347 106.49 66.0883 105.919C62.9703 99.75 60.6463 93.2588 58.0415 85.9828C60.7072 84.2618 64.8115 81.6123 68.9158 78.9627C68.7969 79.9402 68.6779 80.9177 68.559 81.8951C71.1364 82.2023 73.7139 82.5094 76.9333 82.4033Z" fill="#DCB05D"/>
<path d="M94.6471 56.6336C96.2805 57.7613 97.8122 59.9787 99.4284 62.1327C101.95 65.494 104.53 68.8124 108.055 72.9672C109.027 74.882 109.03 75.9786 109.032 77.0751C107.162 77.6551 104.577 77.6453 103.534 78.9077C94.657 89.653 86.8844 86.7683 78.5704 77.285C76.3549 74.5938 74.9788 72.0061 73.6029 69.4185C76.512 69.2821 80.2083 67.9643 82.1608 69.2638C85.8312 71.7067 88.4945 75.6609 94.5833 78.4063C94.5833 71.5025 94.5833 64.5986 94.6471 56.6336Z" fill="#DCB05D"/>
<path d="M180.422 578.817C178.775 575.424 178.108 571.994 177.077 566.692C182.443 566.692 186.836 567.314 190.967 566.541C196.618 565.483 202.632 564.335 207.495 561.513C220.037 554.234 242.465 553.092 248.248 561.462C251.291 565.865 251.132 572.474 252.44 578.082C253.52 582.71 254.633 587.33 256.034 593.23C261.036 589.837 265.458 586.838 270.734 583.773C268.433 594.338 265.712 605.136 261.77 615.469C260.934 617.661 255.644 618.155 252.406 619.432C252.101 616.311 250.75 612.809 251.72 610.153C253.452 605.413 258.332 600.919 248.822 598.097C247.965 598.011 247.551 596.918 247.458 596.341C246.999 588.8 246.633 581.837 246.112 571.917C236.981 578.529 230.745 583.045 223.952 587.964C219.616 580.879 215.589 574.299 213.363 570.661C201.83 573.59 191.616 576.185 180.422 578.817Z" fill="#DCB05D"/>
<path d="M345.825 586.125C346.627 587.09 346.674 588.194 346.735 590.127C345.654 590.949 344.56 590.942 342.644 590.906C342.905 589.339 343.987 587.802 345.825 586.125Z" fill="#C5903B"/>
<path d="M272.369 583.595C272.691 582.142 273.787 580.587 275.669 578.953C275.351 580.413 274.246 581.953 272.369 583.595Z" fill="#DCB05D"/>
<path d="M415.961 215.203C419.518 215.209 422.087 215.239 425.612 215.249C426.568 215.228 426.757 216.413 426.831 217.008C431.01 223.867 435.004 230.206 439.249 236.374C443.508 242.564 446.185 248.472 436.627 253.452C431.519 251.787 427.945 250.481 424.372 249.175C424.357 247.372 424.341 245.569 424.21 241.909C422.805 234.618 421.516 229.184 420.227 223.75C419.431 223.789 418.635 223.829 417.839 223.869C416.798 230.723 415.757 237.578 414.716 244.432C414.71 245.484 414.704 246.535 414.675 249.29C416.244 253.645 417.837 256.297 419.429 258.948C419.428 260.005 419.426 261.062 418.527 262.91C413.409 257.424 407.344 251.664 405.407 244.749C402.567 234.602 396.253 231.703 384.507 229.768C387.934 245.922 391.015 260.446 394.096 274.969C390.59 280.994 391.896 285.918 400.45 290.025C402.017 286.78 403.254 284.219 403.355 284.011C409.941 285.615 414.734 286.782 419.526 287.949C419.52 289.775 419.514 291.602 418.89 294.854C419.888 302.694 421.503 309.107 422.925 314.751C417.646 317.659 410.765 319.204 407.979 323.44C401.604 333.131 404.459 337.226 419.414 343.785C419.438 344.842 419.463 345.9 419.508 347.75C414.812 361.256 408.656 371.954 393.909 376.193C390.04 377.305 387.67 385.549 385.714 390.919C383.075 398.167 381.502 405.803 379.472 413.272C378.107 413.17 376.742 413.068 375.377 412.965C380.709 424.52 386.529 435.889 391.025 447.759C392.136 450.691 390.044 456.383 387.514 458.843C380.859 465.315 377.612 471.77 380.514 481.285C383.268 490.314 384.999 499.707 386.426 509.054C386.824 511.658 384.617 514.699 383.484 517.49C380.206 525.561 374.623 533.483 382.763 542.093C378.374 545.348 374.405 548.291 369.367 552.027C368.491 543.214 367.661 534.852 366.717 525.349C355.207 531.704 356.739 548.984 342.579 546.992C338.81 537.602 335.459 529.252 332.594 522.115C327.741 527.074 322.725 529.888 321.49 533.872C316.74 549.196 311.136 544.131 300.515 538.45C289.466 532.541 284.154 538.613 285.006 552.414C285.71 563.82 274.773 560.328 269.705 564.273C268.296 565.37 261.599 563.125 261.374 561.752C259.661 551.299 253.036 545.095 244.971 539.446C242.983 538.054 242.472 534.557 241.649 532.809C230.022 530.556 218.928 528.405 206.021 525.904C206.021 531.155 206.327 535.479 205.948 539.741C205.414 545.741 202.881 547.17 196.195 546.072C187.433 544.634 178.14 545.531 169.182 546.452C161.087 547.285 152.658 555.08 146.501 543.364C149.919 540.847 152.54 539.249 155.912 537.276C160.236 536.234 163.905 535.877 167.359 534.818C171.311 533.605 176.351 532.805 178.642 529.98C183.072 524.519 186.544 518.021 189.18 511.458C191.017 506.885 190.798 501.487 191.626 495.538C199.616 491.983 207.307 488.422 215.38 486.948C225.441 485.111 228.469 481.36 225.357 471.739C224.295 468.458 224.033 464.918 223.405 461.496C224.343 461.184 225.281 460.872 226.219 460.561C228.466 463.391 230.714 466.222 233.427 469.637C238.592 466.907 243.587 464.267 247.996 461.937C256.618 476.263 242.218 484.064 235.938 497.314C248.459 492.568 254.168 495.669 255.936 505.556C256.144 506.722 258.279 507.543 259.485 509.43C256.78 513.199 254.111 516.063 251.44 518.929C254.04 524.331 256.1 530.47 259.693 535.52C262.835 539.934 267.671 546.168 271.814 546.212C280.179 546.299 281.895 539.057 281.249 531.219C280.647 523.909 301.138 505.583 305.51 509.501C314.113 517.211 321.654 512.563 329.912 511.19C332.488 510.762 337.583 511.615 337.718 512.477C339.364 522.987 348.393 515.756 353.868 518.968C351.648 508.549 349.429 498.129 347.181 487.578C352.567 485.512 356.526 483.994 360.536 482.457C358.934 474.832 356.034 467.458 366.186 463.819C367.679 463.284 368.391 459 368.48 456.417C368.774 447.947 368.615 439.461 369.289 430.384C369.869 427.105 370.563 424.09 369.574 421.802C365.67 412.777 361.501 404.255 373.289 397.376C375.116 396.31 376.084 391.209 375.199 388.799C374.357 386.506 370.49 383.846 368.098 383.978C365.202 384.138 360.271 386.793 360.02 388.835C358.815 398.636 350.853 398.95 344.95 398.631C338.282 398.272 334.225 392.933 334.142 385.196C333.95 367.4 333.236 349.61 332.829 331.816C332.818 331.334 333.901 330.828 335.061 329.827C336.756 331.168 338.718 332.394 340.257 334.021C342.163 336.036 343.475 338.637 345.469 340.54C352.99 347.714 356.213 346.556 359.038 336.909C360.563 331.697 363.65 326.942 366.816 322.307C371.831 327.191 376.063 331.748 380.296 336.305C381.336 335.981 382.377 335.658 383.418 335.334C384.149 327.644 384.879 319.954 386.425 312.118C388.2 307.972 391.304 302.194 389.728 300.294C384.372 293.838 377.364 288.75 370.604 282.281C370.292 276.166 368.658 270.049 370.788 265.831C375.353 256.789 371.942 254.447 363.72 254.019C375.34 233.877 388.757 216.107 415.961 215.203Z" fill="#E6C47F"/>
<path d="M419.819 287.237C414.734 286.782 409.941 285.615 403.355 284.011C403.254 284.219 402.018 286.78 400.45 290.025C391.896 285.918 390.59 280.994 394.096 274.969C391.015 260.445 387.934 245.922 384.507 229.768C396.253 231.703 402.567 234.602 405.408 244.749C407.344 251.664 413.409 257.424 418.52 263.703C418.225 267.793 417.038 271.882 416.084 275.165C417.524 279.225 418.818 282.875 419.819 287.237Z" fill="#E1BA71"/>
<path d="M419.421 342.872C404.458 337.226 401.603 333.131 407.979 323.44C410.765 319.204 417.646 317.659 422.924 314.751C421.503 309.107 419.888 302.694 418.891 295.767C422.796 294.255 426.082 293.257 430.304 291.974C431.807 302.899 445.049 313.012 431.39 325.876C429.412 324.967 426.653 323.699 420.462 320.854C420.064 328.988 419.747 335.474 419.421 342.872Z" fill="#E1BA71"/>
<path d="M434.018 258.906C434.781 261.965 436.099 265.026 436.084 268.081C436.076 269.74 433.8 271.388 432.547 273.04C430.874 271.647 428.257 270.549 427.707 268.802C426.137 263.819 425.407 258.571 425.027 252.859C428.478 254.497 431.248 256.702 434.018 258.906Z" fill="#E1B96F"/>
<path d="M415.541 244.334C415.756 237.578 416.797 230.723 417.838 223.869C418.635 223.829 419.431 223.789 420.227 223.75C421.516 229.184 422.805 234.618 424.2 241.008C421.66 242.721 419.013 243.479 415.541 244.334Z" fill="#E1BA71"/>
<path d="M434.613 258.509C431.248 256.702 428.478 254.497 425.017 251.966C424.33 251.229 424.333 250.819 424.354 249.792C427.945 250.481 431.519 251.787 435.785 253.603C436.055 255.446 435.631 256.778 434.613 258.509Z" fill="#E1BA71"/>
<path d="M419.446 258.035C417.837 256.296 416.244 253.645 414.678 250.078C416.29 251.816 417.876 254.469 419.446 258.035Z" fill="#E1BA71"/>
<path d="M367.64 101.26C371.187 105.21 373.829 109.045 377.206 113.947C377.029 114.285 376.558 116.4 375.24 117.509C367.1 124.358 366.87 130.45 374.647 138.396C378.377 142.207 387.604 148.902 373.813 153.983C366.644 151.829 360.836 148.928 355.193 149.219C349.063 149.535 343.085 152.819 337.041 154.809C339.346 151.928 341.651 149.047 344.424 145.581C336.246 130.1 325.936 144.527 315.347 142.737C325.394 163.295 318.343 181.86 314.275 200.749C313.217 205.662 315.446 211.281 316.86 217.134C317.702 226.751 317.628 235.824 318.176 244.859C318.291 246.759 320.941 248.389 321.986 250.373C323.949 254.097 325.594 257.989 327.24 263.553C318.355 265.453 309.592 265.865 300.856 265.542C299.239 265.482 296.563 262.515 296.47 260.779C296.355 258.615 298.227 256.217 299.576 254.136C301.661 250.917 304.029 247.882 305.493 245.855C291.784 242.559 280.44 239.831 269.101 236.136C269.145 232.594 269.184 230.018 270.101 227.324C273.608 220.841 276.237 214.477 279.728 208.181C284.779 210.694 288.969 213.138 293.355 215.697C299.133 199.753 294.55 192.3 275.528 186.034C267.614 175.212 273.553 166.705 278.552 157.563C281.721 151.767 285.724 144.407 284.556 138.734C282.802 130.21 279.016 124.33 292.527 127.411C294.429 127.845 297.911 124.303 299.528 121.854C300.405 120.527 299.35 116.021 298.363 115.737C295.735 114.981 292.663 115.64 289.785 115.913C284.955 116.371 280.139 116.967 273.944 117.658C279.931 126.829 274.128 129.915 268.082 130.863C244.78 123.504 235.67 103.535 225.098 85.4713C218.98 86.7575 213.491 87.9115 207.198 89.2345C210.343 99.7206 202.816 97.2603 197.008 95.3916C188.98 92.8086 181.271 89.2378 172.884 85.8732C172.131 83.6851 170.997 80.3882 168.788 73.9694C164.839 83.0045 162.406 88.5719 159.143 94.0517C155.663 93.1938 153.012 92.4233 150.362 91.6529C149.736 83.2664 152.586 74.3941 144.362 67.157C143.015 65.9713 148.786 56.7064 152.032 50.7757C152.797 50.3757 153.933 50.4872 154.536 51.425C157.697 55.5396 159.62 59.9724 162.938 61.6462C171.315 65.8729 180.319 68.8582 189.072 72.3408C191.38 73.8376 193.539 76.252 196.024 76.6523C202.478 77.6921 209.076 77.8466 217.258 78.4818C217.289 78.2992 216.865 74.6607 218.482 72.7301C221.457 69.1776 225.226 65.5168 229.425 63.9823C233.465 62.5062 238.468 63.6632 243.931 63.6632C243.702 66.4088 243.312 71.1008 242.922 75.7929C243.664 76.0847 244.406 76.3766 245.148 76.6684C249.627 71.1709 254.106 65.6734 258.584 60.1759C259.722 60.4411 260.861 60.7062 261.999 60.9714C261.999 71.6004 261.999 82.2295 261.999 92.8586C262.765 93.0194 263.531 93.1803 264.297 93.341C267.333 88.9009 270.355 84.4507 273.41 80.0238C275.737 76.6515 278.106 73.3088 280.457 69.953C284.011 72.8451 287.566 75.7372 291.12 78.6292C290.672 79.2727 290.224 79.9161 289.777 80.5596C297.25 81.0687 304.771 81.2455 312.165 82.3042C314.193 82.5945 316.327 85.2317 317.583 87.2956C324.684 98.962 331.057 98.9403 338.28 87.8495C340.441 84.5301 346.243 80.1394 348.495 81.0242C353.377 82.9427 357.339 87.6801 361.102 91.7908C363.511 94.4227 364.893 97.9942 367.64 101.26Z" fill="#E6C480"/>
<path d="M189.983 72.3101C180.319 68.8583 171.315 65.873 162.938 61.6463C159.62 59.9725 157.697 55.5397 155.106 51.4578C166.01 55.2447 176.946 59.9368 187.91 64.6414C186.879 59.7564 184.816 53.558 184.534 47.2795C184.371 43.645 187.074 39.8816 188.487 36.1763C192.772 38.7588 197.117 41.2524 201.294 43.9985C202.138 44.5527 202.352 46.0626 202.573 46.5299C211.771 50.4531 223.895 39.8721 230.272 54.4327C227.73 56.0916 224.925 56.5892 222.471 57.7998C218.554 59.7327 214.871 62.1394 211.089 64.3458C211.513 65.619 211.937 66.8921 212.361 68.1652C208.936 66.5282 205.51 64.8912 202.692 63.5445C198.488 66.6574 194.691 69.4683 189.983 72.3101Z" fill="#DCB05E"/>
<path d="M213.685 16.4041C225.02 12.8419 235.782 10.097 246.547 7.36976C253.106 5.70831 257.665 7.61708 259.163 14.6523C259.495 16.212 259.511 17.8547 259.534 19.4612C259.596 23.9374 259.585 28.4147 259.603 32.8915C253.64 31.7136 246.582 32.1288 241.979 28.9708C235.65 24.6285 230.91 22.041 223.579 26.5121C220.751 28.2365 216.189 27.119 212.416 27.2964C212.648 23.9406 212.88 20.5848 213.685 16.4041Z" fill="#9E5112"/>
<path d="M295.781 40.7651C296.13 40.4458 296.5 40.1524 296.87 39.8589C296.76 40.0889 296.65 40.3189 296.197 40.6908C295.854 40.8327 295.802 40.791 295.781 40.7651Z" fill="#E1BA70"/>
<path d="M102.209 18.7744C101.811 18.9819 101.817 17.7939 101.851 17.2014C102.126 17.2616 102.366 17.9143 102.209 18.7744Z" fill="#B07634"/>
<path d="M269.097 237.103C280.441 239.831 291.784 242.559 305.493 245.856C304.029 247.882 301.661 250.917 299.576 254.136C298.228 256.217 296.355 258.616 296.471 260.779C296.563 262.515 299.239 265.482 300.856 265.542C309.592 265.865 318.355 265.453 327.256 264.488C330.927 263.937 334.451 264.194 338.162 264.464C338.818 274.425 339.432 283.732 340.107 293.978C337.645 293.978 334.403 293.978 331.68 293.978C330.857 302.8 330.069 311.257 328.982 322.91C333.448 321.731 337.819 320.515 342.226 319.446C343.986 319.02 345.834 318.655 347.627 318.714C360.751 319.14 361.868 317.761 359.761 303.632C362.425 309.228 364.229 315.604 366.033 321.98C363.65 326.942 360.563 331.697 359.038 336.909C356.213 346.556 352.99 347.714 345.469 340.54C343.475 338.638 342.163 336.036 340.257 334.021C338.718 332.395 336.756 331.168 335.061 329.827C333.901 330.828 332.818 331.334 332.83 331.816C333.236 349.61 333.951 367.4 334.142 385.196C334.225 392.933 338.282 398.272 344.95 398.631C350.853 398.95 358.815 398.636 360.021 388.835C360.272 386.793 365.202 384.138 368.098 383.978C370.49 383.846 374.357 386.507 375.199 388.799C376.084 391.209 375.117 396.31 373.289 397.376C361.501 404.255 365.67 412.777 369.574 421.802C370.563 424.09 369.869 427.105 368.376 430.279C364.983 428.438 362.232 426.362 361.501 423.727C358.163 411.694 352.661 407.427 344.44 414.723C336.79 421.513 332.148 432.9 328.981 443.129C326.558 450.958 328.499 460.137 328.499 470.389C305.519 466.237 298.184 479.52 294.098 496.659C288.851 487.348 284.814 480.184 282.065 475.305C275.226 474.087 270.557 473.255 264.683 472.209C263.961 475.009 262.459 479.095 261.917 483.304C260.839 491.675 260.289 500.114 259.521 508.525C258.279 507.544 256.144 506.722 255.936 505.556C254.168 495.669 248.459 492.569 235.938 497.314C242.218 484.064 256.618 476.263 247.997 461.937C243.587 464.267 238.592 466.907 233.427 469.637C230.714 466.222 228.467 463.391 226.219 460.561C225.281 460.872 224.343 461.184 223.405 461.496C224.033 464.918 224.295 468.458 225.357 471.74C228.47 481.36 225.441 485.111 215.38 486.948C207.308 488.422 199.616 491.983 190.803 495.649C187.234 499.528 184.616 502.375 181.617 505.638C174.534 501.699 167.412 497.738 159.605 493.396C157.009 499.969 154.829 505.491 151.799 511.012C149.118 512.611 147.285 514.211 145.455 515.808C145.458 515.805 145.463 515.799 144.554 515.798C141.825 515.799 140.005 515.802 138.186 515.805C138.183 513.987 138.181 512.17 138.52 509.313C138.978 508.062 139.096 507.85 139.213 507.638C138.869 507.937 138.526 508.236 138.183 508.534C135.481 508.293 132.779 508.051 129.823 507.787C132.16 501.775 134.244 496.413 136.488 490.638C126.951 486.112 120.149 480.311 121.235 468.298C129.14 455.803 113.226 453.673 112.615 445.505C122.161 441.019 127.703 427.187 125.844 412.487C124.193 399.424 126.301 397.13 139.806 397.954C141.533 391.465 132.501 381.896 142.95 378.275C149.207 383.054 155.323 386.25 159.266 391.183C162.705 395.486 163.694 401.745 166.55 409.184C169.66 407.501 176.173 406.035 178.106 402.24C179.496 399.509 174.822 393.65 172.77 389.224C169.451 382.068 166.181 374.886 162.669 367.824C159.887 362.229 156.772 356.798 152.337 348.572C148.496 356.3 145.976 361.37 142.525 368.311C138.026 360.729 131.819 356.501 134.852 345.126C138.909 329.91 139.018 313.619 140.531 297.762C141.053 292.293 141.355 288.393 146.6 283.731C151.904 279.017 152.785 269.047 154.81 261.175C155.216 259.596 152.057 257.1 150.542 255.026C148.878 256.938 146.565 258.593 145.685 260.815C143.863 265.423 142.801 270.331 141.32 275.488C126.144 267.325 125.177 262.307 133.112 249.784C135.471 246.061 135.087 240.603 135.959 235.94C134.735 235.392 133.512 234.844 132.288 234.296C130.069 236.618 128.206 239.552 125.539 241.104C122.392 242.935 118.549 243.569 115.008 244.722C114.003 240.751 111.712 236.56 112.346 232.87C113.01 229 117.578 225.845 118.413 221.945C119.238 218.085 117.534 213.684 116.621 207.298C120.856 210.372 123.257 212.115 126.744 214.646C127.118 213.912 127.971 212.93 128.105 211.859C129.294 202.314 135.686 206.446 139.682 208.231C142.517 209.498 144.777 213.316 146.007 216.494C146.916 218.843 145.029 222.181 145.693 224.741C146.539 228.005 148.701 230.928 150.295 233.998C152.994 232.135 156.483 230.82 158.235 228.3C162.468 222.207 165.891 215.551 169.646 209.113C185.074 217.006 195.06 213.358 195.582 197.081C199.93 199.074 203.313 201.105 206.979 202.128C209.244 202.759 211.938 201.856 215.768 201.806C218.425 207.748 219.752 213.526 221.742 222.189C224.997 216.397 226.377 213.941 228.064 210.94C230.226 215.015 231.822 218.025 233.863 221.873C237.466 219.342 240.163 217.447 244.417 214.459C247.185 222.182 249.519 228.696 252.177 236.113C243.555 237.188 236.208 238.104 227.68 239.168C227.447 244.37 226.996 249.75 227.369 255.073C227.399 255.497 234.423 256.871 235.928 255.433C238.523 252.952 239.333 248.607 241.85 242.86C247.776 249.251 253.355 255.267 259.355 261.738C249.914 264.61 252.541 282.377 236.766 275.636C240.912 282.825 246.817 287.595 248.985 293.692C251.143 299.762 256.605 307.903 247.829 314.104C236.18 305.745 225.695 308.895 224.397 321.488C228.35 321.241 232.158 321.003 235.965 320.764C234.62 322.119 233.276 323.473 231.931 324.828C238.635 330.684 245.339 336.54 252.052 342.403C251.341 342.802 248.177 344.581 244.873 346.438C245.653 348.149 245.856 349.798 246.657 350.174C261.312 357.059 272.488 366.715 275.071 383.848C275.321 385.505 277.311 387.427 278.977 388.26C291.493 394.521 291.672 404.091 286.689 415.763C277.852 413.278 269.237 410.855 258.823 407.926C258.527 412.841 256.147 419.126 258.316 422.406C265.545 433.339 275.721 442.48 276.529 456.801C276.535 456.911 277.246 456.981 279.142 457.422C288.264 437.865 297.544 417.97 308.351 394.8C300.723 386.457 291.044 374.337 279.749 363.976C269.721 354.778 265.964 336.869 275.499 326.953C281.347 320.872 279.55 316.232 277.579 309.795C274.612 300.106 262.372 292.38 270.667 280.009C271.085 279.386 269.747 277.791 269.724 276.638C269.459 263.461 269.291 250.282 269.097 237.103ZM223.734 378.816C224.13 381.533 225.87 385.259 224.707 386.804C216.465 397.761 221.933 406.995 226.956 416.888C228.489 419.906 228.583 425.757 226.65 428.022C221.491 434.07 222.975 438.752 228.408 442.127C237.099 447.525 246.439 451.881 255.504 456.677C255.704 453.308 254.025 451.511 253.053 449.39C250.952 444.809 246.776 439.428 247.798 435.507C250.542 424.983 248.179 416.1 243.958 406.796C242.649 403.913 243.795 399.89 243.922 396.392C244.076 392.16 244.342 387.932 244.596 382.979C239.387 383.525 235.626 383.919 232.05 384.294C228.539 374.232 228.539 374.232 223.734 378.816Z" fill="#E9CC90"/>
<path d="M159.974 94.1392C162.407 88.5719 164.84 83.0046 168.788 73.9695C170.997 80.3883 172.132 83.6851 172.885 85.8733C181.271 89.2379 188.981 92.8087 197.008 95.3916C202.817 97.2604 210.343 99.7206 207.198 89.2346C213.491 87.9115 218.98 86.7576 225.098 85.4714C235.671 103.535 244.78 123.504 268.083 130.863C274.128 129.916 279.932 126.829 273.944 117.658C280.139 116.967 284.956 116.371 289.785 115.913C292.663 115.64 295.735 114.981 298.363 115.737C299.35 116.021 300.405 120.527 299.529 121.854C297.911 124.303 294.429 127.845 292.527 127.411C279.016 124.33 282.802 130.211 284.557 138.734C285.724 144.407 281.722 151.767 278.552 157.563C273.553 166.705 267.614 175.212 275.499 186.962C277.217 194.768 278.041 201.441 278.866 208.114C276.237 214.477 273.608 220.841 269.656 226.693C267.436 224.606 265.652 221.718 265.766 221.64C275.658 214.968 269.404 208.98 265.446 202.464C262.358 197.38 257.214 190.958 258.303 186.402C261.829 171.667 255.311 170.448 244.448 173.679C241.108 168.895 238.238 164.782 235.367 160.669C234.384 160.952 233.4 161.235 232.417 161.518C232.778 167.566 233.139 173.613 233.531 180.164C228.488 182.496 222.78 186.648 219.76 176.039C219.163 173.942 214.033 173.134 210.993 171.732C208.577 166.288 206.467 160.679 203.653 155.45C201.271 151.022 198.075 147.031 195.239 142.847C192.189 146.077 189.138 149.306 184.542 154.172C178.389 154.72 176.432 149.537 176.972 140.141C174.662 130.574 169.216 122.269 170.75 115.558C173.424 103.86 166.68 99.641 159.974 94.1392Z" fill="#E9CB8D"/>
<path d="M210.989 172.622C214.032 173.134 219.163 173.942 219.76 176.039C222.779 186.648 228.488 182.496 233.53 180.164C233.139 173.613 232.778 167.566 232.417 161.518C233.4 161.235 234.383 160.952 235.367 160.669C238.237 164.782 241.108 168.895 244.448 173.679C255.31 170.448 261.828 171.667 258.303 186.402C257.213 190.958 262.358 197.38 265.445 202.464C269.403 208.98 275.658 214.968 265.766 221.64C265.651 221.718 267.435 224.606 268.778 226.812C269.184 230.018 269.145 232.594 269.101 236.136C269.291 250.281 269.459 263.461 269.724 276.638C269.747 277.791 271.084 279.386 270.667 280.009C262.371 292.379 274.611 300.106 277.578 309.795C279.549 316.232 281.347 320.872 275.499 326.953C265.963 336.869 269.72 354.778 279.748 363.976C291.043 374.337 300.723 386.457 308.351 394.8C297.543 417.97 288.263 437.865 279.141 457.422C277.246 456.981 276.534 456.911 276.528 456.801C275.721 442.479 265.545 433.339 258.316 422.406C256.147 419.126 258.526 412.841 258.823 407.926C269.237 410.855 277.852 413.278 286.688 415.763C291.672 404.091 291.493 394.521 278.976 388.26C277.311 387.427 275.321 385.505 275.071 383.847C272.488 366.715 261.312 357.059 246.657 350.174C245.855 349.798 245.652 348.149 244.872 346.437C248.177 344.58 251.341 342.802 252.051 342.403C245.339 336.539 238.635 330.684 231.93 324.828C233.275 323.473 234.62 322.119 235.965 320.764C232.157 321.003 228.35 321.241 224.397 321.488C225.695 308.895 236.18 305.745 247.829 314.104C256.605 307.903 251.143 299.762 248.984 293.692C246.816 287.595 240.912 282.825 236.766 275.636C252.541 282.377 249.914 264.61 259.355 261.738C253.355 255.267 247.776 249.251 241.849 242.86C239.333 248.607 238.522 252.952 235.927 255.433C234.422 256.871 227.398 255.497 227.369 255.073C226.995 249.75 227.447 244.37 227.68 239.168C236.208 238.104 243.554 237.188 252.177 236.113C249.519 228.696 247.185 222.182 244.417 214.458C240.163 217.447 237.465 219.342 233.863 221.873C231.822 218.025 230.225 215.015 228.063 210.94C226.377 213.941 224.997 216.397 221.742 222.189C219.752 213.526 218.425 207.748 216.413 201.352C215.747 197.374 215.767 194.012 215.788 188.732C214.193 184.163 212.596 181.513 210.999 178.862C210.995 177.079 210.99 175.296 210.989 172.622ZM271.465 320.836C275.87 307.245 266.344 313.799 261.073 312.829C262.94 320.232 264.537 326.565 266.134 332.899C266.768 332.785 267.403 332.671 268.037 332.557C268.816 329.162 269.595 325.767 271.465 320.836ZM246.775 203.809C246.377 202.302 245.978 200.796 245.579 199.288C244.893 199.314 244.206 199.34 243.52 199.365C242.63 202.524 241.741 205.683 240.851 208.841C241.614 209.139 242.376 209.437 243.139 209.734C244.145 208.26 245.151 206.785 246.775 203.809ZM263.153 345.467C261.758 345.198 260.363 344.929 258.968 344.66C258.956 345.648 258.943 346.636 258.931 347.624C260.332 347.389 261.733 347.153 263.153 345.467ZM223.14 202.589C223.436 203.634 223.733 204.68 224.03 205.725C224.584 205.512 225.138 205.299 225.692 205.086C224.907 203.835 224.122 202.583 223.14 202.589Z" fill="#F0D8A6"/>
<path d="M159.143 94.0518C166.68 99.641 173.424 103.86 170.75 115.558C169.216 122.269 174.661 130.574 176.96 139.15C163.69 142.975 158.529 137.277 159.3 121.117C153.583 119.371 148.002 117.666 140.607 115.933C136.973 115.918 135.15 115.931 133.328 115.943C132.269 108.182 129.723 102.442 119.961 103.414C118.285 103.581 115.224 99.5174 114.429 96.912C112.564 90.8071 111.684 84.4017 109.719 77.5966C109.03 75.9786 109.027 74.882 108.968 72.9612C109.218 71.3869 109.697 70.7686 110.863 69.9954C112.579 72.1148 113.776 74.5206 115.1 77.1832C118.545 76.3791 122.48 75.4604 128.861 73.971C127.109 79.1697 126.11 82.1376 125.806 83.037C133.782 89.164 141.236 94.8905 149.369 101.138C149.547 99.7119 149.933 96.6302 150.34 92.6007C153.012 92.4235 155.663 93.1939 159.143 94.0518Z" fill="#E1BB73"/>
<path d="M132.7 116.616C135.15 115.931 136.972 115.918 139.706 115.909C143.134 124.537 145.416 133.239 148.278 141.746C149.518 145.43 151.952 148.713 153.843 152.178C155.722 151.767 157.601 151.356 159.479 150.945C150.414 166.651 141.35 182.358 132.285 198.064C131.237 198.039 130.188 198.014 129.14 197.99C128.156 194.64 125.457 190.621 126.462 188.048C134.015 168.715 126.612 150.379 122.612 132.162C120.405 122.107 121.926 117.859 132.7 116.616Z" fill="#E9CB8D"/>
<path d="M112.048 317.3C114.983 314.59 118.708 310.403 119.41 310.86C122.849 313.097 126.91 316.119 128.046 319.717C129.509 324.354 128.402 329.801 128.402 336.336C118.336 336.336 109.644 336.336 100.065 336.336C96.5357 326.793 104.494 322.651 112.048 317.3Z" fill="#E1BA70"/>
<path d="M192.848 194.265C191.62 190.752 191.082 186.725 190.544 182.697C192.358 182.744 194.173 182.792 195.987 182.839C195.171 186.476 194.355 190.113 192.848 194.265Z" fill="#E9CC90"/>
<path d="M61.4844 334.05C61.6705 331.724 62.7095 329.375 64.5837 326.895C64.3918 329.186 63.3646 331.607 61.4844 334.05Z" fill="#E1BA70"/>
<path d="M210.973 179.78C212.596 181.513 214.193 184.163 215.781 187.724C214.163 185.989 212.555 183.343 210.973 179.78Z" fill="#E9CB8D"/>
<path d="M66.3052 321.809C66.526 319.606 67.5749 317.261 69.4631 314.796C69.2461 317.006 68.1898 319.338 66.3052 321.809Z" fill="#E1BA70"/>
<path d="M138.069 516.564C140.005 515.802 141.824 515.799 144.462 516.667C144.542 524.218 143.804 530.898 143.067 537.579C131.011 533.245 126.643 524.383 127.657 512.086C131.302 513.94 134.627 515.631 138.069 516.564Z" fill="#E6C47F"/>
<path d="M143.649 537.998C143.804 530.898 144.542 524.218 145.371 516.668C145.463 515.799 145.458 515.805 146.352 515.804C149.039 515.801 150.83 515.8 153.255 516.272C151.748 521.112 149.607 525.479 147.144 530.503C149.429 532.54 152.295 535.096 155.162 537.652C152.54 539.249 149.919 540.847 146.391 542.442C145.066 541.099 144.648 539.758 143.649 537.998Z" fill="#E9CC90"/>
<path d="M136.044 551.437C132.132 552.401 128.586 552.571 124.311 552.394C124.342 549.835 124.501 546.999 126.001 545.556C128.214 543.427 131.381 542.29 134.142 540.73C134.897 544.034 135.653 547.338 136.044 551.437Z" fill="#DCB05E"/>
<path d="M183.961 558.445C181.26 556.316 178.722 553.373 176.183 550.429C177.586 549.587 178.988 548.744 180.39 547.902C181.635 551.145 182.879 554.388 183.961 558.445Z" fill="#DCB05D"/>
<path d="M366.816 322.307C364.229 315.604 362.425 309.228 359.741 302.696C358.279 301.556 356.979 299.959 357.222 299.675C368.494 286.437 359.99 270.309 363.71 255.016C371.942 254.447 375.353 256.789 370.788 265.831C368.658 270.049 370.292 276.166 370.594 283.288C368.373 298.224 380.463 303.371 385.61 312.264C384.879 319.954 384.149 327.644 383.418 335.334C382.377 335.657 381.337 335.981 380.296 336.305C376.063 331.748 371.831 327.191 366.816 322.307Z" fill="#F0D8A6"/>
<path d="M384.187 199.611C384.267 199.745 384.108 199.478 384.187 199.611Z" fill="#E9CC90"/>
<path d="M337.046 155.742C343.086 152.819 349.063 149.535 355.193 149.219C360.837 148.928 366.645 151.829 372.894 154.008C373.341 155.09 373.404 155.728 373.185 155.847C368.49 158.393 362.09 159.763 359.477 163.67C356.427 168.231 356.785 175.023 355.419 180.789C355.072 182.254 353.799 183.5 351.148 187.712C345.913 176.186 341.482 166.431 337.046 155.742Z" fill="#F0D8A6"/>
<path d="M395.221 130.466C395.136 130.237 395.056 130.005 395.104 130.113C395.232 130.454 395.225 130.463 395.221 130.466Z" fill="#E0BA72"/>
<path d="M259.485 509.43C260.289 500.114 260.839 491.676 261.917 483.305C262.459 479.095 263.96 475.01 264.682 472.209C270.557 473.256 275.226 474.087 282.065 475.306C284.814 480.184 288.851 487.348 294.098 496.659C298.184 479.52 305.519 466.237 328.499 470.39C328.499 460.138 326.558 450.959 328.981 443.129C332.148 432.9 336.79 421.513 344.44 414.723C352.661 407.427 358.163 411.695 361.501 423.727C362.232 426.363 364.983 428.439 367.717 430.877C368.615 439.462 368.775 447.947 368.481 456.417C368.391 459.001 367.679 463.285 366.186 463.82C356.034 467.458 358.934 474.833 360.536 482.457C356.526 483.995 352.567 485.513 347.181 487.578C349.429 498.13 351.648 508.549 353.868 518.968C348.393 515.757 339.364 522.987 337.718 512.477C337.583 511.615 332.488 510.762 329.912 511.191C321.654 512.564 314.113 517.211 305.51 509.502C301.138 505.584 280.647 523.909 281.249 531.22C281.895 539.058 280.179 546.3 271.814 546.212C267.671 546.169 262.835 539.935 259.693 535.52C256.1 530.471 254.04 524.331 251.441 518.929C254.111 516.063 256.78 513.199 259.485 509.43Z" fill="#EFD8A7"/>
<path d="M155.912 537.276C152.295 535.096 149.429 532.54 147.144 530.503C149.607 525.479 151.748 521.112 153.281 515.475C152.665 513.14 152.657 512.077 152.648 511.013C154.829 505.491 157.009 499.968 159.604 493.396C167.412 497.738 174.534 501.699 181.616 505.638C184.616 502.375 187.234 499.528 190.674 496.569C190.798 501.487 191.017 506.885 189.18 511.458C186.545 518.021 183.072 524.519 178.642 529.98C176.351 532.805 171.311 533.605 167.359 534.818C163.905 535.878 160.236 536.234 155.912 537.276Z" fill="#F0D8A6"/>
<path d="M386.425 312.118C380.463 303.371 368.372 298.224 370.978 284.147C377.364 288.75 384.372 293.838 389.728 300.294C391.304 302.194 388.2 307.972 386.425 312.118Z" fill="#E9CC90"/>
<path d="M279.728 208.181C278.042 201.44 277.217 194.768 276.421 187.168C294.551 192.3 299.134 199.752 293.356 215.696C288.97 213.137 284.78 210.693 279.728 208.181Z" fill="#F0D8A6"/>
<path d="M223.565 377.951C228.538 374.232 228.538 374.232 232.05 384.294C235.625 383.919 239.386 383.525 244.596 382.979C244.341 387.932 244.076 392.16 243.922 396.392C243.795 399.89 242.649 403.913 243.957 406.796C248.179 416.1 250.542 424.983 247.798 435.507C246.776 439.428 250.952 444.809 253.052 449.39C254.025 451.511 255.703 453.308 255.503 456.677C246.438 451.881 237.099 447.525 228.408 442.127C222.975 438.752 221.491 434.07 226.65 428.022C228.582 425.757 228.488 419.906 226.956 416.888C221.933 406.995 216.464 397.761 224.707 386.804C225.869 385.258 224.13 381.533 223.565 377.951Z" fill="#E6C480"/>
<path d="M151.799 511.012C152.656 512.077 152.665 513.14 152.647 515.001C150.83 515.8 149.038 515.801 146.349 515.807C147.284 514.211 149.117 512.611 151.799 511.012Z" fill="#E6C47F"/>
<path d="M260.761 400.61C260.842 400.747 260.679 400.473 260.761 400.61Z" fill="#F0D8A6"/>
<path d="M138.183 508.534C138.526 508.236 138.869 507.937 139.213 507.638C139.095 507.85 138.978 508.062 138.523 508.404C138.184 508.534 138.183 508.534 138.183 508.534Z" fill="#E1BA70"/>
<path d="M270.919 321.604C269.595 325.767 268.816 329.162 268.038 332.557C267.403 332.671 266.768 332.785 266.134 332.899C264.537 326.565 262.94 320.232 261.073 312.829C266.344 313.799 275.87 307.245 270.919 321.604Z" fill="#E9CC90"/>
<path d="M246.466 204.559C245.151 206.785 244.145 208.259 243.139 209.734C242.377 209.437 241.614 209.139 240.851 208.841C241.741 205.683 242.63 202.524 243.52 199.365C244.206 199.34 244.893 199.314 245.579 199.288C245.978 200.795 246.377 202.302 246.466 204.559Z" fill="#E9CC90"/>
<path d="M263.144 346.193C261.733 347.153 260.332 347.389 258.931 347.624C258.944 346.636 258.956 345.648 258.968 344.66C260.363 344.929 261.758 345.198 263.144 346.193Z" fill="#E9CC90"/>
<path d="M223.239 201.96C224.123 202.583 224.907 203.835 225.692 205.086C225.138 205.299 224.584 205.512 224.03 205.725C223.734 204.68 223.437 203.634 223.239 201.96Z" fill="#E9CC90"/>
<path d="M2.1327 66.0718C2.68727 65.082 3.11383 65.0899 4.18021 65.0842C10.2798 64.2871 17.9622 59.2826 19.4139 68.6263C20.4811 75.4976 17.6197 82.9786 16.509 90.1878C11.6706 88.6339 6.83233 87.0799 1.31615 85.0912C1.0937 78.7942 1.54896 72.9318 2.1327 66.0718Z" fill="#CFA04E"/>
<path d="M448.312 541.427C438.484 540.015 439.783 531.31 439.835 525.054C439.906 516.413 445.924 507.843 439.836 499.097C441.345 498.183 442.855 497.27 445.224 496.369C454.964 510.582 446.531 525.749 448.312 541.427Z" fill="#CFA350"/>
<path d="M182.172 3.52887C180.149 4.26211 177.874 4.2397 174.451 4.24569C176.175 3.77368 179.047 3.27348 182.172 3.52887Z" fill="#B47C3B"/>
<path d="M444.46 355.668C445.418 354.803 447.166 354.08 449.657 353.359C448.683 354.177 446.967 354.994 444.46 355.668Z" fill="#DAB165"/>
<path d="M442.94 357.564C442.696 358.145 442.128 357.139 442.128 357.139C442.128 357.139 442.579 356.107 442.938 355.918C443.259 356.147 443.222 356.565 442.94 357.564Z" fill="#DAB165"/>
<path d="M89.9905 5.96882C89.7285 6.56087 89.2632 6.60103 88.1091 6.76981C88.2094 6.40451 88.9982 5.91076 89.9905 5.96882Z" fill="#9B571D"/>
<path d="M449.152 103.255C448.821 102.58 449.217 102.101 450.218 101.579C450.785 102.255 450.472 102.893 449.152 103.255Z" fill="#DAB165"/>
</svg>
