<svg width="587" height="523" viewBox="0 0 587 523" fill="none" xmlns="http://www.w3.org/2000/svg">
<path d="M520.221 450.173C512.937 449.452 505.644 448.113 498.371 448.209C492.804 448.284 487.278 451 481.707 451.105C462.792 451.46 443.866 451.168 424.944 451.143C396.961 451.107 368.971 451.371 340.998 450.8C335.978 450.698 331.027 447.178 324.215 444.579C296.037 443.971 269.688 444.019 243.339 444.068C242.437 444.847 241.536 445.626 239.403 445.822C236.269 444.765 234.366 443.881 232.46 443.876C200.001 443.785 167.542 443.746 135.084 443.908C132.557 443.921 130.038 445.513 127.515 446.372C127.515 446.372 126.371 446.283 124.867 445.873C119.427 444.902 115.508 444.088 111.553 443.824C97.5432 442.892 83.4239 442.905 69.5295 441.128C54.3256 439.182 49.6805 433.131 50.0437 417.711C50.5546 396.027 52.1679 374.357 52.2719 352.677C52.5836 287.748 52.5647 222.816 52.2844 157.886C52.2046 139.433 50.4682 120.992 50.1196 102.534C49.937 92.8576 54.2635 84.7465 64.466 82.9895C75.0838 81.1609 86.001 80.4968 96.7991 80.3755C184.262 79.3924 271.728 78.6592 359.193 77.8338C361.606 77.811 364.332 78.2591 366.338 77.2947C368.157 76.4199 369.192 73.9148 370.573 72.1285C389.535 71.7239 408.498 71.3367 427.459 70.8946C430.097 70.8331 432.727 70.3396 435.363 70.3242C444.148 70.2726 452.939 70.5204 461.719 70.3027C466.239 70.1906 470.741 69.3359 475.903 69.8698C476.316 72.7949 475.191 75.664 475.988 76.3707C480.021 79.951 499.432 75.1777 503.315 70.0016C508.596 69.6972 513.876 69.3928 519.298 70.401C516.881 72.8575 514.324 74.0013 508.993 76.3854C514.091 77.1987 515.944 77.6372 517.818 77.7709C533.926 78.9191 539.431 85.061 538.983 100.642C537.565 149.93 535.867 199.218 535.178 248.518C534.835 273.033 536.749 297.571 537.113 322.107C537.523 349.761 537.337 377.423 537.413 405.082C537.421 407.908 537.259 410.75 537.493 413.558C539.609 439.026 539.63 439.024 513.103 446.777C516.628 448.459 518.425 449.316 520.221 450.173ZM140.429 101.345C127.58 99.1647 114.697 97.1626 101.89 94.7568C86.9895 91.9576 77.3187 101.73 68.335 110.29C64.9507 113.515 67.1629 122.673 66.9491 129.13C66.8156 133.164 67.7017 137.394 66.7846 141.214C60.2915 168.258 65.9974 195.581 64.9135 222.743C64.652 229.299 69.312 236.051 71.7378 244.507C71.7462 246.301 71.7547 248.096 69.7529 249.986C68.0082 253.787 64.7201 257.607 64.7679 261.386C65.0928 287.13 66.3544 312.86 66.8444 338.604C67.2248 358.58 66.8418 378.57 66.9566 398.554C67.0312 411.532 79.9896 424.237 93.3732 424.366C110.602 424.532 127.84 424.127 145.063 424.472C174.051 425.051 203.027 426.306 232.015 426.594C237.605 426.649 243.226 423.57 250.721 421.924C258.408 420.891 266.168 418.672 273.763 419.135C282.644 419.676 291.322 423.708 300.196 424.171C316.768 425.037 333.418 424.416 350.035 424.419C371.23 424.424 392.427 424.291 413.619 424.525C420.371 424.6 427.111 426.153 433.858 426.169C452.948 426.215 472.159 424.394 491.096 425.993C509.583 427.554 517.533 423.63 520.399 405.324C521.758 396.641 522.727 387.799 522.764 379.023C522.97 330.201 522.897 281.377 522.745 232.554C522.724 225.798 521.213 219.038 521.287 212.29C521.597 183.974 522.786 155.655 522.459 127.35C522.354 118.275 518.571 109.242 516.511 100.362C510.233 101.159 506.553 102.469 503.184 101.91C487.3 99.2719 471.552 95.8022 455.647 93.3269C450.07 92.4589 444.184 93.7059 438.437 93.7779C421.421 93.9911 404.096 96.2184 387.455 93.7949C355.841 89.1911 326.298 104.427 293.69 98.531C262.271 92.8501 228.919 97.3857 196.437 98.2244C178.315 98.6922 160.235 100.772 140.429 101.345Z" fill="#DCB05F"/>
<path d="M370.323 71.2486C369.192 73.9148 368.157 76.4199 366.337 77.2947C364.332 78.259 361.606 77.811 359.193 77.8338C271.728 78.6592 184.262 79.3923 96.7989 80.3755C86.0008 80.4968 75.0836 81.1609 64.4658 82.9894C54.2633 84.7464 49.9368 92.8576 50.1195 102.534C50.468 120.992 52.2044 139.433 52.2842 157.886C52.5645 222.816 52.5835 287.748 52.2718 352.677C52.1677 374.357 50.5544 396.027 50.0435 417.711C49.6803 433.131 54.3255 439.182 69.5294 441.128C83.4238 442.905 97.5431 442.892 111.553 443.824C115.508 444.088 119.427 444.902 124.293 445.889C121.206 447.95 117.223 450.892 113.163 451.004C90.0886 451.641 66.9958 451.601 42.472 452.691C39.9329 453.435 38.8315 453.28 37.7146 452.276C37.7155 449.722 37.7318 448.018 38.7215 446.083C40.6867 443.847 42.4462 441.883 42.5549 439.832C44.3378 406.192 47.4922 372.528 47.2233 338.895C46.5485 254.467 44.3096 170.051 42.6786 85.6311C42.562 79.596 42.2872 73.564 42.4039 67.0785C43.2659 66.0561 43.9313 65.7959 44.718 65.8459C55.3823 68.0271 65.2876 71.5988 77.1539 69.288C90.287 66.7306 104.332 68.7295 117.976 68.9527C130.028 69.1499 142.078 70.0081 154.123 69.9104C176.89 69.7259 199.657 68.5732 222.416 68.7724C237.868 68.9078 253.298 71.2558 268.754 71.4684C277.96 71.5951 287.181 68.7486 296.423 68.5578C320.053 68.07 343.698 68.2976 367.337 68.365C368.251 68.3677 369.161 69.6714 370.323 71.2486Z" fill="#CEA454"/>
<path d="M521.087 450.33C518.425 449.316 516.628 448.459 513.103 446.777C539.63 439.024 539.609 439.026 537.493 413.558C537.26 410.749 537.421 407.908 537.413 405.082C537.337 377.423 537.523 349.761 537.113 322.107C536.75 297.571 534.835 273.033 535.178 248.518C535.867 199.217 537.566 149.93 538.983 100.641C539.431 85.0609 533.927 78.919 517.818 77.7708C515.944 77.6371 514.091 77.1986 508.993 76.3853C514.324 74.0012 516.881 72.8574 519.958 71.0175C522.964 70.3537 525.451 70.3861 529.812 70.5133C535.882 69.7163 540.079 68.8245 544.276 67.9328C544.276 67.9328 544.641 67.7922 545.445 67.9041C547.163 67.9167 548.077 67.8176 549.162 68.8759C549.373 197.859 549.413 325.685 548.594 453.53C546.589 453.479 545.443 453.41 544.298 453.34C543.236 452.554 542.173 451.767 539.801 450.23C534.14 449.714 529.79 449.948 525.439 450.183C524.277 450.284 523.115 450.385 521.087 450.33Z" fill="#CB9740"/>
<path d="M585.628 67.9654C584.931 186.956 584.186 305.946 583.634 424.938C583.593 433.758 584.941 442.585 584.774 452.483C581.415 453.844 578.925 454.13 576.362 453.216C576.254 435.607 576.192 419.198 576.189 402.79C576.179 328.522 576.165 254.255 576.206 179.987C576.212 168.499 576.605 157.011 576.636 145.523C576.706 120.205 576.658 94.8868 576.658 71.7874C570.878 68.1631 567.463 66.0218 564.985 63.6995C572.491 65.0007 579.059 66.4831 585.628 67.9654Z" fill="#DDBD82"/>
<path d="M1.24515 453.363C1.24426 325.745 1.24338 198.127 2.12787 69.2343C4.72537 67.7071 6.43736 67.4552 8.35448 68.4062C8.63687 143.771 8.78369 217.933 8.76844 292.095C8.75734 346.1 8.53281 400.105 7.50713 454.039C4.8223 453.765 3.03365 453.564 1.24515 453.363Z" fill="#CBA65F"/>
<path d="M0.654259 453.814C3.0336 453.564 4.82226 453.766 8.30143 454.656C19.238 454.605 28.4841 453.865 37.7302 453.126C38.8317 453.28 39.9331 453.435 41.8656 453.522C42.8484 456.854 44.2561 462.593 42.9564 463.29C30.8195 469.799 33.5851 480.765 33.9369 490.92C34.0747 494.897 36.457 499.005 35.8718 502.75C34.9536 508.624 33.9751 516.196 30.0453 519.387C26.4993 522.267 16.7804 522.601 13.7179 519.785C9.65035 516.044 8.50434 508.258 7.79466 502.018C7.22498 497.01 9.99846 491.686 9.81834 486.554C9.52011 478.06 11.2195 468.529 0.789684 463.445C-0.612228 462.761 0.249907 457.439 0.654259 453.814Z" fill="#653C1C"/>
<path d="M576.436 454.417C578.926 454.131 581.415 453.844 584.844 453.508C585.836 456.895 587.157 462.629 585.743 463.409C573.062 470.404 576.898 481.955 577.075 492.349C577.157 497.125 579.039 501.858 579.241 506.647C579.683 517.133 573.971 522.747 563.952 522.362C554.483 521.999 548.974 515.325 549.886 505.169C550.674 496.398 552.676 487.556 552.026 478.904C551.652 473.911 546.679 469.402 544.556 464.348C543.277 461.303 543.495 457.63 543.669 453.789C545.443 453.41 546.589 453.479 549.394 454.14C559.515 454.627 567.976 454.522 576.436 454.417Z" fill="#653C1C"/>
<path d="M8.1495 67.2034C6.43737 67.4553 4.72538 67.7071 2.1594 68.1051C0.918818 64.8484 -0.712798 58.9466 0.335824 58.425C12.3823 52.4312 9.56843 41.6687 9.38195 31.9453C9.29033 27.1683 6.69904 22.2663 7.30335 17.6933C8.03569 12.1523 9.47934 4.77559 13.3294 2.1125C17.2639 -0.60909 25.8593 -0.673953 29.875 1.96206C33.7516 4.50667 35.5821 11.865 36.1111 17.3217C36.6344 22.7224 33.6776 28.3727 33.5516 33.943C33.3373 43.419 32.146 53.667 43.689 58.6868C44.8382 59.1865 44.8949 62.1959 45.0884 64.9434C43.9316 65.7962 43.2661 66.0564 41.6777 67.228C39.6527 67.9963 38.6722 68.1633 36.9036 67.8774C26.8256 63.2851 17.5223 60.8683 8.1495 67.2034Z" fill="#653C1C"/>
<path d="M586.157 67.2439C579.059 66.483 572.49 65.0006 564.097 63.5815C557.845 65.0026 553.417 66.3605 548.99 67.7184C548.076 67.8176 547.163 67.9168 545.561 68.0615C544.177 64.8495 542.188 59.1149 542.977 58.7034C556.343 51.7357 552.439 39.7538 552.089 28.9269C551.974 25.3543 549.787 21.6455 550.347 18.3C551.28 12.7296 552.124 5.36953 555.866 2.53714C559.695 -0.361765 568.266 -0.894758 572.35 1.55351C576.241 3.88537 577.914 11.2434 578.876 16.6892C579.6 20.7884 577.141 25.342 577.007 29.7213C576.684 40.2247 573.355 51.7829 586.27 58.3556C587.482 58.9722 586.598 63.7023 586.157 67.2439Z" fill="#653C1C"/>
<path d="M127.901 447.274C130.038 445.514 132.557 443.921 135.084 443.908C167.542 443.746 200.001 443.785 232.46 443.876C234.366 443.881 236.269 444.765 238.86 446.071C237.013 448.315 234.492 450.933 231.944 450.959C199.868 451.283 167.787 451.301 135.708 451.144C133.229 451.131 130.76 449.21 127.901 447.274Z" fill="#CBA65F"/>
<path d="M243.42 445.083C269.688 444.02 296.037 443.971 323.589 444.022C321.793 446.471 318.854 450.764 315.787 450.857C294.407 451.507 272.998 451.474 251.608 451.111C248.878 451.065 246.202 447.847 243.42 445.083Z" fill="#CBA65F"/>
<path d="M502.272 69.9819C499.432 75.1777 480.021 79.9509 475.987 76.3707C475.191 75.6639 476.316 72.7948 476.709 70.1419C484.985 69.5614 493.107 69.7618 502.272 69.9819Z" fill="#CB9740"/>
<path d="M543.34 68.1016C540.079 68.8246 535.882 69.7164 530.747 70.4611C534.007 69.6328 538.205 68.9515 543.34 68.1016Z" fill="#DCB05F"/>
<path d="M526.409 450.531C529.789 449.948 534.14 449.714 539.107 450.062C535.609 450.723 531.494 450.801 526.409 450.531Z" fill="#DCB05F"/>
<path d="M71.7631 249.89C71.7546 248.096 71.7462 246.301 71.6805 242.768C71.6786 228.937 71.2866 216.822 71.8806 204.757C73.2069 177.818 74.2536 150.816 77.2981 124.055C77.9025 118.741 86.3266 111.533 92.229 110.273C100.582 108.49 109.951 111.367 118.858 112.476C119.411 112.545 119.925 114.533 120.112 115.685C122.035 127.505 129.594 124.731 134.491 119.617C138.624 115.302 139.704 108.068 142.136 102.125C160.235 100.772 178.315 98.6922 196.437 98.2244C228.919 97.3857 262.271 92.8501 293.69 98.531C326.298 104.427 355.841 89.1911 387.455 93.795C404.096 96.2184 421.421 93.9911 438.437 93.7779C444.184 93.7059 450.07 92.4589 455.647 93.3269C471.552 95.8022 487.3 99.2719 503.183 101.91C506.553 102.469 510.233 101.159 516.511 100.362C518.571 109.242 522.354 118.275 522.459 127.35C522.786 155.655 521.597 183.974 521.287 212.29C521.213 219.038 522.724 225.798 522.745 232.554C522.897 281.377 522.97 330.201 522.764 379.023C522.727 387.799 521.758 396.641 520.399 405.324C517.533 423.63 509.583 427.554 491.096 425.993C472.159 424.394 452.948 426.215 433.858 426.169C427.111 426.153 420.371 424.6 413.619 424.525C392.427 424.291 371.23 424.424 350.035 424.419C333.418 424.416 316.768 425.037 300.196 424.171C291.322 423.708 282.644 419.676 273.763 419.135C266.168 418.672 258.408 420.891 249.542 420.977C245.52 419.067 242.719 417.421 239.829 417.246C210.148 415.445 180.449 413.941 150.763 412.223C140.35 411.62 129.909 411.029 119.576 409.694C114.534 409.042 106.983 408.107 105.298 404.854C100.175 394.962 93.4141 391.447 85.5048 394.223C82.3388 382.309 79.4614 371.481 76.5841 360.653C80.166 354.589 82.3785 347.548 82.8395 340.394C83.5556 329.279 83.0861 318.088 83.1074 306.93C83.1197 300.532 85.8205 291.314 82.6223 288.242C70.9856 277.067 75.9062 262.398 71.7631 249.89Z" fill="#E6C37F"/>
<path d="M70.758 249.938C75.9063 262.398 70.9857 277.067 82.6223 288.243C85.8206 291.314 83.1198 300.532 83.1075 306.93C83.0862 318.088 83.5556 329.279 82.8396 340.394C82.3786 347.548 80.166 354.589 76.5841 360.653C79.4615 371.481 82.3389 382.309 85.5049 394.224C93.4142 391.447 100.175 394.963 105.298 404.854C106.983 408.108 114.534 409.043 119.576 409.694C129.909 411.029 140.35 411.62 150.763 412.223C180.45 413.941 210.148 415.446 239.829 417.246C242.719 417.422 245.52 419.068 248.598 420.984C243.226 423.57 237.605 426.65 232.015 426.594C203.027 426.306 174.051 425.052 145.063 424.472C127.84 424.128 110.602 424.533 93.3732 424.366C79.9896 424.237 67.0312 411.532 66.9566 398.554C66.8418 378.571 67.2248 358.581 66.8444 338.604C66.3544 312.86 65.0928 287.13 64.7679 261.386C64.7201 257.608 68.0082 253.787 70.758 249.938Z" fill="#E1BA71"/>
<path d="M141.283 101.736C139.705 108.068 138.624 115.302 134.491 119.617C129.595 124.731 122.035 127.505 120.112 115.685C119.925 114.534 119.411 112.545 118.858 112.476C109.951 111.367 100.583 108.49 92.2291 110.273C86.3266 111.533 77.9026 118.742 77.2981 124.055C74.2536 150.817 73.2069 177.818 71.8807 204.757C71.2867 216.823 71.6786 228.937 71.666 241.871C69.312 236.051 64.652 229.299 64.9136 222.743C65.9974 195.581 60.2915 168.258 66.7847 141.214C67.7017 137.395 66.8156 133.164 66.9491 129.13C67.163 122.673 64.9507 113.515 68.335 110.29C77.3187 101.73 86.9896 91.9579 101.89 94.757C114.697 97.1628 127.58 99.165 141.283 101.736Z" fill="#E1BA71"/>
<path d="M8.35422 68.4062C17.522 60.8682 26.8254 63.285 36.9288 68.9989C37.7443 195.821 37.7463 321.068 37.748 446.315C37.7317 448.019 37.7155 449.722 37.7146 452.276C28.4839 453.865 19.2378 454.605 9.19754 454.728C8.53255 400.105 8.75708 346.1 8.76818 292.095C8.78343 217.933 8.63661 143.771 8.35422 68.4062Z" fill="#E5C078"/>
<path d="M38.7218 446.083C37.7466 321.068 37.7447 195.821 37.7175 69.452C38.6723 68.1633 39.6528 67.9962 41.3598 67.68C42.2875 73.5642 42.5623 79.5963 42.6789 85.6314C44.3099 170.052 46.5488 254.467 47.2236 338.895C47.4925 372.528 44.3381 406.192 42.5552 439.832C42.4465 441.884 40.687 443.848 38.7218 446.083Z" fill="#C5903B"/>
<path d="M549.161 68.8761C553.417 66.3606 557.845 65.0027 563.16 63.7627C567.463 66.0219 570.878 68.1632 576.658 71.7874C576.658 94.8868 576.706 120.205 576.636 145.523C576.605 157.011 576.212 168.499 576.206 179.987C576.165 254.255 576.179 328.523 576.189 402.79C576.192 419.198 576.254 435.607 576.362 453.216C567.976 454.522 559.515 454.627 550.254 454.121C549.413 325.686 549.373 197.86 549.161 68.8761Z" fill="#E6C27A"/>
</svg>
