<svg width="602" height="462" viewBox="0 0 602 462" fill="none" xmlns="http://www.w3.org/2000/svg">
<path d="M136.678 455.213C100.357 455.409 64.0362 455.782 27.7173 455.632C21.3899 455.605 14.491 454.533 8.95117 451.759C5.20588 449.884 1.16147 444.243 1.04721 440.18C0.165095 408.816 0.133277 377.426 0.00436467 346.044C-0.0483261 333.179 0.405313 320.313 0.463333 307.447C0.667434 262.299 0.909425 217.151 0.915941 172.003C0.91964 147.158 -0.0879826 122.303 0.393927 97.4719C0.936812 69.4981 2.37292 41.5291 4.22196 13.611C4.4265 10.5222 9.67124 5.53067 12.9266 5.23366C38.8881 2.86475 64.9288 0.107332 90.9549 0.00603643C126.025 -0.13047 161.101 2.08761 196.18 3.12437C227.548 4.05144 258.918 5.18404 290.294 5.43855C333.704 5.79068 377.12 5.40493 421.685 5.9103C422.836 6.48543 422.849 7.44432 422.128 8.16832C404.262 10.0405 387.128 11.9077 369.969 12.1795C339.048 12.6694 308.112 12.204 276.411 12.1594C274.618 12.0814 273.594 11.9817 272.305 11.5527C271.786 11.1024 271.464 10.8184 271.294 10.8911C270.801 11.1017 270.369 11.4555 268.973 11.8029C256.893 11.805 245.752 11.8953 234.616 11.6718C222.932 11.4373 211.253 10.9019 199.234 9.79161C195.895 9.52748 192.895 9.96973 188.893 10.2942C178.417 10.0131 168.941 9.91898 159.469 9.66444C151.944 9.46223 144.424 9.06385 136.381 7.87504C126.889 7.11583 117.743 8.41534 108.982 7.11816C87.6505 3.95952 67.0864 3.23339 46.8793 13.1716C39.8199 16.6436 30.9902 16.6155 22.9271 17.9298C13.2112 19.5133 9.53359 26.6986 8.76707 34.8952C8.16173 41.3653 8.52685 49.2332 18.4168 49.755C15.54 62.0926 13.0396 73.5685 9.83212 85.6106C8.05471 90.3149 6.1145 94.4413 6.059 98.5928C5.76817 120.398 5.52795 142.222 6.17578 164.013C6.45166 173.296 8.93076 182.515 10.4274 192.71C10.3919 196.177 10.3377 198.697 9.34813 201.505C7.5025 205.901 6.08682 209.968 5.75884 214.121C1.71916 265.292 15.7361 316.19 8.13152 367.43C8.07306 367.824 8.1623 368.238 8.13596 368.639C7.05285 385.246 6.92793 401.986 4.63339 418.424C1.73943 439.156 13.3018 451.174 33.7211 447.05C37.6248 446.262 41.7369 446.086 45.7303 446.234C63.8096 446.904 81.875 448.002 99.9578 448.482C105.903 448.641 111.928 446.623 117.842 446.951C137.057 448.017 156.237 449.709 175.071 451.696C173.353 453.261 171.994 454.29 170.636 455.319C167.244 455.503 163.853 455.686 159.242 455.323C157.783 454.641 157.449 454.333 157.32 454.403C156.862 454.65 156.475 455.027 156.061 455.354C151.084 455.404 146.107 455.454 139.851 455.009C137.74 454.106 137.108 454.339 136.678 455.213Z" fill="#6E4321"/>
<path d="M595.027 283.955C595.027 283.955 594.98 285.128 594.163 286.361C594.662 304.299 596.985 320.999 597.06 337.71C597.176 363.839 595.655 389.973 595.058 416.11C594.769 428.757 586.826 440.457 575.711 443.725C557.107 449.197 538.507 454.682 519.905 460.161C517.987 460.244 516.068 460.326 512.408 459.675C504.607 458.638 498.548 458.336 492.02 457.361C487.37 457.172 483.189 457.655 478.014 458.197C475.029 458.25 473.038 458.245 470.477 457.571C466.327 456.577 462.746 456.252 458.372 455.897C456.522 455.859 455.465 455.853 454.54 455.311C455.311 453.892 455.95 453.009 457.037 451.561C458.079 450.268 458.673 449.538 460.269 448.798C464.599 448.554 467.926 448.32 472.241 448.26C479.857 447.691 486.485 446.948 493.552 446.826C496.109 446.893 498.225 446.339 501.112 445.819C502.909 445.793 503.935 445.734 505.997 445.868C528.709 454.706 547.693 443.452 567.355 437.678C570.209 436.841 573.881 434.352 574.712 431.819C579.002 418.755 583.068 405.554 586.003 392.136C587.389 385.798 585.611 378.838 586.071 372.215C587.105 357.342 589.632 342.51 589.724 327.65C589.841 308.921 588.137 290.181 587.307 270.679C587.377 268.883 587.358 267.853 588.019 266.418C588.366 263.055 588.033 260.098 587.786 256.291C588.726 252.721 589.58 249.999 591.354 247.568C593.14 255.093 594.192 262.311 594.804 269.566C595.207 274.335 594.975 279.157 595.027 283.955Z" fill="#9B5216"/>
<path d="M520.778 460.485C538.507 454.682 557.107 449.197 575.711 443.725C586.826 440.457 594.769 428.757 595.058 416.11C595.655 389.973 597.176 363.839 597.06 337.71C596.985 321 594.662 304.299 593.985 286.92C596.42 294.394 599.563 302.506 599.789 310.698C600.899 350.947 601.089 391.22 601.937 431.477C602.175 442.758 597.805 450.905 588.212 456.461C586.493 457.457 584.106 459.398 582.905 458.879C564.366 450.857 546.954 463.089 528.854 461.62C526.447 461.424 524.052 461.083 520.778 460.485Z" fill="#6E4321"/>
<path d="M592.612 109.399C593.275 108.795 593.939 108.191 594.924 106.983C596.065 120.115 596.915 133.849 597.697 147.587C598.494 161.579 599.977 175.588 599.741 189.565C599.561 200.237 596.42 210.842 596.001 221.532C595.676 229.802 598.225 238.157 598.243 246.477C598.27 258.567 597.169 270.659 595.788 283.352C594.975 279.157 595.207 274.335 594.804 269.566C594.192 262.311 593.14 255.093 591.275 246.63C590.269 242.881 590.264 240.361 590.917 237.119C597.199 194.107 596.302 151.764 592.612 109.399Z" fill="#795031"/>
<path d="M445.801 7.70033C451.126 8.47049 455.365 9.22177 460.58 9.9515C481.762 12.1434 502.165 13.2928 522.096 16.9865C533.279 19.0589 543.579 25.6212 554.484 29.5891C558.933 31.2076 564.072 32.4554 568.656 31.8966C583.596 30.0749 589.173 34.4976 590.204 49.0681C591.104 61.7934 593.412 74.4226 594.216 87.1499C594.637 93.8101 593.162 100.59 592.577 108.358C596.302 151.764 597.199 194.107 590.196 236.437C586.937 228.041 585.057 219.602 583.218 210.386C583.357 208.574 583.456 207.54 584.396 206.297C593.133 197.011 592.261 192.327 581.362 185.604C581.024 174.106 571.72 163.633 581.416 152.427C580.576 146.227 579.979 140.273 577.657 135.09C573.633 126.111 568.542 117.609 563.655 107.981C561.778 98.8475 559.173 90.6947 558.711 82.4224C557.765 65.4866 536.633 36.5983 520.358 31.477C519.974 31.3562 519.573 31.2893 519.181 31.1939C503.215 27.3092 487.438 21.765 471.24 19.9183C445.335 16.9651 419.027 14.1974 393.12 15.6045C369.906 16.8654 347.093 19.3847 324.093 14.2897C318.647 13.0833 313.343 14.2889 312.751 22.0821C306.882 23.4819 301.894 24.7696 296.305 25.5219C289.53 20.7036 283.356 16.4206 277.182 12.1376C308.112 12.204 339.048 12.6694 369.969 12.1795C387.129 11.9077 404.262 10.0404 422.128 8.16828C430.138 7.52334 437.426 7.6024 445.801 7.70033Z" fill="#9B5216"/>
<path d="M263.309 450.723C234.772 450.842 206.235 450.962 176.565 451.12C156.237 449.709 137.057 448.017 117.842 446.951C111.928 446.623 105.903 448.641 99.9577 448.482C81.8749 448.002 63.8095 446.904 45.7302 446.234C41.7368 446.086 37.6247 446.262 33.721 447.05C13.3017 451.174 1.73933 439.156 4.63329 418.424C6.92783 401.986 7.05275 385.246 8.13586 368.639C8.1622 368.238 8.07296 367.824 8.13142 367.43C15.736 316.19 1.71906 265.292 5.75874 214.121C6.08672 209.968 7.5024 205.901 9.48094 202.617C10.7067 210.081 10.8641 216.721 10.9172 224.228C10.9065 226.838 10.9998 228.58 10.9033 231.311C11.5111 237.371 12.309 242.443 13.0526 248.473C13.0323 251.99 13.0667 254.548 13.0245 258.166C14.4332 274.793 16.0434 290.35 17.3451 305.932C17.9003 312.575 16.686 319.58 18.4042 325.837C19.5788 330.115 23.7206 334.872 27.7813 336.816C38.5919 341.991 40.554 347.297 31.8207 362.012C30.341 357.169 29.1906 353.404 28.0401 349.638C26.7152 350.516 25.3902 351.393 24.0651 352.27C23.5569 355.228 22.639 358.182 22.6108 361.144C22.4837 374.494 22.7732 387.849 22.5889 401.197C22.4501 411.269 41.4629 432.355 51.5982 432.96C63.3697 433.662 75.2099 433.812 86.8913 435.25C97.0722 436.502 106.988 440.145 117.173 441.082C138.367 443.03 159.654 444.739 180.917 444.925C198.495 445.079 216.093 442.902 234.712 441.699C239.862 441.729 243.982 441.819 248.738 442.451C254.018 445.57 258.663 448.146 263.309 450.723Z" fill="#9A5215"/>
<path d="M10.539 85.0444C13.0396 73.5685 15.54 62.0926 18.7844 49.5283C19.9925 48.039 20.2845 47.5375 20.9384 46.3753C22.0298 44.3899 22.5871 42.9649 23.8294 41.1675C25.6615 38.5518 26.8093 36.3085 28.7867 34.1195C34.4516 35.8933 39.287 37.6127 46.3378 40.1201C33.0069 49.0224 37.7416 56.5089 46.9966 64.1154C46.1082 65.9271 45.308 67.0313 43.7021 68.1163C41.8223 68.0864 40.7479 68.0756 39.5445 67.2533C36.8018 64.7359 34.1883 63.03 31.5748 61.324C30.9484 62.1569 30.3222 62.9897 29.696 63.8226C31.4056 66.0649 33.1154 68.3073 34.2283 71.0144C40.0015 84.8161 29.9654 92.2234 22.18 100.769C24.8377 103.708 27.1151 106.227 29.4582 108.819C18.034 117.638 20.4875 129.629 20.3625 142.036C19.4404 156.083 18.543 169.031 16.8534 181.989C15.0023 182.015 13.9434 182.03 12.2159 181.351C11.3063 176.678 10.6496 172.672 10.8938 168.722C12.3268 145.554 14.2902 122.413 15.2731 99.2289C15.4701 94.5759 12.2067 89.7764 10.539 85.0444Z" fill="#C68D38"/>
<path d="M9.83223 85.6106C12.2068 89.7764 15.4702 94.5759 15.2732 99.2289C14.2903 122.413 12.3269 145.554 10.8939 168.722C10.6497 172.672 11.3064 176.678 12.2542 182.321C12.992 186.574 13.0231 189.164 12.3927 191.764C11.2907 191.77 10.8498 191.766 10.4087 191.762C8.93087 182.515 6.45177 173.296 6.17589 164.013C5.52807 142.222 5.76828 120.398 6.05911 98.5928C6.11462 94.4413 8.05483 90.3149 9.83223 85.6106Z" fill="#9A5215"/>
<path d="M10.4275 192.71C10.8498 191.766 11.2907 191.77 12.987 192.211C15.3887 194.764 16.5348 196.88 17.6973 199.93C16.9765 205.059 16.2391 209.253 15.4621 214.345C13.9555 217.948 12.4886 220.655 11.0216 223.361C10.8643 216.721 10.7069 210.081 10.4166 202.329C10.3378 198.697 10.392 196.177 10.4275 192.71Z" fill="#C68D38"/>
<path d="M313.666 443.749C313.666 443.749 312.744 443.432 312.079 442.558C310.553 439.904 309.692 438.125 308.948 435.543C309.897 434.003 310.854 432.523 311.54 432.639C323.206 434.612 335.403 440.017 346.337 438.11C360.736 435.598 378.968 442.56 386.916 427.618C398.161 428.479 407.367 428.615 416.379 430.002C430.983 432.249 445.488 437.582 459.983 437.404C474.682 437.223 489.602 433.576 502.014 423.123C508.097 418 516.609 415.725 524.09 412.312C527.399 410.802 532.555 410.641 533.985 408.187C539.778 398.248 544.182 387.512 549.607 377.341C555.546 366.206 562.047 355.369 568.978 345.016C569.149 350.623 568.88 355.655 568.091 360.605C566.748 369.029 565.079 377.401 563.518 386.35C563.49 386.904 563.356 388.005 562.521 388.101C556.793 392.82 548.774 396.797 547.656 402.2C545.318 413.504 535.922 414.552 528.989 419.077C523.833 422.444 517.736 424.354 512.112 427.028C506.07 429.9 500.039 432.803 494.1 435.88C486.434 439.852 478.864 444.009 471.253 448.086C467.926 448.32 464.599 448.554 459.635 448.073C452.227 446.217 446.484 444.475 440.673 444.203C437.997 444.077 435.187 446.83 432.437 448.278C432.437 448.278 431.342 448.409 430.251 447.536C407.622 446.473 386.084 446.283 363.49 446.065C357.494 445.926 352.555 445.815 346.823 445.098C335.243 444.245 324.455 443.997 313.666 443.749Z" fill="#E0B66A"/>
<path d="M563.356 388.005C563.356 388.005 563.49 386.904 564.341 386.154C582.803 360.68 584.911 332.417 584.221 303.408C583.966 292.691 576.137 281.134 587.217 271.446C588.136 290.181 589.84 308.921 589.724 327.65C589.631 342.51 587.105 357.342 586.071 372.215C585.61 378.838 587.389 385.798 586.002 392.136C583.068 405.554 579.002 418.755 574.712 431.819C573.881 434.352 570.208 436.841 567.355 437.678C547.693 443.452 528.708 454.706 506.283 445.05C514.934 439.645 524.122 434.702 533.779 430.973C552.411 423.78 563.133 408.712 563.356 388.005Z" fill="#C68D38"/>
<path d="M587.306 270.679C576.137 281.134 583.966 292.691 584.221 303.409C584.911 332.417 582.803 360.681 564.369 385.6C565.079 377.401 566.748 369.029 568.091 360.605C568.88 355.655 569.149 350.623 568.965 344.016C572.435 330.257 564.199 315.352 576.739 304.854C577.891 303.89 576.499 299.712 576.063 297.063C574.377 286.812 571.615 276.627 571.085 266.323C570.252 250.109 572.951 233.494 570.433 217.639C566.735 194.357 569.072 171.246 568.907 147.666C569.916 145.886 570.331 144.522 571.451 143.533C575.064 146.946 577.973 149.983 580.881 153.019C571.72 163.633 581.024 174.106 580.766 186.194C573.089 195.397 582.46 200.258 583.554 206.506C583.456 207.54 583.357 208.574 582.369 210.714C570.294 227.984 578.194 242.499 585.337 257.955C585.967 261.498 586.653 264.161 587.339 266.823C587.358 267.853 587.377 268.883 587.306 270.679Z" fill="#DCB05D"/>
<path d="M562.521 388.101C563.134 408.712 552.411 423.78 533.78 430.973C524.122 434.702 514.934 439.645 505.247 444.857C503.935 445.734 502.909 445.793 500.633 445.272C497.292 445.196 495.202 445.701 493.112 446.205C486.484 446.948 479.857 447.691 472.241 448.26C478.864 444.009 486.434 439.852 494.1 435.88C500.039 432.803 506.07 429.9 512.112 427.028C517.736 424.354 523.833 422.444 528.989 419.077C535.922 414.552 545.318 413.504 547.656 402.2C548.774 396.797 556.793 392.82 562.521 388.101Z" fill="#DCB05D"/>
<path d="M585.393 257.075C578.194 242.499 570.294 227.984 582.328 211.493C585.057 219.602 586.937 228.041 589.538 237.16C590.264 240.361 590.269 242.881 590.354 246.34C589.58 249.999 588.726 252.721 587.209 256.281C586.546 257.12 585.393 257.075 585.393 257.075Z" fill="#B07330"/>
<path d="M585.336 257.955C585.392 257.075 586.546 257.12 587.123 257.13C588.033 260.098 588.366 263.055 588.019 266.418C586.653 264.161 585.967 261.498 585.336 257.955Z" fill="#C68D38"/>
<path d="M581.416 152.427C577.973 149.983 575.064 146.946 571.276 142.642C568.034 130.729 565.672 120.083 563.309 109.437C563.309 109.437 563.599 109.174 563.748 109.04C568.542 117.609 573.633 126.111 577.657 135.09C579.979 140.273 580.576 146.227 581.416 152.427Z" fill="#CD9945"/>
<path d="M584.396 206.297C582.46 200.258 573.089 195.397 581.004 187.15C592.261 192.327 593.133 197.011 584.396 206.297Z" fill="#B07330"/>
<path d="M233.683 441.759C216.093 442.903 198.495 445.079 180.917 444.925C159.653 444.739 138.366 443.03 117.172 441.082C106.988 440.145 97.0721 436.502 86.8912 435.25C75.2098 433.812 63.3697 433.662 51.5982 432.96C41.4629 432.355 22.45 411.269 22.5889 401.197C22.7731 387.849 22.4836 374.494 22.6108 361.144C22.6389 358.182 23.5568 355.228 24.0651 352.27C25.3902 351.393 26.7151 350.516 28.0401 349.638C29.1905 353.404 30.341 357.169 31.8206 362.012C40.554 347.297 38.5919 341.991 27.7812 336.816C23.7205 334.872 19.5787 330.115 18.4041 325.837C16.6859 319.58 17.9002 312.575 17.345 305.932C16.0433 290.35 14.4331 274.793 13.8978 258.361C17.3922 262.291 19.9367 267.085 22.5491 272.785C24.2339 281.889 23.7975 291.346 27.8947 298.024C36.4922 312.038 44.3481 325.8 45.2971 342.643C45.3797 344.109 47.8638 345.44 49.2515 347.636C49.2557 349.508 49.2407 350.578 48.3747 351.812C43.5777 359.661 39.2864 367.198 35.8586 375.107C34.519 378.199 34.0324 382.49 35.0635 385.604C37.2095 392.085 39.1691 397.655 32.5686 403.018C31.1019 404.21 30.9025 409.761 32.2921 411.179C38.4446 417.462 45.3892 422.969 53.4095 429.941C53.8036 424.339 54.0517 420.813 55.0787 417.123C57.7098 414.565 59.5621 412.172 62.3359 409.821C65.7789 411.448 68.3279 412.992 70.8169 414.627C80.1651 420.768 87.0453 431.54 100.741 429.336C109.374 427.947 118.181 427.635 126.927 426.823C126.943 426.806 126.907 426.848 127.045 427.697C133.59 430.306 139.997 432.067 147.317 433.977C157.304 438.455 166.378 442.887 176.37 434.294C192.096 441.373 206.838 442.002 222.379 434.073C226.653 435.002 230.039 435.867 233.491 437.566C233.599 439.52 233.641 440.639 233.683 441.759Z" fill="#C68D38"/>
<path d="M22.4813 271.88C19.9369 267.085 17.3924 262.291 13.9745 257.302C13.0668 254.548 13.0325 251.99 13.8514 248.462C15.7722 247.482 16.8401 247.473 18.7729 247.61C30.3956 254.512 20.9896 263.811 22.6157 271.753C22.5694 271.793 22.4813 271.88 22.4813 271.88Z" fill="#CFA14A"/>
<path d="M10.9174 224.228C12.4886 220.655 13.9555 217.948 16.3277 214.367C18.9695 213.55 20.7059 213.608 22.4848 214.61C22.6089 218.078 22.6905 220.602 22.7319 224.041C21.0864 227.611 19.481 230.266 17.1884 232.65C14.6986 231.694 12.8959 231.008 11.0933 230.322C10.9999 228.58 10.9067 226.838 10.9174 224.228Z" fill="#CFA14A"/>
<path d="M10.9032 231.311C12.8956 231.008 14.6984 231.694 17.1859 233.689C17.8831 239.153 17.8954 243.309 17.9077 247.464C16.8399 247.473 15.772 247.482 13.9056 247.503C12.3089 242.443 11.511 237.371 10.9032 231.311Z" fill="#C68D38"/>
<path d="M22.4423 213.666C20.7059 213.608 18.9695 213.55 16.3674 213.47C16.2391 209.253 16.9765 205.059 18.4092 199.327C18.6183 192.52 18.1319 187.249 17.6457 181.978C18.5431 169.031 19.4405 156.083 21.1742 141.871C28.3812 131.424 38.9215 124.678 37.6905 111.049C37.4402 108.278 42.1018 105.064 44.5026 103.02C47.7398 111.422 50.9733 118.859 54.2041 127.099C54.2037 128.976 54.2057 130.05 53.7944 131.898C42.3724 136.073 40.9346 144.441 42.0265 154.251C42.3352 157.023 42.0996 159.856 41.7222 163.42C35.0345 180.674 28.7383 197.17 22.4423 213.666Z" fill="#DCB05E"/>
<path d="M44.499 102.054C42.1017 105.064 37.4401 108.278 37.6904 111.049C38.9214 124.678 28.3811 131.424 21.1988 140.771C20.4875 129.628 18.034 117.638 29.4582 108.819C27.1151 106.227 24.8377 103.708 22.18 100.769C29.9654 92.2234 40.0015 84.816 34.952 70.959C37.4062 69.6476 38.5399 68.8562 39.6737 68.0648C40.7479 68.0756 41.8223 68.0863 43.3753 68.8666C42.1088 75.3289 36.8231 81.6722 46.7661 86.1845C46.0397 92.1139 45.2693 97.084 44.499 102.054Z" fill="#CFA14A"/>
<path d="M16.8531 181.989C18.1317 187.249 18.6181 192.52 18.3925 198.393C16.5346 196.88 15.3884 194.764 13.6482 192.201C13.0229 189.164 12.9918 186.574 12.9227 183.014C13.9433 182.03 15.0021 182.015 16.8531 181.989Z" fill="#CFA14A"/>
<path d="M182.362 30.9264C180.394 33.6143 177.876 35.6998 176.751 36.6317C185.174 42.5458 193.159 47.9412 200.857 53.7201C202.602 55.0304 204.178 57.5798 204.415 59.7161C205.884 72.9354 214.77 73.3089 225.191 73.1935C233.79 73.0982 237.607 71.0979 239.412 61.622C240.549 55.6518 248.083 50.8986 252.89 44.7451C253.035 42.8096 253.038 41.7283 254.071 39.8378C259.794 40.3311 264.486 41.6335 269.179 42.9359C267.382 48.1639 265.87 53.5125 263.713 58.5877C261.274 64.3277 258.257 69.8223 254.869 75.6872C253.068 76.6052 251.888 77.2596 249.687 77.8774C240.874 80.2502 232.152 81.2207 225.563 85.4843C219.31 89.5298 215.777 90.4215 210.171 85.2245C207.967 83.1817 203.214 76.1265 198.723 85.0284C195.199 85.0042 192.636 84.9831 190.052 83.9222C189.661 78.0985 189.623 73.26 188.847 68.5429C187.471 60.185 182.048 55.1633 173.779 56.3005C163.126 57.7655 152.522 60.3731 142.299 63.7168C138.948 64.8129 136.851 69.7397 133.591 72.9341C133.001 72.9536 131.822 72.9944 131.04 73.0835C129.155 74.7233 128.052 76.2741 126.92 78.4139C126.89 79.0029 126.847 80.1817 126.023 80.3374C121.853 85.1312 118.507 89.7692 114.508 95.3117C111.5 92.6906 108.436 91.1189 107.059 88.6188C102.566 80.4607 95.5327 84.164 90.227 85.6887C87.1505 86.5727 85.4384 92.2639 83.1521 95.8173C76.709 105.831 70.306 115.871 63.7941 125.84C63.4923 126.302 62.2888 126.176 61.49 126.308C61.475 126.292 61.4672 126.284 61.3426 125.307C52.0388 104.447 69.597 77.4968 93.0758 77.7366C98.5594 77.7926 104.044 77.8043 109.528 77.7866C115.988 77.7657 120.769 76.6586 118.546 68.0321C116.394 59.6823 119.66 56.2544 128.783 57.7255C144.22 60.2146 148.408 57.4427 154.02 44.7673C150.15 37.9581 147.003 32.4218 143.856 26.8854C150.769 24.1419 157.682 21.3984 165.162 17.9925C166.769 17.3478 167.81 17.3655 169.754 18.1519C171.604 20.021 172.551 21.1215 173.497 22.2219C176.269 24.9225 179.04 27.6233 182.362 30.9264Z" fill="#E6C37E"/>
<path d="M292.79 436.141C277.379 431.57 263.102 431.077 248.581 435.742C244.559 437.034 239.906 436.361 234.483 436.66C230.039 435.867 226.653 435.002 221.891 433.482C216.371 432.396 210.288 433.545 208.423 431.259C200.887 422.017 191.148 419.85 180.649 418.818C185.133 412.487 188.212 405.334 197.73 407.974C200.27 409.814 202.402 411.044 204.546 413.138C206.671 416.37 208.782 418.738 210.893 421.106C212.817 418.945 214.741 416.784 217.621 414.624C221.126 414.592 223.675 414.56 227.213 414.584C233.024 417.179 237.901 419.62 242.649 422.293C245.918 424.133 249.402 428.434 252.106 427.934C263.071 425.908 273.771 422.45 285.489 419.428C290.642 418.574 294.874 417.812 299.621 417.716C312.525 424.203 323.603 434.64 339.132 429.452C339.465 429.341 339.911 429.628 340.304 429.63C347.415 429.656 354.69 430.627 361.597 429.45C371.255 427.804 381.275 426.683 389.375 419.626C391.305 417.945 397.139 417.777 398.925 419.396C407.776 427.417 416.385 425.168 425.279 422.611C430.91 423.204 436.541 423.798 442.767 424.409C443.363 424.426 444.554 424.474 444.786 425.4C451.835 426.925 459.267 429.547 465.344 427.705C478.305 423.776 490.32 416.824 503.168 412.401C522.336 405.802 535.3 385.197 529.56 367.857C529.586 366.006 529.628 364.948 530.504 363.706C534.808 359.578 537.565 354.345 541.894 351.944C552.502 346.061 555.552 337.018 548.033 326.985C544.014 321.621 544.759 318.395 549.013 313.615C553.637 308.418 559.22 302.217 560.025 295.899C561.365 285.387 560.362 274.2 558.221 263.732C556.243 254.061 560.361 241.379 546.408 236.442C547.583 234.241 548.359 232.907 549.026 231.52C555.269 218.535 565.086 206.337 556.337 190.443C554.336 186.808 553.061 181.525 554.08 177.7C557.953 163.169 562.501 149.459 543.384 141.324C539.339 139.602 537.369 133.008 534.423 128.06C534.403 127.462 534.349 126.267 534.336 125.359C529.538 112.287 522.747 110.458 512.99 116.773C508.753 119.516 502.16 119.708 496.781 119.273C492.217 118.904 487.861 115.967 483.41 114.168C483.41 114.168 483.407 114.166 483.412 113.061C482.624 102.177 481.833 92.3977 481.881 82.7136C487.298 86.668 491.397 91.4834 496.604 94.0857C500.809 96.1876 506.357 95.9339 511.286 95.8088C511.849 95.7946 511.929 89.7707 512.838 86.7129C513.735 83.6929 515.401 80.9008 516.729 78.0087C520.121 79.9884 525.132 81.15 526.619 84.0913C532.667 96.0547 534.269 111.282 551.314 114.16C551.305 114.169 551.323 114.154 551.315 115.176C551.264 118.994 551.962 122.059 551.055 124.538C546.555 136.843 553.58 141.998 564.122 145.871C565.934 146.79 567.123 147.436 568.313 148.082C569.072 171.246 566.735 194.357 570.433 217.639C572.951 233.494 570.252 250.109 571.085 266.323C571.615 276.627 574.377 286.812 576.063 297.063C576.498 299.712 577.891 303.89 576.739 304.854C564.199 315.352 572.435 330.257 568.29 343.403C562.047 355.369 555.546 366.206 549.606 377.341C544.182 387.512 539.778 398.248 533.985 408.187C532.554 410.641 527.399 410.802 524.09 412.312C516.609 415.725 508.097 418 502.014 423.123C489.602 433.576 474.682 437.223 459.983 437.404C445.488 437.582 430.982 432.248 416.379 430.002C407.366 428.615 398.161 428.479 386.916 427.618C378.968 442.56 360.736 435.598 346.337 438.109C335.402 440.017 323.206 434.611 311.54 432.639C310.854 432.522 309.897 434.002 308.948 435.543C303.842 436.28 298.853 436.213 292.79 436.141Z" fill="#E6C37E"/>
<path d="M568.907 147.666C567.123 147.436 565.934 146.79 564.078 144.959C560.944 135.371 558.653 126.91 555.868 118.614C555.266 116.821 552.885 115.625 551.323 114.154C551.323 114.154 551.305 114.169 551.223 113.306C546.44 104.082 540.06 96.2084 537.456 87.2399C534.103 75.6897 528.065 70.5745 516.388 70.3189C513.2 70.2491 510.131 67.4449 506.894 66.1902C502.852 64.624 498.693 63.3623 490.885 60.7148C495.52 59.2162 498.205 57.8357 500.999 57.5623C505.392 57.1324 509.858 57.4481 514.294 57.4481C514.703 55.951 515.113 54.4539 515.522 52.9569C510.328 50.7581 505.314 47.7892 499.901 46.5291C490.134 44.2551 482.769 40.0636 480.976 29.3499C483.759 29.6255 487.06 29.029 489.239 30.3214C501.321 37.4869 513.129 45.1118 525.881 53.1122C525.089 54.7061 523.781 57.3385 522.521 59.875C523.03 60.7716 523.242 61.7315 523.824 62.087C538.693 71.1674 552.246 81.0354 554.207 100.589C554.514 103.647 559.005 106.286 562.435 109.278C565.671 120.083 568.034 130.729 570.572 142.266C570.331 144.522 569.916 145.886 568.907 147.666Z" fill="#DCB15F"/>
<path d="M180.282 419.577C191.149 419.85 200.888 422.017 208.424 431.259C210.288 433.545 216.371 432.396 221.003 433.416C206.839 442.002 192.096 441.373 175.977 433.525C166.271 423.79 150.277 430.866 143.809 417.901C143.715 417.713 142.306 418.379 141.556 418.286C136.972 417.717 132.373 417.199 127.831 416.374C116.218 414.263 104.632 411.999 93.0126 408.853C86.528 385.705 86.528 385.705 69.4255 392.126C65.1729 381.093 60.9023 370.015 57.345 359.242C60.0038 360.154 61.9493 360.76 64.504 361.367C65.5193 361.363 65.9255 361.359 66.9319 361.363C67.5321 361.372 68.7328 361.383 68.8362 362.16C70.5003 364.017 72.0614 365.097 73.6085 366.197C73.5945 366.216 73.6357 366.187 73.6339 367.103C75.6105 370.642 77.1177 373.915 79.6618 375.758C85.7208 380.149 94.5408 382.413 98.1982 388.124C109.47 405.727 125.189 411.083 144.743 409.996C148.077 409.81 152.891 410.506 154.669 412.699C161.079 420.606 169.466 419.623 178.466 419.551C179.071 419.559 180.282 419.577 180.282 419.577Z" fill="#E1B96F"/>
<path d="M49.2327 346.834C47.8641 345.44 45.38 344.109 45.2974 342.643C44.3484 325.8 36.4925 312.038 27.895 298.024C23.7978 291.345 24.2342 281.889 22.5492 272.785C22.4814 271.88 22.5695 271.793 23.2783 271.29C28.2742 266.049 31.961 260.405 37.1239 256.991C39.4 255.485 48.1353 258.919 48.0765 259.414C46.8325 269.877 44.7513 280.24 42.8099 290.753C45.369 296.346 50.2124 303.059 51.3537 310.351C52.9777 320.728 51.8825 331.53 51.9199 342.93C51.8914 344.755 51.8921 345.799 51.2279 346.841C50.1196 346.836 49.6762 346.835 49.2327 346.834Z" fill="#CFA14A"/>
<path d="M49.2519 347.636C49.6763 346.835 50.1197 346.836 51.8515 347.364C54.3041 351.573 55.4679 355.255 56.6318 358.937C60.9022 370.015 65.1728 381.094 69.4254 392.126C86.5279 385.705 86.5279 385.705 92.993 408.873C92.9962 409.837 92.9615 409.872 92.0566 409.853C82.4711 407.575 73.7906 405.316 64.0467 402.781C63.5984 403.973 62.5064 406.876 61.4146 409.779C59.5624 412.172 57.7102 414.565 54.421 416.569C52.7426 411.279 52.6485 406.364 52.2061 401.481C51.9261 398.389 52.2085 393.983 50.3668 392.52C43.7026 387.229 44.1213 381.504 46.1306 374.179C48.1189 366.931 48.2695 359.179 49.2262 351.648C49.2411 350.578 49.2561 349.508 49.2519 347.636Z" fill="#DCB05E"/>
<path d="M48.3748 351.812C48.2691 359.179 48.1186 366.931 46.1303 374.179C44.1209 381.504 43.7022 387.229 50.3665 392.52C52.2081 393.983 51.9257 398.389 52.2058 401.482C52.6481 406.364 52.7423 411.279 53.6417 416.734C54.0517 420.813 53.8036 424.339 53.4095 429.941C45.3892 422.969 38.4446 417.462 32.2921 411.179C30.9025 409.761 31.1019 404.21 32.5686 403.018C39.1691 397.655 37.2095 392.085 35.0636 385.604C34.0324 382.49 34.519 378.199 35.8587 375.107C39.2865 367.198 43.5778 359.661 48.3748 351.812Z" fill="#CFA14A"/>
<path d="M93.0155 409.817C104.632 411.999 116.217 414.263 127.831 416.374C132.372 417.199 136.972 417.717 141.556 418.286C142.306 418.379 143.714 417.713 143.808 417.901C150.277 430.866 166.27 423.79 175.058 433.355C166.378 442.887 157.304 438.455 147.169 433.077C139.707 430.302 133.307 428.575 126.907 426.848C126.907 426.848 126.943 426.805 126.561 426.067C121.341 424.34 116.542 422.981 111.653 422.443C103.101 421.503 93.4392 422.643 92.9611 409.872C92.9611 409.872 92.9959 409.837 93.0155 409.817Z" fill="#DCB05E"/>
<path d="M92.0563 409.853C93.4393 422.643 103.101 421.503 111.653 422.443C116.542 422.981 121.341 424.34 126.545 426.085C118.182 427.635 109.375 427.946 100.741 429.336C87.0454 431.54 80.1652 420.768 70.817 414.627C68.328 412.992 65.7791 411.448 62.336 409.821C62.5062 406.876 63.5982 403.973 64.0465 402.781C73.7903 405.316 82.4709 407.575 92.0563 409.853Z" fill="#CFA14A"/>
<path d="M51.9492 342.15C51.8826 331.53 52.9779 320.728 51.3538 310.351C50.2125 303.059 45.3692 296.346 42.81 290.753C44.7514 280.24 46.8327 269.877 48.0767 259.414C48.1354 258.919 39.4001 255.485 37.1241 256.991C31.9612 260.405 28.2744 266.049 23.3249 271.249C20.9898 263.811 30.3959 254.512 18.7731 247.61C17.8959 243.309 17.8836 239.153 17.8735 233.959C19.4812 230.266 21.0866 227.611 23.5824 224.16C33.927 240.904 49.2702 244.742 69.1499 241.577C67.9567 245.872 66.9692 249.512 65.934 253.138C62.1281 266.471 49.5985 277.289 54.2402 293.031C56.1158 299.392 59.8119 305.527 60.2482 311.931C60.9227 321.828 59.5089 331.867 58.1004 341.884C55.463 341.998 53.7062 342.074 51.9492 342.15Z" fill="#DCB05E"/>
<path d="M58.9807 341.846C59.5089 331.867 60.9227 321.828 60.2482 311.931C59.8119 305.527 56.1157 299.392 54.2402 293.031C49.5984 277.289 62.128 266.47 65.934 253.138C66.9692 249.512 67.9567 245.872 69.1499 241.577C49.2702 244.742 33.927 240.904 23.6227 223.244C22.6907 220.602 22.6091 218.078 22.4849 214.61C28.7385 197.17 35.0347 180.674 42.4277 163.071C46.2605 160.57 48.9962 159.176 52.3815 158.309C48.8361 167.509 45.4165 176.69 40.1866 184.688C36.3965 190.485 30.614 210.621 33.1794 216.999C34.3929 220.016 35.6128 223.03 36.7391 225.821C49.7432 214.884 58.8948 207.188 70.3298 197.571C69.783 206.433 85.8484 203.567 78.6638 214.832C73.3057 223.234 77.3032 230.702 78.1514 238.628C78.4164 241.104 79.0939 243.807 78.4303 246.068C73.6925 262.204 69.4925 277.962 72.5878 295.451C74.6954 307.361 79.7042 319.842 71.6228 332.56C66.3944 340.788 62.2894 350.713 66.3315 361.354C65.9254 361.359 65.5193 361.364 64.345 360.478C62.0448 353.674 60.5127 347.76 58.9807 341.846Z" fill="#E6C47F"/>
<path d="M143.087 27.237C147.003 32.4218 150.15 37.9581 154.02 44.7673C148.408 57.4427 144.22 60.2146 128.784 57.7255C119.66 56.2544 116.394 59.6824 118.546 68.0321C120.77 76.6586 115.988 77.7657 109.528 77.7866C104.044 77.8043 98.5597 77.7926 93.0761 77.7366C69.5973 77.4968 52.039 104.447 60.435 125.309C57.8366 126.29 56.0217 126.292 54.2069 126.295C50.9734 118.859 47.7399 111.422 44.5029 103.02C45.2696 97.0839 46.0399 92.1139 46.7663 86.1845C61.4586 72.988 64.424 54.3481 73.437 39.9854C66.5293 37.7566 61.2683 36.059 55.1515 34.2486C49.1284 29.5128 47.8811 25.1529 56.6013 24.7223C63.149 24.399 69.7965 26.1022 77.416 26.8821C81.3498 27.8788 85.4453 30.6622 86.9948 29.6297C97.4914 22.6348 114.125 22.9143 124.129 31.2781C131.852 37.7346 136.467 29.8284 143.087 27.237Z" fill="#E1BA70"/>
<path d="M51.7319 157.783C48.996 159.176 46.2602 160.57 42.8189 162.312C42.0995 159.856 42.3351 157.023 42.0264 154.251C40.9345 144.441 42.3723 136.073 54.4442 131.904C55.9416 131.145 56.3752 131.156 56.7598 132.145C55.0509 141.343 53.3913 149.563 51.7319 157.783Z" fill="#E1BA70"/>
<path d="M56.8091 131.166C56.3753 131.156 55.9417 131.145 54.858 131.13C54.2057 130.05 54.2036 128.977 54.2041 127.099C56.0216 126.292 57.8364 126.29 60.5593 126.285C61.4673 126.284 61.4752 126.292 61.3871 127.07C59.8024 128.953 58.3058 130.06 56.8091 131.166Z" fill="#E6C37E"/>
<path d="M254.869 75.6872C259.302 73.4246 263.112 71.4255 267.178 69.2924C281.271 92.5243 287.748 60.1786 300.395 65.3607C300.017 71.5306 299.58 78.6838 299.218 84.596C307.109 87.8884 313.414 90.5189 321.057 93.7079C321.855 92.428 322.983 89.5183 325.041 87.6127C327.202 85.6127 330.912 82.7307 332.813 83.4078C348.483 88.9885 364.022 84.0218 379.591 83.7752C382.521 83.7288 385.767 84.4529 388.363 85.7952C400.908 92.2811 408.785 89.6832 418.742 78.7882C422.981 74.1489 430.84 72.8132 438.09 69.2463C440.131 71.6007 441.136 74.6849 441.394 78.1057C437.21 80.9356 433.772 83.429 430.509 85.7955C436.546 98.2467 444.785 97.9808 454.311 92.3677C455.69 91.5552 457.14 90.8524 458.599 90.1898C469.843 85.0829 474.593 88.2685 476.405 100.338C477.133 105.188 480.98 109.57 483.408 114.166C483.408 114.166 483.408 114.169 483.506 115.078C488.957 127.241 495.198 130.462 508.615 124.134C518.653 119.399 526.201 120.279 534.349 126.267C534.349 126.267 534.403 127.462 534.044 128.874C534.026 137.971 534.366 145.657 534.666 152.446C540.15 152.446 545.429 151.037 548.704 152.988C550.589 154.111 549.227 160.673 549.329 164.787C549.577 174.737 546.813 183.929 549.85 194.898C553.22 207.069 550.882 222.525 539.152 231.901C539.166 219.815 539.966 208.638 538.817 197.665C538.341 193.117 533.697 189.005 530.948 184.694C527.292 188.173 522.915 191.166 520.165 195.254C516.858 200.171 514.936 206.018 512.34 211.621C492.171 200.13 488.271 188.981 495.926 167.352C499.451 170.611 502.151 174.672 505.875 176.138C510.132 177.815 515.299 177.183 520.071 177.554C519.004 168.053 518.206 158.505 516.589 149.098C516.337 147.632 512.352 146.808 510.085 144.736C507.853 131.701 503.972 129.748 488.379 133.762C485.79 134.429 482.08 136.941 481.86 138.929C481.622 141.084 484.508 145.23 486.648 145.698C493.499 147.199 500.636 147.399 507.5 149.005C497.322 162.916 483.105 149.445 470.341 155.286C473.356 159.505 475.702 162.786 478.966 167.354C471.139 176.335 463.328 185.161 455.674 194.121C448.783 202.187 441.442 198.928 435.575 193.767C432.587 191.138 432.386 185.345 430.539 179.829C426.544 181.632 422.753 184.399 418.664 184.947C412.13 185.822 404.425 187.302 398.978 184.758C390.829 180.953 385.235 151.022 390.461 143.424C395.305 136.383 393.176 132.678 386.119 129.022C384.717 130.801 383.526 132.312 382.335 133.822C372.432 146.383 364.702 145.909 358.876 131.698C355.094 122.472 347.993 123.08 340.809 124.299C332.194 125.762 323.785 128.393 315.22 130.211C296.693 134.143 274.613 118.608 272.982 100.137C264.505 103.455 264.657 109.399 266.174 116.814C266.844 120.095 265.077 124.342 263.207 127.416C262.574 128.459 257.644 128.118 255.738 126.836C253.659 125.436 252.81 122.21 251.424 119.78C249.64 120.095 247.857 120.409 246.073 120.724C242.376 131.105 238.454 141.415 235.157 151.922C234.426 154.252 235.085 157.838 236.499 159.884C244.53 171.504 240.898 181.54 233.146 192.038C231.049 190.862 228.922 190.311 227.826 188.938C224.195 184.389 222.295 177.794 213.903 180.897C205.21 184.111 200.937 189.178 201.854 199.009C202.304 203.836 200.057 208.915 198.933 214.35C200.077 215.38 201.896 217.017 204.369 219.241C199.683 220.542 196.342 221.469 194.86 221.88C192.149 228.482 189.634 233.366 188.119 238.541C184.526 250.817 181.326 263.211 178.228 275.623C177.931 276.81 179.079 279.185 180.203 279.77C192.262 286.05 191.977 296.317 190.224 307.658C189.666 311.27 192.274 315.257 192.438 319.115C192.814 327.983 197.735 337.234 188.417 345.251C182.649 350.213 179.349 356.639 189.138 362.737C193.608 365.521 197.234 370.895 199.384 375.893C203.326 385.06 201.166 400.604 219.252 391.812C231.303 399.15 235.228 391.093 239.593 381.846C244.206 372.074 250.106 362.91 255.444 353.48C257.375 352.8 259.306 352.12 261.236 351.441C263.461 355.323 265.525 359.309 267.941 363.069C274.907 373.912 283.217 378.453 296.199 371.451C304.593 366.924 329.519 372 330.587 378.403C331.622 384.617 326.776 391.803 324.554 398.576C324.315 399.305 324.354 400.125 323.941 403.708C329.601 403.708 335.194 404.427 340.514 403.53C347.547 402.345 354.642 397.682 361.215 398.498C371.483 399.772 381.335 404.39 391.196 408.42C380.53 417.558 370.483 409.362 360.228 408.458C356.968 408.171 352.952 407.133 350.509 408.551C341.121 414.001 332.608 419.274 320.471 415.504C314.123 413.532 306.276 416.38 299.107 417.05C294.875 417.812 290.642 418.574 285.473 418.443C284.076 415.616 283.491 413.701 283.18 411.743C282.142 405.186 283.198 394.654 279.779 392.932C273.952 389.999 265.331 392.494 257.895 392.896C242.995 393.701 236.302 406.611 226.225 414.529C223.676 414.56 221.126 414.592 217.005 413.966C211.799 412.963 208.166 412.618 204.533 412.274C202.402 411.044 200.271 409.814 197.709 407.086C194.521 403.555 189.862 399.32 189.288 399.816C179.51 408.252 168.928 404.242 157.897 402.531C157.313 402.511 156.146 402.461 156.016 401.582C148.183 397.324 140.059 394.657 132.873 390.406C120.946 383.352 104.576 381.507 101.665 363.21C100.859 358.146 95.3012 353.837 90.9975 347.905C87.6917 353.536 85.6003 357.098 83.4263 360.8C72.3856 349.673 72.9994 340.148 81.2439 334.692C84.5994 318.855 84.1147 303.826 90.8839 293.588C99.3067 280.847 96.4748 274.31 84.1793 265.848C90.8735 257.073 96.226 248.13 103.439 241.093C112.178 232.568 109.896 222.2 111.118 212.268C111.679 207.712 110.939 201.863 113.479 198.921C118.75 192.817 125.316 187.419 132.276 183.292C140.518 178.406 140.464 173.612 135.314 166.738C131.827 162.084 127.019 157.138 126.386 151.891C124.962 140.079 122.43 137.226 111.073 139.07C106.934 139.743 102.558 138.811 98.3021 138.956C95.225 139.061 91.2651 138.654 89.2508 140.334C78.0732 149.656 68.8 160.189 64.6466 174.994C62.3309 183.248 56.6767 190.566 52.5271 198.306C51.2972 197.853 50.0672 197.401 48.8373 196.948C50.1041 191.484 51.1462 185.956 52.6946 180.574C54.6055 173.932 57.7057 167.548 58.9076 160.807C60.7105 150.695 59.7439 140.862 68.3094 131.827C75.5173 124.225 87.8403 118.905 87.4395 105.013C87.4062 103.864 94.8137 100.694 97.8937 101.559C115.748 106.573 126.702 98.8252 126.847 80.1817C126.847 80.1817 126.891 79.0029 127.695 78.3122C129.607 76.0792 130.715 74.5368 131.822 72.9944C131.822 72.9944 133.001 72.9535 134.527 72.8502C148.769 70.4631 161.433 67.6771 174.249 66.3324C176.719 66.0733 180.011 71.2731 182.51 74.2966C185.279 77.6472 187.573 81.39 190.073 84.962C192.636 84.9831 195.199 85.0041 199.21 85.7227C202.462 87.9493 205.27 89.1458 205.906 91.0624C209.612 102.222 215.979 101.484 224.258 96.1493C228.24 93.584 233.226 92.5255 237.074 89.8159C241.98 86.3612 246.196 81.9263 250.709 77.9139C251.889 77.2596 253.068 76.6052 254.869 75.6872ZM124.345 338.113C127.985 334.303 132.277 330.913 135.08 326.564C137.823 322.306 140.747 317.018 140.597 312.278C140.258 301.629 137.759 291.07 136.706 280.418C135.603 269.253 135.163 258.022 134.403 246.367C136.234 246.988 139.303 248.027 141.361 248.724C146.783 240.475 151.846 232.773 157.306 224.466C154.161 219.919 150.358 214.421 146.488 208.827C151.681 204.473 156.193 200.689 160.705 196.905C159.817 195.88 158.929 194.854 158.041 193.828C145.265 204.464 123.863 204.191 120.315 226.639C119.644 230.882 117.127 234.844 115.389 238.905C108.913 254.033 98.1282 268.337 106.977 286.302C107.86 288.095 107.347 291.39 106.225 293.217C100.304 302.855 106.064 306.945 113.743 310.612C115.829 311.608 117.447 313.582 118.132 314.152C108.444 318.813 99.3764 323.177 90.3083 327.54C90.6546 328.747 91.0011 329.955 91.3474 331.162C95.626 332.945 102.369 333.624 103.75 336.704C109.31 349.098 115.847 343.699 124.345 338.113ZM145.957 108.566C156.224 120.846 167.345 129.632 182.845 117.176C185.27 120.591 187.218 123.334 189.329 126.306C195.702 118.98 192.266 97.0755 185.141 94.0273C184.124 93.5925 182.85 93.5395 181.72 93.6288C177.337 93.9752 172.967 94.4883 168.586 94.87C159.051 95.7008 149.512 96.489 137.745 97.483C141.312 102.205 143.161 104.652 145.957 108.566Z" fill="#EFD9AA"/>
<path d="M126.023 80.3374C126.702 98.8252 115.748 106.573 97.8935 101.559C94.8135 100.694 87.406 103.864 87.4393 105.013C87.8401 118.905 75.5171 124.225 68.3092 131.827C59.7437 140.862 60.7103 150.695 58.9074 160.807C57.7055 167.548 54.6053 173.932 52.6944 180.574C51.146 185.956 50.1039 191.484 48.8371 196.948C50.067 197.401 51.297 197.854 52.5269 198.306C56.6765 190.566 62.3307 183.248 64.6464 174.994C68.7999 160.189 78.073 149.656 89.2506 140.334C91.2649 138.654 95.2248 139.061 98.3019 138.956C102.558 138.811 106.934 139.743 111.073 139.07C122.429 137.226 124.962 140.079 126.386 151.891C127.019 157.138 131.827 162.085 135.313 166.738C140.464 173.612 140.517 178.406 132.276 183.292C125.316 187.419 118.749 192.817 113.479 198.921C110.939 201.863 111.679 207.712 111.118 212.268C109.895 222.2 112.178 232.568 103.439 241.093C96.2258 248.13 90.8733 257.073 84.1791 265.848C96.4746 274.31 99.3065 280.847 90.8837 293.588C84.1145 303.826 84.5992 318.855 81.2437 334.692C72.9992 340.148 72.3854 349.673 83.4261 360.801C85.6002 357.098 87.6915 353.536 90.9973 347.905C95.3011 353.837 100.859 358.146 101.665 363.21C104.576 381.507 120.946 383.352 132.872 390.406C140.059 394.657 148.183 397.324 155.02 401.618C138.141 402.255 123.816 398.567 110.651 388.047C99.5679 379.191 86.0664 373.358 73.6355 366.187C73.6355 366.187 73.5944 366.216 73.5005 365.423C71.8488 363.548 70.2907 362.466 68.7327 361.383C68.7327 361.383 67.5319 361.372 66.9317 361.363C62.2892 350.714 66.3943 340.788 71.6226 332.56C79.704 319.842 74.6952 307.361 72.5876 295.451C69.4924 277.962 73.6923 262.204 78.4302 246.068C79.0938 243.807 78.4162 241.104 78.1513 238.628C77.3031 230.702 73.3056 223.234 78.6637 214.833C85.8482 203.567 69.7829 206.433 70.3296 197.571C58.8947 207.188 49.7431 214.884 36.739 225.821C35.6126 223.03 34.3928 220.016 33.1793 216.999C30.6139 210.621 36.3963 190.485 40.1865 184.688C45.4164 176.69 48.8359 167.509 52.3814 158.309C53.3914 149.563 55.051 141.343 56.7599 132.145C58.3058 130.06 59.8024 128.953 61.4022 127.085C62.2889 126.176 63.4925 126.302 63.7943 125.84C70.3061 115.871 76.7092 105.831 83.1523 95.8173C85.4385 92.2639 87.1507 86.5727 90.2271 85.6886C95.5328 84.164 102.566 80.4607 107.059 88.6187C108.436 91.1188 111.5 92.6906 114.509 95.3117C118.507 89.7692 121.853 85.1312 126.023 80.3374Z" fill="#E9CC91"/>
<path d="M529.671 363.891C529.629 364.948 529.586 366.006 528.89 368.363C521.873 381.778 515.723 392.198 501.449 399.218C490.715 404.497 480.266 410.153 469.129 415.129C461.071 418.73 453.384 422.847 444.555 424.474C444.555 424.474 443.364 424.426 442.762 423.495C440.986 417.107 440.981 411.274 431.955 413.111C429.51 413.609 425.812 407.951 423.556 404.998C430.839 402.503 437.324 391.145 443.78 404.168C448.323 413.333 451.769 410.518 456.905 404.867C465.116 395.832 469.529 383.577 479.89 376.644C483.689 374.102 489.362 373.996 494.251 373.552C498.285 373.186 502.423 373.958 506.515 374.226C504.586 366.367 519.052 363.274 511.896 353.27C502.4 339.996 496.042 325.547 505.203 308.505C510.133 308.993 515.452 309.52 519.611 309.931C523.772 300.25 527.354 291.917 530.987 283.465C524.379 273.579 528.859 247.631 539.187 238.538C541.122 242.004 542.927 244.608 544.738 247.207C555.145 262.138 551.633 286.858 538.227 292.463C536.308 293.266 534.088 293.35 532.008 293.766C530.737 295.412 529.465 297.057 528.194 298.703C532.787 300.87 537.381 303.038 544.066 306.194C537.672 313.336 532.535 319.075 527.397 324.814C526.059 324.271 524.72 323.728 523.382 323.185C525.478 336.754 527.575 350.322 529.671 363.891Z" fill="#EFD9AA"/>
<path d="M530.504 363.706C527.575 350.322 525.479 336.754 523.382 323.185C524.721 323.728 526.059 324.271 527.398 324.814C532.535 319.075 537.673 313.336 544.066 306.194C537.381 303.038 532.788 300.87 528.195 298.703C529.466 297.057 530.737 295.412 532.008 293.766C534.089 293.35 536.308 293.266 538.227 292.463C551.633 286.858 555.145 262.138 544.738 247.207C542.927 244.608 541.122 242.004 539.208 237.742C539.118 235.018 539.135 233.955 539.151 232.891C550.882 222.525 553.22 207.069 549.85 194.898C546.813 183.929 549.577 174.738 549.329 164.787C549.227 160.673 550.589 154.111 548.704 152.989C545.429 151.037 540.15 152.446 534.667 152.446C534.366 145.657 534.026 137.971 534.064 129.472C537.369 133.008 539.339 139.602 543.385 141.324C562.501 149.459 557.953 163.17 554.08 177.701C553.061 181.525 554.336 186.809 556.337 190.443C565.087 206.337 555.27 218.535 549.027 231.52C548.36 232.907 547.584 234.241 546.408 236.443C560.361 241.379 556.244 254.061 558.222 263.732C560.363 274.2 561.366 285.387 560.026 295.899C559.221 302.217 553.638 308.418 549.013 313.615C544.759 318.395 544.014 321.621 548.034 326.985C555.553 337.018 552.503 346.061 541.894 351.944C537.565 354.345 534.808 359.578 530.504 363.706Z" fill="#E9CC91"/>
<path d="M422.689 405.119C425.812 407.951 429.51 413.609 431.955 413.111C440.981 411.274 440.986 417.108 442.166 423.478C436.541 423.798 430.91 423.205 425.279 422.611C416.386 425.169 407.776 427.418 398.925 419.396C397.139 417.777 391.305 417.945 389.376 419.626C381.276 426.683 371.256 427.804 361.597 429.45C354.69 430.628 347.416 429.657 340.305 429.63C339.911 429.629 339.465 429.341 339.132 429.452C323.603 434.64 312.525 424.204 299.621 417.716C306.276 416.38 314.123 413.533 320.471 415.504C332.608 419.274 341.121 414.001 350.509 408.551C352.952 407.133 356.968 408.171 360.228 408.459C370.483 409.362 380.53 417.559 392.163 408.388C403.096 406.723 412.892 405.921 422.689 405.119Z" fill="#E9CC91"/>
<path d="M227.213 414.584C236.302 406.611 242.995 393.701 257.895 392.896C265.331 392.494 273.952 389.999 279.779 392.932C283.198 394.654 282.142 405.186 283.18 411.743C283.491 413.701 284.076 415.616 284.552 418.535C273.771 422.45 263.071 425.908 252.106 427.934C249.403 428.434 245.918 424.133 242.649 422.293C237.902 419.62 233.024 417.179 227.213 414.584Z" fill="#E9CC91"/>
<path d="M444.786 425.4C453.384 422.847 461.071 418.73 469.129 415.129C480.266 410.152 490.715 404.497 501.448 399.218C515.723 392.198 521.873 381.778 528.908 369.156C535.3 385.197 522.336 405.802 503.168 412.401C490.32 416.824 478.305 423.775 465.344 427.705C459.267 429.547 451.835 426.925 444.786 425.4Z" fill="#E9CC91"/>
<path d="M158.48 402.55C168.928 404.242 179.509 408.252 189.288 399.816C189.862 399.32 194.521 403.555 197.3 406.476C188.212 405.334 185.133 412.487 180.649 418.818C180.282 419.577 179.071 419.559 178.094 418.806C170.904 412.885 164.692 407.718 158.48 402.55Z" fill="#E9CC91"/>
<path d="M534.336 125.359C526.201 120.279 518.653 119.399 508.615 124.134C495.198 130.462 488.957 127.241 483.509 115.077C487.862 115.967 492.218 118.904 496.782 119.273C502.16 119.708 508.753 119.516 512.991 116.773C522.747 110.458 529.539 112.287 534.336 125.359Z" fill="#E9CC91"/>
<path d="M551.315 115.176C552.885 115.625 555.266 116.821 555.868 118.614C558.653 126.91 560.944 135.371 563.456 144.686C553.58 141.998 546.555 136.844 551.056 124.538C551.962 122.059 551.264 118.994 551.315 115.176Z" fill="#E1BA71"/>
<path d="M204.547 413.138C208.166 412.618 211.799 412.963 216.048 413.965C214.741 416.784 212.817 418.945 210.893 421.106C208.782 418.738 206.671 416.37 204.547 413.138Z" fill="#E9CC91"/>
<path d="M157.897 402.531C164.693 407.718 170.905 412.886 177.488 418.798C169.465 419.623 161.079 420.606 154.669 412.699C152.891 410.506 148.077 409.81 144.743 409.996C125.189 411.083 109.47 405.727 98.198 388.124C94.5406 382.413 85.7206 380.149 79.6615 375.758C77.1175 373.915 75.6103 370.642 73.6337 367.103C86.0664 373.358 99.5679 379.191 110.651 388.047C123.816 398.567 138.141 402.255 155.149 402.497C156.146 402.461 157.313 402.511 157.897 402.531Z" fill="#E6C37E"/>
<path d="M58.1004 341.884C60.5127 347.76 62.0449 353.674 63.7358 360.477C61.9493 360.76 60.0037 360.154 57.3449 359.242C55.4679 355.255 54.3042 351.573 52.5167 347.368C51.8923 345.799 51.8915 344.755 51.9199 342.93C53.7062 342.074 55.463 341.998 58.1004 341.884Z" fill="#E6C37E"/>
<path d="M68.8357 362.16C70.2904 362.466 71.8485 363.548 73.5142 365.404C72.0609 365.097 70.4999 364.017 68.8357 362.16Z" fill="#E6C37E"/>
<path d="M423.556 404.998C412.892 405.921 403.096 406.723 392.331 407.558C381.335 404.39 371.483 399.772 361.215 398.498C354.642 397.682 347.547 402.345 340.514 403.53C335.194 404.427 329.601 403.708 323.941 403.708C324.354 400.125 324.314 399.305 324.554 398.576C326.775 391.803 331.622 384.617 330.587 378.403C329.519 372 304.593 366.924 296.199 371.451C283.216 378.453 274.907 373.913 267.941 363.069C265.525 359.309 263.461 355.323 261.236 351.441C259.305 352.121 257.375 352.8 255.444 353.48C250.106 362.91 244.206 372.074 239.593 381.846C235.228 391.093 231.302 399.15 219.252 391.812C201.166 400.604 203.326 385.06 199.384 375.893C197.234 370.895 193.608 365.521 189.138 362.737C179.349 356.639 182.649 350.213 188.417 345.251C197.735 337.234 192.814 327.983 192.438 319.115C192.274 315.257 189.666 311.27 190.224 307.658C191.977 296.318 192.262 286.05 180.202 279.77C179.079 279.186 177.931 276.81 178.228 275.623C181.326 263.212 184.526 250.817 188.119 238.541C189.634 233.366 192.148 228.482 194.86 221.88C196.342 221.469 199.683 220.542 204.369 219.241C201.896 217.017 200.077 215.38 198.932 214.35C200.056 208.915 202.303 203.836 201.853 199.009C200.937 189.178 205.209 184.111 213.903 180.897C222.295 177.794 224.195 184.389 227.826 188.938C228.922 190.311 231.049 190.862 233.146 192.038C240.898 181.54 244.53 171.504 236.499 159.884C235.085 157.838 234.426 154.252 235.157 151.922C238.454 141.415 242.376 131.105 246.073 120.724C247.857 120.409 249.64 120.095 251.424 119.781C252.809 122.21 253.659 125.436 255.738 126.836C257.644 128.118 262.573 128.459 263.207 127.416C265.076 124.342 266.844 120.095 266.173 116.814C264.657 109.399 264.505 103.455 272.982 100.137C274.613 118.608 296.693 134.143 315.22 130.211C323.784 128.394 332.193 125.762 340.809 124.299C347.992 123.08 355.093 122.472 358.876 131.698C364.702 145.909 372.432 146.383 382.335 133.822C383.526 132.312 384.717 130.801 386.119 129.023C393.176 132.678 395.305 136.383 390.461 143.424C385.235 151.022 390.829 180.953 398.977 184.759C404.425 187.303 412.129 185.822 418.664 184.947C422.753 184.399 426.544 181.632 430.539 179.829C432.386 185.345 432.587 191.138 435.575 193.767C441.442 198.929 448.783 202.187 455.674 194.121C463.328 185.161 471.139 176.335 478.966 167.354C475.701 162.786 473.356 159.505 470.341 155.286C483.105 149.445 497.322 162.916 508.025 148.737C509.367 147.081 509.827 146.455 510.093 145.688C512.352 146.808 516.337 147.633 516.589 149.098C518.205 158.505 519.003 168.053 520.071 177.554C515.299 177.183 510.132 177.815 505.875 176.138C502.151 174.672 499.451 170.611 495.926 167.352C488.271 188.981 492.171 200.13 512.34 211.621C514.935 206.018 516.858 200.171 520.165 195.254C522.914 191.166 527.292 188.173 530.948 184.695C533.697 189.005 538.341 193.117 538.817 197.665C539.965 208.638 539.166 219.816 539.152 231.901C539.134 233.955 539.118 235.018 539.08 236.878C528.859 247.631 524.379 273.579 530.987 283.465C527.354 291.917 523.772 300.25 519.611 309.931C515.452 309.52 510.133 308.993 505.203 308.505C496.042 325.547 502.4 339.996 511.896 353.27C519.052 363.274 504.586 366.367 506.515 374.226C502.423 373.958 498.285 373.186 494.25 373.552C489.362 373.996 483.689 374.102 479.89 376.644C469.529 383.577 465.116 395.832 456.905 404.867C451.769 410.518 448.323 413.333 443.78 404.168C437.324 391.145 430.839 402.503 423.556 404.998ZM441.813 298.627C430.21 297.728 418.615 296.261 407.002 296.114C398.308 296.004 394.255 291.969 396.4 284.32C399.982 271.547 391.429 266.558 383.072 262.319C373.328 257.376 363.553 258.114 355.797 267.454C353.828 269.826 351.179 272.665 348.467 273.137C344.888 273.759 340.939 272.258 337.149 271.671C338.16 268.763 339.36 265.904 340.132 262.935C340.961 259.744 341.388 256.448 342.006 253.118C333.222 256.025 325.732 257.22 319.693 260.836C312.67 265.042 306.496 270.979 300.905 277.041C299.469 278.597 300.514 284.255 302.283 286.657C314.304 302.972 312.958 312.799 297.131 326.458C293.395 329.682 291.412 334.934 287.339 341.24C296.374 341.24 302.964 343.165 307.221 340.834C315.769 336.156 320.777 339.17 325.62 345.486C329.656 350.751 333.958 352.122 340.086 348.418C344.445 345.782 349.438 343.371 354.384 342.756C359.662 342.099 365.204 343.914 370.655 344.224C386.363 345.116 402.081 345.861 417.803 346.427C419.052 346.472 420.694 344.944 421.598 343.733C429.741 332.815 437.485 321.587 445.931 310.911C450.249 305.453 448.454 302.34 441.813 298.627ZM300.939 240.195C297.693 227.501 313.811 233.342 315.148 227.528C310.918 218.587 307.473 211.562 304.252 204.437C299.755 194.493 283.687 186.53 273.51 189.676C271.476 190.304 269.294 192.079 268.228 193.929C264.15 201.005 260.233 208.203 256.795 215.606C254.864 219.762 253.99 224.407 252.639 228.832C253.987 227.997 255.334 227.162 256.681 226.328C268.707 231.421 280.688 236.627 292.805 241.495C294.813 242.302 297.416 241.632 300.939 240.195Z" fill="#F7E9C4"/>
<path d="M123.59 338.637C115.847 343.699 109.309 349.098 103.75 336.704C102.369 333.624 95.6258 332.945 91.3472 331.162C91.0009 329.955 90.6544 328.747 90.3081 327.54C99.3763 323.177 108.444 318.814 118.132 314.152C117.446 313.582 115.829 311.608 113.743 310.612C106.064 306.945 100.303 302.855 106.225 293.217C107.347 291.39 107.86 288.095 106.977 286.303C98.128 268.337 108.913 254.033 115.388 238.905C117.126 234.844 119.644 230.882 120.314 226.639C123.863 204.191 145.265 204.464 158.041 193.828C158.929 194.854 159.817 195.88 160.705 196.905C156.192 200.689 151.68 204.473 146.488 208.827C150.358 214.421 154.161 219.919 157.306 224.466C151.846 232.773 146.783 240.476 141.361 248.724C139.303 248.027 136.234 246.988 134.403 246.367C135.162 258.022 135.603 269.253 136.706 280.418C137.759 291.07 140.258 301.629 140.597 312.278C140.747 317.018 137.823 322.306 135.079 326.564C132.277 330.913 127.985 334.303 123.59 338.637Z" fill="#F7E9C3"/>
<path d="M145.483 107.833C143.161 104.652 141.312 102.205 137.745 97.4831C149.512 96.4891 159.051 95.7009 168.585 94.8702C172.967 94.4885 177.337 93.9753 181.72 93.6289C182.85 93.5396 184.124 93.5926 185.141 94.0274C192.266 97.0756 195.702 118.98 189.329 126.306C187.218 123.334 185.27 120.591 182.845 117.176C167.344 129.632 156.224 120.846 145.483 107.833Z" fill="#F7E9C3"/>
<path d="M510.085 144.736C509.827 146.455 509.367 147.081 508.188 147.833C500.636 147.399 493.499 147.199 486.647 145.698C484.508 145.23 481.622 141.084 481.86 138.929C482.08 136.941 485.79 134.429 488.379 133.762C503.971 129.748 507.853 131.701 510.085 144.736Z" fill="#E8CE98"/>
<path d="M442.705 298.957C448.454 302.34 450.25 305.453 445.931 310.911C437.486 321.587 429.742 332.815 421.598 343.733C420.694 344.944 419.052 346.472 417.804 346.427C402.081 345.861 386.364 345.116 370.656 344.224C365.205 343.914 359.662 342.099 354.384 342.756C349.438 343.371 344.445 345.782 340.086 348.418C333.959 352.122 329.656 350.751 325.62 345.486C320.777 339.17 315.769 336.156 307.221 340.834C302.964 343.165 296.375 341.24 287.339 341.24C291.412 334.934 293.395 329.682 297.131 326.458C312.959 312.799 314.304 302.972 302.283 286.657C300.514 284.255 299.469 278.597 300.905 277.041C306.496 270.979 312.67 265.042 319.693 260.836C325.732 257.22 333.222 256.025 342.006 253.118C341.388 256.448 340.961 259.744 340.132 262.935C339.36 265.905 338.161 268.763 337.149 271.671C340.939 272.258 344.888 273.759 348.467 273.137C351.179 272.665 353.828 269.826 355.798 267.454C363.553 258.114 373.328 257.376 383.072 262.319C391.429 266.558 399.982 271.547 396.4 284.32C394.255 291.969 398.308 296.004 407.002 296.114C418.615 296.262 430.21 297.728 442.705 298.957Z" fill="#FCF4DC"/>
<path d="M300.341 240.919C297.415 241.632 294.813 242.302 292.805 241.495C280.688 236.627 268.707 231.421 256.681 226.328C255.334 227.162 253.986 227.997 252.639 228.832C253.989 224.407 254.864 219.762 256.794 215.606C260.233 208.203 264.15 201.005 268.228 193.929C269.294 192.079 271.475 190.304 273.51 189.676C283.687 186.53 299.755 194.493 304.251 204.437C307.473 211.562 310.917 218.587 315.147 227.528C313.811 233.341 297.693 227.501 300.341 240.919Z" fill="#FCF4DC"/>
<path d="M478.487 79.3169C472.452 80.2717 466.033 79.2651 460.26 80.7569C455.455 81.9988 451.408 86.1744 445.381 90.1293C444.211 86.292 443.193 82.9584 442.158 78.697C441.135 74.6849 440.131 71.6007 438.276 68.3656C430.711 68.0241 426.543 66.3372 428.794 57.9398C430.219 52.6204 429.703 46.7816 430.062 40.1054C445.241 41.6644 447.678 45.0877 447.862 60.637C447.891 63.1405 452.232 67.543 454.744 67.6636C460.073 67.9195 465.51 65.9326 472.364 64.5762C474.097 68.5665 476.24 73.5019 478.487 79.3169Z" fill="#E6C47F"/>
<path d="M483.412 113.061C480.98 109.57 477.132 105.188 476.404 100.338C474.592 88.2685 469.843 85.083 458.599 90.1898C457.14 90.8525 455.69 91.5553 454.311 92.3677C444.784 97.9808 436.545 98.2468 430.509 85.7955C433.772 83.429 437.21 80.9357 441.412 79.0336C443.193 82.9584 444.211 86.2919 445.381 90.1293C451.408 86.1744 455.455 81.9988 460.26 80.7569C466.033 79.2651 472.452 80.2717 478.591 80.1965C479.369 80.4538 480.001 80.912 480.764 82.0947C481.833 92.3978 482.625 102.177 483.412 113.061Z" fill="#E9CC91"/>
<path d="M430.065 39.0351C426.586 37.4794 423.107 35.9238 418.784 34.2737C417.167 32.3295 416.394 30.4799 415.541 27.8855C421.27 27.834 427.078 28.5273 434.215 29.9554C440.247 39.4502 443.857 36.3561 447.13 29.6211C448.924 29.5494 450.718 29.4778 453.807 30.145C460.306 35.9416 464.913 35.611 468.864 29.3601C472.229 29.3542 475.594 29.3484 479.968 29.3462C482.769 40.0636 490.135 44.2552 499.902 46.5291C505.314 47.7892 510.329 50.7582 515.522 52.9569C515.113 54.454 514.704 55.951 514.294 57.4481C509.859 57.4481 505.393 57.1324 500.999 57.5624C498.206 57.8357 495.52 59.2162 490.886 60.7149C498.693 63.3623 502.853 64.624 506.894 66.1902C510.132 67.4449 513.2 70.2492 516.389 70.3189C528.065 70.5745 534.104 75.6897 537.457 87.2399C540.061 96.2085 546.44 104.082 551.232 113.297C534.269 111.282 532.668 96.0547 526.62 84.0913C525.133 81.15 520.121 79.9885 516.73 78.0087C515.401 80.9008 513.736 83.6929 512.838 86.713C511.93 89.7707 511.849 95.7946 511.287 95.8089C506.358 95.934 500.809 96.1876 496.604 94.0858C491.398 91.4834 487.299 86.668 481.604 82.1898C480.001 80.912 479.369 80.4538 478.488 79.3169C476.24 73.5019 474.097 68.5665 472.364 64.5762C465.511 65.9326 460.074 67.9195 454.744 67.6636C452.233 67.543 447.892 63.1405 447.862 60.637C447.678 45.0877 445.242 41.6644 430.065 39.0351Z" fill="#E1BA71"/>
<path d="M328.277 32.7059C339.196 27.5024 349.438 27.4612 359.206 35.6914C361.411 37.5498 366.195 36.352 370.794 36.5552C373.301 38.8519 374.476 42.743 376.376 43.1363C380.737 44.039 385.452 43.237 390.023 43.127C389.623 48.5073 389.223 53.8876 388.986 57.0807C380.711 60.2748 374.472 63.8718 367.828 64.9289C360.488 66.0968 352.758 65.1974 345.236 64.6637C342.234 64.4507 339.026 61.4593 336.437 62.0466C324.541 64.7451 323.586 56.3969 320.792 47.9846C325.995 46.8223 330.382 45.8421 336.136 44.5565C333.083 40.2218 330.74 36.8962 328.277 32.7059Z" fill="#DCB160"/>
<path d="M375.037 36.4392C377.901 30.9279 381.101 21.3124 385.538 20.7039C394.267 19.5065 405.313 14.6073 412.969 25.905C411.378 27.6292 409.303 29.4683 407.973 29.033C395.708 25.0168 384.794 26.0276 375.037 36.4392Z" fill="#DCB160"/>
<path d="M313.79 25.2707C317.295 26.6526 320.848 28.8874 325.113 31.5106C318.582 36.7048 316.314 31.2001 313.79 25.2707Z" fill="#DCB160"/>
<path d="M446.761 28.856C443.857 36.3561 440.247 39.4502 435.222 29.9422C437.473 15.7317 442.352 26.2813 446.761 28.856Z" fill="#D2A452"/>
<path d="M468.266 28.6975C464.913 35.6109 460.306 35.9415 454.705 30.1398C458.761 28.9421 463.214 28.4885 468.266 28.6975Z" fill="#DCB15F"/>
<path d="M127.046 427.697C133.308 428.575 139.707 430.303 146.256 432.929C139.997 432.067 133.59 430.306 127.046 427.697Z" fill="#CFA14A"/>
<path d="M190.052 83.9222C187.572 81.39 185.279 77.6472 182.51 74.2966C180.011 71.2731 176.718 66.0733 174.248 66.3324C161.433 67.6771 148.769 70.4631 135.117 72.8308C136.851 69.7396 138.948 64.8128 142.299 63.7167C152.522 60.373 163.126 57.7654 173.779 56.3004C182.048 55.1632 187.471 60.1849 188.847 68.5428C189.624 73.2599 189.661 78.0985 190.052 83.9222Z" fill="#E9CC91"/>
<path d="M249.687 77.8775C246.196 81.9264 241.98 86.3613 237.074 89.816C233.226 92.5256 228.24 93.5841 224.258 96.1494C215.979 101.484 209.612 102.222 205.906 91.0625C205.269 89.146 202.462 87.9494 200.171 85.726C203.215 76.1265 207.967 83.1818 210.171 85.2246C215.777 90.4215 219.31 89.5299 225.563 85.4843C232.152 81.2208 240.874 80.2502 249.687 77.8775Z" fill="#E9CC91"/>
<path d="M255.491 75.4236C258.257 69.8224 261.274 64.3278 263.713 58.5877C265.87 53.5125 267.382 48.1639 269.179 42.9359C264.487 41.6335 259.794 40.3311 254.074 39.027C252.24 39.0197 251.344 39.245 250.645 38.971C246.06 37.176 241.517 35.2731 236.96 33.4055C241.547 32.8375 246.16 31.6418 250.717 31.8246C262.3 32.2893 273.863 33.2977 285.423 34.231C293.347 34.8707 297.606 37.7908 299.713 47.0084C302.059 57.2713 307.598 67.6247 314.424 75.6702C317.456 79.2442 327.069 77.8321 333.67 77.6668C346.859 77.3366 360.06 75.4509 373.201 75.8807C381.227 76.1432 389.152 79.5206 394.373 80.8167C401.918 75.6316 408.267 71.765 413.956 67.0947C416.007 65.4106 417.795 61.5855 417.398 59.1061C416.447 53.1607 414.954 46.9615 412.009 41.8201C410.562 39.2926 405.403 38.8881 401.924 37.5228C402.047 36.4127 402.17 35.3026 402.293 34.1926C406.823 34.1926 411.354 34.1926 417.756 34.2804C423.107 35.9238 426.586 37.4795 430.062 40.1054C429.704 46.7816 430.219 52.6205 428.794 57.9399C426.544 66.3372 430.711 68.0241 437.24 69.0955C430.84 72.8133 422.981 74.149 418.742 78.7883C408.785 89.6833 400.908 92.2812 388.363 85.7953C385.767 84.4529 382.521 83.7288 379.591 83.7753C364.022 84.0219 348.483 88.9886 332.813 83.4079C330.912 82.7308 327.202 85.6128 325.041 87.6128C322.983 89.5184 321.854 92.428 321.057 93.708C313.414 90.519 307.109 87.8885 299.218 84.5961C299.58 78.6839 300.017 71.5307 300.394 65.3608C287.748 60.1787 281.271 92.5243 267.178 69.2925C263.112 71.4256 259.302 73.4246 255.491 75.4236Z" fill="#E9CC91"/>
<path d="M131.04 73.0835C130.715 74.5369 129.607 76.0793 127.724 77.7233C128.052 76.2741 129.155 74.7233 131.04 73.0835Z" fill="#E9CC91"/>
<path d="M476.071 5.52541C500.103 6.04425 524.143 6.33437 548.164 7.17722C560.407 7.60679 572.61 9.68136 584.839 9.76253C592.385 9.81263 596.865 12.525 597.132 19.5624C597.685 34.1671 597.295 48.8069 597.334 63.4322C597.341 66.1448 597.755 68.8679 597.615 71.5672C597.044 82.5994 596.331 93.6243 595.136 106.119C593.939 108.191 593.275 108.795 592.577 108.358C593.162 100.59 594.637 93.8101 594.216 87.1498C593.412 74.4226 591.104 61.7933 590.204 49.0681C589.173 34.4976 583.596 30.0749 568.656 31.8965C564.072 32.4554 558.933 31.2075 554.484 29.589C543.579 25.6212 533.279 19.0589 522.096 16.9865C502.165 13.2928 481.762 12.1433 462.145 9.27633C467.18 7.5903 471.626 6.55786 476.071 5.52541Z" fill="#653C1C"/>
<path d="M171.77 455.413C171.994 454.29 173.353 453.261 176.205 451.657C206.236 450.962 234.772 450.842 264.334 450.756C271.61 450.804 277.861 450.82 285.173 450.913C299.108 450.148 312.19 447.767 323.814 456.099C296.031 455.429 268.249 454.371 240.463 454.212C217.946 454.083 195.423 455.035 171.77 455.413Z" fill="#795031"/>
<path d="M456.589 452.125C455.95 453.009 455.311 453.892 453.745 455.405C451.633 456.975 450.448 457.917 449.262 458.858C414.096 457.721 378.93 456.583 343.317 453.869C342.918 451.336 342.964 450.378 343.74 449.207C345.47 448.834 346.469 448.675 348.063 449.232C356.428 450.257 364.198 450.566 373.096 450.902C392.901 450.026 411.578 449.124 430.799 448.316C431.342 448.409 432.437 448.278 433.282 448.829C441.614 450.295 449.102 451.21 456.589 452.125Z" fill="#6D411B"/>
<path d="M343.011 449.42C342.964 450.378 342.917 451.335 342.806 453.01C337.082 454.627 331.423 455.526 324.789 456.261C312.19 447.766 299.108 450.148 285.306 450.091C284.571 447.533 284.766 445.874 286.03 444.063C295.343 443.639 303.586 443.366 312.286 443.262C312.744 443.432 313.666 443.749 314.085 444.574C324.006 446.739 333.508 448.08 343.011 449.42Z" fill="#9A5215"/>
<path d="M450.168 459.294C450.448 457.917 451.633 456.975 453.613 455.94C455.465 455.853 456.522 455.859 458.975 456.553C463.929 457.574 467.488 457.908 471.046 458.241C473.037 458.246 475.029 458.251 478.971 458.245C484.778 458.167 488.634 458.101 492.49 458.034C498.548 458.336 504.607 458.638 511.47 459.454C491.874 459.888 471.473 459.809 450.168 459.294Z" fill="#6E4321"/>
<path d="M422.849 7.44427C422.849 7.44427 422.836 6.48538 422.82 6.00616C433.413 5.36868 444.023 5.2104 455.015 5.85866C452.561 7.01652 449.724 7.36785 445.801 7.70031C437.426 7.60238 430.138 7.52333 422.849 7.44427Z" fill="#653C1C"/>
<path d="M446.887 7.71918C449.724 7.36784 452.56 7.01651 456.016 6.07678C462.407 5.35855 468.178 5.22873 475.01 5.31216C471.625 6.55787 467.18 7.59031 461.169 9.29789C455.365 9.22175 451.126 8.47047 446.887 7.71918Z" fill="#6E4321"/>
<path d="M156.648 455.569C156.475 455.026 156.863 454.65 157.32 454.403C157.449 454.333 157.783 454.641 158.236 455.131C158.045 455.587 157.64 455.686 156.648 455.569Z" fill="#795031"/>
<path d="M137.267 455.402C137.108 454.339 137.74 454.106 138.796 454.845C138.632 455.313 138.244 455.452 137.267 455.402Z" fill="#795031"/>
<path d="M27.957 34.0652C26.8093 36.3085 25.6615 38.5518 23.0924 41.5444C21.2487 43.8411 20.8265 45.3885 20.4044 46.9358C20.2845 47.5375 19.9925 48.0389 19.1607 48.6666C8.52689 49.2332 8.16176 41.3653 8.7671 34.8951C9.53362 26.6986 13.2113 19.5133 22.9271 17.9297C30.9902 16.6155 39.8199 16.6436 46.8794 13.1716C67.0865 3.23337 87.6506 3.9595 108.983 7.11814C117.743 8.41532 126.889 7.11581 135.848 8.43068C132.843 10.8062 129.85 11.7486 125.779 12.6028C118.221 12.8476 111.74 13.1805 104.162 13.2471C94.2607 12.5244 85.4428 11.5544 76.6548 11.7753C69.7417 11.9491 62.692 12.9523 56.0218 14.7616C49.2642 16.5946 42.952 20.0155 36.3437 22.4685C30.8361 24.5128 25.3466 26.2825 27.957 34.0652Z" fill="#9A5215"/>
<path d="M276.411 12.1593C283.356 16.4206 289.53 20.7036 295.745 26.3574C292.338 28.1503 288.84 29.1714 285.449 28.8927C269.005 27.5408 252.59 25.8402 236.016 23.4841C223.059 21.7531 210.251 20.8012 197.396 19.0217C198.09 15.6287 198.831 13.0633 199.572 10.4979C211.254 10.9019 222.932 11.4373 234.617 11.6718C245.752 11.8953 256.894 11.8049 269.632 11.9651C271.678 12.0124 272.124 11.9472 272.571 11.882C273.594 11.9817 274.618 12.0814 276.411 12.1593Z" fill="#CFA04E"/>
<path d="M126.857 12.6909C129.85 11.7485 132.843 10.8062 136.369 9.30812C144.424 9.06375 151.944 9.46213 159.469 9.66435C168.941 9.91888 178.417 10.013 188.837 11.0555C187.409 14.4967 185.034 17.0589 182.06 18.9383C177.777 17.9837 174.093 17.7119 169.629 17.4117C167.81 17.3655 166.769 17.3477 165.162 16.6319C153.947 16.1514 143.296 16.5683 132.655 16.4055C130.704 16.3756 128.789 13.9894 126.857 12.6909Z" fill="#CD9D4A"/>
<path d="M182.659 19.6211C185.034 17.0589 187.409 14.4967 189.839 11.1732C192.895 9.96965 195.895 9.52739 199.234 9.79151C198.831 13.0633 198.09 15.6286 197.373 19.9761C197.906 32.9188 190.367 32.162 182.362 30.9263C179.04 27.6232 176.269 24.9225 174.295 22.1993C177.615 21.325 180.137 20.473 182.659 19.6211Z" fill="#C38F3D"/>
<path d="M272.305 11.5527C272.124 11.9472 271.678 12.0124 270.572 11.9154C270.37 11.4555 270.801 11.1018 271.294 10.8911C271.464 10.8184 271.787 11.1024 272.305 11.5527Z" fill="#9B5216"/>
<path d="M433.282 448.829C435.187 446.83 437.997 444.077 440.673 444.203C446.484 444.475 452.227 446.217 458.632 448.083C458.673 449.538 458.079 450.268 457.037 451.561C449.102 451.21 441.614 450.295 433.282 448.829Z" fill="#DCB05D"/>
<path d="M493.552 446.826C495.202 445.701 497.292 445.196 499.861 445.238C498.225 446.339 496.108 446.893 493.552 446.826Z" fill="#C68D38"/>
<path d="M492.02 457.362C488.634 458.1 484.778 458.167 479.965 458.186C483.189 457.655 487.37 457.172 492.02 457.362Z" fill="#6D411B"/>
<path d="M470.477 457.571C467.488 457.907 463.929 457.574 459.768 456.584C462.746 456.252 466.327 456.577 470.477 457.571Z" fill="#6D411B"/>
<path d="M264.334 450.756C258.664 448.146 254.018 445.57 249.276 441.682C260.945 441.465 272.711 442.559 284.597 443.793C284.718 443.934 284.96 444.215 284.96 444.215C284.766 445.874 284.571 447.533 284.244 450.014C277.861 450.82 271.61 450.804 264.334 450.756Z" fill="#B47C3B"/>
<path d="M364.546 446.092C386.084 446.283 407.622 446.473 429.708 447.443C411.578 449.124 392.901 450.026 372.618 450.306C368.857 448.487 366.701 447.29 364.546 446.092Z" fill="#C5913D"/>
<path d="M314.085 444.574C324.455 443.997 335.243 444.245 346.77 445.802C347.495 447.579 347.482 448.048 347.469 448.517C346.469 448.675 345.47 448.834 343.74 449.206C333.508 448.08 324.006 446.74 314.085 444.574Z" fill="#C5913D"/>
<path d="M348.063 449.233C347.482 448.048 347.495 447.58 347.561 446.407C352.554 445.815 357.494 445.926 363.49 446.065C366.701 447.29 368.856 448.487 371.49 450.28C364.198 450.567 356.428 450.257 348.063 449.233Z" fill="#9A5215"/>
<path d="M308.83 436.346C309.692 438.125 310.553 439.904 311.622 442.388C303.586 443.366 295.343 443.64 286.03 444.064C284.96 444.214 284.718 443.934 284.97 443.127C287.386 440.258 289.551 438.196 292.79 436.141C298.853 436.213 303.842 436.28 308.83 436.346Z" fill="#B47C3B"/>
<path d="M236.165 24.2632C252.591 25.8403 269.006 27.5408 285.45 28.8927C288.84 29.1715 292.338 28.1503 296.346 26.8928C301.894 24.7696 306.882 23.482 312.771 22.6946C313.694 23.6026 313.718 24.0102 313.791 25.2707C316.314 31.2002 318.582 36.7049 326.408 31.8793C326.991 31.8595 328.157 31.8412 328.277 32.7059C330.741 36.8961 333.083 40.2217 336.137 44.5564C330.382 45.8421 325.995 46.8223 320.792 47.9846C323.587 56.3968 324.542 64.745 336.438 62.0466C339.026 61.4593 342.234 64.4507 345.236 64.6637C352.759 65.1974 360.488 66.0968 367.828 64.9289C374.472 63.8718 380.711 60.2747 388.986 57.0807C389.223 53.8875 389.623 48.5073 390.024 43.127C385.452 43.237 380.737 44.039 376.376 43.1362C374.476 42.743 373.301 38.8519 372.383 36.5206C372.969 36.4918 374.143 36.4718 375.037 36.4392C384.794 26.0277 395.708 25.0168 407.974 29.033C409.303 29.4683 411.378 27.6292 413.697 26.9134C414.286 26.9817 415.462 27.1408 415.541 27.8855C416.394 30.4799 417.167 32.3296 416.912 34.1859C411.354 34.1926 406.823 34.1926 402.293 34.1926C402.17 35.3027 402.047 36.4127 401.924 37.5228C405.403 38.8881 410.562 39.2926 412.009 41.8202C414.954 46.9615 416.447 53.1607 417.399 59.1061C417.795 61.5855 416.007 65.4106 413.956 67.0947C408.267 71.765 401.918 75.6316 394.373 80.8168C389.152 79.5207 381.227 76.1432 373.201 75.8807C360.06 75.451 346.86 77.3367 333.67 77.6668C327.07 77.8321 317.457 79.2442 314.424 75.6702C307.598 67.6247 302.059 57.2713 299.713 47.0085C297.606 37.7908 293.347 34.8707 285.423 34.231C273.863 33.2977 262.3 32.2893 250.717 31.8246C246.16 31.6418 241.548 32.8376 236.961 33.4055C241.517 35.2731 246.06 37.176 250.645 38.971C251.345 39.2451 252.24 39.0197 253.043 39.8362C253.038 41.7284 253.036 42.8096 252.18 43.8129C245.845 44.0246 240.323 43.9935 234.89 44.67C223.065 46.1423 207.337 39.3816 201.898 27.3879C212.341 27.8126 221.099 28.4558 229.845 28.3181C231.972 28.2846 234.059 25.6836 236.165 24.2632Z" fill="#E6C27A"/>
<path d="M415.462 27.1407C415.462 27.1407 414.286 26.9816 413.559 25.9733C405.313 14.6072 394.268 19.5065 385.538 20.7039C381.101 21.3124 377.902 30.9279 374.143 36.4717C374.143 36.4717 372.969 36.4918 371.381 36.5264C366.195 36.3519 361.411 37.5497 359.206 35.6913C349.438 27.4612 339.196 27.5023 328.157 31.8411C328.157 31.8411 326.991 31.8594 325.696 31.4908C320.849 28.8874 317.295 26.6527 313.741 24.4179C313.718 24.0102 313.694 23.6025 313.651 22.5823C313.343 14.2888 318.647 13.0833 324.093 14.2896C347.093 19.3847 369.906 16.8654 393.12 15.6045C419.027 14.1974 445.335 16.9651 471.24 19.9183C487.438 21.765 503.215 27.3091 519.181 31.1939C519.573 31.2892 519.974 31.3562 520.358 31.477C536.633 36.5983 557.765 65.4866 558.711 82.4223C559.173 90.6947 561.778 98.8475 563.506 108.114C563.599 109.174 563.309 109.437 562.435 109.278C559.006 106.286 554.514 103.647 554.208 100.589C552.247 81.0354 538.693 71.1674 523.825 62.087C523.242 61.7315 523.03 60.7716 522.521 59.875C523.782 57.3385 525.089 54.7061 525.881 53.1122C513.13 45.1118 501.321 37.4869 489.24 30.3214C487.061 29.029 483.76 29.6255 479.968 29.3462C475.594 29.3484 472.229 29.3542 468.266 28.6975C463.214 28.4885 458.761 28.9421 453.411 29.401C450.718 29.4778 448.924 29.5494 446.761 28.856C442.352 26.2812 437.473 15.7317 433.894 29.2073C427.079 28.5273 421.27 27.834 415.462 27.1407Z" fill="#CD9945"/>
<path d="M234.712 441.699C233.641 440.639 233.599 439.52 234.549 437.495C239.905 436.361 244.559 437.034 248.581 435.742C263.102 431.077 277.379 431.57 291.715 436.134C289.551 438.196 287.386 440.258 284.849 442.986C272.71 442.559 260.944 441.465 248.64 441.139C243.982 441.819 239.862 441.729 234.712 441.699Z" fill="#DBAE5C"/>
<path d="M28.7865 34.1195C25.3464 26.2825 30.836 24.5128 36.3436 22.4685C42.9519 20.0154 49.264 16.5946 56.0217 14.7616C62.6919 12.9523 69.7416 11.9491 76.6546 11.7753C85.4426 11.5544 94.2605 12.5243 103.801 14.0374C99.5162 15.803 94.5083 16.6271 89.471 17.1911C83.4724 17.8627 78.041 18.9886 77.4157 26.882C69.7962 26.1022 63.1486 24.399 56.601 24.7223C47.8808 25.1528 49.128 29.5128 53.9147 34.9462C53.456 38.7773 53.9478 41.9517 53.1831 44.7874C51.4847 51.0843 49.156 57.2114 47.0842 63.4077C37.7415 56.5088 33.0068 49.0223 46.3377 40.12C39.2868 37.6127 34.4515 35.8932 28.7865 34.1195Z" fill="#CD9D4A"/>
<path d="M46.7224 85.2252C36.8233 81.6722 42.109 75.3289 44.1811 68.8858C45.3082 67.0312 46.1085 65.9271 46.9966 64.1153C49.1563 57.2114 51.4851 51.0843 53.1834 44.7874C53.9482 41.9517 53.4564 38.7773 54.7708 35.059C61.2683 36.059 66.5293 37.7566 73.437 39.9854C64.424 54.3481 61.4586 72.9879 46.7224 85.2252Z" fill="#DCB05F"/>
<path d="M39.5444 67.2533C38.5399 68.8562 37.4062 69.6476 35.5487 70.4943C33.1154 68.3073 31.4056 66.0649 29.696 63.8226C30.3222 62.9897 30.9484 62.1569 31.5748 61.324C34.1882 63.0299 36.8017 64.7359 39.5444 67.2533Z" fill="#CD9D4A"/>
<path d="M20.9383 46.3753C20.8264 45.3885 21.2487 43.8411 22.4078 41.9169C22.5871 42.9649 22.0297 44.3899 20.9383 46.3753Z" fill="#6E4321"/>
<path d="M78.4322 26.8609C78.0412 18.9886 83.4726 17.8627 89.4713 17.1911C94.5085 16.6271 99.5164 15.803 104.898 14.3037C111.74 13.1805 118.221 12.8476 125.779 12.6028C128.789 13.9894 130.704 16.3757 132.655 16.4055C143.297 16.5684 153.947 16.1514 164.595 17.2944C157.683 21.3984 150.769 24.1419 143.087 27.2369C136.467 29.8284 131.852 37.7346 124.129 31.2781C114.125 22.9142 97.4912 22.6347 86.9947 29.6297C85.4452 30.6622 81.3497 27.8788 78.4322 26.8609Z" fill="#DCB15F"/>
<path d="M236.016 23.4841C234.059 25.6836 231.972 28.2846 229.844 28.3181C221.099 28.4557 212.341 27.8126 201.898 27.3879C207.337 39.3815 223.065 46.1423 234.889 44.6699C240.323 43.9934 245.844 44.0245 252.037 44.6671C248.083 50.8986 240.55 55.6518 239.412 61.622C237.607 71.0979 233.791 73.0982 225.192 73.1935C214.771 73.3089 205.884 72.9354 204.416 59.7161C204.178 57.5798 202.602 55.0304 200.857 53.7201C193.16 47.9412 185.174 42.5458 176.751 36.6316C177.876 35.6997 180.394 33.6143 182.911 31.5288C190.367 32.162 197.906 32.9189 197.421 20.8037C210.251 20.8012 223.059 21.7531 236.016 23.4841Z" fill="#E1BA71"/>
<path d="M174.295 22.1994C172.551 21.1214 171.604 20.021 170.534 18.1803C174.093 17.712 177.777 17.9838 182.06 18.9383C180.137 20.473 177.615 21.325 174.295 22.1994Z" fill="#DCB15F"/>
</svg>
