<svg width="604" height="757" viewBox="0 0 604 757" fill="none" xmlns="http://www.w3.org/2000/svg">
<path d="M374.134 726.954C348.745 727.407 323.327 727.238 297.973 728.429C220.481 732.071 143.709 742.156 67.3083 755.303C56.1636 757.221 45.0331 758.667 35.8174 749.924C42.0205 747.993 47.6231 746.99 54.6075 745.739C45.0675 737.221 37.1862 730.404 29.5525 723.32C16.5541 711.258 16.9657 698.994 30.1143 686.77C32.0255 684.993 32.336 681.497 33.3874 678.796C30.2265 678.773 26.8673 678.078 23.9652 678.932C21.4691 679.667 19.4944 682.171 17.2891 683.893C21.6896 668.948 30.4476 659.725 47.1865 659.37C55.554 659.193 63.8851 657.299 72.3752 656.162C61.7008 630.282 51.0684 604.502 39.9906 577.03C39.6072 574.154 39.6693 572.971 40.6101 572.032C44.9026 571.792 48.3162 571.307 52.7479 570.716C57.6381 572.362 66.3725 563.487 64.6004 576.196C59.8314 579.068 55.825 581.652 51.0342 584.497C50.3837 588.509 49.4499 592.731 50.8563 595.924C54.6802 604.604 59.2741 612.977 64.0408 621.194C65.6154 623.909 68.6503 625.777 71.2662 628.679C72.3456 630.4 73.1762 631.475 73.7747 633.465C81.3855 653.009 89.2286 671.638 96.348 688.547C107.947 689.443 117.553 690.185 126.881 691.491C125.977 692.604 125.351 693.153 123.805 693.709C116.409 695.803 109.722 697.417 103.543 700.17C100.373 701.583 96.9937 704.54 95.6318 707.642C90.2728 719.847 85.6772 732.387 80.6108 745.28C85.0633 744.75 90.4004 744.116 96.6869 743.55C133.258 738.834 168.879 734.051 205.58 729.405C219.717 728.062 232.774 726.581 246.96 725.194C273.206 724.324 298.322 723.361 324.516 722.551C332.124 722.598 338.655 722.492 346.004 722.504C347.92 722.574 349.019 722.526 351.058 722.734C359.377 724.312 366.755 725.633 374.134 726.954ZM51.5556 707.108C50.6856 709.471 49.8156 711.834 47.5106 718.095C58.1096 713.731 72.047 710.847 72.186 707.407C72.6253 696.529 69.4452 684.655 64.4255 674.817C62.3777 670.803 52.0128 671.028 45.7297 669.402C48.0578 683.413 49.8642 694.285 51.5556 707.108Z" fill="#6D411B"/>
<path d="M585.544 82.594C580.407 85.8322 575.644 90.2635 570.042 92.0221C562.123 94.5079 553.584 95.0191 544.031 96.5837C547.184 105.972 549.926 114.139 552.927 123.074C549.625 123.694 546.359 124.307 543.081 124.926C543.388 125.653 543.548 126.858 544.051 127.024C553.601 130.179 556.755 137.919 559.611 146.679C567.581 171.122 576.443 195.274 584.522 219.684C587.28 228.018 592.236 236.65 584.785 246.477C582.021 247.397 580.041 247.369 577.467 246.933C575.729 244.412 574.586 242.302 574.316 240.138C578.407 238.973 581.624 237.861 586.339 236.232C576.686 211.612 567.54 188.282 558.379 164.134C557.018 160.467 555.673 157.619 554.211 153.843C552.709 139.609 546.616 130.313 532.647 127.662C531.505 127.445 530.434 126.855 528.572 126.292C526.787 126.129 525.76 126.111 524.692 126.145C524.652 126.196 524.767 126.142 524.645 125.589C524.523 125.037 524.605 123.909 525.346 123.35C532.522 120.74 538.957 118.689 546.296 116.35C539.499 101.716 532.656 87.2999 526.084 72.7611C516.232 50.9644 508.521 29.1766 528.692 8.51877C529.413 7.7805 529.309 6.23783 529.993 4.81839C530.05 3.9072 529.703 3.24747 528.397 2.72531C520.863 3.56447 514.289 4.2659 507.704 4.3767C507.693 3.78605 507.676 2.60476 507.676 2.60476C509.079 2.2172 510.483 1.82965 513.467 1.83956C516.632 1.67567 518.216 1.11446 519.8 0.553247C539.567 -1.7904 557.244 3.28874 572.309 16.2413C567.441 16.9925 563.18 16.9925 556.264 16.9925C557.77 22.2394 558.052 27.3171 560.519 30.8869C564.52 36.6754 569.954 41.475 574.934 47.6221C574.987 51.6795 574.888 54.8066 574.23 58.6443C572.751 65.5812 571.024 71.8242 571.152 78.0288C571.267 83.5719 574.254 87.3512 581.295 82.3672C583.284 82.2968 584.414 82.4454 585.544 82.594ZM544.4 61.7221C542.398 58.3026 540.396 54.883 538.395 51.4633C535.794 54.0419 531.827 56.1859 530.843 59.2781C527.518 69.7238 537.221 81.247 548.997 80.6952C547.534 74.9568 546.095 69.3113 544.4 61.7221ZM565.518 54.6152C563.757 51.6746 561.997 48.7341 560.236 45.7934C558.995 46.1218 557.754 46.45 556.513 46.7784C556.513 50.9758 556.513 55.1733 556.513 59.3707C559.431 58.376 562.348 57.3812 565.518 54.6152Z" fill="#6B3D18"/>
<path d="M561.231 621.046C556.14 631.566 551.05 642.087 547.514 649.394C558.799 657.831 568.286 664.923 577.614 673.452C576.692 675.495 575.928 676.101 574.757 676.673C574.351 676.639 573.536 676.681 572.581 676.568C568.096 679.965 564.565 683.475 561.034 686.985C564.153 689.967 567.272 692.95 570.91 696.551C573.128 699.228 574.828 701.286 576.259 704.14C573.977 708.223 571.963 711.51 569.141 714.873C566.753 716.666 565.173 718.382 563.527 720.034C563.459 719.969 563.598 720.104 562.627 720.025C558.27 722.301 554.883 724.656 551.496 727.01C555.553 730.332 559.611 733.654 563.899 737.772C565.87 741.38 567.609 744.193 569.348 747.005C568.252 747.834 567.156 748.663 564.26 749.378C553.462 749.326 544.465 749.388 534.886 748.755C520.545 741.38 517.702 727.504 513.005 714.223C513.752 702.508 514.069 691.702 514.736 680.125C518.835 674.449 522.584 669.545 527.05 664.462C531.277 659.548 535.109 655.014 538.234 650.037C545.321 638.749 552.06 627.242 559.505 616.304C560.457 618.205 560.844 619.625 561.231 621.046ZM544.295 671.158L544.394 670.856C544.394 670.856 544.106 671.592 542.209 671.583C526.278 674.395 518.339 688.288 527.051 698.656C528.993 700.966 533.052 701.499 536.137 702.85C536.763 700.078 538.585 696.899 537.804 694.605C534.629 685.28 538.408 678.236 544.295 671.158Z" fill="#693812"/>
<path d="M35.0232 7.38834C55.5327 -1.61543 76.9456 0.677934 99.355 3.12543C100.403 3.91665 100.35 5.11422 99.2214 5.06496C88.2973 5.01555 78.5017 5.01555 66.442 5.01555C71.4757 9.39178 74.679 12.1767 78.3173 15.6673C92.0552 28.1713 98.1809 42.7415 95.6248 61.575C92.1766 73.2687 88.9471 83.9672 85.0665 95.1647C81.7599 100.526 79.1041 105.389 76.3316 109.291C76.154 103.784 76.0932 99.2363 76.0322 94.6893C69.874 93.1046 63.7421 91.4078 57.5521 89.9592C45.3534 87.1048 33.1228 84.3878 21.0004 80.1772C24.7954 75.5864 32.2037 71.111 31.6228 69.4824C25.7234 52.9451 35.4406 44.4762 47.8048 36.1463C52.7771 34.6875 56.8823 33.595 60.8089 32.5501C61.1223 14.9502 53.7036 7.904 35.0232 7.38834ZM60.0393 62.2032C56.1579 67.9696 52.2762 73.7362 48.1877 79.8101C78.5232 78.7047 79.7717 77.8058 81.8379 56.0323C64.9127 48.2638 63.4408 48.5668 60.0393 62.2032Z" fill="#6F3E16"/>
<path d="M512.575 715.133C517.702 727.504 520.545 741.38 533.745 748.551C505.663 743.677 478.262 737.542 450.578 733.211C431.193 730.178 411.421 729.61 391.822 727.941C386.683 727.698 381.544 727.454 375.27 727.082C366.756 725.633 359.377 724.312 351.077 721.731C353.89 718.71 357.513 715.769 361.381 715.399C375.357 714.061 389.416 713.588 404.562 712.759C415.422 712.697 425.163 712.665 435.876 712.693C439.441 712.725 442.034 712.699 445.346 712.75C447.206 713.599 448.347 714.37 449.8 715.867C450.113 720.064 450.113 723.534 450.113 727.885C455.304 727.105 460.437 725.408 465.396 725.815C472.126 726.367 480.598 726.486 484.949 730.47C491.881 736.819 495.59 735.367 498.268 728.458C500.827 721.855 501.491 714.518 502.877 708.025C506.3 710.534 509.437 712.833 512.575 715.133Z" fill="#DAB061"/>
<path d="M578.062 247.342C580.041 247.37 582.021 247.397 584.986 247.332C586.709 247.085 587.285 247.322 587.723 249.388C589.834 253.701 591.923 256.576 594.011 259.45C596.821 282.112 600.893 304.706 602.115 327.453C603.594 354.966 603.438 382.633 602.542 410.187C601.721 435.452 598.976 460.655 595.745 486.653C593.828 487.391 593.246 487.361 592.642 486.326C593.403 477.075 594.184 468.83 595.027 460C595.089 459.414 595.208 458.242 595.832 457.542C596.618 452.297 596.778 447.752 596.999 442.324C597.047 439.084 597.033 436.727 597.502 433.426C598.504 417.155 599.12 401.83 599.354 386.499C599.373 385.277 596.757 384.016 595.193 381.853C594.221 375.998 593.423 371.064 592.618 365.291C591.102 362.545 589.592 360.636 587.932 357.765C587.711 346.205 587.642 335.608 588.305 324.511C589.406 318.639 589.774 313.266 590.109 307.015C589.188 302.788 588.298 299.439 587.979 295.428C588.86 294.506 589.469 294.203 589.438 293.996C587.585 281.7 585.975 269.353 583.591 257.158C582.907 253.66 579.967 250.602 578.062 247.342Z" fill="#976B3A"/>
<path d="M75.5484 95.4121C76.0928 99.2363 76.1536 103.784 76.171 110.109C76.621 119.436 77.1146 126.984 77.5967 134.358C68.3055 133.029 56.2261 143.604 57.1739 154.155C57.3593 156.218 61.7004 157.909 64.9521 159.948C70.5857 162.726 75.392 165.326 80.0656 168.842C77.0637 170.619 73.9303 172.705 71.3661 172.153C48.3497 167.195 40.0466 181.242 34.7883 199.644C34.0205 202.33 32.6433 204.836 31.6928 207.478C25.1062 225.784 18.558 244.104 11.564 263.63C17.3343 264.362 20.8161 264.804 25.1394 265.749C30.5648 266.31 35.1487 266.368 40.3177 266.594C41.3015 266.836 41.7005 266.911 42.441 267.732C40.1006 279.554 30.3875 274.59 25.7458 273.562C13.3075 270.804 9.53542 275.621 9.29506 286.596C9.26087 288.158 9.09496 289.716 8.55962 291.888C7.25287 292.952 6.37653 293.405 5.50019 293.858C4.79346 292.973 3.4321 292.056 3.47414 291.208C5.13891 257.605 16.5549 226.705 30.3898 196.589C39.4465 176.874 47.9736 156.723 59.1947 138.259C67.3307 124.871 69.0655 109.869 75.5484 95.4121Z" fill="#714B23"/>
<path d="M5.54131 294.836C6.37665 293.405 7.253 292.953 9.4426 291.833C14.2303 291.167 17.7047 291.167 18.9222 291.167C23.3371 287.283 26.6894 284.334 30.011 282.328C30.3696 290.62 30.7044 297.972 31.1696 305.316C31.4469 309.696 31.9299 314.064 32.3205 318.437C28.0003 317.944 23.68 317.451 19.4189 316.965C20.7645 328.782 22.131 340.886 23.5473 352.983C23.6371 353.753 24.0875 354.49 24.4137 355.222C28.9625 365.444 26.1696 374.549 19.1383 383.151C13.3251 383.066 8.54464 382.999 3.6677 381.861C3.67303 374.34 3.77515 367.89 4.69693 361.258C11.2813 356.992 21.1194 355.959 17.6026 344.387C12.9841 345.114 8.43971 345.829 3.81097 345.556C3.55196 334.722 3.37717 324.878 3.20252 315.033C3.99583 308.626 4.78914 302.22 5.54131 294.836Z" fill="#E6C480"/>
<path d="M184.992 8.21478C220.306 10.0292 255.604 12.7079 290.94 13.401C322.712 14.0244 354.556 13.1113 386.316 11.6855C415.66 10.3681 444.934 7.47075 475.814 5.92898C479.317 6.9267 481.243 7.2647 483.348 8.45768C484.338 12.6995 485.149 16.0861 484.999 19.5036C479.785 20.3529 475.532 21.1713 471.241 21.0885C468.468 18.9364 465.842 17.1448 462.971 16.5627C458.758 15.7086 454.338 15.9374 450.066 15.3024C445.545 14.6303 441.043 12.4904 436.62 12.7148C412.742 13.926 388.886 15.6096 365.034 17.2922C360.788 17.5916 356.596 18.6537 351.486 19.386C348.8 19.4473 347.008 19.4859 344.098 19.5258C325.759 18.7501 308.53 18.1043 291.316 17.1656C264.917 15.7259 238.54 13.8321 212.128 12.6925C204.782 12.3755 197.351 14.0394 189.126 14.4755C184.811 13.4837 181.329 12.8108 178.279 11.5847C180.805 10.0925 182.899 9.15363 184.992 8.21478Z" fill="#A36C37"/>
<path d="M16.6491 684.541C19.4945 682.171 21.4692 679.667 23.9653 678.932C26.8674 678.078 30.2266 678.773 33.3875 678.796C32.3361 681.497 32.0256 684.993 30.1144 686.77C16.9658 698.994 16.5542 711.258 29.5525 723.321C37.1862 730.404 45.0676 737.221 54.6076 745.739C47.6232 746.99 42.0206 747.994 35.3892 749.092C34.3605 749.188 34.6053 749.031 34.4336 748.549C33.5503 747.587 32.8384 747.107 32.1265 746.627C32.1265 746.627 32.3781 746.594 32.0833 746.21C31.3465 745.144 30.7768 744.596 30.0794 744.179C14.4632 727.119 10.2903 707.332 16.6491 684.541Z" fill="#A36C37"/>
<path d="M391.672 728.788C411.421 729.61 431.193 730.178 450.579 733.211C478.262 737.542 505.664 743.677 534.327 749.246C544.466 749.387 553.463 749.325 563.545 749.431C548.734 758.106 532.518 753.642 516.264 750.98C476.894 744.531 437.487 738.313 398.108 731.915C395.849 731.548 393.714 730.412 391.672 728.788Z" fill="#795031"/>
<path d="M46.9375 36.5129C35.4403 44.4762 25.7231 52.9451 31.6225 69.4825C32.2034 71.1111 24.7951 75.5864 20.5685 79.4054C19.3995 77.4733 18.757 74.8763 19.1675 71.2873C24.3227 59.3661 30.0333 48.6887 31.8044 37.3942C32.61 32.2549 25.6227 25.8953 22.1705 20.0892C24.3136 16.8889 26.4568 13.6886 29.6904 11.0691C32.2904 16.5482 33.8877 20.664 40.6732 17.6341C42.6209 16.7644 45.7931 18.6332 48.404 19.2462C47.5035 21.9898 46.0714 24.691 45.8482 27.4886C45.612 30.4489 46.5259 33.501 46.9375 36.5129Z" fill="#AE7537"/>
<path d="M3.8771 361.44C3.77513 367.89 3.673 374.34 3.49717 382.843C4.15535 389.162 4.88724 393.427 5.67759 398.724C5.83241 403.889 5.92905 408.022 5.93364 413.146C6.09171 416.765 6.34184 419.395 6.45551 422.787C6.91477 425.399 7.51035 427.248 8.08121 430.117C8.19443 434.533 8.33237 437.931 8.38388 442.357C9.86216 456.414 11.4269 469.443 12.6217 482.606C12.2517 482.741 11.5072 482.485 11.5072 482.485C-0.349212 427.63 -2.4247 372.198 2.46202 315.717C3.37714 324.878 3.55193 334.722 3.65909 346.616C3.68662 352.923 3.78193 357.181 3.8771 361.44Z" fill="#A4723E"/>
<path d="M21.759 20.7608C25.6226 25.8954 32.6099 32.2549 31.8043 37.3943C30.0332 48.6888 24.3226 59.3661 19.2864 70.4073C6.17363 53.4303 6.82323 42.7833 21.759 20.7608Z" fill="#E0B873"/>
<path d="M561.922 620.538C560.845 619.625 560.458 618.205 559.512 615.439C561.307 608.209 563.661 602.325 566.66 595.86C571.506 582.836 576.528 570.598 579.704 557.898C583.923 541.025 586.702 523.792 590.442 506.437C590.783 506.161 591.465 505.607 591.465 505.607C595.444 530.015 587.263 552.595 580.212 575.125C575.422 590.43 568.553 605.085 561.922 620.538Z" fill="#714B23"/>
<path d="M24.6361 527.868C25.0899 527.237 25.9518 526.061 25.9399 526.052C11.8031 515.483 15.544 498.719 11.52 483.575C11.5074 482.485 12.2519 482.741 13.4179 483.055C16.6358 492.247 18.2355 501.269 20.9773 509.929C21.9794 513.095 25.5896 517.581 28.1899 517.705C36.7971 518.116 45.4863 516.814 54.9338 516.533C58.7922 518.408 61.8607 519.917 64.3097 522.126C57.1156 524.494 50.541 526.162 43.1641 527.992C40.7336 528.311 39.1052 528.466 36.5733 528.59C31.9917 528.328 28.3139 528.098 24.6361 527.868Z" fill="#714B23"/>
<path d="M585.475 82.5569C584.414 82.446 583.284 82.2973 580.605 81.6888C577.634 73.464 576.211 65.6993 574.788 57.9345C574.888 54.8072 574.987 51.68 575.419 46.8059C579.002 40.5571 582.253 36.0549 585.503 31.5528C585.503 31.5528 585.393 31.6809 585.406 32.4364C586.242 35.1138 587.064 37.0354 587.886 38.9572C587.886 38.9572 587.723 38.927 587.717 39.8993C588.529 51.1398 589.347 61.4081 590.165 71.6763C590.165 71.6763 590.524 71.875 589.81 72.5834C588.659 74.8253 588.222 76.3589 587.785 77.8926C587.785 77.8926 587.724 77.7402 587.115 78.0754C586.145 79.83 585.785 81.2495 585.424 82.6689C585.424 82.6689 585.406 82.5194 585.475 82.5569Z" fill="#DBB369"/>
<path d="M585.492 30.7083C582.252 36.0547 579.002 40.557 575.267 45.8759C569.953 41.4754 564.519 36.6758 560.519 30.8873C558.052 27.3175 557.77 22.2398 556.264 16.9929C563.18 16.9929 567.441 16.9929 572.674 17.0039C577.591 21.2979 581.536 25.5809 585.492 30.7083Z" fill="#B1844B"/>
<path d="M569.95 714.797C571.964 711.51 573.977 708.223 576.976 704.068C579.42 703.201 580.878 703.203 582.495 704.146C582.786 710.179 582.918 715.269 583.05 720.359C579.023 729.181 574.997 738.004 570.159 746.916C567.609 744.193 565.87 741.381 564.558 737.169C564.523 730.548 564.061 725.326 563.598 720.104C563.598 720.104 563.459 719.969 564.406 720.073C566.885 718.384 568.418 716.59 569.95 714.797Z" fill="#D9B073"/>
<path d="M47.8044 36.1463C46.5258 33.5009 45.6119 30.4488 45.8481 27.4885C46.0713 24.6909 47.5034 21.9897 48.4039 19.2461C45.793 18.6331 42.6208 16.7642 40.6731 17.634C33.8876 20.6639 32.2903 16.5481 30.4226 10.8795C31.2193 9.2197 32.3741 8.32996 34.2758 7.41433C53.7032 7.90395 61.1219 14.9501 60.8085 32.55C56.8819 33.5949 52.7767 34.6875 47.8044 36.1463Z" fill="#9A5215"/>
<path d="M183.958 7.94484C182.898 9.15379 180.805 10.0926 177.699 11.6647C176.685 12.298 175.521 12.4387 174.618 12.007C155.705 10.9871 137.694 10.3987 119.681 9.84561C119.678 9.88111 119.749 9.87372 119.581 9.37804C118.983 8.28535 118.406 7.9262 116.675 7.71585C110.563 6.78928 105.456 5.95175 100.349 5.11423C100.349 5.11423 100.402 3.91681 100.356 3.31936C127.848 4.37285 155.386 6.02394 183.958 7.94484Z" fill="#976B3A"/>
<path d="M23.8703 528.479C28.3137 528.098 31.9915 528.328 36.3888 529.471C33.063 539.67 25.766 548.85 36.5301 558.503C38.5063 557.821 40.8145 557.025 43.6164 556.058C42.1323 562.067 40.932 566.927 39.7315 571.788C39.6693 572.971 39.6073 574.154 39.4602 576.218C33.9516 561.097 28.5281 545.094 23.8703 528.479Z" fill="#925721"/>
<path d="M583.888 719.914C582.918 715.269 582.786 710.179 582.607 703.152C580.094 693.046 577.629 684.877 575.164 676.708C575.928 676.101 576.692 675.495 577.822 674.246C587.411 687.89 589.188 703.236 583.888 719.914Z" fill="#795031"/>
<path d="M592.663 487.331C593.246 487.361 593.828 487.391 595.284 487.46C594.426 493.046 592.694 498.592 591.213 504.872C591.464 505.607 590.783 506.161 589.584 506.148C583.622 503.673 578.858 501.21 574.535 498.012C577.461 496.187 579.946 495.098 583.385 494.205C587.113 492.045 589.888 489.688 592.663 487.331Z" fill="#714B23"/>
<path d="M483.17 7.60284C481.243 7.26469 479.317 6.92669 476.873 6.06224C486.074 4.46559 495.791 3.39539 506.592 2.46511C507.676 2.6052 507.693 3.78649 506.686 4.41086C498.176 5.8911 490.673 6.74697 483.17 7.60284Z" fill="#795031"/>
<path d="M590.804 70.7793C589.347 61.4075 588.529 51.1392 587.763 39.8296C589.024 49.1533 590.233 59.5181 590.804 70.7793Z" fill="#B1844B"/>
<path d="M593.857 258.543C591.923 256.576 589.834 253.701 587.795 249.876C589.797 251.829 591.75 254.732 593.857 258.543Z" fill="#6B3D18"/>
<path d="M588.098 38.1232C587.064 37.0354 586.241 35.1138 585.387 32.354C586.34 33.4407 587.325 35.365 588.098 38.1232Z" fill="#B1844B"/>
<path d="M518.956 0.390407C518.216 1.11492 516.632 1.67613 514.19 1.96872C514.925 1.20915 516.519 0.718199 518.956 0.390407Z" fill="#795031"/>
<path d="M588.552 77.531C588.222 76.3582 588.659 74.8245 589.751 72.7791C590.044 73.9016 589.681 75.5359 588.552 77.531Z" fill="#B1844B"/>
<path d="M586.105 82.3434C585.785 81.25 586.145 79.8305 587.197 78.0735C587.521 79.1632 587.153 80.5904 586.105 82.3434Z" fill="#B1844B"/>
<path d="M30.1469 744.84C30.7769 744.595 31.3466 745.144 32.1017 746.335C31.6814 746.397 30.9479 745.949 30.1469 744.84Z" fill="#6D411B"/>
<path d="M32.2896 747.315C32.8386 747.107 33.5505 747.587 34.5255 748.662C34.01 748.838 33.2312 748.42 32.2896 747.315Z" fill="#6D411B"/>
<path d="M403.444 712.789C389.416 713.588 375.357 714.061 361.381 715.399C357.513 715.769 353.89 718.71 350.137 721.474C349.02 722.525 347.921 722.574 345.984 721.582C340.365 718.071 335.762 714.543 330.705 713.682C328.833 713.363 325.892 719.309 323.439 722.398C298.323 723.361 273.206 724.324 246.62 724.407C235.958 723.112 226.75 722.188 217.582 722.491C212.647 722.655 204.607 718.986 204.501 729.267C168.88 734.051 133.258 738.834 96.632 742.72C98.0148 738.084 100.403 734.346 103.069 730.171C102.164 728.638 98.9734 724.394 99.4735 723.902C104.598 718.868 100.309 707.462 112.556 706.52C116.916 706.185 120.686 698.197 124.726 693.702C125.352 693.153 125.978 692.604 127.825 691.599C131.671 691.84 134.437 693.421 136.891 693.033C140.752 692.422 144.404 690.485 148.145 689.11C145.935 686.472 143.726 683.834 141.542 680.62C141.568 680.044 141.657 678.896 142.784 678.883C160.093 678.801 176.275 678.73 192.816 679.271C192.817 681.14 192.813 683.182 192.044 683.528C187.476 685.584 182.73 687.248 178.044 689.044C178.32 690.109 178.597 691.173 178.873 692.238C181.779 692.566 184.685 692.894 187.499 693.985C186.352 696.687 185.296 698.625 182.532 703.7C209.593 701.903 234.148 700.272 258.702 698.641C258.467 699.129 258.231 699.617 257.996 700.105C269.407 702.046 280.818 703.986 292.371 705.951C293.46 703.966 294.898 701.344 297.38 696.819C300.938 703.894 302.385 706.771 303.968 709.918C307.726 706.35 310.413 701.542 313.751 701.038C325.201 699.31 337.097 697.31 348.42 698.696C367.204 700.997 386.113 704.191 403.444 712.789Z" fill="#E8CB8F"/>
<path d="M141.516 681.196C143.726 683.834 145.935 686.472 148.145 689.11C144.404 690.485 140.752 692.422 136.891 693.033C134.437 693.421 131.671 691.84 128.102 691.034C117.553 690.185 107.947 689.443 96.3484 688.547C89.229 671.638 81.3859 653.009 74.6242 633.525C78.0972 634.533 80.7204 636.167 82.8372 638.302C89.7259 645.252 95.6072 653.552 103.464 659.078C109.788 663.526 115.062 665.919 112.789 675.338C110.973 682.866 114.552 686.477 123.072 681.278C124.94 681.043 126.005 680.885 127.84 680.799C129.638 680.792 130.666 680.713 132.664 680.812C136.262 681.059 138.889 681.127 141.516 681.196Z" fill="#E0B873"/>
<path d="M122.269 681.355C114.551 686.477 110.973 682.866 112.789 675.338C115.061 665.919 109.787 663.526 103.463 659.078C95.6068 653.552 89.7255 645.252 82.8368 638.302C80.72 636.167 78.0968 634.533 74.856 632.61C73.1762 631.475 72.3456 630.4 71.4196 627.878C71.3433 625.343 71.3618 624.256 72.234 623.039C78.2427 618.037 83.3978 613.164 89.1641 608.352C90.1858 608.456 90.596 608.498 91.0091 609.412C94.2978 615.95 97.531 621.647 100.881 627.274C106.302 636.383 111.801 645.446 117.255 655.505C118.075 661.497 118.906 666.513 119.732 672.325C119.726 674.185 119.726 675.247 119.759 677.062C120.618 678.994 121.444 680.175 122.269 681.355Z" fill="#EFD9A9"/>
<path d="M43.9665 527.83C50.5412 526.162 57.1158 524.493 65.1293 521.911C70.5192 520.255 74.4704 519.514 77.9685 519.479C74.888 523.588 72.9634 528.631 69.5116 530.107C54.8032 536.398 49.9032 541.813 69.3238 548.037C72.7024 564.552 85.5677 562.783 97.5402 563.535C87.2474 568.678 76.9854 572.964 66.3767 576.921C66.03 576.593 65.3634 575.91 65.3634 575.91C66.373 563.487 57.6385 572.362 52.7891 569.656C52.227 565.988 52.2461 563.133 53.1513 560.593C54.4706 556.893 56.4274 553.419 58.1124 549.848C54.0407 549.352 49.969 548.855 43.9665 548.123C43.9665 541.733 43.9665 534.781 43.9665 527.83Z" fill="#DDBD82"/>
<path d="M51.6135 706.132C49.8645 694.285 48.0581 683.413 45.73 669.402C52.0131 671.029 62.378 670.804 64.4258 674.817C69.4455 684.655 72.6256 696.529 72.1863 707.407C72.0473 710.848 58.1099 713.731 47.5109 718.095C49.816 711.834 50.6859 709.471 51.6135 706.132Z" fill="#DBB369"/>
<path d="M123.806 693.709C120.686 698.197 116.916 706.185 112.556 706.521C100.309 707.462 104.598 718.868 99.4735 723.902C98.9734 724.394 102.164 728.638 103.069 730.171C100.403 734.346 98.0147 738.085 95.6823 742.652C90.4007 744.116 85.0636 744.75 80.6112 745.28C85.6776 732.387 90.2732 719.847 95.6321 707.642C96.9941 704.54 100.373 701.583 103.544 700.17C109.723 697.417 116.409 695.803 123.806 693.709Z" fill="#CD9D4A"/>
<path d="M43.1638 527.992C43.966 534.781 43.966 541.733 43.966 548.123C49.9685 548.855 54.0402 549.352 58.112 549.848C56.4269 553.419 54.4701 556.893 53.1508 560.593C52.2456 563.133 52.2265 565.988 51.7707 569.762C48.3162 571.307 44.9026 571.792 40.6101 572.032C40.9319 566.927 42.1322 562.067 43.6163 556.058C40.8144 557.025 38.5062 557.821 36.53 558.503C25.7659 548.85 33.0629 539.67 37.2924 529.503C39.1049 528.466 40.7333 528.31 43.1638 527.992Z" fill="#CFA04E"/>
<path d="M71.3804 623.168C71.3618 624.256 71.3433 625.343 71.171 627.231C68.6503 625.777 65.6154 623.909 64.0408 621.194C59.2741 612.977 54.6802 604.604 50.8563 595.924C49.4499 592.731 50.3837 588.509 51.3825 585.243C54.5909 587.584 56.8045 589.307 58.7191 591.314C67.2101 600.215 76.8933 608.692 71.3804 623.168Z" fill="#CEA454"/>
<path d="M72.234 623.04C76.8934 608.692 67.2101 600.215 58.7192 591.314C56.8046 589.307 54.591 587.584 52.1668 584.984C55.8251 581.653 59.8315 579.068 64.6005 576.196C65.363 575.91 66.0296 576.593 66.6109 577.718C67.6228 580.357 68.5866 581.94 68.4022 583.375C66.4886 598.266 73.1218 605.934 88.2786 606.584C88.3636 607.154 88.5529 608.29 88.5529 608.29C83.3978 613.164 78.2428 618.037 72.234 623.04Z" fill="#DDBD82"/>
<path d="M205.581 729.405C204.607 718.986 212.647 722.655 217.582 722.491C226.75 722.188 235.958 723.113 245.49 724.313C232.774 726.581 219.717 728.062 205.581 729.405Z" fill="#DAB165"/>
<path d="M324.516 722.551C325.892 719.309 328.833 713.363 330.705 713.682C335.762 714.544 340.364 718.071 345.167 721.464C338.655 722.492 332.125 722.598 324.516 722.551Z" fill="#DAB061"/>
<path d="M577.467 246.933C579.967 250.602 582.907 253.66 583.591 257.158C585.975 269.353 587.585 281.7 589.438 293.996C589.469 294.203 588.86 294.507 587.109 295.138C584.747 293.859 583.021 292.202 583.031 290.555C583.118 276.624 580.06 265.007 568.042 255.389C559.982 248.938 554.609 238.562 559.974 225.373C540.666 235.659 548.481 212.939 539.581 210.221C544.2 205.837 548.818 201.453 554.625 195.942C550.624 194.611 546.119 193.112 541.621 191.624C541.629 191.634 541.648 191.648 541.458 190.737C533.281 188.851 525.294 187.876 516.654 186.538C514.967 184.062 513.932 181.949 513.839 179.625C519.478 178.652 524.378 178.47 528.804 176.929C531.84 175.871 536.687 172.565 536.442 170.888C535.593 165.071 532.874 159.527 530.866 153.88C527.764 155.325 524.662 156.769 521.106 158.426C520.382 156.689 519.403 154.339 517.898 150.726C514.641 154.14 512.128 156.775 507.967 161.137C505.27 153.474 501.766 147.07 501.399 140.492C501.275 138.277 509.116 135.617 514.56 132.434C501.786 131.119 490.145 129.92 478.526 128.679C478.548 128.638 478.456 128.651 478.91 128.016C479.953 123.802 480.543 120.223 481.077 116.573C481.021 116.502 481.155 116.628 482.192 116.622C497.016 115.753 510.803 114.891 524.604 115.015C524.614 118.637 524.609 121.274 524.605 123.91C524.605 123.91 524.523 125.038 524.182 125.626C523.966 126.522 524.089 126.831 524.212 127.14C524.386 126.791 524.559 126.443 524.733 126.094C525.76 126.112 526.787 126.129 528.632 127.168C533.417 141.094 541.371 150.271 554.327 154.772C555.673 157.62 557.018 160.468 557.461 164.313C556.027 170.849 554.507 176.524 555.246 181.888C555.975 187.178 561.36 192.552 560.578 197.195C557.745 214.018 568.364 226.153 573.443 240.191C574.586 242.302 575.729 244.413 577.467 246.933Z" fill="#CD9D4A"/>
<path d="M525.346 123.351C524.61 121.274 524.614 118.637 524.623 115.005C524.627 114.01 524.586 113.99 525.42 113.874C527.892 111.611 531.393 108.729 530.88 107.43C525.973 95.0103 520.583 82.7634 514.756 70.7458C514.007 69.2016 509.975 69.2476 506.654 68.5617C504.77 68.6565 503.695 68.7464 502.362 68.1353C500.758 66.0344 499.414 64.6347 498.676 62.7105C499.327 56.8892 503.612 53.5264 505.292 49.4284C508.278 42.1425 507.912 33.4832 508.939 25.4634C500.634 23.2981 493.298 21.3855 485.961 19.4729C485.15 16.0861 484.338 12.6995 483.348 8.4577C490.673 6.747 498.176 5.89114 506.697 5.00169C514.289 4.26638 520.863 3.56494 528.457 3.34646C529.515 4.24286 529.552 4.65659 529.589 5.07047C529.309 6.23831 529.413 7.78097 528.692 8.51924C508.521 29.1771 516.232 50.9649 526.084 72.7616C532.656 87.3004 539.499 101.717 546.296 116.351C538.957 118.69 532.522 120.74 525.346 123.351Z" fill="#9A5215"/>
<path d="M574.316 240.138C568.364 226.153 557.745 214.018 560.578 197.195C561.361 192.552 555.975 187.178 555.246 181.888C554.507 176.524 556.028 170.849 557.476 165.131C567.54 188.283 576.686 211.612 586.339 236.233C581.624 237.862 578.407 238.973 574.316 240.138Z" fill="#AF7432"/>
<path d="M544.527 62.695C546.094 69.3123 547.534 74.9579 548.997 80.6963C537.22 81.248 527.518 69.7249 530.843 59.2792C531.827 56.1869 535.794 54.0429 538.394 51.4644C540.396 54.884 542.397 58.3036 544.527 62.695Z" fill="#BA8842"/>
<path d="M554.211 153.843C541.371 150.271 533.417 141.094 529.389 127.314C530.433 126.855 531.505 127.445 532.647 127.662C546.616 130.313 552.708 139.609 554.211 153.843Z" fill="#AF7432"/>
<path d="M574.23 58.6448C576.211 65.6993 577.634 73.4639 579.746 81.9077C574.254 87.3517 571.267 83.5724 571.152 78.0293C571.024 71.8247 572.751 65.5817 574.23 58.6448Z" fill="#B1844B"/>
<path d="M565.392 55.5014C562.348 57.3818 559.431 58.3765 556.513 59.3713C556.513 55.1739 556.513 50.9764 556.513 46.779C557.754 46.4506 558.995 46.1224 560.236 45.794C561.997 48.7346 563.757 51.6751 565.392 55.5014Z" fill="#925721"/>
<path d="M529.993 4.81888C529.552 4.65661 529.515 4.24288 529.417 3.20877C529.703 3.24796 530.049 3.90769 529.993 4.81888Z" fill="#795031"/>
<path d="M526.333 664.64C522.584 669.545 518.835 674.449 513.778 680.19C508.521 682.859 502.9 683.702 501.074 686.788C499.087 690.146 500.623 695.587 500.623 700.343C497.978 702.419 492.342 704.596 490.942 708.351C486.266 720.891 477.728 718.36 469.203 714.967C475.817 710.481 487.775 713.729 486.229 699.781C489.793 692.056 492.955 685.119 496.293 677.796C495.177 676.969 493.407 675.657 494.361 676.364C494.959 668.368 495.377 662.788 496.64 657.071C499.264 655.433 501.03 653.917 502.823 652.433C511.737 645.053 508.075 629.863 520.207 624.485C518.835 621.578 518.11 618.001 515.947 615.91C512.144 612.236 507.461 609.472 504.099 606.262C510.689 605.084 516.327 603.971 522.916 603.079C525.804 603.52 527.742 603.74 529.734 604.796C530.833 608.604 531.879 611.575 532.942 614.595C536.298 613.399 539.206 612.364 542.113 611.328C535.363 618.47 543.5 637.374 524.488 632.825C526.404 635.589 527.915 637.769 529.82 640.517C525.534 641.201 522.747 641.646 522.072 641.754C519.269 649.332 517.139 655.089 514.456 662.343C518.33 663.092 522.332 663.866 526.333 664.64Z" fill="#E1B96F"/>
<path d="M527.05 664.462C522.332 663.866 518.33 663.092 514.456 662.342C517.139 655.089 519.269 649.332 522.072 641.754C522.747 641.646 525.534 641.201 529.82 640.517C527.915 637.769 526.404 635.589 524.488 632.825C543.5 637.374 535.363 618.47 542.113 611.328C539.206 612.364 536.298 613.399 532.942 614.594C531.879 611.574 530.833 608.604 530.628 604.761C533.265 603.948 535.06 604.007 537.473 604.642C548.713 606.26 553.403 596.61 555.257 590.654C557.646 582.976 561.363 579.393 567.757 577.435C567.665 584.384 556.024 589.315 566.014 596.44C563.661 602.324 561.307 608.209 558.947 614.959C552.06 627.242 545.321 638.749 538.234 650.037C535.109 655.014 531.277 659.548 527.05 664.462Z" fill="#CFA04E"/>
<path d="M468.658 715.753C477.729 718.36 486.266 720.891 490.942 708.351C492.342 704.596 497.978 702.419 500.623 700.343C500.623 695.587 499.087 690.146 501.074 686.788C502.9 683.702 508.521 682.859 513.428 680.962C514.069 691.702 513.752 702.508 513.005 714.223C509.437 712.833 506.3 710.534 502.877 708.025C501.491 714.518 500.827 721.855 498.268 728.458C495.59 735.366 491.881 736.819 484.949 730.47C480.598 726.486 472.126 726.367 465.396 725.815C460.437 725.408 455.304 727.105 450.113 727.885C450.113 723.534 450.113 720.063 450.87 715.801C457.304 715.257 462.981 715.505 468.658 715.753Z" fill="#C5903B"/>
<path d="M544 671.487C538.409 678.237 534.63 685.28 537.805 694.605C538.585 696.899 536.763 700.078 536.137 702.849C533.053 701.499 528.993 700.966 527.052 698.656C518.34 688.288 526.278 674.395 543.139 671.552C544.068 671.521 544 671.487 544 671.487Z" fill="#CBA65F"/>
<path d="M574.758 676.673C577.63 684.877 580.095 693.046 582.448 702.209C580.878 703.203 579.42 703.201 577.245 703.271C574.828 701.285 573.128 699.228 571.053 695.561C571.63 688.195 572.583 682.438 573.536 676.681C573.536 676.681 574.351 676.639 574.758 676.673Z" fill="#CD9D4A"/>
<path d="M562.627 720.025C564.06 725.326 564.523 730.548 564.327 736.373C559.611 733.654 555.553 730.332 551.496 727.01C554.883 724.656 558.27 722.301 562.627 720.025Z" fill="#925721"/>
<path d="M572.581 676.568C572.583 682.438 571.63 688.195 570.534 694.942C567.273 692.95 564.154 689.967 561.035 686.985C564.565 683.475 568.096 679.965 572.581 676.568Z" fill="#9A5215"/>
<path d="M569.142 714.873C568.418 716.59 566.886 718.384 564.474 720.138C565.174 718.382 566.753 716.666 569.142 714.873Z" fill="#925721"/>
<path d="M544.087 671.556C544.107 671.592 544.394 670.856 544.394 670.856C544.394 670.856 544.295 671.158 544.147 671.322C543.999 671.487 544.068 671.521 544.087 671.556Z" fill="#CBA65F"/>
<path d="M175.521 12.4386C175.521 12.4386 176.685 12.2979 177.266 12.218C181.329 12.8109 184.811 13.4838 189.743 15.1262C202.496 17.2271 213.907 17.7479 225.059 19.726C231.401 20.851 237.32 24.3588 242.406 26.8113C237.971 26.8552 234.56 26.8814 230.108 26.9061C224.319 27.2824 219.549 27.4857 214.828 28.0763C206.473 29.1215 197.932 32.1826 189.857 31.2048C174.268 29.3177 159.284 29.2696 144.487 34.9765C142.4 35.7813 139.869 35.4308 137.545 35.6265C126.941 36.519 116.337 37.4157 104.962 38.3762C106.107 44.3153 106.769 47.7483 106.624 51.2691C102.493 54.4313 99.1682 57.5055 95.8434 60.5799C98.1807 42.7416 92.055 28.1714 78.8551 15.0094C87.6336 16.2891 96.3093 18.9326 105.512 22.3105C114.853 26.2484 123.765 32.991 132.112 22.0101C132.953 20.9032 134.897 20.2491 136.402 20.0926C147.122 18.9786 157.891 18.2881 168.568 16.8806C171.038 16.5549 173.211 13.979 175.521 12.4386Z" fill="#DCB05F"/>
<path d="M64.125 159.771C61.7007 157.909 57.3595 156.219 57.1742 154.155C56.2264 143.604 68.3057 133.029 77.597 134.359C77.1149 126.985 76.6213 119.437 76.288 111.07C79.104 105.39 81.7598 100.527 85.8943 95.3032C91.0236 98.9752 94.674 103.009 98.2077 107.929C96.9111 111.769 96.3289 115.191 94.4436 117.59C87.8589 125.969 91.1257 129.668 100.517 131.629C101.328 132.783 101.988 133.174 102.815 133.335C102.826 133.367 102.91 133.341 102.808 134.252C103.454 139.202 104.203 143.242 105.076 147.953C96.654 145.494 87.627 139.767 80.8814 141.758C74.1119 143.757 69.6168 153.45 64.125 159.771Z" fill="#CD9D4A"/>
<path d="M98.3246 107.041C94.6742 103.008 91.0238 98.9747 86.5454 94.8036C88.9471 83.9672 92.1766 73.2687 95.6248 61.575C99.1684 57.5054 102.493 54.4312 106.982 52.0645C109.145 56.929 111.554 61.3355 110.87 65.1942C109.095 75.2068 105.959 84.9786 103.121 95.6889C101.359 100.035 99.8418 103.538 98.3246 107.041Z" fill="#C48E3A"/>
<path d="M60.3434 61.2981C63.4404 48.5667 64.9123 48.2638 81.8376 56.0323C79.7714 77.8057 78.5228 78.7046 48.1874 79.81C52.2759 73.7361 56.1575 67.9696 60.3434 61.2981Z" fill="#D7AA5D"/>
<path d="M104.984 21.5754C96.3088 18.9319 87.6331 16.2884 78.4197 14.303C74.6783 12.176 71.475 9.39115 66.4413 5.01492C78.501 5.01492 88.2966 5.01492 99.2206 5.06418C105.456 5.95096 110.562 6.78848 116.815 8.22154C118.403 9.42842 118.999 9.78033 119.749 9.87292C119.749 9.87292 119.678 9.88032 119.972 10.5624C123.597 15.2123 125.88 18.4276 117.609 18.6826C113.375 18.8132 109.191 20.5593 104.984 21.5754Z" fill="#AF7834"/>
<path d="M503.147 606.326C507.461 609.472 512.144 612.236 515.947 615.91C518.11 618.001 518.835 621.578 520.207 624.485C508.075 629.863 511.737 645.053 502.823 652.433C501.03 653.917 499.264 655.433 495.559 656.979C485.806 657.848 477.979 658.671 471.331 659.371C471.331 665.81 471.331 670.722 471.331 676.54C475.469 677.664 480.235 678.958 482.961 679.698C482.216 686.681 481.606 692.407 480.191 698.142C478.313 698.167 477.241 698.182 475.39 698.279C473.504 699.89 472.397 701.421 470.488 702.957C468.618 702.961 467.55 702.958 466.275 702.036C452.402 694.531 436.447 700.426 434.904 712.633C425.163 712.665 415.422 712.697 404.562 712.759C386.112 704.192 367.204 700.997 348.42 698.696C337.096 697.31 325.2 699.31 313.751 701.038C310.413 701.542 307.725 706.35 303.968 709.919C302.385 706.771 300.938 703.894 297.38 696.819C294.898 701.344 293.459 703.966 292.371 705.951C280.818 703.987 269.407 702.046 257.996 700.106C258.231 699.617 258.467 699.129 258.702 698.641C234.147 700.272 209.593 701.903 182.532 703.7C185.296 698.625 186.352 696.687 187.628 693.164C190.996 691.349 194.143 691.118 197.317 691.826C203.115 700.78 210.345 699.337 220.09 688.007C245.027 687.343 269.046 686.966 293.066 686.941C296.567 686.938 300.062 688.649 303.576 689.502C305.514 689.973 307.534 690.814 309.434 690.63C327.234 688.912 344.348 687.941 362.629 692.377C380.156 696.629 399.568 693.925 418.087 692.992C429.519 692.415 447.323 675.806 443.804 669.217C438.737 659.732 441.969 653.211 446.778 646.161C434.872 640.13 428.457 642.799 420.23 651.406C413.567 658.376 404.428 666.807 396.028 667.215C387.684 667.62 378.55 659.308 370.522 653.728C368.354 652.221 368.943 646.752 368.267 643.102C371.011 642.755 374.204 641.32 376.424 642.238C391.547 648.491 395.117 645.941 394.122 630.627C383.861 629.427 373.738 629.075 364.15 626.629C361.157 625.866 359.607 619.45 358.344 615.63C361.819 615.596 364.346 615.554 367.993 615.592C388.235 615.673 407.357 615.673 426.613 615.673C428.767 602.809 428.767 602.809 437.282 603.385C435.687 607.779 434.164 611.974 431.855 618.331C441.775 616.79 449.744 615.552 455.754 614.618C463.665 621.754 470.352 627.786 478.052 634.733C481.074 627.947 483.918 621.561 487.706 613.054C480.987 615.312 476.967 616.663 470.612 618.799C478.481 608.017 485.329 605.785 503.147 606.326Z" fill="#EFD9AA"/>
<path d="M476.168 698.198C477.241 698.182 478.314 698.167 480.595 698.737C483.145 699.738 484.486 700.154 485.826 700.569C487.776 713.729 475.817 710.481 469.203 714.967C462.981 715.505 457.304 715.257 450.557 715.075C448.347 714.37 447.206 713.599 445.399 712.031C445.508 710.103 446.282 708.971 447.866 707.841C449.754 707.842 450.832 707.841 452.881 707.841C456.436 707.844 459.021 707.845 462.075 708.453C465.465 707.848 468.386 706.635 472.138 705.293C474.036 702.842 475.102 700.52 476.168 698.198Z" fill="#E9CB8D"/>
<path d="M461.607 707.845C459.021 707.844 456.436 707.843 452.785 707.119C450.733 705.625 449.745 704.855 448.758 704.084C448.191 705.336 447.624 706.588 447.057 707.84C446.282 708.971 445.508 710.102 444.68 711.953C442.034 712.699 439.441 712.725 435.876 712.692C436.447 700.426 452.402 694.531 465.9 702.632C464.356 705.38 462.981 706.613 461.607 707.845Z" fill="#E8CD94"/>
<path d="M517.307 186.9C525.294 187.875 533.281 188.851 541.118 190.861C540.849 192.104 540.73 192.313 540.611 192.522C540.946 192.22 541.28 191.917 541.614 191.614C546.119 193.112 550.624 194.611 554.625 195.942C548.819 201.453 544.2 205.837 539.581 210.221C548.481 212.939 540.667 235.659 559.974 225.373C554.609 238.562 559.983 248.938 568.042 255.389C580.06 265.007 583.118 276.624 583.031 290.555C583.021 292.202 584.747 293.859 586.538 295.801C588.298 299.439 589.188 302.788 589.465 307.513C587.735 311.814 586.618 314.738 584.863 317.648C583.798 317.628 583.373 317.623 582.237 316.946C581.141 312.336 581.505 308.135 580.232 304.509C575.655 291.483 580.222 274.348 563.407 265.822C559.256 261.886 554.63 259.306 551.477 255.504C548.885 252.38 545.642 246.644 546.878 244.093C550.532 236.554 546.595 233.354 541.982 228.932C538.074 225.186 535.41 220.145 532.195 215.677C532.921 214.956 533.648 214.235 534.374 213.514C528.996 211.568 523.617 209.622 518.028 207.599C524.591 195.966 524.591 195.966 517.307 186.9Z" fill="#E1BA70"/>
<path d="M595.207 458.242C595.207 458.242 595.089 459.414 594.261 460.39C590.782 465.273 588.131 469.18 585.406 472.056C583.593 457.743 581.853 444.463 580.183 430.191C578.786 422.719 577.32 416.239 575.541 408.379C576.712 401.856 581.426 392.158 579.015 384.788C576.056 375.745 576.59 368.96 581.433 361.336C583.974 361.265 585.668 361.221 587.578 361.957C589.404 363.868 591.014 364.999 592.625 366.129C593.423 371.064 594.221 375.998 595.015 382.876C593.897 398.547 592.463 412.261 591.94 426.011C591.836 428.729 595.235 431.58 597.018 434.37C597.032 436.727 597.046 439.084 596.169 442.645C595.253 448.647 595.23 453.444 595.207 458.242Z" fill="#E0B66A"/>
<path d="M587.362 361.176C585.668 361.221 583.974 361.265 581.398 360.217C579.57 351.137 581.57 339.477 577.093 335.889C566.116 327.092 571.748 325.438 579.792 322.098C581.218 321.506 581.914 319.156 582.947 317.618C583.372 317.623 583.798 317.628 584.846 318.462C586.169 321.198 586.87 323.104 587.572 325.01C587.641 335.608 587.711 346.206 587.731 358.372C587.575 360.353 587.469 360.765 587.362 361.176Z" fill="#E6C37F"/>
<path d="M597.502 433.426C595.235 431.58 591.836 428.729 591.94 426.011C592.463 412.261 593.897 398.547 595.189 383.796C596.757 384.015 599.373 385.277 599.354 386.498C599.12 401.83 598.504 417.155 597.502 433.426Z" fill="#C08C3B"/>
<path d="M585.48 473.087C588.131 469.18 590.782 465.273 594.2 460.976C594.185 468.83 593.403 477.075 592.643 486.326C589.888 489.688 587.113 492.045 583.533 493.263C583.645 485.779 584.563 479.433 585.48 473.087Z" fill="#C08C3B"/>
<path d="M588.305 324.511C586.871 323.104 586.169 321.198 585.484 318.477C586.618 314.738 587.735 311.814 589.497 308.391C589.774 313.266 589.406 318.639 588.305 324.511Z" fill="#CD9D4A"/>
<path d="M595.833 457.542C595.231 453.444 595.254 448.647 596.107 443.528C596.778 447.752 596.618 452.297 595.833 457.542Z" fill="#C08C3B"/>
<path d="M587.578 361.957C587.469 360.765 587.576 360.353 587.882 359.334C589.592 360.636 591.102 362.545 592.618 365.291C591.015 364.999 589.405 363.868 587.578 361.957Z" fill="#C08C3B"/>
<path d="M42.0997 266.985C41.7008 266.911 41.3018 266.836 39.8867 265.862C39.5685 261.434 40.1937 257.89 40.9833 254.382C41.9052 250.287 42.9707 246.223 44.1698 241.459C44.5934 239.846 44.8212 238.922 46.0177 237.927C55.8503 236.981 64.7142 236.106 74.3952 235.245C76.3015 235.254 77.3908 235.248 78.6044 235.573C78.6364 235.693 78.5441 235.481 78.4356 234.367C77.1297 224.353 73.3784 218.976 62.8019 224.287C67.3396 213.163 71.7151 211.827 83.2805 215.683C87.7856 213.761 92.6082 212.121 96.6644 213.245C99.1779 213.941 100.528 218.833 102.851 222.567C105.278 221.867 109.384 220.682 110.686 220.307C113.059 209.312 113.61 199.348 117.508 190.934C120.901 183.61 128.871 178.545 133.355 171.545C137.9 164.451 140.653 156.209 144.905 148.337C146.74 147.364 147.861 146.524 149.86 145.652C158.801 141.034 166.976 137.892 176.697 140.094C187.112 142.454 197.738 143.883 208.272 145.718C208.862 144.103 209.451 142.488 210.041 140.873C206.575 139.08 202.764 137.727 199.741 135.367C196.819 133.085 194.709 129.765 192.243 126.902C193.061 126.258 193.879 125.615 194.697 124.971C199.18 128.009 203.663 131.047 207.54 133.674C212.81 128.832 217.026 124.958 220.97 121.334C225.722 124.43 229.25 126.728 231.895 128.451C236.762 122.649 239.98 115.026 244.764 113.868C256.119 111.122 268.202 111.133 280.017 110.603C292.739 110.032 305.085 111.037 315.192 120.615C317.925 123.205 322.25 124.117 326.438 126.076C326.745 121.823 326.991 118.416 327.24 114.954C328.906 115.179 329.425 115.09 329.651 115.306C330.792 116.395 332.135 117.402 332.904 118.728C339.469 130.06 346.959 134.841 360.192 126.796C370.339 120.628 381.419 125.477 389.271 134.673C392.258 138.172 398.052 140.255 402.868 140.978C409.347 141.951 416.282 140.081 422.694 141.239C425.8 141.8 429.044 146.04 430.698 149.372C435.87 159.788 432.505 175.008 449.282 179.185C443.84 182.518 439.385 185.247 434.648 188.148C437.836 193.046 440.154 196.609 442.772 200.631C439.1 203.247 436.074 205.404 432.911 207.659C437.526 211.971 441.442 215.82 445.583 219.41C447.311 220.908 449.516 221.857 451.504 223.055C449.832 225.413 448.591 228.384 446.362 229.951C444.276 231.417 441.143 231.394 438.471 232.026C438.644 233.044 438.817 234.062 438.99 235.08C446.045 234.404 453.1 233.729 460.845 232.987C456.341 238.002 452.915 241.817 450.017 245.045C460.526 253.687 469.418 261 479.052 268.924C478.565 270.627 477.387 274.741 475.331 278.959C468.384 283.834 462.474 283.92 456.105 279.253C451.948 276.207 447.166 274.011 442.664 271.435C446.222 268.418 449.817 265.442 453.294 262.333C453.742 261.932 453.575 260.843 453.77 259.568C442.069 256.481 430.209 253.707 418.58 250.171C409.473 247.402 405.702 240.964 402.683 231.364C399.02 219.72 390.612 209.436 383.425 199.143C382.009 197.116 376.293 196.318 373.454 197.368C362.596 201.384 354.948 195.215 351.358 187.73C345.636 175.799 338.553 172.219 326.435 176.36C323.497 177.364 320.052 176.882 316.842 177.093C302.655 178.029 287.371 171.211 274.706 183.711C272.928 185.465 267.923 183.954 263.612 183.954C264.222 180.226 265.402 177.416 264.908 174.939C264.28 171.789 262.296 168.91 260.897 165.915C259.101 168.545 256.943 171.01 255.646 173.867C254.885 175.543 255.312 177.859 255.517 179.855C256.445 188.891 252.099 191.096 243.511 192.039C234.287 193.052 225.392 197.19 216.393 200.087C202.601 204.527 188.98 210.296 172.164 204.219C168.447 213.677 164.681 223.259 160.315 232.845C159.715 232.85 158.514 232.845 157.638 232.92C140.29 230.872 122.735 242.073 105.516 224.642C106.729 239.747 102.26 246.949 91.3544 250.798C86.3708 252.557 82.722 258.093 77.6594 261.916C75.7734 261.916 74.6956 261.916 73.2392 261.181C64.6319 251.68 61.6356 263.568 54.9972 264.755C50.081 265.513 46.0904 266.249 42.0997 266.985Z" fill="#F7E9C4"/>
<path d="M45.0489 237.996C44.8212 238.921 44.5935 239.846 43.2867 241.682C27.1946 243.002 23.0783 252.017 24.2984 265.246C20.8165 264.804 17.3346 264.362 11.5643 263.629C18.5583 244.103 25.1066 225.784 31.6931 207.478C32.6436 204.836 34.0208 202.33 34.7887 199.643C40.0469 181.241 48.35 167.194 71.3664 172.152C73.9306 172.705 77.064 170.618 80.9078 168.604C82.4488 167.324 83.0154 167.195 84.4528 167.134C87.0762 167.271 88.8286 167.34 90.5705 168.278C88.9122 172.675 87.2645 176.202 84.6636 179.686C81.1743 179.732 78.6382 179.823 75.4651 179.846C74.4073 179.851 73.9864 179.921 72.693 179.912C70.0708 179.872 68.3212 179.911 65.6862 179.889C54.244 186.32 53.0966 194.242 60.6601 203.613C60.1341 203.656 59.0865 203.787 58.0744 203.741C50.2124 203.972 41.6952 201.598 41.225 213.614C34.7814 219.262 31.181 224.596 39.9148 231.273C41.8502 233.968 43.4495 235.982 45.0489 237.996Z" fill="#D7AA5D"/>
<path d="M83.582 167.066C83.0154 167.195 82.4488 167.325 81.0404 167.691C75.3924 165.326 70.586 162.726 64.9523 159.948C69.6169 153.45 74.112 143.756 80.8815 141.758C87.6271 139.766 96.6541 145.494 105.076 147.952C104.203 143.242 103.454 139.201 103.893 134.27C109.866 133.424 114.811 132.705 119.406 133.666C129.922 135.863 142.306 133.939 148.982 145.685C147.861 146.525 146.74 147.364 143.977 148.192C123.156 149.378 103.976 150.576 86.0489 151.695C85.1602 157.233 84.3711 162.149 83.582 167.066Z" fill="#E6C480"/>
<path d="M42.4414 267.732C46.0905 266.249 50.0812 265.514 55.5649 265.297C58.4469 267.684 59.836 269.551 61.2559 271.435C61.2869 271.453 61.2257 271.345 60.3691 271.477C53.7033 274.023 47.8942 276.437 41.1543 278.823C36.8298 279.658 33.436 280.521 30.0422 281.385C26.6897 284.334 23.3374 287.283 18.9225 291.166C17.705 291.166 14.2306 291.166 9.8733 291.221C9.09538 289.716 9.26129 288.158 9.29548 286.596C9.53585 275.621 13.3079 270.804 25.7462 273.562C30.388 274.59 40.101 279.554 42.4414 267.732Z" fill="#CEA454"/>
<path d="M25.1391 265.749C23.0777 252.017 27.1941 243.002 43.0905 242.369C42.9702 246.223 41.9047 250.286 40.9827 254.382C40.1931 257.889 39.5679 261.433 39.3012 265.693C35.1485 266.367 30.5646 266.31 25.1391 265.749Z" fill="#E9CB8D"/>
<path d="M30.0111 282.328C33.4358 280.521 36.8296 279.658 41.1616 279.891C42.6595 289.325 39.6311 298.749 49.1632 304.953C51.2982 301.607 53.1647 298.681 55.3696 295.226C63.882 308.899 56.8552 327.416 41.1941 333.487C34.7011 336.004 32.7454 338.13 34.2605 345.51C36.2348 355.126 36.5842 365.295 36.0946 375.15C35.1986 393.178 26.8105 410.687 31.3085 429.203C26.1119 429.218 21.9544 429.229 17.7741 428.643C17.7515 428.044 17.642 426.854 17.3957 426.032C16.4885 415.154 15.8277 405.096 15.5429 394.394C17.3363 390.222 18.7538 386.696 20.1712 383.169C26.1698 374.549 28.9626 365.444 24.4138 355.222C24.0876 354.49 23.6372 353.753 23.5474 352.983C22.1311 340.886 20.7646 328.782 19.4191 316.965C23.6802 317.451 28.0004 317.944 32.3206 318.437C31.93 314.064 31.4471 309.696 31.1697 305.316C30.7045 297.972 30.3697 290.62 30.0111 282.328Z" fill="#EFD9A9"/>
<path d="M19.1383 383.151C18.7537 386.695 17.3362 390.222 14.7149 394.449C10.8806 395.996 8.24999 396.844 5.61933 397.692C4.88729 393.427 4.1554 389.162 3.59387 383.914C8.54467 382.999 13.3251 383.066 19.1383 383.151Z" fill="#DAB165"/>
<path d="M4.69723 361.258C3.78226 357.181 3.68694 352.923 3.74378 347.604C8.44 345.829 12.9844 345.114 17.6029 344.387C21.1197 355.959 11.2816 356.992 4.69723 361.258Z" fill="#DAB165"/>
<path d="M352.38 19.3636C356.596 18.6538 360.788 17.5917 365.034 17.2923C388.886 15.6097 412.742 13.9261 436.62 12.7149C441.043 12.4905 445.545 14.6303 450.066 15.3025C454.338 15.9375 458.759 15.7087 462.971 16.5628C465.842 17.1448 468.468 18.9365 471.355 21.9867C475.365 25.2459 479.121 27.233 483.112 28.0112C486.818 28.7335 490.775 28.1652 493.363 28.1652C493.363 38.2919 493.363 45.9037 492.699 53.5055C491.593 53.4944 491.151 53.4935 490.092 53.1863C488.272 52.201 487.069 51.5225 485.776 49.9802C481.042 44.8261 476.744 40.0691 471.682 36.3483C462.906 29.8959 453.451 33.4896 444.113 35.4046C439.643 36.3211 434.974 36.2656 429.283 36.744C432.498 33.6926 434.735 31.5701 436.441 29.9509C430.342 28.9127 425.086 27.0721 419.944 27.3515C410.991 27.8382 401.797 31.699 393.269 30.409C379.4 28.3108 365.986 23.2019 352.38 19.3636Z" fill="#C68D38"/>
<path d="M351.486 19.3863C365.986 23.2019 379.4 28.3107 393.269 30.409C401.797 31.699 410.991 27.8381 419.944 27.3515C425.086 27.0721 430.342 28.9126 436.441 29.9509C434.735 31.57 432.498 33.6925 429.283 36.744C434.974 36.2656 439.643 36.3211 444.113 35.4046C453.45 33.4896 462.906 29.8959 471.682 36.3483C476.744 40.0691 481.042 44.8261 485.397 50.7442C476.838 59.6166 467.895 54.276 463.102 49.6915C453.738 40.735 443.119 42.5166 431.63 41.4419C428.88 41.4026 427.046 41.4198 424.305 41.4121C421.581 41.3896 419.764 41.3922 417.345 40.7041C401.835 37.0598 386.929 34.1064 372.023 31.153C371.812 32.3623 371.601 33.5715 371.39 34.7808C377.297 36.5103 383.203 38.2398 389.11 39.9692C388.835 41.1715 388.56 42.3737 388.285 43.5758C376.172 40.4648 364.059 37.3537 350.961 33.9896C341.474 42.5802 338.689 42.0268 333.658 28.326C337.914 24.9979 341.565 22.2612 345.216 19.5246C347.008 19.4859 348.8 19.4473 351.486 19.3863Z" fill="#CFA14B"/>
<path d="M344.098 19.5257C341.565 22.2611 337.914 24.9977 332.726 28.3856C311.795 27.5224 292.393 26.0852 273.007 24.4621C262.995 23.6237 252.827 20.1016 243.43 26.7932C237.32 24.3586 231.401 20.8508 225.059 19.7258C213.907 17.7477 202.496 17.2269 190.576 15.445C197.351 14.0393 204.782 12.3754 212.128 12.6924C238.539 13.832 264.917 15.7258 291.316 17.1655C308.53 18.1042 325.759 18.75 344.098 19.5257Z" fill="#C5903B"/>
<path d="M493.363 53.5156C493.363 45.9037 493.363 38.2918 493.363 28.1652C490.775 28.1652 486.818 28.7335 483.112 28.0112C479.121 27.233 475.365 25.2458 471.393 22.888C475.532 21.1713 479.785 20.3529 484.999 19.5037C493.298 21.3855 500.634 23.2981 508.939 25.4634C507.912 33.4832 508.278 42.1425 505.292 49.4285C503.611 53.5264 499.327 56.8893 498.288 62.0143C495.982 59.0668 494.673 56.2912 493.363 53.5156Z" fill="#B07330"/>
<path d="M17.7965 429.24C21.9541 429.229 26.1116 429.218 31.313 429.793C32.3567 430.38 32.3937 431.563 31.5652 431.918C28.0429 436.502 23.3574 440.601 23.0738 444.985C22.4966 453.903 24.8879 462.973 24.9311 471.985C24.9666 479.395 28.5657 480.737 34.6686 480.904C36.3538 484.423 37.966 487.109 39.5579 490.628C37.7828 494.608 36.028 497.755 34.0036 501.385C40.8025 505.397 47.6223 509.421 54.4401 513.591C54.4382 513.737 54.2326 513.945 54.2098 514.501C54.187 515.057 54.1438 516.168 54.1438 516.168C45.486 516.814 36.7968 518.116 28.1896 517.705C25.5893 517.58 21.9791 513.095 20.977 509.929C18.2352 501.268 16.6355 492.247 13.7876 482.92C11.4268 469.442 9.86204 456.414 9.20771 442.226C12.6776 437.125 15.237 433.183 17.7965 429.24Z" fill="#DFBC79"/>
<path d="M5.67782 398.724C8.25016 396.845 10.8808 395.997 14.3393 395.094C15.8278 405.096 16.4886 415.153 16.4571 425.996C13.2464 426.666 10.7281 426.551 8.20013 425.693C8.18785 423.953 8.18533 422.956 8.17675 421.078C7.45581 417.516 6.74094 414.836 6.02592 412.156C5.92928 408.022 5.83263 403.888 5.67782 398.724Z" fill="#E6C480"/>
<path d="M8.20979 426.437C10.728 426.551 13.2463 426.666 16.7033 426.817C17.6419 426.854 17.7514 428.044 17.7741 428.642C15.2373 433.183 12.6778 437.125 9.29438 441.198C8.33249 437.931 8.19455 434.533 8.08961 429.451C8.15177 427.323 8.18078 426.88 8.20979 426.437Z" fill="#DAB165"/>
<path d="M5.93339 413.145C6.74047 414.835 7.45533 417.515 7.77799 421.08C7.38562 421.964 6.59172 422.023 6.59172 422.023C6.34159 419.394 6.09146 416.764 5.93339 413.145Z" fill="#DAB165"/>
<path d="M6.4561 422.786C6.59256 422.023 7.38632 421.964 7.7846 421.961C8.18555 422.956 8.18807 423.953 8.20035 425.693C8.18111 426.879 8.1521 427.322 8.1148 428.431C7.51079 427.247 6.91521 425.398 6.4561 422.786Z" fill="#DFBC79"/>
<path d="M566.66 595.86C556.025 589.315 567.665 584.384 567.876 576.426C570.823 562.035 573.752 549.51 576.767 536.617C573.876 534.787 570.865 532.881 567.815 529.996C567.879 526.41 567.981 523.802 569.045 521.233C572.698 520.314 575.389 519.359 578.08 518.403C577.91 517.509 577.74 516.615 577.57 515.721C573.628 514.37 569.686 513.019 565.779 511.614C565.814 511.561 565.718 511.675 565.762 510.938C565.04 509.024 564.274 507.847 563.61 505.833C567.173 502.913 570.634 500.83 574.094 498.748C578.858 501.21 583.622 503.673 589.243 506.425C586.702 523.792 583.923 541.025 579.704 557.898C576.528 570.598 571.506 582.836 566.66 595.86Z" fill="#C08836"/>
<path d="M54.9336 516.533C54.1439 516.168 54.1871 515.056 55.2042 514.455C67.2914 513.11 78.3613 512.365 89.4313 511.62C89.6728 512.688 89.9144 513.756 90.1559 514.824C86.2443 516.14 82.3326 517.455 78.421 518.771C74.47 519.513 70.5188 520.255 65.7484 521.211C61.8604 519.916 58.792 518.407 54.9336 516.533Z" fill="#CBA65F"/>
<path d="M105.511 22.3104C109.191 20.5599 113.376 18.8139 117.61 18.6833C125.88 18.4283 123.598 15.2129 119.975 10.5277C137.694 10.3985 155.705 10.987 174.618 12.0069C173.211 13.979 171.038 16.5549 168.568 16.8806C157.891 18.288 147.121 18.9785 136.402 20.0925C134.896 20.249 132.953 20.9031 132.111 22.01C123.765 32.9909 114.853 26.2484 105.511 22.3104Z" fill="#CFA04E"/>
<path d="M119.581 9.37799C119 9.78107 118.404 9.42917 117.821 8.31133C118.406 7.92615 118.984 8.2853 119.581 9.37799Z" fill="#CFA04E"/>
<path d="M574.535 498.012C570.634 500.83 567.173 502.913 562.997 506.251C561.849 508.894 561.416 510.283 560.121 511.65C557.549 511.495 555.84 511.361 553.733 510.524C553.658 507.379 554.044 504.944 554.292 502.495C554.969 495.818 555.587 489.134 556.867 481.964C555.016 476.718 552.527 471.961 549.286 465.77C556.239 463.513 563.116 461.28 571.084 458.693C569.528 452.137 568.024 445.801 566.518 439.454C571.442 436.459 575.778 433.821 580.114 431.183C581.854 444.463 583.593 457.743 585.406 472.055C584.562 479.433 583.645 485.779 582.579 493.067C579.946 495.098 577.461 496.188 574.535 498.012Z" fill="#E1BD79"/>
<path d="M158.514 232.845C158.514 232.845 159.715 232.85 161.23 232.828C171.855 229.922 172.227 217.156 184.76 215.818C191.256 215.125 194.125 219.238 198.06 218.921C208.665 218.065 219.109 215.201 230.09 213.041C229.302 211.028 228.087 207.925 227.071 205.329C227.832 204.201 227.979 203.721 228.29 203.562C232.489 201.416 236.711 199.314 240.927 197.201C240.62 198.342 240.313 199.483 240.007 200.624C247.775 203.352 255.543 206.081 264.831 209.343C264.412 203.771 264.187 200.78 264.023 198.604C272.477 194.549 279.947 189.372 288.17 187.494C295.624 185.791 304.42 186.079 311.674 188.424C319.583 190.981 327.709 177.165 334.912 189.111C332.672 191.14 330.863 192.779 328.981 194.483C337.825 196.103 345.816 197.298 353.666 199.107C358.135 200.137 362.59 203.945 366.676 203.444C384.52 201.259 384.861 218.908 393.978 226.435C395.045 227.316 396.032 229.24 395.863 230.523C393.856 245.734 404.228 252.151 415.244 258.092C421.58 261.508 431.119 263.116 433.834 268.335C441.732 283.518 452.913 293.025 468.916 298.002C470.346 298.447 470.52 302.924 470.384 305.516C465.641 304.26 461.791 303.016 457.47 301.62C459.468 315.964 469.975 325.574 483.069 326.442C484.926 326.565 487.185 327.717 488.408 329.128C495.398 337.19 497.241 345.526 487.182 354.012C499.521 362.625 499.918 373.717 495.484 385.544C494.46 388.276 491.629 390.331 489.629 392.698C487.553 390.012 485.257 387.461 483.49 384.585C482.543 383.044 482.508 380.945 481.334 376.091C463.88 387.152 447.801 397.341 431.722 407.53C432.35 408.903 432.978 410.276 433.606 411.649C441.254 410.639 448.967 408.529 456.528 408.979C462.209 409.317 469.642 411.424 472.797 415.469C477.247 421.175 470.322 423.886 465.819 426.481C464.254 427.384 463.315 429.372 462.507 430.356C469.166 438.416 475.362 445.916 481.558 453.416C480.835 454.838 480.111 456.259 479.388 457.68C469.796 455.511 460.204 453.343 449.817 450.995C455.41 464.235 459.761 474.537 465.129 487.245C452.836 489.731 442.272 491.867 429.551 494.44C434.303 498.999 438.119 502.979 442.288 506.548C444.931 508.81 448.098 510.461 451.03 512.386C447.486 514.521 444.174 517.472 440.334 518.558C436.598 519.615 431.968 519.793 428.35 518.552C418.01 515.005 409.784 518.349 401.337 524.03C396.485 527.292 390.394 528.665 385.026 531.233C382.997 532.203 381.43 534.141 379.653 535.638C387.028 536.997 393.864 537.653 399.42 535.296C413.743 529.22 426.277 531.33 438.373 540.305C439.45 541.104 441.633 540.22 443.121 540.69C453.226 543.88 463.283 547.223 473.355 550.517C473.052 551.716 472.749 552.916 472.445 554.116C432.929 554.116 393.414 554.116 353.898 554.116C353.77 555.172 353.642 556.229 353.514 557.285C386.331 565.2 419.149 573.114 451.966 581.028C451.772 582.707 451.578 584.385 451.384 586.063C428.358 586.063 405.332 586.063 380.825 586.063C385.596 598.122 379.541 603.045 372.805 607.984C370.322 609.804 368.822 612.963 366.874 615.512C364.347 615.554 361.82 615.596 358.094 614.692C340.385 611.481 323.875 609.216 304.71 606.588C308.224 612.177 310.309 615.494 312.658 619.231C295.424 623.846 277.253 616.009 257.59 626.133C274.073 636.789 291.297 630.685 305.218 636.945C305.349 638.087 305.479 639.228 305.609 640.37C298.42 641.529 291.23 642.688 283 644.015C280.661 652.02 280.657 651.867 269.169 652.187C264.688 652.312 260.231 653.299 255.764 653.893C263.256 662.635 276.497 654.963 281.615 668.051C261.547 669.24 242.398 669.781 223.395 671.738C212.956 672.813 202.762 676.275 192.457 678.66C176.275 678.731 160.093 678.801 142.032 678.533C137.333 679.008 134.513 679.821 131.693 680.634C130.666 680.713 129.639 680.792 127.652 680.02C124.37 678.216 122.048 677.263 119.726 676.31C119.726 675.248 119.726 674.185 120.645 672.208C126.172 671.066 131.084 671.738 135.293 670.323C138.606 669.209 141.917 665.944 143.468 662.774C144.111 661.458 140.486 656.096 138.251 655.703C131.4 654.497 124.282 654.807 117.267 654.528C111.802 645.446 106.303 636.383 100.881 627.275C97.5315 621.647 94.2984 615.95 91.9042 609.406C104.098 612.191 108.972 606.692 112.901 596.599C114.508 592.469 123.385 586.875 125.731 588.102C133.766 592.307 137.354 586.288 142.373 583.517C145.501 581.789 148.107 578.001 151.248 577.621C161.139 576.425 155.731 566.596 160.474 562.794C156.607 560.375 152.878 556.258 148.842 555.932C142.672 555.433 136.322 557.954 129.99 558.466C119.557 559.309 109.078 559.57 98.6184 560.077C98.0346 558.59 97.4509 557.104 96.8671 555.618C100.302 552.381 103.289 547.236 107.265 546.303C115.667 544.329 120.608 541.121 119.469 531.825C118.586 524.617 119.643 512.144 116.64 511.088C103.101 506.326 97.6082 492.28 85.3382 487.015C81.6615 485.438 77.3116 485.502 73.3722 484.436C70.3347 483.614 67.4572 482.202 64.5086 481.052C64.7274 480.461 64.946 479.869 65.1646 479.278C70.1028 478.678 75.0409 478.077 79.9789 477.477C80.3044 475.943 80.6297 474.409 80.9552 472.875C64.2526 475.938 54.1001 468.593 47.0537 452.184C52.8114 451.649 57.9943 451.167 63.4334 450.662C61.345 438.992 59.534 427.185 48.2185 418.88C44.8474 416.405 44.6116 409.664 43.1019 405.344C50.4438 403.672 54.6313 402.719 60.697 401.337C53.7777 395.483 47.2954 392.61 45.3297 387.867C38.1807 370.617 47.6838 345.612 63.755 334.37C66.239 332.633 67.6197 328.774 68.6296 325.614C69.9461 321.495 70.3834 317.095 72.0406 312.675C82.388 297.68 88.8112 315.143 96.9309 314.83C101.945 310.651 106.957 306.479 111.929 302.341C110.472 295.29 109.028 288.309 108.351 280.914C111.195 275.997 113.273 271.493 115.982 265.624C101.344 264.794 105.369 256.269 105.838 248.74C112.374 247.048 120.013 242.374 123.996 244.51C140.627 253.427 147.772 238.6 158.514 232.845ZM241.971 306.512C239.093 304.64 235.954 300.863 233.379 301.214C219.386 303.122 205.448 305.69 191.69 308.885C188.404 309.648 184.744 313.128 183.22 316.3C179.182 324.708 176.217 333.63 172.301 343.695C175.868 344.383 180.863 344.932 185.6 346.343C196.481 349.584 207.322 353.02 217.943 357.004C219.365 357.538 219.767 361.673 220.043 364.205C220.94 372.43 221.56 380.685 222.379 389.996C233.272 390.953 243.588 392.468 253.891 392.379C256.851 392.354 259.874 387.806 262.685 385.139C265.976 382.017 268.538 377.05 272.364 375.812C278.692 373.766 285.78 374.069 292.548 373.378C301.935 372.42 310.281 370.242 310.224 357.71C302.314 351.583 294.137 345.25 285.023 338.191C299.818 340.608 308.851 333.142 319.713 324.371C310.083 321.732 303.003 319.336 295.731 317.925C288.181 316.46 278.074 318.645 273.292 314.448C263.842 306.152 254.076 307.048 241.971 306.512ZM249.029 438.835C254.677 438.892 261.289 439.808 261.813 431.705C262.399 422.649 252.699 409.378 246.077 410.054C234.782 411.206 238.324 421.605 236.411 428.059C234 436.191 238.454 440.026 249.029 438.835ZM327.643 364.2C325.381 362.675 323.12 361.15 320.858 359.625C320.278 361.701 319.698 363.777 319.118 365.853C321.675 365.843 324.232 365.833 327.643 364.2Z" fill="#FCF4DD"/>
<path d="M192.816 679.271C202.762 676.275 212.955 672.813 223.395 671.738C242.398 669.781 261.547 669.24 281.615 668.05C276.497 654.962 263.256 662.635 255.763 653.893C260.231 653.299 264.688 652.312 269.168 652.187C280.657 651.867 280.661 652.02 283 644.014C291.23 642.687 298.419 641.528 305.609 640.369C305.479 639.228 305.348 638.086 305.218 636.945C291.297 630.685 274.073 636.788 257.589 626.132C277.253 616.008 295.424 623.846 312.658 619.23C310.309 615.493 308.224 612.177 304.71 606.588C323.874 609.216 340.385 611.48 357.146 614.683C359.607 619.45 361.157 625.866 364.15 626.629C373.738 629.075 383.862 629.427 394.122 630.627C395.118 645.941 391.547 648.49 376.424 642.238C374.205 641.32 371.011 642.755 368.268 643.102C368.944 646.752 368.354 652.221 370.522 653.728C378.55 659.308 387.684 667.62 396.029 667.215C404.428 666.807 413.567 658.376 420.23 651.406C428.457 642.799 434.872 640.13 446.778 646.161C441.969 653.211 438.737 659.732 443.804 669.217C447.323 675.806 429.519 692.415 418.087 692.991C399.568 693.925 380.156 696.629 362.63 692.377C344.348 687.941 327.234 688.912 309.434 690.63C307.534 690.814 305.514 689.973 303.576 689.502C300.063 688.649 296.568 686.938 293.066 686.941C269.047 686.966 245.028 687.342 219.496 687.983C217.983 688.36 216.795 688.33 216.745 687.45C215.373 684.937 214.051 683.305 212.729 681.672C211.619 683.929 210.509 686.186 208.585 688.813C204.277 689.752 200.783 690.319 197.289 690.887C194.143 691.118 190.996 691.349 187.72 692.401C184.685 692.894 181.779 692.566 178.873 692.238C178.597 691.173 178.32 690.109 178.044 689.044C182.73 687.248 187.476 685.584 192.044 683.528C192.813 683.182 192.817 681.14 192.816 679.271ZM337.958 619.534C338.324 624.989 338.324 624.989 351.832 626.311C349.843 619.495 347.753 613.983 337.958 619.534Z" fill="#F7E9C4"/>
<path d="M132.664 680.812C134.513 679.821 137.332 679.008 140.904 678.545C141.656 678.896 141.568 680.045 141.542 680.62C138.889 681.127 136.262 681.059 132.664 680.812Z" fill="#F8E9C5"/>
<path d="M157.389 684.754C157.469 684.888 157.309 684.619 157.389 684.754Z" fill="#E0B873"/>
<path d="M119.76 677.062C122.048 677.263 124.37 678.216 126.881 679.948C126.005 680.885 124.94 681.043 123.072 681.278C121.444 680.175 120.619 678.994 119.76 677.062Z" fill="#F8E9C5"/>
<path d="M71.1988 312.816C70.3831 317.095 69.9458 321.495 68.6293 325.614C67.6194 328.774 66.2387 332.633 63.7547 334.37C47.6835 345.612 38.1804 370.617 45.3294 387.867C47.2951 392.61 53.7774 395.483 60.6967 401.337C54.631 402.719 50.4435 403.672 43.1016 405.344C44.6113 409.664 44.8471 416.405 48.2182 418.88C59.5337 427.185 61.3447 438.992 63.4331 450.662C57.994 451.167 52.8111 451.649 47.0534 452.184C54.0998 468.593 64.2523 475.938 80.9549 472.875C80.6294 474.409 80.3041 475.943 79.9786 477.477C75.0406 478.077 70.1025 478.678 65.1643 479.278C64.9457 479.869 64.7271 480.461 64.5083 481.052C67.4569 482.202 70.3344 483.614 73.3719 484.436C77.3113 485.502 81.6612 485.438 85.3379 487.015C97.6079 492.28 103.101 506.326 116.64 511.088C119.642 512.144 118.586 524.617 119.469 531.825C120.608 541.121 115.667 544.329 107.265 546.303C103.288 547.236 100.302 552.381 96.8669 555.618C97.4506 557.104 98.0343 558.59 98.6181 560.077C109.077 559.57 119.557 559.309 129.989 558.466C136.322 557.954 142.671 555.433 148.842 555.932C152.878 556.258 156.607 560.375 160.473 562.794C155.731 566.596 161.139 576.425 151.248 577.621C148.107 578.001 145.501 581.789 142.373 583.517C137.354 586.288 133.766 592.307 125.73 588.102C123.384 586.875 114.508 592.469 112.901 596.599C108.972 606.692 104.098 612.191 91.9008 608.534C90.5963 608.499 90.186 608.457 89.1643 608.353C88.5531 608.291 88.3638 607.154 88.1805 605.691C86.5813 600.952 85.0353 597.725 83.7714 594.391C78.1716 579.617 80.5988 576.457 96.8774 578.884C94.4732 573.149 109.064 569.435 97.5706 562.677C85.5675 562.784 72.7022 564.552 69.3235 548.037C49.9029 541.813 54.803 536.398 69.5114 530.108C72.9632 528.632 74.8878 523.588 77.9683 519.479C82.3328 517.456 86.2445 516.14 90.1561 514.825C89.9146 513.757 89.673 512.689 89.4315 511.621C78.3615 512.366 67.2916 513.111 55.2272 513.9C54.2329 513.945 54.4384 513.737 54.3886 512.703C55.2529 502.567 59.6164 500.708 68.3255 503.297C71.7174 504.305 76.4836 500.695 80.6238 499.189C76.8011 496.847 73.2109 493.13 69.1089 492.437C59.3949 490.793 49.4376 490.584 39.5786 489.796C37.9663 487.109 36.354 484.423 35.4545 480.804C35.8089 476.569 35.4506 473.266 35.2243 471.182C36.171 467.309 37.9451 463.989 37.5476 460.952C36.2581 451.1 34.1727 441.352 32.394 431.563C32.394 431.563 32.357 430.38 32.3523 429.789C26.8105 410.687 35.1986 393.178 36.0946 375.15C36.5842 365.295 36.2348 355.126 34.2605 345.51C32.7454 338.13 34.7011 336.004 41.1941 333.487C56.8552 327.416 63.882 308.899 55.3696 295.226C53.1647 298.681 51.2982 301.607 49.1632 304.953C39.631 298.749 42.6595 289.325 42.0922 279.92C47.8941 276.437 53.7032 274.023 60.3958 272.285C61.5894 276.539 61.3676 280.264 62.3101 283.666C65.0212 293.453 68.2023 303.109 71.1988 312.816Z" fill="#F8E9C5"/>
<path d="M117.255 655.505C124.281 654.807 131.399 654.497 138.251 655.702C140.486 656.096 144.111 661.458 143.467 662.774C141.917 665.944 138.605 669.209 135.293 670.322C131.084 671.738 126.172 671.066 120.651 671.411C118.907 666.513 118.075 661.497 117.255 655.505Z" fill="#F8E9C5"/>
<path d="M97.5399 563.535C109.064 569.435 94.4731 573.148 96.8773 578.884C80.5987 576.457 78.1716 579.617 83.7714 594.39C85.0352 597.724 86.5813 600.951 88.0955 605.121C73.1219 605.934 66.4887 598.266 68.4023 583.375C68.5867 581.94 67.6229 580.357 66.9578 578.046C76.9852 572.964 87.2472 568.678 97.5399 563.535Z" fill="#EFD8A8"/>
<path d="M516.654 186.538C524.591 195.966 524.591 195.966 518.028 207.599C523.617 209.622 528.995 211.568 534.374 213.514C533.647 214.235 532.921 214.956 532.195 215.677C535.409 220.145 538.074 225.186 541.982 228.932C546.595 233.354 550.531 236.554 546.878 244.093C545.642 246.644 548.885 252.38 551.477 255.505C554.63 259.306 559.256 261.886 562.447 265.867C546.869 260.692 532.09 254.643 517.311 248.594C517.671 247.312 518.031 246.031 518.391 244.749C525.126 243.119 531.861 241.489 537.389 240.152C526.852 229.771 517.199 220.26 506.412 209.632C502.085 210.868 495.628 212.712 489.172 214.556C500.268 202.608 501.475 188.183 495.517 176.344C490.323 166.022 483.921 152.329 468.104 154.902C467.099 147.822 466.325 142.369 465.082 133.614C448.573 134.563 432.615 135.481 419.378 136.242C414.964 131.119 412.367 125.924 408.216 123.877C403.674 121.637 397.695 122.306 390.705 121.524C392.437 117.341 394.04 113.467 395.11 110.883C389.69 108.293 384.577 105.187 379.032 103.491C376.429 102.695 372.995 104.614 369.937 105.302C372.042 107.415 373.915 109.861 376.327 111.53C378.11 112.763 380.595 112.982 382.767 113.653C382.347 115.146 381.927 116.639 381.507 118.133C368.357 114.764 355.207 111.395 342.057 108.026C342.323 106.628 342.589 105.229 342.856 103.831C347.994 103.831 353.133 103.831 358.173 103.831C357.466 99.8454 357.179 96.8682 356.374 94.0375C355.408 90.6366 354.4 84.8046 352.706 84.541C348.655 83.9107 344.079 85.6008 339.942 87.016C337.934 87.7032 336.543 91.0202 334.687 91.1964C319.204 92.6672 303.769 93.3908 289.598 84.8467C286.271 82.8414 281.838 79.8457 278.823 80.6615C268.285 83.5131 263.507 74.2851 255.859 71.4463C246.99 68.1544 237.403 63.6766 228.508 64.3976C218.459 65.2119 208.833 71.2333 197.848 75.4405C196.666 68.878 194.637 63.7249 195.078 58.7919C195.996 48.5028 192.05 45.4608 182.067 46.018C167.195 46.8479 151.873 53.0722 137.499 43.5861C129.862 38.5461 124.371 43.2362 120.953 48.9544C118.873 52.4353 120.002 57.8317 119.683 62.4706C136.166 61.8657 159.116 67.4176 160.24 69.9263C154.485 73.482 149.406 78.1143 143.479 79.8475C137.902 81.4781 131.12 81.1188 125.492 79.4864C122.941 78.7465 121.9 72.8094 120.075 69.0268C115.701 70.5937 110.563 84.3724 112.758 93.6208C109.576 94.036 106.471 94.4411 103.366 94.8465C105.959 84.9787 109.095 75.2069 110.87 65.1943C111.554 61.3357 109.145 56.9291 107.788 51.9767C106.769 47.7483 106.107 44.3153 104.962 38.3762C116.337 37.4157 126.941 36.519 137.545 35.6265C139.869 35.4308 142.4 35.7814 144.487 34.9765C159.284 29.2696 174.268 29.3177 189.857 31.2048C197.932 32.1826 206.473 29.1215 214.827 28.0763C219.549 27.4857 224.319 27.2824 230.167 27.8274C235.07 37.0967 241.693 36.6801 248.91 34.4251C256.441 32.0723 263.972 29.7234 271.504 27.3728C271.801 28.3037 272.099 29.2345 272.396 30.1654C269.445 32.2122 266.493 34.259 264.36 35.7386C275.121 37.7335 285.634 39.8887 296.224 41.542C300.373 42.1896 304.717 41.4631 308.937 41.7997C316.844 42.4301 324.494 41.0444 329.639 51.2059C334.101 60.0204 342.448 67.1339 354.228 68.2289C363.562 69.0966 372.697 71.9667 381.972 73.6671C386.622 74.5198 391.387 74.7461 397.035 75.254C399.951 74.1358 401.828 72.3411 403.931 72.0169C415.305 70.2637 426.725 67.8279 438.148 67.722C445.99 67.6491 453.864 70.9881 462.557 72.9405C464.424 75.4278 465.458 77.7769 466.486 81.0471C471.371 93.5217 476.263 105.075 481.155 116.629C481.155 116.629 481.021 116.502 480.212 116.531C468.63 119.772 477.461 124.518 478.456 128.651C478.456 128.651 478.548 128.638 478.551 129.628C481.207 135.824 483.858 141.031 486.855 146.916C486.417 147.216 484.077 148.821 484.173 148.756C488.694 152.652 492.821 156.273 497.031 159.797C498.225 160.796 499.57 162.024 500.997 162.27C511.158 164.021 513.437 170.937 512.897 179.835C513.932 181.949 514.967 184.062 516.654 186.538Z" fill="#E9CC90"/>
<path d="M482.192 116.622C476.263 105.075 471.371 93.5217 467.3 81.3917C471.188 81.1179 474.759 82.5839 477.23 81.5136C485.898 77.7595 494.187 73.1321 502.62 68.8365C503.695 68.7465 504.769 68.6566 506.691 69.4067C507.788 73.4446 506.807 78.3662 508.486 79.5646C520.511 88.146 525.498 99.5823 524.585 113.99C524.585 113.99 524.627 114.01 524.608 114.02C510.803 114.891 497.016 115.753 482.192 116.622Z" fill="#E1B96F"/>
<path d="M513.839 179.625C513.437 170.937 511.158 164.021 500.997 162.269C499.57 162.023 498.225 160.796 497.031 159.797C492.821 156.273 488.693 152.652 484.173 148.756C484.077 148.821 486.416 147.216 486.855 146.916C483.858 141.031 481.207 135.824 478.53 129.669C490.145 129.92 501.786 131.119 514.56 132.434C509.116 135.617 501.274 138.277 501.398 140.492C501.766 147.07 505.27 153.474 507.967 161.137C512.128 156.775 514.641 154.14 517.898 150.726C519.403 154.339 520.382 156.689 521.106 158.426C524.662 156.769 527.764 155.325 530.865 153.88C532.873 159.527 535.593 165.071 536.442 170.888C536.687 172.565 531.84 175.871 528.803 176.929C524.378 178.47 519.478 178.652 513.839 179.625Z" fill="#E1B96F"/>
<path d="M478.91 128.016C477.461 124.518 468.63 119.772 480.268 116.602C480.543 120.223 479.953 123.802 478.91 128.016Z" fill="#E1B96F"/>
<path d="M524.692 126.145C524.559 126.443 524.386 126.792 524.212 127.14C524.089 126.831 523.965 126.522 524.304 126.178C524.766 126.142 524.652 126.196 524.692 126.145Z" fill="#9A5215"/>
<path d="M502.361 68.1354C494.187 73.132 485.898 77.7594 477.23 81.5134C474.759 82.5838 471.188 81.1177 467.307 80.4704C465.458 77.7768 464.424 75.4277 462.278 72.2295C464.706 69.4616 468.051 66.5967 471.827 65.8197C479.936 64.1507 488.645 64.1465 490.71 53.4927C491.151 53.4934 491.592 53.4943 492.698 53.5054C494.672 56.2912 495.982 59.0668 497.68 62.5388C499.413 64.6347 500.758 66.0344 502.361 68.1354Z" fill="#CFA04E"/>
<path d="M525.419 113.874C525.498 99.5822 520.511 88.1459 508.486 79.5644C506.807 78.3661 507.789 73.4445 507.501 69.4015C509.975 69.2476 514.007 69.2015 514.756 70.7458C520.583 82.7633 525.972 95.0103 530.879 107.43C531.392 108.729 527.892 111.611 525.419 113.874Z" fill="#CFA04E"/>
<path d="M367.994 615.592C368.822 612.963 370.322 609.804 372.805 607.984C379.541 603.045 385.596 598.122 380.825 586.063C405.332 586.063 428.358 586.063 451.384 586.063C451.578 584.385 451.772 582.707 451.966 581.028C419.149 573.114 386.331 565.2 353.514 557.285C353.642 556.229 353.77 555.172 353.898 554.115C393.413 554.115 432.929 554.115 472.445 554.115C472.748 552.916 473.052 551.716 473.355 550.517C463.283 547.223 453.226 543.88 443.121 540.69C441.632 540.22 439.45 541.103 438.373 540.305C426.276 531.33 413.743 529.22 399.42 535.296C393.864 537.653 387.028 536.997 379.653 535.638C381.43 534.141 382.997 532.203 385.026 531.233C390.394 528.665 396.485 527.292 401.337 524.03C409.784 518.349 418.01 515.005 428.35 518.552C431.968 519.792 436.598 519.615 440.333 518.558C444.174 517.472 447.486 514.521 451.03 512.386C448.098 510.461 444.931 508.81 442.288 506.548C438.119 502.979 434.302 498.999 429.551 494.439C442.272 491.867 452.836 489.731 465.129 487.245C459.761 474.537 455.409 464.235 449.817 450.995C460.204 453.343 469.796 455.511 479.388 457.68C480.111 456.259 480.835 454.837 481.558 453.416C475.362 445.916 469.165 438.415 462.507 430.356C463.315 429.371 464.254 427.384 465.819 426.481C470.322 423.886 477.247 421.175 472.797 415.469C469.642 411.424 462.209 409.317 456.528 408.979C448.967 408.529 441.254 410.639 433.606 411.649C432.978 410.276 432.35 408.903 431.722 407.53C447.801 397.341 463.88 387.152 481.334 376.091C482.507 380.944 482.543 383.044 483.489 384.585C485.257 387.461 487.553 390.012 489.629 392.698C491.629 390.331 494.46 388.276 495.484 385.544C499.917 373.717 499.521 362.625 487.182 354.012C497.241 345.526 495.398 337.19 488.408 329.128C487.185 327.717 484.926 326.565 483.069 326.442C469.974 325.574 459.467 315.964 457.469 301.62C461.791 303.016 465.641 304.26 471.293 305.533C477.336 307.118 481.576 308.675 487.523 310.859C486.273 306.795 485.515 304.329 484.657 301.537C496.792 302.474 500.054 300.308 506.17 288.639C513.454 291.272 519.835 293.801 526.848 296.58C523.634 301.022 521.934 303.372 521.087 304.543C536.98 322.559 545.508 342.254 548.85 363.022C552.202 365.46 555.386 367.774 558.569 370.089C557.998 370.949 557.428 371.809 556.857 372.67C553.596 372.67 550.335 372.67 545.613 372.67C550.257 383.884 553.439 393.775 549.432 405.306C547.452 411.003 551.07 418.642 552.257 426.034C548.694 427.8 542.862 430.69 535.021 434.575C540.363 438.253 543.713 440.821 547.321 442.953C549.804 444.421 552.644 445.286 555.325 446.42C552.08 447.408 548.869 448.533 545.577 449.327C543.858 449.741 541.998 449.572 540.079 449.674C541.33 457.474 542.441 464.397 543.649 471.931C538.398 471.931 534.3 471.931 527.829 471.931C535.971 483.539 546.772 481.229 556.229 482.453C555.588 489.135 554.969 495.818 554.292 502.496C554.044 504.945 553.658 507.38 553.268 511.421C552.126 518.822 553.104 527.18 549.617 529.978C535.21 541.538 541.995 560.417 532.541 573.789C526.798 581.912 525.345 593.066 521.965 602.858C516.327 603.971 510.689 605.084 504.099 606.262C485.329 605.785 478.481 608.017 470.613 618.799C476.968 616.663 480.987 615.312 487.706 613.054C483.918 621.561 481.074 627.948 478.053 634.733C470.352 627.787 463.665 621.754 455.755 614.618C449.744 615.552 441.775 616.79 431.855 618.331C434.164 611.974 435.687 607.779 437.283 603.385C428.767 602.809 428.767 602.809 426.614 615.673C407.357 615.673 388.235 615.673 367.994 615.592Z" fill="#F7E9C4"/>
<path d="M522.916 603.079C525.345 593.066 526.798 581.912 532.541 573.789C541.994 560.417 535.21 541.537 549.617 529.978C553.104 527.18 552.126 518.822 553.665 512.124C555.84 511.361 557.549 511.495 560.911 511.682C563.615 511.714 564.667 511.694 565.718 511.675C565.718 511.675 565.813 511.561 565.749 512.484C566.484 516.003 567.283 518.599 568.083 521.195C567.981 523.802 567.878 526.41 567.209 530.596C556.444 556.028 553.482 582.875 536.855 604.066C535.06 604.007 533.265 603.949 530.575 603.925C527.742 603.74 525.805 603.52 522.916 603.079Z" fill="#EFD8A8"/>
<path d="M486.229 699.781C484.485 700.153 483.145 699.738 481.4 698.728C481.606 692.407 482.216 686.681 482.961 679.698C480.235 678.958 475.469 677.664 471.331 676.54C471.331 670.722 471.331 665.81 471.331 659.371C477.979 658.671 485.806 657.848 494.713 657.116C495.377 662.788 494.959 668.368 494.361 676.364C493.407 675.657 495.177 676.969 496.293 677.796C492.955 685.119 489.793 692.056 486.229 699.781Z" fill="#E9CC91"/>
<path d="M537.473 604.642C553.482 582.875 556.444 556.028 567.248 531.575C570.865 532.881 573.876 534.787 576.766 536.617C573.751 549.51 570.822 562.035 567.774 575.569C561.363 579.393 557.646 582.976 555.256 590.654C553.403 596.61 548.713 606.261 537.473 604.642Z" fill="#E1B96F"/>
<path d="M396.1 75.2556C391.387 74.746 386.622 74.5197 381.972 73.6669C372.697 71.9666 363.562 69.0965 354.228 68.2288C342.447 67.1337 334.101 60.0202 329.638 51.2058C324.494 41.0442 316.844 42.43 308.937 41.7995C304.717 41.463 300.373 42.1894 296.224 41.5419C285.634 39.8885 275.121 37.7333 264.36 35.7385C266.493 34.2588 269.444 32.2121 272.396 30.1653C272.098 29.2344 271.801 28.3036 271.504 27.3727C263.972 29.7233 256.44 32.0721 248.91 34.4249C241.692 36.68 235.07 37.0965 231.208 27.8287C234.559 26.8813 237.971 26.8551 242.406 26.8112C252.827 20.1017 262.995 23.6238 273.007 24.4622C292.393 26.0853 311.794 27.5225 332.121 28.9769C338.688 42.0267 341.474 42.5801 350.961 33.9895C364.059 37.3536 376.172 40.4647 388.285 43.5758C388.56 42.3736 388.834 41.1715 389.11 39.9692C383.203 38.2397 377.296 36.5102 371.39 34.7807C371.601 33.5715 371.811 32.3622 372.022 31.153C386.928 34.1063 401.834 37.0597 416.671 41.3999C405.802 44.6565 395.004 46.5262 382.4 48.7087C387.075 55.4662 388.855 60.001 392.179 62.3893C397.277 66.0515 398.222 69.9182 396.1 75.2556Z" fill="#E1BA70"/>
<path d="M556.867 481.964C546.772 481.228 535.971 483.539 527.83 471.931C534.301 471.931 538.398 471.931 543.649 471.931C542.441 464.397 541.33 457.474 540.079 449.674C541.998 449.572 543.858 449.741 545.577 449.326C548.869 448.533 552.08 447.407 555.325 446.42C552.645 445.286 549.804 444.421 547.321 442.953C543.713 440.821 540.363 438.253 535.021 434.575C542.862 430.69 548.694 427.8 552.257 426.034C551.07 418.642 547.452 411.003 549.432 405.306C553.439 393.775 550.257 383.884 545.613 372.67C550.335 372.67 553.596 372.67 556.857 372.67C557.428 371.809 557.999 370.949 558.569 370.089C555.386 367.774 552.202 365.46 548.85 363.022C545.508 342.254 536.98 322.559 521.087 304.543C521.934 303.372 523.634 301.022 526.848 296.579C519.835 293.801 513.454 291.272 505.828 287.884C494.155 270.619 491.516 269.859 476.21 278.855C477.388 274.741 478.565 270.627 479.053 268.924C469.418 261 460.526 253.687 450.017 245.045C452.915 241.817 456.342 238.002 460.845 232.987C453.1 233.729 446.045 234.404 438.99 235.08C438.817 234.062 438.644 233.044 438.471 232.026C441.143 231.394 444.277 231.417 446.362 229.951C448.592 228.384 449.833 225.413 451.505 223.055C449.516 221.857 447.311 220.908 445.583 219.41C441.443 215.82 437.526 211.971 432.911 207.659C436.074 205.404 439.101 203.247 442.772 200.631C440.154 196.609 437.836 193.046 434.649 188.148C439.386 185.247 443.84 182.518 449.282 179.185C432.505 175.008 435.87 159.788 430.698 149.372C429.044 146.04 425.801 141.8 422.694 141.239C416.282 140.081 409.347 141.951 402.868 140.978C398.052 140.255 392.258 138.172 389.271 134.673C381.419 125.477 370.339 120.628 360.192 126.796C346.959 134.841 339.47 130.06 332.904 118.728C332.135 117.402 330.792 116.395 329.652 115.306C329.425 115.09 328.906 115.179 327.24 114.954C326.991 118.416 326.745 121.823 326.438 126.076C322.251 124.117 317.925 123.205 315.192 120.615C305.085 111.037 292.739 110.032 280.017 110.603C268.202 111.133 256.119 111.122 244.764 113.868C239.981 115.026 236.762 122.649 231.895 128.451C229.25 126.728 225.722 124.43 220.97 121.334C217.026 124.958 212.811 128.832 207.54 133.674C203.663 131.047 199.18 128.009 194.697 124.971C193.879 125.615 193.061 126.258 192.243 126.902C194.71 129.765 196.819 133.085 199.741 135.367C202.764 137.727 206.575 139.08 210.041 140.873C209.452 142.488 208.862 144.103 208.273 145.718C197.739 143.883 187.112 142.454 176.697 140.094C166.976 137.892 158.801 141.034 149.86 145.652C142.306 133.938 129.923 135.863 119.406 133.665C114.811 132.705 109.866 133.423 103.995 133.36C102.91 133.341 102.826 133.367 102.552 132.8C101.737 131.585 101.048 131.217 100.21 131.129C91.126 129.667 87.8592 125.969 94.4438 117.59C96.3291 115.19 96.9114 111.769 98.2079 107.929C99.8419 103.538 101.359 100.035 103.121 95.6889C106.471 94.441 109.576 94.0359 112.758 93.6207C110.563 84.3722 115.701 70.5936 120.076 69.0267C121.9 72.8093 122.942 78.7464 125.492 79.4863C131.12 81.1187 137.903 81.478 143.48 79.8473C149.407 78.1142 154.485 73.4819 160.241 69.9262C159.116 67.4174 136.166 61.8655 119.683 62.4705C120.003 57.8316 118.874 52.4352 120.954 48.9543C124.371 43.2361 129.862 38.546 137.5 43.586C151.874 53.0721 167.195 46.8478 182.068 46.0179C192.051 45.4607 195.997 48.5027 195.078 58.7917C194.637 63.7247 196.666 68.8779 197.848 75.4403C208.833 71.2332 218.459 65.2118 228.508 64.3975C237.403 63.6765 246.99 68.1542 255.86 71.4462C263.507 74.2849 268.285 83.513 278.823 80.6614C281.838 79.8456 286.272 82.8413 289.598 84.8466C303.769 93.3907 319.205 92.667 334.687 91.1963C336.543 91.0201 337.934 87.7031 339.943 87.0159C344.08 85.6007 348.655 83.9106 352.706 84.5409C354.4 84.8045 355.408 90.6365 356.375 94.0374C357.179 96.8681 357.467 99.8453 358.174 103.831C353.134 103.831 347.995 103.831 342.856 103.831C342.59 105.229 342.324 106.628 342.058 108.026C355.208 111.395 368.357 114.764 381.507 118.133C381.927 116.639 382.347 115.146 382.767 113.653C380.595 112.982 378.11 112.763 376.327 111.53C373.915 109.861 372.042 107.415 369.937 105.302C372.995 104.613 376.43 102.695 379.032 103.491C384.577 105.187 389.69 108.293 395.11 110.883C394.041 113.467 392.437 117.341 390.706 121.524C397.695 122.306 403.674 121.637 408.217 123.877C412.368 125.924 414.964 131.119 419.378 136.242C432.615 135.481 448.573 134.563 465.083 133.614C466.325 142.369 467.1 147.822 468.104 154.901C483.922 152.328 490.324 166.022 495.518 176.344C501.475 188.183 500.268 202.607 489.172 214.556C495.629 212.712 502.085 210.868 506.412 209.632C517.199 220.26 526.853 229.771 537.389 240.151C531.862 241.489 525.126 243.119 518.391 244.749C518.031 246.031 517.671 247.312 517.312 248.594C532.091 254.643 546.87 260.691 562.609 266.695C580.222 274.348 575.655 291.483 580.232 304.509C581.506 308.135 581.141 312.336 582.237 316.946C581.914 319.156 581.219 321.506 579.793 322.098C571.748 325.438 566.116 327.092 577.093 335.889C581.57 339.477 579.57 351.137 580.551 360.244C576.591 368.96 576.057 375.745 579.016 384.788C581.427 392.158 576.712 401.856 575.542 408.379C577.32 416.239 578.787 422.719 580.184 430.191C575.778 433.821 571.442 436.459 566.518 439.454C568.024 445.802 569.528 452.137 571.084 458.693C563.116 461.28 556.239 463.513 549.287 465.77C552.527 471.961 555.016 476.718 556.867 481.964ZM178.577 101.957C173.795 100.971 169.013 99.9848 164.231 98.9988C164.485 97.9482 164.74 96.8977 164.993 95.8472C167.881 96.1392 170.768 96.4312 176.946 97.0558C170.666 91.5557 166.807 88.1754 160.316 82.4898C159.6 103.81 149.269 104.235 134.109 97.9706C141.903 109.593 149.526 119.391 159.013 126.806C162.831 129.79 171.295 129.046 176.563 127.089C179.448 126.017 180.103 118.891 181.711 114.475C182.301 112.854 182.214 110.491 183.332 109.638C191.258 103.584 184.196 103.477 178.577 101.957ZM504.373 217.018C504.88 217.148 505.387 217.278 505.894 217.408C505.569 217.09 505.244 216.771 504.373 217.018Z" fill="#EFD9A9"/>
<path d="M100.516 131.629C101.048 131.217 101.737 131.586 102.54 132.767C101.988 133.173 101.328 132.782 100.516 131.629Z" fill="#E6C480"/>
<path d="M216.794 688.33C216.794 688.33 217.983 688.36 218.578 688.384C210.345 699.337 203.115 700.78 197.316 691.826C200.783 690.319 204.277 689.752 209.509 688.825C213.096 688.42 214.945 688.375 216.794 688.33Z" fill="#E8CB8F"/>
<path d="M462.075 708.453C462.981 706.613 464.356 705.381 466.107 703.552C467.551 702.958 468.619 702.961 470.494 703.575C471.303 704.599 471.305 705.01 471.306 705.422C468.386 706.635 465.465 707.848 462.075 708.453Z" fill="#E9CC91"/>
<path d="M472.138 705.293C471.304 705.01 471.303 704.599 471.295 703.569C472.397 701.421 473.504 699.89 475.39 698.279C475.102 700.52 474.036 702.841 472.138 705.293Z" fill="#E8CD94"/>
<path d="M447.866 707.841C447.624 706.588 448.191 705.336 448.758 704.084C449.745 704.855 450.733 705.625 451.816 707.118C450.833 707.841 449.754 707.842 447.866 707.841Z" fill="#E9CC91"/>
<path d="M541.622 191.624C541.28 191.917 540.945 192.22 540.611 192.522C540.73 192.313 540.849 192.104 541.308 191.772C541.648 191.648 541.629 191.634 541.622 191.624Z" fill="#CD9D4A"/>
<path d="M475.331 278.959C491.516 269.859 494.154 270.619 504.925 287.779C500.054 300.308 496.792 302.474 484.657 301.537C485.515 304.329 486.273 306.795 487.523 310.859C481.575 308.675 477.336 307.118 472.186 305.545C470.52 302.924 470.345 298.447 468.916 298.002C452.913 293.025 441.732 283.518 433.834 268.335C431.119 263.116 421.58 261.508 415.244 258.091C404.228 252.151 393.856 245.733 395.862 230.523C396.032 229.239 395.044 227.316 393.978 226.435C384.861 218.908 384.519 201.259 366.676 203.444C362.589 203.944 358.134 200.137 353.665 199.107C345.816 197.298 337.825 196.102 328.981 194.483C330.862 192.779 332.672 191.14 334.912 189.111C327.709 177.165 319.583 190.98 311.674 188.424C304.42 186.079 295.624 185.791 288.169 187.494C279.946 189.372 272.477 194.549 264.023 198.604C264.186 200.78 264.411 203.771 264.831 209.342C255.543 206.08 247.775 203.352 240.007 200.624C240.313 199.483 240.62 198.342 240.926 197.2C236.71 199.313 232.489 201.415 228.29 203.562C227.979 203.721 227.832 204.201 227.07 205.329C228.087 207.925 229.302 211.028 230.09 213.041C219.109 215.201 208.665 218.065 198.059 218.921C194.125 219.238 191.256 215.125 184.76 215.818C172.227 217.156 171.854 229.922 161.83 232.823C164.681 223.258 168.447 213.677 172.164 204.219C188.98 210.296 202.601 204.527 216.393 200.087C225.392 197.19 234.287 193.052 243.511 192.039C252.099 191.096 256.445 188.891 255.517 179.855C255.312 177.859 254.885 175.543 255.646 173.867C256.943 171.01 259.101 168.544 260.897 165.915C262.296 168.91 264.28 171.789 264.908 174.938C265.402 177.416 264.222 180.226 263.612 183.954C267.923 183.954 272.928 185.465 274.706 183.711C287.371 171.211 302.655 178.029 316.842 177.093C320.052 176.882 323.497 177.363 326.435 176.36C338.553 172.218 345.636 175.799 351.358 187.73C354.947 195.215 362.596 201.384 373.454 197.368C376.293 196.318 382.009 197.116 383.425 199.143C390.612 209.436 399.02 219.72 402.683 231.364C405.702 240.964 409.473 247.401 418.58 250.171C430.209 253.707 442.069 256.481 453.77 259.568C453.575 260.843 453.742 261.932 453.294 262.333C449.817 265.442 446.222 268.418 442.664 271.435C447.166 274.011 451.948 276.207 456.105 279.253C462.474 283.92 468.384 283.834 475.331 278.959Z" fill="#F8E9C5"/>
<path d="M84.4528 167.134C84.3711 162.149 85.1602 157.233 86.0489 151.695C103.976 150.576 123.156 149.378 143.263 148.325C140.653 156.209 137.9 164.451 133.355 171.545C128.871 178.545 120.902 183.61 117.508 190.934C113.61 199.348 113.059 209.312 110.686 220.307C109.384 220.683 105.278 221.867 102.851 222.567C100.528 218.833 99.1779 213.941 96.6645 213.245C92.6083 212.121 87.7856 213.761 83.2806 215.683C71.7152 211.827 67.3397 213.163 62.8019 224.287C73.3784 218.976 77.1298 224.353 78.4437 234.361C78.4678 235.257 78.4804 235.241 78.4804 235.241C77.3909 235.248 76.3016 235.254 73.8725 234.557C64.2019 230.873 55.871 227.893 46.767 224.636C51.2237 217.094 55.1551 210.441 59.0865 203.787C59.0865 203.787 60.1341 203.657 61.7348 203.676C71.3679 202.097 79.4004 200.5 87.4328 198.902C84.072 194.636 78.8026 192.256 78.8789 192.07C82.5487 183.139 75.317 185.472 71.2725 184.151C69.4431 183.553 68.1228 181.399 66.5715 179.951C68.3212 179.912 70.0708 179.873 72.9501 180.244C74.7539 180.408 75.4279 180.161 76.1021 179.914C78.6383 179.823 81.1744 179.733 84.8658 180.512C96.5279 189.099 99.6094 171.768 109.223 176.473C109.332 174.737 109.44 173.001 109.549 171.265C103.226 169.98 96.9037 168.694 90.5812 167.409C88.8286 167.34 87.0762 167.271 84.4528 167.134Z" fill="#EFD9A9"/>
<path d="M72.0401 312.675C68.202 303.109 65.0209 293.452 62.3099 283.666C61.3674 280.264 61.5891 276.539 61.2522 272.154C61.2253 271.345 61.2864 271.453 62.1993 271.503C66.614 268.341 70.1157 265.129 73.6175 261.916C74.6953 261.916 75.7731 261.916 78.0272 262.664C86.6358 272.593 92.9353 283.566 107.584 281.328C109.028 288.309 110.471 295.29 111.929 302.341C106.956 306.479 101.944 310.651 96.9304 314.83C88.8106 315.143 82.3875 297.679 72.0401 312.675Z" fill="#FAEED1"/>
<path d="M108.35 280.914C92.9356 283.566 86.6362 272.593 78.836 262.664C82.722 258.093 86.3708 252.557 91.3545 250.798C102.26 246.949 106.729 239.747 105.516 224.642C122.735 242.073 140.29 230.872 157.638 232.92C147.772 238.6 140.627 253.427 123.996 244.51C120.012 242.374 112.374 247.048 105.837 248.74C105.369 256.269 101.344 264.794 115.981 265.623C113.273 271.493 111.195 275.997 108.35 280.914ZM99.1134 273.476C101.622 273.25 104.131 273.023 106.64 272.797C105.889 270.922 105.138 269.048 104.387 267.173C102.384 268.745 100.38 270.318 99.1134 273.476Z" fill="#F8E9C5"/>
<path d="M58.0743 203.741C55.1549 210.441 51.2236 217.094 46.7668 224.636C55.8708 227.893 64.2018 230.873 73.0553 234.541C64.7142 236.106 55.8502 236.981 46.0176 237.927C43.4494 235.983 41.8501 233.969 39.9633 230.29C40.4369 223.479 41.1978 218.332 41.9588 213.185C41.6951 201.599 50.2122 203.972 58.0743 203.741Z" fill="#E9CC91"/>
<path d="M73.2389 261.181C70.1157 265.128 66.614 268.341 62.1684 271.486C59.8355 269.551 58.4465 267.684 56.49 265.274C61.6353 263.568 64.6316 251.68 73.2389 261.181Z" fill="#F8E9C5"/>
<path d="M78.4598 235.264C78.5441 235.482 78.6365 235.693 78.6045 235.573C78.4803 235.241 78.4678 235.257 78.4598 235.264Z" fill="#EFD9A9"/>
<path d="M65.6863 179.89C68.1227 181.399 69.4431 183.553 71.2724 184.151C75.317 185.472 82.5487 183.139 78.8789 192.07C78.8025 192.256 84.072 194.636 87.4328 198.902C79.4003 200.5 71.3679 202.097 62.2608 203.632C53.0966 194.243 54.2441 186.32 65.6863 179.89Z" fill="#E9CC90"/>
<path d="M90.5706 168.279C96.9038 168.695 103.226 169.98 109.549 171.266C109.44 173.002 109.332 174.738 109.224 176.474C99.6095 171.769 96.528 189.099 85.819 180.557C87.2646 176.203 88.9124 172.676 90.5706 168.279Z" fill="#E6C480"/>
<path d="M41.2248 213.615C41.1977 218.332 40.4368 223.479 39.6272 229.609C31.1808 224.597 34.7812 219.263 41.2248 213.615Z" fill="#E9CB8D"/>
<path d="M75.465 179.848C75.4277 180.161 74.7537 180.408 73.8224 180.325C73.9863 179.923 74.4072 179.852 75.465 179.848Z" fill="#E9CC90"/>
<path d="M397.035 75.2536C398.223 69.9181 397.277 66.0515 392.18 62.3893C388.855 60.001 387.075 55.4662 382.4 48.7087C395.005 46.5261 405.803 44.6564 417.274 42.0907C419.764 41.3921 421.58 41.3894 424.433 42.2103C427.827 42.5219 430.186 42.0101 432.545 41.4983C443.119 42.5165 453.738 40.7349 463.102 49.6913C467.895 54.2758 476.838 59.6165 485.489 51.6075C487.069 51.5223 488.272 52.2008 490.092 53.1861C488.645 64.1464 479.937 64.1506 471.827 65.8196C468.052 66.5966 464.706 69.4615 461.445 72.0909C453.865 70.9879 445.99 67.6489 438.148 67.7218C426.725 67.8277 415.305 70.2635 403.932 72.0167C401.828 72.3409 399.951 74.1356 397.035 75.2536Z" fill="#E6C37D"/>
<path d="M431.63 41.442C430.186 42.0103 427.828 42.5221 425.34 42.2354C427.046 41.4198 428.88 41.4026 431.63 41.442Z" fill="#E1BA70"/>
<path d="M31.5654 431.918C34.1727 441.351 36.2581 451.1 37.5475 460.952C37.9451 463.989 36.1709 467.309 35.2243 471.182C35.4506 473.266 35.8089 476.569 35.3816 479.972C28.5659 480.737 24.9669 479.395 24.9313 471.985C24.8881 462.973 22.4968 453.903 23.074 444.985C23.3576 440.601 28.0432 436.502 31.5654 431.918Z" fill="#EFD9A9"/>
<path d="M39.5581 490.628C49.4375 490.584 59.3948 490.792 69.1088 492.436C73.2108 493.13 76.801 496.846 80.6237 499.189C76.4835 500.695 71.7173 504.304 68.3254 503.296C59.6163 500.707 55.2528 502.566 54.3905 512.556C47.6225 509.42 40.8027 505.396 34.0037 501.385C36.0282 497.754 37.7829 494.607 39.5581 490.628Z" fill="#EFD9A9"/>
<path d="M569.045 521.232C567.283 518.599 566.483 516.003 565.714 512.537C569.686 513.019 573.628 514.37 577.57 515.721C577.74 516.615 577.91 517.509 578.08 518.403C575.389 519.359 572.697 520.314 569.045 521.232Z" fill="#E1B96F"/>
<path d="M565.762 510.938C564.667 511.694 563.616 511.714 561.774 511.703C561.416 510.283 561.849 508.894 562.894 507.088C564.274 507.847 565.04 509.024 565.762 510.938Z" fill="#E1B96F"/>
<path d="M242.773 307.008C254.076 307.048 263.842 306.152 273.292 314.448C278.074 318.645 288.18 316.46 295.731 317.925C303.003 319.336 310.083 321.732 319.713 324.371C308.851 333.142 299.818 340.607 285.023 338.191C294.137 345.25 302.313 351.583 310.224 357.71C310.28 370.242 301.935 372.42 292.548 373.378C285.78 374.069 278.692 373.766 272.364 375.812C268.538 377.049 265.976 382.017 262.685 385.139C259.873 387.806 256.851 392.354 253.89 392.379C243.588 392.468 233.271 390.953 222.379 389.996C221.559 380.685 220.94 372.43 220.043 364.205C219.767 361.673 219.365 357.538 217.943 357.004C207.322 353.019 196.481 349.584 185.6 346.343C180.863 344.932 175.868 344.383 172.301 343.695C176.217 333.63 179.181 324.707 183.22 316.3C184.744 313.128 188.404 309.648 191.69 308.885C205.448 305.69 219.386 303.122 233.379 301.214C235.954 300.863 239.093 304.64 242.773 307.008Z" fill="#FEFDFC"/>
<path d="M247.964 438.833C238.454 440.025 234 436.19 236.411 428.058C238.324 421.605 234.782 411.205 246.077 410.053C252.699 409.378 262.399 422.648 261.813 431.704C261.289 439.807 254.677 438.891 247.964 438.833Z" fill="#FEFDFC"/>
<path d="M327.215 365.011C324.232 365.832 321.675 365.842 319.117 365.853C319.698 363.777 320.278 361.7 320.858 359.624C323.119 361.149 325.381 362.674 327.215 365.011Z" fill="#FEFDFC"/>
<path d="M338.549 618.926C347.753 613.983 349.843 619.495 351.832 626.311C338.324 624.989 338.324 624.989 338.549 618.926Z" fill="#EFD9AA"/>
<path d="M216.745 687.45C214.945 688.375 213.096 688.42 210.323 688.454C210.509 686.186 211.619 683.929 212.728 681.672C214.051 683.305 215.373 684.937 216.745 687.45Z" fill="#EFD9AA"/>
<path d="M179.518 101.986C184.196 103.477 191.258 103.584 183.332 109.638C182.214 110.491 182.301 112.854 181.711 114.475C180.103 118.89 179.448 126.017 176.563 127.089C171.295 129.046 162.831 129.79 159.013 126.806C149.526 119.391 141.903 109.593 134.109 97.9705C149.269 104.235 159.6 103.81 160.316 82.4898C166.807 88.1754 170.666 91.5557 176.946 97.0558C170.768 96.4311 167.88 96.1391 164.993 95.8471C164.739 96.8977 164.485 97.9482 164.231 98.9987C169.013 99.9848 173.795 100.971 179.518 101.986Z" fill="#E8CD94"/>
<path d="M504.646 216.735C505.244 216.771 505.569 217.09 505.894 217.408C505.387 217.278 504.88 217.148 504.646 216.735Z" fill="#E9CC90"/>
<path d="M98.7449 272.683C100.38 270.318 102.383 268.746 104.387 267.173C105.138 269.048 105.889 270.922 106.64 272.797C104.131 273.024 101.622 273.25 98.7449 272.683Z" fill="#F7E9C4"/>
</svg>
