<svg width="788" height="553" viewBox="0 0 788 553" fill="none" xmlns="http://www.w3.org/2000/svg">
<path d="M155.367 14.3821C155.367 14.3821 156.336 14.2216 157.292 15.0658C161.77 15.7566 165.292 15.6032 168.813 15.4497C170.768 15.2265 172.722 15.0033 176.092 15.3885C178.77 16.3202 180.033 16.6436 181.662 17.693C185.381 21.8612 188.524 25.5409 192.127 28.6964C199.782 35.4018 207.884 40.2617 217.612 32.0926C218.694 29.4911 220.236 26.9817 220.778 24.2723C223.343 11.4728 231.871 9.94322 242.706 12.0982C247.021 12.9563 251.434 13.3194 257.717 14.146C261.893 13.5417 264.156 12.6992 266.419 11.8566C266.419 11.8566 266.923 11.5605 268.323 11.7734C281.977 12.3827 295.11 10.1889 306.225 13.9498C316.1 17.291 322.627 17.4236 328.503 10.5956C340.046 15.3488 350.482 19.6456 362.293 24.5089C366.229 23.8035 372.409 22.6962 378.8 21.551C378.8 27.676 378.8 31.4652 378.8 38.3281C385.952 35.7386 393.452 35.3665 396.603 31.476C410.207 14.6792 415.509 13.6951 428.719 26.1442C442.162 22.8349 454.03 19.9132 467.25 16.6587C466.489 22.5722 466.014 26.2737 464.997 34.1815C481.724 15.6323 500.271 26.1244 518.262 22.6163C518.044 27.5874 517.866 31.627 517.605 37.5803C511.721 34.4396 507.849 32.3722 500.828 28.6246C502.809 37.1743 504.1 42.7492 505.463 48.6296C518.864 43.3102 530.168 34.5808 543.366 44.6393C544.508 45.51 547.137 44.5266 549.058 44.2691C569.625 41.5109 590.18 38.6647 610.762 36.0148C613.754 35.6295 616.909 35.8431 619.91 36.2974C638.023 39.0396 644.82 52.4203 648.473 67.7968C643.476 65.6909 639.269 61.8569 635.204 62.0018C624.45 62.3853 613.509 63.508 603.097 66.1382C586.784 70.2593 572.82 66.9696 559.732 55.7297C557.77 59.7824 555.981 63.4796 553.623 68.3523C550.926 65.4069 549.06 63.3705 547.131 61.264C534.231 76.1616 530.779 76.0768 518.738 61.3478C517.257 59.5356 515.616 56.7672 513.765 56.5144C498.291 54.4003 481.269 48.0259 467.631 52.2799C452.86 56.8876 440.523 52.5111 427.141 52.4607C422.86 52.4446 417.954 53.5822 414.402 51.9166C394.462 42.5659 375.427 52.8293 356.607 55.4815C340.274 57.7831 325.989 55.4905 310.878 51.5473C305.412 50.1209 299.171 51.3992 293.312 51.8325C289.79 52.093 286.309 53.7041 282.834 53.6256C278.548 53.5287 274.305 51.841 270.011 51.6759C262.907 51.4028 255.638 52.7409 248.688 51.7131C234.57 49.6252 220.608 46.4615 206.602 43.6407C198.846 42.0788 191.011 40.7315 183.428 38.539C172.999 35.5233 163.575 33.346 151.921 36.8052C140.382 40.2307 128.71 45.2341 114.288 39.5637C93.682 31.4621 91.1951 34.3884 80.9546 53.695C71.5081 50.5714 67.6777 56.5626 62.6565 63.9858C55.9765 73.8614 48.745 82.3052 49.2153 95.5394C49.6266 107.113 47.2076 118.787 46.2416 128.399C44.9856 138.358 44.3157 146.39 42.9017 154.29C40.2852 168.908 39.2513 183.256 43.7038 197.879C45.6376 204.23 44.9119 211.385 45.4393 218.171C46.7852 235.488 38.3824 251.648 42.5175 269.961C49.8044 302.234 53.6591 335.293 58.4935 368.089C58.9587 371.246 56.2079 374.876 54.3098 377.678C50.2336 365.271 46.7976 353.472 44.2234 341.579C46.7143 339.891 50.0208 337.805 49.7189 336.777C45.6268 322.838 40.8987 309.088 36.6268 295.199C34.7561 289.116 32.1656 282.787 32.3362 276.637C32.7852 260.451 35.8662 244.276 35.5322 228.146C34.9605 200.543 32.5838 172.978 30.9653 145.397C28.8877 140.653 26.8101 135.908 23.5039 130.151C8.70609 118.769 8.47653 113.754 20.2726 101.424C23.4407 98.1127 26.0659 94.0523 28.0696 89.9146C30.7943 84.2878 31.412 77.1914 35.2258 72.6471C41.013 65.7514 43.0246 61.024 34.3698 55.2473C27.6516 50.7633 26.4275 44.6308 33.8629 39.9175C38.0302 37.276 43.7137 35.2517 48.4784 35.6646C61.4485 36.7887 73.9403 41.2503 83.2922 26.0624C87.8498 18.6605 97.3043 16.0705 107.505 16.5218C115.003 16.8535 122.699 12.7168 130.308 10.5714C132.276 10.6331 134.244 10.6947 137.49 11.9332C144.301 13.5341 149.834 13.9581 155.367 14.3821Z" fill="#CFA14B"/>
<path d="M249.325 542.062C247.372 542.04 245.418 542.018 242.234 540.857C227.237 532.316 212.296 533.364 197.369 532.825C190.758 532.587 184.202 526.174 177.776 526.43C165.303 526.927 157.341 521.052 149.84 512.708C146.991 509.54 143.612 506.847 141.411 504.806C131.128 509.338 122.333 513.214 114.326 516.744C113.139 511.014 113.608 505.651 111.393 504.086C105.753 500.104 98.9126 497.819 91.8368 494.611C89.5655 489.653 88.0102 484.938 86.4982 479.439C86.3694 476.832 86.1975 475.01 85.6494 469.202C94.1071 478.1 99.3976 485.22 106.215 490.288C110.686 493.611 118.406 496.761 122.852 495.107C134.473 490.782 141.358 493.461 148.471 503.187C151.372 507.154 160.362 510.719 164.396 509.083C178.773 503.252 204.796 506.829 215.631 518.255C224.235 527.33 242.819 527.259 251.83 519.362C254.757 516.797 261.568 515.66 265.035 517.261C276.114 522.377 285.003 521.378 293.037 512.036C299.975 503.97 307.935 503.113 317.681 507.718C322.766 510.122 329.162 510.476 334.967 510.484C346.438 510.501 359.441 505.91 369.082 509.866C393.284 519.795 412.389 515.334 428.766 497.884C435.407 500.825 441.359 505.369 447.624 505.852C462.284 506.983 477.114 506.584 491.834 505.906C496.76 505.679 501.561 502.726 509.212 500.039C515.198 501.832 520.85 511.315 532.823 511.037C543.375 510.792 554.106 517.924 564.646 517.64C584.181 517.115 603.65 513.67 623.104 511.118C625.614 510.788 629.259 509.055 630.005 507.077C633.282 498.39 638.774 498.221 646.304 500.897C648.317 501.613 651.3 499.086 653.934 498.695C657.743 498.131 663.321 496.395 665.231 498.214C678.758 511.1 694.629 502.928 704.694 497.492C715.694 491.55 722.288 476.247 728.855 463.983C731.127 459.74 726.817 452.365 726.895 446.439C726.96 441.518 727.572 435.351 730.507 431.943C742.118 418.468 744.726 397.307 736.201 380.829C733.899 376.38 732.158 370.888 732.439 366.006C733.133 353.946 735.871 341.999 736.481 329.94C737.749 304.855 738.17 279.727 739.681 254.907C743.872 257.434 747.321 259.672 751.152 262.588C752.294 265.169 753.054 267.071 753.22 269.368C753.793 271.108 754.961 272.454 756.092 273.835C756.054 273.871 756.112 273.805 756.088 274.717C758.527 287.407 765.427 299.119 757.02 311.12C751.244 319.366 748.476 326.855 757.033 335.67C759.342 338.049 757.359 344.78 757.02 349.49C756.512 356.547 752.849 365.078 755.596 370.341C762.931 384.398 758.796 396.057 753.583 409.043C750.5 416.724 747.248 427.789 750.556 433.716C754.816 441.347 758.812 445.122 748.135 449.531C756.841 461.449 757.049 472.193 747.378 482.879C745.49 484.965 744.749 489.582 745.591 492.402C751.208 511.229 740.145 525.822 718.788 525.95C716.723 526.034 715.544 526.12 714.365 526.206C714.365 526.206 714.506 526.051 714.554 525.362C713.722 523.506 712.842 522.339 711.962 521.172C711.962 521.172 712.28 521.264 712.102 520.418C697.688 511.528 683.631 515.936 675.745 529.812C671.143 537.91 666.29 548.107 653.609 539.427C652.055 538.363 649.112 539.277 646.815 539.353C641.062 539.543 635.06 540.956 629.601 539.798C602.201 533.985 574.922 528.749 546.793 535.115C542.784 536.022 537.964 534.937 533.881 533.638C522 529.858 510.303 525.502 498.534 521.372C498.534 521.372 498.734 521.201 498.551 520.705C497.653 519.729 496.94 519.248 496.226 518.768C496.226 518.768 496.466 518.862 496.332 518.06C493.085 516.129 489.971 515 486.251 513.183C470.004 505.318 470.616 525.142 460.552 526.202C453.034 525.261 445.505 524.746 438.316 526.072C420.887 529.288 403.608 533.329 386.308 537.212C385.672 537.355 385.446 539.328 384.38 540.485C382.619 541.095 381.508 541.669 380.397 542.242C376.047 542.348 371.698 542.454 365.68 541.848C346.159 531.613 328.307 522.09 310.276 512.472C304.285 527.843 280.445 541.568 269.376 536.729C260.579 532.884 255.257 537.544 249.325 542.062Z" fill="#CFA14A"/>
<path d="M649.329 67.8825C644.82 52.4203 638.023 39.0396 619.91 36.2974C616.909 35.8431 613.754 35.6296 610.762 36.0148C590.18 38.6647 569.625 41.5109 549.058 44.2691C547.137 44.5266 544.508 45.51 543.366 44.6394C530.168 34.5808 518.864 43.3102 505.463 48.6296C504.101 42.7493 502.809 37.1743 500.828 28.6247C507.849 32.3722 511.721 34.4396 517.605 37.5804C517.866 31.627 518.044 27.5874 518.262 22.6163C500.271 26.1244 481.724 15.6323 464.997 34.1815C466.014 26.2737 466.489 22.5722 467.25 16.6587C454.03 19.9132 442.162 22.8349 428.719 26.1442C415.509 13.6951 410.207 14.6793 396.603 31.476C393.452 35.3665 385.952 35.7386 378.8 38.3281C378.8 31.4652 378.8 27.676 378.8 21.5511C372.409 22.6963 366.229 23.8036 362.293 24.5089C350.482 19.6457 340.046 15.3488 328.503 10.5956C322.627 17.4236 316.1 17.291 306.225 13.9498C295.11 10.1889 281.977 12.3828 268.532 11.9769C274.601 9.43862 281.778 5.10333 289.135 4.77322C302.663 4.16625 316.29 6.0939 329.89 6.56176C333.367 6.68137 336.976 4.44992 340.385 4.77128C347.236 5.41717 355.938 4.84085 360.423 8.73794C373.849 20.4017 388.057 19.1701 403.223 15.318C403.614 15.2187 404.168 15.2373 404.367 14.983C421.321 -6.64671 444.013 5.01025 464.541 4.85383C475.731 4.76857 487.014 5.54359 498.103 7.05158C508.154 8.41836 517.903 12.4143 527.954 13.2607C542.733 14.5054 559.15 18.0169 572.162 13.2227C589.79 6.7272 606.341 11.2996 624.391 11.3265C632.733 22.1014 639.95 31.5827 647.118 41.8629C648.664 44.5793 650.259 46.4971 652.372 48.8808C653.343 50.6497 653.795 51.9527 654.264 54.142C660.925 68.591 667.391 82.244 674.253 95.6962C686.233 119.186 698.327 142.62 710.649 165.932C714.846 173.872 719.87 181.376 724.581 189.619C724.646 190.16 724.852 191.23 724.75 192.163C725.391 195.75 725.895 198.501 726.919 201.043C733.13 216.466 739.46 231.842 744.923 247.229C742.413 247.22 740.729 247.214 739.111 246.395C735.118 236.416 731.059 227.249 726.376 217.583C725.331 215.015 724.91 212.946 724.483 210.03C724.353 208.056 724.229 206.931 723.824 205.187C722.167 203.445 720.791 202.323 719.44 200.411C718.675 197.839 717.883 196.057 717.086 193.505C716.345 191.478 715.611 190.221 714.795 188.238C713.875 186.405 713.036 185.299 712.141 183.491C711.364 181.662 710.644 180.533 709.845 178.492C702.619 164.378 695.473 151.175 688.268 137.068C679.278 119.059 670.347 101.954 661.326 84.0587C658.891 80.5551 656.547 77.8414 654.143 74.3505C652.499 71.6766 650.916 69.78 649.335 67.88L649.329 67.8825Z" fill="#C08C3B"/>
<path d="M745.75 247.233C739.459 231.842 733.13 216.466 726.918 201.043C725.895 198.501 725.391 195.75 725.55 192.36C732.33 201.759 738.208 211.893 744.086 222.027C744.708 217.9 744.057 214.155 742.62 210.74C733.312 188.613 723.817 166.564 714.413 144.476C698.864 107.957 683.355 71.4209 667.788 34.9097C663.867 25.7141 660.171 16.5975 668.62 7.81462C672.859 5.99119 677.098 4.16776 682.23 3.27994C679.349 12.0727 675.574 19.9298 671.436 28.5435C675.351 28.7796 680.736 29.1045 686.014 30.3212C710.393 97.569 734.789 163.959 759.456 230.247C763.458 241.001 768.668 251.307 773.32 261.82C768.111 270.533 767.506 280.006 775.115 286.615C784.232 294.533 782.247 302.085 777.227 311.065C769.601 298.861 762.857 286.333 756.113 273.805C756.113 273.805 756.054 273.871 756.048 273.126C755.3 271.246 754.557 270.11 753.814 268.974C753.054 267.072 752.294 265.169 751.201 261.716C749.162 255.855 747.456 251.544 745.75 247.233ZM748.707 231.538C749.042 232.224 749.377 232.91 749.712 233.596C749.424 232.453 749.136 231.31 748.764 228.976C748.438 228.303 748.111 227.63 747.784 226.957C748.08 228.077 748.376 229.197 748.707 231.538ZM752.464 238.968C752.328 239.524 752.192 240.08 752.056 240.635C752.395 240.28 752.733 239.924 752.464 238.968Z" fill="#9B571D"/>
<path d="M30.0178 145.422C32.5837 172.978 34.9604 200.543 35.5321 228.146C35.8661 244.276 32.7851 260.451 32.3361 276.637C32.1655 282.787 34.756 289.116 36.6267 295.199C40.8986 309.088 45.6267 322.838 49.7188 336.777C50.0207 337.805 46.7142 339.891 43.7909 340.789C40.1048 333.122 38.4527 325.754 35.0057 319.351C33.3113 316.204 28.2916 314.844 24.0316 312.804C21.277 312.884 19.2674 312.837 17.2577 312.789C15.0925 299.308 19.5243 284.601 8.35057 272.678C5.80634 269.963 6.95828 263.425 7.05655 258.661C7.56148 234.168 8.57687 209.681 8.74027 185.188C8.7903 177.696 7.06151 170.114 5.49657 162.711C3.89256 155.123 4.67262 150.338 14.0709 149.766C19.1397 149.458 24.075 146.958 30.0178 145.422Z" fill="#C5903B"/>
<path d="M129.319 10.2706C122.699 12.7168 115.003 16.8535 107.504 16.5218C97.304 16.0705 87.8494 18.6605 83.2918 26.0624C73.9399 41.2503 61.4481 36.7887 48.478 35.6647C43.7133 35.2517 38.0298 37.276 33.8625 39.9175C26.4272 44.6308 27.6512 50.7633 34.3695 55.2474C43.0242 61.024 41.0126 65.7514 35.2254 72.6471C31.4116 77.1915 30.7939 84.2879 28.0692 89.9146C26.0655 94.0523 23.4403 98.1127 20.2723 101.424C8.47618 113.754 8.70566 118.769 22.8324 129.662C8.36584 129.765 -0.776189 121.914 0.0519781 107.628C1.39092 84.5305 4.23803 61.5217 6.37309 38.4686C7.29317 28.5336 7.319 18.4556 9.0611 8.67558C10.5173 0.500268 15.3093 -1.93866 24.1847 1.53533C30.8814 4.15646 38.9247 3.34123 47.0711 5.39588C48.714 13.3365 47.4963 21.7406 51.1333 26.0868C55.8249 31.6932 64.2962 35.3282 72.0857 28.3011C82.2385 2.97404 101.503 2.50731 123.523 9.41014C125.036 9.88421 126.724 9.79626 129.319 10.2706Z" fill="#C5913D"/>
<path d="M756.088 274.717C762.857 286.333 769.601 298.861 776.973 311.916C779.153 320.042 782.114 327.673 781.949 335.237C781.645 349.229 780.267 363.311 777.92 377.115C775.751 389.874 771.752 402.324 768.513 414.899C766.297 423.499 764.002 432.078 761.708 442.188C762.318 454.309 755.826 466.199 767.309 474.84C767.472 475.268 767.636 475.696 767.159 477.553C765.452 488.438 765.849 498.379 762.909 507.213C759.931 516.165 755.491 526.995 748.264 531.453C742.04 535.291 730.993 531.318 721.824 530.169C720.938 528.344 720.306 527.147 719.674 525.951C740.146 525.822 751.208 511.229 745.591 492.401C744.75 489.582 745.49 484.965 747.379 482.879C757.049 472.193 756.841 461.449 748.135 449.531C758.812 445.122 754.816 441.347 750.557 433.716C747.248 427.789 750.5 416.724 753.583 409.043C758.796 396.057 762.931 384.397 755.596 370.341C752.849 365.078 756.512 356.547 757.02 349.49C757.359 344.78 759.342 338.049 757.033 335.67C748.476 326.855 751.244 319.366 757.02 311.12C765.427 299.119 758.527 287.407 756.088 274.717Z" fill="#C48E3A"/>
<path d="M774.267 261.906C768.668 251.307 763.458 241.001 759.456 230.247C734.789 163.958 710.393 97.5689 686.784 30.197C689.501 27.5545 691.342 25.9282 694.038 24.4766C704.102 46.4468 713.086 68.3424 722.73 89.9437C724.433 93.7592 728.893 96.3455 732.08 99.4994C743.994 136.681 755.947 173.85 767.801 211.05C771.715 223.333 776.001 235.557 778.799 248.102C779.727 252.259 776.527 257.335 774.267 261.906Z" fill="#E0B873"/>
<path d="M17.0394 313.758C19.2673 312.837 21.2769 312.884 24.0424 313.865C25.621 320.34 26.4438 325.882 26.9947 332.158C27.7548 334.475 28.7866 336.056 29.8785 338.332C29.905 339.953 29.8714 340.88 29.4845 342.304C30.1297 344.328 31.1282 345.855 32.2293 348.058C32.4013 349.645 32.4707 350.555 32.0862 352.162C44.8456 406.772 57.5863 460.81 71.8302 514.45C73.7579 521.709 83.2297 526.968 89.2254 534.044C90.0281 538.368 90.8138 541.8 91.5994 545.232C83.4097 551.123 74.9853 554.561 65.4126 546.178C68.4148 538.179 71.5821 531.721 74.7493 525.263C73.8559 524.601 72.9625 523.939 72.0691 523.278C67.3567 525.781 62.6444 528.284 57.932 530.788C52.6167 504.098 47.0882 477.448 42.034 450.709C33.472 405.411 25.2095 360.057 17.0394 313.758Z" fill="#9D5A22"/>
<path d="M667.792 7.39715C660.171 16.5975 663.868 25.7141 667.788 34.9097C683.355 71.4209 698.864 107.957 714.413 144.476C723.817 166.564 733.312 188.613 742.62 210.74C744.057 214.155 744.708 217.9 744.086 222.027C738.208 211.893 732.33 201.759 725.652 191.428C724.852 191.23 724.646 190.16 724.605 188.697C723.558 184.221 722.876 181.049 721.496 178.218C706.037 146.524 690.868 114.679 674.715 83.3397C669.2 72.6387 661.143 63.2461 654.247 53.2557C653.795 51.9527 653.343 50.6498 652.367 48.0396C650.284 44.843 648.725 42.9536 647.166 41.0642C639.95 31.5828 632.733 22.1014 625.281 11.7331C628.976 12.1763 632.906 13.5065 637.965 15.2187C644.337 5.6705 654.907 3.86076 667.792 7.39715Z" fill="#693812"/>
<path d="M498.729 522.202C510.304 525.502 522.001 529.858 533.881 533.638C537.964 534.936 542.784 536.022 546.794 535.115C574.922 528.749 602.201 533.985 629.601 539.798C635.061 540.956 641.062 539.543 646.815 539.353C649.112 539.277 652.055 538.362 653.609 539.426C666.29 548.107 671.143 537.91 675.745 529.812C683.631 515.935 697.688 511.528 712.031 520.567C709.475 522.787 706.812 524.01 702.855 524.939C687.15 522.791 680.352 528.526 678.641 543.98C669.994 553.305 658.68 550.652 648.239 550.008C639.556 549.472 631.022 545.672 622.38 545.508C597.23 545.031 572.057 545.508 546.899 545.934C539.4 546.062 531.857 546.869 524.445 548.058C514.254 549.693 510.119 544.167 507.003 535.702C505.312 531.111 501.68 527.233 498.729 522.202Z" fill="#C49342"/>
<path d="M92.5526 494.855C98.9124 497.819 105.753 500.103 111.393 504.086C113.608 505.651 113.138 511.014 114.326 516.743C122.333 513.214 131.128 509.338 141.411 504.806C143.612 506.847 146.991 509.539 149.84 512.708C157.341 521.052 165.303 526.927 177.775 526.43C184.202 526.174 190.757 532.586 197.369 532.825C212.295 533.363 227.237 532.316 241.353 540.407C235.75 541.026 229.795 541.002 223.843 540.877C215.205 540.696 206.552 540.022 197.934 540.33C188.185 540.677 178.467 541.878 167.46 541.573C152.623 538.834 139.063 537.23 125.502 535.626C124.987 535.319 124.473 535.012 123.127 533.293C119.594 530.7 116.69 528.196 114.224 528.571C104.679 530.02 98.6145 525.477 93.6822 517.408C93.3808 509.245 92.9667 502.05 92.5526 494.855Z" fill="#C38F3D"/>
<path d="M385.029 540.448C385.446 539.328 385.672 537.355 386.308 537.212C403.608 533.329 420.887 529.288 438.316 526.072C445.505 524.746 453.034 525.261 460.552 526.202C470.616 525.142 470.004 505.318 486.332 514.06C487.103 516.207 487.188 516.789 487.272 517.37C487.272 517.37 487.311 518.25 486.246 518.883C478.666 526.126 472.082 532.67 465.669 539.378C463.011 542.158 460.72 545.288 457.591 547.498C438.657 546.912 420.394 547.087 402.13 547.262C400.776 547 399.421 546.738 397.433 545.051C392.875 542.568 388.952 541.508 385.029 540.448Z" fill="#C5913D"/>
<path d="M722.077 530.799C730.992 531.318 742.04 535.291 748.264 531.453C755.491 526.995 759.93 516.165 762.909 507.213C765.849 498.379 765.452 488.437 767.16 478.24C770.679 490.357 773.248 503.299 776.628 516.024C777.634 519.812 781.015 522.938 783.13 526.474C784.798 529.263 787.741 532.471 787.32 535.034C786.778 538.337 783.732 543.555 781.267 543.855C758.805 546.585 736.325 547.928 717.623 531.705C719.562 530.813 720.82 530.806 722.077 530.799Z" fill="#AD7B3F"/>
<path d="M250.24 542.354C255.257 537.544 260.579 532.884 269.376 536.729C280.445 541.567 304.285 527.842 310.276 512.472C328.308 522.09 346.159 531.613 364.62 541.588C355.131 540.741 344.657 540.706 335.019 537.852C319.826 533.355 306.547 535.963 296.025 547.457C294.489 549.135 291.161 550.427 288.977 550.054C276.317 547.89 263.752 545.175 250.24 542.354Z" fill="#C38F3D"/>
<path d="M732.015 98.5187C728.893 96.3455 724.433 93.7592 722.729 89.9437C713.085 68.3425 704.102 46.4468 693.523 23.8235C692.897 18.9059 693.642 14.8163 694.084 12.3868C699.213 15.2363 702.807 17.2333 706.402 19.2303C710.775 31.0832 715.533 42.8118 719.423 54.8214C723.993 68.9329 727.808 83.2884 732.015 98.5187Z" fill="#CBA65F"/>
<path d="M706.257 18.2694C702.808 17.2333 699.213 15.2364 694.084 12.3868C693.642 14.8164 692.898 18.906 692.668 23.6488C691.342 25.9283 689.501 27.5546 686.891 29.3052C680.736 29.1045 675.351 28.7796 671.436 28.5435C675.575 19.9298 679.349 12.0727 683.102 3.28599C695.859 -0.734088 703.874 4.46872 706.257 18.2694Z" fill="#6D411B"/>
<path d="M93.5697 518.376C98.6146 525.476 104.679 530.02 114.224 528.57C116.69 528.196 119.594 530.699 122.557 532.597C118.536 539.743 114.268 544.889 104.882 540.988C102.025 539.8 97.2132 543.313 92.448 544.952C90.8137 541.799 90.0281 538.367 89.8213 533.515C90.0744 527.731 89.7486 523.368 90.1063 518.849C91.7164 518.588 92.643 518.482 93.5697 518.376Z" fill="#AE7537"/>
<path d="M458.262 548.259C460.72 545.288 463.011 542.158 465.669 539.378C472.081 532.67 478.665 526.126 485.923 519.184C486.428 521.992 485.925 525.139 485.996 528.273C486.366 544.669 477.726 550.835 458.724 549.481C458.151 548.805 458.262 548.259 458.262 548.259Z" fill="#925721"/>
<path d="M71.2854 28.1071C64.2962 35.3282 55.8249 31.6932 51.1334 26.0868C47.4964 21.7406 48.714 13.3365 47.8666 5.79498C57.4549 3.27022 63.0934 6.52028 64.7382 16.6877C65.3768 20.6359 68.496 24.1832 71.2854 28.1071Z" fill="#9B571D"/>
<path d="M216.719 32.0243C207.883 40.2617 199.782 35.4018 192.126 28.6964C188.523 25.5409 185.38 21.8612 181.663 17.0746C181.282 15.318 181.267 14.9058 181.253 14.4936C190.076 12.5966 196.579 16.0722 202.58 22.463C206.228 26.3473 211.36 28.8388 216.719 32.0243Z" fill="#AD7B3F"/>
<path d="M679.613 543.804C680.352 528.526 687.15 522.791 702.168 525.316C700.47 538.267 692.401 543.302 679.613 543.804Z" fill="#AE7537"/>
<path d="M125.869 536.456C139.063 537.23 152.624 538.835 166.468 541.29C153.247 540.523 139.742 538.904 125.869 536.456Z" fill="#AE7537"/>
<path d="M457.591 547.498C458.262 548.259 458.151 548.805 458.026 549.054C445.939 550.406 433.988 552.148 422.012 552.346C415.925 552.446 409.792 549.763 402.905 547.8C420.394 547.087 438.657 546.912 457.591 547.498Z" fill="#C38F3D"/>
<path d="M57.8552 531.741C62.6443 528.285 67.3567 525.781 72.0691 523.278C72.9624 523.939 73.8559 524.601 74.7493 525.263C71.582 531.721 68.4148 538.179 64.9628 545.516C62.3782 541.827 60.0784 537.26 57.8552 531.741Z" fill="#693812"/>
<path d="M767.524 473.81C755.826 466.199 762.317 454.309 761.419 443.133C763.356 452.631 765.547 462.706 767.524 473.81Z" fill="#714B23"/>
<path d="M384.38 540.485C388.952 541.508 392.875 542.568 396.951 544.531C392.141 544.539 387.179 543.642 381.307 542.493C381.508 541.668 382.619 541.095 384.38 540.485Z" fill="#C38F3D"/>
<path d="M154.686 13.7357C149.833 13.9582 144.3 13.5341 138.357 12.4205C143.3 12.1837 148.653 12.6364 154.686 13.7357Z" fill="#C5913D"/>
<path d="M488.044 517.19C487.188 516.789 487.103 516.207 486.938 514.748C489.971 515 493.085 516.129 496.263 518.169C493.824 518.39 491.32 517.7 488.044 517.19Z" fill="#C49342"/>
<path d="M721.824 530.169C720.82 530.806 719.562 530.813 717.359 530.857C715.754 529.779 715.095 528.663 714.401 526.877C715.544 526.12 716.724 526.034 718.788 525.95C720.306 527.147 720.938 528.343 721.824 530.169Z" fill="#C49342"/>
<path d="M167.871 15.1979C165.292 15.6031 161.77 15.7566 157.71 15.3246C160.424 14.8082 163.677 14.8772 167.871 15.1979Z" fill="#C5913D"/>
<path d="M265.477 11.8036C264.156 12.6991 261.893 13.5417 258.649 14.394C259.957 13.5193 262.246 12.635 265.477 11.8036Z" fill="#C08C3B"/>
<path d="M711.964 521.941C712.842 522.339 713.722 523.506 714.593 525.459C713.711 525.067 712.838 523.889 711.964 521.941Z" fill="#C49342"/>
<path d="M180.47 14.3421C181.268 14.9058 181.282 15.318 181.296 16.3486C180.032 16.6436 178.77 16.3202 177.073 15.4988C177.655 14.7307 178.671 14.4606 180.47 14.3421Z" fill="#C5913D"/>
<path d="M496.364 519.452C496.94 519.248 497.653 519.728 498.616 520.819C498.076 520.999 497.289 520.568 496.364 519.452Z" fill="#C49342"/>
<path d="M719.415 201.201C720.791 202.323 722.167 203.445 723.151 205.364C722.077 206.998 721.394 207.836 720.712 208.674C721.971 209.408 723.231 210.143 724.49 210.878C724.91 212.946 725.331 215.015 726.369 218.566C727.197 226.279 726.337 232.803 727.947 238.647C729.303 243.565 733.533 247.693 736.77 252.695C737.542 253.871 738.173 254.336 738.94 254.616C738.171 279.727 737.749 304.855 736.481 329.94C735.871 341.999 733.133 353.946 732.439 366.006C732.158 370.888 733.899 376.38 736.201 380.829C744.727 397.307 742.118 418.468 730.508 431.943C727.572 435.351 726.96 441.518 726.895 446.439C726.817 452.365 731.128 459.74 728.856 463.983C722.288 476.247 715.695 491.55 704.694 497.492C694.629 502.928 678.758 511.1 665.231 498.214C663.322 496.395 657.744 498.131 653.934 498.695C651.3 499.086 648.317 501.613 646.304 500.897C638.774 498.221 633.282 498.39 630.005 507.077C629.26 509.054 625.614 510.788 623.104 511.117C603.65 513.67 584.181 517.115 564.646 517.64C554.106 517.923 543.375 510.792 532.824 511.037C520.85 511.315 515.198 501.832 509.212 500.039C501.561 502.726 496.761 505.679 491.834 505.906C477.114 506.584 462.285 506.983 447.624 505.852C441.359 505.369 435.408 500.825 428.767 497.884C412.389 515.334 393.284 519.795 369.082 509.866C359.441 505.91 346.439 510.501 334.967 510.484C329.162 510.475 322.766 510.122 317.681 507.718C307.935 503.112 299.975 503.97 293.037 512.036C285.003 521.378 276.114 522.377 265.035 517.261C261.568 515.66 254.758 516.797 251.83 519.362C242.819 527.259 224.236 527.33 215.631 518.255C204.796 506.829 178.773 503.252 164.396 509.083C160.363 510.719 151.373 507.154 148.472 503.187C141.358 493.461 134.473 490.782 122.852 495.107C118.406 496.761 110.686 493.611 106.216 490.288C99.3978 485.22 94.1073 478.1 85.6495 469.202C86.1977 475.01 86.3696 476.832 85.6528 479.172C83.0262 475.818 80.7231 472.096 79.6563 468.049C76.4123 455.739 74.0138 443.202 70.6055 430.943C65.7013 413.303 60.1977 395.83 54.9499 378.286C56.2078 374.876 58.9587 371.246 58.4935 368.089C53.6591 335.293 49.8043 302.234 42.5174 269.961C38.3824 251.648 46.7852 235.488 45.4393 218.171C44.9119 211.385 45.6375 204.23 43.7037 197.879C39.2512 183.256 40.2851 168.908 42.9017 154.29C44.3156 146.39 44.9855 138.358 46.2416 128.399C47.2075 118.787 49.6265 107.113 49.2152 95.5394C48.7449 82.3052 55.9764 73.8614 62.6565 63.9858C67.6776 56.5626 71.508 50.5714 80.9546 53.695C91.195 34.3884 93.6819 31.462 114.288 39.5636C128.71 45.2341 140.382 40.2307 151.921 36.8052C163.575 33.3459 172.999 35.5233 183.428 38.539C191.011 40.7315 198.846 42.0788 206.602 43.6407C220.608 46.4615 234.57 49.6252 248.688 51.7131C255.638 52.7408 262.907 51.4028 270.011 51.6759C274.305 51.841 278.548 53.5287 282.834 53.6256C286.309 53.7041 289.79 52.093 293.312 51.8325C299.171 51.3992 305.412 50.1209 310.878 51.5473C325.989 55.4905 340.274 57.7831 356.607 55.4815C375.427 52.8293 394.462 42.5659 414.402 51.9166C417.954 53.5822 422.86 52.4446 427.141 52.4607C440.523 52.5111 452.86 56.8876 467.631 52.2799C481.268 48.0258 498.291 54.4003 513.765 56.5144C515.616 56.7672 517.257 59.5356 518.738 61.3478C530.779 76.0768 534.231 76.1616 547.131 61.264C549.06 63.3705 550.925 65.4068 553.623 68.3522C555.981 63.4796 557.77 59.7824 559.732 55.7297C572.82 66.9696 586.784 70.2593 603.097 66.1382C613.509 63.508 624.45 62.3853 635.204 62.0018C639.269 61.8569 643.476 65.6909 648.473 67.7968C649.329 67.8825 649.338 67.8767 649.344 68.7367C650.969 71.4404 652.586 73.2841 654.203 75.1278C656.547 77.8414 658.891 80.5551 660.743 84.5243C660.637 88.7109 661.022 91.642 660.551 94.4676C651.313 84.4339 639.918 85.054 628.086 87.2424C628.086 82.169 628.086 78.9262 628.086 75.4439C618.917 77.013 608.986 76.1052 602.88 80.5027C596.964 84.763 592.462 85.8988 586.061 84.912C579.741 83.9377 573.141 82.2845 567.028 83.2449C561.916 84.0481 554.789 87.1123 553.085 91.1061C550.28 97.6798 546.715 97.1856 541.8 96.3048C538.758 95.7598 535.739 95.0927 532.242 94.386C531.797 98.0824 531.474 100.761 530.949 105.114C522.987 97.3212 516.564 90.852 505.992 98.4398C503.561 100.184 496.882 96.0169 493.351 94.9356C495.739 88.9704 497.569 84.3999 499.895 78.5913C492.771 80.6806 488.497 81.9343 482.307 83.7496C481.682 84.7897 479.736 88.0262 478.199 90.5828C469.665 86.1733 462.14 79.2184 454.507 79.0975C444.387 78.9372 434.056 90.125 424.621 75.7625C423.245 73.6668 414.268 76.5579 408.988 77.1223C403.77 63.6753 403.77 63.6753 392.654 69.8466C385.258 68.6571 380.296 66.3561 376.356 67.5174C366.066 70.5499 354.309 72.8812 346.616 79.5193C332.201 91.9574 313.07 84.7617 298.558 94.146C298.267 94.3341 297.26 93.4172 296.391 92.8985C297.789 83.5191 295.333 77.3038 284.101 77.2676C281.578 77.2595 278.753 74.4331 276.596 72.3557C262.769 59.0389 241.406 62.9129 233.148 80.2711C232.391 81.8624 230.755 83.0362 228.592 85.4457C226.665 81.5182 225.518 78.6476 223.932 76.0443C219.168 68.2273 218.628 57.6206 206.791 54.674C193.821 51.4455 181.513 45.5293 167.81 52.2093C165.375 53.3966 160.516 52.1279 158.05 50.2878C149.668 44.0332 142.172 44.2996 133.942 50.5793C131.414 52.5078 127.283 52.4538 123.84 53.0419C117.442 54.135 110.671 54.0831 104.666 56.2225C94.231 59.9406 84.2696 64.9828 74.0928 69.4314C63.8677 73.9012 62.8059 79.8591 67.8404 84.7717C66.3198 101.342 65.7425 115.32 63.5796 129.049C61.398 142.897 57.6431 156.498 54.5775 170.207C56.9284 175.97 56.9426 181.935 57.5804 187.833C58.5345 196.655 57.3877 207.06 61.7425 213.832C67.9065 223.417 65.2931 229.875 60.7226 237.833C58.3193 242.017 55.7951 246.748 55.4533 251.389C54.1992 268.414 68.9179 283.809 60.9514 301.76C60.6239 302.498 62.2495 303.916 62.2615 305.025C62.2973 308.307 62.0412 311.599 61.7859 314.878C61.4503 319.191 60.7637 323.49 60.6656 327.805C60.5141 334.485 60.5651 341.179 60.8542 347.854C61.0404 352.15 61.0984 356.658 62.4321 360.666C69.4783 381.841 79.2924 402.439 83.3792 424.135C86.1382 438.782 92.6067 449.855 100.305 461.355C103.571 466.234 104.671 473.741 109.016 476.506C124.074 486.088 143.345 487.245 157.955 482.345C171.173 477.911 182.337 485.849 194.497 478.538C194.497 484.21 194.497 487.524 194.497 490.224C201.697 492.884 207.969 495.664 214.51 497.471C219.734 498.915 225.839 501.005 230.578 499.577C240.491 496.591 249.761 491.473 259.178 487.282C265.003 498.067 276.216 503.054 283.315 498.282C287.954 495.163 291.221 489.844 296.029 487.183C300.465 484.727 307.847 481.779 310.982 483.746C328.682 494.843 348.412 497.675 368.244 501.688C385.375 505.156 400.777 507.138 413.385 491.93C414.663 490.389 417.715 489.765 419.978 489.682C432.913 489.213 445.884 488.379 458.794 488.899C485.304 489.965 511.819 495.614 535.635 488.218C541.02 491.641 544.382 495.102 548.321 495.981C554.735 497.412 561.521 497.312 568.161 497.581C583.223 498.191 598.291 498.719 613.362 499.023C615.116 499.059 617.133 497.768 618.633 496.589C624.551 491.941 629.608 485.043 636.281 482.753C649.294 478.287 662.503 469.799 675.39 477.07C688.572 467.449 695.623 454.203 700.707 439.676C701.265 438.081 704.238 437.473 705.265 435.877C710.988 426.975 720.966 417.948 721.043 408.892C721.188 391.767 716.16 374.46 712.138 357.499C710.24 349.494 708.666 342.865 715.878 336.697C717.959 334.917 719.068 331.192 719.332 328.243C720.367 316.696 721.33 305.108 721.478 293.525C721.652 279.975 726.996 264.796 710.742 255.521C709.063 254.563 708.586 249.945 708.96 247.218C710.628 235.028 712.598 222.868 714.937 210.79C715.588 207.431 717.877 204.389 719.415 201.201Z" fill="#DDB05E"/>
<path d="M54.3096 377.678C60.1975 395.83 65.7011 413.303 70.6052 430.943C74.0136 443.202 76.412 455.739 79.6561 468.049C80.7228 472.096 83.026 475.818 85.6093 479.956C88.0101 484.938 89.5655 489.653 91.8367 494.611C92.9669 502.05 93.381 509.245 93.6824 517.408C92.643 518.483 91.7164 518.589 89.1304 518.777C79.0102 520.063 77.134 513.424 75.6172 507.836C66.1342 472.899 57.2176 437.808 47.7513 402.866C43.0803 385.624 37.635 368.592 32.54 351.465C32.4707 350.555 32.4013 349.645 32.5181 347.207C31.7489 344.388 30.7933 343.097 29.8378 341.807C29.8713 340.88 29.9049 339.953 30.174 337.592C29.3618 334.581 28.3141 333.002 27.2664 331.424C26.4437 325.882 25.621 320.34 24.7873 313.737C28.2915 314.844 33.3111 316.204 35.0055 319.351C38.4526 325.754 40.1046 333.122 42.9287 340.883C46.7973 353.472 50.2333 365.271 54.3096 377.678Z" fill="#EFD298"/>
<path d="M739.681 254.906C738.172 254.336 737.542 253.871 736.864 251.96C737.467 249.537 738.256 248.373 739.045 247.209C740.729 247.214 742.412 247.22 744.923 247.229C747.456 251.544 749.162 255.855 750.82 261.038C747.321 259.672 743.872 257.434 739.681 254.906Z" fill="#C48E3A"/>
<path d="M753.22 269.368C754.557 270.11 755.299 271.246 756.086 273.09C754.961 272.454 753.793 271.108 753.22 269.368Z" fill="#C48E3A"/>
<path d="M719.44 200.411C717.877 204.389 715.587 207.431 714.937 210.79C712.598 222.868 710.628 235.028 708.959 247.218C708.586 249.945 709.063 254.563 710.741 255.521C726.995 264.796 721.651 279.975 721.478 293.525C721.33 305.108 720.366 316.696 719.332 328.243C719.068 331.192 717.959 334.918 715.877 336.698C708.666 342.865 710.24 349.494 712.138 357.499C716.16 374.46 721.188 391.767 721.043 408.892C720.966 417.948 710.988 426.975 705.264 435.877C704.238 437.473 701.264 438.081 700.707 439.676C695.623 454.203 688.572 467.449 675.39 477.07C662.503 469.799 649.294 478.287 636.28 482.753C629.608 485.043 624.551 491.941 618.633 496.589C617.133 497.768 615.115 499.059 613.361 499.024C598.29 498.719 583.223 498.191 568.16 497.581C561.52 497.312 554.735 497.412 548.32 495.981C544.381 495.102 541.019 491.641 535.635 488.219C511.819 495.614 485.304 489.965 458.793 488.899C445.884 488.379 432.912 489.213 419.978 489.682C417.714 489.765 414.663 490.389 413.385 491.93C400.777 507.138 385.375 505.156 368.244 501.688C348.412 497.675 328.681 494.843 310.982 483.746C307.846 481.78 300.465 484.727 296.029 487.183C291.22 489.844 287.954 495.163 283.314 498.282C276.216 503.054 265.002 498.067 259.178 487.283C249.76 491.473 240.491 496.591 230.578 499.577C225.838 501.005 219.734 498.915 214.51 497.471C207.968 495.664 201.697 492.884 194.497 490.224C194.497 487.524 194.497 484.21 194.497 478.538C182.336 485.849 171.172 477.911 157.955 482.345C143.345 487.245 124.074 486.088 109.016 476.506C104.671 473.741 103.57 466.234 100.304 461.355C92.6064 449.855 86.1379 438.782 83.3789 424.135C79.292 402.439 69.478 381.841 62.4317 360.666C61.098 356.658 61.0401 352.15 60.8539 347.854C60.5648 341.18 60.5137 334.485 60.6653 327.805C60.7633 323.49 61.4499 319.191 61.7856 314.878C62.0408 311.599 62.297 308.307 62.2612 305.025C62.2492 303.916 60.6235 302.498 60.9511 301.76C68.9176 283.809 54.1989 268.414 55.453 251.389C55.7948 246.748 58.3189 242.017 60.7223 237.833C65.2928 229.875 67.9062 223.417 61.7422 213.832C57.3874 207.06 58.5341 196.655 57.5801 187.833C56.9423 181.935 56.9281 175.97 54.5771 170.207C57.6428 156.498 61.3977 142.897 63.5793 129.049C65.7421 115.32 66.3195 101.342 67.8401 84.7718C62.8055 79.8592 63.8674 73.9013 74.0925 69.4315C84.2693 64.9829 94.2306 59.9407 104.666 56.2226C110.67 54.0832 117.441 54.1351 123.84 53.042C127.282 52.4539 131.414 52.5079 133.941 50.5794C142.172 44.2997 149.668 44.0333 158.05 50.2879C160.515 52.128 165.374 53.3967 167.81 52.2094C181.513 45.5294 193.82 51.4456 206.791 54.6741C218.628 57.6207 219.168 68.2274 223.931 76.0444C225.518 78.6477 226.665 81.5183 228.592 85.4458C230.755 83.0363 232.39 81.8625 233.147 80.2712C241.406 62.913 262.769 59.039 276.596 72.3557C278.753 74.4332 281.577 77.2596 284.101 77.2677C295.333 77.3039 297.789 83.5191 296.391 92.8986C297.26 93.4173 298.266 94.3342 298.557 94.1461C313.07 84.7618 332.201 91.9575 346.616 79.5194C354.309 72.8813 366.066 70.55 376.355 67.5175C380.296 66.3562 385.258 68.6571 392.653 69.8467C403.77 63.6754 403.77 63.6754 408.987 77.1224C414.268 76.558 423.244 73.6669 424.621 75.7626C434.056 90.1251 444.387 78.9373 454.506 79.0976C462.14 79.2185 469.665 86.1734 478.199 90.5829C479.736 88.0263 481.681 84.7898 482.307 83.7497C488.496 81.9344 492.771 80.6807 499.894 78.5914C497.569 84.4 495.739 88.9704 493.351 94.9357C496.881 96.017 503.56 100.185 505.991 98.4399C516.564 90.8521 522.987 97.3213 530.948 105.114C531.473 100.762 531.796 98.0825 532.242 94.3861C535.738 95.0928 538.758 95.7598 541.799 96.3049C546.715 97.1857 550.28 97.6799 553.085 91.1062C554.788 87.1124 561.915 84.0482 567.028 83.245C573.141 82.2846 579.741 83.9378 586.06 84.9121C592.461 85.8989 596.964 84.7631 602.879 80.5028C608.985 76.1053 618.916 77.0131 628.086 75.444C628.086 78.9263 628.086 82.1691 628.086 87.2425C639.918 85.0541 651.313 84.434 660.902 95.2295C666.778 104.442 671.446 112.788 675.268 121.232C665.073 124.642 661.686 117.605 658.02 111.586C655.362 107.222 651.638 98.3369 651.329 98.4665C639.663 103.36 628.076 91.7119 617.856 100.531C610.28 90.8773 598.847 94.7162 589.246 93.026C578.431 91.1223 566.005 86.6647 558.114 100.274C547.008 119.426 534.247 122.233 516.787 110.163C508.598 112.806 500.703 115.355 491.132 118.444C492.634 125.229 494.11 131.901 495.803 139.547C490.735 139.547 485.869 139.547 481.708 139.547C479.609 128.358 477.643 117.881 475.33 105.551C470.172 109.857 467.76 111.871 465.348 113.885C464.252 112.972 463.157 112.06 462.061 111.147C465.096 107.067 468.131 102.986 471.166 98.9046C470.909 97.833 470.652 96.7614 470.395 95.6898C459.69 97.4832 448.349 97.756 438.596 101.828C434.766 103.428 434.491 113.53 432.245 120.918C430.272 117.143 428.426 113.611 426.112 109.183C418.658 110.476 411.049 111.796 401.01 113.538C390.192 100.032 373.063 99.45 355.129 104.499C346.618 106.896 338.613 111.088 329.686 114.751C329.573 116.539 329.232 119.338 329.251 122.136C329.324 133.186 317.701 130.025 313.175 135.455C310.432 132.159 306.469 129.281 305.174 125.491C301.231 113.955 296.79 120.27 291.742 126.308C289.673 115.117 288.931 104.74 275.843 97.2791C275.843 113.988 275.843 127.732 275.843 141.475C274.367 141.512 272.89 141.548 271.414 141.585C265.817 123.544 269.263 104.821 269.786 85.5868C261.93 85.5787 255.146 85.3601 251.054 94.4205C248.396 100.306 243.012 104.963 238.85 110.17C236.117 113.594 234.235 122.405 232.703 122.345C225.456 122.058 217.891 120.201 211.35 117.027C209.129 115.95 209.917 109.272 208.738 105.33C206.395 97.499 203.745 89.7519 200.898 82.0903C200.605 81.3037 198.102 80.9814 196.649 81.0402C187.647 81.4044 178.643 81.8205 169.658 82.4768C166.131 82.7344 161.107 82.3988 159.407 84.4846C149.862 96.1925 141.427 89.0111 133.711 83.101C125.564 76.8612 119.441 73.5908 114.522 86.1869C113.731 88.2138 109.229 88.9753 106.32 89.9613C96.2272 93.3826 85.0823 107.076 87.7995 115.325C94.999 137.183 86.338 156.269 79.4694 175.972C76.6472 184.067 70.4369 192.864 80.7532 200.787C82.1054 201.826 82.0982 205.399 81.8055 207.681C80.3427 219.086 90.484 231.231 79.6444 242.087C79.0291 242.703 79.3777 244.45 79.5303 245.638C82.2844 267.073 84.4426 288.615 88.1679 309.881C89.7028 318.643 94.6248 326.813 97.1831 333.198C92.6229 336.226 86.4641 338.098 85.6002 341.367C83.9715 347.53 85.2462 354.506 85.5765 361.131C86.3238 376.13 96.4984 384.139 108.045 389.958C105.647 397.74 100.999 404.975 102.075 411.225C103.579 419.956 104.813 427.902 102.017 436.482C101.496 438.082 104.12 442.373 105.885 442.766C114.32 444.647 122.959 445.612 133.683 447.228C140.662 457.488 141.069 457.362 157.076 435.922C173.507 441.48 190.526 446.916 207.267 453.104C211.996 454.852 216.044 458.624 220.169 461.776C227.689 467.522 242.899 468.207 250.344 462.901C261.333 455.067 266.696 455.898 275.226 467.371C282.432 465.573 289.946 463.699 295.747 462.252C294.659 449.873 293.738 439.405 292.833 428.12C293.654 425.423 294.458 423.543 296.189 421.877C301.415 432.085 305.931 441.992 309.962 452.092C315.182 465.171 331.453 470.376 343.223 462.642C344.926 461.522 347.376 461.537 350.348 460.816C350.508 463.782 350.892 465.731 350.669 467.609C349.117 480.705 352.741 485.926 364.404 481.652C376.592 477.186 389.083 479.853 400.302 476.621C417.461 471.676 432.73 468.906 444.026 480.095C453.29 478 459.864 475.213 466.405 475.289C483.02 475.483 499.815 475.751 516.156 478.369C526.215 479.98 534.198 480.618 539.906 470.262C544.656 480.908 560.435 489.121 573.344 486.883C590.465 483.914 607.4 479.724 624.238 475.371C629.453 474.023 633.821 469.227 639.034 468.078C668.019 461.688 687.693 440.844 690.337 412.281C693.796 412.89 697.211 413.491 701.378 414.225C702.865 403.963 711.012 395.021 703.158 384.357C701.916 382.672 703.657 378.949 703.654 376.168C703.645 368.251 705.537 359.55 702.915 352.571C696.33 335.045 697.37 318.895 706.649 303.039C715.014 288.745 711.846 275.446 702.233 261.925C697.897 255.826 697.453 242.746 701.147 236.123C707.067 225.509 707.568 217.378 703.336 206.381C699.921 197.509 700.198 187.189 699.172 177.476C699.081 176.619 701.473 175.499 703.349 174.919C705.965 176.692 707.944 178.048 709.924 179.404C710.644 180.533 711.364 181.662 711.621 183.858C711.57 186.301 711.982 187.677 712.397 189.837C713.963 191.839 715.527 193.057 717.091 194.275C717.883 196.057 718.674 197.839 719.44 200.411Z" fill="#E1BA71"/>
<path d="M654.264 54.142C661.143 63.246 669.2 72.6386 674.715 83.3397C690.868 114.678 706.037 146.524 721.496 178.218C722.876 181.049 723.558 184.22 724.54 188.156C719.87 181.376 714.845 173.872 710.649 165.932C698.327 142.62 686.233 119.186 674.252 95.6962C667.391 82.244 660.924 68.591 654.264 54.142Z" fill="#9B571D"/>
<path d="M676.114 121.134C671.446 112.788 666.778 104.442 661.759 95.3349C661.022 91.6421 660.637 88.711 660.834 85.3142C670.347 101.954 679.278 119.059 688.204 137.13C688.199 138.095 688.072 138.211 687.454 137.954C685.677 137.029 684.519 136.36 683.305 134.976C682.484 133.128 681.718 131.996 680.856 130.065C679.212 126.555 677.663 123.844 676.114 121.134Z" fill="#CFA14B"/>
<path d="M739.11 246.395C738.256 248.372 737.467 249.536 736.584 251.435C733.533 247.692 729.303 243.565 727.947 238.646C726.336 232.802 727.196 226.278 726.993 219.066C731.059 227.249 735.117 236.415 739.11 246.395Z" fill="#CFA14B"/>
<path d="M709.845 178.492C707.944 178.047 705.965 176.691 703.326 174.057C701.065 169.313 699.462 165.847 697.82 161.66C697.019 159.802 696.257 158.663 695.425 156.808C694.59 154.945 693.826 153.8 693.013 151.938C692.2 150.088 691.437 148.955 690.566 146.991C689.662 143.51 688.867 140.861 688.071 138.211C688.071 138.211 688.198 138.095 688.262 138.034C695.473 151.175 702.619 164.378 709.845 178.492Z" fill="#CFA14B"/>
<path d="M717.085 193.505C715.527 193.057 713.963 191.839 713.018 189.821C714.049 189.003 714.463 188.984 714.876 188.965C715.611 190.221 716.345 191.478 717.085 193.505Z" fill="#DDB05E"/>
<path d="M647.118 41.8628C648.725 42.9535 650.284 44.8429 651.849 47.5735C650.259 46.4971 648.664 44.5793 647.118 41.8628Z" fill="#9B571D"/>
<path d="M654.143 74.3505C652.586 73.2841 650.968 71.4404 649.341 68.74C650.915 69.78 652.499 71.6766 654.143 74.3505Z" fill="#CFA14B"/>
<path d="M724.483 210.03C723.231 210.143 721.971 209.408 720.712 208.674C721.394 207.836 722.076 206.998 723.432 205.983C724.229 206.931 724.353 208.056 724.483 210.03Z" fill="#CFA14B"/>
<path d="M714.795 188.238C714.463 188.984 714.049 189.003 713.015 189.038C711.982 187.677 711.57 186.301 711.677 184.558C713.036 185.299 713.875 186.405 714.795 188.238Z" fill="#CFA14B"/>
<path d="M752.767 239.268C752.733 239.924 752.395 240.28 752.056 240.635C752.192 240.08 752.328 239.524 752.767 239.268Z" fill="#693812"/>
<path d="M748.847 230.166C749.136 231.309 749.424 232.453 749.712 233.596C749.377 232.91 749.042 232.224 748.735 230.892C748.764 230.246 748.847 230.166 748.847 230.166Z" fill="#693812"/>
<path d="M748.718 230.281C748.376 229.197 748.08 228.077 747.784 226.957C748.111 227.63 748.438 228.303 748.806 229.571C748.847 230.166 748.764 230.246 748.718 230.281Z" fill="#693812"/>
<path d="M32.0859 352.162C37.6348 368.592 43.0801 385.624 47.7512 402.866C57.2174 437.808 66.134 472.899 75.617 507.836C77.1338 513.424 79.01 520.063 88.4467 518.932C89.7484 523.369 90.0742 527.732 89.804 532.624C83.2295 526.968 73.7576 521.709 71.8299 514.45C57.5861 460.81 44.8454 406.772 32.0859 352.162Z" fill="#CEA454"/>
<path d="M26.9948 332.158C28.3142 333.002 29.3619 334.581 30.114 336.899C28.7867 336.056 27.7549 334.475 26.9948 332.158Z" fill="#CEA454"/>
<path d="M29.4847 342.304C30.7936 343.097 31.7491 344.388 32.4158 346.53C31.1284 345.855 30.1299 344.328 29.4847 342.304Z" fill="#CEA454"/>
<path d="M295.262 421.662C294.458 423.543 293.654 425.423 291.955 428.236C278.483 433.084 285.719 443.947 283.683 452.347C275.438 450.527 266.282 456.759 260.643 445.099C256.158 435.826 251.39 436.218 244.595 444.426C242.898 446.475 241.027 448.38 240.802 448.629C234.001 446.329 228.904 444.185 223.597 442.938C219.015 441.862 214.072 442.307 209.504 441.198C199.348 438.732 197.28 431.129 204.877 423.886C207.308 421.569 211.33 421.006 214.132 418.966C216.449 417.28 219.449 414.667 219.561 412.342C219.673 409.982 217.151 406.416 214.837 405.244C209.855 402.721 204.266 401.395 198.106 399.3C211.064 384.234 191.405 379.611 188.882 368.8C178.437 382.293 196.305 398.555 182.27 414.118C175.171 404.955 165.756 397.786 163.58 388.855C160.092 374.544 151.408 371.871 139.651 370.774C126.909 369.584 119.413 358.939 120.291 345.498C120.732 338.73 121.595 330.319 109.888 330.755C108.031 330.824 105.067 325.899 104.267 322.85C103.428 319.656 105.64 315.602 104.659 312.515C101.886 303.796 107.004 301.231 113.48 298.313C119.807 295.461 126.013 291.933 131.397 287.614C133.307 286.081 134.07 280.474 132.752 278.314C131.427 276.143 126.871 275.094 123.713 275.058C116.336 274.974 108.943 276.142 101.568 276.031C99.3316 275.998 95.8682 273.909 95.1428 271.954C92.4121 264.598 101.82 244.6 109.199 240.753C119.476 249.911 122.082 248.726 130.314 229.604C124.58 226.816 116.165 220.004 113.319 221.836C103.743 228 98.6664 221.515 89.103 217.32C104.179 205.709 103.469 191.555 98.9288 176.736C98.5894 175.628 98.7577 174.311 98.9032 173.117C100.987 156.018 101.351 137.94 122.707 131.877C124.088 131.485 125.592 130.006 126.2 128.655C131.037 117.918 141.469 115.043 150.459 116.884C167.487 120.372 178.396 114.413 186.818 100.674C187.102 100.211 188.299 100.307 189.073 100.157C203.049 110.829 203.808 114.594 200.047 131.361C198.987 136.088 200.91 142.919 203.98 146.795C208.499 152.5 206.638 156.355 204.703 162.045C201.933 170.193 201.257 179.053 199.687 187.608C201.452 188.399 203.217 189.189 204.982 189.98C208.155 186.074 211.451 182.26 214.477 178.243C221.596 168.792 223.351 151.947 242.284 158.911C244.109 159.582 248.22 156.35 250.079 153.992C252.013 151.539 252.503 147.949 253.625 144.855C255.481 146.096 257.338 147.338 259.195 148.579C259.919 153.599 260.754 158.607 261.339 163.644C261.994 169.275 262.423 174.933 262.997 181.082C266.251 181.082 269.548 181.082 272.856 181.082C272.264 187.002 271.046 192.215 271.555 197.254C271.783 199.502 275.18 202.346 277.704 203.153C279.687 203.786 282.938 202.232 284.919 200.723C288.888 197.699 292.372 194.042 297.189 189.602C299.261 171.967 304.623 165.448 316.164 166.25C325.311 156.122 333.815 146.706 342.319 137.289C343.469 137.911 344.619 138.532 345.768 139.153C345.354 143.947 344.939 148.741 344.393 155.057C352.13 156.017 359.373 156.916 365.99 157.737C365.99 144.625 365.99 133.239 365.99 121.854C367.557 121.468 369.123 121.083 370.689 120.697C372.251 124.043 373.573 127.53 375.451 130.687C376.894 133.114 379.946 137.316 380.73 136.991C392.153 132.253 397.961 139.413 401.221 144.424C409.842 145.727 415.575 147.002 421.358 147.297C424.274 147.445 427.646 146.418 430.182 144.883C440.098 138.88 450.599 143.139 453.23 155.25C460.247 154.529 470.19 150.515 473.889 153.713C483.25 161.807 493.241 157.486 503.181 159.072C503.686 164.704 504.178 170.187 504.645 175.385C511.098 177.145 516.749 178.686 523.665 180.572C516.634 189.911 516.54 198.338 524.275 205.225C526.118 206.866 533.829 205.373 533.839 205.125C534.149 197.235 541.513 189.663 533.922 181.298C519.503 165.41 520.37 144.063 513.472 125.451C514.682 124.469 515.892 123.486 517.103 122.504C524.588 128.767 532.074 135.029 539.699 141.409C544.635 139.703 551.397 138.318 557.066 135.042C560.372 133.131 563.875 128.214 563.91 124.617C564.024 113.115 567.086 110.124 579.189 110.115C587.318 110.109 595.445 108.316 603.572 107.323C604.03 106.091 604.488 104.858 604.945 103.625C609.149 108.651 613.246 113.771 617.609 118.654C619.243 120.482 621.495 121.758 623.465 123.285C624.807 121.157 626.467 119.158 627.397 116.864C628.255 114.748 628.331 112.315 628.904 109.188C640.521 108.715 646.946 114.7 651.533 123.974C653.767 128.493 655.755 133.675 659.354 136.87C667.794 144.364 677.138 150.841 687.647 158.904C681.234 163.856 676.262 167.695 668.797 173.46C675.663 173.46 678.974 173.46 681.939 173.46C689.414 188.837 689.881 202.399 673.731 211.933C696.458 235.867 696.454 244.576 672.785 260.159C676.686 263.8 679.748 269.027 683.865 270.062C696.882 273.335 696.526 283.535 696.435 292.827C696.358 300.672 693.762 308.491 692.211 316.694C688.199 316.694 684.882 316.694 680.509 316.694C681.809 319.769 682.679 321.881 683.59 323.975C686.545 330.766 693.747 339.648 691.629 343.917C686.657 353.94 691.692 361.699 692.169 370.49C692.722 380.668 694.403 393.343 689.349 400.573C683.9 408.368 678.852 417.195 672.795 423.717C667.413 429.512 654.159 428 644.385 429.745C644.05 429.804 643.777 430.211 643.475 430.456C647.014 441.417 644.848 446.36 635.779 445.769C615.234 444.432 600.696 453.213 588.547 469.308C584.779 474.299 574.846 479.173 569.712 477.611C560.426 474.786 551.882 467.899 544.45 461.145C538.858 456.064 536.005 455.483 529.318 459.759C520.864 465.166 512.595 474.725 499.603 468.343C500.001 462.98 500.404 457.531 500.808 452.082C500.015 451.244 499.221 450.406 498.428 449.567C489.636 482.879 466.913 457.572 452.703 464.28C452.703 455.317 452.703 447.289 452.703 438.328C445.614 440.623 441.124 443.344 436.705 443.234C428.551 443.031 425.241 446.828 421.04 453.382C417.135 459.476 408.905 466.796 402.716 466.674C385.238 466.328 367.936 462.166 354.566 448.991C362.78 438.876 362.348 435.606 352.344 430.586C348.783 447.139 337.025 454.258 326.346 446.113C317.46 439.335 305.624 434.456 308.473 419.471C308.88 417.33 306.446 414.651 303.921 409.168C300.13 414.638 297.696 418.15 295.262 421.662Z" fill="#E9CC8F"/>
<path d="M296.189 421.877C297.696 418.15 300.13 414.638 303.921 409.168C306.446 414.651 308.88 417.33 308.473 419.47C305.624 434.456 317.46 439.335 326.346 446.113C337.025 454.258 348.783 447.139 352.344 430.586C362.347 435.606 362.78 438.876 354.566 448.991C367.936 462.166 385.238 466.328 402.716 466.673C408.905 466.796 417.135 459.476 421.04 453.382C425.241 446.827 428.551 443.031 436.705 443.234C441.124 443.343 445.614 440.623 452.703 438.328C452.703 447.289 452.703 455.317 452.703 464.28C466.913 457.572 489.635 482.879 498.428 449.567C499.221 450.405 500.015 451.244 500.808 452.082C500.404 457.531 500.001 462.98 499.603 468.343C512.595 474.725 520.864 465.166 529.318 459.759C536.005 455.483 538.858 456.064 544.449 461.145C551.882 467.899 560.426 474.786 569.712 477.611C574.846 479.173 584.779 474.299 588.547 469.308C600.696 453.213 615.234 444.432 635.778 445.769C644.848 446.36 647.014 441.417 643.475 430.456C643.777 430.211 644.05 429.804 644.385 429.745C654.159 427.999 667.413 429.512 672.795 423.717C678.852 417.195 683.9 408.368 689.349 400.573C694.403 393.343 692.722 380.668 692.169 370.49C691.692 361.699 686.656 353.94 691.629 343.917C693.747 339.648 686.545 330.766 683.59 323.975C682.679 321.881 681.809 319.769 680.509 316.694C684.882 316.694 688.199 316.694 692.211 316.694C693.762 308.491 696.358 300.671 696.435 292.827C696.526 283.535 696.882 273.334 683.865 270.062C679.748 269.027 676.686 263.8 672.785 260.159C696.454 244.576 696.458 235.866 673.731 211.933C689.881 202.399 689.414 188.837 681.939 173.459C678.974 173.459 675.663 173.459 668.797 173.459C676.262 167.695 681.234 163.856 687.647 158.904C677.138 150.841 667.794 144.364 659.354 136.87C655.755 133.675 653.767 128.493 651.533 123.974C646.946 114.7 640.521 108.715 628.904 109.188C628.331 112.315 628.255 114.748 627.397 116.864C626.467 119.158 624.807 121.157 623.465 123.285C621.495 121.758 619.243 120.482 617.609 118.654C613.246 113.771 609.148 108.651 604.945 103.625C604.488 104.858 604.03 106.091 603.572 107.323C595.445 108.316 587.318 110.109 579.189 110.115C567.086 110.124 564.024 113.115 563.91 124.617C563.875 128.214 560.372 133.131 557.066 135.042C551.397 138.318 544.635 139.703 539.699 141.409C532.074 135.029 524.588 128.766 517.102 122.504C515.892 123.486 514.682 124.469 513.472 125.451C520.37 144.063 519.503 165.41 533.922 181.298C541.513 189.663 534.148 197.235 533.839 205.125C533.829 205.373 526.118 206.866 524.275 205.224C516.54 198.338 516.634 189.911 523.665 180.572C516.749 178.686 511.098 177.145 504.645 175.385C504.178 170.187 503.686 164.704 503.181 159.072C493.241 157.486 483.25 161.807 473.889 153.713C470.189 150.515 460.247 154.529 453.23 155.25C450.599 143.139 440.098 138.88 430.182 144.883C427.646 146.418 424.274 147.445 421.358 147.297C415.575 147.002 409.842 145.727 401.221 144.424C397.961 139.413 392.153 132.253 380.73 136.991C379.946 137.316 376.894 133.113 375.451 130.687C373.573 127.53 372.251 124.042 370.689 120.697C369.123 121.083 367.557 121.468 365.99 121.854C365.99 133.239 365.99 144.625 365.99 157.737C359.373 156.916 352.13 156.017 344.393 155.057C344.939 148.741 345.354 143.947 345.768 139.153C344.619 138.532 343.469 137.911 342.319 137.289C333.815 146.706 325.311 156.122 316.164 166.25C304.623 165.448 299.261 171.967 297.189 189.602C292.372 194.042 288.887 197.699 284.919 200.722C282.938 202.232 279.687 203.786 277.704 203.153C275.18 202.346 271.783 199.502 271.555 197.254C271.046 192.215 272.264 187.002 272.856 181.082C269.548 181.082 266.251 181.082 262.997 181.082C262.423 174.933 261.994 169.275 261.339 163.644C260.753 158.607 259.919 153.599 259.195 148.579C257.338 147.338 255.481 146.096 253.625 144.855C252.503 147.949 252.013 151.539 250.079 153.992C248.22 156.35 244.109 159.582 242.284 158.911C223.351 151.947 221.596 168.792 214.477 178.243C211.451 182.26 208.155 186.074 204.982 189.98C203.217 189.189 201.452 188.399 199.687 187.608C201.257 179.053 201.933 170.193 204.703 162.045C206.638 156.355 208.499 152.5 203.98 146.795C200.91 142.919 198.987 136.088 200.047 131.361C203.807 114.594 203.049 110.829 189.073 100.157C188.299 100.307 187.102 100.211 186.818 100.674C178.396 114.413 167.487 120.371 150.459 116.884C141.469 115.043 131.037 117.918 126.2 128.655C125.592 130.006 124.088 131.485 122.707 131.877C101.351 137.939 100.987 156.018 98.9032 173.116C98.7577 174.31 98.5894 175.628 98.9288 176.736C103.469 191.555 104.179 205.709 89.103 217.32C98.6664 221.515 103.743 228 113.319 221.836C116.165 220.004 124.58 226.816 130.314 229.604C122.082 248.726 119.476 249.911 109.199 240.753C101.82 244.6 92.4121 264.598 95.1428 271.954C95.8682 273.909 99.3316 275.998 101.568 276.031C108.943 276.142 116.336 274.974 123.713 275.058C126.871 275.094 131.427 276.143 132.752 278.314C134.07 280.474 133.307 286.081 131.397 287.614C126.013 291.933 119.807 295.461 113.48 298.313C107.004 301.231 101.886 303.796 104.659 312.515C105.64 315.602 103.428 319.656 104.267 322.85C105.067 325.899 108.031 330.824 109.888 330.755C121.595 330.318 120.732 338.73 120.291 345.498C119.413 358.939 126.909 369.584 139.651 370.774C151.408 371.871 160.092 374.544 163.58 388.855C165.756 397.786 175.171 404.955 182.27 414.118C196.305 398.555 178.437 382.293 188.882 368.8C191.405 379.611 211.064 384.234 198.106 399.3C204.266 401.395 209.855 402.721 214.837 405.244C217.151 406.416 219.673 409.982 219.56 412.342C219.449 414.667 216.449 417.28 214.132 418.966C211.33 421.006 207.308 421.569 204.877 423.886C197.28 431.129 199.348 438.732 209.504 441.198C214.072 442.307 219.015 441.862 223.597 442.938C228.904 444.185 234.001 446.329 240.802 448.628C241.027 448.38 242.898 446.475 244.595 444.426C251.39 436.218 256.158 435.826 260.643 445.099C266.282 456.759 275.438 450.527 283.683 452.347C285.719 443.947 278.483 433.084 291.939 429.053C293.738 439.405 294.659 449.873 295.747 462.252C289.946 463.699 282.432 465.573 275.226 467.371C266.696 455.898 261.333 455.067 250.344 462.9C242.899 468.207 227.689 467.522 220.169 461.776C216.044 458.624 211.996 454.852 207.267 453.104C190.526 446.916 173.507 441.48 157.076 435.922C141.069 457.361 140.662 457.488 133.683 447.228C122.959 445.612 114.32 444.647 105.885 442.766C104.12 442.373 101.496 438.082 102.017 436.482C104.813 427.902 103.579 419.956 102.075 411.225C100.999 404.975 105.647 397.74 108.045 389.958C96.4983 384.139 86.3238 376.13 85.5764 361.131C85.2462 354.506 83.9714 347.53 85.6002 341.367C86.4641 338.098 92.6228 336.226 97.183 333.198C94.6247 326.813 89.7027 318.643 88.1678 309.881C84.4425 288.615 82.2843 267.073 79.5303 245.638C79.3776 244.45 79.0291 242.703 79.6443 242.087C90.484 231.231 80.3427 219.085 81.8054 207.681C82.0982 205.399 82.1054 201.826 80.7532 200.787C70.4368 192.864 76.6471 184.067 79.4694 175.972C86.338 156.269 94.9989 137.183 87.7995 115.325C85.0822 107.075 96.2271 93.3825 106.32 89.9612C109.229 88.9752 113.731 88.2137 114.522 86.1868C119.441 73.5907 125.564 76.8611 133.711 83.1009C141.427 89.011 149.862 96.1924 159.407 84.4845C161.107 82.3987 166.131 82.7343 169.658 82.4767C178.643 81.8204 187.647 81.4044 196.649 81.0401C198.102 80.9813 200.605 81.3036 200.898 82.0902C203.745 89.7518 206.395 97.4989 208.738 105.33C209.917 109.272 209.129 115.95 211.35 117.027C217.891 120.2 225.456 122.058 232.703 122.345C234.235 122.405 236.117 113.594 238.849 110.17C243.012 104.963 248.396 100.306 251.054 94.4204C255.146 85.36 261.93 85.5786 269.786 85.5867C269.263 104.821 265.817 123.544 271.414 141.585C272.89 141.548 274.367 141.512 275.843 141.475C275.843 127.731 275.843 113.988 275.843 97.279C288.931 104.74 289.673 115.117 291.742 126.308C296.79 120.27 301.231 113.955 305.174 125.491C306.469 129.28 310.432 132.159 313.175 135.455C317.701 130.024 329.324 133.186 329.251 122.135C329.232 119.338 329.573 116.539 329.686 114.751C338.613 111.088 346.618 106.895 355.129 104.499C373.063 99.4499 390.192 100.032 401.01 113.538C411.049 111.796 418.658 110.476 426.112 109.183C428.426 113.611 430.272 117.143 432.245 120.918C434.491 113.53 434.766 103.428 438.596 101.828C448.349 97.7559 459.69 97.4831 470.395 95.6897C470.652 96.7613 470.909 97.8329 471.166 98.9045C468.131 102.985 465.096 107.066 462.061 111.147C463.157 112.06 464.252 112.972 465.348 113.884C467.76 111.871 470.172 109.857 475.33 105.551C477.643 117.881 479.609 128.358 481.708 139.547C485.869 139.547 490.735 139.547 495.803 139.547C494.11 131.901 492.634 125.229 491.132 118.444C500.703 115.354 508.598 112.806 516.787 110.163C534.247 122.233 547.008 119.426 558.114 100.274C566.005 86.6646 578.431 91.1223 589.245 93.0259C598.847 94.7161 610.28 90.8772 617.856 100.531C628.076 91.7118 639.663 103.36 651.329 98.4664C651.638 98.3368 655.362 107.222 658.02 111.586C661.686 117.605 665.073 124.642 675.268 121.232C677.663 123.844 679.212 126.555 680.284 130.474C680.992 133.02 682.176 134.356 683.36 135.692C684.518 136.36 685.677 137.029 687.453 137.954C688.867 140.861 689.662 143.51 689.988 147.398C690.7 149.975 691.881 151.315 693.062 152.655C693.826 153.8 694.59 154.945 694.852 157.213C695.52 159.685 696.689 161.033 697.859 162.381C699.462 165.847 701.065 169.313 702.69 173.641C701.473 175.499 699.081 176.618 699.172 177.476C700.198 187.189 699.921 197.509 703.336 206.381C707.568 217.378 707.067 225.509 701.147 236.123C697.452 242.746 697.896 255.826 702.233 261.925C711.846 275.446 715.014 288.745 706.649 303.038C697.37 318.895 696.33 335.045 702.915 352.571C705.537 359.55 703.645 368.25 703.654 376.168C703.657 378.948 701.916 382.672 703.158 384.357C711.012 395.021 702.865 403.963 701.378 414.225C697.211 413.491 693.796 412.89 690.337 412.281C687.693 440.844 668.019 461.688 639.034 468.078C633.821 469.227 629.453 474.023 624.238 475.371C607.4 479.723 590.465 483.914 573.344 486.883C560.435 489.121 544.656 480.908 539.906 470.262C534.198 480.618 526.215 479.98 516.156 478.369C499.815 475.751 483.02 475.483 466.405 475.289C459.864 475.213 453.29 478 444.026 480.095C432.73 468.906 417.461 471.676 400.302 476.62C389.083 479.853 376.592 477.186 364.404 481.652C352.741 485.926 349.117 480.705 350.669 467.608C350.892 465.731 350.508 463.782 350.348 460.816C347.376 461.537 344.926 461.522 343.223 462.641C331.453 470.376 315.182 465.171 309.962 452.092C305.931 441.992 301.415 432.085 296.189 421.877Z" fill="#E6C47F"/>
<path d="M683.305 134.976C682.176 134.356 680.992 133.02 680.38 131.274C681.718 131.996 682.484 133.128 683.305 134.976Z" fill="#E1BA71"/>
<path d="M697.82 161.66C696.689 161.033 695.52 159.685 694.923 157.931C696.257 158.663 697.019 159.801 697.82 161.66Z" fill="#E1BA71"/>
<path d="M693.012 151.938C691.881 151.315 690.7 149.975 690.096 148.229C691.437 148.955 692.2 150.088 693.012 151.938Z" fill="#E1BA71"/>
</svg>
