<svg width="473" height="1120" viewBox="0 0 473 1120" fill="none" xmlns="http://www.w3.org/2000/svg">
<path d="M471.286 41.7961C469.439 47.4079 467.591 53.0199 464.391 59.4362C459.25 60.4693 455.463 60.6976 450.454 60.7162C423.06 60.4594 396.886 60.4124 369.572 60.3594C276.92 61.1389 185.411 61.9395 93.9004 62.6967C76.9573 62.8368 60.0111 62.7004 43.0696 62.9313C39.71 62.9773 36.3655 64.1195 33.014 64.7563C33.169 65.7728 33.324 66.7894 33.4791 67.8059C145.826 66.0751 258.174 64.3441 371.666 62.6884C398.804 62.7787 424.798 62.7937 450.914 63.7648C448.185 70.2485 445.334 75.7761 442.483 81.3038C442.483 81.3038 441.692 81.7214 440.622 82.0462C439.364 83.1985 439.176 84.0263 438.987 84.8539C438.987 84.8539 438.613 84.9289 437.542 84.623C422.901 82.871 409.327 80.1547 395.761 80.1982C336.053 80.3898 276.346 81.2462 216.642 82.1195C171.071 82.7864 125.494 83.456 79.9463 84.9358C64.5609 85.4355 48.4719 85.4929 35.0024 96.9029C33.2118 97.9297 32.0212 98.6307 30.7984 98.3948C33.5708 91.7545 36.3754 86.0513 39.8493 80.0203C38.2847 77.3667 36.3982 73.5757 33.7615 72.9514C15.7563 68.6894 8.3684 49.5267 19.1338 34.703C19.2494 36.8813 18.9257 38.2219 19.3698 39.2221C21.2923 43.5519 23.4392 47.7822 25.5045 52.0486C27.2029 50.7193 30.5635 48.7491 30.3369 48.1619C28.4985 43.3994 26.1599 38.7932 23.5283 34.4062C23.0349 33.5833 20.5512 33.9529 18.9686 32.7283C18.8919 27.5067 18.8326 23.3288 18.9662 18.3667C20.7444 14.9008 22.3295 12.2188 24.4883 9.69751C26.0209 10.5651 26.9801 11.272 28.2287 12.7451C29.5057 15.4251 30.4932 17.3391 31.6329 20.0971C36.5807 26.2127 41.3764 31.4841 48.031 38.7987C60.9109 39.4883 76.9274 40.8877 92.9594 41.0911C126.702 41.5197 160.455 41.0908 194.199 41.4633C215.512 41.6986 236.813 43.1542 258.125 43.2885C272.575 43.3795 287.03 41.7426 301.49 41.5913C314.183 41.4583 326.888 42.7055 339.585 42.6677C383.486 42.5365 427.386 42.1102 471.286 41.7961Z" fill="#714016"/>
<path d="M471.809 40.7847C427.386 42.1102 383.486 42.5365 339.585 42.6677C326.888 42.7056 314.183 41.4583 301.49 41.5913C287.03 41.7426 272.575 43.3795 258.125 43.2885C236.813 43.1542 215.512 41.6987 194.199 41.4634C160.455 41.0909 126.702 41.5197 92.9595 41.0912C76.9275 40.8878 60.9111 39.4883 48.0311 38.7987C41.3765 31.4842 36.5808 26.2127 32.4218 20.1794C35.0734 20.0301 37.0882 20.6428 39.362 21.2286C39.621 21.2016 40.1396 21.2485 40.9692 21.6072C52.6608 21.0503 63.5096 19.9072 74.3882 19.2773C87.3849 18.5253 100.522 19.0921 113.38 17.4113C122.537 16.2142 131.332 12.2483 140.947 9.79386C143.582 9.88395 145.558 9.69831 148.636 9.50852C157.089 9.52347 164.44 9.54225 171.898 10.4273C175.633 17.3962 179.406 20.9991 184.637 11.6574C187.305 9.11328 189.247 6.89521 192.043 4.67227C195.495 4.02038 198.093 3.37352 200.692 2.72682C225.842 3.21776 250.993 3.70871 277.775 4.99843C282.352 5.37652 285.295 4.95583 288.239 4.5353C292.386 4.48737 296.533 4.43944 301.889 5.43524C304.682 7.43202 306.578 9.50809 307.798 9.16698C322.423 5.07905 335.55 9.00087 349.7 13.3336C361.205 16.8563 374.704 14.4094 387.268 13.7129C393.314 13.3778 399.181 10.1447 405.242 9.67021C420.29 8.49203 435.402 8.14545 450.489 7.46502C452.355 7.38396 454.221 7.30304 457.013 8.2629C462.546 14.9612 467.155 20.6184 471.764 26.2756C471.953 30.7749 472.142 35.2741 471.809 40.7847Z" fill="#E1BD79"/>
<path d="M421.46 675.481C421.5 675.971 421.54 676.462 421.011 677.952C419.79 679.416 419.334 680.028 418.19 680.795C415.537 680.842 413.768 680.881 411.949 679.819C414.749 661.538 417.075 644.25 420.592 627.206C424.621 607.688 418.816 589.679 412.383 572.142C407.709 559.399 401.321 547.841 410.53 534.67C411.955 532.632 411.806 529.251 411.79 526.495C411.723 515.365 414.063 505.69 425.867 501.993C420.295 479.678 413.121 458.427 410.147 436.605C407.857 419.804 410.88 402.286 411.459 385.085C411.553 382.308 412.266 378.795 410.919 376.85C401.747 363.616 406.655 350.012 409.016 336.365C410.634 327.014 413.06 317.564 412.899 308.196C412.602 290.887 410.49 273.616 409.476 256.309C408.588 241.151 407.245 226.398 397.35 213.616C395.463 211.179 396.261 205.237 397.829 201.838C401.842 193.143 405.45 185.254 399.422 175.67C397.109 171.992 397.09 166.291 397.451 161.623C398.612 146.615 400.294 132.304 395.766 116.812C392.306 104.979 386.37 101.447 376.627 99.1873C369.742 97.5903 362.883 95.883 356.017 93.4385C355.963 91.6044 355.906 90.557 356.79 89.4939C359.614 89.5517 361.496 89.6253 364.053 90.3498C369.273 91.2098 373.818 91.4188 379.33 91.6308C383.515 91.6725 386.734 91.7115 390.58 92.4506C396.344 93.7311 401.479 94.3117 406.615 94.8923C406.146 95.8029 405.677 96.7135 405.208 97.6241C409.532 99.7976 413.856 101.971 420.313 105.216C417.714 146.403 415.038 188.834 412.348 231.467C416.56 234.292 422.232 238.097 427.905 241.902C423.393 247.425 418.881 252.948 413.267 259.82C420.007 261.035 425.207 261.973 431.49 263.106C429.379 271.716 427.447 279.594 425.721 286.633C427.617 292.151 429.439 297.456 431.255 303.353C431.248 303.947 431.244 305.135 430.492 305.522C426.227 311.199 422.715 316.487 419.203 321.776C423.207 324.348 427.211 326.919 431.199 330.402C423.048 343.337 430.951 354.604 433.371 365.894C429.166 367.933 425.5 369.71 420.642 372.065C432.677 384.308 438.342 397.26 436.231 412.967C435.987 414.779 437.102 416.773 437.587 418.683C437.721 421.472 437.855 424.261 437.369 428.729C432.678 436.418 428.606 442.427 424.033 449.149C416.727 459.879 418.671 465.117 433.703 478.348C434.417 487.003 435.558 494.547 435.726 502.113C436.001 514.499 439.754 527.955 426.161 536.42C435.599 549.173 442.657 561.499 432.136 576.257C431.513 577.13 431.578 578.553 431.485 579.732C430.619 590.612 429.597 601.485 429.036 612.381C428.79 617.147 427.996 622.787 430.077 626.596C435.553 636.615 430.749 645.202 428.165 654.197C426.112 661.344 423.708 668.39 421.46 675.481Z" fill="#CFA14B"/>
<path d="M463.158 1068.83C461.243 1075.04 459.327 1081.26 455.7 1087.88C440.776 1088.94 427.563 1089.6 413.693 1089.61C407.762 1089.44 402.487 1089.9 396.164 1090.37C390.225 1090.41 385.334 1090.47 379.965 1089.66C375.394 1087.73 371.284 1085.67 367.211 1085.74C343.894 1086.14 320.585 1087.04 297.274 1087.79C247.411 1089.41 197.55 1091.12 147.683 1092.62C113.482 1093.65 79.2609 1094.12 45.0784 1095.54C40.3268 1095.74 35.7445 1099.99 30.1665 1102.45C25.0197 1097.96 19.154 1094.08 16.8621 1088.68C9.42093 1071.15 12.6214 1052.63 14.0528 1034.39C15.6202 1030.95 17.1875 1027.51 20.0672 1023.43C23.754 1022.79 26.1283 1022.79 28.8057 1023.52C30.6799 1026.9 32.251 1029.55 33.7966 1033.18C30.0349 1036.71 26.2988 1039.28 21.9101 1042.29C22.0131 1042.83 21.9809 1044.53 22.6644 1045.87C25.955 1052.31 26.012 1060.69 35.6572 1063.12C40.4017 1064.32 37.7598 1074.93 47.4373 1073.66C57.5508 1072.33 67.979 1073.5 78.2666 1073.36C128.462 1072.65 178.657 1071.95 228.849 1071.08C271.142 1070.35 313.432 1069.44 355.72 1068.51C387.381 1067.82 419.037 1066.86 450.7 1066.31C454.837 1066.24 459.005 1067.94 463.158 1068.83Z" fill="#763F14"/>
<path d="M414.349 1090.26C427.562 1089.6 440.776 1088.94 455.142 1088.53C453.353 1100.01 446.356 1105.07 434.448 1105.45C372.312 1107.4 310.193 1109.9 248.064 1112.07C175.441 1114.61 102.816 1117.09 30.1864 1119.41C11.5732 1120.01 3.90986 1115.97 1.19588 1097.88C-1.30616 1081.21 0.659657 1063.71 2.18382 1046.71C2.56997 1042.41 8.7692 1038.62 13.1749 1034.49C12.6212 1052.63 9.42072 1071.15 16.8619 1088.68C19.1537 1094.08 25.0195 1097.96 31.3064 1102.52C61.1288 1101.71 88.8943 1100.94 116.658 1100.12C142.409 1099.35 168.156 1098.43 193.908 1097.73C227.326 1096.82 260.749 1096.1 294.167 1095.2C320.729 1094.48 347.288 1093.66 373.842 1092.72C376.066 1092.64 378.244 1091.28 380.443 1090.52C385.334 1090.47 390.225 1090.41 396.808 1091.04C403.784 1091.23 409.067 1090.75 414.349 1090.26Z" fill="#83735E"/>
<path d="M463.93 1068.43C459.004 1067.94 454.837 1066.24 450.7 1066.31C419.037 1066.86 387.381 1067.82 355.72 1068.51C313.431 1069.44 271.141 1070.35 228.849 1071.08C178.656 1071.95 128.461 1072.65 78.2663 1073.36C67.9787 1073.5 57.5505 1072.33 47.437 1073.66C37.7594 1074.93 40.4014 1064.32 35.6569 1063.12C26.0116 1060.69 25.9546 1052.31 22.664 1045.87C21.9805 1044.53 22.0128 1042.83 21.9098 1042.29C26.2985 1039.28 30.0346 1036.71 34.5714 1033.19C36.4087 1032.24 37.4455 1032.26 38.4045 1033.05C38.2166 1036.55 38.1065 1039.28 38.0889 1043.08C38.49 1048.8 38.7984 1053.44 39.0988 1057.96C54.0775 1059.17 67.6253 1060.79 81.2026 1061.1C86.5015 1061.22 91.8672 1058.39 97.965 1056.93C100.252 1056.93 101.777 1056.92 103.687 1057.81C114.146 1062.18 124.191 1065.19 134.54 1056.87C140.958 1056.9 146.362 1056.92 152.156 1057.84C156.15 1059.61 159.796 1061.37 163.352 1061.21C172.682 1060.77 181.973 1059.49 192.055 1058.59C193.864 1058.59 194.898 1058.54 196.885 1058.65C202.983 1058.2 208.127 1057.6 214.135 1056.95C216.727 1056.89 218.456 1056.88 220.823 1057.45C227.541 1058.33 233.62 1058.62 240.662 1058.91C244.192 1058.98 246.759 1059.03 250.014 1059.78C253.884 1060.76 257.066 1061.35 260.244 1061.33C286.313 1061.15 312.402 1061.37 338.44 1060.33C347.788 1059.96 357.013 1056.48 367.121 1054.44C369.603 1054.51 371.258 1054.56 373.699 1055.24C391.132 1056.08 407.781 1056.47 424.423 1056.28C426.917 1056.26 429.382 1053.55 432.801 1052.09C436.861 1052.17 439.978 1052.24 443.89 1052.87C452.156 1054.46 459.628 1055.5 467.099 1056.54C466.3 1060.37 465.501 1064.21 463.93 1068.43Z" fill="#C59146"/>
<path d="M28.4367 653.102C28.4367 653.102 28.1158 652.608 29.3163 652.239C32.3577 648.156 35.9135 644.376 35.7693 640.742C34.5379 609.686 32.6356 578.656 30.9636 547.578C30.9935 547.538 31.0765 547.594 31.8589 547.242C39.307 540.753 43.8771 534.074 38.3532 523.807C37.9286 520.47 37.2321 518.122 37.151 515.752C36.6543 501.251 36.2974 486.744 36.6948 472.708C40.839 481.17 44.1823 489.163 48.3205 499.056C43.5067 506.312 48.1216 515.422 49.6439 525.629C53.5216 551.631 53.6488 578.194 55.2056 604.537C55.3843 607.556 53.8642 611.467 55.2651 613.486C61.0135 621.771 59.0933 630.016 57.1586 638.749C56.1721 643.201 56.1696 648.233 57.1439 652.693C60.6663 668.813 60.4539 669.302 41.998 667.564C43.1091 676.868 44.1527 685.607 45.4087 696.125C36.4367 704.241 40.1445 711.06 45.1084 723.191C42.7867 726.954 40.5709 730.546 37.4504 734.14C34.7315 734.154 32.9177 734.166 31.1231 734.16C31.1427 734.142 31.1107 734.175 31.1228 733.064C31.1049 721.355 31.0746 710.757 31.0385 699.253C31.0934 696.533 31.1544 694.721 31.85 692.353C32.1037 688.173 31.7229 684.55 31.275 679.842C30.5231 671.342 29.838 663.928 29.0306 655.649C28.751 654.223 28.5939 653.663 28.4367 653.102Z" fill="#C48E3A"/>
<path d="M431.262 302.759C429.439 297.455 427.617 292.151 425.721 286.632C427.447 279.593 429.379 271.715 431.49 263.105C425.207 261.973 420.007 261.035 413.267 259.82C418.881 252.947 423.393 247.424 427.905 241.901C422.232 238.096 416.56 234.291 412.348 231.466C415.038 188.833 417.714 146.403 420.313 105.216C413.856 101.971 409.532 99.797 405.208 97.6235C405.677 96.7129 406.146 95.8023 406.615 94.8917C401.48 94.3111 396.344 93.7305 391.325 91.7747C406.821 90.8794 422.201 91.3594 437.581 91.8395C438.819 101.757 440.056 111.674 440.051 122.51C425.113 129.121 424.615 131.315 434.013 142.612C435.176 144.01 435.715 146.154 435.978 148.032C436.976 155.145 437.741 162.291 438.594 170.163C438.642 171.391 438.688 171.882 438.734 172.372C438.503 173.399 438.273 174.426 436.775 176.483C435.004 189.104 434.38 200.693 434.196 212.289C434.179 213.346 436.985 214.447 438.48 215.528C438.48 215.528 438.537 215.509 438.522 216.665C438.649 229.922 438.873 242.023 438.91 254.125C438.961 270.48 438.866 286.835 438.834 303.19C438.834 303.19 438.689 302.906 437.861 302.886C435.109 302.83 433.186 302.794 431.262 302.759Z" fill="#C38F3D"/>
<path d="M37.9963 1042.01C38.1065 1039.28 38.2166 1036.55 39.3661 1033.06C42.9761 1032.33 45.5466 1032.36 48.8406 1033.07C59.627 1034 69.6897 1034.25 80.5239 1034.5C82.3234 1034.51 83.3519 1034.5 85.4436 1034.56C108.22 1032.4 129.927 1030.13 151.65 1028.01C160.415 1027.15 171.004 1023.34 177.501 1026.87C184.28 1030.55 188.475 1030.05 194.628 1028.4C201.147 1026.65 207.987 1025.23 214.694 1025.2C229.927 1025.13 245.1 1030.64 260.461 1025.18C263.221 1024.2 266.788 1025.64 269.988 1025.71C277.094 1025.88 284.206 1026.02 291.313 1025.91C300.135 1025.78 308.971 1025.64 317.77 1025.04C325.738 1024.49 333.663 1023.33 342.739 1022.47C377.152 1022.49 410.433 1022.49 443.714 1022.49C449.293 1024.92 454.873 1027.35 460.405 1031.54C457.716 1034.38 455.001 1036.53 452.449 1036.35C437.134 1035.27 421.871 1032.66 406.564 1032.45C379.224 1032.07 351.867 1033.07 324.516 1033.4C303.434 1033.64 282.345 1033.53 261.267 1033.96C246.414 1034.26 231.655 1037.12 216.774 1032.54C211.287 1030.85 204.744 1032.05 198.753 1032.65C185.665 1033.94 172.622 1035.69 158.607 1037.23C155.105 1037.18 152.557 1037.17 149.173 1036.78C141.565 1038.19 134.794 1039.99 127.128 1041.8C124.446 1041.8 122.659 1041.8 120.158 1041.12C110.875 1040.95 101.336 1034.91 93.2955 1044.19C91.5089 1044.2 90.4881 1044.2 89.3033 1043.41C86.7409 1043.15 84.3422 1043.68 80.9204 1044.22C75.8025 1044.24 71.7078 1044.24 67.3742 1043.33C63.2094 1041.48 59.2735 1039.75 55.3602 1039.8C49.5639 1039.87 43.7835 1041.21 37.9963 1042.01Z" fill="#DCB160"/>
<path d="M443.474 1021.59C410.433 1022.49 377.151 1022.49 342.738 1021.55C344.846 1012.65 351.526 1011.29 358.046 1014.35C372.507 1021.13 383.922 1013.2 396.045 1008.05C411.042 1001.69 414.258 986.12 419.459 973.764C424.37 962.098 430.895 948.155 423.439 937.226C427.3 923.742 430.501 912.56 434.376 901.987C436.301 908.902 437.553 915.209 438.805 921.515C437.757 933.586 436.011 945.651 435.926 957.729C435.876 964.79 438.837 971.822 439.789 978.955C440.866 987.014 441.209 995.172 441.39 1005.09C441.153 1010.38 441.398 1013.87 441.643 1017.36C442.173 1018.47 442.704 1019.59 443.474 1021.59Z" fill="#C5903B"/>
<path d="M437.902 90.9622C422.202 91.3606 406.821 90.8806 390.697 91.0758C386.734 91.7122 383.516 91.6731 379.015 90.7946C372.947 89.8698 368.163 89.7846 363.378 89.6994C361.496 89.6259 359.614 89.5524 355.758 89.4537C342.447 88.6286 331.105 87.0576 319.777 87.1555C250.824 87.7506 181.871 88.5203 112.927 89.7698C101.013 89.9858 89.1452 92.7747 76.6477 93.6996C62.5602 94.2086 49.0813 95.3932 35.6022 96.5777C48.4719 85.4934 64.5609 85.436 79.9463 84.9364C125.494 83.4566 171.071 82.7869 216.642 82.1201C276.346 81.2468 336.053 80.3903 395.761 80.1988C409.327 80.1553 422.901 82.8716 437.462 84.4506C438.375 86.4171 438.299 88.2502 437.902 90.9622Z" fill="#896E51"/>
<path d="M23.9144 9.53717C22.3293 12.2191 20.7441 14.9011 18.2458 18.8133C15.6846 22.7759 13.6416 25.348 12.4551 28.2678C6.79162 42.2033 8.1404 56.7867 14.8175 69.0811C17.7078 74.4028 28.9844 75.1408 36.4055 78.0772C37.4641 78.4961 38.2615 79.5749 39.1798 80.3483C36.3752 86.0516 33.5706 91.7548 30.2153 98.9099C29.3541 102.421 29.0436 104.481 28.7071 107.545C29.5129 113.531 30.3444 118.512 31.1561 124.44C31.2268 127.911 31.3172 130.434 31.3156 134.105C31.1608 160.595 31.7324 185.962 30.7553 211.27C30.3001 223.056 34.9824 228.369 45.9754 230.596C46.7082 231.788 47.3439 232.225 48.1232 232.454C48.1113 232.472 48.1525 232.465 48.397 233.002C49.1182 234.208 49.7533 234.651 50.5445 234.881C50.5422 234.897 50.5724 234.882 50.8767 235.653C51.709 239.061 52.2373 241.698 52.085 244.361C50.5047 244.421 49.605 244.455 47.7696 244.536C43.2153 245.4 39.5965 246.216 35.9837 246.47C35.9896 245.907 36.0066 244.782 36.0066 244.782C43.7521 238.522 36.784 235.356 32.6918 233.994C19.2907 229.534 20.7866 219.415 20.897 208.713C21.1816 181.117 20.4381 153.512 20.5673 125.913C20.6057 117.686 21.2549 109.232 23.2829 101.306C25.5836 92.3144 26.0669 85.9073 15.1415 82.6351C11.6231 81.581 8.00141 77.0848 6.61993 73.3526C0.910304 57.9285 -0.770746 41.5318 5.11205 26.2525C8.07883 18.5472 16.6385 12.9929 23.3783 6.72121C24.0299 7.83017 23.9721 8.68367 23.9144 9.53717Z" fill="#98856A"/>
<path d="M159.561 1037.26C172.622 1035.69 185.665 1033.94 198.753 1032.65C204.744 1032.05 211.287 1030.85 216.775 1032.54C231.655 1037.12 246.414 1034.26 261.267 1033.96C282.345 1033.53 303.434 1033.64 324.516 1033.4C351.867 1033.07 379.224 1032.07 406.564 1032.45C421.871 1032.66 437.134 1035.27 452.45 1036.35C455.001 1036.53 457.717 1034.38 460.635 1032.36C463.132 1039.17 465.352 1046.92 467.335 1055.6C459.628 1055.5 452.156 1054.46 444.368 1052.11C446.08 1049.33 448.109 1047.85 452.875 1044.39C445.724 1043.23 441.667 1042.05 437.599 1042.01C418.151 1041.81 398.694 1042.22 379.251 1041.83C356.14 1041.37 333.042 1039.7 309.937 1039.69C286.43 1039.68 262.923 1041.07 239.415 1041.83C219.126 1042.48 198.831 1043.68 178.552 1043.44C172.199 1043.37 165.89 1039.43 159.561 1037.26Z" fill="#E5C078"/>
<path d="M36.0433 1003.15C14.0593 987.023 24.5312 964.996 25.4793 944.736C25.6471 941.147 26.9604 937.592 26.9724 934.019C27.0224 919.138 26.1287 904.072 42.5583 892.388C25.6298 887.648 25.5326 876.96 27.0909 865.561C27.1451 865.165 27.2348 864.698 27.0869 864.361C17.3897 842.269 19.7627 818.99 20.9296 795.979C21.2391 789.872 24.8294 783.932 27.77 778.691C27.4731 790.115 26.773 800.837 25.0594 811.395C22.47 827.349 23.1705 842.421 33.7115 856.671C36.4138 867.969 33.5571 881.331 48.9188 884.84C49.9077 885.066 50.0176 889.134 49.8088 891.808C44.5525 899.25 32.5184 901.822 36.2871 914.71C35.4601 929.444 34.5445 943.236 32.9084 957.731C27.8833 974.7 31.0557 988.427 45.2992 998.824C41.9295 1000.65 38.9864 1001.9 36.0433 1003.15Z" fill="#A18D6E"/>
<path d="M191.188 4.6774C189.247 6.89532 187.305 9.11339 183.743 11.6291C178.678 11.1381 175.234 10.3496 171.79 9.56114C164.439 9.54235 157.088 9.52357 148.195 8.90171C144.531 8.70512 142.41 9.11161 140.289 9.51809C131.332 12.2484 122.537 16.2143 113.379 17.4114C100.522 19.0922 87.3847 18.5254 74.388 19.2774C63.5095 19.9073 52.6606 21.0504 41.0806 20.7336C39.7289 16.6785 39.0948 13.8559 38.5656 10.1451C38.3239 6.31058 37.9772 3.36445 37.6306 0.418167C41.2081 0.0874159 44.7857 -0.243479 50.1398 0.302346C78.8754 0.99728 105.835 0.815632 132.794 0.633839C145.082 1.07168 157.371 1.50968 171.394 2.7852C179.149 3.97418 185.169 4.32579 191.188 4.6774Z" fill="#DAB061"/>
<path d="M422.175 675.095C423.708 668.39 426.112 661.344 428.165 654.197C430.749 645.202 435.553 636.615 430.078 626.596C427.996 622.787 428.79 617.147 429.036 612.381C429.598 601.485 430.619 590.612 431.485 579.732C431.579 578.553 431.514 577.13 432.136 576.257C442.657 561.499 435.599 549.173 426.161 536.42C439.754 527.955 436.001 514.499 435.726 502.113C435.558 494.547 434.417 487.003 434.243 478.331C435.49 477.15 436.207 477.134 436.926 477.165C439.417 497.402 441.914 517.638 444.394 537.876C445.027 543.046 446.257 548.243 446.096 553.392C445.417 574.982 444.045 596.552 443.497 618.143C443.274 626.921 444.998 635.738 444.942 644.531C444.88 654.243 444.271 663.966 432.345 667.839C428.821 668.984 426.022 672.357 422.175 675.095Z" fill="#C49342"/>
<path d="M439.425 920.73C437.553 915.208 436.301 908.902 434.369 900.884C434.502 886.846 436.066 874.511 435.934 862.194C435.776 847.552 438.724 831.045 425.52 820.45C417.5 814.015 419.357 809.155 422.562 802.066C425.037 796.592 426.2 790.526 427.947 784.724C428.189 784.87 428.431 785.016 428.673 785.163C431.151 779.466 433.628 773.768 436.105 767.039C436.112 764.021 435.614 761.869 436.202 760.073C441.894 742.683 446.374 725.251 441.295 706.787C440.949 705.528 443.129 703.576 444.327 702.042C444.519 702.138 444.838 702.424 444.838 702.424C447.905 719.531 447.934 735.819 442.741 753.29C437.26 771.733 437.586 791.905 435.472 811.333C435.26 813.29 434.959 816.453 435.989 817.148C450.027 826.627 442.67 839.474 441.124 850.954C438.026 873.959 437.496 896.902 439.425 920.73Z" fill="#C49342"/>
<path d="M444.136 701.947C443.13 703.576 440.949 705.529 441.295 706.787C446.375 725.251 441.895 742.683 436.203 760.074C435.615 761.87 436.112 764.021 435.31 766.601C432.758 744.147 413.9 724.127 422.495 702.589C417.834 696.189 414.888 692.144 411.939 687.2C411.957 684.508 411.979 682.714 412 680.92C413.769 680.881 415.537 680.842 419.123 680.722C421.556 680.557 422.174 680.472 422.791 680.387C422.791 680.387 423.512 680.224 423.808 681.372C426.455 685.936 428.319 689.871 431.276 692.64C435.107 696.229 439.809 698.888 444.136 701.947Z" fill="#C5913D"/>
<path d="M431.255 303.354C433.186 302.795 435.11 302.83 437.995 302.974C432.636 316.826 431.793 329.943 442.649 342.2C444.331 344.099 444.985 347.449 445.045 350.151C445.373 364.897 446.161 379.704 445.151 394.377C444.623 402.052 440.732 409.496 437.974 417.863C437.102 416.773 435.987 414.779 436.231 412.967C438.342 397.26 432.677 384.308 420.642 372.066C425.5 369.711 429.166 367.933 433.372 365.894C430.952 354.604 423.048 343.337 431.215 329.292C431.246 319.892 431.245 312.514 431.244 305.135C431.244 305.135 431.249 303.947 431.255 303.354Z" fill="#C49342"/>
<path d="M449.39 7.28895C435.402 8.1454 420.289 8.49198 405.242 9.67017C399.181 10.1447 393.314 13.3778 387.268 13.7128C374.703 14.4094 361.205 16.8563 349.7 13.3336C335.549 9.00082 322.422 5.07901 307.798 9.16694C306.578 9.50804 304.681 7.43198 302.917 5.57957C311.822 4.63732 320.91 4.59412 331.784 4.63347C334.437 4.7487 335.304 4.78124 336.171 4.81364C373.545 5.58002 410.918 6.34639 449.39 7.28895Z" fill="#DFBC79"/>
<path d="M35.2112 1003.38C38.9863 1001.9 41.9294 1000.65 46.0658 999.243C52.3524 1009.56 48.1675 1018.27 37.308 1020.15C34.3103 1020.67 31.4344 1021.89 28.5026 1022.79C26.1281 1022.79 23.7538 1022.79 20.4905 1022.73C18.8483 1011.92 25.2697 1006.73 35.2112 1003.38Z" fill="#B1844B"/>
<path d="M439.759 303.017C438.866 286.835 438.961 270.48 438.911 254.126C438.874 242.024 438.649 229.922 438.504 216.691C439.835 218.364 442.166 221.106 442.343 223.981C443.702 246.036 444.93 268.11 445.458 290.196C445.558 294.372 442.361 298.626 439.759 303.017Z" fill="#C49342"/>
<path d="M438.593 169.425C437.741 162.291 436.976 155.145 435.979 148.032C435.716 146.155 435.176 144.011 434.013 142.613C424.615 131.316 425.114 129.121 439.691 123.393C439.842 126.545 438.362 129.769 438.517 132.914C439.081 144.39 440.19 155.839 440.304 168.366C439.515 169.435 438.593 169.425 438.593 169.425Z" fill="#AD7B3F"/>
<path d="M437.258 476.354C436.207 477.133 435.49 477.15 434.233 477.23C418.67 465.116 416.727 459.878 424.785 449.115C427.563 448.255 429.087 448.14 430.61 448.026C426.247 452.413 424.819 456.125 430.337 461.469C433.93 464.949 435.251 470.771 437.258 476.354Z" fill="#AD7B3F"/>
<path d="M444.327 702.043C439.808 698.888 435.106 696.229 431.275 692.641C428.318 689.871 426.454 685.936 424.058 681.644C442.781 682.15 445.8 684.917 445.237 701.508C444.838 702.425 444.519 702.138 444.327 702.043Z" fill="#9D5A22"/>
<path d="M451.675 60.9257C455.463 60.6975 459.25 60.4693 463.986 60.1675C465.141 74.0766 455.123 78.3373 443.376 81.5533C445.334 75.7761 448.185 70.2484 451.173 63.312C451.309 61.9032 451.675 60.9257 451.675 60.9257Z" fill="#C5BEA2"/>
<path d="M35.9779 247.032C39.5966 246.216 43.2154 245.399 47.5886 245.435C44.9519 250.226 42.2692 255.433 38.0066 257.81C31.2868 261.558 27.7973 266.033 28.6128 273.678C22.4244 264.856 27.8371 257.335 31.4171 248.71C31.5171 247.822 32.3599 247.221 33.504 247.161C35.0915 247.079 35.5347 247.055 35.9779 247.032Z" fill="#925721"/>
<path d="M131.709 0.343056C105.835 0.815808 78.8754 0.997454 51.2179 0.434171C77.2212 -0.189906 103.923 -0.0689044 131.709 0.343056Z" fill="#DFBC79"/>
<path d="M438.392 214.595C436.985 214.447 434.18 213.346 434.197 212.289C434.38 200.693 435.004 189.104 436.312 177.13C437.512 189.051 437.908 201.356 438.392 214.595Z" fill="#C49342"/>
<path d="M472.017 25.3792C467.155 20.6176 462.546 14.9604 457.934 8.4349C468.426 8.36538 472.171 14.8811 472.017 25.3792Z" fill="#DFBC79"/>
<path d="M431.477 447.934C429.087 448.141 427.563 448.255 425.287 448.403C428.607 442.427 432.678 436.418 437.224 429.769C441.468 436.954 439.199 443.053 431.477 447.934Z" fill="#C49342"/>
<path d="M192.042 4.67245C185.169 4.32588 179.149 3.97427 172.459 2.92344C180.702 2.25736 189.614 2.29049 199.609 2.52524C198.093 3.37371 195.495 4.02057 192.042 4.67245Z" fill="#DFBC79"/>
<path d="M442.045 1016.54C441.398 1013.87 441.154 1010.38 441.121 1006C441.704 1008.63 442.076 1012.18 442.045 1016.54Z" fill="#DCB160"/>
<path d="M287.26 4.40866C285.295 4.95582 282.351 5.37651 278.9 5.12844C281.022 4.40053 283.651 4.34136 287.26 4.40866Z" fill="#DFBC79"/>
<path d="M335.91 4.36889C335.304 4.78144 334.437 4.74889 332.924 4.75644C333.401 4.50571 334.525 4.2149 335.91 4.36889Z" fill="#E1BD79"/>
<path d="M439.485 84.5745C439.176 84.0261 439.364 83.1984 440.272 82.324C440.869 83.0566 440.533 83.7292 439.485 84.5745Z" fill="#C5BEA2"/>
<path d="M438.594 170.163C438.592 169.425 439.514 169.435 439.974 169.45C440.221 170.222 440.008 170.977 439.265 172.053C438.688 171.882 438.642 171.392 438.594 170.163Z" fill="#C49342"/>
<path d="M422.547 679.84C422.173 680.472 421.556 680.557 420.007 680.714C419.334 680.028 419.79 679.416 420.96 678.689C421.477 678.427 422.303 679.294 422.547 679.84Z" fill="#C49342"/>
<path d="M370.521 62.6134C258.174 64.3442 145.826 66.0751 33.4791 67.8059C33.324 66.7894 33.169 65.7729 33.014 64.7564C36.3655 64.1196 39.71 62.9774 43.0696 62.9314C60.011 62.7005 76.9573 62.8369 93.9004 62.6968C185.411 61.9396 276.92 61.139 369.536 60.9226C370.643 61.492 370.521 62.6134 370.521 62.6134Z" fill="#A36C37"/>
<path d="M28.7333 106.54C29.0438 104.48 29.3543 102.421 30.2478 99.8468C32.0212 98.6309 33.2118 97.9299 35.0023 96.9031C49.0813 95.3928 62.5602 94.2083 76.619 94.4779C77.1469 96.971 77.0951 98.0095 76.2519 99.1021C73.6156 99.9618 71.7706 100.768 68.9694 101.57C63.0185 102.412 58.0235 103.258 51.9641 104.066C43.5109 104.864 36.122 105.702 28.7333 106.54Z" fill="#AE7537"/>
<path d="M371.665 62.6876C370.52 62.6125 370.642 61.4911 370.678 60.928C396.886 60.4116 423.059 60.4586 450.454 60.7153C451.675 60.925 451.309 61.9025 451.05 62.3553C424.797 62.7929 398.804 62.7779 371.665 62.6876Z" fill="#925721"/>
<path d="M171.898 10.4279C175.234 10.3501 178.678 11.1387 183.017 11.9557C179.406 20.9998 175.633 17.3969 171.898 10.4279Z" fill="#DFBC79"/>
<path d="M140.947 9.79417C142.41 9.11181 144.531 8.70533 147.093 8.90576C145.558 9.69861 143.582 9.88425 140.947 9.79417Z" fill="#DFBC79"/>
<path d="M411.949 679.819C411.979 682.714 411.957 684.508 411.247 687.771C408.193 700.978 421.739 714.895 407.287 722.624C411.594 731.375 418.198 738.858 418.516 746.599C419.328 766.31 417.407 786.14 416.357 805.911C416.236 808.197 413.822 810.489 414.012 812.642C414.527 818.472 414.003 825.83 417.294 829.668C423.343 836.721 425.717 842.624 421.487 851.342C420.028 854.348 419.973 859.924 421.848 862.287C426.54 868.196 425.186 873.007 422.205 878.749C418.894 885.129 415.491 891.649 413.553 898.509C410.477 909.395 401.78 921.11 417.805 931.327C403.974 939.981 396.441 949.103 403.515 966.109C406.921 974.298 371.185 1000.27 361.278 999.923C352.218 999.605 343.066 1001.42 333.978 1002.49C320.35 1004.11 306.651 1007.81 293.147 1007.17C270.289 1006.08 247.604 1002.98 224.984 1009.16C221.211 1010.19 215.894 1011.53 213.271 1009.77C202.587 1002.61 192.124 1006.23 181.094 1007.82C171.11 1009.27 160.716 1009.29 150.641 1008.39C131.736 1006.7 112.945 1002.38 94.0776 1002.2C84.7714 1002.11 78.1465 1002.2 72.3814 994.105C69.5724 990.162 64.6808 986.939 60.0519 985.228C52.4777 982.427 51.2433 977.258 51.2028 970.288C51.1522 961.562 51.4947 952.547 49.475 944.187C46.5138 931.93 42.1984 920.277 53.6976 909.973C54.9355 908.864 55.1954 906.335 55.3628 904.416C56.5128 891.257 57.5173 878.085 58.6266 864.188C64.4407 864.533 68.6915 862.119 65.5416 852.479C61.9257 841.413 69.3895 828.567 60.5809 817.975C59.8611 817.11 60.165 814.411 61.0014 813.385C72.999 798.667 66.1206 783.128 63.9411 767.426C62.1533 754.547 62.675 741.327 62.493 728.253C62.3429 717.472 61.0678 706.367 63.141 695.973C66.3363 679.952 63.168 662.376 74.3295 647.961C75.992 645.814 74.5639 640.104 72.9549 636.835C69.1829 629.17 66.9682 623.438 71.3813 613.734C76.0293 603.513 73.8482 590.19 74.6905 577.632C70.9073 578.677 68.5305 579.334 65.0957 580.282C65.3461 575.571 65.2853 571.973 65.7701 568.45C67.5234 555.709 74.1149 543.615 68.4979 529.82C67.298 526.874 74.0508 520.693 77.9339 516.336C84.6869 521.305 90.6461 525.938 96.6107 530.568C96.6161 530.565 96.6063 530.577 96.606 531.559C95.625 541.009 94.2053 549.456 93.777 557.952C93.2649 568.116 84.4217 575.858 86.7709 587.07C88.8231 596.864 87.8865 607.28 89.904 617.086C90.7093 621 95.8972 624.015 99.6796 627.458C100.269 627.477 101.448 627.522 101.449 628.459C100.999 632.951 100.547 636.506 100.098 640.047C102.8 641.965 105.554 643.921 109.271 646.56C104.301 650.504 100.264 653.708 96.2264 656.912C97.2976 657.411 98.3687 657.91 99.44 658.409C98.8632 664.668 100.562 674.19 97.2361 676.506C90.3033 681.334 90.5194 687.5 89.8076 693.578C89.2084 698.695 89.7936 704.295 91.3026 709.24C94.0029 718.088 87.3467 721.504 83.3464 727.165C79.4228 732.718 78.2972 740.245 75.9436 746.906C75.3877 756.537 76.8654 767.199 79.7518 777.464C82.0435 785.615 85.7141 793.446 89.383 801.128C96.7361 816.523 85.8584 827.481 79.6658 838.907C69.3597 857.923 69.0341 862.042 83.828 878.038C79.1601 882.982 72.313 887.192 70.289 893.063C66.9287 902.811 66.6909 913.63 65.0946 923.991C63.5127 934.26 66.2476 943.556 69.2253 953.427C71.623 961.373 63.95 973.463 80.6569 973.119C81.8915 973.093 82.8996 976.473 84.5072 977.488C89.489 980.631 94.4526 985.204 99.8845 985.974C117.318 988.447 134.963 989.422 152.519 991.055C159.694 991.722 166.889 993.518 174.007 993.211C201.501 992.027 228.967 990.202 256.443 988.614C275.688 987.501 294.93 986.343 314.179 985.327C316.401 985.21 318.811 985.476 320.885 986.24C339.186 992.983 367.165 984.63 379.221 968.712C381.642 965.516 384.031 962.279 386.663 959.26C395.656 948.943 396.37 937.757 389.138 925.756C387.761 923.47 387.214 920.229 387.445 917.528C387.863 912.661 389.158 907.868 390.238 902.263C402.556 896.471 407.093 885.251 401.883 871.59C398.793 863.487 395.415 855.77 403.988 847.908C406.199 845.881 405.11 837.647 402.806 833.975C399.919 829.374 394.217 826.537 391.863 824.649C397.161 806.134 401.898 790.126 406.242 774.013C407.307 770.061 407.208 765.77 407.431 761.624C407.677 757.055 409.001 751.955 407.463 748.021C405.39 742.715 401.032 738.3 396.462 731.811C397.133 727.542 399.326 719.283 399.561 710.97C400.156 689.973 399.785 668.95 400.077 647.941C400.104 645.987 402.16 644.091 403.163 642.112C404.497 639.479 406.469 636.897 406.862 634.109C408.437 622.958 409.536 611.739 410.754 600.538C411.926 589.773 410.711 579.594 401.499 572.41C390.328 563.698 391.416 552.989 394.336 540.87C397.006 529.791 397.672 518.23 399.348 505.947C413.663 498.126 405.85 483.31 406.655 471.228C407.626 456.661 397.886 447.385 383.429 440.481C396.495 435.762 403.713 428.069 399.221 417.512C394.394 406.169 393.532 390.323 376.715 388.395C377.46 381.175 378.166 374.327 378.872 367.479C393.37 350.499 396.561 329.422 395.796 306.885C385.014 300.704 379.549 285.296 381.018 271.624C382.019 262.301 382.917 249.346 377.702 243.812C369.535 235.146 371.066 229.017 375.493 221.335C371.892 217.38 368.799 213.983 367.94 213.039C370.065 203.812 371.517 197.511 373.117 190.28C374.811 183.34 377.793 177.277 377.578 171.329C377.23 161.648 372.915 151.889 373.679 142.438C374.811 128.436 376.869 118.139 359.823 109.602C347.957 103.66 337.662 98.3886 323.739 99.2016C321.869 99.1983 320.801 99.2143 318.595 99.1969C305.156 99.1507 292.842 99.4477 280.564 98.9142C277.372 98.7756 274.293 96.0436 272.301 94.442C300.964 94.3292 328.488 94.2772 356.012 94.2251C362.883 95.8832 369.742 97.5905 376.627 99.1874C386.371 101.447 392.307 104.979 395.766 116.812C400.295 132.304 398.612 146.615 397.451 161.623C397.09 166.292 397.11 171.992 399.423 175.67C405.451 185.254 401.842 193.144 397.83 201.838C396.261 205.237 395.463 211.179 397.35 213.616C407.246 226.398 408.588 241.152 409.476 256.309C410.49 273.616 412.603 290.887 412.9 308.196C413.061 317.564 410.634 327.014 409.016 336.365C406.655 350.012 401.748 363.616 410.919 376.85C412.267 378.795 411.553 382.308 411.46 385.085C410.881 402.286 407.857 419.805 410.147 436.605C413.121 458.427 420.296 479.678 425.867 501.994C414.064 505.69 411.723 515.365 411.79 526.495C411.807 529.251 411.955 532.632 410.531 534.67C401.321 547.842 407.709 559.399 412.384 572.142C418.816 589.679 424.621 607.688 420.593 627.207C417.075 644.25 414.75 661.539 411.949 679.819Z" fill="#DCB05E"/>
<path d="M356.017 93.4387C328.488 94.2772 300.964 94.3293 271.407 94.4034C267.585 94.4508 265.794 94.4761 262.862 94.4323C229.228 94.3635 196.734 94.2065 164.245 94.5636C160.184 94.6083 156.152 97.3709 151.04 98.8977C136.233 99.0163 122.493 99.1116 107.628 99.1894C96.6834 99.1307 86.8633 99.0894 77.0432 99.0483C77.0951 98.0094 77.1469 96.9709 77.2274 95.1535C89.1452 92.7742 101.013 89.9853 112.927 89.7694C181.871 88.5199 250.824 87.7501 319.777 87.155C331.105 87.0571 342.447 88.6282 354.816 89.4688C355.906 90.5572 355.964 91.6046 356.017 93.4387Z" fill="#AF9975"/>
<path d="M430.492 305.522C431.246 312.514 431.247 319.892 431.232 328.381C427.211 326.919 423.207 324.348 419.203 321.776C422.715 316.488 426.228 311.199 430.492 305.522Z" fill="#C38F3D"/>
<path d="M364.053 90.35C368.162 89.7842 372.947 89.8694 378.047 90.7914C373.818 91.419 369.273 91.21 364.053 90.35Z" fill="#C38F3D"/>
<path d="M379.965 1089.66C378.244 1091.28 376.066 1092.64 373.842 1092.72C347.288 1093.66 320.729 1094.48 294.167 1095.2C260.749 1096.1 227.326 1096.82 193.909 1097.73C168.156 1098.44 142.409 1099.35 116.658 1100.12C88.8944 1100.94 61.129 1101.71 32.224 1102.43C35.7445 1099.99 40.3267 1095.74 45.0783 1095.54C79.2609 1094.12 113.482 1093.65 147.683 1092.62C197.55 1091.12 247.411 1089.41 297.274 1087.79C320.585 1087.04 343.894 1086.14 367.211 1085.74C371.284 1085.67 375.394 1087.73 379.965 1089.66Z" fill="#A36C37"/>
<path d="M28.8054 1023.52C31.4343 1021.89 34.3102 1020.67 37.3079 1020.15C48.1674 1018.27 52.3523 1009.56 46.4921 998.668C31.0554 988.427 27.883 974.7 33.7103 958.224C37.5004 973.476 42.99 987.116 56.4718 996.449C57.4786 997.146 57.3347 999.426 57.8471 1000.93C59.3525 1005.34 87.9607 1022.28 92.5385 1022.07C99.9033 1021.73 107.295 1021.97 114.676 1021.97C114.724 1023.63 114.772 1025.29 114.82 1026.95C107.98 1027.52 101.031 1027.56 94.3423 1028.89C90.7897 1029.6 87.6863 1032.56 84.3803 1034.5C83.3519 1034.5 82.3235 1034.51 80.3039 1033.63C68.9742 1027.33 58.6206 1023.24 48.1171 1032.39C45.5466 1032.36 42.9762 1032.33 39.4441 1032.29C37.4455 1032.26 36.4088 1032.24 34.597 1032.21C32.2507 1029.55 30.6796 1026.9 28.8054 1023.52Z" fill="#C48E3A"/>
<path d="M413.693 1089.61C409.067 1090.75 403.784 1091.23 397.857 1091.05C402.487 1089.9 407.762 1089.44 413.693 1089.61Z" fill="#A36C37"/>
<path d="M158.607 1037.23C165.89 1039.43 172.199 1043.37 178.552 1043.44C198.831 1043.68 219.126 1042.48 239.415 1041.83C262.923 1041.07 286.43 1039.68 309.937 1039.69C333.042 1039.7 356.14 1041.37 379.251 1041.83C398.694 1042.22 418.151 1041.81 437.599 1042.01C441.667 1042.05 445.724 1043.23 452.875 1044.39C448.109 1047.85 446.08 1049.33 443.573 1051.56C439.978 1052.24 436.861 1052.17 431.609 1051.93C416.268 1051.72 403.052 1051.38 389.858 1051.77C384.186 1051.94 378.56 1053.61 372.912 1054.6C371.258 1054.56 369.603 1054.51 365.936 1054.3C330.841 1054.11 297.757 1053.87 264.68 1054.28C259.543 1054.35 254.443 1057.41 249.326 1059.09C246.759 1059.03 244.192 1058.98 240.069 1058.23C232.404 1057.32 226.294 1057.09 220.184 1056.86C218.456 1056.88 216.727 1056.89 213.526 1056.18C206.68 1056.46 201.305 1057.48 195.931 1058.49C194.898 1058.54 193.864 1058.59 191.792 1057.7C186.75 1055.87 182.708 1054.09 178.75 1054.26C169.734 1054.64 160.759 1055.99 151.767 1056.94C146.363 1056.92 140.958 1056.9 133.369 1056.73C121.89 1056.69 112.596 1056.8 103.302 1056.91C101.777 1056.92 100.252 1056.93 96.8529 1056.77C79.2373 1054.33 63.4962 1052.06 47.7551 1049.79C47.6053 1049.09 47.4554 1048.4 47.3056 1047.7C54.0748 1046.55 60.844 1045.39 67.6132 1044.24C71.7079 1044.24 75.8026 1044.24 81.8614 1044.28C85.706 1044.27 87.5866 1044.24 89.4673 1044.2C90.4882 1044.2 91.509 1044.2 94.4073 1044.25C104.48 1043.47 112.675 1042.63 120.871 1041.8C122.659 1041.8 124.447 1041.8 128.215 1041.85C136.8 1040.32 143.404 1038.74 150.008 1037.16C152.557 1037.17 155.106 1037.18 158.607 1037.23Z" fill="#E9CB8D"/>
<path d="M250.015 1059.78C254.443 1057.41 259.543 1054.35 264.68 1054.28C297.757 1053.87 330.841 1054.11 365.109 1054.28C357.013 1056.48 347.788 1059.96 338.44 1060.33C312.402 1061.37 286.314 1061.15 260.244 1061.33C257.066 1061.35 253.884 1060.76 250.015 1059.78Z" fill="#E5C078"/>
<path d="M67.3745 1043.33C60.8442 1045.39 54.075 1046.55 47.3058 1047.7C47.4556 1048.4 47.6055 1049.09 47.7553 1049.79C63.4964 1052.06 79.2375 1054.33 96.0906 1056.75C91.8674 1058.39 86.5017 1061.22 81.2028 1061.1C67.6255 1060.79 54.0778 1059.17 39.099 1057.96C38.7987 1053.44 38.4902 1048.8 38.0891 1043.08C43.7838 1041.21 49.5642 1039.87 55.3605 1039.8C59.2738 1039.75 63.2097 1041.48 67.3745 1043.33Z" fill="#E5C078"/>
<path d="M373.699 1055.24C378.559 1053.61 384.186 1051.94 389.858 1051.77C403.052 1051.38 416.268 1051.72 430.668 1051.92C429.382 1053.55 426.917 1056.26 424.423 1056.28C407.781 1056.47 391.132 1056.07 373.699 1055.24Z" fill="#E5C078"/>
<path d="M152.156 1057.84C160.759 1055.99 169.734 1054.64 178.75 1054.26C182.708 1054.09 186.75 1055.87 191.017 1057.65C181.973 1059.49 172.682 1060.77 163.352 1061.21C159.796 1061.37 156.15 1059.61 152.156 1057.84Z" fill="#E5C078"/>
<path d="M103.687 1057.81C112.596 1056.8 121.89 1056.69 132.355 1056.72C124.192 1065.19 114.147 1062.18 103.687 1057.81Z" fill="#E5C078"/>
<path d="M196.885 1058.65C201.305 1057.48 206.68 1056.46 212.663 1056.22C208.127 1057.6 202.983 1058.2 196.885 1058.65Z" fill="#E5C078"/>
<path d="M220.823 1057.45C226.294 1057.09 232.404 1057.32 239.106 1058.22C233.62 1058.62 227.541 1058.33 220.823 1057.45Z" fill="#E5C078"/>
<path d="M85.4436 1034.56C87.6862 1032.56 90.7896 1029.6 94.3422 1028.89C101.031 1027.56 107.979 1027.52 114.82 1026.95C114.772 1025.29 114.724 1023.63 114.676 1021.97C107.295 1021.97 99.9032 1021.73 92.5384 1022.07C87.9606 1022.28 59.3524 1005.34 57.847 1000.93C57.3346 999.426 57.4785 997.146 56.4718 996.449C42.9899 987.116 37.5004 973.476 34.4307 957.521C34.5441 943.236 35.4597 929.444 37.0957 914.508C44.927 907.71 52.6402 902.404 50.5361 891.415C50.0172 889.134 49.9073 885.066 48.9184 884.84C33.5567 881.331 36.4134 867.968 33.7111 856.671C33.5946 851.432 33.5122 847.147 33.4921 840.944C35.1326 830.152 36.9323 821.311 38.2046 812.395C38.9418 807.228 39.3935 801.566 31.3001 801.876C31.277 800.854 31.2541 799.831 32.1627 797.877C36.9248 790.06 40.755 783.174 44.9245 775.678C42.6834 774.685 40.6243 773.773 38.6194 772.036C39.4209 768.572 40.1682 765.932 41.8695 763.268C46.1518 761.17 49.4798 759.096 52.8079 757.022C48.8162 753.399 44.8244 749.776 40.7746 745.429C40.6746 743.737 40.6329 742.769 40.6218 740.982C39.8868 738.154 39.121 736.145 38.3551 734.137C40.5709 730.545 42.7867 726.954 45.1083 723.19C40.1445 711.06 36.4366 704.241 45.4086 696.124C44.1526 685.607 43.1091 676.867 41.998 667.563C60.4539 669.302 60.6663 668.813 57.1439 652.692C56.1695 648.233 56.1721 643.201 57.1585 638.749C59.0933 630.016 61.0135 621.771 55.2651 613.485C53.8642 611.467 55.3842 607.556 55.2056 604.537C53.6487 578.194 53.5216 551.631 49.6438 525.629C48.1216 515.422 43.5066 506.312 48.3205 499.055C44.1823 489.162 40.8389 481.17 36.6948 472.708C35.1162 450.416 34.3385 428.594 33.9494 404.91C39.9073 393.567 45.4766 384.085 52.354 372.376C47.8214 367.157 41.9299 360.373 36.0385 353.59C36.0385 353.59 35.9773 352.431 35.9821 350.971C35.2711 346.85 34.5551 344.189 33.839 341.529C33.7493 335.044 33.6598 328.56 34.4679 320.75C38.8113 307.193 41.9767 294.874 45.7883 282.758C49.007 272.525 39.5658 255.841 59.9587 255.121C59.3899 263.651 56.0871 272.547 58.98 278.367C63.1087 286.673 60.9698 291.802 56.4904 297.635C48.1654 308.476 48.9346 319.701 53.9135 331.645C56.0088 336.671 57.102 342.279 57.7014 347.727C58.8474 358.142 59.6634 368.625 59.8724 379.095C59.9459 382.775 58.9109 387.505 56.54 390.024C47.2504 399.895 45.9114 409.817 55.6175 420.791C39.9625 429.409 47.8578 440.499 53.0258 448.561C62.8458 463.88 65.312 478.985 58.3631 496.924C64.5017 501.587 70.8273 506.392 77.1568 511.998C77.1535 513.866 77.1466 514.934 77.1396 516.001C74.0504 520.692 67.2977 526.874 68.4976 529.82C74.1145 543.615 67.5231 555.709 65.7698 568.449C65.2849 571.972 65.3458 575.571 65.0953 580.282C68.5301 579.333 70.9069 578.677 74.6901 577.632C73.8478 590.19 76.029 603.513 71.381 613.734C66.9679 623.438 69.1825 629.17 72.9546 636.835C74.5636 640.104 75.9917 645.814 74.3291 647.961C63.1677 662.376 66.3359 679.952 63.1406 695.973C61.0675 706.367 62.3426 717.472 62.4926 728.253C62.6747 741.326 62.153 754.547 63.9407 767.426C66.1203 783.128 72.9987 798.667 61.001 813.385C60.1647 814.411 59.8608 817.11 60.5806 817.975C69.3891 828.567 61.9253 841.413 65.5413 852.479C68.6911 862.119 64.4404 864.533 58.6263 864.188C57.517 878.085 56.5125 891.257 55.3625 904.416C55.1951 906.335 54.9352 908.864 53.6972 909.973C42.1981 920.277 46.5135 931.93 49.4746 944.186C51.4943 952.547 51.1518 961.561 51.2024 970.287C51.243 977.258 52.4774 982.427 60.0516 985.227C64.6805 986.939 69.5721 990.162 72.3811 994.105C78.1462 1002.2 84.7711 1002.11 94.0772 1002.2C112.945 1002.38 131.735 1006.7 150.641 1008.39C160.715 1009.29 171.11 1009.27 181.093 1007.82C192.124 1006.23 202.587 1002.61 213.271 1009.77C215.894 1011.53 221.21 1010.19 224.983 1009.16C247.604 1002.98 270.289 1006.08 293.147 1007.17C306.651 1007.81 320.35 1004.1 333.978 1002.49C343.066 1001.42 352.218 999.605 361.278 999.923C371.185 1000.27 406.921 974.297 403.515 966.108C396.441 949.102 403.974 939.981 417.805 931.327C401.78 921.11 410.477 909.395 413.552 898.509C415.491 891.649 418.894 885.129 422.205 878.749C425.185 873.007 426.539 868.196 421.848 862.287C419.972 859.924 420.027 854.348 421.486 851.342C425.717 842.624 423.343 836.721 417.294 829.668C414.003 825.83 414.527 818.472 414.011 812.642C413.821 810.489 416.236 808.197 416.357 805.911C417.407 786.14 419.328 766.31 418.516 746.599C418.197 738.858 411.594 731.375 407.286 722.624C421.739 714.895 408.192 700.978 411.25 688.669C414.888 692.144 417.833 696.189 422.495 702.589C413.899 724.127 432.757 744.147 435.309 767.633C433.628 773.769 431.151 779.466 428.673 785.163C428.431 785.017 428.189 784.87 427.947 784.724C426.2 790.527 425.037 796.592 422.562 802.066C419.357 809.156 417.501 814.016 425.521 820.451C438.724 831.046 435.777 847.552 435.934 862.195C436.067 874.511 434.502 886.846 433.696 900.275C430.501 912.56 427.3 923.742 423.439 937.226C430.895 948.155 424.37 962.098 419.459 973.764C414.258 986.12 411.042 1001.69 396.045 1008.05C383.922 1013.2 372.507 1021.13 358.046 1014.35C351.526 1011.29 344.846 1012.65 341.607 1021.53C333.663 1023.33 325.737 1024.49 317.77 1025.04C308.971 1025.64 300.135 1025.78 291.312 1025.91C284.206 1026.02 277.094 1025.88 269.987 1025.71C266.788 1025.64 263.221 1024.2 260.461 1025.18C245.1 1030.64 229.927 1025.13 214.694 1025.2C207.987 1025.23 201.147 1026.65 194.628 1028.4C188.475 1030.05 184.28 1030.55 177.501 1026.87C171.004 1023.34 160.415 1027.15 151.65 1028.01C129.927 1030.13 108.22 1032.4 85.4436 1034.56Z" fill="#CFA14B"/>
<path d="M48.841 1033.07C58.6209 1023.24 68.9745 1027.33 79.533 1033.62C69.6901 1034.25 59.6274 1034 48.841 1033.07Z" fill="#CFA14B"/>
<path d="M120.158 1041.12C112.675 1042.63 104.48 1043.47 95.1728 1044.25C101.336 1034.91 110.875 1040.95 120.158 1041.12Z" fill="#E5C078"/>
<path d="M149.173 1036.78C143.404 1038.74 136.8 1040.32 129.109 1041.84C134.794 1039.99 141.565 1038.19 149.173 1036.78Z" fill="#E5C078"/>
<path d="M89.3035 1043.41C87.5866 1044.24 85.7061 1044.27 82.8845 1044.26C84.3423 1043.68 86.7411 1043.15 89.3035 1043.41Z" fill="#E5C078"/>
<path d="M59.9919 254.114C39.5662 255.841 49.0073 272.525 45.7886 282.757C41.977 294.873 38.8116 307.193 34.4758 319.671C27.69 305.656 23.1748 291.237 28.592 274.687C27.7975 266.034 31.287 261.558 38.0068 257.81C42.2694 255.433 44.9521 250.226 48.5242 245.388C49.6053 244.454 50.505 244.42 52.8015 244.717C56.1575 245.743 58.1169 246.439 60.0989 248.007C60.0782 250.625 60.0351 252.369 59.9919 254.114Z" fill="#C48E3A"/>
<path d="M36.0339 354.612C41.9302 360.374 47.8217 367.157 52.3543 372.376C45.4769 384.086 39.9076 393.568 33.9548 403.837C33.0527 400.915 30.7223 395.862 32.3143 393.718C41.3694 381.522 38.8461 368.695 36.0339 354.612Z" fill="#C49342"/>
<path d="M53.0289 104.104C58.0238 103.258 63.0188 102.412 68.8899 102.473C65.8975 114.93 62.2529 126.561 58.1049 138.011C52.6599 153.04 48.5881 168.174 50.4358 184.425C51.0213 189.577 49.8808 194.957 50.7092 200.041C51.7795 206.608 54.0023 212.991 55.7869 219.437C57.2171 224.602 58.7343 229.743 59.2484 234.894C55.7135 234.89 53.1433 234.885 50.5728 234.881C50.5728 234.881 50.5426 234.896 50.2813 234.359C49.5414 233.172 48.9192 232.719 48.1529 232.464C48.1529 232.464 48.1118 232.471 48.1124 231.847C48.1028 230.82 48.0924 230.416 47.9907 229.14C41.0108 217.178 38.1985 205.74 38.7782 192.108C39.5779 173.3 36.6828 154.328 35.132 135.446C35.0561 134.521 32.7017 133.783 31.4081 132.957C31.3177 130.434 31.2273 127.91 32.0148 124.261C33.6836 118.978 34.4742 114.821 35.116 111.447C41.0667 109.008 47.0478 106.556 53.0289 104.104Z" fill="#CFA14A"/>
<path d="M31.3159 134.105C32.7015 133.783 35.0558 134.522 35.1317 135.447C36.6826 154.329 39.5777 173.3 38.778 192.108C38.1983 205.74 41.0105 217.178 47.4011 229.155C46.9031 230.041 45.7233 230.066 45.7233 230.066C34.9827 228.369 30.3004 223.056 30.7555 211.27C31.7326 185.962 31.161 160.595 31.3159 134.105Z" fill="#C38F3D"/>
<path d="M51.9641 104.065C47.0475 106.556 41.0665 109.008 35.1157 111.447C34.474 114.821 33.6833 118.978 32.0345 123.314C30.3446 118.512 29.5131 113.531 28.7074 107.545C36.122 105.702 43.5109 104.864 51.9641 104.065Z" fill="#C38F3D"/>
<path d="M50.8766 235.653C53.1427 234.886 55.713 234.891 59.2586 235.913C60.1811 240.332 60.1286 243.734 60.0759 247.135C58.1166 246.439 56.1571 245.744 53.4815 244.691C52.2372 241.698 51.709 239.061 50.8766 235.653Z" fill="#CFA14B"/>
<path d="M48.3968 233.002C48.9185 232.721 49.5407 233.173 50.283 234.345C49.7531 234.651 49.118 234.209 48.3968 233.002Z" fill="#CFA14B"/>
<path d="M45.9755 230.596C45.7231 230.066 46.9029 230.041 47.4924 230.026C48.092 230.416 48.1023 230.82 48.1238 231.83C47.344 232.225 46.7083 231.788 45.9755 230.596Z" fill="#CFA14B"/>
<path d="M49.8088 891.808C52.6405 902.404 44.9273 907.71 37.0075 913.567C32.5183 901.822 44.5524 899.25 49.8088 891.808Z" fill="#A4723E"/>
<path d="M60.0989 248.008C60.129 243.734 60.1815 240.332 60.2234 235.913C58.7341 229.743 57.2169 224.602 55.7868 219.437C54.0021 212.991 51.7793 206.608 50.709 200.041C49.8806 194.958 51.0211 189.577 50.4356 184.426C48.5879 168.174 52.6597 153.041 58.1047 138.011C62.2527 126.562 65.8973 114.931 69.8457 102.477C71.7707 100.768 73.6157 99.9618 76.252 99.1022C86.8634 99.0895 96.6835 99.1308 107.47 100.051C105.321 101.984 102.205 103.039 98.1234 104.068C86.6932 103.472 82.0976 109.471 79.8695 118.802C78.5849 124.183 77.8078 131.155 74.1359 134.208C64.9574 141.839 64.3585 151.182 65.1089 161.444C65.7511 170.229 65.1606 179.427 67.6352 187.688C72.9102 205.299 72.6683 223.047 72.5811 241.041C72.5141 254.905 73.9654 268.778 74.8034 282.644C75.4054 292.601 78.3995 303.032 67.6442 310.231C66.0631 311.29 65.0854 314.72 65.3712 316.846C66.865 327.961 68.5 339.081 70.7549 350.063C74.5749 368.669 86.5902 387.506 65.5048 405.7C71.2205 409.93 75.6879 413.236 79.7535 416.244C70.5373 436.65 71.7436 446.866 84.6922 464.36C85.4033 465.321 86.0156 466.386 86.5006 467.479C93.9687 484.305 83.5657 497.327 77.1532 511.198C70.8277 506.393 64.5021 501.587 58.3635 496.924C65.3124 478.985 62.8462 463.881 53.0261 448.561C47.8582 440.499 39.9628 429.409 55.6179 420.791C45.9118 409.818 47.2508 399.895 56.5404 390.025C58.9113 387.506 59.9463 382.775 59.8728 379.096C59.6638 368.626 58.8478 358.142 57.7018 347.727C57.1024 342.279 56.0092 336.671 53.9139 331.645C48.935 319.702 48.1658 308.476 56.4908 297.635C60.9702 291.802 63.1091 286.673 58.9804 278.367C56.0875 272.547 59.3903 263.651 59.959 255.121C60.0351 252.37 60.0782 250.625 60.0989 248.008Z" fill="#DCB05E"/>
<path d="M319.733 99.2305C320.801 99.2146 321.869 99.1986 323.937 100.105C326.138 101.954 327.271 103.569 328.551 103.695C336.901 104.513 345.878 103.836 347.794 115.451C348.005 116.729 350.92 117.582 352.605 118.595C364.685 125.853 365.27 132.366 354.527 141.338C376.812 153.911 358.331 170.619 360.752 186.463C354.675 185.642 350.431 185.068 347.234 184.636C343.578 188.115 340.019 190.646 337.641 194.01C335.367 197.226 334.088 201.231 332.807 205.036C331.784 208.075 332.337 213.146 330.533 214.064C327.942 215.383 323.467 214.567 320.478 213.187C315.776 211.017 311.914 205.947 307.196 205.181C301.844 204.311 295.86 206.552 290.356 208.148C289.442 208.412 288.489 213.46 289.399 214.3C295.478 219.911 301.625 225.666 308.589 230.041C316.413 234.955 325.143 237.165 326.302 249.399C327.405 261.039 332.287 272.321 335.507 283.761C336.595 289.602 335.952 296.074 336.777 302.354C337.59 308.542 339.24 314.818 341.725 320.533C344.08 325.951 347.994 330.692 351.816 336.658C348.008 336.658 343.925 337.372 340.2 336.522C329.651 334.115 325.693 335.271 328.133 348.235C329.55 355.764 338.244 369.491 319.716 371.966C323.785 382.051 316.959 385.035 310.49 388.553C305.851 391.075 301.129 393.762 297.277 397.285C295.127 399.251 294.679 403.075 293.464 406.062C298.005 407.095 302.545 408.128 307.086 409.162C306.843 409.671 306.6 410.18 306.357 410.689C314.57 414.231 322.782 417.774 328.644 420.302C330.543 440.595 315.55 449.574 300.022 460.518C317.563 465.811 331.226 455.996 344.945 461.873C351.139 464.527 358.693 463.896 365.08 466.248C372.288 468.903 372.357 473.796 366.821 479.21C364.527 481.454 361.233 485.339 361.855 487.466C365.835 501.065 360.89 512.7 355.6 524.605C350.711 535.606 353.591 545.916 362.182 551.064C368.26 554.706 374.307 558.4 380.366 562.874C380.369 564.746 380.371 565.815 380.357 567.912C382.933 581.272 383.302 594.702 388.705 605.65C394.893 618.188 389.99 625.909 383.897 635.293C381.64 638.77 381.474 644.084 381.604 648.523C381.854 657.026 382.739 665.538 383.905 673.971C384.348 677.174 386.292 680.17 387.566 684.226C387.58 687.769 387.579 690.346 386.678 693.116C385.579 699.65 385.381 705.99 385.085 713.204C377.518 722.594 376.086 731.315 383.098 741.074C384.672 743.266 385.013 747.383 384.181 750.076C381.196 759.733 377.3 769.107 374.165 778.723C373.585 780.5 374.94 782.906 375.408 785.835C375.431 787.73 375.448 788.813 375.466 790.856C371.443 800.069 367.42 808.322 362.792 817.24C357.899 819.827 353.61 821.748 349.322 823.669C351.578 826.131 353.834 828.593 356.514 831.847C359.404 833.737 361.963 834.67 364.315 835.975C367.196 837.573 371.628 839.035 372.232 841.372C372.925 844.052 371.081 849.015 368.735 850.574C357.912 857.763 361.397 863.82 368.473 868.474C366.635 876.744 365.092 883.635 363.574 890.531C362.823 893.945 362.12 897.369 361.394 900.789C357.012 899.571 352.09 899.211 348.397 896.894C344.695 894.573 342.219 890.298 337.609 885.069C335.322 891.912 333.803 896.455 332.329 900.865C317.789 898.124 316.989 898.563 314.454 909.965C323.865 907.732 333.31 905.491 343.307 903.119C340.667 917.429 334.228 927.686 319.04 930.726C316.721 931.19 313.692 933.429 312.954 935.534C309.942 944.132 306.964 952.865 305.35 961.796C303.39 972.642 301.464 974.267 291.764 968.275C286.744 965.173 283.458 963.836 278 968.086C268.718 975.314 258.391 972.855 251.198 963.349C248.382 959.627 245.128 956.235 240.238 950.565C238.849 956.081 238.79 959.735 237.088 962.298C234.297 966.501 230.876 972.457 226.918 973.16C222.043 974.026 214.668 971.799 211.36 968.18C204.889 961.101 200.48 960.171 193.799 967.195C191.042 970.094 187.077 973.315 183.429 973.621C172.735 974.518 161.925 974.058 151.16 974.069C128.638 974.093 113.683 959.293 113.68 936.541C113.679 929.38 114.759 922.218 115.352 915.057C115.691 910.975 116.044 906.894 116.391 902.812C120.79 903.703 125.155 905.031 129.597 905.376C135.264 905.815 141.785 907.202 146.517 905.055C154.273 901.535 159.63 900.087 161.852 910.85C166.962 904.062 170.169 896.56 175.845 893.086C182.857 888.793 191.92 887.846 200.096 885.453C199.793 883.837 199.489 882.221 199.186 880.605C191.273 881.313 183.369 882.348 175.442 882.576C172.024 882.674 167.63 882.138 165.312 880.066C160.872 876.096 157.6 870.821 152.69 864.635C155.251 863.374 159.101 862.43 161.597 860.061C167.701 854.266 173.18 847.812 178.91 841.624C173.908 837.134 169.129 832.36 163.84 828.239C159.123 824.565 149.523 821.537 149.579 818.355C149.792 806.241 139.912 804.287 133.766 798.431C131.413 796.188 130.321 792.622 128.655 789.66C131.588 788.458 134.637 787.472 137.422 785.992C140.049 784.597 142.399 782.683 144.871 780.997C142.445 779.118 140.168 775.913 137.563 775.62C130.768 774.853 123.829 775.361 115.947 775.361C129.501 756.679 146.148 742.262 137.029 717.363C146.655 712.638 149.734 704.84 146.003 693.075C144.466 688.229 147.643 681.889 148.803 675.538C153.142 677.394 155.723 678.497 158.973 679.887C159.361 656.395 178.686 671.43 185.261 666.114C187.687 654.026 189.757 643.711 192.105 632.013C187.49 632.852 183.277 632.729 179.944 634.38C167.235 640.676 157.612 634.396 148.041 627.385C146.579 626.313 145.62 624.046 144.091 623.657C134.061 621.104 123.938 618.915 115.43 616.97C114.824 609.249 116.479 601.807 113.493 598.093C106.693 589.636 108.795 585.672 117.408 581.761C119.779 580.684 122.339 578.474 123.313 576.155C126.872 567.684 129.686 558.904 133.002 550.326C135.04 545.057 140.502 538.926 139.163 534.952C135.363 523.668 142.569 519.274 149.137 514.211C152.838 511.359 157.426 509.658 163.947 506.202C159.683 501.726 156.875 496.042 153.314 495.523C139.388 493.494 133.865 483.405 127.985 472.924C126.288 469.901 123.568 466.285 120.577 465.376C112.046 462.783 110.174 457.499 111.77 449.64C112.304 447.011 113.458 443.247 112.216 441.733C105.979 434.129 109.804 429.589 115.9 424.837C117.365 423.696 117.434 420.766 118.167 418.593C98.4355 413.699 96.0746 409.11 101.734 389.739C103.051 385.23 104.258 380.025 103.283 375.635C100.295 362.187 102.475 357.263 114.236 350.41C118.738 347.787 121.848 342.778 126.128 338.295C127.236 339.905 129.528 343.237 131.821 346.569C133.291 345.667 134.761 344.764 136.232 343.861C131.872 336.392 127.512 328.923 121.552 318.714C118.466 325.477 117.506 328.092 116.129 330.465C114.476 333.31 112.467 335.947 110.613 338.674C108.067 336.902 104.145 335.66 103.221 333.264C99.7884 324.362 97.1013 315.142 94.7626 305.882C94.3681 304.321 96.6206 300.951 98.4189 300.158C112.947 293.75 111.403 279.653 115.501 267.049C102.686 264.869 90.4372 262.547 90.7102 245.752C98.6841 243.502 101.738 239.218 95.0541 231.339C90.7803 226.3 91.4715 221.413 96.5172 216.517C102.758 210.461 102.168 203.755 96.5135 197.218C94.1662 194.505 92.0459 191.495 90.3487 188.338C81.4185 171.723 82.7645 169.178 101.466 166.327C102.072 166.234 102.541 165.242 101.816 166.022C103.474 153.115 104.652 141.667 106.624 130.358C107.059 127.86 110.098 125.621 112.299 123.669C116.029 120.361 120.045 117.376 125.705 112.843C127.548 111.912 131.597 109.613 135.852 107.796C139.071 106.42 142.566 104.727 145.915 104.777C166.244 105.078 186.566 106.223 206.893 106.295C218.1 106.335 229.305 104.308 240.525 104.132C263.769 103.768 287.026 104.201 310.269 103.805C313.449 103.751 316.579 100.826 319.733 99.2305Z" fill="#E9CC90"/>
<path d="M318.595 99.1972C316.579 100.826 313.448 103.751 310.268 103.805C287.025 104.201 263.769 103.768 240.525 104.132C229.304 104.308 218.1 106.335 206.892 106.295C186.565 106.223 166.244 105.078 145.914 104.777C142.566 104.727 139.07 106.42 135.851 107.796C131.596 109.613 127.547 111.912 125.705 112.843C120.045 117.376 116.028 120.361 112.299 123.669C110.098 125.621 107.059 127.86 106.624 130.358C104.652 141.668 103.474 153.115 101.816 166.022C102.541 165.242 102.072 166.234 101.466 166.327C82.7641 169.178 81.4182 171.723 90.3484 188.338C92.0456 191.495 94.1659 194.505 96.5131 197.218C102.168 203.755 102.758 210.461 96.5168 216.517C91.4712 221.413 90.78 226.301 95.0538 231.339C101.738 239.218 98.6838 243.502 90.7098 245.752C90.4369 262.547 102.686 264.869 115.501 267.049C111.403 279.653 112.947 293.75 98.4186 300.158C96.6203 300.951 94.3678 304.321 94.7622 305.882C97.101 315.142 99.788 324.362 103.22 333.264C104.144 335.66 108.066 336.902 110.612 338.674C112.467 335.947 114.476 333.31 116.128 330.465C117.506 328.092 118.465 325.477 121.552 318.714C127.511 328.923 131.871 336.392 136.231 343.861C134.761 344.764 133.291 345.667 131.82 346.569C129.528 343.237 127.235 339.905 126.128 338.295C121.848 342.778 118.738 347.787 114.236 350.41C102.475 357.263 100.295 362.187 103.283 375.635C104.258 380.025 103.051 385.23 101.734 389.739C96.0743 409.11 98.4351 413.699 118.167 418.593C117.434 420.766 117.365 423.696 115.9 424.837C109.804 429.589 105.978 434.129 112.216 441.733C113.458 443.247 112.304 447.012 111.77 449.64C110.174 457.499 112.046 462.783 120.576 465.376C123.568 466.285 126.288 469.901 127.984 472.925C133.864 483.405 139.388 493.495 153.313 495.523C156.875 496.042 159.682 501.726 163.947 506.202C157.426 509.658 152.837 511.359 149.137 514.212C142.569 519.274 135.362 523.668 139.163 534.952C140.502 538.926 135.039 545.057 133.002 550.326C129.686 558.904 126.871 567.684 123.312 576.155C122.338 578.474 119.778 580.684 117.408 581.761C108.795 585.672 106.693 589.636 113.493 598.093C116.479 601.807 114.823 609.249 115.43 616.97C123.937 618.915 134.061 621.104 144.091 623.657C145.62 624.046 146.578 626.313 148.041 627.385C157.612 634.396 167.235 640.676 179.944 634.38C183.277 632.729 187.489 632.852 192.104 632.013C189.757 643.711 187.686 654.026 185.26 666.114C178.686 671.43 159.361 656.395 158.972 679.887C155.723 678.497 153.142 677.394 148.803 675.538C147.643 681.889 144.465 688.229 146.003 693.075C149.734 704.841 146.655 712.638 137.028 717.363C146.148 742.262 129.5 756.679 115.947 775.362C123.828 775.362 130.767 774.853 137.562 775.62C140.168 775.914 142.445 779.119 144.871 780.997C142.399 782.683 140.048 784.597 137.422 785.992C134.636 787.472 131.588 788.458 128.654 789.66C130.321 792.623 131.413 796.188 133.766 798.431C139.911 804.287 149.792 806.242 149.579 818.355C149.523 821.537 159.123 824.565 163.839 828.239C169.128 832.36 173.908 837.134 178.91 841.624C173.179 847.812 167.701 854.266 161.597 860.061C159.101 862.43 155.251 863.374 152.69 864.635C157.599 870.821 160.872 876.096 165.312 880.066C167.629 882.139 172.024 882.674 175.442 882.576C183.369 882.348 191.272 881.313 199.185 880.605C199.489 882.221 199.792 883.837 200.096 885.453C191.919 887.846 182.857 888.793 175.844 893.086C170.169 896.56 166.962 904.062 161.852 910.85C159.63 900.087 154.272 901.535 146.517 905.055C141.784 907.202 135.264 905.816 129.597 905.376C125.155 905.031 120.79 903.703 116.391 902.812C116.044 906.894 115.69 910.975 115.352 915.057C114.759 922.218 113.678 929.38 113.679 936.541C113.683 959.293 128.638 974.093 151.16 974.069C161.924 974.058 172.735 974.518 183.428 973.621C187.076 973.315 191.041 970.094 193.799 967.195C200.479 960.171 204.889 961.101 211.36 968.18C214.667 971.799 222.043 974.026 226.918 973.16C230.876 972.457 234.297 966.501 237.087 962.298C238.79 959.735 238.848 956.081 240.238 950.566C245.127 956.235 248.382 959.627 251.198 963.349C258.391 972.855 268.718 975.314 278 968.086C283.457 963.837 286.744 965.173 291.764 968.275C301.463 974.267 303.389 972.642 305.349 961.796C306.963 952.865 309.942 944.132 312.954 935.534C313.691 933.429 316.721 931.19 319.04 930.726C334.228 927.686 340.666 917.43 343.306 903.119C333.309 905.491 323.865 907.732 314.453 909.965C316.988 898.563 317.789 898.124 332.329 900.865C333.803 896.455 335.322 891.912 337.609 885.069C342.219 890.299 344.695 894.573 348.397 896.894C352.09 899.211 357.011 899.571 361.394 900.789C362.119 897.369 362.823 893.945 363.574 890.531C365.091 883.635 366.634 876.744 368.473 868.474C361.396 863.82 357.912 857.763 368.735 850.574C371.081 849.015 372.924 844.052 372.231 841.372C371.627 839.036 367.195 837.573 364.315 835.975C361.963 834.67 359.404 833.737 357.131 831.172C360.411 828.855 363.505 827.29 366.584 827.32C371.507 827.368 376.42 828.475 381.338 829.134C380.37 834.584 379.168 840.005 378.513 845.492C378.057 849.313 378.103 853.241 378.362 857.091C378.932 865.573 380.86 874.132 380.113 882.47C379.653 887.618 375.036 892.301 372.728 897.393C366.364 911.434 359.564 925.213 373.122 939.577C378.664 945.449 370.104 967.868 362.125 968.787C349.206 970.274 336.089 969.957 323.096 970.934C319.401 971.212 314.046 972.269 312.548 974.8C307.21 983.814 300.955 981.724 293.061 979.28C287.294 977.495 280.676 978.509 274.444 978.158C266.574 977.715 258.712 977.115 250.842 976.664C247.601 976.478 243.41 975.164 241.259 976.665C231.303 983.615 221.001 984.252 209.269 982.487C200.869 981.223 191.948 983.398 183.261 984.058C176.132 984.6 168.897 986.227 161.899 985.512C146.469 983.937 131.098 979.073 115.818 979.518C100.726 979.957 94.6675 969.357 86.6726 961.308C84.6498 959.272 88.968 951.029 90.2369 945.606C90.8708 942.898 91.8712 940.036 91.5493 937.384C90.0886 925.351 88.216 913.369 86.2496 899.683C93.8832 897.653 100.769 896.276 107.288 893.895C110.513 892.717 114.535 890.27 115.665 887.402C120.806 874.348 107.224 861.58 90.9871 863.734C83.9302 847.498 86.1549 845.11 108.479 846.197C104.867 842.908 101.873 840.181 98.8162 837.398C106.087 830.682 112.756 824.606 119.328 818.428C125.755 812.388 124.161 807.438 116.989 802.272C110.981 797.945 103.854 791.998 102.173 785.491C98.4594 771.115 101.499 756.7 109.858 744.824C107.833 728.215 94.0851 714.641 100.002 697.586C103.984 696.758 109.993 696.373 110.102 695.355C111.263 684.522 119.044 685.972 126.258 685.33C128.304 685.148 130.106 682.237 132.02 680.577C129.94 679.07 128.052 676.721 125.747 676.194C110.58 672.723 107.209 666.888 112.226 651.87C116.483 639.125 112.873 630.97 101.448 627.523C101.448 627.523 100.269 627.477 99.5571 626.561C97.9957 619.713 96.1601 613.722 96.5147 607.863C97.1291 597.715 99.9075 587.679 100.295 577.54C100.764 565.285 102.486 554.109 115.716 545.091C108.733 539.787 102.67 535.182 96.6059 530.577C96.6059 530.577 96.6157 530.566 96.6148 529.503C97.1333 515.832 88.7705 501.028 105.558 492.366C106.182 492.044 106.406 489.975 106.085 488.948C103.336 480.181 102.914 468.918 97.0826 463.216C79.7514 446.27 81.943 424.048 84.5129 405.615C86.5756 390.82 76.0107 374.457 88.6494 360.937C88.9565 360.608 86.0851 357.73 85.2158 355.807C82.5005 349.798 77.6055 343.527 77.9702 337.63C78.7693 324.707 81.4734 311.728 84.946 299.2C87.6949 289.283 87.7771 281.224 81.5007 277.484C81.5007 261.327 81.4335 247.687 81.5268 234.048C81.5802 226.226 81.8742 218.404 82.1019 210.583C82.1872 207.658 83.7153 203.461 82.3266 202.023C73.5331 192.914 73.2245 181.734 75.7523 171.068C81.2152 148.016 85.398 124.345 99.089 104.093C102.205 103.039 105.32 101.984 108.594 100.068C122.493 99.1118 136.233 99.0165 152.204 98.992C186.973 99.0896 219.514 99.2766 252.049 98.9386C256.049 98.8972 260.019 96.0493 264.003 94.5017C265.794 94.4763 267.584 94.451 270.269 94.4644C274.293 96.0439 277.372 98.7759 280.563 98.9145C292.842 99.448 305.156 99.151 318.595 99.1972Z" fill="#E6C47F"/>
<path d="M101.449 628.459C112.874 630.971 116.483 639.125 112.226 651.87C107.21 666.888 110.581 672.724 125.747 676.194C128.052 676.721 129.94 679.071 132.021 680.578C130.107 682.237 128.304 685.149 126.259 685.331C119.044 685.972 111.263 684.523 110.102 695.356C109.993 696.373 103.985 696.759 100.003 697.586C94.0856 714.641 107.834 728.216 109.859 744.824C101.499 756.701 98.4599 771.116 102.174 785.492C103.855 791.999 110.982 797.945 116.99 802.272C124.162 807.439 125.756 812.388 119.329 818.429C112.756 824.606 106.088 830.682 98.8168 837.398C101.874 840.182 104.868 842.909 108.479 846.198C86.1554 845.11 83.9308 847.499 90.9877 863.734C107.224 861.581 120.807 874.348 115.665 887.402C114.536 890.271 110.513 892.718 107.288 893.895C100.77 896.276 93.8837 897.653 86.2502 899.683C88.2166 913.369 90.0891 925.352 91.5498 937.384C91.8717 940.036 90.8713 942.898 90.2374 945.607C88.9686 951.029 84.6504 959.272 86.6732 961.309C94.668 969.357 100.727 979.957 115.818 979.518C131.098 979.073 146.47 983.938 161.9 985.513C168.898 986.227 176.133 984.6 183.262 984.058C191.949 983.398 200.87 981.223 209.27 982.487C221.002 984.253 231.304 983.615 241.26 976.666C243.41 975.165 247.601 976.479 250.843 976.664C258.713 977.115 266.574 977.716 274.444 978.158C280.677 978.509 287.295 977.496 293.062 979.281C300.955 981.724 307.211 983.815 312.548 974.8C314.046 972.269 319.401 971.212 323.096 970.934C336.09 969.958 349.207 970.275 362.126 968.787C370.104 967.869 378.665 945.449 373.122 939.577C359.565 925.214 366.364 911.434 372.728 897.394C375.036 892.301 379.653 887.618 380.114 882.47C380.86 874.133 378.932 865.573 378.362 857.092C378.104 853.241 378.058 849.314 378.514 845.493C379.169 840.006 380.37 834.584 381.338 829.135C376.421 828.475 371.508 827.369 366.584 827.321C363.506 827.291 360.412 828.856 356.708 830.38C353.834 828.594 351.578 826.132 349.322 823.67C353.611 821.749 357.899 819.827 363.66 817.141C368.024 815.09 371.021 813.994 373.79 812.483C385.592 806.043 386.08 798.998 375.465 789.897C375.448 788.814 375.431 787.731 376.28 785.928C380.793 787.819 384.441 790.43 391.094 795.192C392.745 786.332 397.424 777.274 395.099 770.683C388.201 751.129 385.108 732.181 392.354 711.414C390.693 704.639 389.136 698.781 387.579 692.924C387.579 690.346 387.58 687.77 388.273 683.617C390.127 677.807 391.935 673.631 392.325 669.326C393.483 656.553 394.217 643.735 394.86 630.922C395.433 619.49 394.266 607.772 396.405 596.669C399.007 583.164 393.53 570.821 380.374 566.886C380.372 565.816 380.369 564.746 381.086 562.507C381.803 558.313 382.803 554.809 381.626 552.345C376.312 541.226 371.404 530.385 379.793 518.542C380.597 517.407 380.184 515.401 380.311 513.798C381.619 497.287 382.921 480.775 384.258 463.836C375.965 461.141 368.127 458.594 359.522 455.798C357.907 450.724 356.032 444.833 354.404 439.72C361.064 434.78 366.224 428.043 372.338 427.024C384.884 424.933 383.653 418.652 381.109 410.101C376.993 409.572 373.458 409.119 368.728 408.512C375.039 393.463 362.555 396.177 354.756 393.729C362.794 380.844 346.096 385.144 344.255 375.593C348.901 371.123 354.733 365.512 361.61 358.896C378.822 333.479 362.842 308.086 355.566 281.972C373.563 283.866 374.538 282.894 371.777 265.416C368.201 264.312 364 263.893 360.842 261.857C354.426 257.722 348.573 252.713 339.789 246.002C337.995 236.6 337.995 236.6 361.263 230.078C360.49 224.476 359.842 218.635 358.855 212.853C356.646 199.917 360.387 194.076 372.969 191.21C371.517 197.512 370.065 203.813 367.94 213.039C368.799 213.984 371.892 217.38 375.493 221.336C371.066 229.018 369.535 235.147 377.702 243.813C382.917 249.347 382.02 262.302 381.018 271.625C379.549 285.297 385.014 300.705 395.796 306.885C396.562 329.422 393.37 350.5 378.872 367.479C378.166 374.328 377.46 381.176 376.715 388.396C393.532 390.323 394.394 406.17 399.221 417.513C403.713 428.07 396.495 435.762 383.429 440.481C397.886 447.386 407.626 456.662 406.655 471.229C405.85 483.311 413.663 498.127 399.349 505.947C397.672 518.231 397.006 529.792 394.337 540.87C391.416 552.99 390.329 563.699 401.499 572.41C410.711 579.595 411.926 589.774 410.754 600.539C409.536 611.739 408.437 622.959 406.862 634.11C406.469 636.898 404.497 639.48 403.163 642.113C402.161 644.092 400.104 645.987 400.077 647.942C399.785 668.951 400.156 689.974 399.561 710.971C399.326 719.284 397.133 727.542 396.462 731.812C401.032 738.301 405.39 742.715 407.463 748.021C409.001 751.956 407.678 757.055 407.431 761.625C407.208 765.771 407.307 770.062 406.242 774.013C401.898 790.127 397.161 806.135 391.863 824.65C394.217 826.538 399.919 829.375 402.806 833.976C405.11 837.648 406.199 845.882 403.989 847.909C395.415 855.77 398.793 863.488 401.883 871.591C407.093 885.252 402.556 896.472 390.238 902.264C389.159 907.869 387.863 912.661 387.446 917.529C387.214 920.23 387.761 923.47 389.138 925.756C396.37 937.758 395.656 948.944 386.663 959.26C384.031 962.28 381.642 965.516 379.221 968.713C367.166 984.63 339.186 992.984 320.885 986.241C318.812 985.477 316.401 985.211 314.179 985.328C294.93 986.344 275.688 987.502 256.443 988.614C228.967 990.203 201.501 992.027 174.007 993.212C166.889 993.519 159.694 991.723 152.519 991.056C134.963 989.423 117.319 988.448 99.8846 985.975C94.4528 985.205 89.4891 980.632 84.5074 977.489C82.8997 976.474 81.8917 973.094 80.657 973.12C63.9501 973.464 71.6232 961.374 69.2255 953.427C66.2477 943.557 63.5129 934.261 65.0948 923.991C66.691 913.631 66.9289 902.812 70.2892 893.064C72.3132 887.193 79.1602 882.983 83.8282 878.038C69.0343 862.042 69.3599 857.924 79.666 838.908C85.8585 827.482 96.7362 816.524 89.3832 801.129C85.7142 793.447 82.0437 785.616 79.752 777.465C76.8656 767.2 75.3879 756.538 75.9438 746.907C78.2974 740.246 79.4229 732.718 83.3466 727.166C87.3469 721.504 94.003 718.089 91.3028 709.241C89.7937 704.296 89.2085 698.696 89.8078 693.578C90.5195 687.501 90.3035 681.335 97.2362 676.507C100.562 674.191 98.8634 664.669 99.4402 658.41C98.3689 657.911 97.2978 657.412 96.2265 656.913C100.264 653.709 104.301 650.504 109.271 646.56C105.554 643.922 102.8 641.966 100.098 640.048C100.547 636.507 100.999 632.951 101.449 628.459Z" fill="#E1BA71"/>
<path d="M373.117 190.28C360.387 194.075 356.646 199.917 358.855 212.852C359.842 218.635 360.49 224.475 361.263 230.077C337.995 236.6 337.995 236.6 339.788 246.001C348.573 252.713 354.425 257.721 360.841 261.856C364 263.892 368.2 264.312 371.777 265.415C374.538 282.894 373.563 283.865 355.566 281.972C362.841 308.085 378.821 333.478 361.61 358.895C354.733 365.511 348.9 371.122 344.254 375.592C346.095 385.143 362.793 380.843 354.756 393.728C362.554 396.176 375.038 393.462 368.728 408.511C373.458 409.118 376.993 409.572 381.108 410.1C383.652 418.651 384.884 424.932 372.337 427.023C366.223 428.042 361.063 434.779 354.404 439.719C356.032 444.832 357.907 450.723 359.522 455.797C368.127 458.594 375.965 461.141 384.258 463.836C382.921 480.775 381.618 497.286 380.311 513.797C380.184 515.401 380.596 517.406 379.792 518.542C371.403 530.384 376.312 541.225 381.625 552.345C382.803 554.809 381.803 558.312 381.086 561.704C374.307 558.4 368.26 554.705 362.182 551.063C353.591 545.916 350.71 535.606 355.599 524.605C360.89 512.7 365.835 501.065 361.855 487.465C361.232 485.339 364.527 481.454 366.821 479.21C372.356 473.796 372.288 468.903 365.08 466.248C358.693 463.896 351.139 464.527 344.945 461.873C331.225 455.996 317.563 465.811 300.022 460.517C315.55 449.574 330.543 440.595 328.643 420.302C322.782 417.773 314.569 414.231 306.357 410.688C306.6 410.179 306.843 409.671 307.086 409.162C302.545 408.128 298.004 407.095 293.464 406.062C294.678 403.075 295.127 399.251 297.276 397.285C301.128 393.762 305.851 391.075 310.489 388.553C316.959 385.034 323.784 382.05 319.716 371.966C338.244 369.491 329.55 355.764 328.133 348.235C325.693 335.271 329.65 334.115 340.2 336.522C343.925 337.372 348.008 336.658 351.816 336.658C347.994 330.692 344.08 325.95 341.725 320.533C339.24 314.817 337.59 308.542 336.777 302.354C335.952 296.074 336.595 289.602 335.507 283.761C332.287 272.321 327.405 261.039 326.302 249.399C325.143 237.165 316.412 234.955 308.589 230.041C301.625 225.666 295.478 219.911 289.399 214.3C288.488 213.46 289.441 208.412 290.355 208.147C295.86 206.552 301.843 204.311 307.196 205.181C311.914 205.947 315.776 211.016 320.478 213.187C323.467 214.567 327.942 215.383 330.533 214.064C332.337 213.145 331.783 208.075 332.807 205.036C334.088 201.231 335.366 197.226 337.64 194.009C340.019 190.645 343.578 188.115 347.234 184.636C350.43 185.068 354.675 185.641 360.752 186.463C358.331 170.619 376.812 153.91 354.527 141.338C365.269 132.366 364.685 125.853 352.604 118.594C350.92 117.582 348.004 116.729 347.793 115.451C345.877 103.836 336.901 104.513 328.551 103.694C327.271 103.569 326.137 101.954 324.738 100.124C337.662 98.3886 347.957 103.66 359.823 109.602C376.869 118.139 374.81 128.436 373.678 142.438C372.915 151.889 377.23 161.648 377.578 171.329C377.792 177.277 374.811 183.34 373.117 190.28Z" fill="#E6C47F"/>
<path d="M98.123 104.068C85.398 124.345 81.2152 148.016 75.7523 171.068C73.2245 181.734 73.5331 192.914 82.3266 202.023C83.7153 203.461 82.1871 207.658 82.1019 210.583C81.8741 218.404 81.5802 226.226 81.5267 234.048C81.4335 247.687 81.5007 261.327 81.5007 277.484C87.777 281.224 87.6949 289.283 84.946 299.2C81.4733 311.728 78.7692 324.707 77.9702 337.63C77.6055 343.527 82.5005 349.798 85.2158 355.807C86.085 357.73 88.9565 360.608 88.6494 360.937C76.0107 374.457 86.5755 390.82 84.5129 405.615C81.9429 424.048 79.7514 446.27 97.0826 463.216C102.914 468.918 103.336 480.181 106.085 488.948C106.406 489.975 106.182 492.044 105.558 492.366C88.7704 501.028 97.1332 515.832 96.6094 529.506C90.6457 525.938 84.6865 521.305 77.9334 516.337C77.1465 514.934 77.1535 513.867 77.1567 511.999C83.5652 497.327 93.9683 484.305 86.5002 467.48C86.0152 466.386 85.4029 465.322 84.6917 464.361C71.7431 446.866 70.5369 436.65 79.753 416.244C75.6875 413.236 71.2201 409.93 65.5044 405.7C86.5897 387.506 74.5745 368.669 70.7544 350.063C68.4996 339.082 66.8645 327.961 65.3707 316.846C65.0849 314.72 66.0626 311.29 67.6438 310.231C78.3991 303.032 75.4049 292.601 74.803 282.644C73.965 268.778 72.5136 254.905 72.5807 241.041C72.6679 223.047 72.9097 205.299 67.6348 187.688C65.1601 179.427 65.7507 170.229 65.1085 161.445C64.3581 151.182 64.9569 141.839 74.1355 134.208C77.8074 131.155 78.5844 124.183 79.8691 118.802C82.0972 109.471 86.6928 103.472 98.123 104.068Z" fill="#E1BA70"/>
<path d="M96.6057 531.559C102.67 535.182 108.733 539.787 115.717 545.091C102.486 554.109 100.764 565.285 100.295 577.54C99.9076 587.679 97.1292 597.715 96.5149 607.863C96.1602 613.722 97.9958 619.713 98.9676 626.542C95.8969 624.015 90.709 621.001 89.9037 617.086C87.8863 607.28 88.8229 596.864 86.7706 587.07C84.4215 575.858 93.2647 568.116 93.7768 557.953C94.2051 549.456 95.6248 541.01 96.6057 531.559Z" fill="#E1BA70"/>
<path d="M262.862 94.4327C260.019 96.0493 256.049 98.8972 252.049 98.9386C219.514 99.2766 186.974 99.0897 153.271 98.9687C156.152 97.3711 160.184 94.6086 164.245 94.5639C196.734 94.2068 229.228 94.3638 262.862 94.4327Z" fill="#DCB05E"/>
<path d="M41.8695 763.268C40.8663 758.296 40.8173 753.299 40.8006 747.228C44.8244 749.776 48.8162 753.399 52.8079 757.023C49.4798 759.097 46.1518 761.17 41.8695 763.268Z" fill="#C38F3D"/>
<path d="M380.357 567.913C393.53 570.821 399.007 583.164 396.405 596.669C394.266 607.772 395.433 619.49 394.859 630.922C394.217 643.735 393.483 656.553 392.325 669.326C391.935 673.631 390.127 677.807 388.259 682.651C386.292 680.17 384.348 677.175 383.905 673.972C382.739 665.539 381.854 657.026 381.605 648.524C381.474 644.084 381.64 638.77 383.897 635.294C389.99 625.909 394.893 618.188 388.705 605.65C383.302 594.702 382.933 581.273 380.357 567.913Z" fill="#E6C47F"/>
<path d="M392.457 712.33C385.108 732.18 388.201 751.128 395.099 770.683C397.424 777.273 392.745 786.331 391.094 795.192C384.44 790.43 380.792 787.819 376.273 785.115C374.94 782.906 373.585 780.5 374.165 778.723C377.3 769.107 381.196 759.733 384.181 750.076C385.013 747.383 384.672 743.266 383.098 741.074C376.086 731.314 377.518 722.594 385.994 713.204C388.82 712.33 390.639 712.33 392.457 712.33Z" fill="#E6C47F"/>
<path d="M375.466 790.856C386.08 798.997 385.592 806.042 373.79 812.482C371.02 813.994 368.023 815.089 364.264 816.475C367.42 808.322 371.443 800.069 375.466 790.856Z" fill="#E6C480"/>
<path d="M392.353 711.413C390.638 712.33 388.82 712.33 386.092 712.33C385.381 705.99 385.579 699.65 386.678 693.116C389.135 698.781 390.692 704.639 392.353 711.413Z" fill="#E6C47F"/>
<path d="M35.8943 472.239C36.2979 486.744 36.6547 501.251 37.1514 515.752C37.2325 518.122 37.929 520.47 37.4451 524.168C34.725 532.87 32.901 540.232 31.077 547.594C31.077 547.594 30.9939 547.538 30.2739 548.166C28.5964 556.147 26.8675 563.498 26.8461 570.854C26.8051 585.135 27.7234 599.42 28.2443 613.703C27.0793 612.155 24.9923 610.665 24.8912 609.051C23.807 591.761 20.1864 573.984 22.9275 557.269C26.102 537.91 26.0782 519.217 25.0657 499.889C23.6614 473.081 24.5915 446.153 24.449 419.277C24.4318 416.067 24.7883 412.484 23.5399 409.719C19.6805 401.174 21.062 395.224 26.8652 387.041C30.9689 381.253 28.1806 370.265 27.6885 361.644C27.3028 354.882 25.7665 348.181 24.6603 341.467C22.7809 330.06 19.5612 318.701 19.2235 307.253C18.7299 290.526 19.8337 273.697 21.35 257.011C21.6534 253.675 26.8625 250.784 30.5634 248.643C27.8374 257.335 22.4247 264.856 28.5921 274.687C23.1749 291.237 27.6901 305.656 33.5781 320.997C33.6603 328.56 33.7498 335.044 33.7563 342.411C34.44 345.952 35.2071 348.612 35.976 351.852C35.9777 352.432 36.039 353.59 36.0341 354.612C38.8462 368.695 41.3696 381.522 32.3144 393.718C30.7225 395.862 33.0528 400.915 33.5666 405.699C34.339 428.594 35.1166 450.417 35.8943 472.239Z" fill="#A18D6E"/>
<path d="M27.7075 653.671C28.5939 653.663 28.751 654.223 28.8844 656.667C27.267 673.856 24.8046 689.138 24.3678 704.477C24.0445 715.839 22.5767 729.974 28.3588 738.06C37.5152 750.863 36.7283 762.166 32.8128 775.24C31.4054 775.387 30.6007 775.443 29.7929 775.454C31.0478 762.338 31.3601 750.59 21.5504 738.644C16.5369 732.539 19.6555 719.355 19.9562 709.396C20.3905 695.005 21.3322 680.612 22.6559 666.275C23.0354 662.166 25.4804 658.247 27.7075 653.671Z" fill="#A18D6E"/>
<path d="M28.0885 614.764C27.7231 599.42 26.8047 585.135 26.8457 570.854C26.8672 563.498 28.5961 556.147 30.2438 548.206C32.6357 578.656 34.538 609.686 35.7695 640.742C35.9136 644.376 32.3578 648.156 29.486 651.998C28.2809 640.026 28.107 627.925 28.0885 614.764Z" fill="#8E785C"/>
<path d="M29.3314 775.835C30.601 775.443 31.4057 775.387 32.9223 775.335C33.6373 775.385 33.8576 775.565 33.7626 776.533C32.8779 784.091 32.0885 790.684 31.2653 798.042C31.2545 799.831 31.2774 800.854 31.1019 802.884C30.2964 805.808 28.9321 807.841 29.2072 809.622C30.8248 820.087 23.447 831.769 33.3995 841.981C33.5126 847.147 33.595 851.432 33.6775 855.717C23.1705 842.421 22.47 827.349 25.0594 811.395C26.773 800.837 27.4731 790.115 28.579 778.415C28.5311 777.363 28.8698 776.215 29.3314 775.835Z" fill="#937F63"/>
<path d="M36.9865 0.0551964C37.9773 3.36462 38.3239 6.31075 37.9329 10.4397C36.7396 11.7028 36.2838 11.7832 35.1258 11.6087C32.262 11.5621 30.1007 11.7706 27.9393 11.9792C26.9801 11.2723 26.0209 10.5654 24.4883 9.69784C23.9723 8.6837 24.0301 7.83019 24.091 6.33664C28.1769 3.69508 32.2598 1.69356 36.9865 0.0551964Z" fill="#896E51"/>
<path d="M35.9841 246.469C35.5351 247.056 35.0918 247.079 33.9911 246.986C33.7997 246.202 34.2656 245.535 35.3693 244.825C36.0071 244.781 35.9901 245.907 35.9841 246.469Z" fill="#A18D6E"/>
<path d="M39.8489 80.0203C38.2614 79.5747 37.4639 78.4959 36.4054 78.077C28.9842 75.1406 17.7077 74.4026 14.8174 69.0809C8.14025 56.7865 6.79147 42.2031 12.4549 28.2675C13.6415 25.3477 15.6844 22.7757 18.0528 19.5972C18.8322 23.3289 18.8916 27.5068 18.9845 32.7133C19.0179 33.7419 19.0477 33.709 19.0477 33.709C8.36803 49.5268 15.7559 68.6895 33.7611 72.9515C36.3978 73.5757 38.2843 77.3668 39.8489 80.0203Z" fill="#896E51"/>
<path d="M19.0021 33.757C20.5513 33.953 23.035 33.5833 23.5284 34.4062C26.16 38.7932 28.4986 43.3995 30.337 48.1619C30.5636 48.7492 27.203 50.7193 25.5046 52.0487C23.4393 47.7822 21.2924 43.552 19.3699 39.2222C18.9258 38.222 19.2494 36.8814 19.1339 34.7031C19.0482 33.7089 19.0184 33.7419 19.0021 33.757Z" fill="#896E51"/>
<path d="M28.2287 12.7454C30.1006 11.7706 32.262 11.5621 35.5477 12.3452C37.4824 15.9763 38.2926 18.616 39.1028 21.2558C37.088 20.6431 35.0732 20.0304 32.2695 19.3356C30.4931 17.3394 29.5057 15.4255 28.2287 12.7454Z" fill="#DAB061"/>
<path d="M39.3619 21.2287C38.2927 18.6158 37.4825 15.9762 36.25 12.6001C36.2838 11.7831 36.7396 11.7026 37.8281 11.3277C39.0949 13.8559 39.7289 16.6785 40.2512 20.3749C40.1395 21.2487 39.6209 21.2018 39.3619 21.2287Z" fill="#714016"/>
<path d="M40.9153 763.293C40.1682 765.933 39.4209 768.572 37.9876 772.303C36.1534 774.118 35.0053 774.842 33.8572 775.566C33.8572 775.566 33.637 775.385 33.5279 775.29C36.7282 762.166 37.5152 750.863 28.3588 738.06C22.5766 729.975 24.0444 715.839 24.3678 704.477C24.8046 689.138 27.2669 673.856 29.0066 657.532C29.8379 663.928 30.5231 671.342 31.2128 680.836C31.2168 686.246 31.216 689.577 31.2153 692.909C31.1543 694.721 31.0933 696.534 30.3529 699.987C30.1525 712.477 30.6316 723.326 31.1106 734.175C31.1106 734.175 31.1426 734.142 31.4564 734.882C34.7104 737.681 37.6507 739.742 40.591 741.802C40.6329 742.77 40.6746 743.737 40.7424 746.504C40.8173 753.299 40.8663 758.296 40.9153 763.293Z" fill="#937F63"/>
<path d="M31.8591 547.242C32.9008 540.232 34.7248 532.87 37.4573 525.147C43.8774 534.074 39.3072 540.753 31.8591 547.242Z" fill="#9B571D"/>
<path d="M31.1228 733.064C30.6316 723.326 30.1525 712.476 30.3588 700.893C31.0746 710.757 31.1049 721.355 31.1228 733.064Z" fill="#C38F3D"/>
<path d="M40.6218 740.982C37.6508 739.741 34.7105 737.681 31.4369 734.899C32.9177 734.166 34.7315 734.154 37.4504 734.14C39.1211 736.146 39.8868 738.154 40.6218 740.982Z" fill="#C38F3D"/>
<path d="M31.85 692.353C31.2161 689.577 31.2168 686.246 31.2797 681.921C31.7229 684.551 32.1037 688.174 31.85 692.353Z" fill="#C38F3D"/>
<path d="M33.7561 342.411C34.5554 344.19 35.2715 346.85 35.9807 350.391C35.207 348.612 34.4398 345.952 33.7561 342.411Z" fill="#C49342"/>
<path d="M31.1018 802.884C39.3939 801.566 38.9422 807.228 38.2049 812.395C36.9327 821.311 35.1329 830.152 33.4617 840.062C23.447 831.769 30.8248 820.087 29.2072 809.622C28.9321 807.841 30.2964 805.808 31.1018 802.884Z" fill="#C49342"/>
<path d="M33.7623 776.532C35.0054 774.841 36.1535 774.117 37.9335 773.127C40.6244 773.773 42.6835 774.685 44.9246 775.678C40.7551 783.173 36.9249 790.059 32.1967 797.11C32.0882 790.683 32.8776 784.091 33.7623 776.532Z" fill="#C49342"/>
</svg>
