<svg width="599" height="509" viewBox="0 0 599 509" fill="none" xmlns="http://www.w3.org/2000/svg">
<path d="M591.204 14.1044C591.647 14.1816 592.09 14.2589 593.077 15.6235C590.421 41.8593 587.221 66.8079 583.841 92.7018C583.225 99.0957 582.085 104.599 582.505 109.981C583.235 119.334 585.218 128.585 586.116 137.932C586.723 144.256 585.304 150.916 586.695 156.99C588.853 166.417 586.103 173.238 578.934 177.841C579.726 167.571 581.317 158.39 581.183 149.235C580.823 124.694 579.782 100.161 578.903 75.6288C578.179 55.4069 560.665 41.8606 541.043 46.5659C526.225 50.1189 511.2 53.2404 496.863 58.255C474.959 65.9158 457.289 80.0651 442.429 98.0608C445.921 98.4092 449.404 98.4268 451.734 96.7969C462.083 89.5562 469.911 92.0257 477.623 101.307C485.76 111.1 494.993 116.871 509.002 110.022C520.593 104.356 526.218 107.783 527.267 121.056C528.074 131.278 532.84 136.681 540.378 142.321C545.264 145.977 550.771 152.438 551.067 157.909C551.952 174.277 550.004 190.775 549.944 207.225C549.897 220.34 555.477 226.391 566.693 228.352C566.707 240.883 566.461 252.387 566.733 263.878C566.986 274.587 558.952 286.228 549.168 286.685C538.743 287.172 539.514 277.422 537.939 271.12C536.163 264.008 533.11 260.306 525.6 261.309C520.452 261.997 515.194 262.313 510.206 263.631C502.645 265.629 496.928 265.631 491.497 258.087C484.717 248.668 479.533 249.455 472.394 258.354C470.19 261.101 467.755 264.84 464.786 265.587C453.364 268.46 454.054 275.542 456.858 284.17C458.943 290.588 461.114 297.086 462.036 303.717C462.363 306.072 459.117 308.922 457.502 311.547C455.038 309.956 451.452 308.933 450.308 306.675C445.814 297.8 440.822 288.864 438.35 279.345C433.673 261.334 429.425 243.122 415.94 229.563C410.511 224.104 402.316 221.21 395.077 217.79C389.723 215.261 381.957 215.423 378.599 211.521C366.652 197.639 350.061 192.583 334.574 185.114C323.114 179.587 315.63 170.825 314.436 157.204C313.958 151.743 310.867 146.511 308.966 141.175C302.979 143.439 297.037 145.827 290.991 147.919C287.584 149.097 283.996 150.585 280.511 150.53C273.189 150.415 265.676 148.022 258.622 149.083C251.148 150.208 247.139 147.913 243.96 141.898C237.458 129.592 230.405 117.546 224.573 104.934C222.575 100.615 223.545 94.9243 223.159 89.8602C228.312 89.9235 234.073 88.5032 238.508 90.3183C253.995 96.6557 275.78 87.0855 280.81 70.8198C283.086 63.4571 286.344 57.7634 295.527 57.406C301.668 57.1671 307.738 55.107 315.483 53.5265C312.55 50.8847 310.911 49.408 309.71 47.187C311.724 45.2585 313.187 43.8721 314.893 42.9224C327.794 35.7409 330.846 37.3377 333.918 51.8642C334.77 55.8964 337.063 59.6244 338.687 64.2389C339.564 66.9769 340.45 68.968 341.336 70.959C341.927 70.8064 342.518 70.6538 343.109 70.5012C342.876 67.3739 342.643 64.2465 342.316 59.8478C348.286 62.5997 353.148 64.4329 357.609 66.9703C373.008 75.7299 385.594 72.2767 396.908 59.3084C400.174 55.5641 405.364 53.5196 409.598 50.5887C415.906 46.2222 422.041 41.5995 428.451 37.3922C433.25 34.242 438.085 30.8142 443.4 28.849C454.787 24.6385 466.537 21.4173 478 17.3966C479.088 17.0151 479.198 13.8478 480.775 11.9054C497.083 13.8293 511.875 15.6642 527.523 10.4312C537.921 6.95369 550.289 8.46913 561.691 9.15652C570.733 9.70175 579.647 12.3829 589.265 14.1233C590.342 14.1221 590.773 14.1133 591.204 14.1044Z" fill="#EED9AB"/>
<path d="M62.6821 502.382C36.1571 500.64 31.2901 496.102 22.1218 462.248C24.5893 441.418 27.9561 422.232 27.6423 403.107C27.3793 387.058 40.3232 371.28 28.6761 355.047C27.7511 353.758 28.8881 351.105 28.7678 349.104C28.2731 340.873 27.5506 332.654 27.1344 324.419C26.854 318.874 25.5045 312.848 27.112 307.83C36.1022 279.764 45.674 251.879 55.5141 224.096C57.0499 219.76 61.1777 216.397 63.7641 212.364C69.3461 203.66 74.7056 194.814 80.156 186.026C79.2415 185.484 78.327 184.942 77.4123 184.4C71.3328 191.918 65.3653 199.531 59.1282 206.916C55.7951 210.862 51.0091 213.874 48.6017 218.253C42.4632 229.422 33.3357 230.888 21.3923 228.796C19.8793 214.411 18.4152 200.492 17.7955 186.186C19.47 184.088 20.8816 182.429 21.0439 180.657C23.41 154.845 23.8806 128.723 35.6222 104.641C36.9734 101.87 36.8511 97.4892 35.693 94.5256C24.1066 64.8796 27.4581 36.7086 44.346 9.4573C56.9111 10.8144 68.3934 12.2895 80.0928 14.6769C81.5923 22.6511 86.3339 31.9883 83.4768 36.3277C76.2909 47.2404 80.2673 57.7164 80.3378 68.3823C80.4072 78.8865 88.6385 87.5967 100.474 87.4622C79.3111 66.9805 87.3063 44.3184 93.042 21.7385C95.193 25.7309 95.9422 29.9378 96.1934 34.1742C96.7497 43.5605 95.3663 53.4453 97.8861 62.2359C101.13 73.5543 109.761 83.5516 111.943 94.9101C117.595 124.337 120.986 154.197 124.512 183.962C121.163 185.613 118.582 187.188 115.844 188.038C115.545 186.939 115.474 186.509 115.241 186.202C115.021 185.912 114.364 185.547 114.354 185.561C112.54 187.949 109.428 190.254 109.209 192.806C107.812 209.095 94.0191 214.738 83.4588 222.56C69.5073 232.895 66.6592 238.503 72.4684 253.222C73.4598 255.734 75.3258 257.965 77.0554 260.111C86.4136 271.72 87.5087 286.602 80.0243 299.094C78.6025 301.467 77.7888 304.229 76.8681 306.872C73.4013 316.821 70.0061 326.796 66.1086 338.145C68.3207 340.807 71.6054 344.759 74.8903 348.712C75.7033 347.771 76.5162 346.831 78.148 346.027C83.9685 352.594 88.9702 359.025 93.0772 365.468C87.6599 363.355 83.1377 361.231 77.9999 358.818C75.565 371.611 87.3282 371.983 94.6079 377.998C90.8693 382.508 88.1991 387.981 83.8223 390.555C73.8114 396.443 77.4576 401.976 81.5908 408.12C86.937 403.3 91.6943 399.011 96.3208 395.577C92.9187 403.977 89.6472 411.521 85.5488 418.898C78.7994 415.407 74.0255 417.683 72.8528 423.452C70.9132 432.993 70.5497 442.855 68.6237 452.67C61.69 455.718 55.6544 458.678 48.9571 461.857C47.3503 463.016 46.4053 463.957 45.0964 465.002C44.6062 465.327 44.4796 465.546 44.3531 465.766C44.7055 465.46 45.0579 465.153 46.1488 464.892C48.1311 464.243 49.3746 463.548 51.5222 462.768C54.1469 464.259 56.0726 465.667 57.5429 467.45C60.0974 470.547 62.3704 473.876 64.8059 477.072C64.8504 477.035 64.7403 477.057 65.1445 477.726C67.0394 478.797 68.5303 479.2 70.8544 480.015C78.3345 481.691 84.9453 483.682 91.6379 484.01C98.0764 484.325 104.599 482.919 111.085 482.269C111.078 483.43 111.072 484.59 111.066 485.751C90.0604 491.076 69.2869 492.923 49.9465 479.708C40.8412 488.398 41.3503 491.214 51.8055 495.899C55.6314 497.613 59.068 500.195 62.6821 502.382ZM109.52 120.351C108.594 112.248 107.668 104.144 106.742 96.0413C100.932 109.337 100.488 121.883 110.893 132.903C110.678 129.349 110.463 125.796 109.52 120.351Z" fill="#C4BCA1"/>
<path d="M63.5302 502.705C59.0677 500.195 55.6312 497.613 51.8052 495.899C41.3501 491.214 40.8409 488.398 49.9462 479.708C69.2866 492.923 90.0601 491.076 111.065 485.751C111.072 484.59 111.078 483.43 111.085 482.269C104.599 482.919 98.0761 484.325 91.6376 484.01C84.9451 483.682 78.3342 481.691 70.3962 479.371C67.65 477.895 66.1949 477.476 64.74 477.057C64.74 477.057 64.8501 477.035 64.8182 476.264C66.2346 469.105 54.6944 457.455 72.32 458.133C73.216 459.894 73.8668 461.041 74.1319 462.575C74.05 463.476 74.3538 463.991 74.6576 464.506C75.4343 463.816 76.2111 463.126 76.9727 462.442C76.9578 462.449 76.9283 462.47 78.0526 462.504C94.6445 463.28 110.112 464.022 125.511 464.766C125.442 464.767 125.573 464.709 125.478 465.467C125.643 467.55 125.904 468.874 126.165 470.198C126.629 470.182 127.093 470.166 127.557 470.151C127.693 468.346 127.829 466.542 128.667 464.069C129.945 457.827 130.964 452.258 131.025 446.679C131.393 413.463 131.703 380.245 131.694 347.028C131.69 329.35 130.948 311.673 130.641 293.993C130.15 265.584 130.012 237.165 129.133 208.769C128.876 200.443 126.62 192.178 125.279 183.885C120.986 154.197 117.595 124.337 111.942 94.9101C109.76 83.5515 101.13 73.5542 97.8858 62.2358C95.366 53.4453 96.7494 43.5605 96.1931 34.1742C95.9419 29.9377 95.1927 25.7308 93.0417 21.7385C87.3061 44.3183 79.3108 66.9804 100.474 87.4622C88.6383 87.5966 80.4069 78.8864 80.3375 68.3823C80.2671 57.7164 76.2906 47.2404 83.4766 36.3276C86.3337 31.9883 81.592 22.651 81.1054 14.7533C104.003 14.3119 106.696 16.3655 108.336 34.2842C108.555 36.6776 108.155 39.1415 108.495 41.5079C111.464 62.2097 114.538 82.8967 117.58 103.588C118.456 103.462 119.333 103.336 120.209 103.209C120.524 100.851 120.839 98.4929 122.014 96.5086C123.724 100.631 124.863 104.341 125.378 108.135C128.969 134.555 123.903 161.637 132.422 187.82C135.443 197.106 138.486 204.632 147.481 209.708C152.281 212.417 158.968 218.238 158.729 222.298C157.692 239.939 159.139 258.612 144.546 272.95C140.209 277.21 136.279 283.738 135.656 289.598C132.919 315.342 128.845 341.496 143.485 365.569C144.277 366.872 144.778 368.691 144.616 370.183C142.886 386.072 141.474 402.019 139.003 417.798C136.848 431.558 147.065 460.651 159.158 466.754C183.135 478.854 208.617 485.948 235.934 483.978C256.764 482.477 277.651 481.503 298.406 479.295C329.809 475.956 361.788 478.243 392.416 466.663C405.201 461.829 419.329 463.928 428.529 478.082C430.061 480.439 438.727 481.161 441.634 479.126C456.358 468.82 470.235 470.916 483.954 480.362C478.407 482.997 473.288 486.414 468.168 486.417C450.798 486.425 433.427 485.226 414.905 484.439C412.597 492.839 405.366 492.187 397.4 488.904C375.214 479.761 352.229 482.132 329.306 484.215C314.566 485.555 299.905 487.881 285.148 488.85C266.913 490.047 248.613 490.239 230.345 490.968C213.548 491.639 196.76 492.836 179.96 493.019C172.109 493.104 164.238 491.344 154.102 490.153C153.397 488.195 152.197 483.059 149.761 478.596C147.095 473.711 143.286 469.448 139.859 464.586C139.843 464.455 139.943 464.65 140.154 465.716C142.675 472.379 145.087 478.171 147.59 484.184C143.805 484.784 141.061 485.219 137.49 485.784C140.184 490.078 142.198 493.288 144.719 497.307C142.219 497.969 140.79 498.617 139.332 498.691C121.676 499.59 103.999 500.175 86.3674 501.415C82.4073 501.693 78.6027 504.181 74.7266 505.652C71.2772 504.777 67.8279 503.903 63.5302 502.705Z" fill="#A89B81"/>
<path d="M75.6828 505.953C78.6028 504.181 82.4074 501.693 86.3675 501.415C103.999 500.175 121.676 499.59 139.332 498.691C140.79 498.617 142.219 497.969 144.72 497.307C142.198 493.288 140.184 490.078 137.49 485.784C141.061 485.219 143.805 484.784 147.59 484.184C145.087 478.171 142.675 472.379 140.134 465.731C140.005 464.875 139.976 464.914 139.976 464.914C143.286 469.448 147.095 473.711 149.762 478.596C152.197 483.059 153.397 488.195 154.102 490.153C164.238 491.344 172.109 493.104 179.96 493.019C196.76 492.836 213.548 491.639 230.345 490.968C248.613 490.239 266.913 490.047 285.148 488.85C299.905 487.881 314.567 485.555 329.306 484.215C352.229 482.132 375.214 479.761 397.4 488.904C405.366 492.187 412.597 492.839 414.905 484.439C433.427 485.226 450.798 486.425 468.168 486.417C473.289 486.414 478.407 482.997 484.763 480.004C491.099 479.182 496.2 479.501 501.719 480.507C520.163 494.217 521.038 494.299 536.038 484.075C540.381 481.6 543.955 479.361 548.443 477.081C560.744 474.811 559.241 465.759 560.039 456.864C562.65 442.291 564.832 428.552 567.665 414.091C571.281 399.943 574.248 386.516 577.887 372.916C580.206 371.204 581.851 369.663 583.496 368.122C581.291 383.982 579.577 399.93 576.763 415.682C572.803 437.854 568.188 459.914 563.525 481.953C561.528 491.392 557.322 497.035 545.416 496.425C513.732 494.801 481.966 494.676 450.228 494.259C441.014 494.138 431.056 492.984 422.73 495.938C409.013 500.804 395.898 501.416 382.69 496.637C358.048 487.721 333.264 493.114 308.438 494.592C278.37 496.382 248.287 498.161 218.183 499.018C188.446 499.864 158.952 498.603 129.377 506.371C112.943 510.687 94.2911 506.571 75.6828 505.953Z" fill="#857865"/>
<path d="M338.694 63.4922C337.062 59.6246 334.77 55.8966 333.917 51.8644C330.845 37.338 327.793 35.7412 314.892 42.9226C313.186 43.8723 311.723 45.2587 308.739 47.1916C302.268 47.064 296.518 47.4252 292.273 45.0732C280.734 38.6792 270.447 40.4281 259.081 45.8131C252.557 48.9036 243.636 51.4664 237.257 49.5071C215.728 42.894 194.492 45.4953 172.938 47.4928C166.344 48.1039 159.464 46.4974 152.806 45.3671C140.287 43.2418 127.835 40.7239 114.764 37.6666C113.982 33.2405 113.792 29.517 113.601 25.7936C148.025 34.7455 182.725 41.0218 218.579 37.8888C235.813 36.3831 253.423 33.0029 270.3 35.0686C294.404 38.0192 316.421 27.2549 339.159 27.6702C366.544 28.1703 390.523 21.9123 413.729 8.65263C417.891 6.27421 423.869 6.88231 429.038 6.483C445.869 5.18293 462.714 4.058 479.554 2.85503C480.758 2.76894 482.051 2.23776 483.145 2.52095C507.103 8.72371 530.939 1.91995 554.784 2.26949C565.592 2.42799 576.323 7.85808 587.845 11.9339C588.601 12.971 588.617 14.1158 588.617 14.1158C579.646 12.3831 570.733 9.70198 561.69 9.15675C550.289 8.46936 537.921 6.95391 527.522 10.4314C511.874 15.6644 497.083 13.8295 479.783 12.1808C470.224 13.0655 462.627 14.4054 455.123 14.0002C431.586 12.7291 410.054 17.3287 389.838 30.3486C383.653 34.3314 373.965 32.802 365.908 33.9822C359.338 34.9448 352.4 35.1417 346.345 37.5147C333.358 42.6046 339.008 54.1241 338.694 63.4922Z" fill="#ABA088"/>
<path d="M16.9512 186.574C18.4151 200.493 19.8792 214.411 21.3923 228.796C33.3356 230.888 42.4631 229.422 48.6017 218.254C51.009 213.874 55.7951 210.863 59.1282 206.916C65.3653 199.531 71.3327 191.918 77.4122 184.4C78.3269 184.942 79.2414 185.484 80.156 186.026C74.7055 194.814 69.3461 203.661 63.764 212.365C61.1776 216.397 57.0499 219.76 55.514 224.097C45.674 251.879 36.1021 279.765 27.112 307.831C25.5045 312.849 26.854 318.874 27.1343 324.42C27.5505 332.654 28.2731 340.873 28.7677 349.105C28.888 351.106 27.7511 353.758 28.6761 355.047C40.3231 371.28 27.3793 387.059 27.6423 403.107C27.956 422.233 24.5892 441.419 22.2039 461.298C20.5041 432.345 19.2776 402.677 18.37 373C17.486 344.102 17.7041 315.149 16.0454 286.3C13.5487 242.883 9.9529 199.527 6.58015 156.164C5.4627 141.795 3.59309 127.484 3.16136 112.192C5.84633 113.088 8.59717 114.792 8.85085 116.81C11.77 140.037 14.3102 163.312 16.9512 186.574ZM32.3463 280.323C37.4349 264.084 42.5234 247.845 47.8759 230.763C38.591 232.364 30.6307 233.736 20.7785 235.435C21.696 252.898 22.6261 270.599 23.7328 291.666C27.7135 286.619 29.5779 284.255 32.3463 280.323Z" fill="#897E6A"/>
<path d="M17.7952 186.186C14.31 163.311 11.7697 140.037 8.85063 116.809C8.59695 114.792 5.84611 113.088 3.30396 111.208C1.1413 81.787 -0.0698324 52.396 0.0031351 22.0585C14.4954 14.418 27.517 7.04634 43.2629 9.57534C27.4578 36.7086 24.1063 64.8796 35.6927 94.5257C36.8508 97.4892 36.9731 101.87 35.6219 104.641C23.8803 128.723 23.4097 154.845 21.0437 180.657C20.8813 182.429 19.4698 184.088 17.7952 186.186ZM14.0505 53.0821C16.4765 41.86 18.9025 30.6377 21.4535 18.8371C19.7825 19.5052 14.5733 19.9198 12.72 22.6281C5.92337 32.5602 -1.70352 42.4355 5.27762 56.1665C7.57023 60.6762 6.25194 67.2205 5.9506 72.8001C5.47846 81.5441 4.46729 90.2588 3.5646 100.322C7.74133 99.1553 10.1182 98.4913 11.7825 98.0263C14.0467 101.689 16.0273 104.894 18.0079 108.098C22.5773 89.1748 21.7433 71.8161 14.0505 53.0821Z" fill="#A89B82"/>
<path d="M44.3457 9.45739C27.517 7.04644 14.4954 14.4181 0.428344 21.2078C5.45966 16.4072 10.6245 9.85656 17.3667 6.90384C44.9826 -5.18984 72.1217 0.303556 99.2121 10.3758C106.644 13.1389 112.482 15.3868 113.273 24.9647C113.792 29.517 113.982 33.2404 114.827 38.7471C116.23 46.8899 117.072 53.24 117.706 59.6108C118.918 71.7793 120.011 83.9595 121.154 96.1348C120.839 98.493 120.524 100.851 120.209 103.209C119.333 103.336 118.456 103.462 117.58 103.588C114.538 82.8968 111.464 62.2098 108.495 41.5081C108.155 39.1416 108.555 36.6777 108.336 34.2843C106.696 16.3657 104.003 14.312 80.8881 13.8412C68.3931 12.2896 56.9108 10.8145 44.3457 9.45739Z" fill="#897E6A"/>
<path d="M122.014 96.5086C120.011 83.9594 118.918 71.7791 117.707 59.6107C117.072 53.2399 116.23 46.8898 115.419 39.4497C127.835 40.7237 140.288 43.2416 152.807 45.3669C159.464 46.4972 166.344 48.1037 172.938 47.4927C194.492 45.4952 215.729 42.8938 237.257 49.5069C243.636 51.4662 252.558 48.9034 259.081 45.813C270.447 40.4279 280.735 38.6791 292.273 45.073C296.518 47.4251 302.268 47.0638 308.301 47.9358C310.911 49.4081 312.55 50.8848 315.483 53.5266C307.738 55.1071 301.668 57.1671 295.527 57.4061C286.344 57.7635 283.086 63.4571 280.81 70.8199C275.78 87.0856 253.995 96.6558 238.508 90.3184C234.073 88.5033 228.312 89.9235 223.159 89.8602C223.545 94.9243 222.575 100.615 224.573 104.934C230.405 117.546 237.458 129.592 243.96 141.898C247.138 147.913 251.148 150.208 258.622 149.083C265.676 148.022 273.189 150.415 280.511 150.53C283.996 150.585 287.584 149.097 290.991 147.919C297.036 145.827 302.979 143.439 308.965 141.175C310.867 146.511 313.958 151.743 314.436 157.204C315.63 170.825 323.114 179.587 334.573 185.114C350.06 192.583 366.652 197.639 378.599 211.521C381.957 215.423 389.723 215.262 395.076 217.79C402.316 221.21 410.51 224.104 415.94 229.563C429.425 243.122 433.673 261.334 438.35 279.345C440.822 288.864 445.814 297.8 450.308 306.675C451.452 308.933 455.038 309.956 457.502 311.547C459.117 308.922 462.363 306.072 462.035 303.717C461.114 297.086 458.943 290.588 456.858 284.17C454.054 275.542 453.364 268.461 464.786 265.587C467.755 264.84 470.19 261.101 472.394 258.354C479.533 249.455 484.717 248.668 491.497 258.087C496.928 265.631 502.645 265.629 510.206 263.631C515.194 262.313 520.452 261.997 525.6 261.309C533.11 260.306 536.163 264.008 537.939 271.12C539.513 277.422 538.743 287.172 549.168 286.685C558.952 286.228 566.986 274.587 566.733 263.878C566.461 252.387 566.707 240.883 566.751 227.367C570.216 217.968 564.753 206.887 576.152 202.814C574.761 223.807 580.294 244.793 574.757 265.997C572.814 273.44 576.721 282.418 577.996 290.689C579.871 302.843 581.78 314.993 582.839 328.1C580.11 328.025 578.218 326.994 575.714 325.629C574.263 331.091 572.07 335.692 572.006 340.322C571.855 351.178 564.963 353.049 557.416 350.35C541.961 344.823 526.591 338.664 512.052 331.102C500.235 324.955 489.416 322.01 475.168 330.406C480.751 335.885 484.675 342.708 490.309 344.697C506.089 350.269 522.432 354.527 538.837 357.941C548.157 359.881 555.568 361.092 557.367 372.792C559.544 386.958 563.71 400.819 567.015 414.812C564.833 428.552 562.65 442.291 559.192 456.947C554.453 464.282 550.991 470.702 547.528 477.122C543.955 479.361 540.381 481.6 535.483 483.379C523.526 478.489 512.944 473.531 501.301 479.821C496.2 479.501 491.099 479.182 485.19 479.221C470.235 470.916 456.358 468.82 441.635 479.126C438.727 481.161 430.061 480.439 428.529 478.082C419.329 463.928 405.202 461.829 392.416 466.663C361.788 478.243 329.81 475.956 298.406 479.295C277.651 481.503 256.764 482.477 235.934 483.978C208.618 485.948 183.136 478.854 159.158 466.754C147.065 460.651 136.848 431.558 139.003 417.798C141.474 402.019 142.886 386.072 144.616 370.183C144.778 368.691 144.278 366.872 143.485 365.569C128.845 341.496 132.919 315.342 135.656 289.598C136.279 283.738 140.21 277.21 144.546 272.95C159.139 258.612 157.693 239.939 158.729 222.298C158.968 218.238 152.281 212.417 147.482 209.708C138.486 204.632 135.443 197.106 132.422 187.82C123.904 161.637 128.969 134.555 125.378 108.135C124.863 104.341 123.724 100.631 122.014 96.5086Z" fill="#C5BEA2"/>
<path d="M576.117 201.914C564.753 206.887 570.216 217.968 566.717 226.334C555.477 226.391 549.897 220.34 549.944 207.225C550.004 190.775 551.952 174.277 551.067 157.909C550.771 152.438 545.264 145.977 540.378 142.321C532.84 136.681 528.074 131.278 527.267 121.056C526.218 107.783 520.593 104.356 509.002 110.022C494.993 116.871 485.76 111.1 477.623 101.307C469.911 92.0257 462.083 89.5562 451.734 96.7969C449.404 98.4268 445.921 98.4092 442.429 98.0608C457.289 80.0651 474.959 65.9158 496.863 58.255C511.2 53.2404 526.225 50.1189 541.043 46.5659C560.665 41.8606 578.179 55.4069 578.903 75.6288C579.782 100.161 580.823 124.694 581.183 149.235C581.317 158.39 579.726 167.571 578.934 177.841C577.991 186.3 577.036 193.658 576.117 201.914Z" fill="#F7E9C3"/>
<path d="M338.686 64.2391C339.008 54.1241 333.359 42.6046 346.346 37.5146C352.4 35.1417 359.338 34.9447 365.908 33.9822C373.965 32.8019 383.654 34.3314 389.838 30.3485C410.054 17.3286 431.586 12.729 455.123 14.0001C462.627 14.4054 470.225 13.0655 478.77 12.249C479.197 13.848 479.088 17.0153 478 17.3968C466.537 21.4175 454.786 24.6387 443.4 28.8492C438.085 30.8144 433.25 34.2422 428.45 37.3924C422.041 41.5997 415.905 46.2224 409.598 50.5889C405.364 53.5198 400.174 55.5642 396.907 59.3086C385.594 72.2769 373.008 75.7301 357.608 66.9705C353.148 64.4331 348.286 62.5999 342.315 59.848C342.643 64.2467 342.876 67.3741 343.109 70.5014C342.518 70.654 341.927 70.8066 341.336 70.9592C340.45 68.9682 339.564 66.9771 338.686 64.2391Z" fill="#C5BEA2"/>
<path d="M124.511 183.962C126.62 192.178 128.876 200.443 129.133 208.769C130.012 237.165 130.15 265.584 130.641 293.993C130.948 311.673 131.69 329.35 131.694 347.028C131.703 380.245 131.393 413.463 131.025 446.679C130.964 452.258 129.945 457.827 128.07 463.962C126.371 464.585 125.972 464.647 125.573 464.709C125.573 464.709 125.442 464.767 125.285 463.94C113.999 458.655 102.87 454.197 91.6793 448.764C90.0035 440.565 88.3889 433.342 86.7638 425.233C86.6273 422.587 86.5013 420.826 86.3754 419.065C89.6469 411.521 92.9184 403.977 97.0593 395.198C99.4156 392.148 101.128 390.47 102.343 388.488C104.951 384.232 110.336 377.284 109.205 375.931C105.397 371.379 99.2338 368.794 93.9718 365.457C88.9699 359.025 83.9682 352.594 78.0437 345.035C77.2279 339.903 77.335 335.898 78.2912 331.79C87.0356 325.857 95.337 320.496 102.736 314.093C115.342 303.186 116.742 296.37 107.667 282.823C104.182 277.62 97.0468 274.86 91.5208 270.075C87.995 261.106 83.9064 253.239 81.3293 244.905C80.1566 241.113 80.3274 234.445 82.7155 232.434C93.9508 222.977 106.166 214.682 117.284 206.522C116.798 199.804 116.399 194.283 116 188.762C118.581 187.187 121.163 185.613 124.511 183.962Z" fill="#EDD8AB"/>
<path d="M115.844 188.038C116.399 194.283 116.798 199.804 117.284 206.522C106.166 214.682 93.9508 222.977 82.7155 232.435C80.3274 234.445 80.1566 241.114 81.3293 244.906C83.9063 253.239 87.995 261.106 90.834 270.638C90.8922 275.734 91.7916 279.33 92.2266 282.98C92.9344 288.92 96.0005 298.172 93.4028 300.28C82.933 308.777 84.2522 322.252 77.4419 331.893C77.335 335.898 77.2279 339.903 77.2249 344.9C76.516 346.831 75.703 347.772 74.89 348.712C71.6051 344.76 68.3204 340.807 66.1083 338.146C70.0058 326.796 73.401 316.821 76.8678 306.872C77.7885 304.229 78.6022 301.467 80.024 299.094C87.5084 286.602 86.4133 271.72 77.0551 260.111C75.3255 257.966 73.4595 255.734 72.4681 253.222C66.6589 238.503 69.507 232.895 83.4585 222.56C94.0188 214.738 107.812 209.095 109.209 192.806C109.427 190.254 112.539 187.949 114.354 185.561C114.364 185.548 115.02 185.912 115.24 186.202C115.473 186.509 115.545 186.939 115.844 188.038Z" fill="#A89B82"/>
<path d="M93.0769 365.468C99.2338 368.794 105.397 371.379 109.205 375.932C110.336 377.284 104.951 384.232 102.343 388.488C101.128 390.47 99.4155 392.148 97.1898 394.343C91.6939 399.011 86.9367 403.3 81.5904 408.12C77.4572 401.976 73.8111 396.443 83.8219 390.556C88.1987 387.981 90.8689 382.508 94.6076 377.998C87.3279 371.983 75.5647 371.611 77.9995 358.818C83.1374 361.231 87.6596 363.355 93.0769 365.468Z" fill="#A89B82"/>
<path d="M85.5488 418.898C86.5017 420.826 86.6277 422.587 85.9857 425.603C74.3241 431.326 73.2609 440.271 74.1225 450.893C72.3121 451.863 70.9171 452.223 69.522 452.583C70.5498 442.855 70.9133 432.993 72.8529 423.451C74.0255 417.683 78.7995 415.407 85.5488 418.898Z" fill="#A89B82"/>
<path d="M68.6234 452.67C70.9168 452.223 72.3118 451.863 75.1603 450.955C80.773 450.453 84.9325 450.5 89.3623 451.132C90.2638 452.836 90.8952 453.956 90.4844 455.11C83.653 455.936 77.8639 456.727 72.0748 457.518C54.6945 457.455 66.2346 469.105 64.7738 476.301C62.3702 473.876 60.0971 470.547 57.5427 467.45C56.0724 465.667 54.1467 464.259 51.2674 462.465C50.1088 462.248 49.6186 461.638 49.6186 461.638C55.6541 458.678 61.6898 455.718 68.6234 452.67Z" fill="#897E6A"/>
<path d="M109.884 121.297C110.463 125.796 110.678 129.35 110.893 132.904C100.488 121.884 100.932 109.338 106.742 96.042C107.668 104.145 108.594 112.248 109.884 121.297Z" fill="#ABA088"/>
<path d="M65.1441 477.726C66.1948 477.476 67.6499 477.895 69.5627 478.958C68.5299 479.2 67.0391 478.797 65.1441 477.726Z" fill="#897E6A"/>
<path d="M45.4601 464.897C46.4052 463.957 47.3502 463.016 48.957 461.857C49.6187 461.638 50.1089 462.248 50.3635 462.551C49.3745 463.548 48.131 464.242 46.16 464.906C45.4325 464.875 45.4601 464.897 45.4601 464.897Z" fill="#897E6A"/>
<path d="M45.4215 464.861C45.058 465.153 44.7056 465.46 44.3532 465.766C44.4797 465.546 44.6063 465.327 45.0965 465.002C45.4603 464.897 45.4327 464.875 45.4215 464.861Z" fill="#897E6A"/>
<path d="M91.5264 455.076C90.8951 453.956 90.2637 452.836 90.0309 450.951C90.8663 450.036 91.3035 449.888 91.7405 449.74C102.87 454.197 113.999 458.655 125.354 463.939C110.112 464.022 94.6444 463.28 78.6251 461.815C85.8989 459.872 93.7243 458.653 103.812 457.081C98.5889 456.229 95.0576 455.652 91.5264 455.076Z" fill="#8E785C"/>
<path d="M90.4841 455.11C95.0576 455.652 98.5889 456.229 103.812 457.081C93.7242 458.653 85.8989 459.872 77.5009 461.781C76.9282 462.47 76.9577 462.449 76.3544 462.387C75.3398 462.279 74.9287 462.233 74.5174 462.188C73.8667 461.041 73.2159 459.894 72.3199 458.133C77.8638 456.727 83.6529 455.936 90.4841 455.11Z" fill="#A79981"/>
<path d="M125.478 465.467C125.972 464.647 126.371 464.585 127.368 464.63C127.829 466.542 127.693 468.346 127.557 470.151C127.093 470.166 126.629 470.182 126.165 470.198C125.904 468.874 125.643 467.55 125.478 465.467Z" fill="#8E785C"/>
<path d="M74.1318 462.575C74.9287 462.233 75.3398 462.279 76.3693 462.38C76.211 463.126 75.4342 463.816 74.6575 464.506C74.3537 463.991 74.0499 463.476 74.1318 462.575Z" fill="#8E785C"/>
<path d="M140.024 464.861C139.943 464.65 139.843 464.455 139.859 464.586C139.975 464.914 140.005 464.875 140.024 464.861Z" fill="#857865"/>
<path d="M567.665 414.092C563.71 400.819 559.544 386.959 557.367 372.792C555.569 361.092 548.157 359.881 538.837 357.941C522.432 354.527 506.089 350.269 490.309 344.697C484.676 342.708 480.751 335.885 475.168 330.406C489.417 322.01 500.235 324.955 512.052 331.102C526.591 338.664 541.961 344.824 557.416 350.35C564.963 353.049 571.856 351.179 572.006 340.323C572.07 335.692 574.263 331.091 575.714 325.629C578.218 326.994 580.111 328.026 582.741 329.213C581.321 343.303 579.162 357.237 577.109 372.129C574.248 386.516 571.282 399.943 567.665 414.092Z" fill="#EDD8AB"/>
<path d="M501.719 480.507C512.944 473.532 523.526 478.49 534.713 483.616C521.038 494.3 520.164 494.217 501.719 480.507Z" fill="#A79981"/>
<path d="M31.894 281.107C29.5777 284.254 27.7133 286.618 23.7327 291.665C22.6259 270.598 21.6958 252.897 20.7783 235.435C30.6305 233.736 38.5908 232.363 47.8757 230.762C42.5232 247.844 37.4348 264.083 31.894 281.107Z" fill="#BBB096"/>
<path d="M14.1875 54.1176C21.7436 71.8162 22.5776 89.1749 18.0082 108.098C16.0276 104.894 14.047 101.689 11.7828 98.0264C10.1185 98.4913 7.74166 99.1554 3.56493 100.322C4.46762 90.2589 5.4788 81.5442 5.95094 72.8002C6.25227 67.2206 7.57057 60.6763 5.27795 56.1666C-1.70319 42.4356 5.9237 32.5603 12.7203 22.6282C14.5736 19.9199 19.7828 19.5053 21.4538 18.8372C18.9028 30.6378 16.4768 41.8601 14.1875 54.1176Z" fill="#C4BCA1"/>
<path d="M78.2913 331.79C84.2525 322.252 82.9333 308.777 93.4031 300.28C96.0008 298.172 92.9347 288.92 92.2269 282.98C91.7919 279.33 90.8925 275.734 90.8885 271.551C97.047 274.86 104.182 277.62 107.667 282.823C116.742 296.37 115.342 303.186 102.737 314.094C95.3372 320.496 87.0359 325.857 78.2913 331.79Z" fill="#C5BEA2"/>
<path d="M91.6794 448.765C91.3036 449.889 90.8664 450.037 89.7607 450.366C84.9326 450.501 80.773 450.454 75.5756 450.345C73.2607 440.272 74.3238 431.327 85.9961 426.489C88.3889 433.342 90.0035 440.566 91.6794 448.765Z" fill="#C5BEA2"/>
<path d="M583.686 367.154C581.851 369.663 580.206 371.204 577.782 371.958C579.162 357.237 581.321 343.303 583.577 328.257C581.78 314.993 579.871 302.843 577.996 290.689C576.721 282.418 572.814 273.44 574.757 265.997C580.294 244.793 574.761 223.808 576.117 201.915C577.036 193.658 577.991 186.3 578.945 178.943C586.103 173.238 588.853 166.417 586.694 156.99C585.304 150.916 586.723 144.256 586.115 137.932C585.218 128.585 583.235 119.334 582.505 109.981C582.085 104.599 583.224 99.0959 584.452 92.6857C586.057 91.7543 586.872 91.7846 587.688 91.815C589.518 112.664 593.218 133.56 592.689 154.348C592.077 178.384 586.47 202.268 585.401 226.324C584.446 247.828 584.293 269.923 588.176 290.947C592.965 316.886 589.93 341.381 583.686 367.154Z" fill="#ABA088"/>
<path d="M588.031 90.9127C586.873 91.7847 586.058 91.7543 584.632 91.7403C587.221 66.8081 590.421 41.8595 593.71 15.8557C595.271 17.9516 597.824 21.0292 598.044 24.2652C599.577 46.8328 597.117 68.9084 588.031 90.9127Z" fill="#BBB096"/>
<path d="M589.265 14.1234C588.618 14.1157 588.602 12.9709 588.591 12.3995C589.305 12.1933 590.03 12.5584 590.98 13.5141C590.773 14.1134 590.342 14.1223 589.265 14.1234Z" fill="#BBB096"/>
<path d="M548.443 477.081C550.991 470.702 554.453 464.282 558.763 457.78C559.241 465.758 560.744 474.811 548.443 477.081Z" fill="#A89B81"/>
</svg>
