<svg width="489" height="1221" viewBox="0 0 489 1221" fill="none" xmlns="http://www.w3.org/2000/svg">
<path d="M426.949 387.049C428.36 391.959 428.472 397.889 431.399 401.607C446.395 420.661 445.183 441.065 438.228 462.383C437.514 464.572 436.876 468.074 438.018 469.374C446.754 479.326 439.427 488.837 437.432 500.3C434.335 509.22 432.497 516.882 428.612 523.309C421.978 534.281 422.532 545.285 425.332 556.922C426.532 561.906 426.916 567.086 427.815 573.148C438.253 571.937 441.197 582.28 444.273 591.508C445.72 595.849 443.515 601.337 444.708 605.843C451.883 632.94 442.342 653.132 419.031 668.41C409.123 671.744 399.667 674.165 391.246 678.564C379.762 684.563 376.968 696.388 381.437 705.891C388.414 720.731 382.312 736.909 384.301 752.394C384.525 754.137 381.644 756.205 380.381 758.233C378.998 760.451 377.823 762.797 375.091 767.742C381.542 768.072 385.984 769.095 390.082 768.313C395.502 767.279 400.652 764.833 405.917 762.991C405.917 762.989 405.911 762.986 406.27 763.636C407.396 764.915 408.161 765.544 408.927 766.173C416.361 770.054 424.096 773.465 431.132 777.966C436.66 781.502 441.324 786.385 445.865 791.848C439.991 802.715 434.626 812.404 429.03 822.508C432.269 823.279 435.628 824.078 440.291 825.188C439.542 831.948 439.15 838.228 438.086 844.392C436.725 852.273 437.228 858.857 443.445 865.309C447.053 869.053 447.611 875.733 448.475 881.19C441.769 881.685 436.13 882.081 429.432 882.551C433.853 894.231 440.476 891.799 447.257 889.777C451.549 902.411 455.834 914.097 460.029 926.705C456.464 935.595 450.541 943.398 449.99 951.564C448.566 972.677 446.938 994.469 460.891 1012.63C457.125 1015.09 452.321 1017.27 451.903 1020.09C448.951 1040.08 446.899 1060.19 443.775 1080.51C435.301 1090.32 446.803 1088.94 449.679 1093.45C453.428 1105.09 453.598 1113.85 439.731 1117.23C436.848 1117.93 432.898 1122 432.708 1124.74C431.61 1140.53 424.813 1146.54 409.014 1141.4C407.263 1140.83 402.055 1144.69 401.754 1146.94C400.542 1155.99 418.712 1169.66 428.13 1168.52C425.655 1175.78 423.367 1182.12 420.805 1189.21C413.129 1189.21 405.024 1190.15 397.212 1189.03C373.114 1185.59 350.094 1187.05 328.105 1198.93C325.045 1200.58 318.957 1197.68 314.718 1195.85C309.13 1193.44 304.278 1189.17 298.592 1187.18C283.652 1181.94 269.368 1184.67 255.138 1192.12C250.82 1189.78 247.361 1187.73 243.722 1186.07C233.79 1181.56 223.431 1177.75 225.81 1163.15C226.008 1161.94 218.768 1159.02 214.717 1157.73C210.459 1156.36 205.882 1156 201.42 1154.23C200.897 1147.29 199.495 1141.22 200.082 1135.36C201.351 1122.67 195.143 1115.28 184.131 1111.63C172.866 1107.9 161.235 1105.26 148.323 1101.76C146.458 1109.07 144.9 1115.18 142.361 1121.4C130.609 1122.37 119.736 1122.62 109.119 1124.4C105.163 1125.07 99.8618 1128.57 98.5604 1132.05C95.3383 1140.66 90.4807 1145.28 81.2191 1146.28C78.5004 1146.57 74.7307 1149.76 73.8595 1152.42C69.1825 1166.68 56.2631 1180.16 68.6487 1196.54C69.3989 1197.53 68.6265 1199.67 67.6094 1201.24C60.4989 1200.12 54.3414 1199.04 49.9465 1198.28C49.9465 1182.24 49.9465 1166.82 50.7139 1150.97C53.545 1145.08 54.5973 1138.88 57.9203 1134.34C62.395 1128.22 61.4761 1123.74 55.9216 1120.27C45.8965 1114.02 43.4875 1105.59 46.942 1094.84C46.942 1094.84 47.0348 1094.96 47.543 1094.75C48.2201 1093.8 48.3892 1093.05 49.4088 1092.13C60.9521 1082.77 47.0993 1080.9 46.8014 1075.28C47.7616 1066.42 47.4823 1057.71 46.3313 1049.11C45.4333 1042.4 42.5534 1035.9 42.1254 1029.2C40.9899 1011.45 35.2353 995.536 25.1613 981.035C23.4958 964.036 21.4244 947.06 20.4773 930.021C20.2654 926.209 22.9601 920.664 26.0973 918.524C36.5369 911.404 39.1794 904.376 33.3753 893.389C30.2087 887.394 26.6786 881.592 24.0573 874.375C26.4698 866.224 28.1377 859.4 29.9611 851.769C33.9215 837.819 32.8771 823.023 43.7619 812.202C44.9028 811.068 44.1725 806.432 42.7655 804.615C31.3356 789.857 46.1826 773.677 39.9762 758.766C49.9314 752.129 45.5016 742.677 45.6718 733.871C62.6262 721.992 63.039 708.803 47.5444 698.691C49.0266 690.739 50.1956 684.384 43.7773 678.129C40.6917 675.122 41.0669 668.568 40.569 662.894C42.5279 647.089 43.728 632.005 45.0841 616.936C45.7793 609.209 46.4768 601.462 47.7312 593.816C48.2699 590.532 49.7202 585.101 51.6193 584.697C67.7734 581.261 65.6942 570.291 63.663 558.263C63.4005 555.604 62.708 553.576 61.8841 550.656C55.9322 533.175 47.2473 517.159 51.5111 497.56C51.4856 492.577 51.4464 488.591 51.5845 483.706C51.6745 481.592 51.5876 480.378 51.5386 478.203C51.5189 474.043 51.4612 470.842 51.5632 466.633C49.2587 446.303 47.0107 426.949 44.173 407.682C43.4936 403.068 40.8502 398.743 39.7698 393.609C49.226 389.502 61.8706 388.481 65.8943 382.063C71.57 373.009 68.0832 358.847 82.1859 352.339C81.2006 351.597 80.2154 350.855 79.2301 350.113C75.7966 350.381 72.3632 350.649 68.1311 350.98C68.7123 339.393 69.2589 328.493 69.8875 315.957C79.601 320.504 86.7731 323.862 93.9453 327.22C94.5409 326.248 95.1366 325.277 95.7322 324.305C86.3622 314.922 83.7471 298.645 66.1357 297.649C58.5292 297.219 50.9658 296.045 43.3603 295.575C34.4506 295.024 29.938 290.233 30.1891 281.652C30.4108 274.067 31.6882 266.512 33.4292 259.287C69.3997 262.862 104.42 271.67 139.497 260.426C136.112 259.194 132.738 259.376 129.363 259.521C113.47 260.202 97.5094 262.075 81.7 261.209C65.7775 260.336 50.0047 256.737 34.3279 253.382C35.3268 248.794 36.1641 245.155 37.9927 241.616C43.6406 242.189 48.2971 242.66 53.4742 243.185C46.9575 236.031 47.9997 207.629 54.7151 199.331C57.1165 203.462 59.4771 207.522 62.7502 213.152C61.4572 200.564 59.7488 190.376 59.5566 180.159C59.3804 170.813 60.8439 161.436 62.3435 152.417C64.9552 151.616 68.241 150.612 68.3708 149.297C68.6616 146.346 67.3847 143.241 67.5854 140.108C76.668 134.13 84.7224 125.973 78.1492 116.475C68.6554 102.758 71.2197 90.2572 76.8407 77.1127C121.775 119.682 165.949 161.897 211.874 205.787C200.612 212.195 192.149 218.516 182.653 222.101C162.817 229.59 142.435 235.634 121.271 242.323C109.171 243.638 98.0776 244.902 83.9651 246.511C97.1854 253.333 103.969 252.644 123.242 244.658C137.55 244.946 150.221 234.982 163.378 240.706C185.669 225.296 215.1 218.395 230.052 193.807C223.531 194.312 214.712 197.751 211.139 194.815C190.656 177.986 168.636 161.843 152.381 141.319C125.041 106.798 90.2586 80.6821 59.5512 49.6803C65.3696 46.2699 70.8037 43.6426 77.0895 41.0368C84.9397 39.2229 95.8256 39.4498 98.1244 35.1214C102.857 26.2108 110.088 25.9764 118.068 24.5062C146.667 27.1546 174.528 29.415 202.433 30.7528C206.422 30.9441 210.625 26.6713 215.706 24.3361C224.758 22.6271 232.835 21.0465 241.756 19.5104C243.728 19.5241 244.855 19.4933 246.788 19.8334C249.577 25.458 251.561 30.7115 253.412 36.9206C249.965 44.841 246.65 51.8059 242.281 60.986C231.723 58.4103 219.193 56.0515 207.287 51.9025C204.684 50.9952 204.358 43.6853 202.825 39.38C202.679 38.9695 201.406 38.9597 199.668 38.5062C198.428 42.3376 197.172 46.2157 196.087 49.5675C169.014 45.1427 142.427 40.7972 115.839 36.4517C131.574 44.1241 147.616 49.0024 163.61 54.0321C172.028 56.6793 180.209 60.251 188.766 62.2523C209.425 67.0836 230.249 71.2089 250.992 75.6808C257.266 77.0332 263.495 78.5888 269.947 80.8737C275.094 84.9957 280.038 88.2954 284.953 92.6047C279.063 112.739 273.204 131.864 266.91 152.408C269.495 148.409 272.181 145.521 273.43 142.107C279.84 124.595 285.881 106.947 293.047 89.3256C303.484 86.5417 313.055 84.1345 322.282 80.7826C324.797 79.8689 327.335 76.3918 328.069 73.6172C334.828 48.0846 353.603 36.5445 377.442 31.5297C386.575 29.6084 389.629 24.8613 389.907 16.2703C395.785 21.1648 400.783 26.1903 406.016 31.7974C406.957 32.7464 407.664 33.1138 408.299 34.3177C409.046 37.1144 409.865 39.0746 410.697 41.7523C411.471 44.2059 412.231 45.9421 413.059 48.625C416.366 56.3733 419.605 63.1747 422.86 69.9113C422.876 69.8463 422.757 69.9073 422.721 71.0156C423.678 81.3795 424.67 90.6352 425.662 99.8908C426.536 103.783 426.21 108.678 428.486 111.4C440.201 125.409 437.454 140.247 431.181 156.423C427.71 159.157 424.657 160.485 423.153 162.813C414.423 176.321 412.448 195.938 390.373 197.282C388.503 197.396 385.492 204.402 385.705 208.049C386.259 217.514 391.301 224.504 400.834 228.328C399.96 233.462 399.145 237.677 397.618 242.275C388.534 248.95 382.691 256.867 382.424 267.673C382.125 279.78 375.218 285.583 364.406 288.49C360.558 289.525 357.003 291.604 353.208 292.89C343.878 296.053 337.366 301.969 338.385 312.219C339.368 322.105 347.137 323.749 355.968 324.728C371.078 326.404 374.155 332.781 368.624 346.478C365.187 354.991 365.905 362.537 376.267 365.638C386.4 368.671 391.281 373.931 382.668 387.052C392.046 387.682 401.02 391.061 405.15 387.972C413.282 381.889 419.61 384.422 426.949 387.049ZM381.215 888.018C380.826 887.302 380.262 886.771 378.479 885.138C376.301 884.852 374.123 884.567 371.338 882.743C367.82 878.238 364.302 873.734 360.73 869.16C350.06 878.6 346.056 893.11 353.163 897.32C366.437 905.184 379.982 915.078 398.531 909.211C394.415 901.068 393.604 891.276 381.565 890.298C381.565 890.298 381.488 889.165 381.215 888.018ZM312.405 1087.94C314.087 1086.83 315.836 1085.81 317.44 1084.6C326.319 1077.9 328.962 1067.85 323.577 1059.31C318.093 1050.61 311.276 1053.22 303.688 1056.87C301.333 1058.01 296.511 1055.77 293.685 1053.82C287.551 1049.59 281.905 1044.63 276.2 1039.81C272.652 1036.81 267.372 1034.02 266.377 1030.23C264.456 1022.89 260.93 1020.1 254.603 1023.32C248.861 1026.24 244.126 1030.31 247.685 1038.81C249.829 1043.94 251.306 1051.5 249.046 1055.89C243.102 1067.44 248.951 1072.8 257.791 1076.58C269.614 1081.64 281.736 1086.21 294.091 1089.72C299.228 1091.18 305.297 1089.36 312.405 1087.94ZM161.424 961.576C143.37 963.687 135.167 980.988 120.491 988.539C117.817 989.915 118.082 997.411 117.425 1002.14C116.985 1005.3 117.834 1008.68 117.203 1011.78C115.142 1021.9 111.731 1033.5 100.248 1033.88C83.1466 1034.45 69.7634 1040.32 56.0668 1055C65.2183 1053.04 71.7624 1052.15 77.9587 1050.18C84.8262 1047.98 91.7253 1045.41 97.9683 1041.88C104.55 1038.15 112.165 1034.26 116.092 1028.31C121.453 1020.19 123.629 1010 127.42 1000.8C129.218 996.439 130.499 990.726 133.911 988.371C144.973 980.74 156.64 973.855 168.583 967.664C183.18 960.096 196.819 939.9 194.005 925.269C189.992 929.639 186.291 934.423 184.402 939.838C180.672 950.53 173.847 957.601 161.424 961.576ZM260.081 184.318C234.657 219.828 194.36 233.323 158.085 253.028C212.441 253.41 293.308 176.734 293.1 122.469C281.623 143.939 271.249 163.342 260.081 184.318ZM78.3946 926.188C79.8373 918.271 81.2799 910.354 83.184 899.904C74.272 901.398 65.4217 900.315 61.2025 904.224C55.6696 909.351 51.4798 913.171 43.4363 913.984C39.5951 914.372 36.3986 921.134 32.9101 925.008C36.9266 927.558 41.0561 932.407 44.9374 932.217C55.5701 931.694 66.0984 929.051 78.3946 926.188ZM74.5509 156.668C76.6176 165.831 78.6758 174.995 80.7534 184.156C82.6894 192.693 89.7136 192.416 95.1111 190.387C100.556 188.341 109.594 181.561 108.993 180.044C105.065 170.124 99.16 160.932 93.3032 151.889C92.4905 150.635 88.2564 150.955 85.8399 151.529C82.4069 152.344 79.1904 154.071 74.5509 156.668ZM315.065 610.307C310.926 616.583 308.007 624.464 302.358 628.755C294.138 635.001 296.93 642.244 297.701 649.358C297.847 650.71 305.186 653.035 305.699 652.336C314.869 639.863 324.233 627.399 331.686 613.902C333.39 610.816 328.104 603.874 326.035 598.707C322.651 602.032 319.266 605.357 315.065 610.307ZM397.209 417.637C389.176 421.085 385.282 418.053 383.833 409.787C383.481 407.781 380.583 406.221 378.856 404.456C377.557 405.729 375.782 406.774 375.042 408.316C371.917 414.823 369.101 421.479 366.428 427.502C369.16 428.664 375.822 429.453 378.226 433.068C380.904 437.098 379.711 443.698 380.203 449.18C381.243 449.133 382.283 449.086 383.323 449.039C383.85 442.516 384.377 435.992 384.887 429.68C390.039 428.291 394.906 427.654 399.131 425.66C403.852 423.432 405.1 420.057 397.209 417.637ZM327.438 281.6C328.029 276.788 328.621 271.977 329.445 265.272C318.195 268.117 310.242 270.129 302.319 272.133C305.479 285.439 305.468 285.379 316.099 283.433C319.255 282.855 322.493 282.724 327.438 281.6ZM304.83 1021.26C309.461 1019.08 314.092 1016.9 318.206 1014.97C312.03 1010.03 306.248 1005.41 301.601 1001.7C296.814 1005.33 291.174 1009.6 286.619 1013.05C290.806 1017.28 295.235 1021.75 300.495 1027.06C300.825 1026.7 302.563 1024.85 304.83 1021.26ZM148.011 83.0892C142.958 81.9275 137.817 79.6541 132.886 80.0433C130.163 80.2582 127.792 84.9374 125.263 87.6041C130.55 89.7652 135.784 93.2949 141.147 93.503C143.779 93.6051 146.651 87.5469 148.011 83.0892ZM333.638 722.22C348.553 724.658 345.444 711.449 351.271 704.616C335.691 701.777 329.598 707.82 333.638 722.22ZM90.618 61.3816C92.5438 61.9602 94.5944 63.2602 96.3676 62.9544C99.2936 62.4498 102.04 60.9079 104.863 59.8032C103.023 56.7705 101.642 53.2585 99.165 50.8917C97.764 49.553 94.5221 49.6686 92.1821 49.8915C88.6735 50.2256 85.2289 51.2299 81.7572 51.9491C84.1344 54.8561 86.5117 57.7632 90.618 61.3816ZM377.326 641.927C372.1 644.376 366.874 646.825 359.794 650.144C365.496 655.568 368.535 658.458 374.754 664.374C376.587 654.927 377.813 648.611 377.326 641.927ZM388.949 80.8148C385.007 86.3017 381.065 91.7886 377.123 97.2756C378.253 98.2485 379.384 99.2213 380.514 100.194C387.589 93.4364 394.663 86.6786 401.738 79.9208C400.918 78.4955 400.1 77.0701 399.281 75.6448C396.215 76.9442 393.149 78.2436 388.949 80.8148ZM362.852 399.955C365.502 401.149 368.152 402.342 372.886 404.474C364.242 383.558 360.233 378.839 351.254 379.604C355.044 386.292 358.493 392.378 362.852 399.955ZM172.961 1047.49C175.248 1041.63 177.834 1035.85 179.625 1029.84C180.116 1028.19 178.227 1025.83 177.431 1023.8C175.471 1024.63 171.888 1025.34 171.81 1026.33C171.235 1033.56 171.361 1040.84 172.961 1047.49ZM154.728 1086.49C155.952 1087.64 157.56 1089.99 158.337 1089.74C165.008 1087.61 169.147 1070.43 163.091 1061.46C160.124 1070.36 157.718 1077.58 154.728 1086.49ZM407.479 449.003C404.007 441.495 399.545 435.196 390.078 433.389C391.172 447.388 396.8 452.725 407.479 449.003ZM356.108 161.278C357.928 154.656 359.749 148.034 361.57 141.412C359.937 140.883 358.305 140.355 356.672 139.826C353.988 147.268 351.304 154.71 348.62 162.151C350.885 162.405 353.149 162.659 356.108 161.278ZM186.81 986.502C185.75 992.875 184.69 999.249 183.63 1005.62C184.969 1005.92 186.308 1006.22 187.647 1006.52C189.869 1001.17 192.566 995.951 194.172 990.417C195.601 985.494 194.142 982.212 186.81 986.502ZM317.709 307.475C319.816 314.476 321.924 321.478 324.031 328.48C325.579 328.062 327.127 327.644 328.675 327.226C327.337 320.155 326.127 313.053 324.401 306.078C324.272 305.556 320.454 305.946 317.709 307.475ZM399.552 1071.73C391.145 1074.28 392.035 1078.78 398.775 1081.28C404.266 1083.32 410.843 1082.42 416.939 1082.83C417.026 1081.82 417.114 1080.81 417.202 1079.79C411.865 1077.32 406.528 1074.84 399.552 1071.73ZM246.499 925.984C257.691 928.868 259.407 918.566 264.731 913.196C255.144 911.469 249.679 916.374 246.499 925.984ZM337.238 202.015C345.657 198.479 347.514 190.49 339.009 181.227C338.022 187.656 337.035 194.084 337.238 202.015ZM333.341 347.659C336.768 353.773 340.194 359.887 343.62 366.001C344.833 365.214 346.045 364.428 347.258 363.641C344.686 357.544 342.284 351.362 339.311 345.468C338.972 344.797 335.426 345.742 333.341 347.659ZM316.522 1037.94C320.581 1039.28 324.639 1040.62 328.698 1041.96C329.376 1040.58 330.055 1039.21 330.734 1037.83C325.231 1033.97 319.729 1030.11 314.226 1026.25C313.223 1027.23 312.221 1028.21 311.218 1029.19C312.53 1031.72 313.841 1034.25 316.522 1037.94ZM373.118 118.215C375.163 113.868 377.208 109.522 379.968 103.657C368.561 107.549 364.779 115.303 366.896 128.12C369.063 124.771 370.674 122.28 373.118 118.215ZM326.683 229.52C328.205 230.892 329.726 232.263 333.935 236.056C332.096 225.394 330.848 218.151 329.599 210.908C327.95 211.044 326.301 211.179 324.652 211.315C324.984 216.881 325.315 222.447 326.683 229.52Z" fill="#C5BDA2"/>
<path d="M117.345 23.823C110.088 25.9764 102.857 26.2108 98.1247 35.1215C95.8258 39.4498 84.94 39.2229 76.2722 40.5913C61.6362 36.1709 48.0267 33.9247 38.6902 22.0903C36.6682 19.5273 30.5782 19.2037 26.5733 19.6686C25.0768 19.8423 24.184 25.2105 22.9332 28.8399C22.8274 29.8885 22.8043 30.3073 22.0372 31.4109C23.7135 47.7473 26.1337 63.3989 28.3847 79.9542C32.5462 89.0721 36.8768 97.2862 41.1985 105.483C36.7491 106.009 34.1346 108.36 36.6653 116.111C42.0566 132.622 45.9021 149.638 50.3813 166.447C49.8393 166.626 49.2975 166.804 48.7555 166.983C47.312 165.317 45.8684 163.651 44.4167 161.042C41.136 147.892 37.8633 135.684 34.3871 122.587C32.9479 116.938 31.7117 112.179 30.3354 106.879C20.4987 114.854 14.2235 143.667 19.8292 152.168C20.7627 153.584 23.1373 154.051 25.0257 155.813C29.1866 163.39 33.168 170.109 37.2159 177.885C37.1888 199.799 37.0953 220.657 37.0016 241.516C36.1643 245.155 35.3271 248.794 33.8572 253.802C32.9829 256.429 32.7414 257.686 32.4999 258.943C31.6885 266.512 30.4111 274.067 30.1893 281.653C29.9383 290.233 34.4509 295.024 43.3605 295.575C50.9661 296.045 58.5295 297.219 66.136 297.649C83.7474 298.645 86.3625 314.922 95.7324 324.305C95.1369 325.277 94.5411 326.248 93.9456 327.22C86.7733 323.862 79.6013 320.504 69.8878 315.957C69.2592 328.493 68.7126 339.393 68.1314 350.98C72.3635 350.649 75.7969 350.381 79.2304 350.113C80.2156 350.855 81.2009 351.597 82.1862 352.339C68.0834 358.847 71.5703 373.009 65.8946 382.063C61.8709 388.481 49.2263 389.502 38.9936 393.899C31.2567 402.853 31.0879 412.033 32.5959 421.434C35.2967 438.268 37.7162 455.257 51.4039 467.641C51.4615 470.842 51.5192 474.043 50.8527 478.358C50.5548 481.183 50.9812 482.894 51.4076 484.605C51.4467 488.591 51.4859 492.577 50.6476 497.841C47.8985 509.527 45.9955 519.929 44.1636 530.343C41.7181 544.245 46.9557 550.44 62.0156 551.548C62.7083 553.576 63.4008 555.604 62.7124 558.398C55.3565 559.913 48.6714 557.595 46.8191 567.56C43.254 586.741 31.1941 604.451 37.4643 625.339C38.0668 627.346 35.8924 630.055 36.1177 632.328C37.1545 642.78 38.5855 653.193 39.8751 663.62C41.0672 668.568 40.692 675.122 43.7776 678.129C50.1959 684.384 49.0269 690.739 47.252 699.663C46.2731 712.351 45.5554 723.156 44.8378 733.961C45.5019 742.677 49.9317 752.129 39.9765 758.766C46.1828 773.677 31.3359 789.857 42.7658 804.615C44.1728 806.432 44.903 811.068 43.7622 812.202C32.8774 823.023 33.9217 837.819 29.0568 851.752C27.3923 852.537 26.7881 852.532 26.1838 852.527C26.5447 847.626 26.9055 842.724 27.9426 836.422C28.2812 833.631 27.9436 832.24 27.606 830.849C28.5262 827.018 29.5079 823.201 30.3492 819.352C31.2042 815.442 33.5467 810.957 32.4418 807.659C23.1229 779.847 37.2995 753.407 36.5818 726.184C36.4667 721.812 36.0134 717.445 35.6086 713.086C35.0005 706.534 34.2975 699.991 33.28 689.938C25.8147 685.378 24.7309 674.085 25.3224 662.319C26.6979 634.968 28.0124 607.61 29.9049 580.293C30.2802 574.871 32.7229 569.445 34.9326 564.332C38.1964 556.78 46.7974 549.664 34.8938 541.914C33.5676 541.051 34.3082 536.668 34.4611 533.938C35.5434 514.624 37.1033 495.324 37.596 475.996C37.715 471.326 35.7717 464.854 32.4118 462.186C23.6375 455.219 22.1085 446.764 22.4366 436.516C22.9696 419.885 22.5805 403.224 22.5805 384.929C24.5139 384.285 29.7073 381.69 35.1592 380.918C47.5648 379.161 52.3036 372.149 52.1272 360.197C51.9425 347.696 52.5268 335.187 52.589 322.68C52.6688 306.601 50.8109 303.306 35.2762 300.743C26.2371 299.252 24.5035 295.885 24.9495 287.344C26.0308 266.636 24.3881 246.014 29.3459 225.243C31.5463 216.025 25.5976 204.755 22.9533 194.519C19.6029 181.549 17.3849 167.976 11.8481 155.967C6.09767 143.494 7.24768 133.026 13.2258 121.661C20.5719 107.694 21.7891 95.8501 10.3169 81.0478C2.45155 70.8992 3.23791 53.8718 0.727875 39.8175C-1.18836 29.0863 -0.140771 19.7466 14.0684 18.387C17.445 18.0639 20.7392 15.6073 23.822 13.7243C34.6279 7.12394 43.2549 4.14388 52.8525 17.7326C61.9763 30.6509 81.3509 32.6148 97.1125 23.3202C123.418 7.80854 149.357 10.7347 175.96 22.25C164.124 22.0295 151.888 22.1699 140.435 19.2448C131.195 16.8848 124.069 17.2654 117.345 23.823ZM15.5445 69.8146C16.7898 72.0946 18.0351 74.3746 19.2806 76.6546C20.1131 76.2779 20.9458 75.9012 21.7785 75.5245C19.249 61.5995 16.7196 47.6745 14.1901 33.7495C13.5792 33.7891 12.9684 33.8287 12.3576 33.8683C13.4144 45.1933 14.4711 56.5183 15.5445 69.8146Z" fill="#857865"/>
<path d="M400.893 227.408C391.301 224.504 386.259 217.514 385.705 208.049C385.492 204.402 388.504 197.396 390.373 197.282C412.449 195.938 414.423 176.321 423.153 162.813C424.657 160.485 427.71 159.157 430.883 157.389C431.847 159.847 431.976 162.283 431.163 165.84C425.14 170.659 421.953 174.471 429.504 178.925C432.155 182.499 434.086 187.211 437.595 189.431C447.543 195.724 450.217 203.516 447.837 215.06C443.719 235.04 440.773 255.281 438 275.504C437.26 280.902 438.859 286.638 439.512 292.204C440.59 301.396 442.818 310.634 432.993 317.291C431.004 318.638 430.815 322.83 430.116 325.786C429.866 326.843 430.393 328.193 430.85 329.291C438.856 348.526 442.616 367.504 427.32 386.246C419.61 384.422 413.282 381.889 405.15 387.972C401.02 391.061 392.046 387.682 382.669 387.053C391.281 373.931 386.4 368.671 376.267 365.638C365.906 362.537 365.188 354.991 368.625 346.478C374.155 332.781 371.079 326.404 355.969 324.728C347.137 323.749 339.368 322.105 338.385 312.22C337.366 301.969 343.878 296.053 353.208 292.89C357.004 291.604 360.558 289.525 364.407 288.49C375.218 285.583 382.125 279.78 382.424 267.673C382.691 256.867 388.534 248.95 398.432 242.604C402.196 243.731 404.435 244.913 408.357 246.983C408.357 240.17 408.861 235.038 408.015 230.139C407.794 228.858 403.381 228.299 400.893 227.408Z" fill="#A89B82"/>
<path d="M255.915 1192.59C269.368 1184.67 283.652 1181.94 298.592 1187.18C304.278 1189.17 309.131 1193.44 314.718 1195.85C318.958 1197.68 325.045 1200.58 328.105 1198.93C350.094 1187.05 373.114 1185.59 397.212 1189.03C405.024 1190.15 413.129 1189.21 420.805 1189.21C423.367 1182.12 425.656 1175.78 428.737 1167.96C435.507 1162.44 441.485 1158.39 448.925 1153.36C447.596 1143.45 454.941 1138.45 465.845 1135.13C483.037 1129.91 484.503 1126.89 478.369 1109.93C468.308 1082.11 462.893 1053.66 464.062 1024C464.21 1020.26 462.651 1016.44 461.883 1012.66C446.938 994.469 448.566 972.677 449.991 951.564C450.541 943.398 456.464 935.595 460.777 926.407C460.851 919.744 459.911 914.319 459.355 908.855C457.417 889.808 457.763 870.204 453.127 851.85C448.836 834.863 448.973 818.852 451.94 802.236C454.281 810.206 456.841 818.12 458.901 826.163C460.886 833.912 462.647 841.745 463.945 849.634C464.779 854.698 466.301 860.606 464.566 864.962C458.259 880.791 460.728 896.731 466.13 911.107C471.317 924.911 464.37 934.27 460.449 945.267C459.491 947.955 458.53 950.926 458.719 953.689C459.488 964.879 461.573 976.044 461.512 987.21C461.451 998.585 465.13 1007.04 475.467 1011.7C481.676 1014.5 483.203 1017.81 482.125 1024.79C478.616 1047.53 476.097 1070.28 485.486 1092.69C488.17 1099.1 487.875 1106.97 488.007 1114.19C488.391 1135.19 487.985 1134.59 468.192 1141.75C462.758 1143.71 458.342 1150 454.814 1155.22C452.271 1158.98 451.974 1164.26 450.473 1169.58C437.862 1167.23 432.864 1175.41 429.82 1185.07C427.131 1193.61 421.734 1197.57 413.144 1198.07C394.225 1199.19 375.311 1200.36 356.394 1201.51C352.382 1201.75 346.952 1200.41 344.593 1202.51C332.03 1213.7 322.336 1207.75 310.554 1200.3C297.052 1191.76 282.105 1190.25 267.363 1200.61C262.647 1203.93 255.413 1204.53 249.274 1204.74C242.506 1204.97 235.652 1203.48 228.873 1202.48C194.768 1197.44 203.07 1203.03 195.623 1166.73C199.22 1172.78 201.276 1179.75 204.71 1185.96C206.629 1189.43 210.428 1193.11 214.091 1194.12C222.516 1196.45 231.357 1197.35 240.067 1198.55C246.315 1199.42 253.347 1201.75 255.915 1192.59Z" fill="#857865"/>
<path d="M405.918 762.994C400.652 764.833 395.502 767.279 390.082 768.313C385.984 769.095 381.542 768.073 375.091 767.743C377.823 762.797 378.998 760.451 380.381 758.233C381.644 756.205 384.525 754.137 384.301 752.394C382.312 736.909 388.414 720.731 381.437 705.891C376.968 696.388 379.762 684.563 391.246 678.564C399.668 674.165 409.123 671.744 419.994 668.807C428.411 670.244 434.951 671.315 441.632 672.41C442.11 679.067 442.951 685.04 442.889 691.004C442.696 709.806 453.118 729.446 438.714 747.225C438.661 747.29 439.748 748.278 440.302 748.835C432.684 758.361 423.819 765.73 409.855 766.029C408.161 765.544 407.396 764.915 406.988 763.573C408.483 762.09 409.62 761.321 411.679 760.518C419.98 756.991 427.361 753.498 434.741 750.005C433.583 748.069 432.425 746.133 431.267 744.197C424.439 749.658 417.612 755.12 410.051 760.597C408.184 761.407 407.051 762.2 405.918 762.994Z" fill="#A79981"/>
<path d="M389.028 16.4014C389.63 24.8613 386.575 29.6084 377.442 31.5297C353.603 36.5445 334.828 48.0846 328.07 73.6172C327.335 76.3918 324.797 79.8689 322.282 80.7826C313.055 84.1345 303.484 86.5417 293.005 88.2493C292.414 82.0725 292.018 76.6832 293.539 71.9032C295.117 66.9443 298.552 62.5754 301.174 57.9485C303.785 62.4097 306.395 66.8708 308.042 69.6855C308.042 66.0615 308.042 60.0588 308.042 57.4427C302.905 53.1517 299.839 50.5913 297.108 47.9072C297.559 47.5804 297.678 47.3773 297.796 47.1742C297.468 47.4728 297.14 47.7714 295.863 48.0543C290.727 49.247 286.576 50.5993 282.347 51.6345C272.836 53.9627 266.9 50.1118 266.176 40.7403C268.916 40.7168 270.742 40.6839 273.371 40.6909C275.243 40.7239 276.313 40.7172 278.475 40.7371C286.119 40.7617 292.671 40.7595 300.052 41.123C308.877 45.1375 309.164 40.174 308.762 34.4418C308.992 33.7701 309.456 33.3698 310.866 33.6711C312.241 33.736 312.904 33.3705 313.567 33.005C313.567 33.005 313.767 33.223 314.441 33.0474C319.527 30.6148 323.939 28.3577 329.254 26.1383C331.984 23.7678 333.811 21.3597 335.958 18.1983C336.83 14.8294 337.381 12.2137 337.933 9.59798C337.933 9.59798 338.358 9.03583 339.733 9.06735C354.077 0.893425 366.834 7.2098 379.841 10.1369C380.494 11.1673 381.074 11.5266 381.711 11.6988C381.647 11.7051 381.664 11.5792 382.001 12.2979C384.569 14.1724 386.799 15.328 388.995 16.4781C388.961 16.4727 389.028 16.4014 389.028 16.4014Z" fill="#A79981"/>
<path d="M265.262 40.731C266.9 50.1119 272.836 53.9628 282.347 51.6346C286.576 50.5994 290.727 49.2471 295.855 48.0433C296.795 48.0478 296.774 48.0309 296.774 48.0309C299.839 50.5913 302.905 53.1518 308.042 57.4427C308.042 60.0588 308.042 66.0616 308.042 69.6855C306.395 66.8709 303.785 62.4097 301.174 57.9486C298.552 62.5755 295.117 66.9444 293.539 71.9033C292.018 76.6833 292.414 82.0726 292.009 88.2705C285.881 106.947 279.84 124.595 273.431 142.107C272.181 145.521 269.495 148.409 266.911 152.409C273.204 131.864 279.064 112.739 285.566 91.992C287.776 75.686 274.621 84.4662 269.745 80.0513C263.495 78.5888 257.266 77.0333 250.993 75.6809C230.249 71.209 209.425 67.0837 188.767 62.2524C180.209 60.2511 172.029 56.6793 163.611 54.0322C147.616 49.0024 131.575 44.1242 115.839 36.4518C142.427 40.7973 169.015 45.1428 196.088 49.5676C197.173 46.2158 198.428 42.3377 199.668 38.5062C201.406 38.9598 202.68 38.9696 202.826 39.3801C204.358 43.6854 204.684 50.9953 207.288 51.9026C219.193 56.0515 231.723 58.4104 242.282 60.9861C246.65 51.806 249.965 44.8411 254.399 36.8979C257.502 35.7919 259.486 35.6643 261.471 35.5366C262.321 35.6721 263.171 35.8075 264.651 36.7956C265.275 38.6758 265.268 39.7034 265.262 40.731ZM255.546 54.8592C257.949 56.0455 260.351 57.2318 262.754 58.4181C263.146 57.6513 263.538 56.8845 263.93 56.1177C261.456 54.802 258.982 53.4863 256.216 50.7468C255.712 49.4879 255.208 48.2291 254.704 46.9702C254.177 47.1527 253.65 47.3353 253.123 47.5178C253.764 49.4547 254.406 51.3915 255.546 54.8592ZM279.189 72.1931C281.81 70.1489 284.43 68.1047 287.05 66.0606C284.31 64.0918 281.589 60.4971 278.825 60.4647C271.085 60.3739 263.328 61.7543 255.577 62.5543C255.614 63.3867 255.651 64.2191 255.688 65.0514C262.862 67.3319 270.036 69.6124 279.189 72.1931Z" fill="#867964"/>
<path d="M441.207 748.622C439.748 748.278 438.661 747.29 438.714 747.225C453.118 729.446 442.696 709.806 442.89 691.004C442.951 685.04 442.11 679.067 441.632 672.41C434.951 671.315 428.411 670.244 420.908 668.776C442.343 653.132 451.883 632.94 444.708 605.843C443.515 601.337 445.72 595.849 444.273 591.508C441.197 582.28 438.253 571.937 427.815 573.148C426.916 567.086 426.532 561.906 425.333 556.923C422.532 545.285 421.978 534.281 428.612 523.309C432.497 516.882 434.336 509.22 437.312 501.19C437.609 505.86 437.901 511.46 437.717 517.044C437.443 525.337 436.887 533.623 436.351 541.906C435.666 552.48 439.305 559.778 450.544 562.175C452.375 562.565 455.003 565.153 455.099 566.848C456.277 587.711 459.21 608.814 457.132 629.397C455.869 641.903 446.709 653.613 442.32 663.05C444.794 669.279 448.319 674.753 449.029 680.57C451.285 699.068 451.711 717.808 454.394 736.23C456.053 747.617 447.356 745.592 441.207 748.622Z" fill="#857865"/>
<path d="M49.9468 1151.39C49.947 1166.82 49.947 1182.24 49.947 1198.28C54.3418 1199.04 60.4993 1200.12 68.6601 1201.36C82.5746 1203.42 83.6207 1196.37 83.5412 1187.02C83.3124 1160.17 99.8011 1140.89 126.311 1136.41C127.792 1136.16 129.542 1137.51 134.991 1139.54C125.705 1143.68 118.9 1145.34 113.902 1149.29C108.034 1153.92 99.8128 1160.39 99.5773 1166.33C99.0979 1178.43 110.072 1186.97 120.983 1187.07C124.613 1187.11 128.244 1187.07 131.884 1187.08C131.894 1187.1 131.849 1187.05 131.849 1187.05C116.753 1197.37 108.765 1198.1 98.6351 1189.23C97.2498 1188.62 96.7654 1188.8 96.2811 1188.99C96.8752 1189.12 97.4694 1189.25 98.0635 1189.39C92.7811 1199.07 87.5129 1208.76 82.1837 1218.41C81.8202 1219.07 81.0642 1219.6 80.3782 1219.98C71.4004 1225.05 42.8514 1210 42.651 1199.63C42.1946 1176.01 42.36 1152.38 43.3306 1127.69C46.0662 1129.25 48.7454 1131.71 49.2083 1134.54C50.1106 1140.05 49.7717 1145.76 49.9468 1151.39Z" fill="#837662"/>
<path d="M143.342 1121.28C144.9 1115.18 146.458 1109.07 148.324 1101.76C161.235 1105.26 172.866 1107.9 184.131 1111.63C195.143 1115.28 201.351 1122.67 200.082 1135.36C199.496 1141.22 200.897 1147.29 200.751 1154.46C198.529 1157.98 196.953 1160.29 195.377 1162.6C193.523 1159.45 191.67 1156.3 189.851 1151.48C189.248 1144.4 188.611 1138.98 187.518 1132.9C180.305 1126.12 173.988 1119.41 166.662 1114.08C160.001 1109.23 153.216 1112.53 151.63 1120.63C150.957 1124.08 151.431 1127.74 151.379 1132.2C155.17 1138.12 158.966 1143.15 162.762 1148.19C166.638 1151.45 170.514 1154.71 174.262 1157.86C164.634 1172.88 158.574 1192.82 132.921 1187.07C131.849 1187.05 131.893 1187.1 132.411 1186.41C138.868 1183.44 144.798 1181.13 150.747 1178.87C160.859 1175.03 166.952 1161.71 160.006 1157.97C147.539 1151.25 145.09 1141.5 146.278 1128.97C146.51 1126.52 144.381 1123.85 143.342 1121.28Z" fill="#837662"/>
<path d="M25.0377 982.171C35.2358 995.536 40.9904 1011.45 42.1259 1029.2C42.5539 1035.9 45.4338 1042.4 46.3318 1049.11C47.4828 1057.71 47.7621 1066.42 46.8018 1075.28C47.0998 1080.9 60.9525 1082.77 49.3145 1092.16C48.3691 1092.36 48.1588 1092.44 48.1588 1092.44C34.4253 1078.08 30.6392 1059.22 27.715 1041.03C24.6756 1022.13 25.6784 1002.58 25.0377 982.171Z" fill="#837662"/>
<path d="M451.832 801.428C448.973 818.853 448.836 834.864 453.127 851.85C457.763 870.204 457.417 889.808 459.355 908.856C459.911 914.32 460.851 919.744 460.866 925.485C455.834 914.098 451.549 902.412 447.852 889.203C448.807 885.484 449.174 883.288 449.542 881.092C447.611 875.733 447.053 869.054 443.445 865.31C437.228 858.857 436.726 852.273 438.086 844.393C439.15 838.229 439.542 831.949 440.291 825.188C435.628 824.079 432.269 823.28 429.03 822.509C434.626 812.404 439.992 802.715 446.137 792.627C448.519 795.025 450.122 797.823 451.832 801.428Z" fill="#A89B81"/>
<path d="M195.181 1163.28C196.953 1160.29 198.529 1157.98 200.774 1155.43C205.882 1156 210.459 1156.36 214.718 1157.73C218.768 1159.02 226.009 1161.94 225.81 1163.15C223.432 1177.75 233.79 1181.56 243.722 1186.07C247.362 1187.73 250.82 1189.78 255.138 1192.12C253.347 1201.75 246.315 1199.42 240.067 1198.55C231.357 1197.35 222.516 1196.45 214.091 1194.12C210.428 1193.11 206.629 1189.43 204.71 1185.96C201.276 1179.75 199.22 1172.78 195.817 1165.73C195.025 1164.88 195.006 1164.41 195.181 1163.28Z" fill="#A79981"/>
<path d="M412.991 47.6782C412.231 45.942 411.471 44.2059 410.744 41.6421C410.778 40.8144 411.003 40.7311 411.827 40.6073C415.108 36.8637 417.565 33.2438 420.022 29.624C414.451 25.9828 408.879 22.3418 403.324 17.8393C405.787 13.3225 408.234 9.66711 410.68 6.01172C416.527 5.57476 422.373 5.13782 429.224 5.68476C431.792 11.9479 434.057 17.1346 434.771 22.5263C436.141 32.8768 436.59 43.3471 437.495 53.7613C438.49 65.2065 435.137 68.9179 422.757 69.9073C422.757 69.9073 422.876 69.8463 422.887 68.9107C424.115 59.0059 421.195 52.0538 412.991 47.6782Z" fill="#A89B82"/>
<path d="M422.722 71.0157C435.138 68.918 438.49 65.2065 437.495 53.7614C436.59 43.3472 436.141 32.8769 434.771 22.5264C434.058 17.1347 431.793 11.948 430.246 5.74313C434.482 3.94067 438.698 3.06379 445.043 1.74441C444.057 11.061 442.545 18.7641 442.581 26.4599C442.645 39.9899 443.781 53.512 444.154 67.0461C444.221 69.4845 443.428 73.5729 441.937 74.1691C430.685 78.6705 429.565 89.0004 426.298 99.217C424.67 90.6352 423.678 81.3796 422.722 71.0157Z" fill="#857865"/>
<path d="M118.068 24.5062C124.068 17.2654 131.195 16.8847 140.435 19.2448C151.887 22.1699 164.124 22.0295 176.77 22.6428C181.92 21.9668 186.321 21.8613 192.562 22.4487C201.178 23.5825 207.954 24.0234 214.73 24.4645C210.625 26.6713 206.422 30.944 202.433 30.7528C174.528 29.415 146.667 27.1546 118.068 24.5062Z" fill="#A89B82"/>
<path d="M50.7139 1150.97C49.7714 1145.76 50.1104 1140.05 49.208 1134.54C48.7452 1131.71 46.066 1129.25 43.4091 1126.58C41.5953 1124.73 40.8899 1122.84 39.9057 1121.11C31.3345 1106.04 31.3195 1106.05 46.0741 1094.8C43.4877 1105.59 45.8966 1114.02 55.9218 1120.27C61.4763 1123.74 62.3952 1128.22 57.9205 1134.34C54.5975 1138.88 53.5451 1145.08 50.7139 1150.97Z" fill="#968772"/>
<path d="M409.62 5.92821C408.234 9.66718 405.787 13.3226 403.454 18.7497C404.448 23.967 405.327 27.4125 406.099 30.9457C405.991 31.0333 405.782 31.2159 405.782 31.2159C400.783 26.1904 395.785 21.1648 389.907 16.2703C389.028 16.4014 388.961 16.4727 388.977 15.6013C386.55 13.6796 384.107 12.6294 381.664 11.5792C381.664 11.5792 381.647 11.7052 381.574 11.1763C381.018 10.0655 380.4 9.73618 379.647 9.65951C366.834 7.20985 354.077 0.893471 340.081 9.12243C350.392 -2.33797 363.91 -0.792394 378.035 2.00349C388.07 3.9899 398.376 4.61303 409.62 5.92821Z" fill="#897E6A"/>
<path d="M187.974 1133.57C188.611 1138.98 189.248 1144.4 189.623 1150.72C181.242 1150.42 173.123 1149.21 163.883 1148.09C158.966 1143.15 155.17 1138.12 152.428 1132.24C160.542 1132.47 167.573 1133.91 174.675 1134.49C179.052 1134.86 183.537 1133.92 187.974 1133.57Z" fill="#ABA088"/>
<path d="M215.706 24.3361C207.954 24.0234 201.178 23.5825 193.651 22.5834C207.01 18.3167 221.25 15.0319 235.189 10.7638C246.133 7.41289 255.385 12.546 257.093 23.657C257.624 27.111 259.496 30.3592 261.112 34.6191C259.486 35.6642 257.502 35.7918 254.531 35.9423C251.561 30.7115 249.577 25.458 246.681 19.0376C244.73 17.0133 243.69 16.1557 242.65 15.2981C242.071 16.6873 241.491 18.0765 240.911 19.4658C232.835 21.0465 224.758 22.6271 215.706 24.3361Z" fill="#897E6A"/>
<path d="M337.178 9.88564C337.381 12.2138 336.829 14.8294 335.132 18.278C332.108 21.4409 330.229 23.7708 328.35 26.1007C323.939 28.3578 319.527 30.6148 314.33 33.1453C316.436 21.0162 328.612 17.7399 337.178 9.88564Z" fill="#897E6A"/>
<path d="M299.222 40.7574C292.671 40.7595 286.119 40.7617 278.482 39.9585C277.39 37.5961 277.383 36.039 277.376 34.482C284.117 34.5658 290.859 34.6497 298.434 35.9926C299.254 38.4202 299.238 39.5888 299.222 40.7574Z" fill="#897E6A"/>
<path d="M430.343 178.433C421.953 174.471 425.14 170.659 431.005 166.748C431.587 170.336 431.384 174.138 430.343 178.433Z" fill="#C5BDA2"/>
<path d="M300.052 41.1231C299.238 39.5889 299.254 38.4203 299.316 36.376C301.873 35.2463 304.383 34.9923 307.827 34.5901C309.164 40.174 308.877 45.1375 300.052 41.1231Z" fill="#867964"/>
<path d="M266.176 40.7403C265.268 39.7034 265.275 38.6758 265.294 36.8773C267.208 35.3599 269.11 34.6135 271.785 34.8652C272.562 37.4592 272.565 39.0552 272.569 40.6511C270.742 40.684 268.916 40.7168 266.176 40.7403Z" fill="#897E6A"/>
<path d="M273.371 40.691C272.565 39.0552 272.561 37.4593 272.562 35.0653C273.651 34.1541 274.736 34.041 276.599 34.205C277.383 36.0391 277.39 37.5962 277.39 39.9319C276.313 40.7173 275.243 40.724 273.371 40.691Z" fill="#867964"/>
<path d="M47.6371 1092.98C48.1585 1092.44 48.3688 1092.36 48.4635 1092.33C48.3894 1093.05 48.2204 1093.8 47.4674 1094.77C46.961 1094.5 47.0382 1094.01 47.6371 1092.98Z" fill="#968772"/>
<path d="M312.935 32.6835C312.904 33.3705 312.241 33.736 311.341 33.6096C311.503 32.8657 311.903 32.6138 312.935 32.6835Z" fill="#897E6A"/>
<path d="M37.9927 241.616C37.095 220.657 37.1886 199.799 37.8626 177.307C40.4369 171.111 42.4306 166.548 44.4244 161.985C45.8681 163.651 47.3117 165.317 48.7552 166.983C49.2972 166.804 49.8391 166.626 50.3811 166.447C45.9018 149.638 42.0563 132.622 36.6651 116.111C34.1343 108.36 36.7489 106.009 41.1982 105.483C36.8766 97.2862 32.5459 89.0721 29.1095 80.2146C32.6226 81.6363 35.2414 83.7014 40.1071 87.5381C37.686 72.5246 43.9896 64.0733 54.9546 58.1321C62.5164 64.5143 69.2979 70.6367 76.0792 76.7591C71.2197 90.2572 68.6554 102.758 78.1492 116.475C84.7225 125.973 76.668 134.13 66.8515 139.636C61.0668 130.997 56.8555 122.739 52.6439 114.481C51.5044 115.054 50.365 115.627 49.2255 116.2C53.3452 128.158 57.4651 140.115 61.585 152.073C60.8439 161.436 59.3804 170.813 59.5566 180.159C59.7488 190.376 61.4573 200.564 62.7502 213.152C59.4771 207.522 57.1165 203.462 54.7151 199.331C47.9997 207.629 46.9576 236.031 53.4743 243.185C48.2972 242.66 43.6406 242.189 37.9927 241.616Z" fill="#A79981"/>
<path d="M142.361 1121.4C144.381 1123.85 146.51 1126.52 146.278 1128.97C145.09 1141.5 147.539 1151.25 160.006 1157.97C166.952 1161.71 160.859 1175.03 150.747 1178.87C144.798 1181.13 138.868 1183.44 132.401 1186.39C128.244 1187.07 124.613 1187.11 120.983 1187.07C110.072 1186.97 99.0976 1178.43 99.577 1166.33C99.8125 1160.39 108.033 1153.92 113.902 1149.29C118.9 1145.34 125.704 1143.68 134.991 1139.54C129.542 1137.51 127.791 1136.16 126.311 1136.42C99.8008 1140.89 83.312 1160.17 83.5409 1187.02C83.6203 1196.37 82.5742 1203.42 69.6129 1201.4C68.6266 1199.67 69.399 1197.53 68.6488 1196.54C56.2632 1180.16 69.1826 1166.68 73.8596 1152.42C74.7308 1149.76 78.5005 1146.57 81.2192 1146.28C90.4809 1145.28 95.3384 1140.66 98.5605 1132.05C99.8619 1128.57 105.163 1125.07 109.119 1124.4C119.736 1122.62 130.609 1122.37 142.361 1121.4Z" fill="#A79981"/>
<path d="M460.891 1012.63C462.651 1016.44 464.21 1020.26 464.062 1024C462.893 1053.66 468.307 1082.11 478.369 1109.93C484.503 1126.89 483.037 1129.91 465.845 1135.13C454.94 1138.44 447.595 1143.45 448.925 1153.36C441.485 1158.39 435.507 1162.44 428.923 1167.03C418.712 1169.66 400.542 1155.98 401.754 1146.94C402.055 1144.69 407.263 1140.83 409.014 1141.4C424.813 1146.54 431.61 1140.53 432.708 1124.74C432.898 1121.99 436.848 1117.93 439.731 1117.23C453.599 1113.85 453.428 1105.09 450.671 1093.47C456.445 1091.81 461.222 1091.11 465.999 1090.42C465.904 1089.07 465.808 1087.72 465.713 1086.38C458.662 1084.34 451.611 1082.3 444.559 1080.26C446.899 1060.19 448.951 1040.08 451.903 1020.09C452.321 1017.27 457.125 1015.09 460.891 1012.63Z" fill="#A79981"/>
<path d="M311.674 1088.48C305.297 1089.36 299.228 1091.18 294.091 1089.72C281.737 1086.21 269.614 1081.64 257.792 1076.58C248.952 1072.8 243.102 1067.44 249.046 1055.89C251.306 1051.5 249.829 1043.94 247.685 1038.81C244.126 1030.31 248.862 1026.24 254.603 1023.32C260.93 1020.1 264.456 1022.89 266.378 1030.23C267.373 1034.03 272.652 1036.81 276.2 1039.81C281.906 1044.63 287.552 1049.59 293.686 1053.82C296.511 1055.77 301.333 1058.01 303.688 1056.87C311.277 1053.22 318.093 1050.61 323.577 1059.31C328.962 1067.85 326.32 1077.9 317.441 1084.6C315.836 1085.81 314.087 1086.83 311.674 1088.48Z" fill="#A89B81"/>
<path d="M76.8408 77.1127C69.298 70.6367 62.5165 64.5143 54.2478 57.7232C47.5568 50.8447 42.3532 44.6349 38.0154 38.444C45.6434 42.4631 52.4052 46.4632 59.167 50.4634C90.2587 80.6821 125.041 106.798 152.382 141.319C168.636 161.843 190.656 177.986 211.139 194.815C214.712 197.751 223.531 194.311 230.052 193.807C215.1 218.395 185.669 225.295 163.378 240.706C150.222 234.982 137.55 244.946 123.254 244.056C122.237 243.469 122.277 242.272 122.277 242.272C142.435 235.634 162.817 229.59 182.653 222.101C192.149 218.516 200.612 212.195 211.874 205.787C165.949 161.897 121.775 119.682 76.8408 77.1127Z" fill="#867964"/>
<path d="M162.37 961.457C173.847 957.6 180.672 950.53 184.402 939.838C186.291 934.423 189.992 929.638 194.005 925.268C196.819 939.9 183.18 960.096 168.583 967.664C156.64 973.855 144.973 980.74 133.912 988.371C130.499 990.726 129.218 996.439 127.42 1000.8C123.629 1010 121.453 1020.19 116.093 1028.31C112.165 1034.26 104.55 1038.15 97.9685 1041.88C91.7254 1045.41 84.8263 1047.98 77.9588 1050.18C71.7626 1052.15 65.2185 1053.04 56.067 1055C69.7636 1040.32 83.1467 1034.45 100.248 1033.88C111.731 1033.5 115.142 1021.9 117.203 1011.78C117.834 1008.68 116.986 1005.3 117.425 1002.14C118.082 997.41 117.817 989.915 120.491 988.539C135.168 980.987 143.37 963.687 162.37 961.457Z" fill="#A89B82"/>
<path d="M260.479 183.532C271.249 163.342 281.623 143.939 293.1 122.469C293.308 176.734 212.441 253.41 158.085 253.028C194.36 233.323 234.657 219.828 260.479 183.532Z" fill="#867964"/>
<path d="M77.5316 926.718C66.0986 929.051 55.5703 931.694 44.9376 932.216C41.0563 932.407 36.9267 927.558 32.9103 925.008C36.3988 921.133 39.5953 914.372 43.4365 913.984C51.48 913.171 55.6698 909.351 61.2027 904.224C65.4219 900.315 74.2722 901.398 83.1842 899.904C81.2801 910.354 79.8375 918.271 77.5316 926.718Z" fill="#A89B82"/>
<path d="M40.5694 662.894C38.5856 653.193 37.1546 642.78 36.1178 632.328C35.8925 630.055 38.0669 627.346 37.4643 625.339C31.1942 604.451 43.254 586.741 46.8192 567.56C48.6715 557.594 55.3566 559.913 62.2824 559.029C65.6945 570.291 67.7737 581.26 51.6196 584.697C49.7206 585.101 48.2703 590.532 47.7315 593.816C46.4772 601.462 45.7796 609.209 45.0844 616.935C43.7284 632.005 42.5282 647.089 40.5694 662.894Z" fill="#A79981"/>
<path d="M75.2163 156.038C79.1906 154.071 82.407 152.344 85.84 151.529C88.2565 150.955 92.4907 150.635 93.3034 151.889C99.1601 160.932 105.065 170.124 108.994 180.044C109.594 181.561 100.556 188.341 95.1113 190.387C89.7138 192.416 82.6896 192.693 80.7535 184.156C78.676 174.995 76.6178 165.831 75.2163 156.038Z" fill="#A89B82"/>
<path d="M315.474 609.495C319.266 605.357 322.651 602.032 326.035 598.707C328.104 603.874 333.39 610.816 331.686 613.902C324.233 627.399 314.869 639.863 305.699 652.336C305.186 653.035 297.848 650.71 297.701 649.358C296.93 642.244 294.138 635.001 302.358 628.755C308.007 624.464 310.926 616.583 315.474 609.495Z" fill="#A89B82"/>
<path d="M381.603 891.433C393.604 891.276 394.415 901.068 398.531 909.211C379.982 915.078 366.437 905.184 353.163 897.32C346.056 893.109 350.06 878.6 360.73 869.159C364.302 873.734 367.82 878.238 371.045 884.142C366.193 887.668 361.635 889.795 357.076 891.922C357.617 893.102 358.157 894.283 358.698 895.463C366.333 894.12 373.968 892.776 381.603 891.433Z" fill="#A89B81"/>
<path d="M51.5636 466.634C37.7163 455.257 35.2969 438.268 32.5961 421.434C31.088 412.033 31.2569 402.853 38.3341 394.575C40.8507 398.743 43.494 403.068 44.1734 407.682C47.0111 426.949 49.2592 446.303 51.5636 466.634Z" fill="#A79981"/>
<path d="M398.086 417.539C405.1 420.057 403.853 423.432 399.132 425.66C394.906 427.654 390.039 428.291 384.887 429.68C384.377 435.992 383.85 442.516 383.324 449.039C382.283 449.086 381.243 449.133 380.203 449.18C379.711 443.698 380.905 437.098 378.226 433.068C375.822 429.453 369.16 428.664 366.429 427.502C369.101 421.479 371.918 414.823 375.043 408.316C375.783 406.774 377.558 405.729 378.857 404.456C380.584 406.221 383.481 407.781 383.833 409.787C385.283 418.053 389.177 421.085 398.086 417.539Z" fill="#83735E"/>
<path d="M59.5515 49.6803C52.4053 46.4632 45.6435 42.4631 38.0588 38.4051C37.2361 38.3474 37.2945 38.4436 37.0854 37.8541C36.188 36.8305 35.5 36.3964 34.8663 35.963C34.9208 35.9637 34.8412 36.0385 34.7846 35.1471C30.824 32.2406 26.92 30.2254 23.0159 28.2102C24.184 25.2105 25.0768 19.8423 26.5733 19.6686C30.5782 19.2036 36.6682 19.5272 38.6902 22.0903C48.0267 33.9247 61.6362 36.1708 75.4206 40.5699C70.804 43.6426 65.3699 46.2699 59.5515 49.6803Z" fill="#A79981"/>
<path d="M61.8839 550.656C46.9555 550.44 41.7178 544.245 44.1633 530.343C45.9952 519.928 47.8983 509.526 50.6334 498.838C47.2473 517.159 55.9322 533.175 61.8839 550.656Z" fill="#A79981"/>
<path d="M33.4294 259.287C32.7413 257.686 32.9828 256.429 33.6955 254.752C50.0048 256.737 65.7777 260.336 81.7002 261.209C97.5096 262.075 113.47 260.202 129.363 259.521C132.738 259.376 136.112 259.194 139.497 260.426C104.421 271.67 69.3998 262.862 33.4294 259.287Z" fill="#968772"/>
<path d="M326.566 281.994C322.493 282.724 319.255 282.855 316.099 283.433C305.468 285.379 305.48 285.439 302.319 272.133C310.242 270.129 318.195 268.117 329.445 265.272C328.621 271.977 328.029 276.788 326.566 281.994Z" fill="#837662"/>
<path d="M45.6716 733.87C45.5552 723.156 46.2728 712.35 47.2831 700.573C63.039 708.803 62.6262 721.992 45.6716 733.87Z" fill="#A79981"/>
<path d="M304.566 1022.13C302.563 1024.85 300.826 1026.7 300.495 1027.06C295.235 1021.75 290.806 1017.28 286.619 1013.05C291.175 1009.6 296.815 1005.33 301.601 1001.7C306.248 1005.41 312.03 1010.03 318.207 1014.97C314.092 1016.9 309.461 1019.08 304.566 1022.13Z" fill="#867964"/>
<path d="M148.713 83.6829C146.651 87.5469 143.779 93.6051 141.147 93.503C135.784 93.2949 130.55 89.7652 125.263 87.6041C127.793 84.9374 130.163 80.2582 132.887 80.0433C137.817 79.6542 142.958 81.9275 148.713 83.6829Z" fill="#A89B82"/>
<path d="M333.171 721.444C329.599 707.82 335.691 701.777 351.272 704.616C345.444 711.449 348.553 724.658 333.171 721.444Z" fill="#A89B82"/>
<path d="M89.7536 61.0259C86.5118 57.7632 84.1346 54.8562 81.7573 51.9492C85.2291 51.2299 88.6736 50.2257 92.1822 49.8915C94.5222 49.6687 97.7641 49.553 99.1652 50.8917C101.642 53.2585 103.023 56.7705 104.863 59.8032C102.041 60.9079 99.2938 62.4498 96.3677 62.9544C94.5946 63.2602 92.544 61.9602 89.7536 61.0259Z" fill="#A89B82"/>
<path d="M62.3438 152.417C57.4653 140.115 53.3455 128.158 49.2257 116.2C50.3652 115.627 51.5047 115.054 52.6442 114.481C56.8557 122.739 61.0671 130.997 66.0127 139.727C67.385 143.241 68.6618 146.346 68.371 149.297C68.2412 150.612 64.9555 151.616 62.3438 152.417Z" fill="#83735E"/>
<path d="M378.182 642.111C377.813 648.611 376.587 654.927 374.754 664.373C368.535 658.458 365.496 655.568 359.794 650.144C366.875 646.825 372.1 644.376 378.182 642.111Z" fill="#A89B82"/>
<path d="M443.775 1080.51C451.61 1082.3 458.662 1084.34 465.713 1086.38C465.808 1087.73 465.904 1089.07 465.999 1090.42C461.222 1091.12 456.445 1091.81 450.676 1092.49C446.803 1088.94 435.301 1090.32 443.775 1080.51Z" fill="#83735E"/>
<path d="M389.517 80.1789C393.15 78.2436 396.215 76.9442 399.281 75.6448C400.1 77.0701 400.919 78.4955 401.738 79.9208C394.663 86.6786 387.589 93.4364 380.514 100.194C379.384 99.2214 378.253 98.2485 377.123 97.2756C381.065 91.7886 385.007 86.3017 389.517 80.1789Z" fill="#867964"/>
<path d="M362.397 399.21C358.493 392.378 355.045 386.292 351.255 379.604C360.234 378.839 364.242 383.558 372.886 404.474C368.153 402.342 365.502 401.149 362.397 399.21Z" fill="#867964"/>
<path d="M172.114 1047.8C171.362 1040.84 171.235 1033.56 171.81 1026.33C171.889 1025.34 175.471 1024.63 177.431 1023.8C178.228 1025.83 180.116 1028.19 179.625 1029.84C177.834 1035.85 175.248 1041.63 172.114 1047.8Z" fill="#867964"/>
<path d="M155.021 1085.65C157.719 1077.58 160.124 1070.36 163.091 1061.46C169.147 1070.43 165.008 1087.61 158.338 1089.74C157.56 1089.99 155.952 1087.64 155.021 1085.65Z" fill="#867964"/>
<path d="M407.049 449.725C396.8 452.725 391.172 447.388 390.078 433.388C399.545 435.196 404.007 441.495 407.049 449.725Z" fill="#867964"/>
<path d="M121.271 242.323C122.277 242.272 122.237 243.469 122.225 244.07C103.969 252.644 97.1855 253.333 83.9652 246.511C98.0777 244.902 109.171 243.638 121.271 242.323Z" fill="#98856A"/>
<path d="M355.76 162.096C353.149 162.66 350.885 162.406 348.62 162.152C351.304 154.71 353.988 147.269 356.672 139.827C358.305 140.355 359.937 140.884 361.57 141.412C359.749 148.035 357.928 154.657 355.76 162.096Z" fill="#867964"/>
<path d="M187.437 985.847C194.142 982.212 195.601 985.494 194.173 990.417C192.567 995.951 189.87 1001.17 187.647 1006.52C186.308 1006.22 184.969 1005.92 183.631 1005.62C184.69 999.249 185.75 992.875 187.437 985.847Z" fill="#867964"/>
<path d="M318.03 306.694C320.454 305.946 324.272 305.556 324.401 306.078C326.127 313.053 327.337 320.155 328.675 327.226C327.127 327.644 325.579 328.062 324.031 328.48C321.924 321.478 319.817 314.476 318.03 306.694Z" fill="#867964"/>
<path d="M400.372 1072.05C406.528 1074.84 411.865 1077.32 417.202 1079.79C417.114 1080.81 417.027 1081.82 416.939 1082.83C410.843 1082.42 404.266 1083.32 398.775 1081.28C392.035 1078.78 391.146 1074.28 400.372 1072.05Z" fill="#897E6A"/>
<path d="M246.273 925.135C249.679 916.373 255.145 911.469 264.731 913.196C259.407 918.565 257.691 928.867 246.273 925.135Z" fill="#867964"/>
<path d="M336.643 201.264C337.035 194.084 338.022 187.656 339.01 181.227C347.515 190.49 345.657 198.479 336.643 201.264Z" fill="#837662"/>
<path d="M333.354 346.799C335.426 345.742 338.972 344.797 339.311 345.468C342.285 351.362 344.687 357.544 347.258 363.641C346.045 364.428 344.833 365.214 343.621 366.001C340.194 359.887 336.768 353.773 333.354 346.799Z" fill="#867964"/>
<path d="M315.838 1037.36C313.842 1034.25 312.53 1031.72 311.219 1029.19C312.221 1028.21 313.224 1027.23 314.226 1026.25C319.729 1030.11 325.231 1033.97 330.734 1037.83C330.055 1039.21 329.377 1040.58 328.698 1041.96C324.64 1040.62 320.581 1039.28 315.838 1037.36Z" fill="#867964"/>
<path d="M372.702 119.002C370.674 122.28 369.063 124.771 366.896 128.12C364.779 115.303 368.561 107.549 379.968 103.657C377.208 109.522 375.163 113.868 372.702 119.002Z" fill="#867964"/>
<path d="M400.834 228.328C403.381 228.299 407.794 228.858 408.016 230.139C408.861 235.038 408.357 240.169 408.357 246.983C404.435 244.913 402.196 243.731 399.144 242.22C399.145 237.677 399.96 233.462 400.834 228.328Z" fill="#83735E"/>
<path d="M326.164 228.767C325.315 222.447 324.984 216.881 324.653 211.315C326.301 211.179 327.95 211.044 329.599 210.908C330.848 218.151 332.096 225.394 333.935 236.056C329.726 232.263 328.205 230.892 326.164 228.767Z" fill="#897E6A"/>
<path d="M448.475 881.191C449.174 883.288 448.807 885.484 447.845 888.254C440.476 891.8 433.853 894.231 429.432 882.552C436.13 882.081 441.769 881.685 448.475 881.191Z" fill="#83735E"/>
<path d="M381.584 890.865C373.968 892.776 366.333 894.12 358.698 895.463C358.157 894.283 357.617 893.103 357.076 891.922C361.635 889.795 366.193 887.668 371.349 884.911C374.123 884.567 376.301 884.852 379.136 886.357C380.164 888.312 380.729 888.842 381.488 889.165C381.488 889.165 381.565 890.298 381.584 890.865Z" fill="#83735E"/>
<path d="M269.947 80.8737C274.621 84.4661 287.776 75.6859 285.596 90.9823C280.038 88.2954 275.094 84.9957 269.947 80.8737Z" fill="#A79981"/>
<path d="M413.059 48.625C421.195 52.0538 424.116 59.0059 422.872 68.9757C419.606 63.1748 416.366 56.3733 413.059 48.625Z" fill="#857865"/>
<path d="M51.5847 483.706C50.9812 482.894 50.5548 481.183 50.8147 479.318C51.5878 480.378 51.6747 481.592 51.5847 483.706Z" fill="#A79981"/>
<path d="M241.756 19.5104C241.491 18.0766 242.071 16.6873 242.651 15.2981C243.69 16.1557 244.73 17.0133 245.877 18.6666C244.856 19.4933 243.728 19.5241 241.756 19.5104Z" fill="#867964"/>
<path d="M410.73 40.9247C409.865 39.0746 409.046 37.1144 408.285 34.3308C408.34 33.5074 408.316 33.5275 408.979 33.994C410.096 36.5507 410.55 38.6409 411.004 40.7311C411.004 40.7311 410.778 40.8144 410.73 40.9247Z" fill="#897E6A"/>
<path d="M264.009 155.709C263.903 155.781 264.115 155.637 264.009 155.709Z" fill="#867964"/>
<path d="M408.356 33.4943C407.664 33.1138 406.957 32.7464 406.016 31.7975C405.782 31.2159 405.991 31.0333 406.643 31.202C407.635 32.0896 407.975 32.8085 408.316 33.5274C408.316 33.5274 408.341 33.5074 408.356 33.4943Z" fill="#897E6A"/>
<path d="M381.352 888.592C380.729 888.842 380.164 888.312 379.658 887.001C380.262 886.77 380.826 887.301 381.352 888.592Z" fill="#A89B81"/>
<path d="M37.1927 38.3862C42.3532 44.6349 47.5568 50.8447 53.4674 57.4634C43.9897 64.0733 37.6861 72.5246 40.1072 87.538C35.2415 83.7013 32.6227 81.6363 29.2788 79.3109C26.1335 63.3989 23.7134 47.7473 22.8585 31.6005C27.896 32.7497 31.3685 34.3941 34.841 36.0385C34.841 36.0385 34.9207 35.9637 35.0314 36.5844C35.8595 37.618 36.577 38.0308 37.2944 38.4436C37.2944 38.4436 37.2359 38.3473 37.1927 38.3862Z" fill="#C4BCA1"/>
<path d="M44.4166 161.042C42.4309 166.548 40.4371 171.111 37.7962 176.252C33.1679 170.109 29.1865 163.39 25.1586 154.721C25.9523 144.877 26.3355 136.889 27.9187 129.146C28.3787 126.896 32.2714 125.347 34.5904 123.477C37.8632 135.684 41.1359 147.892 44.4166 161.042Z" fill="#C4BCA1"/>
<path d="M410.785 760.581C417.612 755.12 424.44 749.659 431.267 744.197C432.425 746.133 433.583 748.069 434.741 750.005C427.361 753.498 419.981 756.991 411.684 760.525C410.767 760.566 410.785 760.581 410.785 760.581Z" fill="#C4BCA1"/>
<path d="M405.918 762.991C407.051 762.2 408.184 761.406 410.051 760.597C410.785 760.581 410.767 760.566 410.762 760.559C409.62 761.321 408.483 762.09 406.628 762.922C405.911 762.986 405.918 762.991 405.918 762.991Z" fill="#C4BCA1"/>
<path d="M329.254 26.1383C330.229 23.7707 332.108 21.4408 334.812 19.0313C333.811 21.3598 331.984 23.7679 329.254 26.1383Z" fill="#867964"/>
<path d="M382.001 12.298C384.107 12.6294 386.55 13.6796 389.011 15.6068C386.799 15.328 384.568 14.1724 382.001 12.298Z" fill="#C5BDA2"/>
<path d="M296.804 48.0589C297.141 47.7714 297.468 47.4728 297.796 47.1742C297.678 47.3773 297.56 47.5805 297.108 47.9072C296.774 48.0308 296.796 48.0477 296.804 48.0589Z" fill="#867964"/>
<path d="M379.841 10.137C380.4 9.73623 381.018 10.0655 381.638 11.17C381.074 11.5267 380.494 11.1674 379.841 10.137Z" fill="#C5BDA2"/>
<path d="M278.199 72.0429C270.036 69.6123 262.862 67.3318 255.688 65.0514C255.651 64.219 255.614 63.3866 255.577 62.5542C263.327 61.7543 271.085 60.3738 278.825 60.4646C281.588 60.497 284.309 64.0918 287.05 66.0605C284.43 68.1047 281.809 70.1488 278.199 72.0429Z" fill="#A79981"/>
<path d="M256.508 52.1706C258.982 53.4863 261.456 54.802 263.929 56.1177C263.538 56.8845 263.146 57.6512 262.754 58.418C260.351 57.2317 257.948 56.0454 255.657 53.7979C255.768 52.7367 256.508 52.1706 256.508 52.1706Z" fill="#C5BDA2"/>
<path d="M255.408 53.0326C254.406 51.3915 253.764 49.4547 253.123 47.5178C253.65 47.3353 254.177 47.1528 254.704 46.9702C255.208 48.2291 255.712 49.4879 256.362 51.4587C256.508 52.1706 255.768 52.7368 255.408 53.0326Z" fill="#C5BDA2"/>
<path d="M98.0236 1189.44C97.4692 1189.25 96.8749 1189.12 96.2808 1188.99C96.7651 1188.8 97.2495 1188.62 97.8167 1189.02C97.8994 1189.59 97.9839 1189.49 98.0236 1189.44Z" fill="#FEFDFC"/>
<path d="M187.518 1132.9C183.538 1133.92 179.053 1134.86 174.675 1134.49C167.574 1133.91 160.543 1132.47 152.433 1131.35C151.431 1127.74 150.957 1124.08 151.631 1120.63C153.216 1112.53 160.001 1109.23 166.663 1114.08C173.988 1119.41 180.305 1126.12 187.518 1132.9Z" fill="#C4BCA1"/>
<path d="M408.979 33.994C407.975 32.8086 407.635 32.0897 406.751 31.1144C405.328 27.4125 404.448 23.967 403.438 19.6111C408.879 22.3418 414.451 25.9829 420.022 29.624C417.565 33.2439 415.109 36.8637 411.828 40.6073C410.55 38.6409 410.096 36.5507 408.979 33.994Z" fill="#C4BCA1"/>
<path d="M37.0851 37.8542C36.5769 38.0309 35.8593 37.6181 34.9768 36.5839C35.4997 36.3965 36.1877 36.8306 37.0851 37.8542Z" fill="#867964"/>
<path d="M25.7891 853.279C26.7881 852.532 27.3923 852.537 28.901 852.559C28.1379 859.4 26.47 866.224 24.1192 873.505C24.0889 867.318 24.7416 860.674 25.7891 853.279Z" fill="#968772"/>
<path d="M27.2933 831.291C27.9438 832.24 28.2814 833.63 28.0702 835.371C27.3411 834.392 27.1609 833.063 27.2933 831.291Z" fill="#968772"/>
<path d="M34.3869 122.587C32.2713 125.347 28.3786 126.896 27.9186 129.146C26.3353 136.889 25.9522 144.877 24.9787 153.864C23.1371 154.051 20.7625 153.584 19.829 152.168C14.2233 143.667 20.4984 114.854 30.3352 106.879C31.7115 112.179 32.9477 116.938 34.3869 122.587Z" fill="#A79981"/>
<path d="M15.5362 68.8289C14.4711 56.5183 13.4144 45.1933 12.3576 33.8683C12.9684 33.8287 13.5792 33.7891 14.1901 33.7495C16.7196 47.6745 19.249 61.5995 21.7785 75.5244C20.9458 75.9012 20.1131 76.2779 19.2806 76.6546C18.0351 74.3746 16.7898 72.0946 15.5362 68.8289Z" fill="#A59477"/>
<path d="M34.7843 35.1471C31.3683 34.3941 27.8958 32.7497 23.6022 30.9157C22.804 30.3072 22.8271 29.8884 22.9329 28.8399C26.9197 30.2253 30.8237 32.2405 34.7843 35.1471Z" fill="#867964"/>
</svg>
