<svg width="787" height="629" viewBox="0 0 787 629" fill="none" xmlns="http://www.w3.org/2000/svg">
<path d="M228.939 585.169C228.939 585.169 227.8 585.411 226.863 584.798C224.501 584.489 223.076 584.793 221.65 585.096C221.227 585.062 220.804 585.027 219.684 584.035C218.268 580.516 217.547 577.955 217.924 575.411C243.38 573.41 267.736 571.342 292.105 569.445C294.692 569.244 298.404 569.051 299.818 570.54C309.216 580.437 321.462 580.602 333.359 580.137C359.334 579.12 385.258 576.891 411.226 575.627C424.026 575.004 437.478 582.634 449.504 572.314C450.132 571.775 452.008 572.014 452.899 572.555C473.832 585.285 496.976 579.38 519.222 580.198C555.433 581.53 591.675 582.199 627.91 582.506C632.791 582.547 640.662 580.069 642.051 576.674C646.329 566.217 649.702 554.867 650.546 543.648C651.889 525.8 650.277 507.75 651.074 489.837C651.964 469.832 655.718 449.863 655.449 429.916C654.832 384.109 652.901 338.306 650.724 292.539C649.871 274.582 647.243 256.684 644.873 238.832C641.502 213.452 638.233 188.031 633.799 162.825C628.744 134.079 622.652 105.507 616.424 76.9872C615.751 73.9069 611.574 70.1442 608.357 69.3341C598.314 66.8043 587.952 65.5396 577.846 62.9603C576.65 59.3988 575.321 56.6614 573.992 53.9241C575.063 54.0165 576.134 54.1086 579.034 54.0536C595.044 53.1338 609.247 52.6257 623.39 51.4065C627.007 51.0947 630.431 48.5333 633.944 47.0055C633.944 47.0055 633.896 47.1506 634.772 47.1478C641.321 45.1857 647.053 43.3804 652.653 41.2302C660.488 38.2219 660.968 42.2966 659.589 48.4234C659.436 48.5952 659.384 49.0508 658.636 49.4015C650.101 57.0426 649.724 65.4105 653.135 75.0879C656.726 85.2747 659.647 95.7499 662.104 106.275C675.633 164.221 681.606 223.26 687.502 282.327C692.506 332.462 694.238 382.553 689.911 432.857C686.04 477.863 683.305 522.967 679.803 568.007C678.698 582.222 672.215 585.392 659.745 578.544C654.117 575.453 648.057 571.046 648.394 583.008C648.394 583.008 648.703 583.652 647.717 584.197C627.871 587.943 609.01 591.143 589.776 593.876C588.743 592.866 587.987 592.633 586.146 592.738C569.075 591.741 552.995 590.712 536.806 589.003C535.925 587.601 535.154 586.879 534.384 586.158C533.592 587.314 532.801 588.471 531.015 589.646C520.268 589.177 510.516 588.689 500.263 587.449C496.794 587.897 493.824 589.097 489.864 590.326C479.837 590.1 470.802 589.846 461.74 588.74C460.564 582.151 458.87 577.467 451.407 582.823C450.855 582.809 449.749 582.801 448.601 582.77C433.513 583.626 419.572 584.514 404.587 585.35C398.028 585.345 392.513 585.393 386.182 585.076C377.222 585.653 369.068 587.443 360.934 587.355C345.336 587.185 329.749 585.965 314.16 585.138C311.37 584.991 307.24 585.728 306.019 584.213C294.741 570.218 279.088 575.093 265.588 576.192C256.897 576.899 245.464 572.8 237.803 583.054C234.266 583.789 231.603 584.479 228.939 585.169Z" fill="#EAD19F"/>
<path d="M757.323 223.914C756.566 236.256 755.808 248.598 753.932 261.961C751.144 265.987 748.117 268.953 748.031 272.003C747.579 287.845 747.601 303.715 747.981 319.563C748.509 341.535 749.104 363.52 750.485 385.448C751.07 394.733 753.725 403.888 755.439 413.102C757.722 424.633 760.006 436.163 761.58 449.294C762.624 462.64 764.155 474.425 766.172 486.127C773.78 530.265 782.779 574.232 781.836 619.372C774.452 630.206 762.236 628.554 752.367 628.134C737.456 627.498 722.708 623.068 707.977 619.443C708.622 618.242 709.181 617.849 709.74 617.455C708.663 617.195 707.586 616.935 706.508 616.675C706.508 616.675 706.637 616.631 706.438 616.085C705.523 615.104 704.807 614.668 704.091 614.232C704.091 614.232 704.221 614.231 704.242 613.35C706.332 608.424 708.27 604.304 710.502 600.35C713.93 594.28 719.956 588.596 720.678 582.269C723.407 558.383 725.699 534.31 725.829 510.295C726.056 468.43 723.968 426.556 723.957 384.685C723.947 344.84 725.377 304.994 726.122 265.147C726.375 251.604 727.486 237.975 726.404 224.53C724.638 202.583 720.632 180.811 718.987 158.859C717.303 136.39 712.111 115.115 698.998 96.8762C691.575 86.5502 685.103 78.3887 700.173 69.0092C703.626 67.1019 706.36 65.5613 709.268 64.5438C709.882 64.8713 710.323 64.6756 710.765 64.4799C710.15 64.4066 709.536 64.3333 709.245 63.3234C710.332 57.3142 711.096 52.2412 712.735 47.2749C716.147 52.4027 719.486 57.1863 721.055 62.4928C724.746 74.9711 727.096 87.8519 730.929 100.28C734.316 111.263 740.845 121.543 742.698 132.679C747.073 158.974 749.355 185.613 752.837 212.066C753.373 216.141 755.781 219.971 757.323 223.914Z" fill="#F4E1B6"/>
<path d="M102.877 583.213C98.234 582.687 93.5913 582.161 88.5367 579.948C85.2603 571.948 82.3957 565.633 79.5311 559.319C78.2899 559.817 77.0486 560.315 75.8073 560.813C76.5288 565.4 77.1498 570.004 77.9923 574.568C79.8921 584.86 77.6199 586.493 66.4299 581.781C63.1869 568.429 59.7328 556.093 56.7514 543.644C46.6306 501.383 42.0016 458.439 42.2975 415.045C42.5084 384.119 43.8468 353.201 44.5884 322.277C44.7924 313.772 44.6599 305.259 44.6772 295.84C44.6816 293.109 44.6905 291.289 45.3512 288.89C46.2933 285.417 46.5837 282.522 46.7698 278.671C46.0399 271.165 45.4143 264.615 45.7245 257.803C46.7624 245.564 46.8646 233.587 46.9733 220.601C46.9763 216.229 46.973 212.867 47.6177 209.001C47.8359 205.599 47.406 202.698 46.9801 198.663C51.3144 152.899 37.2405 110.807 27.5911 68.6113C32.7028 66.6108 36.2587 65.2193 40.7986 63.9261C44.3952 64.3823 47.0079 64.7402 50.2657 65.584C54.4886 65.4184 58.0665 64.767 62.598 64.1216C69.3191 62.2713 75.0863 60.4147 80.9751 59.5393C85.1154 87.3225 90.2549 114.022 92.7322 140.965C94.2202 157.148 91.5554 173.712 90.0568 190.758C89.0301 196.658 88.7036 201.904 88.3597 208.191C86.6172 224.356 84.5412 239.45 83.232 254.611C79.1294 302.126 74.9731 349.642 71.6307 397.213C70.7946 409.112 72.3732 421.288 73.8169 433.219C78.1421 468.96 82.0401 504.795 88.0047 540.275C90.4808 555.004 97.7741 568.925 102.877 583.213Z" fill="#EFD8A8"/>
<path d="M29.9949 580.608C20.3319 582.074 18.0108 574.472 16.6959 568.144C11.0525 540.985 3.85778 513.86 1.52705 486.36C-4.09376 420.037 7.15425 354.581 13.3965 288.721C18.8148 231.555 16.6798 173.511 15.0951 115.931C14.4971 94.2055 6.07344 72.6949 2.36227 50.1311C7.51746 51.7188 11.5275 54.2617 15.216 57.6048C15.8707 64.5201 16.6456 70.6755 17.8589 76.7434C22.6857 100.88 27.5592 125.009 32.6911 149.082C33.2473 151.69 35.5893 153.919 37.1404 157.265C36.5188 163.099 35.8596 167.991 35.0984 174.041C33.4793 223.903 31.9625 272.607 30.4209 322.058C30.3829 323.801 30.3696 324.798 29.6279 326.381C29.2274 332.237 29.5552 337.507 29.9123 343.669C29.9022 346.348 29.8628 348.134 28.931 350.17C27.2393 351.271 25.7991 352.076 25.7331 352.981C22.2864 400.133 18.8714 447.287 15.835 494.466C15.6621 497.153 18.6875 500.046 20.2378 503.637C20.2269 505.491 20.2024 506.55 19.5451 508.237C20.0891 513.348 21.2658 517.832 22.4882 523.157C21.9937 527.271 21.4535 530.544 20.8287 534.611C22.1184 536.698 23.4928 537.99 24.9231 540.353C26.6509 554.487 28.3229 567.547 29.9949 580.608Z" fill="#BA8842"/>
<path d="M649.299 582.873C648.057 571.046 654.117 575.453 659.745 578.544C672.215 585.392 678.698 582.221 679.803 568.007C683.305 522.967 686.04 477.863 689.911 432.857C694.238 382.553 692.506 332.462 687.502 282.327C681.606 223.26 675.633 164.221 662.104 106.275C659.647 95.7498 656.726 85.2747 653.135 75.0879C649.724 65.4105 650.101 57.0426 659.051 50.2198C660.275 55.1655 660.335 59.6436 660.361 65.0296C661.226 68.6597 662.124 71.3819 663.02 75.0376C664.596 81.6969 666.174 87.4228 667.778 93.1688C667.804 93.1889 667.807 93.255 667.789 94.197C671.759 103.322 675.748 111.505 680.115 120.499C692.852 149.448 696.047 179.547 699.383 210.714C701.051 247.622 702.715 283.429 704.502 319.23C704.573 320.646 705.817 322.004 706.541 324.525C706.571 342.95 706.984 360.249 706.489 377.523C705.549 410.362 704.089 443.186 701.91 476.445C695.607 509.177 690.239 541.48 684.979 574.686C683.366 581.049 681.645 586.51 679.924 591.971C673.114 590.301 666.25 588.82 659.518 586.879C656.284 585.947 653.301 584.145 649.299 582.873Z" fill="#937F63"/>
<path d="M699.453 69.376C685.103 78.3888 691.574 86.5503 698.998 96.8764C712.111 115.115 717.302 136.39 718.987 158.859C720.632 180.811 724.638 202.583 726.404 224.531C727.486 237.976 726.374 251.604 726.121 265.148C725.377 304.994 723.947 344.84 723.957 384.685C723.968 426.556 726.056 468.43 725.829 510.295C725.698 534.311 723.406 558.383 720.678 582.269C719.955 588.596 713.93 594.28 710.502 600.35C708.27 604.304 706.332 608.424 704.214 613.408C701.224 613.18 698.282 612.012 695.311 609.337C714.378 572.093 715.692 532.733 716.011 493.916C716.615 420.542 715.009 347.147 714.01 273.764C713.611 244.389 715.649 214.466 710.724 185.797C704.516 149.651 704.191 110.824 678.597 80.2281C677.92 79.4194 678.072 77.9186 678.706 76.4808C686.24 69.1981 692.906 62.1751 699.572 55.1521C700.208 55.7176 700.844 56.2831 701.48 56.8488C700.804 61.0246 700.129 65.2002 699.453 69.376Z" fill="#D7AA5D"/>
<path d="M677.838 76.7404C678.072 77.9184 677.92 79.4192 678.596 80.2279C704.191 110.824 704.516 149.651 710.724 185.797C715.648 214.466 713.611 244.389 714.01 273.764C715.008 347.146 716.615 420.542 716.011 493.916C715.692 532.733 714.378 572.093 694.916 608.626C692.992 608.36 691.432 607.299 689.328 605.089C688.096 603.581 687.409 603.223 686.722 602.865C686.722 602.865 686.559 602.709 686.738 601.669C702.237 564.568 706.866 526.077 708.347 487.758C710.461 433.071 708.883 378.241 708.962 322.352C707.377 290.495 705.914 259.744 703.883 229.032C703.451 222.488 700.949 216.081 699.401 209.611C696.047 179.547 692.852 149.448 680.163 119.6C675.826 109.678 671.817 101.467 667.807 93.2549C667.807 93.2549 667.804 93.1888 667.812 92.08C668.043 85.8009 668.267 80.631 669.419 75.6243C672.844 76.1052 675.341 76.4228 677.838 76.7404Z" fill="#AF7834"/>
<path d="M20.9132 533.817C21.4534 530.544 21.9936 527.271 22.6089 522.16C21.8486 516.084 21.0132 511.847 20.1778 507.609C20.2023 506.55 20.2268 505.491 20.3153 502.493C20.5908 483.301 19.977 465.989 21.1904 448.806C23.5207 415.805 26.8869 382.878 29.8234 349.92C29.8627 348.134 29.9021 346.348 30.6247 343.077C30.9908 336.326 30.6736 331.06 30.3564 325.795C30.3696 324.798 30.3828 323.801 31.2942 321.727C34.7108 304.735 38.7893 288.883 39.4118 272.896C40.5822 242.844 39.8958 212.712 39.5609 182.618C39.5246 179.357 36.7206 176.127 35.2004 172.883C35.8596 167.991 36.5187 163.099 37.2365 156.147C35.192 139.145 33.5353 124.124 30.8671 109.283C27.8456 92.4783 23.917 75.8362 21.3152 59.1341C26.4342 59.863 30.6207 60.581 35.5092 61.5103C37.4124 62.4238 38.6134 63.1257 39.8145 63.8276C36.2585 65.2194 32.7026 66.6109 27.5909 68.6113C37.2403 110.807 51.3142 152.899 46.3637 199.181C46.1522 203.724 46.5608 206.614 46.9694 209.504C46.9728 212.867 46.9761 216.229 46.2774 221.325C45.3131 234.727 45.0508 246.396 44.7885 258.065C45.4142 264.615 46.0397 271.165 45.9658 278.86C45.0773 283.159 44.8883 286.314 44.6992 289.469C44.6903 291.289 44.6814 293.109 43.9655 296.432C41.2853 311.766 38.6624 325.541 37.4799 339.438C35.302 365.037 34.1738 390.723 32.2448 416.345C28.095 471.464 27.5109 526.338 41.369 580.375C39.5197 581.244 38.3967 582.057 37.2737 582.87C36.2245 582.922 35.1755 582.975 33.1098 582.251C31.3676 581.093 30.6417 580.713 29.9158 580.333C29.9158 580.333 30.0733 580.437 30.0341 580.522C28.3229 567.547 26.6508 554.487 24.9636 539.583C23.6034 536.432 22.2582 535.125 20.9132 533.817Z" fill="#E1BB73"/>
<path d="M103.611 583.042C97.774 568.925 90.4808 555.004 88.0046 540.275C82.0401 504.796 78.142 468.96 73.8169 433.219C72.3731 421.288 70.7945 409.112 71.6306 397.213C74.973 349.642 79.1293 302.126 83.232 254.611C84.5411 239.451 86.6171 224.356 89.1316 208.099C90.4308 206.869 90.9406 206.772 91.9499 207.151C92.7783 208.945 93.1072 210.263 93.3218 212.7C93.1819 234.06 93.2814 254.303 93.0283 274.541C92.9758 278.731 91.6137 282.906 90.0277 286.752C79.0205 284.275 83.6516 292.573 83.7234 295.546C84.9808 347.63 86.7012 399.704 88.2992 452.873C91.3615 483.203 94.3107 512.456 97.6796 541.661C98.1672 545.889 100.668 549.884 102.363 554.961C104.211 564.017 105.933 572.098 107.656 580.18C106.552 581.077 105.448 581.973 103.611 583.042ZM85.9296 268.063C86.0624 271.079 86.1953 274.096 86.3282 277.112C87.1646 276.96 88.001 276.808 88.8375 276.656C87.9177 273.264 86.9979 269.873 85.9296 268.063Z" fill="#E0BE7B"/>
<path d="M236.17 20.5668C273.98 30.5886 312.269 36.3105 351.52 37.7786C381.634 38.905 411.599 44.0242 441.581 48.1857C439.404 49.4221 437.278 49.8409 433.551 50.575C439.96 51.9034 444.601 53.5332 449.297 53.7129C463.143 54.2426 477.01 54.1981 490.869 54.3784C494.221 53.5487 497.574 52.7189 502.405 52.4813C518.744 52.3545 533.605 51.1015 548.463 51.1318C556.429 51.1481 566.925 46.1556 570.324 59.501C549.679 60.5761 529.58 60.5677 509.524 61.4928C502.982 61.7947 496.475 66.1312 490.087 65.8224C476.561 65.1681 463.126 62.6492 449.649 60.9332C399.929 54.6026 350.164 48.6027 300.506 41.814C280.328 39.0553 260.418 34.3807 240.318 30.9806C226.649 28.6686 212.857 27.0912 199.131 25.1086C195.273 24.5514 191.455 23.7229 188.236 22.3005C200.726 21.0852 212.598 20.5883 224.47 20.0916C224.47 20.0916 224.359 20.321 224.742 20.9689C228.807 21.2668 232.488 20.9168 236.17 20.5668Z" fill="#C6B289"/>
<path d="M536.915 589.684C552.995 590.713 569.075 591.741 586.531 593.209C588.553 594.204 589.301 594.436 590.15 594.344C609.01 591.144 627.871 587.943 647.724 584.555C649.771 587.538 650.826 590.709 652.212 594.877C628.034 600.855 604.89 601.175 581.66 598.621C570.752 597.422 560.169 597.808 549.207 598.315C518.055 599.757 486.66 595.958 455.219 592.756C455.926 590.654 456.776 590.018 458.308 589.507C459.917 589.619 460.842 589.605 461.767 589.591C470.802 589.846 479.837 590.1 490.739 590.345C495.324 589.624 498.044 588.913 500.763 588.201C510.516 588.689 520.268 589.177 531.827 589.802C534.727 589.854 535.821 589.769 536.915 589.684Z" fill="#968772"/>
<path d="M757.397 222.792C755.781 219.971 753.373 216.142 752.836 212.066C749.355 185.613 747.072 158.975 742.698 132.679C740.845 121.543 734.316 111.263 730.929 100.28C727.096 87.852 724.746 74.9712 721.055 62.4929C719.486 57.1864 716.147 52.4028 712.644 46.3625C712.498 42.7025 713.318 40.0617 714.138 37.4207C722.933 49.6105 731.728 61.8004 740.479 75.8633C740.817 86.7177 739.935 95.9753 741.831 104.625C746.331 125.156 752.148 145.4 757.432 165.76C757.445 184.397 757.458 203.034 757.397 222.792Z" fill="#E8CE98"/>
<path d="M708.881 323.472C708.883 378.241 710.46 433.071 708.347 487.759C706.866 526.077 702.237 564.568 686.68 601.573C684.278 599.558 682.114 596.599 679.937 592.806C681.645 586.51 683.366 581.05 685.62 574.03C688.884 564.17 692.851 556.053 694.11 547.535C697.622 523.784 700.011 499.868 702.844 476.017C704.088 443.186 705.548 410.362 706.489 377.523C706.984 360.249 706.571 342.95 707.134 324.539C707.699 323.415 708.881 323.472 708.881 323.472Z" fill="#D9B073"/>
<path d="M714.074 36.4934C713.318 40.0623 712.498 42.7031 711.768 46.2565C711.095 52.2419 710.332 57.3149 709.288 63.2644C709.008 64.141 709.094 64.0214 709.094 64.0214C706.36 65.562 703.626 67.1026 700.173 69.0099C700.129 65.2008 700.804 61.0252 701.48 56.8494C700.844 56.2837 700.208 55.7182 699.572 55.1527C692.906 62.1757 686.241 69.1987 678.706 76.4814C675.341 76.4235 672.844 76.1059 669.308 75.1303C668.269 74.4722 668.029 73.4783 668.1 72.6634C676.468 64.8706 684.766 57.8928 693.064 50.9149C691.966 49.728 690.869 48.541 689.772 47.354C681.203 46.2945 674.991 49.7075 669.951 57.0664C667.837 60.152 663.643 61.8134 660.394 64.1223C660.335 59.6443 660.275 55.1662 659.8 49.8699C659.384 49.0514 659.436 48.5958 660.426 48.8072C668.564 44.2541 675.711 39.4894 682.859 34.7246C684.517 34.3325 686.175 33.9403 688.975 33.6865C690.786 33.4343 691.456 33.0436 692.125 32.653C699.765 31.0338 707.794 26.4974 714.074 36.4934Z" fill="#6F3E16"/>
<path d="M238.677 583.009C245.464 572.8 256.897 576.899 265.588 576.192C279.088 575.093 294.741 570.219 306.019 584.213C307.24 585.728 311.37 584.991 314.16 585.139C329.749 585.965 345.336 587.185 360.934 587.355C369.068 587.443 377.222 585.653 385.693 585.766C379.733 589.542 373.448 592.264 366.027 594.935C344.347 594.944 323.803 595.004 303.26 595.063C302.086 593.431 300.911 591.798 299.084 588.908C278.513 586.103 258.595 584.556 238.677 583.009Z" fill="#E4CA94"/>
<path d="M40.7985 63.926C38.6135 63.1258 37.4125 62.4239 35.5762 60.5566C31.6105 46.1992 32.2677 30.7364 15.1585 25.396C14.0832 25.0604 13.8955 21.8841 13.2948 20.029C23.4323 14.826 33.149 8.18072 43.8911 5.04983C48.9945 3.5622 56.0533 8.77566 62.8147 11.7781C62.7073 13.6594 62.0113 14.7157 60.4224 15.6287C49.1829 10.5202 38.8951 7.08197 30.5733 14.6641C36.4393 24.419 41.7537 33.2566 47.0568 42.8239C47.0443 44.5261 47.0432 45.499 46.9446 47.5378C47.7718 54.102 48.6961 59.6001 49.6205 65.0982C47.0078 64.7403 44.3952 64.3824 40.7985 63.926Z" fill="#9B571D"/>
<path d="M151.255 558.801C144.36 555.158 137.466 551.516 129.635 546.604C127.314 544.895 125.931 544.456 124.548 544.017C124.548 544.017 124.638 543.937 124.135 543.278C119.132 541.441 114.632 540.263 109.458 538.483C105.989 524.515 103.195 511.151 101.065 498.263C115.234 512.633 128.775 526.491 142.222 540.44C146.299 544.67 150.112 549.156 153.726 554.201C152.689 556.185 151.972 557.493 151.255 558.801Z" fill="#AE7537"/>
<path d="M782.7 618.88C782.779 574.232 773.779 530.265 766.171 486.127C764.154 474.425 762.624 462.64 761.519 450.281C768.269 476.227 775.827 502.556 780.054 529.409C784.163 555.516 785.002 582.15 786.864 608.582C787.088 611.757 784.727 615.115 782.7 618.88Z" fill="#E4CA94"/>
<path d="M156.274 8.16596C160.195 10.2783 164.116 12.3906 165.822 13.3097C172.628 13.3097 177.959 13.3097 183.67 14.0687C180.743 17.8009 177.436 20.774 173.486 23.8019C172.421 23.8841 172 23.9114 170.551 23.5944C168.094 23.3577 166.662 23.4654 164.517 23.2117C160.466 21.4597 157.129 20.0691 152.799 18.3834C141.209 17.644 130.611 17.1998 119.005 16.4244C113.81 16.1618 109.623 16.2306 104.447 16.0557C100.123 15.859 96.7882 15.9059 92.4433 15.8086C84.7701 17.2745 78.1068 18.8847 70.657 20.3756C68.6646 18.7316 67.4585 17.207 66.7786 14.9633C92.4813 0.547753 119.217 10.2973 145.222 9.05171C148.912 8.87479 152.59 8.46683 156.274 8.16596Z" fill="#896E51"/>
<path d="M12.456 20.3086C13.8952 21.884 14.0829 25.0603 15.1582 25.3959C32.2674 30.7363 31.6102 46.1992 34.8738 60.3449C30.6205 60.581 26.4341 59.863 20.9376 58.53C18.2641 57.545 16.9008 57.1747 15.5373 56.8046C11.5273 54.2617 7.5172 51.7188 2.68548 49.1536C-2.10355 37.1531 2.77628 28.1946 12.456 20.3086Z" fill="#693812"/>
<path d="M367.163 594.984C373.448 592.263 379.733 589.542 386.508 586.131C392.512 585.393 398.028 585.345 405.294 586.004C411.636 587.716 416.285 589.761 420.808 589.514C430.748 588.972 442.499 595.093 449.749 582.801C449.749 582.801 450.854 582.809 451.737 583.467C454.288 585.877 455.956 587.629 457.625 589.382C456.776 590.018 455.926 590.654 454.683 591.988C435.868 594.752 417.48 597.205 399.015 598.727C389.211 599.535 379.275 598.731 368.404 597.842C367.197 596.363 367.115 595.682 367.163 594.984Z" fill="#AF8D60"/>
<path d="M100.401 497.786C103.195 511.151 105.989 524.515 109.467 539.137C110.161 540.83 110.17 541.266 110.179 541.703C110.122 542.122 110.064 542.541 108.856 543.533C105.883 547.4 104.06 550.693 102.237 553.987C100.667 549.884 98.167 545.889 97.6795 541.661C94.3105 512.456 91.3614 483.203 89.0159 452.946C90.8843 452.71 92.0139 453.495 93.1362 455.363C95.5531 470.227 97.9773 484.006 100.401 497.786Z" fill="#CEA454"/>
<path d="M755.386 411.965C753.725 403.888 751.07 394.733 750.485 385.448C749.104 363.52 748.509 341.535 747.981 319.563C747.6 303.715 747.579 287.845 748.03 272.003C748.117 268.953 751.144 265.987 753.777 262.999C754.234 281.427 753.191 299.843 753.346 318.249C753.607 349.111 754.631 379.968 755.386 411.965Z" fill="#E4CA94"/>
<path d="M155.513 7.66838C152.591 8.46627 148.912 8.87423 145.222 9.05114C119.217 10.2968 92.4816 0.547192 65.9605 14.9839C63.5157 15.7403 62.4155 15.7562 61.3153 15.7721C62.0114 14.7156 62.7074 13.6593 63.6882 12.0374C71.7187 7.93863 79.2304 2.12905 87.2546 1.30499C109.939 -1.02461 132.802 -0.966772 155.513 7.66838Z" fill="#6E4321"/>
<path d="M757.585 164.646C752.148 145.4 746.331 125.156 741.831 104.625C739.935 95.9752 740.817 86.7176 740.553 76.7222C755.176 103.271 758.509 133.004 757.585 164.646Z" fill="#E0B873"/>
<path d="M237.803 583.054C258.595 584.556 278.513 586.102 298.509 588.411C294.809 591.142 290.8 595.143 287.292 594.743C268.242 592.572 249.316 589.315 229.643 585.801C231.603 584.479 234.266 583.789 237.803 583.054Z" fill="#B1844B"/>
<path d="M570.887 58.7802C566.924 46.1555 556.429 51.148 548.462 51.1317C533.604 51.1014 518.744 52.3544 503.281 52.3853C523.253 49.2926 543.801 46.5607 564.433 44.8636C567.277 44.6297 570.544 49.526 573.803 52.9857C575.321 56.6614 576.65 59.3988 577.088 62.9946C574.427 62.1621 572.657 60.4713 570.887 58.7802Z" fill="#AF8D60"/>
<path d="M102.362 554.961C104.059 550.693 105.882 547.4 108.614 544.12C111.869 550.888 113.553 557.973 116.721 564.318C121.198 573.281 117.882 577.635 108.523 580.126C105.933 572.098 104.211 564.017 102.362 554.961Z" fill="#AD7B3F"/>
<path d="M490.632 53.38C477.01 54.1986 463.142 54.2431 449.297 53.7134C444.6 53.5337 439.959 51.9039 433.551 50.5756C437.278 49.8414 439.404 49.4227 442.408 48.6646C455.138 48.6749 467.003 48.8093 478.836 49.4965C482.732 49.7227 486.544 51.3788 490.632 53.38Z" fill="#AF8D60"/>
<path d="M632.799 47.0457C630.431 48.5327 627.007 51.0941 623.39 51.4059C609.247 52.6251 595.044 53.1332 579.84 54.0474C581.711 52.0583 584.506 48.2566 587.514 48.0799C602.197 47.2176 616.936 47.3233 632.799 47.0457Z" fill="#937F63"/>
<path d="M66.4351 582.745C77.6196 586.493 79.8919 584.86 77.992 574.568C77.1495 570.004 76.5286 565.4 75.8071 560.814C77.0483 560.315 78.2896 559.817 79.5309 559.319C82.3955 565.634 85.26 571.948 88.1917 579.138C82.1523 588.536 73.7991 588.922 64.4592 587.089C57.5368 585.73 50.44 585.259 42.6977 583.692C41.9745 582.99 42.2091 582.714 43.309 582.752C51.751 582.775 59.093 582.76 66.4351 582.745Z" fill="#D9B073"/>
<path d="M174.13 23.7465C177.436 20.7735 180.743 17.8004 184.516 14.2012C198.117 15.118 211.253 16.6608 224.429 19.1477C212.598 20.5883 200.726 21.0851 187.25 22.3333C181.807 23.3051 177.968 23.5258 174.13 23.7465Z" fill="#ABA088"/>
<path d="M366.027 594.934C367.115 595.682 367.197 596.363 367.525 597.528C347.694 598.531 327.749 599.084 307.8 599.428C306.548 599.449 305.268 597.839 303.631 596.025C323.803 595.003 344.347 594.944 366.027 594.934Z" fill="#BBB096"/>
<path d="M151.751 559.472C151.972 557.493 152.689 556.185 154.547 554.337C162.319 556.948 168.951 560.098 176.389 563.657C186.364 566.116 195.534 568.168 205.533 570.299C207.476 570.379 208.588 570.381 209.777 571.035C209.909 572.124 209.965 572.56 209.045 573.05C206.785 573.288 205.5 573.469 204.214 573.651C186.892 569.148 169.57 564.646 151.751 559.472Z" fill="#AF8D60"/>
<path d="M681.911 34.367C675.711 39.4889 668.563 44.2535 660.578 48.6349C660.968 42.2967 660.488 38.2221 652.653 41.2303C647.053 43.3805 641.321 45.1859 634.7 47.1222C647.258 34.6977 664.206 34.6962 681.911 34.367Z" fill="#937F63"/>
<path d="M204.732 574.348C205.5 573.469 206.785 573.288 209.805 573.035C213.302 573.774 215.064 574.583 216.826 575.393C217.547 577.955 218.268 580.516 219.071 583.864C210.706 586.961 206.864 582.613 204.732 574.348Z" fill="#E4CA94"/>
<path d="M111.091 541.734C110.17 541.266 110.161 540.83 110.142 539.74C114.632 540.263 119.132 541.441 124.124 543.337C120.411 543.292 116.207 542.529 111.091 541.734Z" fill="#AD7B3F"/>
<path d="M235.467 20.249C232.488 20.9168 228.806 21.2668 224.63 20.9065C227.679 20.1077 231.221 20.0193 235.467 20.249Z" fill="#ABA088"/>
<path d="M38.01 583.041C38.3967 582.057 39.5198 581.244 41.4122 580.973C42.1816 581.515 42.2093 582.714 42.2093 582.714C42.2093 582.714 41.9747 582.991 41.8615 583.141C40.7477 583.265 39.7471 583.239 38.01 583.041Z" fill="#D9B073"/>
<path d="M706.479 617.231C707.585 616.935 708.663 617.195 709.74 617.456C709.181 617.849 708.621 618.242 707.494 618.714C706.927 618.792 706.45 617.786 706.479 617.231Z" fill="#D7AA5D"/>
<path d="M222.473 585.233C223.075 584.793 224.501 584.489 226.281 584.769C225.523 585.358 224.41 585.364 222.473 585.233Z" fill="#E4CA94"/>
<path d="M124.949 544.634C125.931 544.456 127.314 544.895 129.062 545.987C128.068 546.177 126.709 545.714 124.949 544.634Z" fill="#AD7B3F"/>
<path d="M686.876 603.42C687.409 603.223 688.097 603.581 688.859 604.548C688.105 605.074 687.471 604.681 686.876 603.42Z" fill="#D9B073"/>
<path d="M691.42 32.5603C691.455 33.043 690.786 33.4337 689.815 33.5237C689.914 32.9714 690.315 32.7199 691.42 32.5603Z" fill="#937F63"/>
<path d="M704.136 614.938C704.807 614.668 705.523 615.104 706.444 616.153C705.826 616.393 705.003 616.019 704.136 614.938Z" fill="#D7AA5D"/>
<path d="M30.0951 580.982C30.6416 580.713 31.3674 581.094 32.3435 582.056C31.8207 582.303 31.0476 581.967 30.0951 580.982Z" fill="#BA8842"/>
<path d="M217.923 575.411C215.064 574.583 213.302 573.773 210.78 572.979C209.965 572.56 209.909 572.124 209.751 570.13C207.882 566.836 206.382 564.069 204.308 563.539C193.191 560.695 185.156 554.417 180.292 543.121C169.886 513.722 159.264 485.302 149.275 456.661C134.923 415.508 121.054 374.188 106.826 332.992C106.439 331.87 104.306 331.351 102.962 329.475C102.136 319.608 100.949 310.833 100.606 302.024C99.5123 273.984 98.8249 245.928 97.6513 217.892C97.5609 215.733 94.9013 213.682 93.4358 211.58C93.1069 210.263 92.7781 208.945 92.4303 206.522C93.4784 201.141 94.5455 196.866 96.2479 191.829C98.1561 175.447 99.4289 159.828 101.531 144.059C114.259 137.932 125.448 131.669 130.639 117.883C140.441 91.8501 142.064 65.6923 135.282 38.7236C133.145 30.2257 135.824 23.6626 146.282 22.707C148.886 22.469 151.294 20.0791 153.792 18.678C157.129 20.0684 160.465 21.459 164.733 23.8965C166.377 26.1557 167.09 27.368 167.803 28.5802C169.062 27.0328 170.32 25.4854 171.578 23.938C172 23.9107 172.421 23.8835 173.486 23.8012C177.968 23.5256 181.807 23.3049 186.632 23.0516C191.455 23.7227 195.273 24.5512 199.13 25.1084C212.856 27.091 226.649 28.6684 240.318 30.9804C260.418 34.3805 280.327 39.0551 300.506 41.8138C350.163 48.6025 399.929 54.6024 449.649 60.933C463.126 62.649 476.56 65.1679 490.087 65.8222C496.474 66.1311 502.982 61.7945 509.524 61.4926C529.58 60.5675 549.679 60.5759 570.324 59.5008C572.657 60.4712 574.427 62.1621 576.955 63.8188C587.952 65.5395 598.314 66.8042 608.357 69.334C611.573 70.1441 615.751 73.9068 616.424 76.9871C622.652 105.507 628.743 134.079 633.799 162.825C638.232 188.031 641.501 213.452 644.872 238.832C647.243 256.684 649.87 274.582 650.724 292.539C652.901 338.306 654.832 384.109 655.449 429.916C655.718 449.863 651.963 469.832 651.073 489.837C650.277 507.75 651.888 525.8 650.545 543.647C649.701 554.867 646.329 566.217 642.05 576.674C640.661 580.069 632.791 582.547 627.91 582.506C591.675 582.199 555.433 581.53 519.221 580.198C496.976 579.38 473.831 585.285 452.898 572.555C452.008 572.014 450.132 571.775 449.504 572.314C437.477 582.634 424.026 575.004 411.225 575.627C385.258 576.891 359.333 579.12 333.359 580.136C321.462 580.602 309.216 580.437 299.817 570.54C298.404 569.051 294.692 569.244 292.104 569.445C267.735 571.342 243.38 573.41 217.923 575.411Z" fill="#F7E9C4"/>
<path d="M448.601 582.77C442.499 595.093 430.748 588.972 420.808 589.514C416.285 589.761 411.636 587.716 406.338 586.057C419.572 584.515 433.513 583.626 448.601 582.77Z" fill="#E4CA94"/>
<path d="M458.308 589.507C455.956 587.629 454.288 585.877 452.289 583.481C458.869 577.467 460.564 582.151 461.74 588.74C460.842 589.605 459.917 589.619 458.308 589.507Z" fill="#E4CA94"/>
<path d="M500.263 587.449C498.044 588.913 495.324 589.624 491.73 590.316C493.824 589.097 496.794 587.897 500.263 587.449Z" fill="#E4CA94"/>
<path d="M536.805 589.003C535.821 589.769 534.727 589.854 532.821 589.783C532.8 588.471 533.592 587.314 534.383 586.158C535.154 586.879 535.925 587.601 536.805 589.003Z" fill="#E4CA94"/>
<path d="M589.776 593.875C589.301 594.436 588.553 594.204 587.521 593.177C587.987 592.633 588.743 592.866 589.776 593.875Z" fill="#E4CA94"/>
<path d="M708.964 64.2001C709.535 64.3334 710.15 64.4067 710.764 64.48C710.323 64.6757 709.882 64.8714 709.267 64.5439C709.094 64.0208 709.007 64.1403 708.964 64.2001Z" fill="#6F3E16"/>
<path d="M43.3093 582.752C42.2094 582.714 42.1818 581.515 42.1386 580.916C27.5111 526.338 28.0952 471.463 32.245 416.345C34.1741 390.723 35.3022 365.037 37.4801 339.438C38.6626 325.541 41.2855 311.766 43.9703 297.343C44.66 305.259 44.7925 313.772 44.5885 322.277C43.8468 353.201 42.5085 384.119 42.2976 415.045C42.0016 458.439 46.6307 501.383 56.7515 543.644C59.7329 556.093 63.187 568.429 66.4299 581.781C59.0934 582.76 51.7513 582.775 43.3093 582.752Z" fill="#E9CC91"/>
<path d="M100.702 144.209C99.4292 159.828 98.1565 175.447 95.6166 191.562C93.1521 191.407 91.9546 190.756 90.757 190.105C91.5554 173.712 94.2203 157.148 92.7322 140.965C90.2549 114.022 85.1154 87.3226 81.1604 58.9628C81.8464 56.9073 82.4687 56.4093 83.4493 56.7918C88.6782 69.5223 93.5487 81.3722 99.0154 93.8469C100.012 97.3529 100.412 100.234 100.883 104.099C100.869 118.125 100.786 131.167 100.702 144.209Z" fill="#E0BE7B"/>
<path d="M83.0911 55.9113C82.4687 56.4092 81.8464 56.9072 81.0388 57.9816C75.0863 60.4147 69.3191 62.2713 62.5214 63.2607C56.6748 57.0864 51.8585 51.779 47.0422 46.4716C47.0433 45.4989 47.0444 44.526 48.1483 42.8589C59.6969 43.9312 70.1428 45.6975 80.9701 48.1329C81.9313 51.1718 82.5112 53.5414 83.0911 55.9113Z" fill="#763F14"/>
<path d="M46.9448 47.5376C51.8585 51.779 56.6747 57.0863 61.5677 63.2546C58.0664 64.767 54.4886 65.4184 50.2656 65.5839C48.6962 59.6 47.7718 54.1019 46.9448 47.5376Z" fill="#C59146"/>
<path d="M45.7245 257.803C45.051 246.396 45.3133 234.727 46.2712 222.334C46.8647 233.587 46.7625 245.564 45.7245 257.803Z" fill="#E9CC91"/>
<path d="M90.0568 190.758C91.9546 190.756 93.1521 191.407 94.9812 192.325C94.5458 196.866 93.4787 201.142 91.9311 206.046C90.9407 206.772 90.4309 206.869 89.1491 207.058C88.7036 201.904 89.0301 196.657 90.0568 190.758Z" fill="#E4CA94"/>
<path d="M47.6174 209.002C46.5606 206.614 46.152 203.724 46.3596 200.316C47.4057 202.698 47.8356 205.599 47.6174 209.002Z" fill="#E9CC91"/>
<path d="M45.3508 288.89C44.8881 286.314 45.0771 283.159 46.0699 279.815C46.5833 282.522 46.293 285.417 45.3508 288.89Z" fill="#E9CC91"/>
<path d="M28.9309 350.17C26.887 382.878 23.5207 415.805 21.1904 448.806C19.9771 465.989 20.5909 483.301 20.3019 501.698C18.6874 500.046 15.6621 497.153 15.835 494.466C18.8714 447.287 22.2864 400.133 25.7331 352.981C25.7991 352.076 27.2393 351.271 28.9309 350.17Z" fill="#CFA04E"/>
<path d="M35.0984 174.041C36.7207 176.127 39.5248 179.357 39.561 182.618C39.896 212.712 40.5823 242.844 39.412 272.896C38.7895 288.883 34.7109 304.735 31.319 320.98C31.9626 272.607 33.4794 223.903 35.0984 174.041Z" fill="#CFA04E"/>
<path d="M15.2158 57.6049C16.9009 57.1748 18.2642 57.545 20.0052 58.5192C23.9169 75.8363 27.8455 92.4784 30.867 109.283C33.5352 124.124 35.1919 139.145 37.199 155.205C35.5891 153.919 33.2471 151.69 32.691 149.082C27.5591 125.009 22.6855 100.88 17.8588 76.7435C16.6454 70.6756 15.8705 64.5202 15.2158 57.6049Z" fill="#CFA04E"/>
<path d="M29.6279 326.381C30.6735 331.061 30.9907 336.326 30.5954 342.184C29.555 337.507 29.2272 332.238 29.6279 326.381Z" fill="#CFA04E"/>
<path d="M19.5451 508.237C21.0133 511.847 21.8486 516.085 22.5633 521.319C21.2658 517.832 20.089 513.348 19.5451 508.237Z" fill="#CFA04E"/>
<path d="M20.8288 534.612C22.2585 535.125 23.6036 536.433 24.908 538.511C23.493 537.99 22.1185 536.698 20.8288 534.612Z" fill="#CFA04E"/>
<path d="M701.91 476.445C700.012 499.868 697.622 523.784 694.111 547.535C692.851 556.053 688.885 564.17 685.512 573.127C690.239 541.48 695.607 509.177 701.91 476.445Z" fill="#6D411B"/>
<path d="M708.962 322.352C708.881 323.472 707.699 323.415 707.107 323.402C705.817 322.004 704.573 320.646 704.502 319.23C702.715 283.429 701.051 247.622 699.383 210.714C700.949 216.081 703.451 222.488 703.883 229.032C705.914 259.744 707.377 290.495 708.962 322.352Z" fill="#BB9F6B"/>
<path d="M660.361 65.0294C663.643 61.8126 667.837 60.1512 669.951 57.0656C674.991 49.7067 681.203 46.2937 689.772 47.3532C690.869 48.5402 691.966 49.7272 693.064 50.9141C684.766 57.892 676.468 64.8698 667.258 72.7204C665.238 73.7633 664.129 73.9335 663.021 74.1039C662.124 71.3817 661.226 68.6596 660.361 65.0294Z" fill="#925721"/>
<path d="M667.788 94.1971C671.817 101.467 675.826 109.678 679.786 118.789C675.748 111.505 671.759 103.322 667.788 94.1971Z" fill="#AF8D60"/>
<path d="M663.02 75.0377C664.129 73.9337 665.237 73.7635 667.187 73.5354C668.029 73.4777 668.268 74.4716 668.38 74.9664C668.267 80.6311 668.043 85.8011 667.786 92.0599C666.174 87.4229 664.596 81.6971 663.02 75.0377Z" fill="#AF8D60"/>
<path d="M93.3216 212.7C94.9013 213.683 97.561 215.734 97.6513 217.893C98.8249 245.929 99.5124 273.985 100.606 302.025C100.949 310.834 102.136 319.609 102.902 330.589C103.661 347.209 104.097 361.67 105.348 376.061C106.627 390.78 107.151 405.82 110.721 420.038C121.612 463.418 140.847 502.917 170.116 537.099C172.697 540.113 176.906 541.734 180.359 544.002C185.156 554.417 193.191 560.696 204.308 563.539C206.382 564.07 207.882 566.837 209.674 569.477C208.588 570.381 207.476 570.38 205.082 569.611C192.497 562.193 177.586 558.134 170.578 548.395C151.159 521.407 132.768 493.154 118.256 463.319C104.285 434.599 95.0073 403.504 97.8201 370.295C98.8194 358.495 98.6883 346.484 97.7776 334.67C96.7218 320.975 94.2576 307.387 92.3249 293.764C92.2289 293.087 91.3699 292.519 90.8382 291.098C90.8252 289.227 90.8402 288.158 90.8551 287.088C91.6135 282.907 92.9756 278.732 93.0281 274.541C93.2812 254.303 93.1817 234.06 93.3216 212.7Z" fill="#E4CA94"/>
<path d="M90.0275 286.752C90.8402 288.157 90.8252 289.226 90.0944 291.785C89.8027 305.613 90.1681 317.954 90.662 330.29C92.3163 371.602 94.0166 412.912 95.0603 454.24C93.9954 454.265 93.5695 454.272 93.1434 454.279C92.0138 453.495 90.8842 452.71 89.0377 451.853C86.701 399.704 84.9806 347.63 83.7231 295.546C83.6514 292.573 79.0203 284.275 90.0275 286.752Z" fill="#BB9F6B"/>
<path d="M86.0035 267.272C86.9976 269.873 87.9174 273.264 88.8372 276.656C88.0007 276.808 87.1643 276.96 86.3279 277.113C86.195 274.096 86.0621 271.079 86.0035 267.272Z" fill="#BB9F6B"/>
<path d="M80.5886 47.4641C70.1428 45.6976 59.6969 43.9313 48.1597 42.1297C41.7537 33.2566 36.4393 24.419 30.5733 14.6641C38.8952 7.08196 49.183 10.5202 60.4224 15.6287C62.4154 15.7563 63.5156 15.7403 65.4342 15.7032C67.4587 17.2065 68.6648 18.7311 70.6349 21.3161C74.4622 30.7389 77.5254 39.1016 80.5886 47.4641Z" fill="#AF7432"/>
<path d="M93.1364 455.363C93.5697 454.272 93.9957 454.265 95.1609 455.153C99.9352 467.783 101.515 481.321 108.534 490.862C121.794 508.885 138.046 524.736 153.331 541.234C160.415 548.881 168.146 555.929 175.583 563.249C168.951 560.098 162.319 556.948 154.867 553.66C150.113 549.156 146.299 544.67 142.222 540.44C128.776 526.491 115.234 512.633 101.065 498.264C97.9775 484.006 95.5533 470.227 93.1364 455.363Z" fill="#AF9975"/>
<path d="M101.531 144.059C100.785 131.167 100.869 118.125 101.674 103.916C118.936 91.0363 125.047 72.3944 121.35 52.0252C119.271 40.5646 120.354 28.5308 120.013 16.7552C130.611 17.1992 141.209 17.6434 152.799 18.3829C151.294 20.0792 148.886 22.4692 146.282 22.7072C135.824 23.6628 133.145 30.2258 135.282 38.7237C142.064 65.6924 140.441 91.8503 130.639 117.883C125.448 131.669 114.259 137.932 101.531 144.059Z" fill="#EFD9AA"/>
<path d="M119.005 16.4238C120.354 28.5308 119.271 40.5646 121.35 52.0251C125.047 72.3944 118.936 91.0362 101.604 102.932C100.412 100.234 100.012 97.3529 98.9066 92.8428C98.2189 87.8636 98.2361 84.5134 99.1456 81.1137C103.397 75.5174 109.594 69.9629 109.579 64.4253C109.535 48.3795 106.996 32.3405 105.436 16.2988C109.623 16.23 113.81 16.1612 119.005 16.4238Z" fill="#E9CC91"/>
<path d="M98.2531 81.164C98.236 84.5141 98.2189 87.8644 98.3103 92.2187C93.5484 81.3729 88.6779 69.523 83.4491 56.7925C82.5109 53.5422 81.931 51.1725 80.9698 48.1337C77.5251 39.1022 74.4619 30.7395 71.421 21.4361C78.1067 18.8849 84.7701 17.2746 92.2117 16.7281C93.757 27.3356 94.4804 36.8831 95.3091 46.4215C95.7393 51.3731 96.4526 56.3006 96.8644 61.2533C97.4156 67.8828 97.7982 74.5265 98.2531 81.164Z" fill="#CEA454"/>
<path d="M99.1455 81.1137C97.7982 74.5258 97.4156 67.8821 96.8644 61.2526C96.4527 56.2999 95.7393 51.3724 95.3091 46.4207C94.4804 36.8824 93.757 27.3348 93.2215 16.8717C96.7882 15.9053 100.123 15.8584 104.447 16.0552C106.996 32.3405 109.535 48.3795 109.579 64.4253C109.594 69.9629 103.397 75.5174 99.1455 81.1137Z" fill="#E0BE7B"/>
<path d="M170.552 23.5938C170.32 25.4855 169.062 27.0329 167.803 28.5803C167.09 27.3681 166.377 26.1557 165.447 24.2581C166.662 23.4648 168.094 23.3571 170.552 23.5938Z" fill="#ABA088"/>
<path d="M176.388 563.657C168.145 555.93 160.415 548.882 153.33 541.235C138.046 524.737 121.794 508.886 108.533 490.863C101.514 481.322 99.935 467.783 95.7995 455.137C94.0166 412.913 92.3163 371.603 90.662 330.291C90.1681 317.955 89.8027 305.614 90.1223 292.588C91.3699 292.519 92.2289 293.087 92.3249 293.764C94.2576 307.387 96.7218 320.975 97.7776 334.67C98.6883 346.484 98.8194 358.495 97.82 370.295C95.0073 403.504 104.285 434.599 118.256 463.319C132.768 493.154 151.159 521.407 170.578 548.395C177.586 558.134 192.497 562.193 204.252 569.532C195.533 568.169 186.364 566.117 176.388 563.657Z" fill="#E0BE7B"/>
<path d="M180.292 543.121C176.906 541.733 172.697 540.112 170.116 537.098C140.847 502.916 121.612 463.417 110.721 420.038C107.151 405.819 106.627 390.78 105.348 376.06C104.097 361.669 103.661 347.208 102.927 331.664C104.306 331.351 106.439 331.87 106.826 332.992C121.054 374.188 134.923 415.509 149.275 456.661C159.264 485.302 169.886 513.722 180.292 543.121Z" fill="#EFD9AA"/>
</svg>
