<svg width="462" height="656" viewBox="0 0 462 656" fill="none" xmlns="http://www.w3.org/2000/svg">
<path d="M6.46799 502.339C6.42566 501.292 6.38333 500.246 7.3433 498.207C9.96878 480.078 13.0115 462.923 12.7802 445.813C12.584 431.302 2.82705 416.998 12.5937 402.079C13.3225 400.966 8.73441 396.376 6.62844 392.465C9.06091 383.586 13.2246 375.718 13.572 367.685C14.528 345.571 13.8852 323.387 14.5127 300.548C31.8959 297.345 31.8031 297.372 26.981 280.836C26.0997 277.813 25.6472 274.358 26.1595 271.296C27.5217 263.156 23.2622 259.551 16.4279 256.78C17.3383 253.333 18.1645 250.713 19.9632 248.055C24.1489 247.521 27.3624 247.024 31.9228 246.318C28.7672 238.743 26.363 232.971 24.5807 228.693C30.4025 215.495 40.3581 204.862 35.7535 188.839C36.5715 185.406 37.2706 182.808 37.9694 180.21C39.736 181.463 41.5028 182.716 43.2695 183.969C43.9512 193.092 46.1028 202.4 44.9849 211.298C43.1101 226.217 38.6051 240.791 36.3201 255.681C35.2979 262.341 37.1998 269.408 37.3725 276.301C37.7027 289.462 41.8062 302.7 26.9938 313.074C21.351 317.026 19.1915 329.731 19.9534 338.033C20.8227 347.505 28.3976 356.223 30.0667 365.789C33.0243 382.743 33.7353 400.089 35.3175 417.276C35.3827 417.984 34.6889 418.738 34.4467 419.502C31.6798 428.228 28.0838 436.81 26.491 445.747C25.5069 451.268 25.439 459.813 28.7216 462.645C35.8165 468.766 36.0076 475.544 35.7045 483.251C35.2149 495.696 32.9143 508.389 34.6375 520.515C36.4096 532.985 47.2678 542.045 48.7773 556.371C49.768 565.774 53.7825 573.338 46.4704 579.402C49.4397 588.541 49.6511 599.451 55.0256 603.477C64.5799 610.633 76.9172 616.148 88.7168 617.755C106.381 620.162 124.606 619.1 142.553 618.439C148.656 618.215 154.64 614.743 163.733 611.75C182.412 620.846 192.211 615.731 198.476 592.55C203.41 596.254 208.787 598.494 211.337 602.522C221.185 618.08 232.289 632.088 248.962 641.476C244.853 643.387 240.908 644.405 236.982 645.391C237.001 645.361 237.04 645.301 236.94 644.473C231.556 637.735 227.259 630.063 220.715 626.397C213.837 622.544 201.709 618.373 197.324 621.642C185.94 630.128 174.729 626.441 163.198 626.988C153.287 627.458 141.635 623.46 134.427 635.464C133.844 635.527 132.676 635.636 131.59 635.602C115.117 635.553 99.7307 635.539 84.3046 634.531C84.8573 625.411 78.5861 627.495 73.9795 625.647C64.1052 621.684 53.4517 617.387 46.1305 610.173C41.5417 605.652 39.338 600.004 31.7421 598.001C25.5242 596.362 17.4534 593.431 24.7226 582.682C29.1748 576.099 24.9015 569.612 15.7583 567.289C14.6586 564.768 14.1858 562.732 13.7826 560.058C13.8677 558.991 13.8831 558.563 14.4883 557.727C15.4952 555.978 15.9123 554.637 16.9289 553.301C17.5285 553.306 18.7276 553.308 19.3019 553.957C23.097 553.382 28.931 552.35 29.0373 550.898C29.3272 546.939 27.1992 542.802 25.6922 538.04C22.3409 534.581 19.3263 531.818 15.9424 528.304C12.8845 523.024 10.1957 518.496 8.22956 515.185C11.4102 513.071 13.7931 511.488 16.1761 509.905C12.94 507.383 9.70385 504.861 6.46799 502.339Z" fill="#EFD9AA"/>
<path d="M35.6345 189.673C40.3583 204.862 30.4026 215.495 24.5808 228.692C26.3631 232.971 28.7673 238.742 31.923 246.318C27.3626 247.023 24.1491 247.521 19.8628 247.076C17.973 242.392 16.6029 238.67 16.4543 234.901C16.1438 227.031 11.8781 229.813 7.91714 231.282C6.15114 227.129 3.45151 223.113 2.81642 218.794C1.55319 210.204 0.630371 201.413 1.0032 192.766C1.68047 177.058 -3.30688 161.42 5.1228 145.455C9.51931 137.128 6.43043 124.854 7.29582 113.047C17.5067 106.61 17.8623 99.5119 13.0826 90.5723C11.5508 87.7075 11.3857 83.605 11.8953 80.2668C12.8719 73.8668 14.7793 67.6087 16.2853 60.478C16.1899 58.5811 16.1099 57.4977 16.9609 56.4093C19.8429 54.4199 21.8294 52.469 23.7381 50.4446C28.574 45.3157 33.2198 35.9895 38.2193 35.8037C51.9674 35.2925 60.3491 18.905 75.4629 24.507C76.4635 24.8779 79.3725 22.0166 80.3829 20.1204C84.8526 11.7325 89.5383 6.61692 98.5696 15.6029C100.061 17.0863 104.31 15.8581 107.282 15.7793C110.096 15.7049 112.906 15.4941 115.241 15.996C111.839 19.8475 109.331 23.612 105.906 26.133C97.6098 32.2402 89.3291 38.7237 80.0897 42.9999C76.9457 44.4547 70.9535 39.7625 65.9599 37.7576C63.0366 40.3012 60.3949 44.4174 56.9379 45.2838C44.0389 48.5158 42.5935 64.3283 30.5242 68.4434C28.9965 68.9645 28.6597 74.2067 28.5103 77.2973C28.0932 85.922 28.4049 94.5889 27.8109 103.197C26.6016 120.726 24.9868 138.228 22.5398 155.748C17.4341 157.897 10.0436 159.672 9.75627 162.24C7.96125 178.298 11.3278 193.661 19.6835 207.83C25.2979 201.439 30.4661 195.556 35.6345 189.673Z" fill="#E8CD94"/>
<path d="M309.212 4.28597C319.377 0.246413 328.809 -0.944197 339.041 5.85245C342.902 8.4171 350.325 6.23882 355.976 5.31491C361.074 4.48153 365.968 2.40813 371.883 1.95845C372.074 12.4037 372.243 21.8435 384.751 22.3024C402.367 22.9485 416.347 31.7945 430.464 40.6466C434.769 43.3463 438.886 46.346 443.449 49.9118C445.162 53.3772 446.516 56.1394 447.301 59.3663C448.744 61.9475 450.756 64.0639 453.183 66.7611C454.935 67.7565 456.272 68.1709 457.608 68.5857C457.68 75.1267 457.752 81.6676 456.805 89.1894C441.103 85.9286 437.487 87.3621 430.373 100.052C429.27 100.181 428.83 100.242 427.498 100.286C424.823 100.27 423.039 100.272 421.252 99.218C422.212 91.4592 423.629 84.7788 423.968 78.0443C424.17 74.028 423.474 69.5519 421.77 65.9496C419.094 60.2933 415.794 54.6994 411.676 50.0326C408.558 46.4988 403.752 44.4519 399.588 41.0444C398.655 39.2662 397.832 38.1868 396.644 36.3275C391.866 29.7694 386.713 27.4281 379.092 32.0757C373.115 32.8866 368.105 33.6809 362.682 33.7318C352.892 26.5093 343.218 21.6203 330.786 27.2771C328.931 27.2586 327.871 27.2484 326.569 26.3218C311.019 18.3469 279.747 30.1607 273.513 45.4249C273.087 46.4677 273.359 47.7949 272.601 48.9584C270.759 48.2169 269.622 47.5069 268.415 45.9402C261.987 37.445 259.323 25.8236 245.989 24.5054C241.74 21.9466 238.154 19.8771 234.077 17.1469C230.677 15.2741 227.768 14.0619 225.157 12.1587C226.197 10.1389 226.938 8.80997 228.584 7.54939C233.975 9.31098 238.627 10.6662 242.904 12.7799C248.786 15.6868 254.05 20.8825 260.168 22.0725C276.686 25.2855 291.427 18.3843 305.598 10.8473C307.444 9.86524 308.038 6.53082 309.212 4.28597Z" fill="#E9CB8D"/>
<path d="M414.46 649.633C404.506 649.068 394.552 648.503 384.207 647.168C385.77 646.062 387.986 646.204 389.632 645.304C396.206 641.713 406.793 638.939 408.202 633.768C411.246 622.596 419.464 618.298 427.376 614.233C441.252 607.102 443.676 603.121 440.029 587.908C439.065 583.886 440.18 578.615 442.094 574.795C448.112 562.786 446.737 548.89 438.512 539.323C436.483 536.963 435.865 532.673 435.976 529.316C436.459 514.679 437.449 500.058 438.273 484.442C435.186 477.942 432.081 472.431 428.977 466.921C428.212 467.301 427.447 467.68 426.681 468.06C427.308 464.155 427.934 460.249 428.916 455.548C433.065 448.013 436.858 441.275 441.317 435.104C441.041 441.108 440.099 446.545 439.083 452.408C445.945 455.291 452.947 458.233 459.948 461.176C458.785 482.178 457.309 503.17 456.612 524.188C456.331 532.667 457.757 541.201 458.232 551.139C458.863 554.104 459.668 555.641 460.473 557.179C460.77 558.661 461.067 560.144 460.357 562.859C458.825 566.288 458.301 568.483 456.826 570.577C447.454 575.025 447.612 582.255 449.326 590.286C452.061 603.102 455.296 615.944 441.733 625.611C434.471 630.787 428.043 637.133 420.603 643.252C418.131 645.58 416.296 647.607 414.46 649.633Z" fill="#E8CD94"/>
<path d="M460.08 460.145C452.947 458.233 445.945 455.291 439.083 452.408C440.099 446.545 441.041 441.108 441.324 434.501C440.665 433.331 440.667 432.126 440.612 431.351C439.009 428.671 437.462 426.766 435.917 423.934C437.453 414.737 438.985 406.467 440.527 397.394C440.519 395.519 440.502 394.448 441.156 392.814C438.998 378.542 444.615 363.847 436.362 350.533C434.7 347.851 435.99 340.949 438.433 338.567C445.546 331.631 445.241 324.084 442.775 315.915C439.804 306.078 436.442 296.359 433.29 285.818C433.397 284.02 433.462 282.993 434.361 281.869C446.97 281.63 454.527 277.283 453.762 263.907C453.689 262.643 456.37 261.221 457.772 259.872C457.772 259.872 457.703 259.904 457.875 260.457C458.385 261.69 458.894 262.199 459.574 262.537C458.366 281.665 456.445 300.782 456.135 319.924C455.775 342.181 456.93 364.459 457.214 386.731C457.321 395.134 456.564 403.548 456.683 411.95C456.811 421.008 457.503 430.059 457.916 440.905C458.632 444.019 459.381 445.34 460.131 446.662C460.158 450.813 460.185 454.964 460.08 460.145Z" fill="#E4C787"/>
<path d="M438.255 485.431C437.449 500.058 436.459 514.678 435.976 529.316C435.865 532.673 436.483 536.963 438.512 539.323C446.737 548.889 448.112 562.786 442.094 574.795C440.18 578.615 439.065 583.886 440.029 587.908C443.676 603.121 441.252 607.102 427.376 614.232C419.464 618.298 411.247 622.596 408.202 633.768C406.793 638.939 396.206 641.713 389.632 645.304C387.986 646.204 385.77 646.062 383.188 647.06C381.45 647.759 380.339 647.797 378.42 646.737C376.785 640.515 376.375 635.28 375.039 630.292C372.745 621.731 367.607 621.813 361.695 626.895C359.691 628.618 358.217 630.958 356.33 633.22C352.458 631.371 349.221 629.826 346.12 627.437C349.539 621.42 352.821 616.246 355.401 612.179C362.034 613.825 369.271 613.934 374.306 617.317C379.992 621.139 383.699 627.903 389.096 634.385C390.09 633.804 394.974 632.352 395.049 630.686C395.728 615.465 413.916 615.856 418.281 603.582C421.922 593.34 428.148 584.027 432.96 574.171C433.445 573.177 431.6 571.261 431.649 569.8C431.799 565.323 432.344 560.86 432.791 555.755C432.029 551.355 430.935 545.839 430.17 540.278C429.799 537.58 430.643 534.622 429.899 532.086C427.496 523.897 422.882 515.953 422.392 507.72C421.891 499.294 425.249 490.639 427.028 481.517C432.435 483.402 435.345 484.417 438.255 485.431Z" fill="#EFD9AA"/>
<path d="M13.7127 560.697C14.1854 562.732 14.6583 564.768 15.8127 568.113C18.2778 572.457 20.0609 575.49 21.8232 578.488C17.8494 583.083 1.27233 582.756 11.8642 592.419C30.5636 609.478 33.1556 637.332 54.7501 651.623C55.1308 651.875 54.8274 653.159 54.8431 653.962C10.8736 656.647 5.36676 657.218 6.39244 612.471C6.82714 593.509 6.20818 574.522 6.78466 554.425C8.01503 553.299 8.52862 553.294 9.04811 554.142C10.6068 556.895 12.1598 558.796 13.7127 560.697Z" fill="#DFBC79"/>
<path d="M55.805 654.269C54.8276 653.159 55.131 651.875 54.7503 651.623C33.1558 637.332 30.5638 609.478 11.8644 592.419C1.27252 582.756 17.8496 583.083 21.8234 578.488C20.0611 575.49 18.278 572.457 16.4399 568.599C24.9014 569.612 29.1746 576.099 24.7224 582.682C17.4533 593.431 25.524 596.362 31.7419 598.001C39.3379 600.004 41.5415 605.652 46.1303 610.173C53.4516 617.387 64.105 621.684 73.9793 625.647C78.5859 627.495 84.8572 625.411 83.2875 634.591C76.8659 634.064 71.5018 631.994 65.9474 631.082C62.4879 630.513 58.7406 631.694 55.1226 632.09C55.1525 633.607 55.1823 635.123 55.2124 636.639C60.9783 638.37 66.7443 640.1 72.1529 641.724C71.3598 645.361 70.5408 649.117 69.7219 652.872C65.4035 653.44 61.0851 654.008 55.805 654.269Z" fill="#E9CC91"/>
<path d="M115.718 15.344C112.906 15.4947 110.096 15.7055 107.282 15.7799C104.31 15.8587 100.06 17.0869 98.5694 15.6036C89.5381 6.61753 84.8524 11.7331 80.3827 20.121C79.3723 22.0172 76.4633 24.8785 75.4627 24.5076C60.349 18.9056 51.9672 35.2931 38.2191 35.8043C33.2196 35.9901 28.5739 45.3163 23.7379 50.4452C21.8292 52.4696 19.8427 54.4206 16.3662 55.8026C17.9352 44.4447 13.1265 31.7134 22.9852 22.5197C23.4324 22.1024 21.6663 19.314 20.993 17.0471C21.0549 16.4642 21.2567 15.3093 21.9719 14.9861C24.9942 13.1966 27.3014 11.7301 27.7369 11.4533C32.3852 13.9712 35.6946 17.0903 39.2452 17.3943C45.4795 17.9277 52.0506 17.5382 58.1428 16.1031C70.9722 13.0806 83.5833 9.13174 96.284 5.56301C104.434 6.31429 112.584 7.06573 121.966 8.69818C127.234 12.1863 131.269 14.7932 134.303 17.5347C127.441 16.8942 121.58 16.1191 115.718 15.344Z" fill="#E0B873"/>
<path d="M345.983 628.28C349.221 629.826 352.458 631.371 356.33 633.22C358.217 630.958 359.691 628.618 361.695 626.895C367.607 621.813 372.745 621.731 375.039 630.292C376.375 635.28 376.785 640.515 377.592 646.636C368.464 647.727 359.307 647.284 350.262 648.097C343.725 648.685 337.339 650.941 329.036 652.548C326.793 652.602 326.358 652.656 326.01 652.507C309.325 645.319 294.04 630.817 273.683 642.532C273.258 642.776 271.852 641.315 271.378 639.965C284.333 628.075 296.032 623.169 311.305 636.841C320.873 645.407 328.671 640.998 332.521 628.697C337.568 628.595 341.776 628.438 345.983 628.28Z" fill="#E8CD94"/>
<path d="M132.676 635.636C132.676 635.636 133.844 635.527 135.553 635.561C153.375 636.426 169.507 637.002 185.596 638.169C198.114 639.077 210.598 640.564 223.056 642.12C227.777 642.71 232.382 644.214 237.04 645.301C237.04 645.301 237.001 645.361 236.993 646.269C237.053 648.348 237.121 649.52 237.189 650.692C236.607 651.127 236.022 651.559 234.298 652.336C232.011 653.383 230.86 654.079 229.71 654.775C228.734 654.937 227.759 655.098 224.934 655.198C217.938 655.168 212.79 655.199 207.642 655.23C194.491 653.42 180.671 653.527 168.388 649.237C157.142 645.309 147.649 647.715 135.747 649.719C133.617 644.801 133.147 640.218 132.676 635.636Z" fill="#DAB061"/>
<path d="M457.783 258.988C456.37 261.221 453.689 262.642 453.762 263.907C454.527 277.282 446.97 281.629 434.225 280.99C430.776 275.969 428.296 271.728 425.634 267.175C444.116 261.594 449.474 244.882 438.216 230.072C432.826 222.981 431.506 217.381 437.147 209.639C440.439 205.123 443.495 198.068 442.321 193.2C440.367 185.104 442.878 180.15 448.87 175.642C452.191 186.406 459.777 196.766 447.915 206.681C445.828 208.426 446.056 214.05 446.642 217.652C447.947 225.682 449.846 233.656 452.121 241.474C453.277 245.446 455.772 249.029 457.662 252.787C457.706 254.559 457.75 256.331 457.783 258.988Z" fill="#EFD9A9"/>
<path d="M443.089 49.2076C438.886 46.3455 434.769 43.3458 430.464 40.6461C416.347 31.794 402.367 22.948 384.751 22.3019C372.243 21.8431 372.074 12.4032 372.826 2.01344C376.1 0.663963 379.496 -0.405649 382.6 0.150088C390.919 1.63965 399.114 3.82547 408.925 6.50061C415.707 13.7912 419.823 24.1728 426.365 26.0322C439.671 29.8144 441.635 38.5742 443.089 49.2076Z" fill="#E6C27A"/>
<path d="M431.036 99.9828C437.487 87.3615 441.102 85.928 456.743 90.2775C457.567 114.699 457.432 139.012 456.223 164.425C453.603 165.527 452.058 165.53 450.474 164.535C449.097 156.413 446.588 149.266 446.727 142.171C446.889 133.957 437.656 105.889 431.036 99.9828Z" fill="#E6C37E"/>
<path d="M308.323 4.15218C308.038 6.5303 307.444 9.86472 305.598 10.8468C291.427 18.3838 276.686 25.285 260.168 22.072C254.05 20.882 248.786 15.6863 242.904 12.7793C238.627 10.6657 233.975 9.31045 228.549 6.89994C227.596 5.30787 227.585 4.43307 227.574 3.55827C250.349 -1.76391 272.769 5.10256 296.929 5.42148C299.176 5.20774 299.757 4.89415 300.223 4.36918C302.626 4.25232 305.03 4.13546 308.323 4.15218Z" fill="#CD9D4A"/>
<path d="M131.59 635.602C133.147 640.218 133.617 644.8 134.846 650.026C131.87 651.072 127.776 652.664 124.47 651.661C113.516 648.339 103.521 643.361 91.7676 651.484C87.0594 654.738 78.6323 652.618 70.81 652.908C70.541 649.117 71.36 645.361 72.1531 641.724C66.7445 640.1 60.9785 638.37 55.2126 636.639C55.1825 635.123 55.1526 633.607 55.1227 632.09C58.7407 631.694 62.4881 630.513 65.9476 631.082C71.502 631.994 76.8661 634.064 83.3275 635.585C99.7308 635.539 115.117 635.553 131.59 635.602Z" fill="#E0BE7B"/>
<path d="M443.449 49.911C441.635 38.5741 439.671 29.8143 426.365 26.0321C419.824 24.1727 415.707 13.7911 409.991 6.69753C420.662 7.475 431.836 8.82137 444.484 10.8251C447.775 18.5131 449.266 25.6521 451.55 32.528C452.661 35.8707 455.254 38.7211 457.176 41.7945C457.584 50.1305 457.992 58.4666 458.004 67.6937C456.272 68.1703 454.935 67.7559 453.132 65.9776C451.067 62.7096 449.468 60.8051 447.87 58.9007C446.516 56.1388 445.162 53.3767 443.449 49.911Z" fill="#D7AA5D"/>
<path d="M13.8747 301.231C13.8851 323.387 14.5279 345.57 13.5719 367.685C13.2245 375.718 9.06081 383.586 6.40988 392.945C5.79003 394.972 5.25839 395.414 4.58659 395.688C-0.186744 375.098 1.14191 354.29 3.06924 333.589C4.01115 323.471 6.86915 313.53 9.65121 302.395C11.5867 301.264 12.7306 301.248 13.8747 301.231Z" fill="#EAD19F"/>
<path d="M4.45975 396.698C5.25839 395.414 5.79003 394.972 6.39966 393.882C8.73431 396.376 13.3223 400.966 12.5936 402.079C2.82695 416.998 12.5839 431.303 12.78 445.813C13.0114 462.924 9.96868 480.078 7.39234 497.422C5.66363 491.796 4.88808 485.961 4.88393 478.448C4.90643 462.579 10.3271 447.797 1.60205 434.366C2.51243 422.146 3.42267 409.927 4.45975 396.698Z" fill="#E8CE98"/>
<path d="M14.5126 300.548C12.7306 301.248 11.5867 301.264 9.58165 301.32C8.05512 290.678 7.38968 279.997 7.63523 268.193C11.1453 263.916 13.7446 260.761 16.3439 257.606C23.2621 259.551 27.5216 263.156 26.1594 271.296C25.6471 274.358 26.0996 277.813 26.9809 280.836C31.803 297.372 31.8958 297.345 14.5126 300.548Z" fill="#E8CD94"/>
<path d="M226.58 3.47243C227.585 4.43303 227.596 5.30783 227.643 6.83156C226.938 8.8094 226.197 10.1383 224.412 11.7893C221.144 10.984 218.922 9.85668 215.296 8.01803C215.296 13.9633 215.296 18.2482 214.461 22.2422C202.192 26.3587 189.57 13.9533 178.43 24.3893C177.795 24.9835 175.483 23.8504 173.974 23.4402C166.529 21.4167 159.092 19.3656 151.702 16.5748C151.872 14.8311 151.992 13.8369 153.117 12.854C165.116 12.8651 176.112 12.8651 189.341 12.8651C186.316 9.06664 184.981 7.38981 183.646 5.71298C197.627 4.93744 211.607 4.16204 226.58 3.47243Z" fill="#E8CD94"/>
<path d="M450.513 165.532C452.058 165.53 453.603 165.527 455.907 165.52C457.078 190.641 457.462 215.767 457.931 240.892C457.998 244.448 458.48 247.996 458.216 252.168C455.772 249.029 453.277 245.446 452.121 241.474C449.845 233.657 447.947 225.683 446.641 217.652C446.056 214.05 445.827 208.426 447.915 206.681C459.777 196.766 452.191 186.406 448.837 174.841C447.954 172.516 447.924 171.447 448.506 169.983C449.583 168.237 450.048 166.885 450.513 165.532Z" fill="#DDBD82"/>
<path d="M95.8242 4.86484C83.583 9.13161 70.9719 13.0805 58.1425 16.103C52.0503 17.5381 45.4793 17.9276 39.245 17.3942C35.6943 17.0902 32.3849 13.9711 27.7366 11.4532C27.3012 11.73 24.9939 13.1965 21.9235 14.0892C24.3058 9.41902 27.4514 5.32236 30.5968 1.22585C48.5653 7.01575 66.5639 8.20444 84.9202 2.62089C87.9629 1.6955 91.8616 3.58075 95.8242 4.86484Z" fill="#CBA65F"/>
<path d="M415.471 649.761C416.296 647.606 418.131 645.58 421.564 643.274C434.046 645.631 444.931 648.266 457.777 651.376C457.777 622.52 457.777 596.599 457.777 570.679C458.301 568.483 458.825 566.287 459.978 563.95C461.056 591.419 461.716 619.032 461.596 646.642C461.585 649.167 456.47 653.924 453.905 653.803C441.397 653.215 428.951 651.321 415.471 649.761Z" fill="#CBA65F"/>
<path d="M16.3003 61.292C14.7791 67.6091 12.8717 73.8672 11.895 80.2673C11.3855 83.6054 11.5506 87.708 13.0823 90.5727C17.862 99.5123 17.5065 106.61 7.12215 112.067C4.71483 101.642 2.14782 90.9177 1.71016 80.1068C1.41563 72.8346 4.13258 65.4406 6.84493 57.3928C10.892 58.2203 13.5962 59.7562 16.3003 61.292Z" fill="#E0B873"/>
<path d="M238.194 650.655C237.121 649.52 237.053 648.348 236.974 646.299C240.908 644.405 244.853 643.387 249.994 641.465C255.319 640.504 259.449 640.449 264.493 640.469C267.24 640.579 269.072 640.614 270.904 640.65C271.852 641.315 273.259 642.776 273.683 642.532C294.04 630.817 309.325 645.319 326.01 652.507C326.358 652.656 326.793 652.602 328.089 652.634C322.722 651.937 316.384 651.622 310.207 650.457C304.141 649.314 298.165 645.709 292.278 645.98C274.551 646.795 256.887 648.972 238.194 650.655Z" fill="#DDBD82"/>
<path d="M13.7824 560.058C12.16 558.796 10.607 556.895 8.68674 553.318C6.72981 547.394 5.14037 543.147 3.55094 538.9C2.98896 537.682 2.42683 536.463 2.57972 534.013C7.63338 531.539 11.9725 530.297 16.3114 529.055C19.3261 531.818 22.3407 534.581 25.6787 538.912C23.5772 544.755 21.1524 549.031 18.7275 553.308C18.7275 553.308 17.5283 553.306 16.3304 553.702C14.7212 555.444 14.3098 556.789 13.8983 558.135C13.8829 558.563 13.8675 558.991 13.7824 560.058Z" fill="#E9CC91"/>
<path d="M29.5918 0.993673C27.4516 5.32242 24.3061 9.41908 21.2087 14.4124C21.2567 15.3093 21.0548 16.4641 20.2664 17.4123C16.74 21.5304 14.1801 24.8802 11.209 27.8143C8.73362 30.2592 5.77631 32.2163 3.03258 34.3895C3.02488 30.1566 3.01718 25.9236 3.58094 20.4056C4.31031 18.6813 4.30779 18.243 4.1444 17.8057C5.54586 1.97231 6.36197 1.40326 29.5918 0.993673Z" fill="#AD7B3F"/>
<path d="M2.78903 35.281C5.77623 32.2162 8.73354 30.2591 11.2089 27.8142C14.18 24.8801 16.7399 21.5303 20.2043 17.9951C21.6661 19.3138 23.4323 22.1023 22.985 22.5196C13.1264 31.7133 17.9351 44.4445 15.4352 55.8075C16.1096 57.4982 16.1896 58.5816 16.2849 60.4785C13.5961 59.7562 10.8919 58.2203 7.38712 56.5684C5.23956 49.6923 3.89256 42.9325 2.78903 35.281Z" fill="#CEA454"/>
<path d="M16.4278 256.78C13.7446 260.761 11.1453 263.916 7.741 267.154C7.4509 255.889 7.96611 244.541 8.19908 232.237C11.8778 229.813 16.1434 227.031 16.454 234.902C16.6026 238.671 17.9726 242.392 18.8901 247.114C18.1643 250.713 17.3381 253.333 16.4278 256.78Z" fill="#DDBD82"/>
<path d="M152.113 12.8423C151.992 13.8364 151.872 14.8306 150.696 16.6335C144.862 17.4279 140.082 17.4137 135.303 17.3995C131.269 14.7926 127.234 12.1856 123.056 8.68391C136.278 6.57738 149.643 5.36547 163.174 5.42523C159.598 8.7453 155.855 10.7937 152.113 12.8423Z" fill="#CEA454"/>
<path d="M15.9426 528.303C11.9728 530.297 7.63366 531.538 2.61434 533.316C-1.61626 523.256 -0.901248 513.216 6.14872 503.149C9.70397 504.861 12.9401 507.383 16.1763 509.905C13.7932 511.488 11.4103 513.071 8.22968 515.185C10.1958 518.496 12.8846 523.024 15.9426 528.303Z" fill="#E8CE98"/>
<path d="M457.231 40.7709C455.253 38.7212 452.66 35.8708 451.55 32.528C449.266 25.6521 447.775 18.5132 445.507 10.6669C451.995 2.34708 456.766 5.29248 457.749 13.7387C458.744 22.2746 457.532 31.0672 457.231 40.7709Z" fill="#B1844B"/>
<path d="M153.117 12.854C155.855 10.7942 159.598 8.74575 163.884 6.04621C170.121 5.43455 175.814 5.47405 182.577 5.61324C184.981 7.38977 186.316 9.0666 189.341 12.865C176.112 12.865 165.116 12.865 153.117 12.854Z" fill="#DFBC79"/>
<path d="M1.4495 435.508C10.327 447.797 4.90633 462.579 4.96538 477.43C3.28285 464.277 2.29003 450.464 1.4495 435.508Z" fill="#DFBC79"/>
<path d="M3.64269 539.852C5.14021 543.147 6.72965 547.395 8.68066 552.466C8.52866 553.295 8.01508 553.299 6.72639 553.29C5.21229 549.119 4.47345 544.961 3.64269 539.852Z" fill="#E8CE98"/>
<path d="M208.403 655.772C212.789 655.198 217.937 655.167 224.194 655.244C219.923 655.672 214.543 655.993 208.403 655.772Z" fill="#DDBD82"/>
<path d="M460.859 556.602C459.668 555.641 458.863 554.104 457.882 551.973C458.885 552.929 460.065 554.477 460.859 556.602Z" fill="#CBA65F"/>
<path d="M230.438 654.916C230.86 654.079 232.011 653.383 233.865 652.668C233.434 653.451 232.301 654.254 230.438 654.916Z" fill="#DDBD82"/>
<path d="M460.147 445.881C459.381 445.34 458.632 444.019 457.972 441.88C458.762 442.409 459.463 443.755 460.147 445.881Z" fill="#E8CD94"/>
<path d="M299.703 4.11429C299.756 4.89427 299.176 5.20786 297.976 5.28892C297.761 4.45613 298.331 3.98663 299.703 4.11429Z" fill="#E9CB8D"/>
<path d="M459.54 261.957C458.894 262.199 458.385 261.69 457.905 260.478C458.589 260.125 459.17 260.602 459.54 261.957Z" fill="#EFD9A9"/>
<path d="M3.83245 18.0593C4.3077 18.2429 4.31022 18.6812 4.00059 19.4149C3.84918 19.7093 3.34344 19.0914 3.34344 19.0914C3.34344 19.0914 3.52061 18.313 3.83245 18.0593Z" fill="#CEA454"/>
<path d="M263.579 640.395C259.449 640.449 255.319 640.504 250.158 640.57C232.288 632.088 221.185 618.08 211.337 602.523C208.787 598.494 203.41 596.254 198.476 592.551C192.211 615.732 182.412 620.846 163.733 611.75C154.64 614.743 148.656 618.215 142.553 618.439C124.606 619.1 106.381 620.162 88.7167 617.755C76.9171 616.148 64.5798 610.633 55.0255 603.477C49.651 599.451 49.4397 588.541 46.4704 579.402C53.7824 573.338 49.7679 565.774 48.7772 556.372C47.2677 542.045 36.4095 532.985 34.6374 520.515C32.9142 508.389 35.2148 495.696 35.7044 483.251C36.0075 475.544 35.8165 468.766 28.7215 462.645C25.4389 459.813 25.5068 451.268 26.4909 445.747C28.0837 436.81 31.6797 428.228 34.4467 419.502C34.6888 418.739 35.3827 417.984 35.3174 417.277C33.7352 400.089 33.0242 382.743 30.0666 365.789C28.3975 356.223 20.8226 347.505 19.9533 338.033C19.1914 329.731 21.351 317.026 26.9937 313.074C41.8061 302.7 37.7027 289.462 37.3725 276.301C37.1997 269.409 35.2979 262.341 36.32 255.681C38.605 240.791 43.1101 226.217 44.9848 211.298C46.1027 202.401 43.9512 193.092 43.2695 183.969C41.5027 182.716 39.736 181.463 37.9694 180.21C37.2705 182.808 36.5714 185.406 35.7534 188.839C30.4659 195.557 25.2977 201.44 19.6832 207.831C11.3276 193.662 7.96102 178.299 9.75603 162.241C10.0433 159.672 17.4338 157.897 23.291 156.088C27.0551 155.513 30.6669 154.839 30.8373 153.665C32.6793 140.972 34.7884 128.226 35.1965 115.442C35.5856 103.252 33.6796 91.0019 33.6196 78.7739C33.6048 75.7955 36.2165 71.0945 38.747 70.1268C47.0707 66.9429 55.9115 65.1097 64.5538 62.7577C70.8436 58.7635 77.6718 54.8914 84.9957 52.6062C92.682 50.2076 100.865 49.4325 108.792 47.7618C118.387 45.7394 127.403 34.7812 137.972 47.2707C144.062 40.8286 149.598 34.9726 152.844 31.5399C164.817 35.8049 174.106 39.1135 183.761 42.5529C188.563 29.0492 200.361 31.2482 209.546 29.6855C214.946 28.7667 217.904 28.4515 218.616 22.5649C224.564 20.9704 229.566 19.3889 234.567 17.8071C238.154 19.8767 241.74 21.9463 245.998 25.4605C246.181 42.0373 260.187 41.2907 268.486 46.7965C269.622 47.5065 270.759 48.2165 273.066 49.6032C281.003 46.5694 287.769 42.8588 294.536 39.1484C294.42 40.4558 294.305 41.7633 294.189 43.0706C300.762 46.3953 307.335 49.72 312.394 52.2787C318.165 42.2559 322.488 34.7467 326.811 27.2377C327.871 27.248 328.931 27.2582 330.777 28.2284C334.988 33.327 337.952 38.1085 342.173 41.1422C343.199 41.88 348.362 36.8692 351.661 34.4747C354.919 34.4747 359.007 34.4747 363.095 34.4748C368.105 33.6805 373.115 32.8862 379.625 32.7879C386.42 34.6917 391.714 35.8993 397.009 37.1071C397.832 38.1865 398.655 39.2658 399.605 41.9759C403.693 50.0554 408.172 56.2541 411.452 63.0322C414.055 68.4096 416.006 74.3949 416.743 80.2976C417.472 86.1414 416.135 92.2226 416.226 98.1917C416.236 98.9106 419.5 99.5804 421.255 100.273C423.039 100.271 424.823 100.27 427.555 101.231C429.968 107.569 430.452 113.499 433.111 118.2C438.184 127.171 440.584 135.452 439.13 146.428C438.141 153.894 444.707 162.359 447.894 170.378C447.924 171.447 447.954 172.516 448.018 174.387C442.878 180.151 440.367 185.105 442.321 193.2C443.495 198.068 440.439 205.123 437.147 209.639C431.505 217.381 432.826 222.981 438.216 230.072C449.474 244.882 444.116 261.594 425.633 267.175C428.296 271.728 430.776 275.969 433.391 281.088C433.462 282.993 433.397 284.02 432.375 285.874C429.966 290.424 427.166 294.2 427.312 297.859C427.783 309.689 428.537 321.624 430.689 333.24C433.011 345.775 410.582 359.131 432.064 370.745C432.23 370.835 432.085 371.5 432.085 372.468C429.844 373.391 427.413 374.392 425.421 375.212C427.369 379.018 429.173 382.542 430.979 386.066C430.979 386.066 430.982 386.066 430.182 386.194C429.877 388.511 429.836 392.188 430.972 392.597C433.863 393.636 437.279 393.214 440.486 393.376C440.502 394.448 440.519 395.519 439.887 397.962C436.535 407.869 433.832 416.406 431.104 425.825C431.103 428.472 431.126 430.237 430.725 432.787C427.303 440.978 418.398 447.933 428.561 456.344C427.934 460.249 427.308 464.155 426.682 468.06C427.447 467.68 428.212 467.301 428.977 466.921C432.082 472.431 435.186 477.942 438.273 484.441C435.345 484.417 432.435 483.402 427.028 481.517C425.249 490.639 421.891 499.294 422.392 507.72C422.882 515.953 427.496 523.897 429.899 532.086C430.643 534.622 429.799 537.58 430.17 540.278C430.935 545.839 432.029 551.355 432.791 555.755C432.344 560.86 431.799 565.323 431.649 569.8C431.601 571.261 433.445 573.177 432.96 574.171C428.148 584.027 421.922 593.34 418.281 603.582C413.916 615.856 395.728 615.465 395.049 630.686C394.974 632.352 390.09 633.804 389.096 634.385C383.699 627.903 379.993 621.139 374.306 617.317C369.272 613.934 362.034 613.825 355.401 612.179C352.821 616.246 349.539 621.42 346.12 627.437C341.776 628.438 337.569 628.595 331.742 628.302C323.997 624.977 318.193 619.884 310.94 625.676C310.065 626.375 307.44 625.991 306.365 625.157C298.877 619.346 291.477 618.592 283.781 624.668C277.083 629.956 270.315 635.156 263.579 640.395ZM420.371 193.11C416.522 190.807 412.673 188.504 406.981 185.097C401.953 170.766 413.569 157.33 417.037 142.22C421.976 120.7 419.892 107.608 395.552 111.935C387.143 113.43 378.024 113.195 369.62 111.641C364.325 110.661 359.755 105.769 354.461 102.377C355.116 98.3053 357.757 92.8401 356.256 88.9856C352.855 80.2512 349.243 69.8003 342.294 64.7447C335.17 59.5607 331.978 70.3936 327.948 75.4077C318.506 87.1533 300.549 87.2604 291.266 76.0736C288.557 72.8087 284.444 70.7074 279.643 67.0616C278.436 74.9417 277.639 80.1407 276.866 85.1885C274.336 84.9764 273.501 85.046 272.767 84.8058C272.028 84.5638 271.039 84.1774 270.758 83.5754C265.477 72.2579 257.433 68.1676 245.283 73.01C243.832 73.5884 241.323 70.9742 239.156 70.3913C227.714 67.3133 216.283 64.1218 204.685 61.7792C203.044 61.4478 199.763 65.1992 198.585 67.6947C197.315 70.3868 197.625 73.8237 196.973 79.1734C183.49 70.3203 182.061 87.8012 169.811 90.666C173.878 83.2257 176.921 78.7578 178.785 73.8431C179.933 70.8156 180.683 65.3025 179.132 64.0993C176.365 61.9528 171.719 62.225 165.835 61.0981C168.324 67.8847 169.85 72.0457 172.678 79.7568C159.896 70.6618 151.794 75.4791 146.463 81.3812C138.595 79.1061 132.661 75.9812 126.766 76.0548C119.944 76.14 113.116 80.5421 106.367 80.3516C97.1666 80.0919 91.2782 83.9548 85.492 90.1042C82.4092 93.3802 77.6746 95.0713 74.4365 98.2436C71.5464 101.075 67.8165 104.998 67.8851 108.369C67.9585 111.969 72.0002 118.513 74.3935 118.552C90.6339 118.812 90.7152 132.039 95.8073 142.201C79.1921 140.503 67.1991 148.89 70.334 160.498C73.5235 172.307 66.0727 180.604 59.7185 184.859C49.3827 191.781 53.2946 196.547 57.6851 203.168C59.2183 205.48 61.8239 207.758 61.9958 210.189C63.337 229.155 67.1995 248.611 64.384 267.015C61.5088 285.809 56.7707 305.43 44.3018 321.45C43.2051 322.859 42.9511 325.302 43.0704 327.217C43.8933 340.432 43.3251 354.021 46.407 366.712C48.6931 376.126 55.2621 384.74 60.9257 393.026C66.1707 400.7 68.0391 409.464 60.9088 414.568C48.1402 423.71 50.3816 436.381 54.3532 445.898C63.4131 467.606 57.0512 486.315 48.615 504.899C51.5048 510.268 55.6817 514.928 56.4694 520.103C58.4264 532.961 70.1005 541.392 83.3179 539.32C87.1818 538.714 95.0711 541.517 95.3056 543.458C97.7133 563.403 118.173 567.724 126.428 583.582C136.832 578.705 145.858 574.474 154.696 570.331C160.623 574.002 167.567 578.302 175.448 583.183C176.372 585.846 177.824 590.03 179.276 594.214C180.423 594.382 181.57 594.55 182.718 594.718C187.453 586.606 192.188 578.494 195.07 573.557C202.544 575.567 207.249 576.81 211.94 578.105C214.142 578.712 217.211 578.721 218.362 580.192C227.043 591.299 235.345 602.701 245.903 616.882C255.391 611.25 267.351 604.151 279.183 597.128C281.11 590.215 283.094 583.101 285.13 575.795C289.342 575.795 293.625 576.148 297.828 575.717C305.442 574.936 313.011 573.701 320.595 572.631C329.394 571.39 343.865 578.323 340.216 558.937C339.974 557.65 343.303 555.996 343.664 554.243C346.541 540.287 348.988 534.746 364.002 547.099C372.469 554.065 376.924 558.976 377.828 569.299C378.963 582.266 381.51 595.116 383.692 607.975C383.882 609.095 385.891 609.906 387.001 610.816C392.077 606.069 399.376 602.373 400.589 597.241C401.841 591.944 397.174 585.249 395.055 579.043C411.165 576.007 411.809 574.682 409.374 559.136C407.554 547.507 397.886 536.521 406.158 523.866C406.576 523.227 404.77 521.334 404.371 519.921C403.474 516.742 401.701 513.299 402.236 510.312C405.137 494.109 409.441 479.095 401.141 461.904C394.866 448.905 395.006 432.805 404.44 418.276C415.538 401.186 420.696 382.658 409.365 362.798C407.402 359.358 407.489 350.583 408.936 350.001C425.956 343.152 416.837 331.097 414.049 321.876C411.533 313.551 410.485 307.301 417.42 302.927C416.376 297.328 413.274 290.478 415.093 288.722C422.409 281.662 418.596 273.777 418.841 266.22C419.609 242.503 420.284 218.782 420.371 193.11Z" fill="#F8E9C5"/>
<path d="M236.94 644.473C232.382 644.214 227.776 642.71 223.056 642.12C210.598 640.564 198.114 639.077 185.596 638.169C169.507 637.002 153.374 636.426 136.136 635.499C141.635 623.46 153.287 627.459 163.198 626.989C174.729 626.441 185.94 630.128 197.324 621.642C201.709 618.373 213.837 622.544 220.715 626.397C227.259 630.063 231.556 637.735 236.94 644.473Z" fill="#E9CC90"/>
<path d="M19.3017 553.957C21.1524 549.031 23.5772 544.755 26.0154 539.607C27.199 542.802 29.3271 546.939 29.0371 550.898C28.9308 552.35 23.0969 553.383 19.3017 553.957Z" fill="#E8CE98"/>
<path d="M14.488 557.726C14.3096 556.789 14.7211 555.444 15.7308 553.697C15.912 554.637 15.4949 555.978 14.488 557.726Z" fill="#E8CE98"/>
<path d="M217.669 22.5777C217.904 28.4515 214.946 28.7667 209.546 29.6855C200.361 31.2482 188.563 29.0493 183.762 42.5529C174.106 39.1135 164.817 35.8049 152.844 31.5399C149.599 34.9726 144.062 40.8286 137.972 47.2707C127.403 34.7812 118.387 45.7394 108.792 47.7618C100.865 49.4325 92.6821 50.2076 84.9958 52.6062C77.6719 54.8914 70.8437 58.7635 64.5539 62.7577C55.9116 65.1098 47.0708 66.9429 38.7471 70.1268C36.2166 71.0945 33.6049 75.7955 33.6197 78.7739C33.6797 91.0019 35.5857 103.252 35.1966 115.442C34.7885 128.226 32.6794 140.972 30.8374 153.665C30.667 154.839 27.0552 155.513 24.2903 156.081C24.9867 138.229 26.6014 120.727 27.8108 103.197C28.4047 94.5896 28.093 85.9226 28.5101 77.298C28.6596 74.2073 28.9963 68.9652 30.524 68.444C42.5933 64.3289 44.0388 48.5165 56.9378 45.2844C60.3947 44.418 63.0365 40.3019 65.9598 37.7582C70.9534 39.7631 76.9456 44.4553 80.0895 43.0005C89.329 38.7243 97.6096 32.2408 105.906 26.1336C109.331 23.6126 111.839 19.8482 115.241 15.9966C121.58 16.1191 127.441 16.8942 134.303 17.5347C140.082 17.4144 144.862 17.4286 150.647 17.3836C159.092 19.3658 166.529 21.4169 173.974 23.4404C175.483 23.8506 177.795 24.9837 178.43 24.3895C189.57 13.9535 202.192 26.3589 215.053 22.2498C216.481 22.5483 217.669 22.5777 217.669 22.5777Z" fill="#EFD9AA"/>
<path d="M326.568 26.3214C322.487 34.7466 318.164 42.2558 312.394 52.2786C307.335 49.7199 300.762 46.3952 294.189 43.0706C294.304 41.7633 294.42 40.4558 294.535 39.1483C287.769 42.8588 281.003 46.5693 273.771 49.6345C273.358 47.7944 273.087 46.4673 273.513 45.4244C279.747 30.1602 311.019 18.3464 326.568 26.3214Z" fill="#EFD9AA"/>
<path d="M448.506 169.984C444.706 162.36 438.141 153.894 439.13 146.428C440.584 135.452 438.184 127.172 433.111 118.201C430.452 113.499 429.968 107.57 428.446 101.249C428.83 100.242 429.27 100.181 430.373 100.052C437.657 105.89 446.89 133.958 446.728 142.172C446.588 149.267 449.097 156.414 450.474 164.536C450.048 166.885 449.583 168.237 448.506 169.984Z" fill="#EFD9A9"/>
<path d="M421.252 99.2176C419.499 99.5804 416.236 98.9107 416.225 98.1918C416.135 92.2226 417.471 86.1414 416.742 80.2977C416.006 74.3949 414.054 68.4096 411.452 63.0322C408.172 56.2541 403.693 50.0555 399.714 42.6748C403.752 44.4515 408.557 46.4984 411.676 50.0322C415.794 54.699 419.094 60.2929 421.77 65.9492C423.474 69.5515 424.17 74.0276 423.968 78.0439C423.629 84.7785 422.212 91.4589 421.252 99.2176Z" fill="#EFD9A9"/>
<path d="M362.682 33.7311C359.007 34.4746 354.918 34.4746 351.66 34.4746C348.362 36.8691 343.199 41.8799 342.173 41.1421C337.952 38.1084 334.988 33.3269 331.572 28.2366C343.218 21.6198 352.892 26.5088 362.682 33.7311Z" fill="#EFD9AA"/>
<path d="M268.415 45.9397C260.187 41.2905 246.181 42.0371 246.661 25.9495C259.323 25.8231 261.987 37.4444 268.415 45.9397Z" fill="#EFD9AA"/>
<path d="M218.616 22.5647C217.669 22.5776 216.481 22.5482 215.888 22.5408C215.296 18.2483 215.296 13.9633 215.296 8.01809C218.922 9.85674 221.145 10.984 224.113 12.4803C227.768 14.0614 230.677 15.2736 234.077 17.1464C229.566 19.3887 224.565 20.9703 218.616 22.5647Z" fill="#EFD8A8"/>
<path d="M396.644 36.327C391.714 35.8992 386.42 34.6916 380.592 32.7713C386.713 27.4277 391.866 29.769 396.644 36.327Z" fill="#EFD9AA"/>
<path d="M447.301 59.3657C449.468 60.8052 451.067 62.7096 452.716 65.3969C450.756 64.0634 448.744 61.947 447.301 59.3657Z" fill="#E6C27A"/>
<path d="M456.826 570.577C457.777 596.599 457.777 622.52 457.777 651.376C444.931 648.266 434.046 645.631 422.2 642.973C428.043 637.133 434.471 630.787 441.733 625.611C455.296 615.944 452.061 603.102 449.326 590.286C447.612 582.254 447.454 575.025 456.826 570.577Z" fill="#DAB165"/>
<path d="M428.917 455.548C418.398 447.933 427.303 440.978 431.672 432.817C435.585 432.083 438.126 432.105 440.667 432.126C440.667 432.126 440.665 433.331 440.658 433.934C436.859 441.275 433.066 448.013 428.917 455.548Z" fill="#EFD9A9"/>
<path d="M441.157 392.814C437.28 393.213 433.863 393.636 430.972 392.596C429.836 392.188 429.877 388.51 430.311 386.53C431.153 386.515 431.065 386.291 430.977 386.066C429.173 382.542 427.369 379.017 425.421 375.211C427.413 374.391 429.844 373.39 432.085 372.468C432.085 371.5 432.23 370.834 432.064 370.744C410.582 359.131 433.011 345.774 430.689 333.24C428.538 321.624 427.783 309.689 427.312 297.858C427.167 294.199 429.967 290.423 432.333 286.645C436.442 296.359 439.805 306.078 442.775 315.914C445.242 324.084 445.546 331.63 438.433 338.567C435.991 340.948 434.7 347.85 436.362 350.533C444.615 363.846 438.999 378.541 441.157 392.814Z" fill="#EFD9A9"/>
<path d="M431.128 424.943C433.831 416.406 436.535 407.869 439.878 398.765C438.985 406.467 437.453 414.737 435.117 423.939C433.252 424.895 432.19 424.919 431.128 424.943Z" fill="#EFD9A9"/>
<path d="M431.104 425.825C432.19 424.919 433.252 424.895 435.114 424.866C437.462 426.766 439.009 428.671 440.612 431.351C438.126 432.105 435.584 432.083 432.096 432.032C431.126 430.237 431.103 428.472 431.104 425.825Z" fill="#E8CD94"/>
<path d="M264.493 640.469C270.315 635.156 277.083 629.956 283.781 624.668C291.477 618.592 298.877 619.346 306.365 625.157C307.44 625.991 310.065 626.375 310.94 625.676C318.194 619.884 323.997 624.977 330.901 628.247C328.671 640.998 320.873 645.407 311.305 636.841C296.032 623.168 284.333 628.075 271.378 639.965C269.072 640.614 267.24 640.579 264.493 640.469Z" fill="#EFD9AA"/>
<path d="M420.683 194.087C420.284 218.782 419.609 242.503 418.841 266.22C418.596 273.777 422.409 281.662 415.093 288.722C413.274 290.478 416.376 297.328 417.42 302.927C410.485 307.301 411.533 313.551 414.049 321.876C416.837 331.097 425.956 343.152 408.936 350.001C407.488 350.583 407.402 359.358 409.365 362.798C420.696 382.658 415.537 401.186 404.44 418.276C395.006 432.805 394.866 448.906 401.141 461.904C409.441 479.095 405.137 494.109 402.236 510.312C401.701 513.299 403.474 516.742 404.371 519.921C404.77 521.334 406.576 523.227 406.158 523.866C397.886 536.521 407.553 547.507 409.374 559.136C411.809 574.682 411.165 576.007 395.055 579.043C397.174 585.249 401.841 591.944 400.589 597.241C399.376 602.373 392.077 606.069 387.001 610.816C385.891 609.906 383.882 609.095 383.692 607.975C381.51 595.116 378.963 582.266 377.828 569.299C376.924 558.976 372.469 554.065 364.002 547.099C348.988 534.746 346.541 540.287 343.664 554.243C343.303 555.996 339.974 557.65 340.216 558.937C343.865 578.323 329.394 571.39 320.595 572.631C313.01 573.701 305.442 574.936 297.828 575.717C293.625 576.148 289.342 575.795 285.13 575.795C283.093 583.101 281.11 590.215 279.183 597.128C267.351 604.151 255.391 611.25 245.903 616.882C235.345 602.701 227.043 591.299 218.361 580.192C217.211 578.721 214.142 578.712 211.94 578.105C207.249 576.81 202.544 575.567 195.07 573.557C192.188 578.494 187.453 586.606 182.718 594.718C181.57 594.55 180.423 594.382 179.276 594.214C177.824 590.03 176.372 585.846 175.448 583.183C167.566 578.302 160.623 574.002 154.696 570.331C145.858 574.474 136.832 578.705 126.428 583.582C118.173 567.724 97.7132 563.403 95.3055 543.458C95.071 541.517 87.1817 538.714 83.3178 539.32C70.1004 541.392 58.4263 532.961 56.4692 520.103C55.6815 514.928 51.5047 510.268 48.6149 504.899C57.0511 486.315 63.4129 467.606 54.3531 445.898C50.3815 436.381 48.1401 423.71 60.9087 414.568C68.039 409.464 66.1706 400.7 60.9256 393.026C55.262 384.74 48.693 376.126 46.4069 366.712C43.325 354.021 43.8932 340.432 43.0703 327.217C42.951 325.302 43.205 322.859 44.3017 321.45C56.7706 305.43 61.5087 285.809 64.3839 267.015C67.1994 248.611 63.3369 229.155 61.9956 210.189C61.8238 207.758 59.2182 205.48 57.685 203.168C53.2945 196.547 49.3826 191.781 59.7184 184.859C66.0726 180.604 73.5234 172.307 70.3339 160.498C67.1989 148.89 79.192 140.503 95.8072 142.201C90.7151 132.039 90.6338 118.812 74.3934 118.552C72.0001 118.513 67.9584 111.969 67.885 108.369C67.8163 104.998 71.5462 101.075 74.4364 98.2437C77.6745 95.0713 82.4091 93.3802 85.4919 90.1042C91.2781 83.9548 97.1664 80.0919 106.367 80.3516C113.115 80.5422 119.944 76.14 126.766 76.0548C132.66 75.9812 138.595 79.1061 146.463 81.3812C151.794 75.4791 159.896 70.6618 172.678 79.7568C169.85 72.0458 168.324 67.8847 165.835 61.0982C171.719 62.225 176.364 61.9528 179.132 64.0993C180.683 65.3025 179.933 70.8156 178.785 73.8431C176.921 78.7578 173.878 83.2257 169.81 90.666C182.061 87.8012 183.49 70.3203 196.973 79.1734C197.625 73.8238 197.315 70.3868 198.585 67.6947C199.763 65.1993 203.044 61.4478 204.685 61.7792C216.283 64.1218 227.714 67.3133 239.156 70.3913C241.323 70.9742 243.832 73.5884 245.283 73.01C257.433 68.1676 265.477 72.2579 270.758 83.5754C271.039 84.1775 272.028 84.5638 272.767 84.8058C273.501 85.046 274.336 84.9764 276.866 85.1885C277.639 80.1407 278.436 74.9417 279.643 67.0616C284.444 70.7074 288.557 72.8087 291.266 76.0736C300.549 87.2604 318.506 87.1533 327.948 75.4077C331.978 70.3936 335.17 59.5607 342.294 64.7447C349.242 69.8003 352.855 80.2512 356.256 88.9856C357.756 92.8401 355.115 98.3053 354.461 102.377C359.754 105.769 364.325 110.661 369.62 111.641C378.024 113.195 387.143 113.43 395.552 111.935C419.892 107.608 421.976 120.7 417.037 142.22C413.569 157.33 401.953 170.766 406.981 185.097C412.673 188.504 416.522 190.807 420.683 194.087Z" fill="#FCF4DD"/>
<path d="M430.979 386.066C431.065 386.291 431.153 386.516 431.111 386.403C430.981 386.066 430.979 386.066 430.979 386.066Z" fill="#F8E9C5"/>
</svg>
