<svg width="979" height="1217" viewBox="0 0 979 1217" fill="none" xmlns="http://www.w3.org/2000/svg">
<path d="M675.075 1042.26C660.572 1032.14 635.924 1008.8 617.308 987.521C601.28 969.206 604.379 974.509 521.897 824.049C431.73 659.57 309.092 437.126 306.737 433.783L305.315 431.74L300.133 433.806C297.284 434.948 289.373 438.199 282.559 441.018C254.786 452.505 206.497 469.387 195.64 471.41C192.193 472.063 192.188 472.062 190.76 469.954C189.941 468.9 186.704 463.202 183.569 457.272L177.855 446.536L230.978 417.265C260.197 401.165 284.209 387.634 284.337 387.205C284.9 385.318 238.828 274.438 232.51 262.439L229.802 257.334L220.895 254.676C210.943 251.707 206.202 249.172 199.988 242.647C189.646 231.808 187.55 212.045 195.236 197.809C201.133 186.889 216.596 178.38 230.48 178.418C242.683 178.447 255.852 186.922 262.421 198.933C268.334 209.759 268.671 220.372 263.55 234.364L261.166 240.902L301.053 297.81C322.99 329.11 341.263 354.821 341.659 354.939C342.057 355.058 366.379 341.8 395.712 325.478C425.042 309.162 449.285 295.88 449.582 295.969C450.339 296.195 461.072 316.859 461.898 319.684L462.575 322.004L456.449 327.587C441.346 341.36 395.393 377.223 373.619 392.231C369.092 395.365 368.005 396.411 368.292 397.505C368.827 399.471 599.508 820.101 634.449 882.832C645.45 902.593 664.014 938.916 666.438 945.431C673.348 964.009 682.059 1003.04 684.871 1028.05C686.343 1041.14 686.21 1044.01 684.073 1045.17C682.1 1046.27 680.461 1045.65 675.178 1041.9L675.075 1042.26Z" fill="#7D7D7D"/>
<path d="M305.925 1042.26C320.428 1032.14 345.076 1008.8 363.692 987.521C379.72 969.206 376.621 974.509 459.103 824.049C549.27 659.57 671.908 437.126 674.263 433.783L675.685 431.74L680.867 433.806C683.716 434.948 691.627 438.199 698.441 441.018C726.214 452.505 774.503 469.387 785.36 471.41C788.807 472.063 788.812 472.062 790.24 469.954C791.059 468.9 794.296 463.202 797.431 457.272L803.145 446.536L750.022 417.265C720.803 401.165 696.791 387.634 696.663 387.205C696.1 385.318 742.172 274.438 748.49 262.439L751.198 257.334L760.105 254.676C770.057 251.707 774.798 249.172 781.012 242.647C791.354 231.808 793.45 212.045 785.764 197.809C779.867 186.889 764.404 178.38 750.52 178.418C738.317 178.447 725.148 186.922 718.579 198.933C712.666 209.759 712.329 220.372 717.45 234.364L719.834 240.902L679.947 297.81C658.01 329.11 639.737 354.821 639.341 354.939C638.943 355.058 614.621 341.8 585.288 325.478C555.958 309.162 531.715 295.88 531.418 295.969C530.661 296.195 519.928 316.859 519.102 319.684L518.425 322.004L524.551 327.587C539.654 341.36 585.607 377.223 607.381 392.231C611.908 395.365 612.995 396.411 612.708 397.505C612.173 399.471 381.492 820.101 346.551 882.832C335.55 902.593 316.986 938.916 314.562 945.431C307.652 964.009 298.941 1003.04 296.129 1028.05C294.657 1041.14 294.79 1044.01 296.927 1045.17C298.9 1046.27 300.539 1045.65 305.822 1041.9L305.925 1042.26Z" fill="#7D7D7D"/>
<g filter="url(#filter0_d_3_22)">
<path d="M332.49 927.045L491 1025.95L649.51 927.045C740.814 870.075 795 778.094 795 680.078V532.765L491 418.952L187 532.765V680.078C187 778.094 241.187 870.075 332.49 927.045Z" fill="#7D7D7D"/>
</g>
<path d="M322.441 766.458V810.785C322.441 837.886 339.957 859.857 361.563 859.857H619.972C641.579 859.857 659.095 837.886 659.095 810.785V766.458H322.441Z" fill="#F6A230"/>
<path d="M384.015 678.194H659.158C659.158 600.893 609.199 538.228 547.573 538.228H433.964C372.338 538.228 322.379 600.893 322.379 678.194H367.787" fill="#F6A230"/>
<path d="M503.02 766.457L424.901 819.404L346.782 766.457H503.02Z" fill="#FFE285"/>
<path d="M367.789 678.194H322.441C316.45 678.194 311.595 684.285 311.595 691.799C311.595 699.313 316.45 705.405 322.441 705.405C350.494 705.405 350.494 722.296 378.547 722.296C406.599 722.296 406.599 705.405 434.652 705.405C462.706 705.405 462.706 722.296 490.76 722.296C490.784 722.296 490.807 722.294 490.83 722.294C490.854 722.294 490.877 722.296 490.9 722.296C518.954 722.296 518.954 705.405 547.008 705.405C575.061 705.405 575.061 722.296 603.114 722.296C631.167 722.296 631.166 705.405 659.219 705.405C665.21 705.405 670.066 699.313 670.066 691.799C670.066 684.285 665.21 678.194 659.219 678.194H490.83H384.016" fill="#08AA6E"/>
<path d="M652.831 705.74C630.991 708.087 628.852 722.296 603.114 722.296C575.062 722.296 575.062 705.405 547.008 705.405C518.955 705.405 518.955 722.296 490.9 722.296C490.877 722.296 490.854 722.294 490.83 722.294C490.807 722.294 490.784 722.296 490.76 722.296C462.707 722.296 462.707 705.405 434.652 705.405C406.599 705.405 406.599 722.296 378.547 722.296C352.776 722.296 350.663 708.051 328.745 705.732C317.152 708.082 308.297 720.69 308.297 735.896C308.297 752.775 319.206 766.459 332.662 766.459H648.873C662.33 766.459 673.238 752.775 673.238 735.896C673.239 720.706 664.405 708.111 652.831 705.74Z" fill="#D53349"/>
<path d="M678.825 735.896C678.825 724.987 675.154 715.093 669.161 708.196C673.101 704.428 675.651 698.482 675.651 691.799C675.651 682.818 671.045 675.164 664.641 672.347C662.185 594.007 610.619 531.221 547.573 531.221H433.964C370.904 531.221 319.329 594.034 316.893 672.4C310.554 675.261 306.009 682.875 306.009 691.799C306.009 698.441 308.528 704.355 312.43 708.127C306.405 715.024 302.712 724.946 302.712 735.896C302.712 749.338 308.372 761.145 316.855 767.786V810.785C316.855 841.708 336.911 866.864 361.563 866.864H619.972C644.624 866.864 664.68 841.707 664.68 810.785V767.786C673.165 761.144 678.825 749.337 678.825 735.896ZM433.964 545.234H547.573C604.147 545.234 650.513 601.115 653.426 671.187H384.016L384.015 685.2H659.219C662.12 685.2 664.48 688.16 664.48 691.798C664.48 695.436 662.12 698.397 659.219 698.397C657.018 698.397 654.971 698.501 653.051 698.685L653.045 698.683L652.917 698.697C641.573 699.816 634.814 703.88 628.749 707.532C621.837 711.693 615.869 715.287 603.115 715.287C601.52 715.287 600.032 715.231 598.635 715.125C588.853 714.38 583.527 711.173 577.48 707.532C570.369 703.25 562.307 698.396 547.01 698.396C544.141 698.396 541.528 698.567 539.126 698.872C528.721 700.196 522.317 704.052 516.538 707.532C514.865 708.539 513.247 709.511 511.574 710.41C506.413 713.181 500.724 715.222 491.305 715.281C491.174 715.281 491.051 715.287 490.918 715.287L490.831 715.285L490.685 715.287C490.332 715.286 490.004 715.273 489.661 715.268C489.232 715.26 488.794 715.259 488.38 715.244C488.265 715.239 488.16 715.23 488.046 715.224C483.01 715.004 479.099 714.174 475.728 712.961C471.787 711.543 468.573 709.608 465.124 707.532C458.013 703.25 449.952 698.396 434.653 698.396C419.355 698.396 411.294 703.249 404.182 707.532C398.134 711.173 392.809 714.38 383.027 715.125C381.63 715.232 380.142 715.287 378.548 715.287C365.793 715.287 359.824 711.693 352.913 707.532C346.835 703.873 340.06 699.798 328.671 698.691L328.533 698.676L328.528 698.677C326.632 698.497 324.613 698.397 322.444 698.397C319.543 698.397 317.183 695.436 317.183 691.798C317.183 688.16 319.543 685.2 322.444 685.2H367.791L367.791 671.187H328.111C331.024 601.116 377.389 545.234 433.964 545.234ZM480.93 773.464L424.901 811.441L368.871 773.465H480.93V773.464ZM653.51 773.464V789.982H534.368V803.995H653.509V810.785C653.509 833.981 638.465 852.851 619.973 852.851H361.564C343.072 852.851 328.028 833.98 328.028 810.785V773.464H332.663H345.37L424.901 827.368L504.431 773.464H648.874H653.51ZM648.874 759.451H525.106L525.108 759.45H332.634C322.292 759.431 313.884 748.872 313.884 735.895C313.884 724.553 320.197 714.966 328.988 712.793C337.524 713.829 342.65 716.912 348.068 720.172C354.735 724.182 362.235 728.69 375.735 729.244C376.645 729.282 377.58 729.301 378.546 729.301C393.843 729.301 401.904 724.448 409.015 720.166C415.927 716.004 421.896 712.41 434.651 712.41C437.84 712.41 440.605 712.635 443.067 713.037C444.298 713.238 445.452 713.484 446.547 713.767C447.093 713.908 447.626 714.06 448.144 714.221C452.811 715.663 456.401 717.825 460.289 720.166C464.956 722.976 470.032 726.032 477.294 727.8C478.331 728.054 479.413 728.279 480.545 728.476C481.3 728.606 482.077 728.723 482.876 728.825C485.277 729.131 487.891 729.301 490.76 729.301H490.9C494.246 729.301 497.247 729.069 499.966 728.661C509.292 727.263 515.319 723.803 520.702 720.568C520.926 720.433 521.149 720.299 521.371 720.165C528.283 716.004 534.252 712.41 547.008 712.41C550.197 712.41 552.962 712.635 555.422 713.037C556.653 713.238 557.808 713.484 558.902 713.767C559.449 713.908 559.981 714.06 560.5 714.221C565.167 715.663 568.756 717.825 572.644 720.166C577.311 722.976 582.387 726.032 589.648 727.8C590.685 728.054 591.767 728.279 592.899 728.476C593.654 728.606 594.431 728.723 595.23 728.825C597.632 729.131 600.245 729.301 603.113 729.301C604.07 729.301 604.997 729.283 605.898 729.245C619.415 728.697 626.919 724.183 633.591 720.171C638.992 716.923 644.101 713.85 652.586 712.803C661.356 714.994 667.653 724.575 667.653 735.894C667.653 748.884 659.229 759.451 648.874 759.451Z" fill="#53180F"/>
<path d="M444.157 561.751H426.711V575.765H444.157V561.751Z" fill="#53180F"/>
<path d="M471.825 592.282H454.38V606.295H471.825V592.282Z" fill="#53180F"/>
<path d="M416.48 592.282H399.034V606.295H416.48V592.282Z" fill="#53180F"/>
<path d="M582.5 592.282H565.054V606.295H582.5V592.282Z" fill="#53180F"/>
<path d="M527.163 592.282H509.717V606.295H527.163V592.282Z" fill="#53180F"/>
<path d="M499.495 561.751H482.048V575.765H499.495V561.751Z" fill="#53180F"/>
<path d="M554.831 561.751H537.385V575.765H554.831V561.751Z" fill="#53180F"/>
<defs>
<filter id="filter0_d_3_22" x="176.7" y="408.652" width="628.6" height="627.6" filterUnits="userSpaceOnUse" color-interpolation-filters="sRGB">
<feFlood flood-opacity="0" result="BackgroundImageFix"/>
<feColorMatrix in="SourceAlpha" type="matrix" values="0 0 0 0 0 0 0 0 0 0 0 0 0 0 0 0 0 0 127 0" result="hardAlpha"/>
<feOffset/>
<feGaussianBlur stdDeviation="5.15"/>
<feComposite in2="hardAlpha" operator="out"/>
<feColorMatrix type="matrix" values="0 0 0 0 0 0 0 0 0 0 0 0 0 0 0 0 0 0 0.21 0"/>
<feBlend mode="normal" in2="BackgroundImageFix" result="effect1_dropShadow_3_22"/>
<feBlend mode="normal" in="SourceGraphic" in2="effect1_dropShadow_3_22" result="shape"/>
</filter>
</defs>
</svg>
