<svg viewBox="0 0 1280 1080" fill="none" xmlns="http://www.w3.org/2000/svg">
<path d="M368.562 701C369.604 697.521 371.01 689.812 372.781 677.875C373.656 671.979 374.365 666.479 374.906 661.375C373.844 659.375 372.854 657.781 371.938 656.594C373.188 656.448 374.458 656.156 375.75 655.719C377.646 655.073 379 654.427 379.812 653.781V653.844L379.875 653.781L379.844 653.844C380.469 656.385 382.74 663.875 386.656 676.312C389.49 685.271 391.458 690.406 392.562 691.719C393.708 690.073 395.938 684.76 399.25 675.781C402.375 667.302 404.312 661.625 405.062 658.75C404.958 658.458 404.76 658.042 404.469 657.5L403.938 656.5C406.458 656.208 409.01 655.323 411.594 653.844L411.812 653.719V653.75V653.781C411.812 660.469 412.406 667.875 413.594 676C415.031 685.792 416.552 692.792 418.156 697C418.427 697.708 418.615 698.083 418.719 698.125C417.302 698.292 416.031 698.583 414.906 699C413.094 699.667 411.74 700.333 410.844 701C410.885 700.604 410.906 700.115 410.906 699.531C410.865 695.594 410.135 687.917 408.719 676.5C408.135 671.771 407.49 667.802 406.781 664.594L402.125 675.969C398.854 684.26 396.823 691.26 396.031 696.969C395.948 697.573 395.896 697.885 395.875 697.906L395.906 698.219C393.385 698.51 390.833 699.396 388.25 700.875L388.031 701C387.365 694.708 385.25 686.792 381.688 677.25C380 672.729 378.438 668.885 377 665.719C376.417 669.198 375.802 673.292 375.156 678C374.156 685.167 373.531 691.667 373.281 697.5L373.25 698.219C371.667 698.531 370.146 699.417 368.688 700.875L368.562 701ZM430.125 670.25L430.094 670.281C429.49 671.406 428.844 673.292 428.156 675.938C427.656 677.833 427.406 679.604 427.406 681.25C427.406 681.896 427.458 682.573 427.562 683.281C427.833 685.115 428.604 686.979 429.875 688.875C431.188 690.854 432.99 692.365 435.281 693.406C437.427 694.385 440.5 695.333 444.5 696.25L444.531 696.219C445.031 695.094 445.625 693.031 446.312 690.031C446.729 688.219 446.938 686.573 446.938 685.094C446.938 684.302 446.885 683.604 446.781 683C446.469 681.167 445.698 679.302 444.469 677.406C443.469 675.865 441.667 674.365 439.062 672.906C437.021 671.76 434.042 670.875 430.125 670.25ZM437.75 701.125C436.5 700.812 435.021 700.208 433.312 699.312C431.625 698.417 430.062 697.281 428.625 695.906C426.792 694.135 425.51 692.208 424.781 690.125C423.885 688 423.438 685.812 423.438 683.562C423.438 683.5 423.438 683.458 423.438 683.438C423.438 681.208 423.948 678.906 424.969 676.531C425.781 674.635 426.812 673.021 428.062 671.688C428.646 671.062 429.271 670.5 429.938 670L436.562 665.656C437.583 665.927 439.073 666.562 441.031 667.562C442.49 668.312 444.042 669.438 445.688 670.938C447.542 672.729 448.844 674.719 449.594 676.906C450.427 679.24 450.854 681.406 450.875 683.406V683.531C450.875 686.406 450.417 688.688 449.5 690.375C448.083 692.979 446.896 694.708 445.938 695.562C445.417 696.021 445.062 696.396 444.875 696.688L437.75 701.125ZM458.688 701C459.479 694.75 459.875 689.562 459.875 685.438C459.875 683.375 459.865 682.25 459.844 682.062C459.802 677.208 459.469 672.844 458.844 668.969L458.688 668.469C461.208 668.177 463.76 667.292 466.344 665.812L466.562 665.688C466.146 666.917 465.698 668.333 465.219 669.938L472.062 665.688C473.25 666 474.719 666.604 476.469 667.5C478.094 668.354 479.656 669.49 481.156 670.906C482.99 672.656 484.281 674.583 485.031 676.688C485.844 678.688 486.281 680.875 486.344 683.25C486.531 689.312 486.917 693.896 487.5 697L487.75 698.125C486.354 698.292 485.083 698.583 483.938 699C482.125 699.667 480.771 700.333 479.875 701C480.688 695.542 481.094 690.26 481.094 685.156C481.073 684.49 481.062 683.896 481.062 683.375C481.062 680.979 480.688 679.167 479.938 677.938C478.688 676.104 476.875 674.594 474.5 673.406C472.417 672.365 469.333 671.427 465.25 670.594H465.219C465.073 672.115 465 675.49 465 680.719V681.812C465 687.667 465.438 692.729 466.312 697L466.562 698.125C465.146 698.292 463.875 698.583 462.75 699C460.938 699.667 459.583 700.333 458.688 701ZM496.344 701C496.802 697.854 497.135 694.542 497.344 691.062C497.573 687.583 497.688 683.896 497.688 680C497.688 679.333 497.688 678.719 497.688 678.156C497.688 677.594 497.677 677.083 497.656 676.625L497.469 669.5C495.969 669.542 494.542 669.625 493.188 669.75C491.854 669.875 490.562 670.052 489.312 670.281C489.604 669.823 489.875 669.208 490.125 668.438C490.354 667.646 490.531 666.729 490.656 665.688L491.156 665.844C491.76 666.031 492.573 666.167 493.594 666.25C494.615 666.312 495.854 666.375 497.312 666.438C497.208 664.5 497.094 662.802 496.969 661.344C496.844 659.885 496.698 658.646 496.531 657.625L496.344 656.562C497.615 656.417 498.875 656.125 500.125 655.688C501.396 655.229 502.76 654.594 504.219 653.781C503.635 657.49 503.229 661.729 503 666.5C504.583 666.458 506.052 666.375 507.406 666.25C508.781 666.104 510.062 665.917 511.25 665.688C510.562 667.104 510.135 668.635 509.969 670.281L509.469 670.156C508.76 669.99 507.854 669.875 506.75 669.812C505.646 669.729 504.354 669.646 502.875 669.562C502.854 670.5 502.833 671.438 502.812 672.375C502.812 673.312 502.812 674.281 502.812 675.281V676.375C502.833 681.396 502.927 685.615 503.094 689.031C503.26 692.448 503.552 695.104 503.969 697L504.219 698.125C503.469 698.229 502.698 698.396 501.906 698.625C501.115 698.833 500.354 699.083 499.625 699.375C498.917 699.646 498.271 699.927 497.688 700.219C497.104 700.51 496.656 700.771 496.344 701ZM513.531 674.75C514.073 673.5 514.99 672.354 516.281 671.312L517.75 670.125L524.875 665.688C526.062 666 527.531 666.604 529.281 667.5C530.948 668.354 532.51 669.49 533.969 670.906C535.802 672.698 537.094 674.625 537.844 676.688C538.656 678.688 539.094 680.875 539.156 683.25C539.302 689.167 539.688 693.75 540.312 697L540.562 698.125C539.146 698.292 537.875 698.583 536.75 699C534.938 699.667 533.583 700.333 532.688 701C533.479 695.375 533.875 689.781 533.875 684.219C533.875 683.948 533.875 683.667 533.875 683.375C533.875 681 533.5 679.188 532.75 677.938C531.438 676 529.625 674.49 527.312 673.406C525.229 672.427 522.146 671.49 518.062 670.594C517.729 671.115 517.562 672.021 517.562 673.312C517.562 674.125 517.698 675.188 517.969 676.5L513.531 674.75ZM526.094 701C524.906 700.583 523.021 699.708 520.438 698.375C518.5 697.375 516.625 695.875 514.812 693.875C513.479 691.792 512.812 689.865 512.812 688.094C512.812 688.052 512.812 688 512.812 687.938C513.125 685.417 514.292 683.375 516.312 681.812C519.729 679.188 524.01 677.854 529.156 677.812C522.802 680.146 519.125 682.75 518.125 685.625C517.917 686.229 517.812 686.812 517.812 687.375C517.812 688.333 518.146 689.188 518.812 689.938C520.604 691.75 522.115 692.958 523.344 693.562C527.115 695.417 530.219 696.458 532.656 696.688L526.094 701ZM548.375 701C549.167 694.75 549.562 689.562 549.562 685.438C549.562 683.375 549.552 682.25 549.531 682.062C549.49 677.208 549.156 672.844 548.531 668.969L548.375 668.469C550.896 668.177 553.448 667.292 556.031 665.812L556.25 665.688C555.833 666.917 555.385 668.333 554.906 669.938L561.75 665.688C562.938 666 564.406 666.604 566.156 667.5C567.781 668.354 569.344 669.49 570.844 670.906C572.677 672.656 573.969 674.583 574.719 676.688C575.531 678.688 575.969 680.875 576.031 683.25C576.219 689.312 576.604 693.896 577.188 697L577.438 698.125C576.042 698.292 574.771 698.583 573.625 699C571.812 699.667 570.458 700.333 569.562 701C570.375 695.542 570.781 690.26 570.781 685.156C570.76 684.49 570.75 683.896 570.75 683.375C570.75 680.979 570.375 679.167 569.625 677.938C568.375 676.104 566.562 674.594 564.188 673.406C562.104 672.365 559.021 671.427 554.938 670.594H554.906C554.76 672.115 554.688 675.49 554.688 680.719V681.812C554.688 687.667 555.125 692.729 556 697L556.25 698.125C554.833 698.292 553.562 698.583 552.438 699C550.625 699.667 549.271 700.333 548.375 701ZM585.25 701C585.708 697.854 586.042 694.542 586.25 691.062C586.479 687.583 586.594 683.896 586.594 680C586.573 674.5 586.458 669.885 586.25 666.156C586.062 662.427 585.792 659.583 585.438 657.625L585.25 656.562C586.5 656.417 587.76 656.125 589.031 655.688C590.302 655.229 591.594 654.635 592.906 653.906L593.125 653.781C592.771 656.115 592.479 658.615 592.25 661.281C592.021 663.948 591.865 666.833 591.781 669.938L598.625 665.688C599.208 665.833 599.875 666.062 600.625 666.375C601.396 666.688 602.198 667.083 603.031 667.562C603.865 668.021 604.708 668.562 605.562 669.188C606.438 669.812 607.25 670.51 608 671.281C608.771 672.031 609.469 672.865 610.094 673.781C610.719 674.677 611.219 675.646 611.594 676.688C612.406 678.688 612.844 680.875 612.906 683.25C613.01 686.292 613.156 688.958 613.344 691.25C613.531 693.521 613.771 695.438 614.062 697L614.312 698.125C613.438 698.229 612.594 698.396 611.781 698.625C610.99 698.833 610.25 699.073 609.562 699.344C608.896 699.615 608.292 699.896 607.75 700.188C607.208 700.479 606.771 700.75 606.438 701C607.25 695.542 607.656 690.26 607.656 685.156C607.615 684.26 607.573 683.458 607.531 682.75C607.51 682.042 607.458 681.406 607.375 680.844C607.312 680.26 607.208 679.74 607.062 679.281C606.938 678.802 606.75 678.354 606.5 677.938C605.896 677.042 605.198 676.24 604.406 675.531C603.635 674.823 602.677 674.188 601.531 673.625C600.385 673.042 599.021 672.51 597.438 672.031C595.875 671.531 594 671.052 591.812 670.594H591.781C591.76 671.365 591.74 672.146 591.719 672.938C591.719 673.708 591.719 674.49 591.719 675.281V676.375C591.74 681.396 591.833 685.615 592 689.031C592.167 692.448 592.458 695.104 592.875 697L593.125 698.125C592.229 698.229 591.375 698.396 590.562 698.625C589.771 698.833 589.031 699.073 588.344 699.344C587.677 699.615 587.073 699.896 586.531 700.188C586.01 700.479 585.583 700.75 585.25 701ZM621.281 674.75C621.823 673.5 622.74 672.354 624.031 671.312L625.5 670.125L632.625 665.688C633.812 666 635.281 666.604 637.031 667.5C638.698 668.354 640.26 669.49 641.719 670.906C643.552 672.698 644.844 674.625 645.594 676.688C646.406 678.688 646.844 680.875 646.906 683.25C647.052 689.167 647.438 693.75 648.062 697L648.312 698.125C646.896 698.292 645.625 698.583 644.5 699C642.688 699.667 641.333 700.333 640.438 701C641.229 695.375 641.625 689.781 641.625 684.219C641.625 683.948 641.625 683.667 641.625 683.375C641.625 681 641.25 679.188 640.5 677.938C639.188 676 637.375 674.49 635.062 673.406C632.979 672.427 629.896 671.49 625.812 670.594C625.479 671.115 625.312 672.021 625.312 673.312C625.312 674.125 625.448 675.188 625.719 676.5L621.281 674.75ZM633.844 701C632.656 700.583 630.771 699.708 628.188 698.375C626.25 697.375 624.375 695.875 622.562 693.875C621.229 691.792 620.562 689.865 620.562 688.094C620.562 688.052 620.562 688 620.562 687.938C620.875 685.417 622.042 683.375 624.062 681.812C627.479 679.188 631.76 677.854 636.906 677.812C630.552 680.146 626.875 682.75 625.875 685.625C625.667 686.229 625.562 686.812 625.562 687.375C625.562 688.333 625.896 689.188 626.562 689.938C628.354 691.75 629.865 692.958 631.094 693.562C634.865 695.417 637.969 696.458 640.406 696.688L633.844 701ZM676.375 701C676.833 697.812 677.177 694.802 677.406 691.969C677.635 689.135 677.75 686.458 677.75 683.938C677.75 680.875 677.625 678.01 677.375 675.344C677.146 672.677 676.875 670.229 676.562 668L676.375 666.938C677.646 666.792 678.906 666.5 680.156 666.062C681.427 665.604 682.719 665.01 684.031 664.281L684.25 664.156C683.771 667.323 683.406 670.167 683.156 672.688C682.927 675.188 682.812 677.417 682.812 679.375C682.812 679.646 682.812 679.906 682.812 680.156C682.812 680.406 682.823 680.646 682.844 680.875C683.052 685.25 683.229 688.74 683.375 691.344C683.542 693.948 683.698 695.708 683.844 696.625L685.281 697.344C687.344 697.885 689.26 698.156 691.031 698.156C692.885 698.156 694.604 697.875 696.188 697.312C697.771 696.75 699.229 695.917 700.562 694.812C701.375 693.625 701.969 692.469 702.344 691.344C702.74 690.198 702.938 689.062 702.938 687.938C702.938 685.583 702.333 683.625 701.125 682.062C699.917 680.5 698.167 679.469 695.875 678.969C695.354 678.865 694.844 678.812 694.344 678.812C691.844 678.812 688.479 679.896 684.25 682.062L688.844 674.094C693.156 672.135 695.312 669.01 695.312 664.719C695.312 663.219 694.75 661.979 693.625 661C692.521 660.021 690.865 659.531 688.656 659.531C687.615 659.552 686.458 659.688 685.188 659.938C683.917 660.167 682.594 660.521 681.219 661C679.865 661.479 678.479 662.083 677.062 662.812C675.667 663.542 674.312 664.406 673 665.406L675.062 657.219C676.562 656.615 677.729 656.156 678.562 655.844C679.396 655.51 679.927 655.302 680.156 655.219C681.656 654.74 683.146 654.375 684.625 654.125C686.104 653.854 687.562 653.719 689 653.719C690.458 653.719 691.729 653.854 692.812 654.125C693.896 654.396 694.802 654.771 695.531 655.25C697.094 656.312 698.26 657.5 699.031 658.812C699.802 660.125 700.188 661.531 700.188 663.031C700.167 664.198 699.917 665.323 699.438 666.406C698.979 667.469 698.385 668.448 697.656 669.344C696.927 670.24 696.115 671.031 695.219 671.719C694.344 672.385 693.479 672.885 692.625 673.219C692.979 673.177 693.333 673.146 693.688 673.125C694.042 673.083 694.385 673.062 694.719 673.062C696.323 673.062 697.781 673.271 699.094 673.688C700.427 674.104 701.615 674.656 702.656 675.344C703.698 676.031 704.604 676.833 705.375 677.75C706.146 678.646 706.781 679.583 707.281 680.562C707.781 681.542 708.156 682.521 708.406 683.5C708.656 684.479 708.781 685.396 708.781 686.25C708.781 687.312 708.688 688.281 708.5 689.156C708.312 690.031 708.135 690.708 707.969 691.188C707.365 693 706.562 694.542 705.562 695.812C704.583 697.083 703.479 698.115 702.25 698.906C701.042 699.698 699.729 700.271 698.312 700.625C696.917 700.979 695.49 701.156 694.031 701.156C693.156 701.156 692.448 701.135 691.906 701.094C691.365 701.052 691.062 701.021 691 701L684.25 698.125C683.375 698.229 682.531 698.396 681.719 698.625C680.927 698.833 680.188 699.073 679.5 699.344C678.833 699.615 678.229 699.896 677.688 700.188C677.146 700.479 676.708 700.75 676.375 701ZM715.625 668.562C716.5 668.479 717.333 668.333 718.125 668.125C718.938 667.896 719.677 667.646 720.344 667.375C721.031 667.083 721.635 666.792 722.156 666.5C722.698 666.208 723.146 665.938 723.5 665.688C722.688 671.167 722.281 676.448 722.281 681.531C722.323 682.427 722.354 683.229 722.375 683.938C722.417 684.646 722.469 685.292 722.531 685.875C722.594 686.438 722.698 686.958 722.844 687.438C722.99 687.896 723.188 688.333 723.438 688.75C724.042 689.646 724.729 690.448 725.5 691.156C726.292 691.865 727.26 692.51 728.406 693.094C729.552 693.656 730.906 694.188 732.469 694.688C734.052 695.167 735.948 695.635 738.156 696.094C738.24 695.323 738.292 694.104 738.312 692.438C738.354 690.75 738.375 688.594 738.375 685.969V684.875C738.333 681.958 738.219 679.24 738.031 676.719C737.865 674.177 737.542 671.833 737.062 669.688L736.812 668.562C737.688 668.479 738.521 668.333 739.312 668.125C740.125 667.896 740.865 667.646 741.531 667.375C742.219 667.083 742.823 666.792 743.344 666.5C743.885 666.208 744.333 665.938 744.688 665.688C744.292 668.833 743.99 671.698 743.781 674.281C743.594 676.844 743.5 679.167 743.5 681.25C743.5 682.958 743.51 684.542 743.531 686C743.573 687.458 743.625 688.854 743.688 690.188C743.771 691.5 743.875 692.771 744 694C744.146 695.229 744.323 696.469 744.531 697.719L744.688 698.219C743.417 698.365 742.146 698.667 740.875 699.125C739.625 699.562 738.344 700.146 737.031 700.875L736.812 701C737.021 700.396 737.24 699.74 737.469 699.031C737.698 698.302 737.927 697.542 738.156 696.75L731.312 701C730.438 700.771 729.375 700.365 728.125 699.781C726.875 699.177 725.615 698.417 724.344 697.5C723.073 696.562 721.896 695.469 720.812 694.219C719.729 692.969 718.906 691.562 718.344 690C717.531 688 717.094 685.812 717.031 683.438C716.927 680.396 716.781 677.74 716.594 675.469C716.406 673.177 716.167 671.25 715.875 669.688L715.625 668.562ZM754.062 701C754.458 697.854 754.75 695 754.938 692.438C755.146 689.854 755.25 687.521 755.25 685.438C755.25 683.75 755.229 682.177 755.188 680.719C755.167 679.24 755.115 677.844 755.031 676.531C754.948 675.198 754.833 673.917 754.688 672.688C754.562 671.458 754.406 670.219 754.219 668.969L754.062 668.469C755.333 668.323 756.594 668.031 757.844 667.594C759.115 667.135 760.406 666.542 761.719 665.812L761.938 665.688C761.729 666.292 761.51 666.958 761.281 667.688C761.052 668.396 760.823 669.146 760.594 669.938L767.438 665.688C768.271 665.917 769.302 666.323 770.531 666.906C771.781 667.469 773.042 668.219 774.312 669.156C775.583 670.073 776.771 671.167 777.875 672.438C779 673.688 779.844 675.104 780.406 676.688L774.75 679C773.896 677.438 772.917 676.125 771.812 675.062C770.708 673.979 769.573 673.104 768.406 672.438C767.24 671.75 766.094 671.26 764.969 670.969C763.844 670.656 762.833 670.5 761.938 670.5C761.5 670.5 761.062 670.531 760.625 670.594H760.594C760.51 671.365 760.448 672.594 760.406 674.281C760.385 675.948 760.375 678.094 760.375 680.719V681.812C760.375 687.667 760.812 692.729 761.688 697L761.938 698.125C761.125 698.229 760.323 698.385 759.531 698.594C758.74 698.802 757.99 699.052 757.281 699.344C756.594 699.615 755.969 699.896 755.406 700.188C754.844 700.479 754.396 700.75 754.062 701ZM809.281 698.406C808.49 700.198 807.062 702.281 805 704.656C803.625 706.24 802.344 707.438 801.156 708.25L794.219 712.719C792.26 711.969 791.146 711.521 790.875 711.375C789.75 710.771 788.344 709.688 786.656 708.125C785.99 707.458 785.385 706.771 784.844 706.062L790.5 703.25L793.25 705.812C794.938 707.396 797.219 708.188 800.094 708.188C800.302 708.188 800.521 708.188 800.75 708.188L800.812 708.156C802.146 707.094 803.188 704.406 803.938 700.094C804.229 698.385 804.385 696.948 804.406 695.781C804.469 691.406 804.5 688.448 804.5 686.906C804.5 686.552 804.5 686.25 804.5 686C804.479 684.729 804.469 683.885 804.469 683.469C804.469 681.052 803.99 679.219 803.031 677.969C801.698 675.99 799.896 674.479 797.625 673.438C795.458 672.438 792.458 671.396 788.625 670.312C787.458 672.312 786.698 674.281 786.344 676.219C786.01 678.052 785.844 679.74 785.844 681.281C785.844 682.01 785.927 682.802 786.094 683.656C786.51 685.781 787.281 687.656 788.406 689.281C789.594 691.073 791.344 692.531 793.656 693.656C795.906 694.74 799 695.74 802.938 696.656L796.312 701C795.333 700.75 793.844 700.115 791.844 699.094C790.406 698.365 788.844 697.24 787.156 695.719C785.323 693.927 784.031 691.938 783.281 689.75C782.427 687.417 782 685.208 782 683.125C782 680.854 782.458 678.573 783.375 676.281C784.354 673.823 785.542 672.094 786.938 671.094L788.031 670.156L795.156 665.719C796.594 666.094 798.073 666.708 799.594 667.562C800.948 668.333 802.5 669.458 804.25 670.938C806.917 673.188 808.625 675.083 809.375 676.625L809.469 683.281C809.615 688.76 809.781 692.24 809.969 693.719C810.156 695.198 810.25 695.958 810.25 696L809.281 698.406ZM818.062 668.562C818.938 668.479 819.771 668.333 820.562 668.125C821.375 667.896 822.115 667.646 822.781 667.375C823.469 667.083 824.073 666.792 824.594 666.5C825.135 666.208 825.583 665.938 825.938 665.688C825.125 671.167 824.719 676.448 824.719 681.531C824.76 682.427 824.792 683.229 824.812 683.938C824.854 684.646 824.906 685.292 824.969 685.875C825.031 686.438 825.135 686.958 825.281 687.438C825.427 687.896 825.625 688.333 825.875 688.75C826.479 689.646 827.167 690.448 827.938 691.156C828.729 691.865 829.698 692.51 830.844 693.094C831.99 693.656 833.344 694.188 834.906 694.688C836.49 695.167 838.385 695.635 840.594 696.094C840.677 695.323 840.729 694.104 840.75 692.438C840.792 690.75 840.812 688.594 840.812 685.969V684.875C840.771 681.958 840.656 679.24 840.469 676.719C840.302 674.177 839.979 671.833 839.5 669.688L839.25 668.562C840.125 668.479 840.958 668.333 841.75 668.125C842.562 667.896 843.302 667.646 843.969 667.375C844.656 667.083 845.26 666.792 845.781 666.5C846.323 666.208 846.771 665.938 847.125 665.688C846.729 668.833 846.427 671.698 846.219 674.281C846.031 676.844 845.938 679.167 845.938 681.25C845.938 682.958 845.948 684.542 845.969 686C846.01 687.458 846.062 688.854 846.125 690.188C846.208 691.5 846.312 692.771 846.438 694C846.583 695.229 846.76 696.469 846.969 697.719L847.125 698.219C845.854 698.365 844.583 698.667 843.312 699.125C842.062 699.562 840.781 700.146 839.469 700.875L839.25 701C839.458 700.396 839.677 699.74 839.906 699.031C840.135 698.302 840.365 697.542 840.594 696.75L833.75 701C832.875 700.771 831.812 700.365 830.562 699.781C829.312 699.177 828.052 698.417 826.781 697.5C825.51 696.562 824.333 695.469 823.25 694.219C822.167 692.969 821.344 691.562 820.781 690C819.969 688 819.531 685.812 819.469 683.438C819.365 680.396 819.219 677.74 819.031 675.469C818.844 673.177 818.604 671.25 818.312 669.688L818.062 668.562ZM869.25 701.125C868.021 700.833 866.542 700.229 864.812 699.312C863.083 698.375 861.521 697.24 860.125 695.906C858.292 694.135 857.01 692.208 856.281 690.125C855.573 688.396 855.125 686.208 854.938 683.562V683.438C854.938 681.208 855.448 678.906 856.469 676.531C857.24 674.719 858.271 673.104 859.562 671.688C860.104 671.104 860.729 670.542 861.438 670L868 665.688C869.104 666.062 870.99 666.938 873.656 668.312C875.594 669.312 877.469 670.812 879.281 672.812C880.615 674.896 881.281 676.823 881.281 678.594C881.281 678.635 881.281 678.688 881.281 678.75C880.969 681.292 879.802 683.333 877.781 684.875C874.344 687.5 870.062 688.833 864.938 688.875C871.396 686.667 875.219 684.115 876.406 681.219C876.656 680.615 876.781 680.021 876.781 679.438C876.781 679.417 876.781 679.396 876.781 679.375C876.781 679.354 876.781 679.333 876.781 679.312C876.781 678.438 876.417 677.583 875.688 676.75C874.542 675.396 872.896 674.188 870.75 673.125C867.083 671.312 864.104 670.292 861.812 670.062C861.021 671.354 860.302 673.312 859.656 675.938C859.156 677.979 858.906 679.75 858.906 681.25C858.906 681.958 858.958 682.635 859.062 683.281C859.354 685.135 860.125 687 861.375 688.875C862.667 690.792 864.469 692.302 866.781 693.406C868.781 694.365 871.854 695.312 876 696.25L876.031 696.219C876.365 695.698 876.531 694.792 876.531 693.5C876.531 692.688 876.396 691.625 876.125 690.312L880.562 692.062C880 693.333 879.083 694.479 877.812 695.5C876.854 696.271 876.375 696.667 876.375 696.688L869.25 701.125ZM889.125 701C889.521 697.854 889.812 695 890 692.438C890.208 689.854 890.312 687.521 890.312 685.438C890.312 683.75 890.292 682.177 890.25 680.719C890.229 679.24 890.177 677.844 890.094 676.531C890.01 675.198 889.896 673.917 889.75 672.688C889.625 671.458 889.469 670.219 889.281 668.969L889.125 668.469C890.396 668.323 891.656 668.031 892.906 667.594C894.177 667.135 895.469 666.542 896.781 665.812L897 665.688C896.792 666.292 896.573 666.958 896.344 667.688C896.115 668.396 895.885 669.146 895.656 669.938L902.5 665.688C903.333 665.917 904.365 666.323 905.594 666.906C906.844 667.469 908.104 668.219 909.375 669.156C910.646 670.073 911.833 671.167 912.938 672.438C914.062 673.688 914.906 675.104 915.469 676.688L909.812 679C908.958 677.438 907.979 676.125 906.875 675.062C905.771 673.979 904.635 673.104 903.469 672.438C902.302 671.75 901.156 671.26 900.031 670.969C898.906 670.656 897.896 670.5 897 670.5C896.562 670.5 896.125 670.531 895.688 670.594H895.656C895.573 671.365 895.51 672.594 895.469 674.281C895.448 675.948 895.438 678.094 895.438 680.719V681.812C895.438 687.667 895.875 692.729 896.75 697L897 698.125C896.188 698.229 895.385 698.385 894.594 698.594C893.802 698.802 893.052 699.052 892.344 699.344C891.656 699.615 891.031 699.896 890.469 700.188C889.906 700.479 889.458 700.75 889.125 701Z" fill="white"/>
<path d="M642.111 361H637.862V402.623H642.111V361Z" fill="#BFBFBF"/>
<path d="M664.22 367.375C655.284 361.772 648.602 361.341 645.085 361.699V383.925C655.97 381.114 661.667 386.792 669.401 385.218C677.774 383.52 684.153 372.474 683.753 370.773C683.356 369.072 677.775 375.872 664.22 367.375Z" fill="#BFBFBF"/>
<path d="M672.015 418.592H664.628V407.814H653.316V418.592H645.933V407.814H634.619V418.592H627.236V407.814H615.925V418.592H608.54V407.814H597.229V432.208H603.274H608.54H615.925H627.236H634.619H645.933H653.316H664.628H672.015H677.28H683.324V407.814H672.015V418.592Z" fill="#BFBFBF"/>
<path d="M603.274 529.5L615 539L628.029 534.379C628.029 526.886 634.101 520.816 641.59 520.816C649.079 520.816 655.151 526.886 655.151 534.379V559.375L677.281 579.5V438.442H603.274V498.908V529.5ZM649.477 462.394H658.241V477.585H649.477V462.394ZM620.266 462.394H629.029V477.585H620.266V462.394Z" fill="#BFBFBF"/>
<path d="M596.399 480.31V519.842H581.5L552.5 554.5L529 566.5V480.31H596.399ZM560.5 495C558.015 495 556 497.015 556 499.5V509H565V499.5C565 497.015 562.985 495 560.5 495Z" fill="#BFBFBF"/>
<path d="M585.09 460.66H577.705V449.882H566.393V460.66H559.008V449.882H547.696V460.66H540.312V449.882H529V460.66V474.273H540.312H547.696H559.008H566.393H577.705H585.09H590.356H596.399V449.882H585.09V460.66Z" fill="#BFBFBF"/>
<path d="M684.601 582.5L730 559.5L752 545.5V527.188V480.309H684.601V582.5ZM713.918 497.449H722.682V512.64H713.918V497.449Z" fill="#BFBFBF"/>
<path d="M740.689 449.882V460.66H733.304V449.882H721.992V460.66H714.608V449.882H703.297V460.66H695.91V449.882H684.601V460.66V474.273H695.91H703.297H714.608H721.992H733.304H740.689H745.957H752V449.882H740.689Z" fill="#BFBFBF"/>
<path d="M383 646L470.187 556.216L513.366 565.527L583.949 507L619.655 535.599L632.112 528.283L685.258 576.5L750.856 544.245L799.018 576.5L818.946 563.532L897.5 642.674L818.532 579.826L833.893 615.074L750.026 554.22L703.111 579.161L738.817 642.674L631.697 543.246L618.825 549.233L582.701 521.632L503.816 646L509.629 576.5L473.093 566.857L383 646Z" fill="white"/>
</svg>
